<svg width="40" height="33" viewBox="0 0 40 33" fill="none" xmlns="http://www.w3.org/2000/svg">
    <path fill-rule="evenodd" clip-rule="evenodd"
          d="M19.9988 12.375C16.6863 12.375 14 15.1461 14 18.5624C14 21.9804 16.6863 24.7505 19.9988 24.7505C23.313 24.7505 25.9992 21.9804 25.9992 18.5624C25.9992 15.1461 23.313 12.375 19.9988 12.375ZM36.0008 6.18727H31.2005C30.5401 6.18727 29.8287 5.6594 29.6199 5.01335L28.3797 1.17344C28.1709 0.528033 27.4595 0 26.8007 0H13.1993C12.5405 0 11.8291 0.528033 11.6203 1.17392L10.3801 5.01383C10.1697 5.6594 9.45989 6.18727 8.79954 6.18727H3.99922C1.80012 6.18727 0 8.0436 0 10.3123V28.8743C0 31.1437 1.80012 33 3.99922 33H36.0008C38.1999 33 40 31.1437 40 28.8743V10.3123C40 8.0436 38.1999 6.18727 36.0008 6.18727ZM19.9996 28.8735C14.4771 28.8735 10 24.2566 10 18.5613C10 12.8663 14.4771 8.24896 19.9996 8.24896C25.5221 8.24896 30.0008 12.8663 30.0008 18.5613C30.0008 24.2566 25.5221 28.8735 19.9996 28.8735ZM34.6007 13.1969C33.8291 13.1969 33.2012 12.5508 33.2012 11.7531C33.2012 10.9562 33.8291 10.3094 34.6007 10.3094C35.374 10.3094 36.0019 10.9562 36.0019 11.7531C36.0019 12.5508 35.374 13.1969 34.6007 13.1969Z"
          fill="#D1CDE7"/>
</svg>
