<svg width="21" height="23" viewBox="0 0 21 23" fill="none" xmlns="http://www.w3.org/2000/svg">
    <path d="M11.2031 2.6416H9.79681C9.67181 2.6416 9.60931 2.70723 9.60931 2.83848V10.5658H2.62549C2.50049 10.5658 2.43799 10.6314 2.43799 10.7627V12.2393C2.43799 12.3705 2.50049 12.4361 2.62549 12.4361H9.60931V20.1635C9.60931 20.2947 9.67181 20.3603 9.79681 20.3603H11.2031C11.3281 20.3603 11.3906 20.2947 11.3906 20.1635V12.4361H18.3755C18.5005 12.4361 18.563 12.3705 18.563 12.2393V10.7627C18.563 10.6314 18.5005 10.5658 18.3755 10.5658H11.3906V2.83848C11.3906 2.70723 11.3281 2.6416 11.2031 2.6416Z"
          fill="#474747"/>
</svg>
