<svg width="24" height="24" viewBox="0 0 24 24" fill="none" xmlns="http://www.w3.org/2000/svg">
    <path d="M16.7282 8.24231C17.1187 8.63284 17.1187 9.266 16.7282 9.65653L13.8993 12.4846L16.7276 15.3133C17.1181 15.7038 17.1181 16.337 16.7276 16.7275C16.3371 17.118 15.7039 17.118 15.3134 16.7275L12.4851 13.8988L9.65663 16.728C9.26611 17.1186 8.63294 17.1186 8.24242 16.728C7.8519 16.3375 7.8519 15.7044 8.24242 15.3138L11.0709 12.4846L8.24298 9.65707C7.85245 9.26655 7.85245 8.63339 8.24298 8.24286C8.6335 7.85234 9.26667 7.85234 9.65719 8.24286L12.4851 11.0704L15.3139 8.24231C15.7045 7.85179 16.3376 7.85179 16.7282 8.24231Z"
          fill="#666666"/>
</svg>
