<svg width="16" height="15" viewBox="0 0 16 15" fill="none" xmlns="http://www.w3.org/2000/svg">
    <g clip-path="url(#clip0_100_852)">
        <path d="M5.40963 2.15247H5.28103C5.35176 2.15247 5.40963 2.09446 5.40963 2.02355V2.15247H10.2962V2.02355C10.2962 2.09446 10.354 2.15247 10.4248 2.15247H10.2962V3.31276H11.4535V2.02355C11.4535 1.45469 10.9922 0.992188 10.4248 0.992188H5.28103C4.71362 0.992188 4.25229 1.45469 4.25229 2.02355V3.31276H5.40963V2.15247ZM13.511 3.31276H2.19479C1.91028 3.31276 1.68042 3.5432 1.68042 3.82844V4.34412C1.68042 4.41503 1.73829 4.47304 1.80901 4.47304H2.77989L3.17692 12.9012C3.20264 13.4507 3.65593 13.8842 4.20406 13.8842H11.5017C12.0515 13.8842 12.5032 13.4524 12.5289 12.9012L12.9259 4.47304H13.8968C13.9675 4.47304 14.0254 4.41503 14.0254 4.34412V3.82844C14.0254 3.5432 13.7955 3.31276 13.511 3.31276ZM11.378 12.724H4.32784L3.93884 4.47304H11.767L11.378 12.724Z"
              fill="white"/>
    </g>
    <defs>
        <clipPath id="clip0_100_852">
            <rect width="14.4025" height="14.4391" fill="white" transform="translate(0.651855 0.219727)"/>
        </clipPath>
    </defs>
</svg>
