<svg width="18" height="17" viewBox="0 0 18 17" fill="none" xmlns="http://www.w3.org/2000/svg">
    <path d="M14.5488 3.7781H12.7189C12.5819 3.11192 12.2194 2.51334 11.6926 2.08325C11.1657 1.65316 10.5067 1.41785 9.82655 1.41699L8.646 1.41699C7.96588 1.41785 7.30684 1.65316 6.77998 2.08325C6.25312 2.51334 5.89064 3.11192 5.75363 3.7781H3.92377C3.76722 3.7781 3.61708 3.84029 3.50638 3.95099C3.39569 4.06169 3.3335 4.21183 3.3335 4.36838C3.3335 4.52493 3.39569 4.67507 3.50638 4.78577C3.61708 4.89647 3.76722 4.95866 3.92377 4.95866H4.51405V12.6323C4.51499 13.4147 4.82624 14.1649 5.37953 14.7182C5.93282 15.2715 6.68297 15.5827 7.46544 15.5837H11.0071C11.7896 15.5827 12.5397 15.2715 13.093 14.7182C13.6463 14.1649 13.9576 13.4147 13.9585 12.6323V4.95866H14.5488C14.7053 4.95866 14.8555 4.89647 14.9662 4.78577C15.0769 4.67507 15.1391 4.52493 15.1391 4.36838C15.1391 4.21183 15.0769 4.06169 14.9662 3.95099C14.8555 3.84029 14.7053 3.7781 14.5488 3.7781ZM8.646 2.59755H9.82655C10.1927 2.59799 10.5497 2.71169 10.8487 2.92305C11.1477 3.13441 11.3739 3.43308 11.4964 3.7781H6.9761C7.09863 3.43308 7.3249 3.13441 7.62386 2.92305C7.92283 2.71169 8.27986 2.59799 8.646 2.59755ZM12.7779 12.6323C12.7779 13.1019 12.5914 13.5523 12.2593 13.8844C11.9272 14.2165 11.4768 14.4031 11.0071 14.4031H7.46544C6.99579 14.4031 6.54537 14.2165 6.21327 13.8844C5.88118 13.5523 5.69461 13.1019 5.69461 12.6323V4.95866H12.7779V12.6323Z"
          fill="white"/>
    <path d="M8.05564 12.0415C8.2122 12.0415 8.36234 11.9794 8.47305 11.8687C8.58375 11.758 8.64594 11.6078 8.64594 11.4513V7.90961C8.64594 7.75306 8.58375 7.60292 8.47305 7.49222C8.36234 7.38153 8.2122 7.31934 8.05564 7.31934C7.89908 7.31934 7.74893 7.38153 7.63823 7.49222C7.52752 7.60292 7.46533 7.75306 7.46533 7.90961V11.4513C7.46533 11.6078 7.52752 11.758 7.63823 11.8687C7.74893 11.9794 7.89908 12.0415 8.05564 12.0415Z"
          fill="white"/>
    <path d="M10.4165 12.0415C10.5731 12.0415 10.7232 11.9794 10.834 11.8687C10.9447 11.758 11.0069 11.6078 11.0069 11.4513V7.90961C11.0069 7.75306 10.9447 7.60292 10.834 7.49222C10.7232 7.38153 10.5731 7.31934 10.4165 7.31934C10.2599 7.31934 10.1098 7.38153 9.99908 7.49222C9.88837 7.60292 9.82617 7.75306 9.82617 7.90961V11.4513C9.82617 11.6078 9.88837 11.758 9.99908 11.8687C10.1098 11.9794 10.2599 12.0415 10.4165 12.0415Z"
          fill="white"/>
</svg>
