<svg width="15" height="15" viewBox="0 0 15 15" fill="none" xmlns="http://www.w3.org/2000/svg">
    <g clip-path="url(#clip0_100_850)">
        <path d="M14.1642 7.02426C12.6404 3.80609 10.337 2.18652 7.24914 2.18652C4.15968 2.18652 1.85786 3.80609 0.334032 7.02588C0.27291 7.15563 0.241211 7.29734 0.241211 7.44084C0.241211 7.58433 0.27291 7.72605 0.334032 7.8558C1.85786 11.074 4.16129 12.6935 7.24914 12.6935C10.3386 12.6935 12.6404 11.074 14.1642 7.85419C14.288 7.59313 14.288 7.29016 14.1642 7.02426ZM7.24914 11.5333C4.65637 11.5333 2.75802 10.215 1.41904 7.44003C2.75802 4.66502 4.65637 3.34681 7.24914 3.34681C9.8419 3.34681 11.7403 4.66502 13.0792 7.44003C11.7419 10.215 9.84351 11.5333 7.24914 11.5333ZM7.18484 4.60378C5.62243 4.60378 4.35579 5.87365 4.35579 7.44003C4.35579 9.00642 5.62243 10.2763 7.18484 10.2763C8.74725 10.2763 10.0139 9.00642 10.0139 7.44003C10.0139 5.87365 8.74725 4.60378 7.18484 4.60378ZM7.18484 9.24492C6.18985 9.24492 5.38453 8.43755 5.38453 7.44003C5.38453 6.44251 6.18985 5.63515 7.18484 5.63515C8.17983 5.63515 8.98515 6.44251 8.98515 7.44003C8.98515 8.43755 8.17983 9.24492 7.18484 9.24492Z"
              fill="white"/>
    </g>
    <defs>
        <clipPath id="clip0_100_850">
            <rect width="14.4025" height="14.4391" fill="white" transform="translate(0.0478516 0.219727)"/>
        </clipPath>
    </defs>
</svg>
