<svg width="38" height="38" viewBox="0 0 38 38" fill="none" xmlns="http://www.w3.org/2000/svg">
    <path d="M0 2C0 0.89543 0.895431 0 2 0H36C37.1046 0 38 0.895431 38 2V36C38 37.1046 37.1046 38 36 38H2C0.89543 38 0 37.1046 0 36V2Z"
          fill="#F4F4F4"/>
    <path d="M19 9.5C21.5812 9.5 21.9032 9.5095 22.9159 9.557C23.9276 9.6045 24.6164 9.76315 25.2225 9.99875C25.8495 10.2401 26.3777 10.5668 26.9059 11.0941C27.389 11.569 27.7628 12.1435 28.0012 12.7775C28.2359 13.3826 28.3955 14.0723 28.443 15.0841C28.4876 16.0968 28.5 16.4188 28.5 19C28.5 21.5812 28.4905 21.9032 28.443 22.9159C28.3955 23.9276 28.2359 24.6164 28.0012 25.2225C27.7634 25.8569 27.3896 26.4315 26.9059 26.9059C26.4309 27.3888 25.8564 27.7626 25.2225 28.0012C24.6173 28.2359 23.9276 28.3955 22.9159 28.443C21.9032 28.4876 21.5812 28.5 19 28.5C16.4188 28.5 16.0968 28.4905 15.0841 28.443C14.0723 28.3955 13.3836 28.2359 12.7775 28.0012C12.1432 27.7633 11.5687 27.3894 11.0941 26.9059C10.6109 26.4311 10.2371 25.8566 9.99875 25.2225C9.76315 24.6173 9.6045 23.9276 9.557 22.9159C9.51235 21.9032 9.5 21.5812 9.5 19C9.5 16.4188 9.5095 16.0968 9.557 15.0841C9.6045 14.0714 9.76315 13.3836 9.99875 12.7775C10.2365 12.1431 10.6104 11.5685 11.0941 11.0941C11.5688 10.6108 12.1433 10.2369 12.7775 9.99875C13.3836 9.76315 14.0714 9.6045 15.0841 9.557C16.0968 9.51235 16.4188 9.5 19 9.5ZM19 14.25C17.7402 14.25 16.532 14.7504 15.6412 15.6412C14.7504 16.532 14.25 17.7402 14.25 19C14.25 20.2598 14.7504 21.468 15.6412 22.3588C16.532 23.2496 17.7402 23.75 19 23.75C20.2598 23.75 21.468 23.2496 22.3588 22.3588C23.2496 21.468 23.75 20.2598 23.75 19C23.75 17.7402 23.2496 16.532 22.3588 15.6412C21.468 14.7504 20.2598 14.25 19 14.25ZM25.175 14.0125C25.175 13.6976 25.0499 13.3955 24.8272 13.1728C24.6045 12.9501 24.3024 12.825 23.9875 12.825C23.6726 12.825 23.3705 12.9501 23.1478 13.1728C22.9251 13.3955 22.8 13.6976 22.8 14.0125C22.8 14.3274 22.9251 14.6295 23.1478 14.8522C23.3705 15.0749 23.6726 15.2 23.9875 15.2C24.3024 15.2 24.6045 15.0749 24.8272 14.8522C25.0499 14.6295 25.175 14.3274 25.175 14.0125ZM19 16.15C19.7559 16.15 20.4808 16.4503 21.0153 16.9847C21.5497 17.5192 21.85 18.2441 21.85 19C21.85 19.7559 21.5497 20.4808 21.0153 21.0153C20.4808 21.5497 19.7559 21.85 19 21.85C18.2441 21.85 17.5192 21.5497 16.9847 21.0153C16.4503 20.4808 16.15 19.7559 16.15 19C16.15 18.2441 16.4503 17.5192 16.9847 16.9847C17.5192 16.4503 18.2441 16.15 19 16.15Z"
          fill="#474747"/>
</svg>
