<svg width="40" height="40" viewBox="0 0 40 40" fill="none" xmlns="http://www.w3.org/2000/svg">
    <rect width="40" height="40" rx="8" fill="#170486"/>
    <g clip-path="url(#clip0_100_1017)">
        <path d="M29.5251 14.4784C28.5414 12.7932 27.2071 11.4589 25.5218 10.4753C23.8363 9.49169 21.9962 9 20.0003 9C18.0046 9 16.1642 9.49169 14.4788 10.4753C12.7934 11.4587 11.4591 12.793 10.4754 14.4784C9.49169 16.1639 9 18.0045 9 20C9 21.9956 9.49184 23.836 10.4753 25.5215C11.4589 27.2064 12.7932 28.5411 14.4786 29.5248C16.164 30.5083 18.0045 31.0001 20.0001 31.0001C21.9958 31.0001 23.8364 30.5083 25.5218 29.5248C27.2071 28.5414 28.5413 27.2068 29.5249 25.5215C30.5083 23.836 31 21.9954 31 20C31 18.0045 30.5083 16.1636 29.5251 14.4784ZM21.3761 25.7876C21.2801 25.6733 21.247 25.5776 21.2758 25.5009C21.2662 25.5488 21.2328 25.5917 21.1756 25.6298C21.1279 25.5726 21.0416 25.5009 20.9177 25.4151C20.7934 25.3288 20.7076 25.2574 20.6598 25.1998C20.6406 25.1713 20.6145 25.1307 20.581 25.0782C20.5476 25.0257 20.5047 24.9565 20.4521 24.8705C20.3999 24.7846 20.3618 24.7105 20.3378 24.6483C20.3141 24.5862 20.3119 24.5504 20.3306 24.5412C20.1493 24.6177 19.8866 24.5652 19.5429 24.3835C19.4761 24.3454 19.3757 24.2451 19.2421 24.0827C19.1085 23.9203 18.97 23.8489 18.8267 23.8678C18.7791 23.8774 18.7145 23.8941 18.6333 23.9179C18.5523 23.942 18.483 23.9537 18.4257 23.9537C18.3683 23.9537 18.2919 23.9348 18.1964 23.8963C18.1202 23.8678 18.0175 23.8127 17.8886 23.7317C17.7598 23.6506 17.6713 23.6002 17.6237 23.5815C17.4996 23.5145 17.4375 23.4812 17.4375 23.4812L17.2084 23.3669C17.151 23.3384 17.0913 23.293 17.0292 23.2309C16.9672 23.1687 16.9267 23.1042 16.9076 23.0374C16.8886 22.9803 16.8647 22.8656 16.836 22.6936C16.8074 22.5215 16.7691 22.3976 16.7214 22.3213C16.6643 22.2259 16.5831 22.1304 16.4779 22.035C16.373 21.9395 16.2776 21.8914 16.1916 21.8914C16.268 21.8914 16.268 21.8274 16.1916 21.6981C16.1151 21.569 16.0483 21.4759 15.991 21.419C15.9718 21.3997 15.9145 21.3378 15.819 21.2325C15.7236 21.1274 15.6424 21.037 15.5756 20.9602C15.5088 20.8839 15.4513 20.7956 15.4037 20.6952C15.356 20.5949 15.3463 20.5115 15.375 20.4445C15.3845 20.4351 15.375 20.4206 15.3463 20.4016C15.3177 20.3828 15.282 20.3633 15.2389 20.3443C15.196 20.3254 15.1554 20.3086 15.1173 20.2942C15.0789 20.2801 15.0503 20.2728 15.0313 20.2728C15.0505 20.3113 15.0719 20.3803 15.0958 20.4806C15.1197 20.581 15.1459 20.6551 15.1745 20.7028C15.1938 20.7409 15.2748 20.8796 15.418 21.1179C15.6665 21.5189 15.7809 21.8152 15.7619 22.0061C15.7046 22.025 15.6663 22.0157 15.6472 21.9776C15.6281 21.9395 15.6137 21.887 15.6042 21.82C15.5947 21.7534 15.5853 21.7057 15.5755 21.6769C15.5469 21.6195 15.4729 21.5574 15.3534 21.4904C15.2341 21.4238 15.16 21.3568 15.1314 21.2899C15.1411 21.2899 15.1528 21.2854 15.1673 21.2755C15.1817 21.2659 15.1937 21.2614 15.2031 21.2614C15.2128 21.1755 15.1627 21.0657 15.0528 20.9318C14.943 20.7982 14.8978 20.7028 14.9168 20.6454C14.8403 20.5881 14.7735 20.4758 14.7162 20.309C14.6589 20.1417 14.6111 20.0342 14.5729 19.9864C14.5348 19.9293 14.4871 19.8792 14.4298 19.8361C14.3724 19.7933 14.3009 19.7456 14.2149 19.693C14.129 19.6405 14.0716 19.6048 14.043 19.5856C14.0238 19.5762 13.9857 19.5334 13.9284 19.457C13.6133 19.0749 13.5179 18.8696 13.642 18.841C13.5179 18.8696 13.4152 18.7765 13.3341 18.5615C13.2528 18.3468 13.2266 18.1819 13.2552 18.0673L13.2266 18.0531C13.2363 18.0148 13.241 17.9028 13.241 17.7164C13.241 17.5301 13.253 17.3606 13.2769 17.2079C13.3008 17.0552 13.3461 16.9787 13.4129 16.9787C13.3461 16.9882 13.2961 16.9284 13.2626 16.7997C13.2292 16.6707 13.2268 16.5823 13.2554 16.5346C13.2649 16.5059 13.308 16.5252 13.3843 16.592C13.4606 16.6586 13.5036 16.7018 13.5131 16.7208C13.6373 16.6538 13.6851 16.568 13.6564 16.4628C13.6373 16.4247 13.537 16.3245 13.3556 16.162C12.945 15.8948 12.7348 15.7658 12.7254 15.7752C12.7825 15.6703 12.7683 15.5796 12.6823 15.5031C12.5869 15.5605 12.532 15.5747 12.5176 15.5462C12.5034 15.5175 12.4914 15.4652 12.4818 15.3887C12.4723 15.3124 12.4483 15.2695 12.4103 15.2599C12.3625 15.2503 12.3051 15.2122 12.2383 15.1453C13.0881 13.7894 14.2101 12.7295 15.6042 11.9655C15.6615 11.9561 15.7665 11.9512 15.9192 11.9512C15.9955 11.9608 16.0672 11.9847 16.134 12.0228C16.2009 12.061 16.2701 12.1136 16.3416 12.1804C16.4134 12.247 16.4682 12.2948 16.5064 12.3235C16.5255 12.2661 16.5017 12.1802 16.4348 12.0656C16.4538 12.0083 16.5589 11.9509 16.7499 11.8937C16.9694 11.8651 17.1127 11.8697 17.1795 11.9081C17.1223 11.8221 17.0269 11.7027 16.8932 11.55L16.8216 11.6215C16.7451 11.5547 16.5448 11.5881 16.22 11.7218C16.2011 11.7312 16.1532 11.7576 16.0768 11.8005C16.0005 11.8434 15.9382 11.8745 15.8906 11.8935C15.8333 11.9127 15.776 11.9174 15.7187 11.9079C16.177 11.6597 16.6259 11.4637 17.0652 11.3206C17.0936 11.3396 17.1414 11.3802 17.2083 11.4422C17.2751 11.5042 17.3276 11.5497 17.3658 11.5782C17.3372 11.5593 17.318 11.5686 17.3085 11.6069C17.2704 11.7214 17.2704 11.8169 17.3085 11.8932C17.3562 11.9603 17.4207 11.9982 17.5019 12.0079C17.5831 12.0174 17.6809 12.0126 17.7955 11.9935C17.9101 11.9745 17.9866 11.9648 18.0247 11.9648L18.168 11.9793C18.4735 12.0079 18.5929 11.9793 18.5261 11.8932C18.5547 11.9316 18.5881 12.0103 18.6263 12.1297C18.6644 12.2491 18.7075 12.3327 18.7551 12.3805C18.8029 12.3421 18.8125 12.2753 18.7838 12.1799C18.7551 12.0844 18.7551 12.0174 18.7838 11.9792C18.7932 11.9603 18.8219 11.941 18.8697 11.9219C18.9175 11.9029 18.9723 11.8815 19.0345 11.8576C19.0965 11.8336 19.1371 11.8169 19.1564 11.8075C19.2136 11.7692 19.1753 11.7023 19.0417 11.6068C19.0226 11.5973 18.9821 11.583 18.9201 11.5638C18.858 11.545 18.803 11.5257 18.7553 11.5067C18.7077 11.4877 18.6575 11.4614 18.605 11.4279C18.5525 11.3945 18.5286 11.3564 18.5332 11.3133C18.5381 11.2702 18.5644 11.2154 18.612 11.1485C18.6694 11.1009 18.7625 11.0817 18.8914 11.0913C19.0202 11.1007 19.1182 11.1245 19.185 11.1628C19.4429 11.306 19.481 11.4352 19.2996 11.5496C19.3953 11.559 19.5098 11.5972 19.6435 11.664C19.777 11.7309 19.8296 11.8025 19.801 11.879C19.8774 11.7358 19.9537 11.664 20.0302 11.664C20.0779 11.6737 20.1234 11.7382 20.1663 11.8575C20.2092 11.9768 20.2354 12.0412 20.2448 12.0509C20.3214 12.1558 20.3973 12.1798 20.4742 12.1224C20.5505 12.0652 20.6294 11.9816 20.7104 11.8718C20.7915 11.7621 20.8368 11.7119 20.8464 11.7215C20.751 11.6834 20.741 11.6452 20.818 11.6069C20.9608 11.521 21.0899 11.4971 21.2046 11.5355C21.233 11.5544 21.2715 11.5975 21.3189 11.6641C21.4046 11.8363 21.3903 11.9173 21.276 11.9077C21.3618 11.9842 21.3974 12.0798 21.3835 12.1942C21.3691 12.3088 21.2947 12.3614 21.1611 12.3517C21.1136 12.3517 21.0441 12.3277 20.9532 12.2801C20.8626 12.2325 20.7934 12.2063 20.7455 12.2014C20.6978 12.1965 20.6308 12.2228 20.5449 12.2801C20.5068 12.3279 20.4567 12.4092 20.3945 12.5236C20.3324 12.6384 20.2774 12.7195 20.2297 12.7671C20.0866 12.9103 19.8477 12.963 19.5135 12.9246C19.5422 12.9246 19.5397 12.9533 19.5063 13.0106C19.4727 13.0679 19.4276 13.1324 19.3702 13.204C19.3129 13.2756 19.2795 13.3161 19.27 13.3257C19.1841 13.4211 19.1268 13.531 19.0981 13.6551C19.0981 13.6742 19.0933 13.7387 19.0837 13.8484C19.074 13.9583 19.055 14.042 19.0263 14.0992C19.1409 14.0705 19.2317 14.128 19.2984 14.2711C19.3558 14.4048 19.3558 14.4764 19.2984 14.486C19.6136 14.4385 19.8906 14.4574 20.1295 14.5434C20.4732 14.6675 20.6692 14.7916 20.7169 14.9158C20.774 14.8297 20.9123 14.8249 21.132 14.9013C21.218 14.949 21.2941 15.0924 21.3614 15.331C21.3995 15.4741 21.4641 15.5984 21.5547 15.7033C21.6456 15.8083 21.7432 15.8369 21.8484 15.7892L21.8912 15.7606C21.9295 15.7416 21.9604 15.7248 21.9842 15.7105C22.0083 15.6963 22.0344 15.6771 22.0629 15.6532C22.0917 15.6293 22.1085 15.6078 22.113 15.5889C22.1174 15.5698 22.1106 15.5505 22.0917 15.5315C22.0247 15.4742 21.9746 15.3955 21.9413 15.2953C21.9082 15.1951 21.9154 15.1067 21.963 15.0302C21.9914 14.992 22.0679 14.9347 22.1919 14.8582C22.3162 14.7817 22.3927 14.7054 22.4211 14.629C22.4598 14.5049 22.4117 14.4022 22.2781 14.3209C22.1444 14.2399 22.0774 14.1659 22.0774 14.099C22.0774 14.0511 22.1085 13.994 22.1704 13.927C22.2327 13.8603 22.259 13.798 22.2492 13.7409C22.2492 13.712 22.2324 13.6525 22.1991 13.5617C22.1659 13.4708 22.1465 13.404 22.1419 13.3611C22.137 13.3181 22.1587 13.268 22.2062 13.2108C22.2729 13.1725 22.4305 13.1749 22.6787 13.2178C22.927 13.2609 23.0894 13.3063 23.166 13.3539C23.1948 13.3728 23.2568 13.4015 23.3523 13.4399C23.4477 13.4778 23.5313 13.5184 23.6031 13.5615C23.6743 13.6044 23.715 13.6448 23.7244 13.6831H23.653C23.7198 13.7406 23.7605 13.8072 23.7746 13.8837C23.789 13.9604 23.7533 14.0175 23.6675 14.0559C23.7244 14.0462 23.8011 14.0606 23.8966 14.0988C24.0494 14.156 24.0542 14.2086 23.911 14.2563C23.9395 14.2466 23.98 14.2372 24.0324 14.2276C24.0849 14.218 24.1253 14.2036 24.1541 14.1847C24.173 14.1751 24.197 14.1585 24.2256 14.1345C24.2544 14.1106 24.2757 14.0962 24.2901 14.0917C24.3045 14.087 24.3258 14.082 24.3546 14.0772C24.3831 14.0725 24.4117 14.0797 24.4401 14.0987C24.4501 14.0987 24.4714 14.0748 24.5047 14.0271C24.5378 13.9795 24.5741 13.9317 24.612 13.884C24.6503 13.8364 24.6834 13.8125 24.7123 13.8125C24.7406 13.8125 24.7671 13.8243 24.7907 13.8482C24.8149 13.8721 24.8336 13.8983 24.8481 13.927C24.8625 13.9557 24.8765 13.9867 24.891 14.0199C24.9054 14.0533 24.9171 14.0798 24.9267 14.0988C24.9456 14.1464 24.9912 14.1967 25.0627 14.2491C25.1341 14.3014 25.1794 14.3517 25.1986 14.3994C25.2082 14.428 25.227 14.4997 25.2558 14.6144C25.2843 14.729 25.3228 14.8077 25.3703 14.8506C25.418 14.8937 25.4896 14.9294 25.585 14.958C25.6042 14.9677 25.6474 14.9628 25.714 14.9439C25.7806 14.9247 25.8357 14.9199 25.8786 14.9294C25.9219 14.9389 25.9431 14.977 25.9431 15.044C26.0003 14.9867 26.0288 14.9484 26.0288 14.9294C26.0386 15.0536 26.0694 15.1539 26.1222 15.2302C26.1748 15.3065 26.2582 15.3401 26.3729 15.3304L26.344 15.6456C26.3155 15.6933 26.2439 15.729 26.1291 15.7528C26.0144 15.7768 25.943 15.7984 25.9141 15.8174C25.8856 15.8269 25.8163 15.8842 25.7064 15.9894C25.5965 16.0945 25.5515 16.1566 25.5704 16.1755C25.4084 15.9941 25.1645 15.9415 24.8401 16.018C24.4774 16.0753 24.2289 16.1326 24.0953 16.1899C23.9427 16.2664 23.8374 16.3379 23.7801 16.4047C23.7705 16.4142 23.7542 16.4478 23.7302 16.505C23.7063 16.5622 23.6825 16.6148 23.6587 16.6625C23.6345 16.7102 23.6134 16.734 23.5944 16.734C23.6519 16.7248 23.7161 16.6792 23.7877 16.5981C23.8595 16.5169 23.9048 16.4718 23.9237 16.4621C24.1717 16.2998 24.3771 16.2425 24.5404 16.2914C24.7504 16.3487 24.7838 16.4252 24.6404 16.5206C24.6217 16.5396 24.5713 16.5468 24.4902 16.5421C24.4092 16.5374 24.3542 16.5396 24.3254 16.5493C24.4116 16.5683 24.483 16.5946 24.5407 16.6278C24.5977 16.6612 24.6122 16.7066 24.5835 16.7639C24.7361 16.8499 24.7649 16.9453 24.6695 17.0505C24.5452 17.1748 24.3975 17.2271 24.2255 17.208C24.2544 17.208 24.2544 17.2272 24.2255 17.2653L23.9817 17.4228C23.9628 17.4322 23.9007 17.456 23.7956 17.4944C23.6906 17.5323 23.6188 17.5756 23.5807 17.6233C23.5522 17.6615 23.5378 17.7187 23.5378 17.7954C23.5378 17.8719 23.533 17.9292 23.5234 17.9673C23.514 18.0057 23.4757 18.015 23.4091 17.996C23.3802 18.0532 23.292 18.0986 23.144 18.1318C22.996 18.1653 22.8982 18.2154 22.8504 18.2821C22.9074 18.3587 22.903 18.435 22.836 18.5114C22.7213 18.607 22.6211 18.5973 22.5352 18.4828C22.4875 18.5019 22.4516 18.5495 22.4277 18.626C22.404 18.7025 22.368 18.755 22.3206 18.7836C22.3875 18.8886 22.3776 18.9652 22.2921 19.0127C22.3014 19.0127 22.323 19.0224 22.3563 19.0414C22.3896 19.0605 22.4253 19.0843 22.4638 19.113C22.5019 19.1417 22.5255 19.1561 22.5352 19.1561C22.4971 19.2418 22.4444 19.2848 22.3776 19.2848C22.4349 19.4377 22.3635 19.6049 22.163 19.7862C22.1245 19.8243 22.0648 19.8624 21.9838 19.9007C21.9022 19.9389 21.8284 19.9698 21.7614 19.9938C21.6945 20.0177 21.6565 20.0343 21.647 20.0439C21.5515 20.13 21.4797 20.2182 21.4322 20.3089C21.3846 20.3997 21.3774 20.4879 21.4105 20.5739C21.444 20.6601 21.5323 20.7171 21.6758 20.746L21.6897 20.8604V21.1182L21.7041 21.2328C21.7138 21.2996 21.7211 21.3594 21.7257 21.412C21.7304 21.4646 21.7304 21.5312 21.7257 21.6126C21.7211 21.6936 21.6995 21.7391 21.6614 21.7484C21.6234 21.7581 21.5709 21.7484 21.5039 21.7197C21.4272 21.6816 21.3367 21.4715 21.2314 21.0896C21.2124 20.9942 21.1549 20.8798 21.0594 20.7459C21.0117 20.7936 20.9712 20.8245 20.9379 20.8388C20.9047 20.8532 20.8805 20.8558 20.8666 20.846C20.8522 20.8366 20.8259 20.815 20.7877 20.7817C20.7495 20.7484 20.7164 20.7219 20.6876 20.7031C20.6398 20.6746 20.5564 20.6505 20.4367 20.6316C20.3176 20.6126 20.2432 20.5885 20.2149 20.56C19.9855 20.7322 19.8469 20.6889 19.7993 20.4315C19.7803 20.479 19.7826 20.5434 19.8065 20.6248C19.8305 20.706 19.8423 20.7512 19.8423 20.7608C19.7756 20.8851 19.6706 20.8943 19.5273 20.7893C19.47 20.7322 19.3386 20.725 19.1333 20.7679C18.928 20.8107 18.7919 20.8179 18.7251 20.7893C18.7348 20.7893 18.7538 20.8035 18.7825 20.8323C18.8111 20.851 18.8303 20.8655 18.8398 20.8751C18.8301 20.9134 18.8159 20.9419 18.7967 20.9609C18.7775 20.9798 18.7584 20.9871 18.7394 20.9826C18.7203 20.9778 18.6988 20.9778 18.6748 20.9826C18.6509 20.9871 18.6295 20.9942 18.6103 21.0039C18.5722 21.0324 18.5245 21.0825 18.4672 21.1541C18.4099 21.2257 18.367 21.271 18.3383 21.2899C18.3955 21.4427 18.4219 21.5598 18.4171 21.6408C18.4122 21.7222 18.398 21.8415 18.3741 21.9989C18.3501 22.1564 18.3382 22.2831 18.3382 22.3787C18.3382 22.5311 18.3836 22.7083 18.4742 22.9085C18.565 23.109 18.6723 23.2474 18.7965 23.324C18.8635 23.3621 18.9782 23.3858 19.1404 23.3952C19.3026 23.405 19.4173 23.3952 19.4841 23.3668C19.5414 23.3385 19.5842 23.3048 19.6129 23.2667C19.6415 23.2285 19.6655 23.1733 19.6845 23.1019C19.7036 23.0304 19.718 22.9803 19.7276 22.9518C19.7943 22.7702 19.9185 22.6747 20.0997 22.6651C20.2147 22.6555 20.2978 22.6679 20.3506 22.7008C20.4032 22.7343 20.4245 22.7796 20.4149 22.837C20.4052 22.8941 20.3862 22.9539 20.3578 23.016C20.329 23.0781 20.2933 23.1472 20.2503 23.2238C20.2076 23.3005 20.1811 23.3577 20.1719 23.396C20.1528 23.4724 20.1358 23.5797 20.1218 23.7184C20.1074 23.8568 20.0953 23.9404 20.0857 23.9692C20.105 23.9785 20.1765 23.9833 20.3005 23.9833C20.3005 23.9644 20.3077 23.9331 20.3221 23.8902C20.3362 23.8474 20.3434 23.8211 20.3434 23.8116C20.3913 23.8882 20.4677 23.9308 20.5728 23.9404C20.6778 23.95 20.7544 23.9119 20.8021 23.8259C20.8214 23.8546 20.8787 23.9263 20.9742 24.041C21.0696 24.1553 21.1221 24.2508 21.1318 24.3274C21.1414 24.3658 21.1602 24.4276 21.1888 24.5138C21.2176 24.5997 21.2273 24.6594 21.2176 24.693C21.2081 24.726 21.1602 24.743 21.0745 24.743C21.0363 24.743 21.0124 24.7574 21.003 24.7859C20.9931 24.8147 20.9931 24.8502 21.003 24.8932C21.0127 24.9361 21.0247 24.9768 21.0387 25.0149C21.053 25.0529 21.072 25.0938 21.0958 25.1367C21.1201 25.1793 21.1318 25.2057 21.1318 25.2153C21.3035 25.5301 21.5377 25.6161 21.8336 25.4732C21.8336 25.7499 21.7667 25.9027 21.6328 25.9312C21.5573 25.9502 21.4716 25.902 21.3761 25.7876ZM21.59 29.0235C21.5712 28.928 21.5615 28.8517 21.5626 28.7948C21.5526 28.7182 21.5863 28.6155 21.6625 28.4867C21.7388 28.358 21.7769 28.2599 21.7769 28.1931C21.6242 28.155 21.5669 28.0308 21.6048 27.8208C21.624 27.6774 21.7624 27.4865 22.0202 27.2478C22.2018 27.0854 22.2589 26.856 22.1922 26.5603C22.1634 26.4361 22.1394 26.2545 22.1204 26.0158C22.1016 25.777 22.0823 25.61 22.0631 25.5146C22.0631 25.5431 22.1084 25.5693 22.1994 25.5932C22.2901 25.6169 22.345 25.6481 22.3641 25.6859C22.3831 25.6576 22.4068 25.6049 22.4356 25.5286C22.4641 25.4521 22.493 25.3949 22.5211 25.3566C22.5404 25.3279 22.5809 25.2922 22.6431 25.2491C22.7052 25.2062 22.7457 25.1801 22.7648 25.1705C22.7835 25.161 22.8267 25.1301 22.8934 25.0775C22.9603 25.0249 23.0153 24.9845 23.0583 24.9559C23.1016 24.9273 23.1584 24.9058 23.2302 24.8917C23.302 24.8773 23.3519 24.8986 23.3804 24.9559C23.4283 25.0133 23.4189 25.1015 23.352 25.221C23.285 25.3405 23.285 25.4241 23.352 25.472C23.3617 25.4431 23.371 25.3808 23.3804 25.2853C23.3902 25.1899 23.4189 25.1183 23.4664 25.0702C23.5238 25.0132 23.5785 24.9796 23.6312 24.9703C23.6838 24.9604 23.7313 24.9675 23.7741 24.9918C23.8174 25.0156 23.8675 25.0486 23.9245 25.0919C23.9819 25.1347 24.0343 25.1611 24.0821 25.1705C24.2253 25.2182 24.3973 25.3233 24.5978 25.4857C24.5882 25.4759 24.5882 25.464 24.5978 25.4496C24.6074 25.4355 24.6263 25.4212 24.6552 25.4067C24.6837 25.3927 24.7098 25.3783 24.7338 25.3638C24.7575 25.3496 24.7836 25.3381 24.8124 25.3283L24.8553 25.3139C24.9219 25.3139 24.9698 25.3092 24.9983 25.2994C25.0268 25.29 25.0679 25.2994 25.12 25.3283C25.1723 25.3568 25.2083 25.3783 25.2272 25.3927C25.2464 25.4067 25.2797 25.433 25.3275 25.4713C25.3752 25.5094 25.4089 25.5382 25.4274 25.5571C25.4562 25.576 25.5087 25.6096 25.585 25.6574C25.6616 25.7051 25.7213 25.7432 25.7642 25.7717C25.8075 25.8002 25.8456 25.8435 25.8785 25.9002C25.9118 25.9579 25.9242 26.0199 25.9146 26.0869C25.972 26.0965 26.0863 26.1344 26.2583 26.2012C26.2872 26.2201 26.3466 26.2371 26.4375 26.2512C26.5282 26.2656 26.5879 26.2872 26.6166 26.3155C25.2331 27.7774 23.557 28.6797 21.59 29.0235Z"
              fill="white"/>
    </g>
    <defs>
        <clipPath id="clip0_100_1017">
            <rect width="22" height="22" fill="white" transform="translate(9 9)"/>
        </clipPath>
    </defs>
</svg>
