<svg width="40" height="40" viewBox="0 0 40 40" fill="none" xmlns="http://www.w3.org/2000/svg">
    <rect width="40" height="40" rx="8" fill="#170486"/>
    <path d="M24.3338 10C27.7231 10 30 12.3781 30 15.9167V24.0833C30 27.6219 27.7231 30 24.3328 30H15.6662C12.2769 30 10 27.6219 10 24.0833V15.9167C10 12.3781 12.2769 10 15.6662 10H24.3338ZM25.4366 20.5501C24.3646 19.8813 23.5371 20.8204 23.3138 21.1207C23.0986 21.4107 22.9136 21.7307 22.7185 22.0506C22.2419 22.84 21.6958 23.7503 20.7506 24.2797C19.377 25.0402 18.3342 24.3395 17.584 23.8297C17.3025 23.6398 17.029 23.4603 16.7565 23.3406C16.0847 23.0506 15.4804 23.3808 14.5834 24.5201C14.1128 25.1156 13.6462 25.7059 13.1736 26.2941C12.891 26.646 12.9584 27.1889 13.3395 27.4242C13.9479 27.7988 14.69 28 15.5286 28H23.9564C24.432 28 24.9087 27.935 25.3632 27.7864C26.3869 27.452 27.1994 26.6863 27.6237 25.6749C27.9817 24.8246 28.1557 23.7926 27.8208 22.934C27.7092 22.6491 27.5423 22.3839 27.308 22.1507C26.6936 21.5408 26.1194 20.9711 25.4366 20.5501ZM16.4989 14C15.1202 14 14 15.1217 14 16.5C14 17.8783 15.1202 19 16.4989 19C17.8765 19 18.9977 17.8783 18.9977 16.5C18.9977 15.1217 17.8765 14 16.4989 14Z"
          fill="white"/>
</svg>
