<svg width="36" height="32" viewBox="0 0 36 32" fill="none" xmlns="http://www.w3.org/2000/svg">
    <rect x="1.82617" width="32" height="32" rx="6" fill="#474747" fill-opacity="0.08"/>
    <path d="M24.4957 13.5245L25.2522 12.8179C25.5837 12.5082 25.77 12.0883 25.77 11.6502C25.77 11.2122 25.5837 10.7923 25.2522 10.4826L22.9512 8.33326C22.6197 8.02358 22.1702 7.84961 21.7013 7.84961C21.2323 7.84961 20.7828 8.02358 20.4513 8.33326L19.6948 9.03989L24.4957 13.5245Z"
          fill="#919499"/>
    <path d="M10.9072 22.0166H25.4665V23.1499H10.9072V22.0166Z" fill="#919499"/>
    <path d="M11.5137 16.6816V20.8829C11.5137 21.0393 11.6496 21.1662 11.817 21.1662H16.3146L11.5137 16.6816Z"
          fill="#919499"/>
    <path d="M23.8525 14.126L16.9584 20.5659L12.1576 16.0813L19.0517 9.64145L23.8525 14.126Z" fill="#919499"/>
</svg>
