<svg width="40" height="40" viewBox="0 0 40 40" fill="none" xmlns="http://www.w3.org/2000/svg">
    <rect width="40" height="40" rx="8" fill="#170486"/>
    <path fill-rule="evenodd" clip-rule="evenodd"
          d="M20 9C13.9249 9 9 13.9249 9 20C9 26.0751 13.9249 31 20 31C26.0751 31 31 26.0751 31 20C31 13.9249 26.0751 9 20 9ZM17.5 12.5C15.8431 12.5 14.5 13.8431 14.5 15.5C14.5 17.1569 15.8431 18.5 17.5 18.5C19.1569 18.5 20.5 17.1569 20.5 15.5C20.5 13.8431 19.1569 12.5 17.5 12.5ZM24.9771 27.5C25.7978 26.9543 26.5236 26.2776 27.1247 25.5H20.5C19.9477 25.5 19.5 25.9477 19.5 26.5C19.5 27.0523 19.9477 27.5 20.5 27.5H24.9771ZM28.6483 22.5C28.4446 23.2061 28.1567 23.8767 27.7962 24.5H23.5C22.9477 24.5 22.5 24.0523 22.5 23.5C22.5 22.9477 22.9477 22.5 23.5 22.5H28.6483ZM29 20.0001C29 19.8323 28.9954 19.6655 28.9864 19.5H11.0136C11.0046 19.6654 11 19.8321 11 20C11 20.5116 11.0426 21.0127 11.1243 21.5H28.8756C28.9574 21.0122 29 20.5111 29 20.0001ZM27.7961 15.5C28.1567 16.1233 28.4447 16.7937 28.6485 17.5H25C24.4477 17.5 24 17.0523 24 16.5C24 15.9477 24.4477 15.5 25 15.5H27.7961Z"
          fill="white"/>
</svg>
