<svg width="38" height="38" viewBox="0 0 38 38" fill="none" xmlns="http://www.w3.org/2000/svg">
    <path d="M0 2C0 0.89543 0.895431 0 2 0H36C37.1046 0 38 0.895431 38 2V36C38 37.1046 37.1046 38 36 38H2C0.89543 38 0 37.1046 0 36V2Z"
          fill="#474747" fill-opacity="0.08"/>
    <g clip-path="url(#clip0_100_719)">
        <path d="M20.3417 9.02737C20.3261 9.03906 20.3144 11.9763 20.3144 15.5524C20.3144 22.6889 20.33 22.2643 20.0846 22.8681C19.8742 23.3824 19.4418 23.8966 18.9549 24.2121C18.4484 24.5393 18.0706 24.6601 17.4473 24.6873C16.8435 24.7146 16.5046 24.6445 15.9709 24.3874C14.9659 23.8966 14.3465 22.9655 14.288 21.8553C14.1906 20.0361 15.6476 18.5792 17.4707 18.6727C17.9576 18.696 18.2926 18.7934 18.7484 19.035L19.0678 19.2064V17.4144V15.6264L18.8653 15.5679C17.981 15.3147 16.6994 15.3225 15.6593 15.5874C13.5362 16.1289 11.756 17.9169 11.1989 20.0751C11.0431 20.6711 10.9963 21.0723 11.0002 21.7384C11.0041 23.8459 12.0442 25.7664 13.8089 26.9429C15.9319 28.353 18.6549 28.353 20.8013 26.939C22.1297 26.0625 23.1153 24.6211 23.4659 23.0434C23.6139 22.3773 23.6256 21.9917 23.6256 18.1974V14.5084L23.9489 14.5551C24.4943 14.6408 25.4175 14.6174 25.9356 14.5084L26.0408 14.485V12.8333V11.1816H25.5578C24.7475 11.1816 24.2216 11.0375 23.9061 10.7219C23.6723 10.4882 23.6256 10.3012 23.6256 9.59612V9.00011H21.9973C21.1013 9.00011 20.3534 9.01179 20.3417 9.02737Z"
              fill="#474747"/>
    </g>
    <defs>
        <clipPath id="clip0_100_719">
            <rect width="15.0408" height="18.9999" fill="white" transform="matrix(1 0 0 -1 11 28)"/>
        </clipPath>
    </defs>
</svg>
