<svg width="38" height="38" viewBox="0 0 38 38" fill="none" xmlns="http://www.w3.org/2000/svg">
    <path d="M0 2C0 0.89543 0.895431 0 2 0H36C37.1046 0 38 0.895431 38 2V36C38 37.1046 37.1046 38 36 38H2C0.89543 38 0 37.1046 0 36V2Z"
          fill="#474747" fill-opacity="0.08"/>
    <g clip-path="url(#clip0_100_730)">
        <path d="M10.2827 10.9569L8 12.9131V19.9974V27.0805H10.75H13.5V29.0422V31.0049L15.7902 29.0422L18.0792 27.0805H19.9146H21.75L25.8756 23.5449L30 20.0103V14.5043V8.99951H21.2827H12.5666L10.2827 10.9569ZM28.1683 14.8887L28.1708 19.205L26.3329 20.7801L24.4937 22.3563H22.6646H20.8354L19.238 23.7252C18.3598 24.4779 17.6369 25.0942 17.6319 25.0942C17.6256 25.0942 17.6219 24.4779 17.6219 23.7252V22.3563H15.5609H13.5V16.4617V10.5671L20.8329 10.5693L28.1646 10.5725L28.1683 14.8887Z"
              fill="#474747"/>
        <path d="M18.5428 13.3282C18.539 13.3357 18.5378 14.3976 18.539 15.6882L18.5428 18.0342H19.4574H20.372V15.6774V13.3207L19.4599 13.3174C18.737 13.3153 18.5466 13.3174 18.5428 13.3282Z"
              fill="#474747"/>
        <path d="M23.5854 15.6779V18.04H24.5H25.4146V15.6779V13.3158H24.5H23.5854V15.6779Z" fill="#474747"/>
    </g>
    <defs>
        <clipPath id="clip0_100_730">
            <rect width="22" height="22" fill="white" transform="translate(8 9)"/>
        </clipPath>
    </defs>
</svg>
