<svg width="38" height="38" viewBox="0 0 38 38" fill="none" xmlns="http://www.w3.org/2000/svg">
    <path d="M0 2C0 0.89543 0.895431 0 2 0H36C37.1046 0 38 0.895431 38 2V36C38 37.1046 37.1046 38 36 38H2C0.89543 38 0 37.1046 0 36V2Z"
          fill="#474747" fill-opacity="0.08"/>
    <path d="M26.2513 15.1971C26.2637 15.3633 26.2637 15.5286 26.2637 15.6939C26.2637 20.7527 22.4133 26.5819 15.3767 26.5819C13.2088 26.5819 11.1948 25.9539 9.5 24.8633C9.8078 24.8985 10.1042 24.9108 10.4243 24.9108C12.1467 24.915 13.8203 24.3391 15.1753 23.2759C14.3767 23.2614 13.6026 22.998 12.9611 22.5223C12.3195 22.0466 11.8425 21.3824 11.5966 20.6225C11.8332 20.6577 12.0707 20.6814 12.3196 20.6814C12.6625 20.6814 13.0074 20.6339 13.3275 20.5513C12.4609 20.3763 11.6816 19.9066 11.1222 19.2219C10.5628 18.5373 10.2578 17.68 10.259 16.7959V16.7484C10.7692 17.0325 11.361 17.2101 11.988 17.2339C11.4628 16.8848 11.0321 16.4112 10.7344 15.8552C10.4367 15.2992 10.2812 14.6782 10.2818 14.0476C10.2818 13.337 10.4709 12.6853 10.8024 12.1172C11.764 13.2999 12.9632 14.2676 14.3225 14.9573C15.6818 15.6471 17.1708 16.0437 18.6931 16.1214C18.6342 15.8364 18.5981 15.541 18.5981 15.2446C18.5979 14.742 18.6967 14.2443 18.8889 13.7799C19.0811 13.3155 19.363 12.8936 19.7184 12.5382C20.0738 12.1828 20.4957 11.901 20.9601 11.7087C21.4245 11.5165 21.9222 11.4177 22.4247 11.418C23.5267 11.418 24.5214 11.8797 25.2206 12.6264C26.0773 12.4607 26.8988 12.148 27.6488 11.702C27.3632 12.5863 26.7651 13.3361 25.9663 13.811C26.7261 13.7244 27.4687 13.5245 28.1694 13.2182C27.6461 13.9812 26.9976 14.6502 26.2513 15.1971Z"
          fill="#474747"/>
</svg>
