<svg width="38" height="38" viewBox="0 0 38 38" fill="none" xmlns="http://www.w3.org/2000/svg">
    <rect width="38" height="38" rx="2" fill="#474747" fill-opacity="0.08"/>
    <path d="M29 19C29 24.5228 24.5228 29 19 29M29 19C29 13.4772 24.5228 9 19 9M29 19H9M19 29C13.4772 29 9 24.5228 9 19M19 29C21.5013 26.2616 22.9228 22.708 23 19C22.9228 15.292 21.5013 11.7384 19 9M19 29C16.4987 26.2616 15.0772 22.708 15 19C15.0772 15.292 16.4987 11.7384 19 9M9 19C9 13.4772 13.4772 9 19 9"
          stroke="#474747" stroke-width="2" stroke-linecap="round" stroke-linejoin="round"/>
</svg>
