<svg width="38" height="38" viewBox="0 0 38 38" fill="none" xmlns="http://www.w3.org/2000/svg">
    <path d="M0 2C0 0.89543 0.895431 0 2 0H36C37.1046 0 38 0.895431 38 2V36C38 37.1046 37.1046 38 36 38H2C0.89543 38 0 37.1046 0 36V2Z"
          fill="#474747" fill-opacity="0.08"/>
    <g clip-path="url(#clip0_100_744)">
        <path d="M14.6271 10.0289C11.8691 10.1186 9.91262 10.261 9.00032 10.4455C7.86125 10.6776 6.92785 11.5002 6.56926 12.5865C6.16848 13.7836 5.91535 17.4539 6.0261 20.349C6.15266 23.5026 6.40051 25.0793 6.90149 25.8334C7.49211 26.7246 8.24621 27.1623 9.51184 27.3469C11.7636 27.6738 17.5011 27.8268 22.2999 27.6949C26.2023 27.5842 28.1271 27.4154 28.9445 27.1096C29.34 26.9619 29.9253 26.5348 30.2154 26.1815C30.8165 25.4485 31.0275 24.5783 31.2489 21.9733C31.3386 20.9186 31.3386 16.7051 31.2489 15.6451C31.1224 14.1158 30.9695 13.1666 30.7585 12.5233C30.4685 11.6479 29.6142 10.8252 28.7072 10.5563C28.0163 10.3453 26.4659 10.1871 24.0665 10.0817C22.4265 10.0078 16.3937 9.97091 14.6271 10.0289ZM19.4048 16.9793C21.1134 17.9602 22.5478 18.7881 22.5952 18.8145C22.6638 18.8514 21.9361 19.2891 19.4734 20.7076C17.7068 21.7201 16.2355 22.5586 16.2091 22.5692C16.1722 22.585 16.1564 21.2877 16.1564 18.8619C16.1564 15.719 16.1669 15.1389 16.2302 15.16C16.2671 15.1758 17.6962 15.9932 19.4048 16.9793Z"
              fill="#474747"/>
    </g>
    <defs>
        <clipPath id="clip0_100_744">
            <rect width="25.3162" height="17.7418" fill="white" transform="matrix(1 0 0 -1 6 27.7422)"/>
        </clipPath>
    </defs>
</svg>
