<svg width="36" height="36" viewBox="0 0 36 36" fill="none" xmlns="http://www.w3.org/2000/svg">
    <path d="M29.7464 5.49964C31.4635 7.2162 31.9774 9.79812 31.0484 12.0413C30.1195 14.2845 27.9306 15.7472 25.5027 15.7472C23.0747 15.7472 20.8859 14.2845 19.9569 12.0413C19.0279 9.79812 19.5418 7.2162 21.2589 5.49964C23.6029 3.15637 27.4025 3.15637 29.7464 5.49964" stroke="#070233" stroke-width="2" stroke-linecap="round" stroke-linejoin="round"/>
    <path d="M27.5456 8.46875L24.9946 11.0198L23.4609 9.49068" stroke="#070233" stroke-width="2" stroke-linecap="round" stroke-linejoin="round"/>
    <path d="M29.7464 22.0075C31.4635 23.724 31.9774 26.3059 31.0484 28.5491C30.1195 30.7923 27.9306 32.255 25.5027 32.255C23.0747 32.255 20.8859 30.7923 19.9569 28.5491C19.0279 26.3059 19.5418 23.724 21.2589 22.0075C23.6029 19.6642 27.4025 19.6642 29.7464 22.0075" stroke="#FF1700" stroke-width="2" stroke-linecap="round" stroke-linejoin="round"/>
    <path d="M16.4991 14.0316H6.20935C5.26207 14.0316 4.49414 13.2637 4.49414 12.3164V7.17225C4.49414 6.22496 5.26207 5.45703 6.20935 5.45703H16.4991" stroke="#070233" stroke-width="2" stroke-linecap="round" stroke-linejoin="round"/>
    <path d="M16.4991 30.5394H6.20935C5.26207 30.5394 4.49414 29.7715 4.49414 28.8242V23.6801C4.49414 22.7328 5.26207 21.9648 6.20935 21.9648H16.4991" stroke="#070233" stroke-width="2" stroke-linecap="round" stroke-linejoin="round"/>
    <path d="M26.7796 24.9766L24.2285 27.5276" stroke="#FF1700" stroke-width="2" stroke-linecap="round" stroke-linejoin="round"/>
</svg>
