<svg width="38" height="38" viewBox="0 0 38 38" fill="none" xmlns="http://www.w3.org/2000/svg">
    <path d="M26.1377 14.4961C27.3318 15.69 28.0026 17.3094 28.0026 18.998C28.0026 20.6865 27.3318 22.3059 26.1377 23.4998" stroke="#070233" stroke-width="2" stroke-linecap="round" stroke-linejoin="round"/>
    <path d="M10.9502 9.44829C14.8128 5.58571 20.6218 4.43022 25.6685 6.52064C30.7152 8.61105 34.0057 13.5357 34.0057 18.9982C34.0057 24.4607 30.7152 29.3854 25.6685 31.4758C20.6218 33.5662 14.8128 32.4107 10.9502 28.5481" stroke="#070233" stroke-width="2" stroke-linecap="round" stroke-linejoin="round"/>
    <path d="M22.5695 16.75C23.812 17.9934 23.812 20.0085 22.5695 21.2519" stroke="#070233" stroke-width="2" stroke-linecap="round" stroke-linejoin="round"/>
    <path fill-rule="evenodd" clip-rule="evenodd" d="M3.99316 16.2988V21.701C3.99316 23.1928 5.20255 24.402 6.69429 24.4022H14.7977C15.5141 24.4024 16.2013 24.1178 16.7079 23.6112C17.2145 23.1046 17.499 22.4175 17.4988 21.701V16.2988C17.499 15.5823 17.2145 14.8952 16.7079 14.3886C16.2013 13.882 15.5141 13.5975 14.7977 13.5977H6.69429C5.97785 13.5975 5.29069 13.882 4.78409 14.3886C4.27748 14.8952 3.99297 15.5823 3.99316 16.2988V16.2988Z" stroke="#070233" stroke-width="2" stroke-linecap="round" stroke-linejoin="round"/>
    <path d="M17.4988 17.5003H3.99316" stroke="#070233" stroke-width="2" stroke-linecap="round" stroke-linejoin="round"/>
</svg>
