<svg width="36" height="36" viewBox="0 0 36 36" fill="none" xmlns="http://www.w3.org/2000/svg">
    <g opacity="0.64">
        <path d="M10.5 24H24" stroke="#070233" stroke-width="2" stroke-linecap="round" stroke-linejoin="round"/>
        <path fill-rule="evenodd" clip-rule="evenodd" d="M20.957 13.0501L28.0981 5.90901C28.9768 5.03033 30.4014 5.03033 31.2801 5.90901L32.3407 6.96967C33.2194 7.84835 33.2194 9.27297 32.3407 10.1517L25.1997 17.2927C24.626 17.8665 23.8817 18.2387 23.0784 18.3534L20.3561 18.7423C20.1224 18.7757 19.8866 18.6971 19.7197 18.5302C19.5528 18.3633 19.4742 18.1275 19.5075 17.8938L19.8964 15.1714C20.0112 14.3682 20.3833 13.6238 20.957 13.0501V13.0501Z" stroke="#070233" stroke-width="2" stroke-linecap="round" stroke-linejoin="round"/>
        <path d="M30.3129 12.1801L26.0703 7.9375" stroke="#070233" stroke-width="2" stroke-linecap="round" stroke-linejoin="round"/>
        <path d="M21 4.5H7.5C5.84315 4.5 4.5 5.84315 4.5 7.5V28.5C4.5 30.1569 5.84315 31.5 7.5 31.5H27C28.6569 31.5 30 30.1569 30 28.5V19.5" stroke="#070233" stroke-width="2" stroke-linecap="round" stroke-linejoin="round"/>
        <path d="M10.5 13.5H13.5" stroke="#070233" stroke-width="2" stroke-linecap="round" stroke-linejoin="round"/>
        <path d="M10.5 18.75H13.5" stroke="#070233" stroke-width="2" stroke-linecap="round" stroke-linejoin="round"/>
    </g>
</svg>
