<svg width="26" height="24" viewBox="0 0 26 24" fill="none" xmlns="http://www.w3.org/2000/svg">
    <path d="M23.054 6.27253C23.3413 4.44888 23.054 3.23312 22.0487 2.11087C20.9477 0.848346 18.937 0.333984 16.352 0.333984H8.9318C8.40521 0.333984 7.97436 0.708066 7.87862 1.22243L4.76694 20.3941C4.71907 20.7682 5.0063 21.0955 5.38927 21.0955H9.98498L9.64988 23.0594C9.60201 23.3868 9.84137 23.6673 10.2243 23.6673H14.102C14.5807 23.6673 14.9637 23.34 15.0115 22.9192L15.8254 17.9626C15.8732 17.5417 16.3041 17.2144 16.7349 17.2144H17.3094C21.0434 17.2144 24.0115 15.7181 24.8732 11.4161C25.2083 9.63926 25.0647 8.09618 24.1072 7.06745C23.82 6.74013 23.4849 6.50633 23.054 6.27253"
          fill="#009CDE"/>
    <path d="M23.054 6.27253C23.3413 4.44888 23.054 3.23312 22.0487 2.11087C20.9477 0.848346 18.937 0.333984 16.352 0.333984H8.9318C8.40521 0.333984 7.97436 0.708066 7.87862 1.22243L4.76694 20.3941C4.71907 20.7682 5.0063 21.0955 5.38927 21.0955H9.98498L11.086 14.175C11.1818 13.6606 11.6126 13.2866 12.1392 13.2866H14.3413C18.6498 13.2866 22.0008 11.6032 22.9583 6.64661C23.0062 6.55309 23.0062 6.41281 23.054 6.27253Z"
          fill="#012169"/>
    <path d="M8.37858 6.31929C8.42646 5.99197 8.8573 5.57112 9.28815 5.57112H15.1285C15.7987 5.57112 16.4689 5.61788 17.0434 5.71141C17.57 5.80493 18.5274 6.03873 19.0062 6.31929C19.2934 4.49564 19.0062 3.27988 18.0009 2.15763C16.9477 0.848346 14.937 0.333984 12.352 0.333984H4.9318C4.40521 0.333984 3.97436 0.708066 3.87862 1.22243L0.766939 20.3941C0.719067 20.7682 1.0063 21.0955 1.38927 21.0955H5.98498L8.37858 6.31929V6.31929Z"
          fill="#003087"/>
</svg>
