<svg width="35" height="12" viewBox="0 0 35 12" fill="none" xmlns="http://www.w3.org/2000/svg">
    <path fill-rule="evenodd" clip-rule="evenodd" d="M15.1673 10.8723H12.332L14.1054 0.193359H16.9405L15.1673 10.8723Z"
          fill="#0742A6"/>
    <path fill-rule="evenodd" clip-rule="evenodd"
          d="M25.4465 0.454646C24.8872 0.238572 24.0002 0 22.9034 0C20.1035 0 18.1318 1.45408 18.1197 3.53298C18.0965 5.06679 19.5314 5.9187 20.6046 6.43012C21.7016 6.95271 22.0744 7.29381 22.0744 7.75963C22.0633 8.47504 21.188 8.80482 20.3717 8.80482C19.2398 8.80482 18.6332 8.63479 17.7115 8.23677L17.3382 8.06615L16.9414 10.4633C17.6064 10.7584 18.8315 11.0202 20.1035 11.0317C23.0785 11.0317 25.0153 9.60011 25.0382 7.38471C25.0496 6.16905 24.2919 5.23756 22.6583 4.47639C21.6667 3.98778 21.0594 3.6583 21.0594 3.15836C21.071 2.70387 21.573 2.23835 22.6924 2.23835C23.6142 2.21555 24.2914 2.43132 24.8044 2.64724L25.0609 2.76064L25.4465 0.454646V0.454646V0.454646Z"
          fill="#0742A6"/>
    <path fill-rule="evenodd" clip-rule="evenodd"
          d="M30.5195 0.193359H32.7126L35 10.8722H32.3748C32.3748 10.8722 32.1179 9.64519 32.0365 9.27027H28.3962C28.2909 9.55414 27.8011 10.8722 27.8011 10.8722H24.8262L29.0376 1.0794C29.3294 0.386331 29.8432 0.193359 30.5195 0.193359ZM30.3449 4.10126C30.3449 4.10126 29.4464 6.47565 29.2129 7.08915H31.5696C31.453 6.55523 30.916 3.99904 30.916 3.99904L30.7179 3.07887C30.6345 3.31582 30.5138 3.64159 30.4324 3.86131C30.3772 4.01026 30.3401 4.11047 30.3449 4.10126Z"
          fill="#0742A6"/>
    <path fill-rule="evenodd" clip-rule="evenodd"
          d="M9.9649 0.193359L7.18823 7.47539L6.88481 5.99851C6.37146 4.29438 4.76149 2.44288 2.96484 1.52227L5.50818 10.861H8.50641L12.963 0.193359H9.9649V0.193359V0.193359Z"
          fill="#0742A6"/>
    <path fill-rule="evenodd" clip-rule="evenodd"
          d="M4.60836 0.193359H0.0466681L0 0.409131C3.5584 1.29532 5.91506 3.43145 6.88331 5.99896L5.89165 1.09102C5.72839 0.40898 5.22667 0.215858 4.60836 0.193359V0.193359Z"
          fill="#0742A6"/>
</svg>
