<svg width="78" height="72" viewBox="0 0 78 72" fill="none" xmlns="http://www.w3.org/2000/svg">
    <path fill-rule="evenodd" clip-rule="evenodd" d="M41.845 0.132758C40.7128 0.350844 39.3076 1.09739 38.3581 1.98553C35.4616 4.69499 35.4286 9.11016 38.284 11.866C39.7204 13.2522 41.2325 13.8525 43.2877 13.8525C46.9676 13.8525 49.9086 11.2209 50.2574 7.61575C50.7053 2.98914 46.4888 -0.761734 41.845 0.132758ZM35.3545 15.9066C33.0212 16.685 21.2915 21.0393 20.8732 21.2824C20.5683 21.4596 17.3702 24.0519 13.766 27.0434C8.01857 31.814 7.16623 32.575 6.82987 33.2369C6.37773 34.1266 6.30997 35.4969 6.67569 36.3551C7.00347 37.1244 7.85219 37.9893 8.63226 38.349C9.4974 38.7477 10.9448 38.7622 11.7914 38.3805C12.1226 38.2312 15.1873 35.7908 18.6018 32.9574C24.5098 28.0551 24.8648 27.7866 25.9418 27.4068C26.5642 27.1872 27.0735 27.0375 27.0735 27.0738C27.0735 27.1103 25.8443 29.25 24.342 31.8288C21.4842 36.7341 19.611 40.1947 15.801 47.6083L13.5159 52.0545L7.41737 58.3871C0.499742 65.5701 0.498537 65.5718 0.500043 67.525C0.501247 68.9533 0.869976 69.7872 1.93024 70.7598C3.52471 72.2224 5.87093 72.4124 7.58419 71.2177C7.97581 70.9448 11.1658 67.7431 14.6732 64.103L21.0503 57.4845L23.5979 52.6119C24.9992 49.932 26.3346 47.3573 26.5657 46.8903C26.7967 46.4234 27.0357 46.0413 27.0969 46.0413C27.2405 46.0413 40.7807 54.2856 41.0667 54.5472C41.2551 54.7195 41.2284 55.5236 40.8627 60.6923C40.6313 63.963 40.4484 67.0636 40.4564 67.5825C40.4823 69.2836 41.4165 70.7403 42.9786 71.5154C43.71 71.8783 44.0298 71.9474 44.9842 71.9487C47.248 71.9518 48.9787 70.6175 49.499 68.4676C49.7151 67.5752 50.7498 53.133 50.6826 51.9474C50.6183 50.8124 50.1949 49.8654 49.4057 49.0915C49.1041 48.7956 46.0219 46.8221 42.5564 44.7059C36.5247 41.0223 36.2632 40.8441 36.4304 40.5334C36.5905 40.2362 43.9488 27.5626 44.0149 27.4704C44.0307 27.4483 45.8577 27.8303 48.0745 28.3194C50.2916 28.8085 52.3963 29.2086 52.7518 29.2086C53.6732 29.2086 65.807 26.6129 66.4954 26.2684C67.3361 25.8479 68.1241 24.916 68.3947 24.0227C68.6868 23.0579 68.6868 22.8087 68.3947 21.8439C67.9519 20.3818 66.3564 19.1727 64.8655 19.1696C64.4932 19.1687 61.6225 19.711 58.4864 20.3744L52.7845 21.5808L48.6247 20.6672L44.4651 19.7536L43.7629 19.0541C43.0625 18.3563 41.6821 17.4826 39.6012 16.4198C38.5922 15.9046 38.3896 15.8558 37.1169 15.8199C36.3546 15.7985 35.5615 15.8375 35.3545 15.9066ZM67.1986 56.3574C65.8296 56.7431 64.7606 57.3802 63.6363 58.4803C59.7099 62.3223 60.8262 68.7309 65.8436 71.1529C68.6358 72.5007 71.6621 72.2287 74.2227 70.4001C76.8187 68.5462 78.0313 65.2739 77.2803 62.1493C76.6285 59.4374 74.1992 57.0209 71.4081 56.3078C70.257 56.0139 68.3376 56.0364 67.1986 56.3574Z" fill="#181818"/>
</svg>
