<svg width="52" height="88" viewBox="0 0 52 88" fill="none" xmlns="http://www.w3.org/2000/svg">
    <path fill-rule="evenodd" clip-rule="evenodd" d="M39.2992 63.8555L47.9815 54.1364C48.3954 53.5426 48.6501 52.854 48.7216 52.1354C48.7931 51.4168 48.6792 50.6919 48.3903 50.0291L43.0271 37.8027C42.3385 36.5197 41.2134 35.5211 39.8525 34.9849L37.4475 34.364L29.7032 31.976L30.6653 28.991C31.5848 30.1544 32.7562 31.0975 34.0925 31.7506C35.4289 32.4037 36.8961 32.7501 38.3855 32.764H38.7702C40.0928 32.7568 41.4008 32.4892 42.6186 31.9768C43.8364 31.4645 44.9399 30.7175 45.8651 29.7791C46.7874 28.8522 47.5136 27.7513 48.001 26.5415C48.4884 25.3317 48.7271 24.0373 48.703 22.7345C48.6935 21.4268 48.4248 20.1338 47.9121 18.9292C47.3993 17.7246 46.6526 16.6321 45.7146 15.7141C44.7766 14.796 43.6657 14.0704 42.4453 13.5787C41.2248 13.087 39.9189 12.8387 38.6018 12.8482C37.6364 12.8575 36.6785 13.0188 35.7639 13.3258L38.6018 4.08431C38.7336 3.75298 38.789 3.39651 38.764 3.04116C38.7391 2.68582 38.6343 2.34063 38.4575 2.03067C38.088 1.40924 37.5335 0.916902 36.8703 0.621696L34.8259 0.000796227H33.9601C33.3667 -0.0133957 32.7844 0.162455 32.2993 0.50218C31.8143 0.841905 31.4522 1.32757 31.2665 1.8874L21.8148 32.1431C21.6464 32.1431 21.6464 32.2864 21.6464 32.4536L12.3149 64.6197H2.83906C2.2287 64.7805 1.67779 65.1121 1.2518 65.575C0.84805 65.9555 0.528366 66.4153 0.313074 66.925C0.0977824 67.4348 -0.0084626 67.9834 0.00114267 68.536C-0.0122093 69.1176 0.0915686 69.6961 0.306322 70.2374C0.521075 70.7787 0.842527 71.2719 1.2518 71.6882L15.2971 86.0161C15.5549 86.4535 15.902 86.8325 16.3163 87.1286C16.7305 87.4247 17.2026 87.6314 17.7021 87.7354C18.2055 87.8978 18.7406 87.9392 19.2632 87.8562C19.7859 87.7732 20.2812 87.5681 20.7084 87.2579C21.1952 87.0156 21.6287 86.6798 21.9837 86.2699C22.3388 85.8599 22.6083 85.3841 22.7767 84.8699C22.9681 84.2986 23.0244 83.6911 22.941 83.0947C22.8575 82.4983 22.6368 81.9291 22.2958 81.4312L14.2389 73.2881H37.4475L29.3905 81.4312C28.9009 82.5102 28.7908 83.7213 29.0779 84.8699C29.1903 85.4222 29.4173 85.9452 29.7444 86.4057C30.0715 86.8662 30.4916 87.254 30.9779 87.5444C31.9579 88.0154 33.0744 88.1254 34.1285 87.8549C34.6291 87.7537 35.1024 87.548 35.517 87.2516C35.9316 86.9552 36.2781 86.5748 36.5335 86.1355L50.5788 71.8076C51.0376 71.4581 51.4058 71.0049 51.6526 70.4857C51.8994 69.9666 52.0177 69.3964 51.9978 68.8226C51.9963 68.2715 51.885 67.7262 51.6704 67.218C51.4557 66.7098 51.142 66.2488 50.7472 65.8615C50.2645 65.3603 49.672 64.9761 49.0156 64.7391H38.2651C38.6056 64.5759 38.884 64.308 39.0588 63.975L39.2992 63.8555ZM40.8866 52.5604L35.8361 57.8856L39.1549 45.5158L41.3677 50.5307C41.4373 50.8835 41.4303 51.247 41.3474 51.597C41.2645 51.947 41.1074 52.2754 40.8866 52.5604Z" fill="#181818"/>
</svg>
