<svg width="62" height="61" viewBox="0 0 62 61" fill="none" xmlns="http://www.w3.org/2000/svg">
    <path fill-rule="evenodd" clip-rule="evenodd" d="M41.634 13.7907C42.5761 13.7958 43.5099 13.6256 44.3813 13.29C45.2527 12.9543 46.0445 12.4598 46.7106 11.8352C47.3768 11.2106 47.9042 10.4683 48.2622 9.65121C48.6202 8.83414 48.8017 7.95859 48.7962 7.07528C48.8484 6.16441 48.702 5.25312 48.3662 4.39702C48.0303 3.54092 47.5119 2.75795 46.8427 2.09588C46.1734 1.43381 45.3673 0.906524 44.4736 0.546182C43.5798 0.18584 42.6172 0 41.6443 0C40.6714 0 39.7087 0.18584 38.815 0.546182C37.9212 0.906524 37.1151 1.43381 36.4459 2.09588C35.7766 2.75795 35.2583 3.54092 34.9224 4.39702C34.5865 5.25312 34.4402 6.16441 34.4923 7.07528C34.4841 7.95768 34.6631 8.8328 35.0188 9.64976C35.3746 10.4667 35.9 11.2092 36.5645 11.8341C37.229 12.459 38.0194 12.9537 38.8897 13.2896C39.76 13.6255 40.6929 13.7959 41.634 13.7907ZM54.6207 14.8135C50.5045 20.2553 44.8858 20.8921 38.9379 17.5923C38.1123 17.0788 37.2531 16.6148 36.3652 16.2029C26.7744 10.8768 17.1835 12.903 10.8445 21.3938C8.12778 24.9445 14.4874 28.3601 17.0189 24.8094C20.3942 20.3711 24.5722 19.0202 29.1824 20.5061C26.8773 24.3656 24.7162 28.225 21.876 33.551C19.0358 38.8771 12.5527 43.2961 6.33721 40.0156C5.92099 39.7622 5.45561 39.5881 4.96764 39.5033C4.47966 39.4186 3.97866 39.4247 3.49323 39.5215C3.0078 39.6183 2.54746 39.8037 2.13847 40.0673C1.72949 40.3309 1.37988 40.6674 1.1096 41.0576C0.839327 41.4479 0.653681 41.8843 0.563261 42.3418C0.472841 42.7993 0.479404 43.2691 0.582606 43.7242C0.685807 44.1794 0.883638 44.611 1.16475 44.9944C1.44586 45.3779 1.80475 45.7057 2.22097 45.9591C6.01003 47.985 10.4452 48.6782 14.7302 47.9143C19.0153 47.1503 22.8696 44.9793 25.6012 41.7909C25.7247 41.7909 26.0129 41.9067 26.1364 41.9067C30.1679 43.4739 33.9439 45.5656 37.3531 48.1204C38.979 49.394 41.8192 55.8393 43.5275 59.1391C45.5856 62.9986 52.1716 60.2777 50.1546 56.2252C48.2611 52.5588 45.0299 45.2065 42.5807 43.2961C39.6555 41.1851 36.5896 39.2515 33.4015 37.507C35.7066 33.4352 37.9911 29.5179 40.4197 25.5813C48.1377 27.7426 55.5675 25.2146 60.8363 18.2484C63.5324 14.6977 57.3169 11.2821 54.6619 14.8328L54.6207 14.8135Z" fill="#181818"/>
</svg>
