<svg width="120" height="76" viewBox="0 0 120 76" fill="none" xmlns="http://www.w3.org/2000/svg">
    <path fill-rule="evenodd" clip-rule="evenodd" d="M0.704687 75.9309C1.35864 76.3802 8.38009 69.5714 9.06846 67.9815H9.51587C10.5885 67.812 11.5588 67.2447 12.235 66.3916C15.0741 62.5725 19.016 59.7244 23.5243 58.2349C26.1408 57.3403 28.8833 56.8736 31.6471 56.8524C41.5941 56.8524 50.1644 63.0045 59.1821 66.3916C63.9891 68.389 69.1251 69.4674 74.3263 69.5714C76.7639 69.582 79.1929 69.28 81.5543 68.6728C86.9974 67.5633 91.9638 64.7859 95.7692 60.7234C96.6985 59.8247 102.102 53.8109 102.653 52.774C103.202 51.8573 103.39 50.7674 103.18 49.7186C102.97 48.6697 102.377 47.7377 101.517 47.1058C100.836 46.6742 100.051 46.4354 99.2455 46.4145C98.5682 46.4237 97.9028 46.5946 97.3043 46.9131C96.7058 47.2316 96.1914 47.6886 95.8036 48.2463C95.5627 48.6956 95.1152 49.1449 94.9087 49.5943C92.3961 52.5666 84.0669 59.963 79.5236 60.9653C75.3354 61.824 71.0028 61.6581 66.8919 60.4814C62.4528 59.2383 58.1424 57.5717 54.0193 55.5044C49.2715 53.2413 44.3582 51.3464 39.3225 49.8362C36.7332 49.1957 34.0725 48.8937 31.4062 48.9376C27.7991 48.9582 24.2191 49.5652 20.8052 50.7348C17.7979 51.5839 14.9656 52.965 12.4415 54.8132C9.80543 56.7468 7.48335 59.0786 5.55774 61.7257L5.11028 62.175C4.18097 64.0068 -1.46366 74.894 0.360531 76L0.704687 75.9309ZM91.9831 17.1746C91.9831 14.3925 92.8047 11.6728 94.344 9.35946C95.8832 7.04617 98.0711 5.24317 100.631 4.17848C103.19 3.11378 106.007 2.83521 108.724 3.37799C111.442 3.92076 113.938 5.2605 115.897 7.2278C117.856 9.19509 119.19 11.7016 119.731 14.4303C120.271 17.159 119.994 19.9874 118.934 22.5578C117.873 25.1282 116.078 27.3252 113.774 28.8709C111.471 30.4166 108.762 31.2416 105.992 31.2416C102.282 31.2234 98.7293 29.7355 96.1061 27.1014C93.4829 24.4672 92.0012 20.8998 91.9831 17.1746ZM39.116 15.5848L65.5151 10.1239L65.9626 11.7138L67.3049 26.4719C66.8575 26.4719 37.0509 34.8706 30.7178 36.4605C34.8202 38.7608 39.2394 40.438 43.8313 41.4375C61.4537 46.2071 74.3263 43.4767 85.6157 44.1679L73.4315 3.55701H73.1905V3.31507C72.8757 2.1778 72.131 1.20895 71.1152 0.614982C70.0994 0.0210187 68.8927 -0.151095 67.7523 0.135315L37.2574 6.28744C36.6456 6.3787 36.0586 6.59351 35.5317 6.9189C35.0049 7.24428 34.5493 7.6735 34.1922 8.18063C33.8351 8.68776 33.5841 9.2623 33.4543 9.86955C33.3245 10.4768 33.3186 11.1042 33.4369 11.7138C33.6952 12.9675 34.428 14.0717 35.4809 14.7937C36.5338 15.5157 37.8246 15.7993 39.0816 15.5848H39.116Z" fill="black"/>
</svg>
