<svg width="56" height="55" viewBox="0 0 56 55" fill="none" xmlns="http://www.w3.org/2000/svg">
    <path fill-rule="evenodd" clip-rule="evenodd" d="M21.0444 0.77681C16.4998 2.00047 12.6828 4.20637 9.01747 7.72668C-2.33916 18.6341 -2.33916 36.2196 9.01747 47.127C20.274 57.9382 37.3112 57.5724 47.8606 46.2922C51.5188 42.3814 53.4955 38.8946 54.7189 34.1952C55.6652 30.5627 55.7647 24.9465 54.946 21.3927C52.6949 11.6215 43.8489 2.77372 34.0797 0.522177C30.6558 -0.266468 24.4694 -0.146025 21.0444 0.77681ZM33.5238 4.81573C34.8473 5.18475 34.833 5.2139 32.8717 6.14443C31.7692 6.668 28.9331 7.34115 26.5698 7.64088C17.7046 8.7639 11.2455 14.1134 9.0763 22.1291C5.0008 37.187 19.0462 50.7353 34.0176 46.1871C37.1572 45.233 38.534 44.4212 41.2008 41.9519C45.2868 38.1682 47.109 34.5884 47.8243 28.9403C48.1213 26.5964 48.8405 23.7504 49.4228 22.6158L50.4812 20.5523L50.8733 23.163C51.4759 27.1805 50.8974 32.8654 49.5256 36.4006C47.7853 40.8872 42.7783 46.1354 38.015 48.4667C34.5476 50.1634 34.0621 50.2503 28.0467 50.2503C22.0105 50.2503 21.5552 50.1678 18.0174 48.437C13.3558 46.1569 9.33969 42.1284 7.01052 37.396C5.31093 33.9433 5.22845 33.4797 5.2356 27.4384C5.2422 21.7353 5.38956 20.7883 6.70975 17.9565C8.1927 14.7766 12.0884 10.1449 15.0614 8.02751C18.2572 5.75176 23.0656 4.38401 27.7718 4.41206C30.1911 4.42636 32.7793 4.60784 33.5238 4.81573Z" fill="#181818"/>
</svg>
