<svg width="28" height="28" viewBox="0 0 28 28" fill="none" xmlns="http://www.w3.org/2000/svg">
    <path d="M26 12.0714H2M12.8 16.9286H6.8M2 9.88571L2 19.1143C2 20.4744 2 21.1545 2.26158 21.674C2.49168 22.1309 2.85883 22.5025 3.31042 22.7353C3.82381 23 4.49587 23 5.84 23L22.16 23C23.5041 23 24.1762 23 24.6896 22.7353C25.1412 22.5025 25.5083 22.1309 25.7384 21.674C26 21.1545 26 20.4744 26 19.1143V9.88572C26 8.52559 26 7.84552 25.7384 7.32602C25.5083 6.86906 25.1412 6.49754 24.6896 6.2647C24.1762 6 23.5041 6 22.16 6L5.84 6C4.49587 6 3.82381 6 3.31042 6.2647C2.85883 6.49753 2.49168 6.86906 2.26158 7.32602C2 7.84552 2 8.52559 2 9.88571Z"
          stroke="#1598FF" stroke-width="2" stroke-linecap="round" stroke-linejoin="round"/>
</svg>
