<svg width="16" height="16" viewBox="0 0 16 16" fill="none" xmlns="http://www.w3.org/2000/svg">
    <path fill-rule="evenodd" clip-rule="evenodd" d="M8.99992 9.33333H10.8331C10.986 9.33333 11.1194 9.22924 11.1565 9.08085L11.6565 7.08085C11.6814 6.98127 11.659 6.87577 11.5958 6.79486C11.5327 6.71396 11.4357 6.66667 11.3331 6.66667H8.99992V5.33333C8.99992 4.96514 9.2984 4.66667 9.66659 4.66667H11.3333C11.5173 4.66667 11.6666 4.51743 11.6666 4.33333V2.33333C11.6666 2.14924 11.5173 2 11.3333 2H9.66659C7.82564 2 6.33325 3.49238 6.33325 5.33333V6.66667H4.66659C4.48249 6.66667 4.33325 6.81591 4.33325 7V9C4.33325 9.1841 4.48249 9.33333 4.66659 9.33333H6.33325V13.6667C6.33325 13.8508 6.48249 14 6.66659 14H8.66659C8.85068 14 8.99992 13.8508 8.99992 13.6667V9.33333Z" stroke="white" stroke-width="1.5" stroke-linecap="round" stroke-linejoin="round"/>
</svg>
