<svg width="16" height="16" viewBox="0 0 16 16" fill="none" xmlns="http://www.w3.org/2000/svg">
    <path fill-rule="evenodd" clip-rule="evenodd" d="M4.99733 2H11.0033C12.658 2 14 3.34133 14 4.99733V11.0033C14 12.658 12.6587 14 11.0027 14H4.99733C3.342 14 2 12.6587 2 11.0027V4.99733C2 3.342 3.34133 2 4.99733 2V2Z" stroke="white" stroke-width="1.5" stroke-linecap="round" stroke-linejoin="round"/>
    <path d="M11.2993 4.47552C11.1753 4.47619 11.0746 4.57685 11.0746 4.70085C11.0746 4.82485 11.176 4.92552 11.3 4.92552C11.424 4.92552 11.5246 4.82485 11.5246 4.70085C11.5253 4.57619 11.424 4.47552 11.2993 4.47552" stroke="white" stroke-width="1.5" stroke-linecap="round" stroke-linejoin="round"/>
    <path d="M9.69716 6.30451C10.6344 7.24177 10.6344 8.76136 9.69716 9.69862C8.7599 10.6359 7.2403 10.6359 6.30304 9.69862C5.36578 8.76136 5.36578 7.24177 6.30304 6.30451C7.2403 5.36725 8.7599 5.36725 9.69716 6.30451" stroke="white" stroke-width="1.5" stroke-linecap="round" stroke-linejoin="round"/>
</svg>
