<svg width="23" height="22" viewBox="0 0 23 22" fill="none" xmlns="http://www.w3.org/2000/svg">
    <path d="M0.52761 1.56703C0.877588 0.873569 1.53385 0.426133 2.39425 0.324267L2.39425 0.324267C3.28853 0.218374 4.05475 0.462147 4.57578 0.977754L4.57579 0.97776C5.02504 1.42231 5.2236 1.90797 5.2236 2.60085C5.2236 3.21634 5.02809 3.69145 4.59271 4.13157L4.5927 4.13158C4.1473 4.58186 3.58551 4.80085 2.76062 4.80085C2.20693 4.80085 1.8866 4.72983 1.48459 4.53142L1.48458 4.53141C0.443847 4.01781 -0.01068 2.63369 0.52761 1.56703ZM0.52761 1.56703L0.259786 1.43186L0.52761 1.56703ZM12.6141 9.20522L12.634 10.1167L13.1592 9.37146L13.3517 9.09828C14.1041 8.0307 15.1547 7.36978 16.3974 7.17488L16.3509 6.8785L16.3974 7.17488C17.5768 6.98985 18.9577 7.19778 19.8999 7.69097C21.4918 8.52424 22.4405 10.1368 22.6549 12.5437C22.681 12.8368 22.6998 14.8141 22.6999 17.517L22.7 21.6986L20.5417 21.6884L18.3789 21.6782L18.3553 17.5486C18.3442 15.5859 18.3357 14.4671 18.3216 13.8016C18.3077 13.1444 18.2884 12.9048 18.2472 12.721C17.9757 11.5122 17.3303 10.7181 16.2907 10.4729C16.0859 10.4246 15.8022 10.4073 15.5405 10.4112C15.2806 10.4151 15.0009 10.4406 14.8075 10.4968C13.9582 10.7438 13.3025 11.301 12.8934 12.1123L13.1612 12.2474L12.8934 12.1123C12.8843 12.1304 12.8749 12.1485 12.8653 12.167C12.8166 12.2611 12.764 12.3629 12.7262 12.4967C12.6815 12.6549 12.6572 12.8523 12.641 13.164C12.6115 13.7311 12.6063 14.755 12.5961 16.7783C12.595 16.98 12.594 17.1917 12.5928 17.4139L12.5706 21.6782L10.4091 21.6884L8.25237 21.6986L8.26203 14.5623L8.27168 7.42512L10.4192 7.43532L12.5755 7.44553L12.5916 8.17935L12.6141 9.20522ZM0.612126 14.5618V7.42445H2.76062H4.90911V14.5618V21.6992H2.76062H0.612126V14.5618Z" fill="white" stroke="#2196F3" stroke-width="0.6"/>
</svg>
