<svg width="20" height="20" viewBox="0 0 20 20" fill="none" xmlns="http://www.w3.org/2000/svg">
    <path fill-rule="evenodd" clip-rule="evenodd" d="M10.4714 6.70355C10.4695 10.3905 10.4473 13.7238 10.4221 14.1108C10.3783 14.7853 10.3673 14.8296 10.1559 15.1793C9.57286 16.1436 8.63012 16.6791 7.39599 16.7472C6.44193 16.7998 5.66045 16.538 4.96356 15.9323C4.29651 15.3526 4.00405 14.7248 4.00632 13.8778C4.00728 13.5144 4.04077 13.3253 4.15327 13.0482C4.53116 12.1174 5.46474 11.3795 6.50082 11.1926C6.83976 11.1314 7.87949 11.1495 8.21347 11.2225L8.37821 11.2585V9.40986V7.56124L8.18352 7.53114C7.6739 7.45237 7.02505 7.43805 6.47655 7.4935C3.92575 7.75123 1.74858 9.08772 0.679738 11.0519C0.151726 12.0223 -0.0426092 12.8819 0.007652 14.0255C0.0589915 15.1942 0.415133 16.1675 1.15354 17.1571C1.56317 17.7061 2.58355 18.6119 3.16638 18.944C5.33942 20.1822 8.01039 20.3411 10.3274 19.3701C12.0716 18.6391 13.3971 17.3296 14.0072 15.7346C14.3985 14.7114 14.3859 14.8662 14.4239 10.6412L14.4587 6.78191L15.0533 7.09431C15.8422 7.50881 16.734 7.83604 17.582 8.02218C18.236 8.16573 19.4341 8.33062 19.8233 8.33062H20V6.64747V4.96432L19.5123 4.89945C18.4407 4.75684 17.2691 4.36072 16.4899 3.87738C15.2846 3.12987 14.4909 1.8443 14.2811 0.299382L14.2404 0H12.3577H10.4749L10.4714 6.70355Z" fill="white"/>
</svg>
