<svg width="14" height="14" viewBox="0 0 14 14" fill="none" xmlns="http://www.w3.org/2000/svg">
    <path fill-rule="evenodd" clip-rule="evenodd" d="M9.66675 8.99477C9.6693 11.1956 7.8935 12.985 5.69274 12.9993C3.49197 13.0136 1.69307 11.2474 1.66703 9.04674C1.64099 6.84608 3.3976 5.03778 5.59808 5H5.66928V7.33333H5.63813C5.1276 7.34172 4.64901 7.58344 4.33927 7.98936C4.02952 8.39528 3.92272 8.9207 4.04942 9.41533C4.18993 9.9836 4.62213 10.4342 5.18404 10.5983C5.6897 10.7488 6.23672 10.6519 6.65987 10.3368C7.08302 10.0217 7.33267 9.52539 7.33342 8.99782H7.33592V1.33333C7.33592 1.14924 7.48516 1 7.66925 1H9.66925V1.11472C9.66929 2.46594 10.6808 3.60319 12.0228 3.76089C12.1954 3.77463 12.3297 3.91683 12.3334 4.09V5.81C12.3344 5.90243 12.2969 5.9911 12.2298 6.05466C12.1627 6.11822 12.0721 6.15092 11.9798 6.14488C11.1442 6.06792 10.3454 5.76462 9.66925 5.2676V9L9.66675 8.99477Z" stroke="#070233" stroke-width="1.5" stroke-linecap="round" stroke-linejoin="round"/>
</svg>
