<svg width="16" height="16" viewBox="0 0 16 16" fill="none" xmlns="http://www.w3.org/2000/svg">
    <path d="M13.55 6.23437C13.55 5.82016 13.2142 5.48437 12.8 5.48437C12.3858 5.48437 12.05 5.82016 12.05 6.23437H13.55ZM2.60565 10.592C2.36134 10.2575 1.89213 10.1844 1.55764 10.4287C1.22314 10.673 1.15004 11.1422 1.39435 11.4767L2.60565 10.592ZM1.87257 10.2953C1.46438 10.3657 1.19053 10.7536 1.2609 11.1618C1.33128 11.57 1.71924 11.8438 2.12743 11.7735L1.87257 10.2953ZM3.8 10.4344L4.03829 11.1455C4.28386 11.0632 4.46961 10.8601 4.5296 10.6081C4.5896 10.3562 4.51535 10.0911 4.33322 9.90695L3.8 10.4344ZM3.2 3.23438L3.86058 2.87922C3.73797 2.65116 3.50639 2.50248 3.24799 2.48591C2.98958 2.46935 2.74091 2.58724 2.59018 2.79777L3.2 3.23438ZM6.8 6.23437L6.62288 6.96316C6.84223 7.01647 7.07393 6.96815 7.25369 6.83159C7.43344 6.69504 7.54213 6.48479 7.54959 6.25917L6.8 6.23437ZM12.2 4.43437L11.5738 4.84715C11.7126 5.05767 11.9479 5.18437 12.2 5.18437V4.43437ZM14 4.43437L14.624 4.8504C14.7775 4.62026 14.7918 4.32435 14.6613 4.08048C14.5307 3.83661 14.2766 3.68437 14 3.68437V4.43437ZM12.176 5.81835C11.9462 6.163 12.0393 6.62865 12.384 6.85841C12.7286 7.08818 13.1943 6.99505 13.424 6.6504L12.176 5.81835ZM12.05 6.23437C12.05 8.19634 11.4901 9.80536 10.5126 10.9132C9.54543 12.0093 8.1093 12.6844 6.2 12.6844V14.1844C8.4907 14.1844 10.3546 13.3594 11.6374 11.9056C12.9099 10.4634 13.55 8.47241 13.55 6.23437H12.05ZM6.2 12.6844C5.14458 12.6844 4.45765 12.4134 3.94747 12.0524C3.41437 11.6752 3.02822 11.1706 2.60565 10.592L1.39435 11.4767C1.80978 12.0455 2.32363 12.7409 3.08103 13.2769C3.86135 13.829 4.85542 14.1844 6.2 14.1844V12.6844ZM2.12743 11.7735C2.15115 11.7694 2.16949 11.765 2.17578 11.7635C2.18436 11.7614 2.19128 11.7596 2.19539 11.7585C2.20361 11.7563 2.21021 11.7544 2.21348 11.7534C2.22046 11.7514 2.22655 11.7495 2.23002 11.7484C2.23761 11.746 2.24601 11.7433 2.25382 11.7408C2.26999 11.7356 2.29173 11.7285 2.31737 11.72C2.36901 11.703 2.44102 11.6792 2.52603 11.6509C2.69625 11.5943 2.9211 11.5193 3.14498 11.4445C3.36894 11.3696 3.59226 11.2949 3.75957 11.2389C3.84323 11.2108 3.9129 11.1875 3.96166 11.1712C3.98604 11.163 4.00519 11.1566 4.01825 11.1522C4.02478 11.15 4.02979 11.1484 4.03316 11.1472C4.03485 11.1467 4.03613 11.1462 4.03699 11.1459C4.03742 11.1458 4.03774 11.1457 4.03796 11.1456C4.03807 11.1456 4.03815 11.1456 4.03821 11.1455C4.03823 11.1455 4.03825 11.1455 4.03827 11.1455C4.03828 11.1455 4.03829 11.1455 3.8 10.4344C3.56171 9.72324 3.56171 9.72324 3.56169 9.72324C3.56168 9.72325 3.56166 9.72325 3.56163 9.72326C3.56158 9.72328 3.5615 9.72331 3.56139 9.72334C3.56118 9.72341 3.56086 9.72352 3.56043 9.72367C3.55958 9.72395 3.5583 9.72438 3.55662 9.72494C3.55326 9.72607 3.54826 9.72774 3.54175 9.72992C3.52871 9.73429 3.50959 9.7407 3.48524 9.74885C3.43654 9.76516 3.36695 9.78847 3.28337 9.81645C3.1162 9.87242 2.89315 9.94706 2.66952 10.0218C2.44582 10.0966 2.22187 10.1713 2.05279 10.2275C1.96813 10.2557 1.89786 10.279 1.84842 10.2952C1.82352 10.3034 1.80502 10.3095 1.79299 10.3134C1.79007 10.3143 1.7878 10.315 1.78609 10.3156C1.7843 10.3161 1.7836 10.3164 1.78371 10.3163C1.7838 10.3163 1.78439 10.3161 1.78537 10.3158C1.78624 10.3156 1.78821 10.315 1.79088 10.3142C1.793 10.3135 1.79867 10.3119 1.80615 10.3099C1.8099 10.3089 1.81651 10.3071 1.82484 10.3051C1.83086 10.3037 1.849 10.2993 1.87257 10.2953L2.12743 11.7735ZM4.33322 9.90695C2.59141 8.14602 2.46217 5.5533 3.80982 3.67098L2.59018 2.79777C0.825832 5.26212 1.00059 8.67073 3.26678 10.9618L4.33322 9.90695ZM2.53942 3.58953C3.35049 5.09811 4.88119 6.53987 6.62288 6.96316L6.97712 5.50559C5.75081 5.20755 4.52551 4.11597 3.86058 2.87922L2.53942 3.58953ZM7.54959 6.25917C7.57283 5.55651 7.81955 4.99238 8.19479 4.60894C8.56601 4.22959 9.10391 3.98438 9.8 3.98438V2.48438C8.72876 2.48438 7.79532 2.8725 7.12271 3.55981C6.45412 4.24303 6.0845 5.17891 6.05041 6.20958L7.54959 6.25917ZM9.8 3.98438C10.3048 3.98438 10.6561 4.07995 10.9149 4.21805C11.172 4.35528 11.3839 4.55906 11.5738 4.84715L12.8262 4.0216C12.5274 3.56835 12.141 3.17214 11.6211 2.8947C11.1029 2.61813 10.4985 2.48438 9.8 2.48438V3.98438ZM12.2 5.18437H14V3.68437H12.2V5.18437ZM13.376 4.01835L12.176 5.81835L13.424 6.6504L14.624 4.8504L13.376 4.01835Z" fill="white"/>
</svg>
