<svg width="16" height="16" viewBox="0 0 16 16" fill="none" xmlns="http://www.w3.org/2000/svg">
    <path d="M10.6663 4.66663V6.66663" stroke="#070233" stroke-width="1.5" stroke-linecap="round"
          stroke-linejoin="round"/>
    <path d="M10.6663 4.66663V6.66663" stroke="#070233" stroke-width="1.5" stroke-linecap="round"
          stroke-linejoin="round"/>
    <path d="M7.99984 4.66663V6.66663" stroke="#070233" stroke-width="1.5" stroke-linecap="round"
          stroke-linejoin="round"/>
    <path fill-rule="evenodd" clip-rule="evenodd"
          d="M13.1378 8.862L10.8618 11.138C10.7365 11.2633 10.5672 11.3333 10.3905 11.3333H7.99984L5.33317 14V11.3333H3.33317C2.96517 11.3333 2.6665 11.0347 2.6665 10.6667V4.94267C2.6665 4.766 2.7365 4.596 2.86184 4.47133L5.13784 2.19533C5.26317 2.07 5.4325 2 5.60917 2H12.6665C13.0345 2 13.3332 2.29867 13.3332 2.66667V8.39067C13.3332 8.56733 13.2632 8.73667 13.1378 8.862Z"
          stroke="#070233" stroke-width="1.5" stroke-linecap="round" stroke-linejoin="round"/>
</svg>
