<svg width="16" height="16" viewBox="0 0 16 16" fill="none" xmlns="http://www.w3.org/2000/svg">
    <path fill-rule="evenodd" clip-rule="evenodd"
          d="M14.3888 4.24862C14.2362 3.57929 13.7842 3.05129 13.2095 2.86995C12.1702 2.54529 8.00016 2.54529 8.00016 2.54529C8.00016 2.54529 3.83216 2.54529 2.79083 2.86995C2.21816 3.04862 1.76616 3.57662 1.6115 4.24862C1.3335 5.46329 1.3335 7.99996 1.3335 7.99996C1.3335 7.99996 1.3335 10.5366 1.6115 11.7513C1.76416 12.4206 2.21616 12.9486 2.79083 13.13C3.83216 13.4546 8.00016 13.4546 8.00016 13.4546C8.00016 13.4546 12.1702 13.4546 13.2095 13.13C13.7822 12.9513 14.2342 12.4233 14.3888 11.7513C14.6668 10.5366 14.6668 7.99996 14.6668 7.99996C14.6668 7.99996 14.6668 5.46329 14.3888 4.24862Z"
          stroke="#070233" stroke-width="1.5" stroke-linecap="round" stroke-linejoin="round"/>
    <path fill-rule="evenodd" clip-rule="evenodd" d="M6.66797 10L10.132 8L6.66797 6V10Z" stroke="#070233"
          stroke-width="1.5" stroke-linecap="round" stroke-linejoin="round"/>
</svg>
