<svg width="19" height="19" viewBox="0 0 19 19" fill="none" xmlns="http://www.w3.org/2000/svg">
    <g>
        <path fill-rule="evenodd" clip-rule="evenodd"
              d="M9.5 12.65C8.17452 12.65 7.1 11.5755 7.1 10.25C7.1 8.92452 8.17452 7.85 9.5 7.85C10.8255 7.85 11.9 8.92452 11.9 10.25C11.9 11.5755 10.8255 12.65 9.5 12.65ZM15.5 4.25C16.325 4.25 17 4.925 17 5.75V14.75C17 15.575 16.325 16.25 15.5 16.25H3.5C2.675 16.25 2 15.575 2 14.75V5.75C2 4.925 2.675 4.25 3.5 4.25H5.8775L6.8 3.2375C7.085 2.93 7.49 2.75 7.91 2.75H11.09C11.51 2.75 11.915 2.93 12.1925 3.2375L13.1225 4.25H15.5ZM9.5 14C11.57 14 13.25 12.32 13.25 10.25C13.25 8.18 11.57 6.5 9.5 6.5C7.43 6.5 5.75 8.18 5.75 10.25C5.75 12.32 7.43 14 9.5 14Z"
              fill="#FFFFFF"/>
    </g>
</svg>
