<svg width="17" height="17" viewBox="0 0 17 17" fill="none" xmlns="http://www.w3.org/2000/svg">
    <path d="M12.7502 4.24972C13.1414 4.64093 13.1414 5.2752 12.7502 5.66641L9.91646 8.49939L12.7497 11.333C13.1409 11.7242 13.1409 12.3585 12.7497 12.7497C12.3585 13.1409 11.7242 13.1409 11.333 12.7497L8.49978 9.91608L5.66634 12.7503C5.27513 13.1415 4.64086 13.1415 4.24966 12.7503C3.85845 12.3591 3.85845 11.7248 4.24966 11.3336L7.0831 8.49939L4.25022 5.66695C3.85901 5.27575 3.85901 4.64148 4.25022 4.25027C4.64142 3.85906 5.27569 3.85906 5.6669 4.25027L8.49978 7.08271L11.3335 4.24972C11.7247 3.85852 12.359 3.85852 12.7502 4.24972Z"
          fill="#979797" stroke="white"/>
</svg>
