<svg width="18" height="18" viewBox="0 0 18 18" fill="none" xmlns="http://www.w3.org/2000/svg">
    <path fill-rule="evenodd" clip-rule="evenodd"
          d="M9 12.15C7.67452 12.15 6.6 11.0755 6.6 9.75C6.6 8.42452 7.67452 7.35 9 7.35C10.3255 7.35 11.4 8.42452 11.4 9.75C11.4 11.0755 10.3255 12.15 9 12.15ZM15 3.75C15.825 3.75 16.5 4.425 16.5 5.25V14.25C16.5 15.075 15.825 15.75 15 15.75H3C2.175 15.75 1.5 15.075 1.5 14.25V5.25C1.5 4.425 2.175 3.75 3 3.75H5.3775L6.3 2.7375C6.585 2.43 6.99 2.25 7.41 2.25H10.59C11.01 2.25 11.415 2.43 11.6925 2.7375L12.6225 3.75H15ZM9 13.5C11.07 13.5 12.75 11.82 12.75 9.75C12.75 7.68 11.07 6 9 6C6.93 6 5.25 7.68 5.25 9.75C5.25 11.82 6.93 13.5 9 13.5Z"
          fill="white"/>
</svg>
