<svg width="25" height="24" viewBox="0 0 25 24" fill="none" xmlns="http://www.w3.org/2000/svg">
    <g clip-path="url(#clip0_6_4481)">
        <path d="M18.16 9.5298L11.09 16.5998L6.85 12.3598L8.26 10.9498L11.09 13.7798L16.75 8.1198L18.16 9.5298ZM4.5 11.9998C4.5 9.6698 5.52 7.5798 7.12 6.1198L9.5 8.4998V2.4998H3.5L5.7 4.6998C3.74 6.5198 2.5 9.1098 2.5 11.9998C2.5 17.1898 6.45 21.4498 11.5 21.9498V19.9298C7.56 19.4398 4.5 16.0698 4.5 11.9998ZM22.5 11.9998C22.5 6.8098 18.55 2.5498 13.5 2.0498V4.0698C17.44 4.5598 20.5 7.9298 20.5 11.9998C20.5 14.3298 19.48 16.4198 17.88 17.8798L15.5 15.4998V21.4998H21.5L19.3 19.2998C21.26 17.4798 22.5 14.8898 22.5 11.9998Z"
              fill="#9D9BB9"/>
    </g>
    <defs>
        <clipPath id="clip0_6_4481">
            <rect width="24" height="24" fill="white" transform="translate(0.5)"/>
        </clipPath>
    </defs>
</svg>
