<svg width="22" height="22" viewBox="0 0 22 22" fill="none" xmlns="http://www.w3.org/2000/svg">
    <rect x="0.5" y="0.5" width="21" height="21" rx="10.5" fill="white"/>
    <path d="M11.2119 13.1973H9.94043C9.94499 12.7598 9.98372 12.402 10.0566 12.124C10.1341 11.8415 10.2594 11.584 10.4326 11.3516C10.6058 11.1191 10.8359 10.8548 11.123 10.5586C11.3327 10.3444 11.5241 10.1439 11.6973 9.95703C11.875 9.76562 12.0186 9.56055 12.1279 9.3418C12.2373 9.11849 12.292 8.85189 12.292 8.54199C12.292 8.22754 12.235 7.95638 12.1211 7.72852C12.0117 7.50065 11.8477 7.3252 11.6289 7.20215C11.4147 7.0791 11.1481 7.01758 10.8291 7.01758C10.5648 7.01758 10.3141 7.06543 10.0771 7.16113C9.84017 7.25684 9.64876 7.40495 9.50293 7.60547C9.3571 7.80143 9.2819 8.05892 9.27734 8.37793H8.0127C8.02181 7.86296 8.14941 7.4209 8.39551 7.05176C8.64616 6.68262 8.9834 6.40007 9.40723 6.2041C9.83105 6.00814 10.305 5.91016 10.8291 5.91016C11.4079 5.91016 11.9001 6.01497 12.3057 6.22461C12.7158 6.43424 13.028 6.73503 13.2422 7.12695C13.4564 7.51432 13.5635 7.97461 13.5635 8.50781C13.5635 8.91797 13.4792 9.29622 13.3105 9.64258C13.1465 9.98438 12.9346 10.3057 12.6748 10.6064C12.415 10.9072 12.1393 11.1943 11.8477 11.4678C11.597 11.7002 11.4284 11.9622 11.3418 12.2539C11.2552 12.5456 11.2119 12.86 11.2119 13.1973ZM9.88574 15.3643C9.88574 15.1592 9.94954 14.986 10.0771 14.8447C10.2048 14.7035 10.3893 14.6328 10.6309 14.6328C10.877 14.6328 11.0638 14.7035 11.1914 14.8447C11.319 14.986 11.3828 15.1592 11.3828 15.3643C11.3828 15.5602 11.319 15.7288 11.1914 15.8701C11.0638 16.0114 10.877 16.082 10.6309 16.082C10.3893 16.082 10.2048 16.0114 10.0771 15.8701C9.94954 15.7288 9.88574 15.5602 9.88574 15.3643Z"
          fill="#919499"/>
    <rect x="0.5" y="0.5" width="21" height="21" rx="10.5" stroke="#E5E7EB"/>
</svg>
