<svg width="40" height="40" viewBox="0 0 40 40" fill="none" xmlns="http://www.w3.org/2000/svg">
    <rect width="40" height="40" rx="8" fill="#FF7466"/>
    <g clip-path="url(#clip0_6_4164)">
        <path d="M23.1111 21.3328C23.1111 23.1106 20.8889 24.4439 20.8889 25.7772H19.1111C19.1111 24.4439 16.8889 23.1106 16.8889 21.3328C16.8889 19.6172 18.2844 18.2217 20 18.2217C21.7156 18.2217 23.1111 19.6172 23.1111 21.3328ZM20.8889 26.6661H19.1111V27.9995H20.8889V26.6661ZM26.2222 20.8883C26.2222 22.3817 25.6978 23.7417 24.8178 24.8172L26.08 26.0795C27.2711 24.6839 28 22.8706 28 20.8883C28 18.4528 26.9067 16.275 25.1911 14.8083L23.9289 16.0706C25.3244 17.2083 26.2222 18.9506 26.2222 20.8883ZM23.5556 13.7772L20 10.2217V12.8883C15.5822 12.8883 12 16.4706 12 20.8883C12 22.8706 12.7289 24.6839 13.92 26.0795L15.1822 24.8172C14.3022 23.7417 13.7778 22.3817 13.7778 20.8883C13.7778 17.4572 16.5689 14.6661 20 14.6661V17.3328L23.5556 13.7772Z"
              fill="white"/>
    </g>
    <defs>
        <clipPath id="clip0_6_4164">
            <rect width="21.3333" height="21.3333" fill="white" transform="translate(9.33301 9.33301)"/>
        </clipPath>
    </defs>
</svg>
