<svg width="25" height="24" viewBox="0 0 25 24" fill="none" xmlns="http://www.w3.org/2000/svg">
    <g clip-path="url(#clip0_6_4474)">
        <path d="M22.5 5.18L11.09 16.6L6.85 12.36L8.26 10.95L11.09 13.78L21.09 3.78L22.5 5.18ZM12.5 20C8.09 20 4.5 16.41 4.5 12C4.5 7.59 8.09 4 12.5 4C14.07 4 15.54 4.46 16.78 5.25L18.23 3.8C16.6 2.67 14.63 2 12.5 2C6.98 2 2.5 6.48 2.5 12C2.5 17.52 6.98 22 12.5 22C14.23 22 15.86 21.56 17.28 20.78L15.78 19.28C14.78 19.74 13.67 20 12.5 20ZM19.5 15H16.5V17H19.5V20H21.5V17H24.5V15H21.5V12H19.5V15Z"
              fill="#9D9BB9"/>
    </g>
    <defs>
        <clipPath id="clip0_6_4474">
            <rect width="24" height="24" fill="white" transform="translate(0.5)"/>
        </clipPath>
    </defs>
</svg>
