<svg width="40" height="40" viewBox="0 0 40 40" fill="none" xmlns="http://www.w3.org/2000/svg">
    <rect width="40" height="40" rx="8" fill="#A29BCF"/>
    <g clip-path="url(#clip0_6_4120)">
        <path d="M23.1104 19.5548C23.1104 21.3326 20.8881 22.666 20.8881 23.9993H19.1104C19.1104 22.666 16.8881 21.3326 16.8881 19.5548C16.8881 17.8393 18.2837 16.4437 19.9992 16.4437C21.7148 16.4437 23.1104 17.8393 23.1104 19.5548ZM20.8881 24.8882H19.1104V26.2215H20.8881V24.8882ZM28.8881 19.9993C28.8881 17.546 27.8926 15.3237 26.2837 13.7148L25.3415 14.6571C26.7104 16.026 27.5548 17.9193 27.5548 19.9993C27.5548 22.0793 26.7104 23.9726 25.3415 25.3415L26.2837 26.2837C27.8926 24.6748 28.8881 22.4526 28.8881 19.9993ZM12.4437 19.9993C12.4437 17.9193 13.2881 16.026 14.657 14.6571L13.7148 13.7148C12.1059 15.3237 11.1104 17.546 11.1104 19.9993C11.1104 22.4526 12.1059 24.6748 13.7148 26.2837L14.657 25.3415C13.2881 23.9726 12.4437 22.0793 12.4437 19.9993ZM24.8881 19.9993C24.8881 21.3504 24.337 22.5682 23.457 23.4571L24.3992 24.3993C25.5281 23.2704 26.2215 21.7148 26.2215 19.9993C26.2215 18.2837 25.5281 16.7282 24.3992 15.5993L23.457 16.5415C24.337 17.4304 24.8881 18.6482 24.8881 19.9993ZM15.5992 24.3993L16.5415 23.4571C15.6526 22.5682 15.1104 21.3504 15.1104 19.9993C15.1104 18.6482 15.6615 17.4304 16.5415 16.5415L15.5992 15.5993C14.4704 16.7282 13.777 18.2837 13.777 19.9993C13.777 21.7148 14.4704 23.2704 15.5992 24.3993Z"
              fill="white"/>
    </g>
    <defs>
        <clipPath id="clip0_6_4120">
            <rect width="21.3333" height="21.3333" fill="white" transform="translate(9.33301 9.33301)"/>
        </clipPath>
    </defs>
</svg>
