<svg width="40" height="40" viewBox="0 0 40 40" fill="none" xmlns="http://www.w3.org/2000/svg">
    <rect width="40" height="40" rx="8" fill="#A29BCF"/>
    <path d="M24.3104 14.4335C23.6457 12.4113 21.7448 10.9502 19.4999 10.9502C17.2551 10.9502 15.3541 12.4113 14.6895 14.4335H24.3104Z"
          fill="white"/>
    <path d="M14.4776 15.3838C14.4516 15.5915 14.4336 15.8021 14.4336 16.0171V19.1838C14.4336 21.9822 16.7022 24.2505 19.5003 24.2505C22.2983 24.2505 24.5669 21.9822 24.5669 19.1838V16.0171C24.5669 15.8021 24.5489 15.5915 24.5229 15.3838H14.4776Z"
          fill="white"/>
    <path d="M26.7835 19.1829C26.7835 18.9907 26.7835 18.8662 26.7835 18.8662H25.5168V19.1829C25.5168 22.5057 22.8229 25.1995 19.5001 25.1995C16.1773 25.1995 13.4835 22.5057 13.4835 19.1829C13.4835 19.0245 13.4835 18.8662 13.4835 18.8662H12.2168V19.1829C12.2168 22.9917 15.1409 26.116 18.8668 26.4371V27.0995H16.9668V28.3662H22.0335V27.0995H20.1335V26.4371C23.8594 26.116 26.7835 22.9917 26.7835 19.1829Z"
          fill="white"/>
</svg>
