<svg width="40" height="40" viewBox="0 0 40 40" fill="none" xmlns="http://www.w3.org/2000/svg">
    <rect width="40" height="40" rx="8" fill="#FF7466"/>
    <g clip-path="url(#clip0_6_4136)">
        <path d="M28 15.8044V13.7778C28 12.8 27.2 12 26.2222 12H13.7778C12.7911 12 12 12.8 12 13.7778V26.2222C12 27.2 12.7911 28 13.7778 28H26.2222C27.2 28 28 27.2 28 26.2222V24.1956C28.5244 23.8844 28.8889 23.3244 28.8889 22.6667V17.3333C28.8889 16.6756 28.5244 16.1156 28 15.8044ZM27.1111 17.3333V22.6667H20.8889V17.3333H27.1111ZM13.7778 26.2222V13.7778H26.2222V15.5556H20.8889C19.9111 15.5556 19.1111 16.3556 19.1111 17.3333V22.6667C19.1111 23.6444 19.9111 24.4444 20.8889 24.4444H26.2222V26.2222H13.7778Z"
              fill="white"/>
        <path d="M23.555 21.3327C24.2914 21.3327 24.8883 20.7357 24.8883 19.9993C24.8883 19.263 24.2914 18.666 23.555 18.666C22.8186 18.666 22.2217 19.263 22.2217 19.9993C22.2217 20.7357 22.8186 21.3327 23.555 21.3327Z"
              fill="white"/>
    </g>
    <defs>
        <clipPath id="clip0_6_4136">
            <rect width="21.3333" height="21.3333" fill="white" transform="translate(9.33301 9.33301)"/>
        </clipPath>
    </defs>
</svg>
