<svg width="24" height="24" viewBox="0 0 24 24" fill="none" xmlns="http://www.w3.org/2000/svg">
<rect width="24" height="24" rx="1" fill="#070233"/>
<path fill-rule="evenodd" clip-rule="evenodd" d="M2.05857 4.29489C2.00419 4.45732 1.98395 7.80108 2.01379 11.7257L2.06797 18.8617L3.44788 18.931L4.82779 19V13.7235C4.82779 10.8214 4.89689 8.4475 4.98111 8.44821C5.06534 8.44891 6.09363 10.1867 7.26604 12.3099L9.39744 16.1702L12.0702 16.1653L14.7427 16.1604L16.8892 12.2804L19.0357 8.40046L19.138 13.6311L19.2402 18.8617L20.6201 18.931L22 19V11.5001V4H20.1078H18.2158L15.7738 8.38829C14.4309 10.802 13.042 13.2786 12.6878 13.8923L12.0432 15.0082L8.99777 9.50608L5.95216 4.00398L4.05483 4.00211C2.71581 4.0007 2.12828 4.08683 2.05857 4.29489Z" fill="#FF1700"/>
</svg>
