<svg width="179" height="14" viewBox="0 0 179 14" fill="none" xmlns="http://www.w3.org/2000/svg">
    <path fill-rule="evenodd" clip-rule="evenodd" d="M26.1685 0.387401C23.6789 1.08432 22.1495 2.48155 21.6076 4.55423C21.2283 6.00481 21.4206 9.23541 21.9516 10.3302C22.3982 11.2511 23.4286 12.3325 24.3405 12.8375C26.2538 13.8968 30.8242 14.3238 33.8025 13.7213C37.9843 12.8754 39.6663 10.917 39.6663 6.89514C39.6663 3.21396 38.2187 1.33745 34.6001 0.328315C32.9363 -0.135657 27.9119 -0.100589 26.1685 0.387401ZM0.0568655 0.482194C0.00406501 0.629696 -0.0155863 3.66624 0.0133944 7.23031L0.0659964 13.7106L1.40586 13.7735L2.74572 13.8362V9.04455C2.74572 6.40906 2.81281 4.25328 2.89459 4.25391C2.97637 4.25455 3.97482 5.83265 5.1132 7.76081L7.18274 11.2664L9.77791 11.262L12.3729 11.2575L14.4571 7.73403L16.5413 4.21055L16.6406 8.96059L16.7398 13.7106L18.0797 13.7735L19.4195 13.8362V7.02542V0.214395H17.5823H15.7452L13.3741 4.1995C12.0702 6.39142 10.7216 8.64051 10.3776 9.19779L9.7517 10.2112L6.79468 5.21459L3.83746 0.218008L1.9952 0.216308C0.695036 0.215032 0.124553 0.293247 0.0568655 0.482194ZM40.8573 7.01565V13.8169H42.2468H43.6363V8.9285C43.6363 6.23988 43.6889 4.0401 43.753 4.0401C43.8173 4.0401 46.2658 6.23988 49.1942 8.9285L54.5188 13.8169H55.9257H57.3327V7.01565V0.214395H55.9432H54.5537V5.10279C54.5537 7.79141 54.4868 9.98716 54.4048 9.98227C54.3228 9.97738 51.8889 7.78036 48.9957 5.09982L43.7355 0.226297L42.2964 0.220346L40.8573 0.214395V7.01565ZM58.9207 7.01565V13.8222L66.0169 13.7665L73.1133 13.7106V12.4354V11.1602L67.4064 11.1038L61.6996 11.0473V9.6692V8.29088H65.8681H70.0365V6.90938V5.52787H65.8681H61.6996V4.25264V2.9774H67.4656H73.2314L73.1724 1.64903L73.1133 0.320664L66.0169 0.264766L58.9207 0.209081V7.01565ZM74.4035 1.5959V2.9774H77.7746H81.1457L81.1987 8.34402L81.2517 13.7106L82.5882 13.7733L83.9244 13.8362L83.9776 8.45985L84.0306 3.08367L87.4547 3.02544L90.8788 2.96741V1.5908V0.214395H82.6412H74.4035V1.5959ZM92.2683 1.58931V2.96423L94.6999 3.02395L97.1315 3.08367V7.01565V10.9476L94.6999 11.0073L92.2683 11.0671V12.442V13.8169H98.521H104.774V12.4354V11.0539H102.392H100.01V7.01565V2.9774H102.392H104.774V1.5959V0.214395H98.521H92.2683V1.58931ZM108.483 0.420133C107.595 0.603979 106.759 1.21609 106.414 1.93511C106.084 2.62246 106.099 4.14148 106.442 4.84775C107.264 6.53871 108.572 7.08175 113.959 7.96676C118.352 8.68876 119.264 8.99524 119.264 9.7506C119.264 10.8577 117.485 11.35 113.915 11.2309C111.605 11.154 111.306 11.0958 110.229 10.516C109.403 10.0709 108.967 9.6828 108.752 9.19906C108.452 8.52701 108.418 8.51299 107.106 8.50831C105.586 8.50278 105.489 8.65709 106.074 10.1574C107.073 12.7181 109.681 13.8941 114.401 13.9123C118.23 13.9272 120.172 13.3621 121.323 11.897C121.772 11.3257 121.844 11.0371 121.844 9.81542C121.842 6.97973 121.068 6.45709 115.482 5.52171C111.087 4.7859 109.749 4.42947 109.275 3.86879C108.555 3.01715 108.741 2.9774 113.452 2.9774H117.962L116.684 1.5959L115.405 0.214395L112.322 0.238837C110.627 0.252227 108.899 0.333842 108.483 0.420133ZM123.479 6.96251L123.532 13.7106L130.628 13.7665L137.724 13.8222V12.4382V11.0539H132.067H126.41V9.67239V8.29088H130.578H134.747V6.90938V5.52787H130.578H126.41V4.25264V2.9774H132.067H137.724V1.5959V0.214395H130.576H123.427L123.479 6.96251ZM139.543 4.64031L139.61 9.06644L140.208 10.3166C141.315 12.6328 143.445 13.7519 147.161 13.9693C151.567 14.2271 154.678 12.8537 155.808 10.1521C156.241 9.11766 156.281 8.70746 156.347 4.62458L156.418 0.214395H155.011H153.604V4.0469C153.604 8.21841 153.47 8.92042 152.458 10.0522C152.154 10.3916 151.467 10.788 150.847 10.9808C149.548 11.385 146.701 11.4222 145.267 11.0537C143.986 10.7249 142.822 9.60289 142.511 8.39715C142.391 7.92914 142.292 5.89854 142.291 3.88069L142.29 0.214395H140.883H139.476L139.543 4.64031ZM158.567 7.01565V13.8169H159.956H161.346V11.5017C161.346 8.0894 161.451 8.08748 168.123 11.3787L173.091 13.8286L175.795 13.7697L178.5 13.7106L173.309 11.1653C170.454 9.76548 168.165 8.56995 168.222 8.50852C168.279 8.44731 169.344 8.28812 170.59 8.15507C174.094 7.78036 175.394 6.88642 175.589 4.71831C175.716 3.3045 175.373 2.30514 174.459 1.42034C173.319 0.317901 172.516 0.214395 165.107 0.214395H158.567V7.01565ZM33.5403 2.84095C34.9705 3.20142 35.8766 3.77209 36.4402 4.66751C37.0325 5.60885 37.075 8.0267 36.5188 9.14444C35.6984 10.7927 32.5611 11.646 28.8152 11.2394C25.1401 10.8405 23.7653 9.36102 24.1124 6.17888C24.3812 3.71513 26.3162 2.59356 30.3369 2.57082C31.4833 2.56423 32.9248 2.6858 33.5403 2.84095ZM172.417 3.30833C173.014 3.75615 173.012 4.774 172.412 5.19121C172.112 5.40014 170.469 5.64498 167.4 5.93829C164.889 6.17824 162.499 6.42415 162.09 6.48494L161.346 6.59567V4.78654V2.9774H166.661C171.15 2.9774 172.045 3.02884 172.417 3.30833Z" fill="#FF1700"/>
</svg>
