<svg width="249" height="20" viewBox="0 0 249 20" fill="none" xmlns="http://www.w3.org/2000/svg">
    <path fill-rule="evenodd" clip-rule="evenodd" d="M36.9361 0.55343C33.4803 1.54902 31.3573 3.54507 30.6051 6.50604C30.0785 8.5783 30.3455 13.1934 31.0826 14.7574C31.7025 16.073 33.1328 17.6179 34.3987 18.3393C37.0546 19.8526 43.3988 20.4626 47.533 19.6018C53.3377 18.3934 55.6726 15.5957 55.6726 9.8502C55.6726 4.59137 53.6631 1.91064 48.6401 0.469022C46.3305 -0.193796 39.3561 -0.143698 36.9361 0.55343ZM0.690264 0.688849C0.616971 0.899566 0.589693 5.23749 0.629921 10.329L0.702938 19.5866L2.56281 19.6765L4.42269 19.7661V12.9208C4.42269 9.1558 4.51582 6.07611 4.62934 6.07702C4.74286 6.07793 6.12882 8.33236 7.70902 11.0869L10.5818 16.0949L14.1841 16.0885L17.7862 16.0821L20.6794 11.0486L23.5725 6.01508L23.7103 12.8008L23.8481 19.5866L25.7079 19.6765L27.5678 19.7661V10.0363V0.306278H25.0174H22.4673L19.1761 5.99929C17.3661 9.1306 15.4941 12.3436 15.0165 13.1397L14.1478 14.5874L10.0431 7.44941L5.93815 0.31144L3.38088 0.309011C1.57612 0.307189 0.784222 0.418924 0.690264 0.688849ZM57.3258 10.0224V19.7384H59.2546H61.1833V12.755C61.1833 8.91411 61.2564 5.77157 61.3454 5.77157C61.4346 5.77157 64.8334 8.91411 68.8984 12.755L76.2894 19.7384H78.2424H80.1954V10.0224V0.306278H78.2667H76.3379V7.28971C76.3379 11.1306 76.245 14.2674 76.1312 14.2604C76.0174 14.2534 72.6388 11.1148 68.6229 7.28546L61.3211 0.323281L59.3235 0.31478L57.3258 0.306278V10.0224ZM82.3997 10.0224V19.746L92.2502 19.6665L102.101 19.5866V17.7649V15.9431L94.1789 15.8626L86.2572 15.7819V13.8131V11.8441H92.0435H97.8298V9.87054V7.89696H92.0435H86.2572V6.0752V4.25343H94.261H102.265L102.183 2.35576L102.101 0.458092L92.2502 0.378238L82.3997 0.298687V10.0224ZM103.892 2.27986V4.25343H108.571H113.251L113.324 11.92L113.398 19.5866L115.253 19.6762L117.108 19.7661L117.182 12.0855L117.255 4.40525L122.008 4.32205L126.761 4.23916V2.27257V0.306278H115.326H103.892V2.27986ZM128.69 2.27044V4.23461L132.065 4.31993L135.441 4.40525V10.0224V15.6395L132.065 15.7248L128.69 15.8101V17.7743V19.7384H137.369H146.049V17.7649V15.7913H142.742H139.436V10.0224V4.25343H142.742H146.049V2.27986V0.306278H137.369H128.69V2.27044ZM151.197 0.600189C149.965 0.862827 148.805 1.73727 148.326 2.76445C147.868 3.74638 147.888 5.9164 148.365 6.92535C149.505 9.34101 151.322 10.1168 158.799 11.3811C164.897 12.4125 166.163 12.8503 166.163 13.9294C166.163 15.511 163.694 16.2142 158.738 16.0442C155.532 15.9343 155.117 15.8511 153.622 15.0228C152.475 14.387 151.87 13.8326 151.571 13.1415C151.155 12.1814 151.108 12.1614 149.286 12.1547C147.176 12.1468 147.042 12.3673 147.854 14.5106C149.241 18.1687 152.861 19.8486 159.412 19.8748C164.728 19.896 167.424 19.0887 169.021 16.9958C169.645 16.1796 169.745 15.7673 169.744 14.022C169.742 9.97104 168.667 9.22442 160.913 7.88816C154.813 6.837 152.955 6.32782 152.297 5.52685C151.298 4.31021 151.556 4.25343 158.096 4.25343H164.356L162.581 2.27986L160.806 0.306278L156.527 0.341195C154.174 0.360324 151.775 0.476917 151.197 0.600189ZM172.014 9.94645L172.087 19.5866L181.938 19.6665L191.788 19.746V17.7688V15.7913H183.935H176.082V13.8177V11.8441H181.869H187.655V9.87054V7.89696H181.869H176.082V6.0752V4.25343H183.935H191.788V2.27986V0.306278H181.865H171.942L172.014 9.94645ZM194.313 6.62901L194.406 12.9521L195.235 14.738C196.772 18.0469 199.729 19.6455 204.887 19.9561C211.003 20.3244 215.321 18.3624 216.89 14.503C217.491 13.0252 217.546 12.4392 217.638 6.60655L217.737 0.306278H215.784H213.831V5.78129C213.831 11.7406 213.645 12.7435 212.24 14.3603C211.818 14.8452 210.864 15.4114 210.004 15.6868C208.201 16.2643 204.249 16.3175 202.258 15.791C200.48 15.3213 198.865 13.7184 198.433 11.9959C198.265 11.3273 198.128 8.42649 198.127 5.54385L198.125 0.306278H196.173H194.22L194.313 6.62901ZM220.719 10.0224V19.7384H222.648H224.577V16.431C224.577 11.5563 224.723 11.5535 233.985 16.2552L240.881 19.7551L244.635 19.671L248.389 19.5866L241.183 15.9504C237.22 13.9507 234.042 12.2428 234.121 12.155C234.201 12.0676 235.68 11.8402 237.409 11.6501C242.273 11.1148 244.078 9.83775 244.348 6.74045C244.524 4.72072 244.049 3.29306 242.779 2.02906C241.197 0.454145 240.083 0.306278 229.799 0.306278H220.719V10.0224ZM47.169 4.05851C49.1542 4.57346 50.412 5.3887 51.1943 6.66788C52.0165 8.01264 52.0755 11.4667 51.3034 13.0635C50.1646 15.4181 45.8097 16.6372 40.6101 16.0563C35.5085 15.4864 33.6001 13.3729 34.0821 8.82697C34.4551 5.30732 37.1411 3.70508 42.7224 3.6726C44.3136 3.66318 46.3145 3.83686 47.169 4.05851ZM239.946 4.72618C240.775 5.36592 240.771 6.81999 239.938 7.41602C239.521 7.71448 237.241 8.06426 232.981 8.48327C229.495 8.82606 226.179 9.17736 225.61 9.2642L224.577 9.42238V6.83791V4.25343H231.955C238.187 4.25343 239.428 4.32691 239.946 4.72618Z" fill="#FF1700"/>
</svg>
