<svg width="174" height="34" viewBox="0 0 174 34" fill="none" xmlns="http://www.w3.org/2000/svg">
    <path fill-rule="evenodd" clip-rule="evenodd" d="M25.4273 10.3874C23.0083 11.0843 21.5222 12.4815 20.9956 14.5542C20.627 16.0048 20.8139 19.2354 21.3299 20.3302C21.7638 21.2511 22.7651 22.3325 23.6511 22.8375C25.5103 23.8968 29.9512 24.3238 32.8451 23.7213C36.9085 22.8754 38.5429 20.917 38.5429 16.8951C38.5429 13.214 37.1362 11.3375 33.6201 10.3283C32.0034 9.86434 27.1214 9.89941 25.4273 10.3874ZM0.0552549 10.4822C0.00394988 10.6297 -0.0151448 13.6662 0.0130151 17.2303L0.0641272 23.7106L1.36604 23.7735L2.66795 23.8362V19.0445C2.66795 16.4091 2.73315 14.2533 2.81261 14.2539C2.89208 14.2546 3.86224 15.8327 4.96839 17.7608L6.97931 21.2664L9.50097 21.262L12.0224 21.2575L14.0476 17.734L16.0728 14.2106L16.1693 18.9606L16.2657 23.7106L17.5676 23.7735L18.8695 23.8362V17.0254V10.2144H17.0843H15.2992L12.9953 14.1995C11.7283 16.3914 10.4179 18.6405 10.0837 19.1978L9.47551 20.2112L6.60224 15.2146L3.72877 10.218L1.93869 10.2163C0.675351 10.215 0.121026 10.2932 0.0552549 10.4822ZM39.7001 17.0156V23.8169H41.0503H42.4004V18.9285C42.4004 16.2399 42.4515 14.0401 42.5138 14.0401C42.5763 14.0401 44.9554 16.2399 47.8009 18.9285L52.9747 23.8169H54.3418H55.7089V17.0156V10.2144H54.3587H53.0086V15.1028C53.0086 17.7914 52.9436 19.9872 52.8639 19.9823C52.7843 19.9774 50.4192 17.7804 47.6081 15.0998L42.4969 10.2263L41.0985 10.2203L39.7001 10.2144V17.0156ZM57.2519 17.0156V23.8222L64.1472 23.7665L71.0425 23.7106V22.4354V21.1602L65.4973 21.1038L59.9521 21.0473V19.6692V18.2909H64.0025H68.0529V16.9094V15.5279H64.0025H59.9521V14.2526V12.9774H65.5548H71.1573L71.1 11.649L71.0425 10.3207L64.1472 10.2648L57.2519 10.2091V17.0156ZM72.2962 11.5959V12.9774H75.5718H78.8474L78.8989 18.344L78.9504 23.7106L80.2491 23.7733L81.5475 23.8362L81.5992 18.4599L81.6507 13.0837L84.9778 13.0254L88.3049 12.9674V11.5908V10.2144H80.3006H72.2962V11.5959ZM89.655 11.5893V12.9642L92.0178 13.0239L94.3805 13.0837V17.0156V20.9476L92.0178 21.0073L89.655 21.0671V22.442V23.8169H95.7306H101.806V22.4354V21.0539H99.4917H97.1772V17.0156V12.9774H99.4917H101.806V11.5959V10.2144H95.7306H89.655V11.5893ZM105.41 10.4201C104.548 10.604 103.736 11.2161 103.4 11.9351C103.08 12.6225 103.094 14.1415 103.427 14.8477C104.226 16.5387 105.497 17.0817 110.731 17.9668C115 18.6888 115.886 18.9952 115.886 19.7506C115.886 20.8577 114.158 21.35 110.688 21.2309C108.444 21.154 108.154 21.0958 107.107 20.516C106.304 20.0709 105.881 19.6828 105.672 19.1991C105.38 18.527 105.348 18.513 104.073 18.5083C102.595 18.5028 102.501 18.6571 103.07 20.1574C104.041 22.7181 106.575 23.8941 111.161 23.9123C114.882 23.9272 116.769 23.3621 117.887 21.897C118.323 21.3257 118.393 21.0371 118.393 19.8154C118.391 16.9797 117.639 16.4571 112.211 15.5217C107.941 14.7859 106.64 14.4295 106.18 13.8688C105.48 13.0171 105.661 12.9774 110.239 12.9774H114.621L113.379 11.5959L112.136 10.2144L109.141 10.2388C107.494 10.2522 105.815 10.3338 105.41 10.4201ZM119.982 16.9625L120.033 23.7106L126.928 23.7665L133.824 23.8222V22.4382V21.0539H128.327H122.83V19.6724V18.2909H126.88H130.931V16.9094V15.5279H126.88H122.83V14.2526V12.9774H128.327H133.824V11.5959V10.2144H126.877H119.931L119.982 16.9625ZM135.591 14.6403L135.656 19.0664L136.237 20.3166C137.312 22.6328 139.382 23.7519 142.993 23.9693C147.274 24.2271 150.297 22.8537 151.395 20.1521C151.816 19.1177 151.854 18.7075 151.919 14.6246L151.988 10.2144H150.621H149.254V14.0469C149.254 18.2184 149.124 18.9204 148.14 20.0522C147.845 20.3916 147.177 20.788 146.575 20.9808C145.313 21.385 142.546 21.4222 141.152 21.0537C139.908 20.7249 138.777 19.6029 138.475 18.3972C138.358 17.9291 138.262 15.8985 138.261 13.8807L138.26 10.2144H136.893H135.526L135.591 14.6403ZM154.076 17.0156V23.8169H155.426H156.776V21.5017C156.776 18.0894 156.878 18.0875 163.362 21.3787L168.189 23.8286L170.816 23.7697L173.444 23.7106L168.4 21.1653C165.626 19.7655 163.402 18.5699 163.457 18.5085C163.513 18.4473 164.548 18.2881 165.759 18.1551C169.163 17.7804 170.427 16.8864 170.616 14.7183C170.739 13.3045 170.406 12.3051 169.517 11.4203C168.41 10.3179 167.63 10.2144 160.431 10.2144H154.076V17.0156ZM32.5904 12.841C33.98 13.2014 34.8605 13.7721 35.4081 14.6675C35.9836 15.6089 36.0249 18.0267 35.4845 19.1444C34.6873 20.7927 31.6389 21.646 27.9991 21.2394C24.428 20.8405 23.0922 19.361 23.4295 16.1789C23.6907 13.7151 25.5708 12.5936 29.4777 12.5708C30.5916 12.5642 31.9922 12.6858 32.5904 12.841ZM167.534 13.3083C168.114 13.7561 168.112 14.774 167.529 15.1912C167.237 15.4001 165.641 15.645 162.659 15.9383C160.219 16.1782 157.897 16.4241 157.499 16.4849L156.776 16.5957V14.7865V12.9774H161.941C166.303 12.9774 167.172 13.0288 167.534 13.3083Z" fill="white"/>
</svg>
