<svg width="74" height="74" viewBox="0 0 74 74" fill="none" xmlns="http://www.w3.org/2000/svg">
    <rect width="74" height="74" rx="37" fill="#1598FF"/>
    <path d="M28.3672 48.9996V48.9996C28.3672 45.9711 30.8227 43.5156 33.8512 43.5156H40.1482C43.1767 43.5156 45.6322 45.9711 45.6322 48.9996V48.9996" stroke="white" stroke-width="2.5" stroke-linecap="round" stroke-linejoin="round"/>
    <path d="M40.6623 31.017C42.685 33.0398 42.685 36.3192 40.6623 38.342C38.6396 40.3647 35.3601 40.3647 33.3374 38.342C31.3146 36.3192 31.3146 33.0398 33.3374 31.017C35.3601 28.9943 38.6396 28.9943 40.6623 31.017" stroke="white" stroke-width="2.5" stroke-linecap="round" stroke-linejoin="round"/>
    <path fill-rule="evenodd" clip-rule="evenodd" d="M40 49H47.5C49.1575 49 50.5 47.6575 50.5 46V28C50.5 26.3425 49.1575 25 47.5 25H26.5C24.8425 25 23.5 26.3425 23.5 28V46C23.5 47.6575 24.8425 49 26.5 49H34L37 52L40 49Z" stroke="white" stroke-width="2.5" stroke-linecap="round" stroke-linejoin="round"/>
</svg>
