<svg width="917" height="262" viewBox="0 0 917 262" fill="none" xmlns="http://www.w3.org/2000/svg">
    <path d="M177.181 131.485C174.332 126.014 176.449 119.272 181.917 116.42L229.586 91.5881C235.054 88.7369 241.792 90.8561 244.641 96.3272C247.491 101.798 245.373 108.541 239.905 111.392L192.236 136.224C186.769 139.076 180.03 136.957 177.181 131.466" fill="#FF1700"/>
    <path d="M177.181 131.485C174.332 126.014 176.449 119.272 181.917 116.42L229.586 91.5881C235.054 88.7369 241.792 90.8561 244.641 96.3272C247.491 101.798 245.373 108.541 239.905 111.392L192.236 136.224C186.769 139.076 180.03 136.957 177.181 131.466V131.485Z" stroke="#170486" stroke-width="0.54" stroke-miterlimit="10"/>
    <path d="M219.651 158.663C217.013 161.765 212.354 162.131 209.255 159.492L182.975 137.029C179.876 134.39 179.51 129.728 182.147 126.626C184.785 123.524 189.444 123.158 192.544 125.817L218.823 148.28C221.923 150.919 222.289 155.581 219.651 158.683" fill="#FF1700"/>
    <path d="M219.651 158.663C217.013 161.765 212.354 162.131 209.255 159.492L182.975 137.029C179.876 134.39 179.51 129.728 182.147 126.626C184.785 123.524 189.444 123.158 192.544 125.817L218.823 148.28C221.923 150.919 222.289 155.581 219.651 158.683V158.663Z" stroke="#170486" stroke-width="0.54" stroke-miterlimit="10"/>
    <path d="M219.054 164.02C214.934 166.312 209.755 164.81 207.483 160.706C205.211 156.583 206.694 151.401 210.794 149.128C214.895 146.855 220.093 148.338 222.365 152.442C224.637 156.564 223.154 161.746 219.054 164.02Z" fill="#FF1700"/>
    <path d="M219.054 164.02C214.933 166.312 209.755 164.81 207.483 160.706C205.211 156.583 206.694 151.401 210.794 149.128C214.895 146.855 220.093 148.338 222.365 152.442C224.637 156.564 223.154 161.746 219.054 164.02Z" stroke="#170486" stroke-width="0.54" stroke-miterlimit="10"/>
    <path d="M217.495 161.17C214.953 162.577 211.738 161.671 210.333 159.109C208.927 156.566 209.832 153.349 212.393 151.943C214.934 150.536 218.149 151.442 219.555 154.004C220.96 156.547 220.055 159.764 217.495 161.17Z" fill="#FF1700"/>
    <path d="M217.495 161.17C214.953 162.577 211.738 161.671 210.333 159.109C208.927 156.566 209.832 153.349 212.393 151.943C214.934 150.536 218.149 151.442 219.555 154.004C220.96 156.547 220.055 159.764 217.495 161.17Z" stroke="#170486" stroke-width="0.54" stroke-miterlimit="10"/>
    <path d="M132.246 64.8666C132.246 64.8666 152.288 63.2483 166.419 83.5341" stroke="#170486" stroke-width="0.54" stroke-miterlimit="10"/>
    <path d="M213.585 193.416C213.585 200.37 207.963 205.996 201.013 205.996C194.063 205.996 188.441 200.37 188.441 193.416C188.441 186.461 194.063 180.836 201.013 180.836C207.963 180.836 213.585 186.461 213.585 193.416Z" fill="#FF1700"/>
    <path d="M205.831 205.04C212.245 202.381 215.291 195.022 212.634 188.603C209.977 182.185 202.623 179.137 196.209 181.795C189.794 184.454 186.748 191.813 189.405 198.232C192.062 204.65 199.416 207.699 205.831 205.04Z" stroke="#170486" stroke-width="0.54" stroke-miterlimit="10"/>
    <path d="M214.318 138.031H155.348V142.867H214.318V138.031Z" fill="#FF1700"/>
    <path d="M214.318 138.031H155.348V142.867H214.318V138.031Z" stroke="#170486" stroke-width="0.54" stroke-miterlimit="10"/>
    <path d="M151.831 130.709L148.172 133.867L201.841 196.127L205.5 192.969L151.831 130.709Z" fill="#FF1700"/>
    <path d="M151.831 130.709L148.172 133.867L201.841 196.127L205.5 192.969L151.831 130.709Z" stroke="#170486" stroke-width="0.54" stroke-miterlimit="10"/>
    <path d="M156.116 127.477L150.484 154.266L154.347 155.079L159.978 128.29L156.116 127.477Z" fill="#FF1700"/>
    <path d="M156.116 127.477L150.484 154.266L154.347 155.079L159.978 128.29L156.116 127.477Z" stroke="#170486" stroke-width="0.54" stroke-miterlimit="10"/>
    <mask id="mask0_0_1" style="mask-type:luminance" maskUnits="userSpaceOnUse" x="110" y="48" width="67" height="54">
        <path d="M111.048 67.1601C107.967 79.2198 117.863 92.7244 134.497 101.528C136.23 100.7 138.078 99.9679 140.061 99.3514C139.888 95.2288 140.273 91.0676 141.332 86.9064C145.683 69.8957 159.756 57.759 176.833 54.0794C173.637 52.8079 170.268 51.7098 166.745 50.8044C159.949 49.0706 153.287 48.2422 147.03 48.2422C128.683 48.2422 114.051 55.3316 111.028 67.1601" fill="white"/>
    </mask>
    <g mask="url(#mask0_0_1)">
        <path d="M165.982 23.1007L88.5625 56.6406L118.845 126.632L196.265 93.0916L165.982 23.1007Z" fill="url(#paint0_linear_0_1)"/>
    </g>
    <path d="M140.08 99.3487C139.907 95.2453 140.292 91.0649 141.351 86.9037C145.683 69.893 159.775 57.7562 176.852 54.0767C173.656 52.8052 170.287 51.7071 166.764 50.8017C140.042 43.982 115.11 51.3025 111.048 67.1574C107.967 79.2171 117.863 92.7217 134.497 101.506C136.23 100.678 138.078 99.9459 140.061 99.3295L140.08 99.3487Z" stroke="#170486" stroke-width="0.54" stroke-miterlimit="10"/>
    <path d="M136.999 147.992C115.956 147.992 98.8984 165.061 98.8984 186.117C98.8984 207.173 115.956 224.242 136.999 224.242C158.042 224.242 175.099 207.173 175.099 186.117C175.099 165.061 158.042 147.992 136.999 147.992ZM136.999 218.79C118.959 218.79 104.347 204.168 104.347 186.117C104.347 168.066 118.959 153.444 136.999 153.444C155.038 153.444 169.651 168.085 169.651 186.117C169.651 204.149 155.038 218.79 136.999 218.79Z" fill="#FF1700"/>
    <path d="M136.999 147.992C115.956 147.992 98.8984 165.061 98.8984 186.117C98.8984 207.173 115.956 224.242 136.999 224.242C158.042 224.242 175.099 207.173 175.099 186.117C175.099 165.061 158.042 147.992 136.999 147.992ZM136.999 218.79C118.959 218.79 104.347 204.168 104.347 186.117C104.347 168.066 118.959 153.444 136.999 153.444C155.038 153.444 169.651 168.085 169.651 186.117C169.651 204.149 155.038 218.79 136.999 218.79Z" stroke="#170486" stroke-width="0.54" stroke-miterlimit="10"/>
    <path d="M140.561 91.4524C131.59 85.8849 128.259 74.9811 133.149 67.1018C138.039 59.2225 149.264 57.3346 158.254 62.9021" stroke="#170486" stroke-width="0.54" stroke-miterlimit="10"/>
    <path d="M166.208 123.73L148.793 129.57L149.405 131.397L166.819 125.556L166.208 123.73Z" fill="#FF1700"/>
    <path d="M166.208 123.73L148.793 129.57L149.405 131.397L166.819 125.556L166.208 123.73Z" stroke="#170486" stroke-width="0.54" stroke-miterlimit="10"/>
    <path d="M135.229 82.9133C135.229 86.0534 132.688 88.6156 129.531 88.6156C126.373 88.6156 123.832 86.0727 123.832 82.9133C123.832 79.7539 126.373 77.2109 129.531 77.2109C132.688 77.2109 135.229 79.7539 135.229 82.9133Z" fill="#FF1700"/>
    <path d="M131.709 88.1903C134.616 86.9851 135.997 83.6494 134.793 80.7398C133.588 77.8302 130.255 76.4485 127.347 77.6537C124.439 78.8589 123.058 82.1946 124.263 85.1042C125.467 88.0138 128.801 89.3955 131.709 88.1903Z" stroke="#170486" stroke-width="0.54" stroke-miterlimit="10"/>
    <path d="M132.591 82.9188C132.591 84.6141 131.224 85.9819 129.53 85.9819C127.836 85.9819 126.488 84.6141 126.488 82.9188C126.488 81.2235 127.855 79.875 129.53 79.875C131.205 79.875 132.591 81.2428 132.591 82.9188Z" fill="#170486"/>
    <path d="M252.128 147.992C231.085 147.992 214.027 165.061 214.027 186.117C214.027 207.173 231.085 224.242 252.128 224.242C273.171 224.242 290.228 207.173 290.228 186.117C290.228 165.061 273.171 147.992 252.128 147.992ZM252.128 218.79C234.088 218.79 219.476 204.168 219.476 186.117C219.476 168.066 234.088 153.444 252.128 153.444C270.167 153.444 284.78 168.085 284.78 186.117C284.78 204.149 270.167 218.79 252.128 218.79Z" fill="#FF1700"/>
    <path d="M252.128 147.992C231.085 147.992 214.027 165.061 214.027 186.117C214.027 207.173 231.085 224.242 252.128 224.242C273.171 224.242 290.228 207.173 290.228 186.117C290.228 165.061 273.171 147.992 252.128 147.992ZM252.128 218.79C234.088 218.79 219.476 204.168 219.476 186.117C219.476 168.066 234.088 153.444 252.128 153.444C270.167 153.444 284.78 168.085 284.78 186.117C284.78 204.149 270.167 218.79 252.128 218.79Z" stroke="#170486" stroke-width="0.54" stroke-miterlimit="10"/>
    <mask id="mask1_0_1" style="mask-type:luminance" maskUnits="userSpaceOnUse" x="141" y="61" width="122" height="78">
        <path d="M173.367 61.7656C156.945 71.3209 145.124 87.2914 142.39 106.614C142.005 109.369 141.812 112.104 141.812 114.821C148.686 112.47 156.021 110.602 163.741 109.349C205.114 102.626 242.329 115.707 251.782 138.998C258.058 132.352 261.793 124.646 262.197 116.304C263.564 88.5243 227.562 64.1737 181.8 61.939C179.528 61.8234 177.256 61.7656 175.023 61.7656C174.464 61.7656 173.925 61.7656 173.386 61.7656" fill="white"/>
    </mask>
    <g mask="url(#mask1_0_1)">
        <path d="M259.516 40.0189L128.012 64.3125L145.803 160.74L277.307 136.447L259.516 40.0189Z" fill="url(#paint1_linear_0_1)"/>
    </g>
    <path d="M181.78 61.9158C178.931 61.781 176.12 61.7232 173.348 61.7617C156.925 71.317 145.104 87.2682 142.371 106.61C141.985 109.365 141.793 112.1 141.793 114.817C148.666 112.466 156.001 110.598 163.721 109.346C205.075 102.622 242.309 115.703 251.762 138.994C258.039 132.348 261.774 124.642 262.178 116.3C263.545 88.5204 227.543 64.1698 181.78 61.9351V61.9158Z" stroke="#170486" stroke-width="0.54" stroke-miterlimit="10"/>
    <path d="M160.16 110.115C160.16 110.115 165.955 80.4666 184.129 76.9219C184.129 76.9219 262.332 84.7626 257.866 131.094" stroke="#170486" stroke-width="0.54" stroke-miterlimit="10"/>
    <path d="M161.527 121.87C161.527 121.87 166.899 94.3021 183.687 91.0078C183.687 91.0078 254.728 97.6349 251.59 139.015" stroke="#170486" stroke-width="0.54" stroke-miterlimit="10"/>
    <path d="M181.78 61.9158C178.931 61.781 176.12 61.7232 173.348 61.7617C156.925 71.317 145.104 87.2682 142.371 106.61C141.985 109.365 141.793 112.1 141.793 114.817C148.666 112.466 156.001 110.598 163.721 109.346C205.075 102.622 242.309 115.703 251.762 138.994C258.039 132.348 261.774 124.642 262.178 116.3C263.545 88.5204 227.543 64.1698 181.78 61.9351V61.9158Z" stroke="#170486" stroke-width="0.54" stroke-miterlimit="10"/>
    <path d="M172.095 90.5058L164.76 80.2956C164.76 80.2956 162.643 77.9453 160.814 80.9891L158.6 126.435C158.6 126.435 158.33 132.041 164.144 133.158C164.144 133.158 168.88 133.774 169.169 127.513L172.095 90.4866V90.5058Z" fill="#FF1700"/>
    <path d="M172.095 90.5058L164.76 80.2956C164.76 80.2956 162.643 77.9453 160.814 80.9891L158.6 126.435C158.6 126.435 158.33 132.041 164.144 133.158C164.144 133.158 168.88 133.774 169.169 127.513L172.095 90.4866V90.5058Z" stroke="#170486" stroke-width="0.54" stroke-miterlimit="10"/>
    <path d="M166.936 125.914C166.936 127.647 165.531 129.054 163.798 129.054C162.066 129.054 160.66 127.647 160.66 125.914C160.66 124.18 162.066 122.773 163.798 122.773C165.531 122.773 166.936 124.18 166.936 125.914Z" fill="#FF1700"/>
    <path d="M166.936 125.914C166.936 127.647 165.531 129.054 163.798 129.054C162.066 129.054 160.66 127.647 160.66 125.914C160.66 124.18 162.066 122.773 163.798 122.773C165.531 122.773 166.936 124.18 166.936 125.914Z" stroke="#170486" stroke-width="0.54" stroke-miterlimit="10"/>
    <path d="M152.535 133.796L129.606 135.606C127.334 135.78 125.332 134.085 125.139 131.792L125.024 130.347C124.851 128.074 126.545 126.07 128.836 125.878L151.765 124.067C154.037 123.894 156.039 125.589 156.232 127.881L156.347 129.326C156.521 131.599 154.827 133.603 152.535 133.776" fill="#FF1700"/>
    <path d="M152.535 133.796L129.606 135.606C127.334 135.78 125.332 134.085 125.139 131.792L125.024 130.347C124.851 128.074 126.545 126.07 128.836 125.878L151.765 124.067C154.037 123.894 156.039 125.589 156.232 127.881L156.347 129.326C156.521 131.599 154.827 133.603 152.535 133.776V133.796Z" stroke="#170486" stroke-width="0.54" stroke-miterlimit="10"/>
    <path d="M119.844 129.962C119.459 134.239 122.598 138.015 126.872 138.4C131.146 138.785 134.919 135.645 135.304 131.368C135.689 127.092 132.551 123.316 128.277 122.93C124.003 122.545 120.23 125.685 119.844 129.962Z" fill="#FF1700"/>
    <path d="M119.844 129.962C119.459 134.239 122.598 138.015 126.872 138.4C131.146 138.785 134.919 135.645 135.304 131.368C135.689 127.092 132.551 123.316 128.277 122.93C124.003 122.545 120.23 125.685 119.844 129.962Z" stroke="#170486" stroke-width="0.49" stroke-miterlimit="10"/>
    <path d="M122.792 130.227C122.561 132.866 124.486 135.217 127.143 135.448C129.781 135.698 132.11 133.753 132.361 131.094C132.592 128.455 130.647 126.124 128.01 125.873C125.372 125.623 123.043 127.569 122.792 130.227Z" fill="#FF1700"/>
    <path d="M122.792 130.227C122.561 132.866 124.486 135.217 127.143 135.448C129.781 135.698 132.11 133.753 132.361 131.094C132.592 128.455 130.647 126.124 128.01 125.873C125.372 125.623 123.043 127.569 122.792 130.227Z" stroke="#170486" stroke-width="0.49" stroke-miterlimit="10"/>
    <path d="M153.998 129.052C153.998 130.728 152.631 132.095 150.956 132.095C149.281 132.095 147.914 130.728 147.914 129.052C147.914 127.376 149.281 126.008 150.956 126.008C152.631 126.008 153.998 127.376 153.998 129.052Z" fill="#FF1700"/>
    <path d="M153.998 129.052C153.998 130.728 152.631 132.095 150.956 132.095C149.281 132.095 147.914 130.728 147.914 129.052C147.914 127.376 149.281 126.008 150.956 126.008C152.631 126.008 153.998 127.376 153.998 129.052Z" stroke="#170486" stroke-width="0.52" stroke-miterlimit="10"/>
    <mask id="mask2_0_1" style="mask-type:luminance" maskUnits="userSpaceOnUse" x="126" y="90" width="12" height="11">
        <path d="M126.93 96.86L133.302 100.867L137.384 93.4887L131.473 90.6953L126.93 96.86Z" fill="white"/>
    </mask>
    <g mask="url(#mask2_0_1)">
        <path d="M133.744 93.7734C133.744 93.7734 133.474 98.9556 128.18 100.304" stroke="#170486" stroke-width="0.49" stroke-linecap="round" stroke-linejoin="round"/>
    </g>
    <path d="M199.317 200.566L197.161 200.258C193.734 199.757 191.347 196.579 191.848 193.149L197.103 156.758C197.604 153.329 200.781 150.94 204.208 151.441L206.364 151.75C209.791 152.25 212.178 155.429 211.677 158.858L206.422 195.249C205.921 198.678 202.744 201.067 199.317 200.566Z" fill="#FF1700"/>
    <path d="M199.317 200.566L197.161 200.258C193.734 199.757 191.347 196.579 191.848 193.149L197.103 156.758C197.604 153.329 200.781 150.94 204.208 151.441L206.364 151.75C209.791 152.25 212.178 155.429 211.677 158.858L206.422 195.249C205.921 198.678 202.744 201.067 199.317 200.566Z" stroke="#170486" stroke-width="0.54" stroke-miterlimit="10"/>
    <path d="M198.05 162.713C192.968 159.226 191.659 152.271 195.143 147.185L225.485 102.8C228.97 97.7137 235.92 96.4037 241.002 99.8906C246.085 103.378 247.394 110.332 243.909 115.418L213.568 159.804C210.083 164.89 203.133 166.2 198.05 162.713Z" fill="#FF1700"/>
    <path d="M198.05 162.713C192.968 159.226 191.659 152.271 195.143 147.185L225.485 102.8C228.97 97.7137 235.92 96.4037 241.002 99.8906C246.085 103.378 247.394 110.332 243.909 115.418L213.568 159.804C210.083 164.89 203.133 166.2 198.05 162.713Z" stroke="#170486" stroke-width="0.54" stroke-miterlimit="10"/>
    <path d="M203.46 201.082C199.34 203.375 194.161 201.872 191.889 197.769C189.617 193.646 191.1 188.464 195.201 186.191C199.301 183.917 204.499 185.401 206.771 189.504C209.043 193.627 207.561 198.809 203.46 201.082Z" fill="#FF1700"/>
    <path d="M203.46 201.082C199.34 203.375 194.161 201.872 191.889 197.769C189.617 193.646 191.1 188.464 195.201 186.191C199.301 183.917 204.499 185.401 206.771 189.504C209.043 193.627 207.561 198.809 203.46 201.082Z" stroke="#170486" stroke-width="0.54" stroke-miterlimit="10"/>
    <path d="M201.881 198.249C199.34 199.655 196.125 198.749 194.72 196.187C193.314 193.644 194.219 190.427 196.78 189.021C199.321 187.614 202.536 188.52 203.941 191.082C205.347 193.625 204.442 196.842 201.881 198.249Z" fill="#FF1700"/>
    <path d="M201.881 198.249C199.34 199.655 196.125 198.749 194.72 196.187C193.314 193.644 194.219 190.427 196.78 189.021C199.321 187.614 202.536 188.52 203.941 191.082C205.347 193.625 204.442 196.842 201.881 198.249Z" stroke="#170486" stroke-width="0.54" stroke-miterlimit="10"/>
    <rect x="254" y="221" width="663" height="3" fill="#FF1700"/>
    <defs>
        <linearGradient id="paint0_linear_0_1" x1="130.222" y1="48.0855" x2="145.46" y2="83.2595" gradientUnits="userSpaceOnUse">
            <stop stop-color="#170486"/>
            <stop offset="0.01" stop-color="#170486"/>
            <stop offset="1" stop-color="#1598FF"/>
        </linearGradient>
        <linearGradient id="paint1_linear_0_1" x1="201.039" y1="76.9968" x2="209.575" y2="123.201" gradientUnits="userSpaceOnUse">
            <stop stop-color="#1598FF"/>
            <stop offset="0.99" stop-color="#170486"/>
            <stop offset="1" stop-color="#170486"/>
        </linearGradient>
    </defs>
</svg>
