<svg width="40" height="40" viewBox="0 0 40 40" fill="none" xmlns="http://www.w3.org/2000/svg">
    <rect width="40" height="40" rx="8" fill="#A29BCF"/>
    <path fill-rule="evenodd" clip-rule="evenodd"
          d="M19.5 17C17.567 17 16 18.567 16 20.5C16 22.433 17.567 24 19.5 24C21.433 24 23 22.433 23 20.5C23 18.567 21.433 17 19.5 17ZM21 20.5C21 19.6716 20.3284 19 19.5 19C18.6716 19 18 19.6716 18 20.5C18 21.3285 18.6716 22 19.5 22C20.3284 22 21 21.3285 21 20.5Z"
          fill="white"/>
    <path fill-rule="evenodd" clip-rule="evenodd"
          d="M11.5 20.5C11.5 19.9478 11.0523 19.5 10.5 19.5C9.94772 19.5 9.5 19.9478 9.5 20.5V28.5L9.50673 28.6167C9.56449 29.114 9.98716 29.5 10.5 29.5C11.0523 29.5 11.5 29.0523 11.5 28.5L11.5 26.5359C12.7568 28.2996 14.5697 29.5882 16.999 30.218C20.6297 31.1593 23.6226 30.3009 25.9213 28.3015C26.9041 27.4467 27.5462 26.587 27.8779 25.9789C28.1424 25.494 27.9637 24.8866 27.4789 24.6221C26.994 24.3577 26.3866 24.5363 26.1221 25.0212L26.0513 25.1401L25.9348 25.3159L25.7726 25.5413C25.4549 25.9666 25.0668 26.394 24.6088 26.7924C22.783 28.3804 20.4555 29.048 17.501 28.282C15.1952 27.6842 13.6291 26.3924 12.6353 24.5889C12.1405 23.6908 11.8195 22.72 11.641 21.748C11.5785 21.408 11.5386 21.0938 11.5166 20.8144L11.5053 20.6477L11.5 20.5ZM25 20.5C25 17.4625 22.5376 15 19.5 15C16.4624 15 14 17.4625 14 20.5C14 23.5376 16.4624 26 19.5 26C22.5376 26 25 23.5376 25 20.5ZM16 20.5C16 18.567 17.567 17 19.5 17C21.433 17 23 18.567 23 20.5C23 22.433 21.433 24 19.5 24C17.567 24 16 22.433 16 20.5ZM27.5011 14.5867C26.3515 13.017 24.7265 11.799 22.5771 11.055C18.9872 9.81237 15.8357 10.6245 13.2639 12.7126C12.2448 13.5401 11.5427 14.3707 11.1624 14.9538C10.8607 15.4164 10.9911 16.036 11.4537 16.3376C11.9163 16.6393 12.5359 16.5089 12.8376 16.0463L12.9235 15.9234L13.0601 15.7447L13.2464 15.5171C13.6065 15.0912 14.034 14.6636 14.5246 14.2653C16.5975 12.5822 19.0493 11.9503 21.9229 12.945C24.005 13.6657 25.4389 14.8919 26.3596 16.4952C26.8652 17.3756 27.1888 18.3249 27.3633 19.283C27.4739 19.8898 27.5072 20.3854 27.5007 20.7116L27.503 20.8284C27.5416 21.3276 27.9491 21.7296 28.4616 21.7493C29.0134 21.7705 29.478 21.3403 29.4993 20.7885L29.5013 20.5697L29.5005 20.5114L29.5 20.5V12.5L29.4933 12.3834C29.4355 11.8861 29.0128 11.5 28.5 11.5C27.9477 11.5 27.5 11.9478 27.5 12.5L27.5011 14.5867Z"
          fill="white"/>
</svg>
