<svg width="40" height="40" viewBox="0 0 40 40" fill="none" xmlns="http://www.w3.org/2000/svg">
    <rect width="40" height="40" rx="8" fill="#FF7466"/>
    <g clip-path="url(#clip0_6_1971)">
        <path d="M27.6667 15.4714V13.4448C27.6667 12.467 26.8667 11.667 25.889 11.667H13.4445C12.4579 11.667 11.6667 12.467 11.6667 13.4448V25.8892C11.6667 26.867 12.4579 27.667 13.4445 27.667H25.889C26.8667 27.667 27.6667 26.867 27.6667 25.8892V23.8625C28.1912 23.5514 28.5556 22.9914 28.5556 22.3337V17.0003C28.5556 16.3425 28.1912 15.7825 27.6667 15.4714ZM26.7779 17.0003V22.3337H20.5556V17.0003H26.7779ZM13.4445 25.8892V13.4448H25.889V15.2225H20.5556C19.5779 15.2225 18.7779 16.0225 18.7779 17.0003V22.3337C18.7779 23.3114 19.5779 24.1114 20.5556 24.1114H25.889V25.8892H13.4445Z"
              fill="white"/>
        <path d="M23.2222 20.9997C23.9586 20.9997 24.5556 20.4027 24.5556 19.6663C24.5556 18.93 23.9586 18.333 23.2222 18.333C22.4859 18.333 21.8889 18.93 21.8889 19.6663C21.8889 20.4027 22.4859 20.9997 23.2222 20.9997Z"
              fill="white"/>
    </g>
    <defs>
        <clipPath id="clip0_6_1971">
            <rect width="21.3333" height="21.3333" fill="white" transform="translate(9 9)"/>
        </clipPath>
    </defs>
</svg>
