<svg width="40" height="40" viewBox="0 0 40 40" fill="none" xmlns="http://www.w3.org/2000/svg">
    <rect width="40" height="40" rx="8" fill="#A29BCF"/>
    <path d="M25.0636 14.6667C24.3639 12.538 22.3629 11 19.9999 11C17.6369 11 15.6359 12.538 14.9363 14.6667H25.0636Z"
          fill="white"/>
    <path d="M14.713 15.667C14.6856 15.8857 14.6666 16.1073 14.6666 16.3337V19.667C14.6666 22.6127 17.0546 25.0003 20 25.0003C22.9453 25.0003 25.3333 22.6127 25.3333 19.667V16.3337C25.3333 16.1073 25.3143 15.8857 25.287 15.667H14.713Z"
          fill="white"/>
    <path d="M27.6667 19.6663C27.6667 19.464 27.6667 19.333 27.6667 19.333H26.3334V19.6663C26.3334 23.164 23.4977 25.9997 20 25.9997C16.5024 25.9997 13.6667 23.164 13.6667 19.6663C13.6667 19.4997 13.6667 19.333 13.6667 19.333H12.3334V19.6663C12.3334 23.6757 15.4114 26.9643 19.3334 27.3023V27.9997H17.3334V29.333H22.6667V27.9997H20.6667V27.3023C24.5887 26.9643 27.6667 23.6757 27.6667 19.6663Z"
          fill="white"/>
</svg>
