<svg width="40" height="40" viewBox="0 0 40 40" fill="none" xmlns="http://www.w3.org/2000/svg">
    <rect width="40" height="40" rx="8" fill="#FF7466"/>
    <path fill-rule="evenodd" clip-rule="evenodd"
          d="M15.5 13.5C15.5 11.0147 17.5147 9 20 9C22.4853 9 24.5 11.0147 24.5 13.5C24.5 15.9853 22.4853 18 20 18C17.5147 18 15.5 15.9853 15.5 13.5ZM20 11C18.6193 11 17.5 12.1193 17.5 13.5C17.5 14.8807 18.6193 16 20 16C21.3807 16 22.5 14.8807 22.5 13.5C22.5 12.1193 21.3807 11 20 11Z"
          fill="white"/>
    <path d="M19 21.5C14.4678 21.5 11 24.7415 11 28.5C11 29.0523 10.5523 29.5 10 29.5C9.44772 29.5 9 29.0523 9 28.5C9 23.4219 13.5911 19.5 19 19.5C19.5523 19.5 20 19.9477 20 20.5C20 21.0523 19.5523 21.5 19 21.5Z"
          fill="white"/>
    <path fill-rule="evenodd" clip-rule="evenodd"
          d="M25.2085 20.0434C25.3985 19.9855 25.6015 19.9855 25.7915 20.0434L25.8037 20.0472L25.8353 20.0569C25.8625 20.0653 25.9018 20.0776 25.9514 20.0933C26.0506 20.1246 26.1916 20.1697 26.3604 20.2254C26.6968 20.3365 27.1496 20.4916 27.606 20.6655C28.0548 20.8365 28.5392 21.0376 28.9237 21.2426C29.1112 21.3427 29.3182 21.4661 29.492 21.6117C29.5788 21.6845 29.6887 21.7886 29.7835 21.9258C29.8756 22.0592 30 22.2919 30 22.6C30 25.0252 29.0012 26.842 28.0231 28.0342C27.5348 28.6296 27.0466 29.0761 26.6776 29.376C26.4925 29.5264 26.3359 29.6412 26.222 29.7205C26.165 29.7602 26.1185 29.7912 26.0844 29.8134C26.0673 29.8245 26.0533 29.8334 26.0426 29.8402L26.029 29.8486L26.0241 29.8517L26.0221 29.8529L26.0212 29.8534C25.7016 30.0482 25.2984 30.0482 24.9788 29.8534L24.9779 29.8529L24.9759 29.8517L24.971 29.8486L24.9574 29.8402C24.9467 29.8334 24.9327 29.8245 24.9156 29.8134C24.8815 29.7912 24.835 29.7602 24.778 29.7205C24.6641 29.6412 24.5075 29.5264 24.3224 29.376C23.9534 29.0761 23.4652 28.6296 22.9769 28.0342C21.9988 26.842 21 25.0252 21 22.6C21 22.2919 21.1244 22.0592 21.2165 21.9258C21.3113 21.7886 21.4212 21.6845 21.508 21.6117C21.6818 21.4661 21.8888 21.3427 22.0763 21.2426C22.4608 21.0376 22.9452 20.8365 23.394 20.6655C23.8504 20.4916 24.3032 20.3365 24.6396 20.2254C24.8084 20.1697 24.9494 20.1246 25.0486 20.0933C25.0982 20.0776 25.1375 20.0653 25.1647 20.0569L25.1963 20.0472L25.2085 20.0434ZM25.5 27.7547C25.2237 27.5229 24.8733 27.1926 24.5231 26.7658C23.8095 25.8958 23.1137 24.6482 23.0126 23.01L23.0175 23.0073C23.2892 22.8624 23.6798 22.6968 24.106 22.5345C24.5246 22.375 24.9468 22.2302 25.2666 22.1246C25.353 22.0961 25.4315 22.0705 25.5 22.0485C25.5685 22.0705 25.647 22.0961 25.7334 22.1246C26.0532 22.2302 26.4754 22.375 26.894 22.5345C27.3202 22.6968 27.7108 22.8624 27.9825 23.0073L27.9874 23.01C27.8863 24.6482 27.1905 25.8958 26.4769 26.7658C26.1267 27.1926 25.7763 27.5229 25.5 27.7547Z"
          fill="white"/>
    <path d="M17.5 13.5C17.5 12.1193 18.6193 11 20 11C21.3807 11 22.5 12.1193 22.5 13.5C22.5 14.8807 21.3807 16 20 16C18.6193 16 17.5 14.8807 17.5 13.5Z"
          fill="white"/>
    <path d="M24.5231 26.7658C24.8733 27.1926 25.2237 27.5229 25.5 27.7547C25.7763 27.5229 26.1267 27.1926 26.4769 26.7658C27.1905 25.8958 27.8863 24.6482 27.9874 23.01L27.9825 23.0073C27.7108 22.8624 27.3202 22.6968 26.894 22.5345C26.4754 22.375 26.0532 22.2302 25.7334 22.1246C25.647 22.0961 25.5685 22.0705 25.5 22.0485C25.4315 22.0705 25.353 22.0961 25.2666 22.1246C24.9468 22.2302 24.5246 22.375 24.106 22.5345C23.6798 22.6968 23.2892 22.8624 23.0175 23.0073L23.0126 23.01C23.1137 24.6482 23.8095 25.8958 24.5231 26.7658Z"
          fill="white"/>
</svg>
