<svg width="266" height="170" viewBox="0 0 266 170" fill="none" xmlns="http://www.w3.org/2000/svg">
    <path d="M176.07 61.8008C176.07 61.8008 160.197 61.7508 150.328 78.6508" stroke="#170486" stroke-width="0.66"
          stroke-miterlimit="10"/>
    <path d="M160.843 37.5051L149.789 43.9258L150.554 45.2572L161.608 38.8365L160.843 37.5051Z" fill="#FF1700"/>
    <path d="M160.843 37.5051L149.789 43.9258L150.554 45.2572L161.608 38.8365L160.843 37.5051Z" stroke="#170486"
          stroke-width="0.66" stroke-miterlimit="10"/>
    <path d="M165.156 90.1133C162.235 90.9383 160.06 92.2508 157.971 93.6383C155.56 95.2383 150.924 97.5258 150.091 98.0133C147.978 98.7383 145.479 99.2008 142.285 99.2008C133.559 99.2008 129.979 95.7508 125.48 92.9258C122.335 90.9508 118.755 89.2758 112.677 89.2758C112.453 89.2758 112.217 89.2758 111.993 89.2758C111.807 89.2758 111.633 89.2758 111.446 89.2883C111.384 89.2883 111.322 89.2883 111.26 89.2883C111.123 89.2883 110.986 89.3008 110.837 89.3133C110.626 89.3133 110.427 89.3383 110.216 89.3633C110.067 89.3633 109.93 89.3883 109.793 89.4008C109.656 89.4133 109.507 89.4258 109.371 89.4508C109.234 89.4633 109.097 89.4883 108.96 89.5008C108.824 89.5133 108.687 89.5383 108.563 89.5633C108.463 89.5758 108.351 89.5883 108.264 89.6133C108.103 89.6383 107.941 89.6633 107.792 89.7008C107.506 89.7508 107.233 89.8133 106.959 89.8758C106.512 89.9758 106.064 90.0883 105.654 90.2133C105.542 90.2508 105.43 90.2758 105.318 90.3133C105.206 90.3508 105.095 90.3883 104.995 90.4258C104.896 90.4633 104.784 90.5008 104.672 90.5383C104.15 90.7258 103.64 90.9258 103.156 91.1508C103.056 91.1883 102.957 91.2383 102.87 91.2883C102.77 91.3258 102.683 91.3758 102.584 91.4258C102.397 91.5133 102.211 91.6133 102.024 91.7008C101.937 91.7508 101.838 91.7883 101.751 91.8383C101.391 92.0258 101.042 92.2258 100.694 92.4383C100.52 92.5383 100.359 92.6383 100.185 92.7508C100.036 92.8383 99.8989 92.9258 99.7498 93.0258C99.4639 93.2008 99.178 93.3883 98.9045 93.5758C98.7678 93.6633 98.6186 93.7633 98.4819 93.8508C98.1214 94.0883 97.761 94.3383 97.3881 94.5758C97.2389 94.6758 97.0773 94.7883 96.9157 94.8883C95.9959 95.5008 95.0637 96.0883 94.0569 96.6258C93.945 96.6883 93.8456 96.7383 93.7337 96.8008C93.3981 96.9758 93.05 97.1508 92.6771 97.3133C92.5404 97.3758 92.4161 97.4383 92.2794 97.4883C92.2545 97.4883 92.2297 97.5008 92.2172 97.5133C91.9562 97.6258 91.6828 97.7383 91.4093 97.8383C91.2974 97.8758 91.198 97.9133 91.0861 97.9633C91.024 97.9883 90.9494 98.0133 90.8872 98.0258C90.7878 98.0633 90.6884 98.1008 90.5889 98.1258C90.5019 98.1508 90.4149 98.1758 90.3279 98.2008C90.2285 98.2258 90.1414 98.2633 90.042 98.2883C89.9799 98.3008 89.9177 98.3258 89.868 98.3383C89.8058 98.3633 89.7313 98.3758 89.6691 98.3883C89.5945 98.4008 89.5324 98.4258 89.4578 98.4508C89.3584 98.4758 89.2589 98.5008 89.1595 98.5258C89.06 98.5508 88.9606 98.5758 88.8487 98.6008C88.7369 98.6258 88.625 98.6508 88.5131 98.6758C88.3515 98.7133 88.1899 98.7383 88.0284 98.7758C87.5187 98.8758 86.9842 98.9508 86.4249 99.0258C86.3379 99.0258 86.2509 99.0508 86.1639 99.0508C86.052 99.0633 85.9277 99.0758 85.8034 99.0883C85.7164 99.0883 85.617 99.1008 85.5299 99.1133C85.1571 99.1383 84.7717 99.1633 84.374 99.1883C84.2124 99.1883 84.0508 99.2008 83.8768 99.2008C83.8271 99.2008 83.7898 99.2008 83.74 99.2008C83.5163 99.2008 83.2926 99.2008 83.0564 99.2008C82.8824 99.2008 82.7084 99.2008 82.5343 99.2008C82.3603 99.2008 82.1987 99.2008 82.0247 99.2008C81.8756 99.2008 81.714 99.2008 81.5648 99.1883C81.5648 99.1883 81.5399 99.1883 81.5275 99.1883C81.3659 99.1883 81.2043 99.1758 81.0428 99.1633C80.558 99.1258 80.0981 99.0883 79.6506 99.0383C79.5014 99.0133 79.3523 99.0008 79.2031 98.9758C79.5636 97.8383 79.9986 96.7258 80.5331 95.6258C81.9377 92.7008 83.9141 89.9633 86.3255 87.3883C89.4205 84.0883 93.2241 81.0758 97.4005 78.3508C97.8728 78.0383 98.3452 77.7383 98.8299 77.4383C115.337 67.1508 136.928 61.2008 144.597 59.3008C154.69 66.1883 162.148 76.4633 164.895 88.9133C164.982 89.3258 165.069 89.7258 165.143 90.1383"
          fill="#FF1700"/>
    <path d="M165.156 90.1133C162.235 90.9383 160.06 92.2508 157.971 93.6383C155.56 95.2383 150.924 97.5258 150.091 98.0133C147.978 98.7383 145.479 99.2008 142.285 99.2008C133.559 99.2008 129.979 95.7508 125.48 92.9258C122.335 90.9508 118.755 89.2758 112.677 89.2758C112.453 89.2758 112.217 89.2758 111.993 89.2758C111.807 89.2758 111.633 89.2758 111.446 89.2883C111.384 89.2883 111.322 89.2883 111.26 89.2883C111.123 89.2883 110.986 89.3008 110.837 89.3133C110.626 89.3133 110.427 89.3383 110.216 89.3633C110.067 89.3633 109.93 89.3883 109.793 89.4008C109.656 89.4133 109.507 89.4258 109.371 89.4508C109.234 89.4633 109.097 89.4883 108.96 89.5008C108.824 89.5133 108.687 89.5383 108.563 89.5633C108.463 89.5758 108.351 89.5883 108.264 89.6133C108.103 89.6383 107.941 89.6633 107.792 89.7008C107.506 89.7508 107.233 89.8133 106.959 89.8758C106.512 89.9758 106.064 90.0883 105.654 90.2133C105.542 90.2508 105.43 90.2758 105.318 90.3133C105.206 90.3508 105.095 90.3883 104.995 90.4258C104.896 90.4633 104.784 90.5008 104.672 90.5383C104.15 90.7258 103.64 90.9258 103.156 91.1508C103.056 91.1883 102.957 91.2383 102.87 91.2883C102.77 91.3258 102.683 91.3758 102.584 91.4258C102.397 91.5133 102.211 91.6133 102.024 91.7008C101.937 91.7508 101.838 91.7883 101.751 91.8383C101.391 92.0258 101.042 92.2258 100.694 92.4383C100.52 92.5383 100.359 92.6383 100.185 92.7508C100.036 92.8383 99.8989 92.9258 99.7498 93.0258C99.4639 93.2008 99.178 93.3883 98.9045 93.5758C98.7678 93.6633 98.6186 93.7633 98.4819 93.8508C98.1214 94.0883 97.761 94.3383 97.3881 94.5758C97.2389 94.6758 97.0773 94.7883 96.9157 94.8883C95.9959 95.5008 95.0637 96.0883 94.0569 96.6258C93.945 96.6883 93.8456 96.7383 93.7337 96.8008C93.3981 96.9758 93.05 97.1508 92.6771 97.3133C92.5404 97.3758 92.4161 97.4383 92.2794 97.4883C92.2545 97.4883 92.2297 97.5008 92.2172 97.5133C91.9562 97.6258 91.6828 97.7383 91.4093 97.8383C91.2974 97.8758 91.198 97.9133 91.0861 97.9633C91.024 97.9883 90.9494 98.0133 90.8872 98.0258C90.7878 98.0633 90.6884 98.1008 90.5889 98.1258C90.5019 98.1508 90.4149 98.1758 90.3279 98.2008C90.2285 98.2258 90.1414 98.2633 90.042 98.2883C89.9799 98.3008 89.9177 98.3258 89.868 98.3383C89.8058 98.3633 89.7313 98.3758 89.6691 98.3883C89.5945 98.4008 89.5324 98.4258 89.4578 98.4508C89.3584 98.4758 89.2589 98.5008 89.1595 98.5258C89.06 98.5508 88.9606 98.5758 88.8487 98.6008C88.7369 98.6258 88.625 98.6508 88.5131 98.6758C88.3515 98.7133 88.1899 98.7383 88.0284 98.7758C87.5187 98.8758 86.9842 98.9508 86.4249 99.0258C86.3379 99.0258 86.2509 99.0508 86.1639 99.0508C86.052 99.0633 85.9277 99.0758 85.8034 99.0883C85.7164 99.0883 85.617 99.1008 85.5299 99.1133C85.1571 99.1383 84.7717 99.1633 84.374 99.1883C84.2124 99.1883 84.0508 99.2008 83.8768 99.2008C83.8271 99.2008 83.7898 99.2008 83.74 99.2008C83.5163 99.2008 83.2926 99.2008 83.0564 99.2008C82.8824 99.2008 82.7084 99.2008 82.5343 99.2008C82.3603 99.2008 82.1987 99.2008 82.0247 99.2008C81.8756 99.2008 81.714 99.2008 81.5648 99.1883C81.5648 99.1883 81.5399 99.1883 81.5275 99.1883C81.3659 99.1883 81.2043 99.1758 81.0428 99.1633C80.558 99.1258 80.0981 99.0883 79.6506 99.0383C79.5014 99.0133 79.3523 99.0008 79.2031 98.9758C79.5636 97.8383 79.9986 96.7258 80.5331 95.6258C81.9377 92.7008 83.9141 89.9633 86.3255 87.3883C89.4205 84.0883 93.2241 81.0758 97.4005 78.3508C97.8728 78.0383 98.3452 77.7383 98.8299 77.4383C115.337 67.1508 136.928 61.2008 144.597 59.3008C154.69 66.1883 162.148 76.4633 164.895 88.9133C164.982 89.3258 165.069 89.7258 165.143 90.1383L165.156 90.1133Z"
          stroke="#170486" stroke-width="0.66" stroke-miterlimit="10"/>
    <path d="M160.728 42.4869L177.297 38.6619C179.36 38.1869 180.653 36.1119 180.18 34.0369C179.708 31.9619 177.645 30.6619 175.581 31.1369L159.012 34.9619C156.949 35.4369 155.656 37.5119 156.129 39.5869C156.601 41.6619 158.664 42.9619 160.728 42.4869Z"
          fill="#FF1700"/>
    <path d="M160.728 42.4869L177.297 38.6619C179.36 38.1869 180.653 36.1119 180.18 34.0369C179.708 31.9619 177.645 30.6619 175.581 31.1369L159.012 34.9619C156.949 35.4369 155.656 37.5119 156.129 39.5869C156.601 41.6619 158.664 42.9619 160.728 42.4869Z"
          stroke="#170486" stroke-width="0.66" stroke-miterlimit="10"/>
    <path d="M158.007 38.5131C158.106 37.1881 159.262 36.1881 160.58 36.2881C161.897 36.3881 162.892 37.5506 162.792 38.8756C162.693 40.2006 161.537 41.2006 160.219 41.1006C158.902 41.0006 157.907 39.8381 158.007 38.5131Z"
          fill="#FF1700"/>
    <path d="M158.007 38.5131C158.106 37.1881 159.262 36.1881 160.58 36.2881C161.897 36.3881 162.892 37.5506 162.792 38.8756C162.693 40.2006 161.537 41.2006 160.219 41.1006C158.902 41.0006 157.907 39.8381 158.007 38.5131Z"
          stroke="#170486" stroke-width="0.64" stroke-miterlimit="10"/>
    <path d="M188.739 65.9109C187.682 70.3734 184.885 74.9359 180.734 79.0984C179.851 79.9859 178.919 80.8484 177.912 81.6984C176.57 82.8484 175.115 83.9484 173.562 84.9984C173.45 85.0734 173.326 85.1609 173.214 85.2359C172.542 85.6859 171.697 85.8109 170.927 85.5484C170.417 85.3734 169.895 85.2109 169.373 85.0609C168.329 84.7609 167.558 83.8484 167.471 82.7609C167.396 81.8609 167.285 80.9609 167.123 80.0609C166.837 78.3109 166.402 76.5609 165.818 74.8359C163.829 68.9609 160.386 63.9609 155.961 60.0734C157.614 52.2234 164.538 46.3359 172.841 46.3359H172.89C175.55 46.3359 178.161 47.0859 180.485 48.3859C184.351 50.5484 187.16 53.5859 188.453 57.3859C189.373 60.1109 189.435 62.9984 188.739 65.9234"
          fill="#FF1700"/>
    <path d="M188.739 65.9109C187.682 70.3734 184.885 74.9359 180.734 79.0984C179.851 79.9859 178.919 80.8484 177.912 81.6984C176.57 82.8484 175.115 83.9484 173.562 84.9984C173.45 85.0734 173.326 85.1609 173.214 85.2359C172.542 85.6859 171.697 85.8109 170.927 85.5484C170.417 85.3734 169.895 85.2109 169.373 85.0609C168.329 84.7609 167.558 83.8484 167.471 82.7609C167.396 81.8609 167.285 80.9609 167.123 80.0609C166.837 78.3109 166.402 76.5609 165.818 74.8359C163.829 68.9609 160.386 63.9609 155.961 60.0734C157.614 52.2234 164.538 46.3359 172.841 46.3359H172.89C175.55 46.3359 178.161 47.0859 180.485 48.3859C184.351 50.5484 187.16 53.5859 188.453 57.3859C189.373 60.1109 189.435 62.9984 188.739 65.9234V65.9109Z"
          stroke="#170486" stroke-width="0.66" stroke-miterlimit="10"/>
    <path d="M177.92 81.6996C176.577 82.8496 175.11 83.9496 173.569 84.9996C173.308 84.6121 173.147 84.1621 173.109 83.6621C172.997 82.1496 174.116 80.8371 175.62 80.7121C176.54 80.6371 177.385 81.0371 177.932 81.6996"
          fill="#FF1700"/>
    <path d="M177.92 81.6996C176.577 82.8496 175.11 83.9496 173.569 84.9996C173.308 84.6121 173.147 84.1621 173.109 83.6621C172.997 82.1496 174.116 80.8371 175.62 80.7121C176.54 80.6371 177.385 81.0371 177.932 81.6996H177.92Z"
          stroke="#170486" stroke-width="0.66" stroke-miterlimit="10"/>
    <path d="M201.51 99.1867C186.706 99.1867 186.706 89.2617 171.902 89.2617C169.23 89.2617 167.042 89.5867 165.165 90.1117C162.244 90.9367 160.069 92.2492 157.981 93.6367C155.569 95.2367 153.27 96.9117 150.1 98.0117C147.987 98.7367 145.489 99.1992 142.294 99.1992C133.568 99.1992 129.989 95.7617 125.489 92.9242C122.357 90.9492 118.764 89.2742 112.686 89.2742C112.45 89.2742 112.226 89.2742 112.003 89.2742C111.816 89.2742 111.642 89.2742 111.456 89.2867C111.394 89.2867 111.331 89.2867 111.269 89.2867C111.133 89.2867 110.996 89.2992 110.847 89.3117C110.635 89.3117 110.424 89.3367 110.225 89.3492C110.076 89.3492 109.939 89.3742 109.803 89.3867C109.666 89.3992 109.517 89.4117 109.38 89.4367C109.243 89.4492 109.106 89.4742 108.97 89.4867C108.833 89.4992 108.696 89.5242 108.572 89.5492C108.473 89.5617 108.373 89.5742 108.274 89.5992C108.112 89.6242 107.95 89.6492 107.801 89.6867C107.515 89.7367 107.23 89.7992 106.956 89.8617C106.509 89.9617 106.074 90.0742 105.651 90.1992C105.539 90.2367 105.427 90.2617 105.315 90.2992C105.203 90.3367 105.092 90.3742 104.992 90.4117C104.88 90.4492 104.781 90.4867 104.669 90.5242C104.134 90.7117 103.637 90.9117 103.153 91.1367C103.053 91.1742 102.966 91.2242 102.867 91.2742C102.767 91.3242 102.68 91.3617 102.581 91.4117C102.394 91.4992 102.208 91.5992 102.021 91.6867C101.922 91.7367 101.835 91.7742 101.748 91.8242C101.387 92.0117 101.039 92.2117 100.691 92.4242C100.517 92.5242 100.343 92.6242 100.182 92.7367C100.033 92.8242 99.8959 92.9117 99.7467 93.0117C99.4608 93.1867 99.1749 93.3742 98.9015 93.5617C98.7647 93.6492 98.6156 93.7492 98.4789 93.8367C98.1184 94.0742 97.7579 94.3242 97.385 94.5617C97.2359 94.6617 97.0743 94.7617 96.9127 94.8742C95.9929 95.4867 95.0606 96.0742 94.0538 96.6117C93.9544 96.6742 93.8425 96.7242 93.7306 96.7867C93.395 96.9617 93.047 97.1367 92.6865 97.2992C92.5498 97.3617 92.4255 97.4117 92.2888 97.4742C92.2639 97.4742 92.2391 97.4867 92.2266 97.4992C91.9656 97.6117 91.6921 97.7242 91.4187 97.8242C91.3068 97.8617 91.2074 97.8992 91.0955 97.9492C91.0333 97.9742 90.9588 97.9992 90.8966 98.0242C90.7972 98.0617 90.6977 98.0867 90.5983 98.1242C90.5113 98.1492 90.4243 98.1742 90.3373 98.1992C90.2378 98.2367 90.1508 98.2617 90.0514 98.2867C89.9892 98.2992 89.9395 98.3242 89.8774 98.3367C89.8152 98.3492 89.7406 98.3742 89.6785 98.3867C89.6163 98.4117 89.5418 98.4242 89.4672 98.4492C89.3677 98.4742 89.2683 98.4992 89.1689 98.5242C89.0694 98.5492 88.97 98.5742 88.8581 98.5992C88.7462 98.6242 88.6344 98.6492 88.5225 98.6742C88.3609 98.7117 88.1993 98.7367 88.0377 98.7742C87.5281 98.8742 86.9936 98.9617 86.4343 99.0242C86.3473 99.0242 86.2603 99.0367 86.1733 99.0492C86.0614 99.0617 85.9371 99.0742 85.8128 99.0867C85.7258 99.0867 85.6263 99.0992 85.5393 99.1117C85.1664 99.1367 84.7811 99.1617 84.3833 99.1867C84.2218 99.1867 84.0602 99.1992 83.8862 99.1992C83.8364 99.1992 83.7991 99.1992 83.7494 99.1992C83.5257 99.1992 83.3019 99.1992 83.0658 99.1992C82.8918 99.1992 82.7177 99.1992 82.5437 99.1992C82.3697 99.1992 82.2081 99.1992 82.0341 99.1992C81.8725 99.1992 81.7233 99.1992 81.5742 99.1742C81.5742 99.1742 81.5493 99.1742 81.5369 99.1742C81.3753 99.1742 81.2137 99.1617 81.0521 99.1492C80.5674 99.1242 80.1075 99.0742 79.66 99.0242C79.5108 99.0117 79.3617 98.9867 79.2249 98.9617C78.678 98.8867 78.156 98.7992 77.6588 98.6867C75.1852 98.1617 73.2337 97.2992 71.4811 96.2992C66.3476 93.3742 62.9418 89.2867 53.4453 89.2867"
          stroke="#170486" stroke-width="0.66" stroke-miterlimit="10"/>
    <path d="M53.4453 104.762C64.6074 104.762 67.3544 110.399 74.3648 113.174C74.6632 113.299 74.9863 113.412 75.3095 113.524C77.4102 114.237 79.8962 114.687 83.0658 114.687C83.3641 114.687 83.65 114.687 83.9359 114.674C97.8822 114.299 98.1681 104.762 112.674 104.762C127.18 104.762 127.478 114.687 142.282 114.687C157.086 114.687 157.086 104.762 171.89 104.762C186.694 104.762 186.694 114.687 201.498 114.687"
          stroke="#170486" stroke-width="0.66" stroke-miterlimit="10"/>
    <path d="M53.4453 120.25C68.2493 120.25 68.2493 130.175 83.0534 130.175C97.8574 130.175 97.8574 120.25 112.661 120.25C127.465 120.25 127.465 130.175 142.269 130.175C157.073 130.175 157.073 120.25 171.877 120.25C186.681 120.25 186.681 130.175 201.486 130.175"
          stroke="#170486" stroke-width="0.66" stroke-miterlimit="10"/>
    <path d="M187.406 31.925C187.99 34.5125 190.563 36.125 193.136 35.5375L193.857 38.7C189.544 39.6875 185.255 36.9875 184.261 32.65C183.267 28.3125 185.964 24 190.277 23L190.998 26.1625C188.425 26.7625 186.822 29.3375 187.406 31.925Z"
          fill="#FF1700"/>
    <path d="M187.406 31.925C187.99 34.5125 190.563 36.125 193.136 35.5375L193.857 38.7C189.544 39.6875 185.255 36.9875 184.261 32.65C183.267 28.3125 185.964 24 190.277 23L190.998 26.1625C188.425 26.7625 186.822 29.3375 187.406 31.925Z"
          stroke="#170486" stroke-width="0.66" stroke-miterlimit="10"/>
    <path d="M183.875 31.9501C185.18 35.0876 183.701 38.6876 180.581 40.0001C177.461 41.3126 173.881 39.8251 172.576 36.6876C171.271 33.5501 172.75 29.9501 175.87 28.6376C178.99 27.3251 182.57 28.8126 183.875 31.9501Z"
          fill="#FF1700"/>
    <path d="M183.875 31.9501C185.18 35.0876 183.701 38.6876 180.581 40.0001C177.461 41.3126 173.881 39.8251 172.576 36.6876C171.271 33.5501 172.75 29.9501 175.87 28.6376C178.99 27.3251 182.57 28.8126 183.875 31.9501Z"
          stroke="#170486" stroke-width="0.6" stroke-miterlimit="10"/>
    <path d="M181.729 32.8498C182.537 34.7873 181.617 37.0248 179.69 37.8373C177.764 38.6498 175.539 37.7373 174.731 35.7873C173.923 33.8498 174.843 31.6123 176.769 30.8123C178.696 29.9998 180.921 30.9123 181.729 32.8623"
          fill="#FF1700"/>
    <path d="M181.729 32.8498C182.537 34.7873 181.617 37.0248 179.69 37.8373C177.764 38.6498 175.539 37.7373 174.731 35.7873C173.923 33.8498 174.843 31.6123 176.769 30.8123C178.696 29.9998 180.921 30.9123 181.729 32.8623V32.8498Z"
          stroke="#170486" stroke-width="0.6" stroke-miterlimit="10"/>
    <path d="M178.594 76.3737C177.401 76.3612 176.282 75.8737 175.449 75.0112L170.676 70.0862C168.961 68.3112 168.998 65.4612 170.763 63.7362C171.621 62.8987 172.752 62.4487 173.933 62.4612C175.114 62.4737 176.245 62.9612 177.078 63.8237L181.851 68.7487C183.566 70.5237 183.529 73.3737 181.764 75.0987C180.906 75.9362 179.787 76.3862 178.594 76.3737Z"
          fill="#FF1700"/>
    <path d="M178.594 76.3737C177.401 76.3612 176.282 75.8737 175.449 75.0112L170.676 70.0862C168.961 68.3112 168.998 65.4612 170.763 63.7362C171.621 62.8987 172.752 62.4487 173.933 62.4612C175.114 62.4737 176.245 62.9612 177.078 63.8237L181.851 68.7487C183.566 70.5237 183.529 73.3737 181.764 75.0987C180.906 75.9362 179.787 76.3862 178.594 76.3737Z"
          stroke="#170486" stroke-width="0.66" stroke-miterlimit="10"/>
    <path d="M180.359 73.6354C179.39 74.5854 177.848 74.5604 176.904 73.5854L172.131 68.6604C171.186 67.6854 171.211 66.1354 172.18 65.1854C173.15 64.2354 174.691 64.2604 175.636 65.2354L180.409 70.1604C181.354 71.1354 181.329 72.6854 180.359 73.6354Z"
          fill="#FF1700"/>
    <path d="M180.359 73.6354C179.39 74.5854 177.848 74.5604 176.904 73.5854L172.131 68.6604C171.186 67.6854 171.211 66.1354 172.18 65.1854C173.15 64.2354 174.691 64.2604 175.636 65.2354L180.409 70.1604C181.354 71.1354 181.329 72.6854 180.359 73.6354Z"
          stroke="#170486" stroke-width="0.66" stroke-miterlimit="10"/>
    <mask id="mask0_4285_35376" style="mask-type:luminance" maskUnits="userSpaceOnUse" x="169" y="46" width="21"
          height="21">
        <path d="M169.422 46.6609C169.422 46.6609 175.513 60.3734 188.676 66.1484C189.683 63.2234 189.471 59.9859 188.365 57.1359C187.271 54.3234 184.847 51.1734 181.541 48.9984C181.541 48.9984 181.541 48.9984 181.529 48.9984C179.403 47.5984 176.581 46.3359 172.828 46.3359C171.771 46.3359 170.628 46.4359 169.422 46.6609Z"
              fill="white"/>
    </mask>
    <g mask="url(#mask0_4285_35376)">
        <path d="M189.695 46.3359H169.422V66.1609H189.695V46.3359Z" fill="url(#paint0_linear_4285_35376)"/>
    </g>
    <path d="M188.676 66.1493C175.5 60.3743 169.422 46.6618 169.422 46.6618C174.928 45.6368 178.794 47.1993 181.529 48.9993C181.529 48.9993 181.529 48.9993 181.541 48.9993C184.835 51.1743 187.271 54.3243 188.365 57.1368C189.471 59.9743 189.695 63.2118 188.676 66.1368V66.1493Z"
          stroke="#170486" stroke-width="0.66" stroke-miterlimit="10"/>
    <mask id="mask1_4285_35376" style="mask-type:luminance" maskUnits="userSpaceOnUse" x="79" y="59" width="87"
          height="41">
        <path d="M79.2188 98.9359C80.3872 99.0984 81.655 99.1859 83.0596 99.1859C97.8636 99.1859 97.8636 89.2609 112.668 89.2609C118.758 89.2609 122.338 90.9359 125.47 92.9109C130.629 96.2359 136.981 100.623 150.082 97.9984C151.014 97.8109 155.551 95.2359 157.975 93.6234C160.063 92.2484 162.238 90.9234 165.159 90.1109C165.085 89.7109 164.998 89.2984 164.911 88.8859C162.164 76.4359 154.706 66.1609 144.6 59.2734C132.642 62.2359 86.6518 75.0859 79.2188 98.9359Z"
              fill="white"/>
    </mask>
    <g mask="url(#mask1_4285_35376)">
        <path d="M162.336 43.8395L71.8828 60.6328L82.058 116.059L172.511 99.2654L162.336 43.8395Z"
              fill="url(#paint1_linear_4285_35376)"/>
    </g>
    <path d="M165.159 90.1102C162.238 90.9352 160.063 92.2477 157.975 93.6352C155.551 95.2477 151.014 97.8227 150.082 98.0102C136.981 100.635 130.616 96.2352 125.47 92.9227C122.326 90.9477 118.746 89.2727 112.668 89.2727C97.8636 89.2727 97.8636 99.1977 83.0596 99.1977C81.655 99.1977 80.3872 99.1102 79.2188 98.9477C86.6643 75.0977 132.642 62.2602 144.6 59.2852C154.693 66.1727 162.151 76.4477 164.898 88.8977C164.985 89.3102 165.072 89.7102 165.147 90.1227L165.159 90.1102Z"
          stroke="#170486" stroke-width="0.66" stroke-miterlimit="10"/>
    <path d="M84.9062 99.1875C84.9062 99.1875 98.4673 75.2625 139.275 67.75C139.275 67.75 142.519 68.35 145.838 73.075C149.032 77.6125 150.051 81.0875 150.511 82.8625C153.308 83.65 161.226 82.225 162.73 81.775"
          stroke="#170486" stroke-width="0.66" stroke-miterlimit="10"/>
    <path d="M90.8594 97.9516C90.8594 97.9516 108.236 79.7891 134.923 78.8516C134.923 78.8516 139.46 80.9391 142.518 88.8891C156.328 90.5891 163.997 85.3766 163.997 85.3766"
          stroke="#170486" stroke-width="0.66" stroke-miterlimit="10"/>
    <path d="M137.352 70.6019L140.844 79.9269C140.844 79.9269 141.975 82.1644 144.002 80.2019L155.014 45.8769C155.014 45.8769 156.369 41.6394 152.168 39.5769C152.168 39.5769 148.7 38.1269 147.184 42.8519L137.364 70.5769L137.352 70.6019Z"
          fill="#FF1700"/>
    <path d="M137.352 70.6019L140.844 79.9269C140.844 79.9269 141.975 82.1644 144.002 80.2019L155.014 45.8769C155.014 45.8769 156.369 41.6394 152.168 39.5769C152.168 39.5769 148.7 38.1269 147.184 42.8519L137.364 70.5769L137.352 70.6019Z"
          stroke="#170486" stroke-width="0.66" stroke-miterlimit="10"/>
    <path d="M148.548 44.5487C148.909 43.2237 150.264 42.4362 151.581 42.7862C152.899 43.1487 153.682 44.5112 153.334 45.8487C152.973 47.1737 151.618 47.9612 150.288 47.6112C148.971 47.2487 148.188 45.8862 148.536 44.5487"
          fill="#FF1700"/>
    <path d="M148.548 44.5487C148.909 43.2237 150.264 42.4362 151.581 42.7862C152.899 43.1487 153.682 44.5112 153.334 45.8487C152.973 47.1737 151.618 47.9612 150.288 47.6112C148.971 47.2487 148.188 45.8862 148.536 44.5487H148.548Z"
          stroke="#170486" stroke-width="0.66" stroke-miterlimit="10"/>
    <defs>
        <linearGradient id="paint0_linear_4285_35376" x1="174.077" y1="57.3163" x2="193.977" y2="57.3163"
                        gradientUnits="userSpaceOnUse">
            <stop stop-color="#1598FF"/>
            <stop offset="0.99" stop-color="#170486"/>
            <stop offset="1" stop-color="#170486"/>
        </linearGradient>
        <linearGradient id="paint1_linear_4285_35376" x1="120.944" y1="76.1924" x2="124.66" y2="96.209"
                        gradientUnits="userSpaceOnUse">
            <stop stop-color="#1598FF"/>
            <stop offset="0.99" stop-color="#170486"/>
            <stop offset="1" stop-color="#170486"/>
        </linearGradient>
    </defs>
</svg>