<svg width="18" height="19" viewBox="0 0 18 19" fill="none" xmlns="http://www.w3.org/2000/svg">
<path d="M15.3136 1.90017H11.351C11.1569 1.34485 10.7953 0.863693 10.3164 0.523275C9.83744 0.182857 9.26477 0 8.67758 0C8.0904 0 7.51773 0.182857 7.03879 0.523275C6.55985 0.863693 6.19832 1.34485 6.0042 1.90017H2.04152C1.53913 1.90168 1.05774 2.10234 0.702496 2.45833C0.347248 2.81432 0.147008 3.29671 0.145508 3.80015V17.1C0.147008 17.6035 0.347248 18.0859 0.702496 18.4418C1.05774 18.7978 1.53913 18.9985 2.04152 19H15.3136C15.816 18.9985 16.2974 18.7978 16.6527 18.4418C17.0079 18.0859 17.2082 17.6035 17.2097 17.1V3.80015C17.2082 3.29671 17.0079 2.81432 16.6527 2.45833C16.2974 2.10234 15.816 1.90168 15.3136 1.90017ZM8.67758 1.90017C8.86508 1.90017 9.04837 1.95589 9.20427 2.06028C9.36017 2.16466 9.48168 2.31303 9.55343 2.48662C9.62518 2.66021 9.64396 2.85122 9.60738 3.0355C9.5708 3.21978 9.48051 3.38905 9.34793 3.52191C9.21535 3.65477 9.04643 3.74524 8.86253 3.7819C8.67864 3.81856 8.48802 3.79974 8.3148 3.72784C8.14157 3.65594 7.99351 3.53417 7.88934 3.37795C7.78517 3.22172 7.72958 3.03805 7.72958 2.85016C7.72958 2.59821 7.82945 2.35658 8.00724 2.17842C8.18503 2.00026 8.42616 1.90017 8.67758 1.90017ZM10.5736 15.2H3.93754V13.3001H10.5736V15.2ZM13.4176 11.4001H3.93754V9.5001H13.4176V11.4001ZM13.4176 7.60012H3.93754V5.70013H13.4176V7.60012Z" />
</svg>
