<svg width="192" height="25" viewBox="0 0 192 25" fill="none" xmlns="http://www.w3.org/2000/svg">
<path fill-rule="evenodd" clip-rule="evenodd" d="M28.1221 4.94274C25.4582 5.73922 23.8217 7.33606 23.2418 9.70484C22.8359 11.3626 23.0417 15.0547 23.6099 16.3059C24.0878 17.3584 25.1904 18.5943 26.1661 19.1714C28.2134 20.3821 33.1039 20.8701 36.2907 20.1814C40.7653 19.2147 42.5652 16.9766 42.5652 12.3802C42.5652 8.1731 41.0162 6.02852 37.1441 4.87522C35.3638 4.34496 29.9876 4.38504 28.1221 4.94274ZM0.181941 5.05108C0.125443 5.21965 0.104416 8.68999 0.135426 12.7632L0.191712 20.1693L1.6254 20.2412L3.05909 20.3128V14.8366C3.05909 11.8246 3.13088 9.36089 3.21839 9.36162C3.3059 9.36234 4.37426 11.1659 5.59237 13.3695L7.80683 17.3759L10.5837 17.3708L13.3604 17.3657L15.5906 13.3389L17.8208 9.31206L17.927 14.7407L18.0332 20.1693L19.4669 20.2412L20.9006 20.3128V12.5291V4.74502H18.9346H16.9688L14.4318 9.29943C13.0365 11.8045 11.5935 14.3749 11.2254 15.0118L10.5557 16.1699L7.39159 10.4595L4.22728 4.74915L2.25601 4.74721C0.864802 4.74575 0.254369 4.83514 0.181941 5.05108ZM43.8396 12.5179V20.2907H45.3264H46.8132V14.704C46.8132 11.6313 46.8694 9.11726 46.938 9.11726C47.0069 9.11726 49.6268 11.6313 52.7603 14.704L58.4577 20.2907H59.9632H61.4687V12.5179V4.74502H59.9819H58.4951V10.3318C58.4951 13.4045 58.4235 15.9139 58.3358 15.9083C58.2481 15.9027 55.6436 13.3918 52.5479 10.3284L46.9194 4.75862L45.3795 4.75182L43.8396 4.74502V12.5179ZM63.1678 12.5179V20.2968L70.7611 20.2332L78.3543 20.1693V18.7119V17.2545L72.2479 17.1901L66.1414 17.1255V15.5505V13.9753H70.6018H75.0621V12.3964V10.8176H70.6018H66.1414V9.36016V7.90275H72.3112H78.4807L78.4176 6.38461L78.3543 4.86647L70.7611 4.80259L63.1678 4.73895V12.5179ZM79.7349 6.32388V7.90275H83.3421H86.9492L87.006 14.036L87.0627 20.1693L88.4927 20.2409L89.9226 20.3128L89.9795 14.1684L90.0362 8.0242L93.7001 7.95764L97.364 7.89133V6.31805V4.74502H88.5494H79.7349V6.32388ZM98.8508 6.31635V7.88769L101.453 7.95594L104.055 8.0242V12.5179V17.0116L101.453 17.0798L98.8508 17.1481V18.7194V20.2907H105.541H112.232V18.7119V17.133H109.683H107.134V12.5179V7.90275H109.683H112.232V6.32388V4.74502H105.541H98.8508V6.31635ZM116.201 4.98015C115.251 5.19026 114.356 5.88982 113.987 6.71156C113.634 7.4971 113.65 9.23312 114.017 10.0403C114.896 11.9728 116.297 12.5934 122.06 13.6049C126.761 14.43 127.737 14.7803 127.737 15.6435C127.737 16.9088 125.834 17.4714 122.013 17.3354C119.542 17.2474 119.222 17.1809 118.07 16.5182C117.185 16.0096 116.719 15.5661 116.489 15.0132C116.168 14.2452 116.132 14.2291 114.728 14.2238C113.101 14.2175 112.997 14.3938 113.624 16.1085C114.693 19.0349 117.483 20.3789 122.533 20.3998C126.631 20.4168 128.709 19.7709 129.94 18.0966C130.421 17.4437 130.498 17.1138 130.497 15.7176C130.496 12.4768 129.667 11.8795 123.69 10.8105C118.987 9.9696 117.555 9.56225 117.048 8.92148C116.278 7.94817 116.477 7.90275 121.518 7.90275H126.344L124.976 6.32388L123.607 4.74502L120.309 4.77296C118.495 4.78826 116.646 4.88153 116.201 4.98015ZM132.247 12.4572L132.303 20.1693L139.897 20.2332L147.49 20.2968V18.715V17.133H141.437H135.383V15.5542V13.9753H139.844H144.304V12.3964V10.8176H139.844H135.383V9.36016V7.90275H141.437H147.49V6.32388V4.74502H139.841H132.191L132.247 12.4572ZM149.436 9.80321L149.508 14.8616L150.147 16.2904C151.332 18.9375 153.611 20.2164 157.588 20.4649C162.302 20.7595 165.631 19.1899 166.84 16.1024C167.303 14.9202 167.346 14.4514 167.416 9.78524L167.493 4.74502H165.987H164.482V9.12503C164.482 13.8925 164.338 14.6948 163.255 15.9882C162.93 16.3761 162.195 16.8291 161.532 17.0495C160.142 17.5115 157.096 17.554 155.561 17.1328C154.19 16.757 152.945 15.4747 152.612 14.0967C152.483 13.5619 152.377 11.2412 152.376 8.93508L152.375 4.74502H150.87H149.364L149.436 9.80321ZM169.792 12.5179V20.2907H171.279H172.765V17.6448C172.765 13.745 172.878 13.7428 180.018 17.5042L185.333 20.3041L188.227 20.2368L191.121 20.1693L185.566 17.2603C182.512 15.6605 180.062 14.2942 180.123 14.224C180.184 14.1541 181.324 13.9721 182.657 13.8201C186.406 13.3918 187.798 12.3702 188.006 9.89236C188.142 8.27657 187.775 7.13445 186.797 6.12325C185.577 4.86332 184.718 4.74502 176.791 4.74502H169.792V12.5179ZM36.0102 7.7468C37.5405 8.15877 38.5101 8.81096 39.1131 9.8343C39.7469 10.9101 39.7923 13.6734 39.1972 14.9508C38.3193 16.8345 34.9624 17.8097 30.9542 17.3451C27.0217 16.8891 25.5506 15.1983 25.9221 11.5616C26.2097 8.74586 28.2801 7.46407 32.5825 7.43808C33.8091 7.43055 35.3515 7.56949 36.0102 7.7468ZM184.612 8.28094C185.251 8.79274 185.248 9.956 184.607 10.4328C184.285 10.6716 182.528 10.9514 179.244 11.2866C176.557 11.5608 174 11.8419 173.562 11.9114L172.765 12.0379V9.97033V7.90275H178.453C183.257 7.90275 184.214 7.96153 184.612 8.28094Z" fill="white"/>
</svg>
