<svg width="32" height="32" viewBox="0 0 32 32" fill="none" xmlns="http://www.w3.org/2000/svg">
    <circle cx="16" cy="16" r="16" fill="#1598FF"/>
    <path d="M25 21.2H7C7.71608 21.2 8.40284 20.9155 8.90919 20.4092C9.41554 19.9028 9.7 19.2161 9.7 18.5V14C9.7 12.3291 10.3637 10.7267 11.5452 9.54523C12.7267 8.36375 14.3291 7.7 16 7.7C17.6709 7.7 19.2733 8.36375 20.4548 9.54523C21.6363 10.7267 22.3 12.3291 22.3 14V18.5C22.3 19.2161 22.5845 19.9028 23.0908 20.4092C23.5972 20.9155 24.2839 21.2 25 21.2ZM17.557 24.8C17.3988 25.0728 17.1717 25.2992 16.8984 25.4566C16.6251 25.614 16.3153 25.6968 16 25.6968C15.6847 25.6968 15.3749 25.614 15.1016 25.4566C14.8283 25.2992 14.6012 25.0728 14.443 24.8"
          fill="white"/>
    <path d="M16 7.7C14.3291 7.7 12.7267 8.36375 11.5452 9.54523C10.3637 10.7267 9.7 12.3291 9.7 14V18.5C9.7 19.2161 9.41554 19.9028 8.90919 20.4092C8.40284 20.9155 7.71608 21.2 7 21.2H25C24.2839 21.2 23.5972 20.9155 23.0908 20.4092C22.5845 19.9028 22.3 19.2161 22.3 18.5V14C22.3 12.3291 21.6363 10.7267 20.4548 9.54523C19.2733 8.36375 17.6709 7.7 16 7.7ZM16 7.7V5M17.557 24.8C17.3988 25.0728 17.1717 25.2992 16.8984 25.4566C16.6251 25.614 16.3153 25.6968 16 25.6968C15.6847 25.6968 15.3749 25.614 15.1016 25.4566C14.8283 25.2992 14.6012 25.0728 14.443 24.8"
          stroke="white" stroke-linecap="round" stroke-linejoin="round"/>
    <circle cx="22.5" cy="8.5" r="3.5" fill="#FF1700"/>
</svg>
