<svg xmlns="http://www.w3.org/2000/svg" width="19" height="18" viewBox="0 0 19 18" >
    <path fill-rule="evenodd" clip-rule="evenodd" d="M0.0908203 4C0.0908203 1.79086 1.88168 0 4.09082 0H14.0908C16.3 0 18.0908 1.79086 18.0908 4V14C18.0908 16.2091 16.3 18 14.0908 18H4.09082C1.88168 18 0.0908203 16.2091 0.0908203 14V4ZM12.0908 6C12.0908 7.66 10.7508 9 9.09082 9C7.43082 9 6.09082 7.66 6.09082 6C6.09082 4.34 7.43082 3 9.09082 3C10.7508 3 12.0908 4.34 12.0908 6ZM9.09082 10.9C7.09082 10.9 3.09082 12 3.09082 14C3.09082 14.5523 3.53854 15 4.09082 15H14.0908C14.6431 15 15.0908 14.5523 15.0908 14C15.0908 12 11.0908 10.9 9.09082 10.9Z" />
</svg>