<svg width="29" height="28" viewBox="0 0 29 28" fill="none" xmlns="http://www.w3.org/2000/svg">
    <path d="M9.48074 14.0002C9.4802 13.7276 9.5755 13.4634 9.75008 13.2535L15.6054 6.25349C15.8042 6.01524 16.0898 5.86541 16.3995 5.83697C16.7092 5.80852 17.0175 5.9038 17.2566 6.10183C17.4958 6.29985 17.6462 6.58442 17.6747 6.89291C17.7033 7.20141 17.6077 7.50857 17.4089 7.74683L12.1625 14.0002L17.2215 20.2535C17.3188 20.3728 17.3914 20.5101 17.4353 20.6575C17.4791 20.8049 17.4933 20.9595 17.4769 21.1124C17.4606 21.2652 17.4141 21.4134 17.3401 21.5483C17.2662 21.6832 17.1661 21.8022 17.0458 21.8985C16.9254 22.0053 16.7842 22.0863 16.6309 22.1362C16.4776 22.1861 16.3157 22.204 16.1552 22.1886C15.9947 22.1733 15.8391 22.1251 15.6981 22.0471C15.5572 21.969 15.4339 21.8629 15.3361 21.7352L9.67982 14.7352C9.53283 14.5192 9.46274 14.2604 9.48074 14.0002Z"
           fill-opacity="0.8"/>
</svg>
