<svg width="25" height="24" viewBox="0 0 25 24" xmlns="http://www.w3.org/2000/svg">
    <path fill-rule="evenodd" clip-rule="evenodd"
          d="M9.09033 12C6.88119 12 5.09033 10.2091 5.09033 8C5.09033 5.79086 6.88119 4 9.09033 4C11.2995 4 13.0903 5.79086 13.0903 8C13.0903 10.2091 11.2995 12 9.09033 12ZM9.09033 14C11.7603 14 17.0903 15.34 17.0903 18V19C17.0903 19.55 16.6403 20 16.0903 20H2.09033C1.54033 20 1.09033 19.55 1.09033 19V18C1.09033 15.34 6.42033 14 9.09033 14ZM18.3403 7.5C18.3403 7.22386 18.5642 7 18.8403 7H19.3403C19.6165 7 19.8403 7.22386 19.8403 7.5L19.9004 7.92017C19.9541 8.29637 20.3913 8.47747 20.6953 8.24946L21.0349 7.9948C21.2302 7.79953 21.5467 7.79953 21.742 7.9948L22.0955 8.34835C22.2908 8.54361 22.2908 8.8602 22.0955 9.05546L21.8409 9.395C21.6129 9.69902 21.794 10.1362 22.1702 10.19L22.5903 10.25C22.8665 10.25 23.0903 10.4739 23.0903 10.75V11.25C23.0903 11.5261 22.8665 11.75 22.5903 11.75L22.1702 11.81C21.794 11.8638 21.6129 12.301 21.8409 12.605L22.0955 12.9445C22.2908 13.1398 22.2908 13.4564 22.0955 13.6516L21.742 14.0052C21.5467 14.2005 21.2302 14.2005 21.0349 14.0052L20.6953 13.7505C20.3913 13.5225 19.9541 13.7036 19.9004 14.0798L19.8403 14.5C19.8403 14.7761 19.6165 15 19.3403 15H18.8403C18.5642 15 18.3403 14.7761 18.3403 14.5L18.2803 14.0798C18.2266 13.7036 17.7894 13.5225 17.4853 13.7505L17.1458 14.0052C16.9505 14.2005 16.6339 14.2005 16.4387 14.0052L16.0851 13.6516C15.8899 13.4564 15.8899 13.1398 16.0851 12.9445L16.3398 12.605C16.5678 12.301 16.3867 11.8638 16.0105 11.81L15.5903 11.75C15.3142 11.75 15.0903 11.5261 15.0903 11.25V10.75C15.0903 10.4739 15.3142 10.25 15.5903 10.25L16.0105 10.19C16.3867 10.1362 16.5678 9.69902 16.3398 9.395L16.0851 9.05546C15.8899 8.8602 15.8899 8.54361 16.0851 8.34835L16.4387 7.9948C16.6339 7.79953 16.9505 7.79953 17.1458 7.9948L17.4853 8.24946C17.7894 8.47747 18.2266 8.29637 18.2803 7.92017L18.3403 7.5ZM20.0903 11C20.0903 11.5523 19.6426 12 19.0903 12C18.5381 12 18.0903 11.5523 18.0903 11C18.0903 10.4477 18.5381 10 19.0903 10C19.6426 10 20.0903 10.4477 20.0903 11Z"/>
</svg>
