<svg width="18" height="19" viewBox="0 0 18 19" fill="none" xmlns="http://www.w3.org/2000/svg">
    <path d="M13.3849 0C16.3023 0 17.9268 1.691 17.9268 4.5885V14.402C17.9268 17.347 16.3023 19 13.3849 19H5.46954C2.59842 19 0.926758 17.347 0.926758 14.402V4.5885C0.926758 1.691 2.59842 0 5.46954 0H13.3849ZM5.72454 13.053C5.4412 13.0245 5.16731 13.1575 5.0162 13.4045C4.86509 13.642 4.86509 13.9555 5.0162 14.2025C5.16731 14.44 5.4412 14.5825 5.72454 14.5445H13.129C13.5058 14.5065 13.7901 14.1825 13.7901 13.8035C13.7901 13.414 13.5058 13.091 13.129 13.053H5.72454ZM13.129 8.72005H5.72454C5.31748 8.72005 4.98787 9.0535 4.98787 9.462C4.98787 9.8705 5.31748 10.203 5.72454 10.203H13.129C13.5351 10.203 13.8656 9.8705 13.8656 9.462C13.8656 9.0535 13.5351 8.72005 13.129 8.72005ZM8.54748 4.4175H5.72454V4.427C5.31748 4.427 4.98787 4.7595 4.98787 5.168C4.98787 5.5765 5.31748 5.909 5.72454 5.909H8.54748C8.95454 5.909 9.28509 5.5765 9.28509 5.15755C9.28509 4.75 8.95454 4.4175 8.54748 4.4175Z"/>
</svg>
