<svg width="380" height="142" viewBox="0 0 380 142" fill="none" xmlns="http://www.w3.org/2000/svg">
    <path d="M0 118C0 113.582 3.58172 110 8 110C12.4183 110 16 113.582 16 118V142H0V118Z" fill="#FF1700"/>
    <path d="M28 111C28 106.582 31.5817 103 36 103C40.4183 103 44 106.582 44 111V142H28V111Z" fill="#1598FF"/>
    <g opacity="0.8">
        <path d="M84 24C84 19.5817 87.5817 16 92 16C96.4183 16 100 19.5817 100 24V142H84V24Z" fill="#FF1700"/>
        <path d="M112 67C112 62.5817 115.582 59 120 59C124.418 59 128 62.5817 128 67V142H112V67Z" fill="#1598FF"/>
    </g>
    <g opacity="0.8">
        <path d="M168 24C168 19.5817 171.582 16 176 16C180.418 16 184 19.5817 184 24V142H168V24Z" fill="#FF1700"/>
        <path d="M196 8C196 3.58172 199.582 0 204 0C208.418 0 212 3.58172 212 8V142H196V8Z" fill="#1598FF"/>
    </g>
    <g opacity="0.8">
        <path d="M252 70C252 65.5817 255.582 62 260 62C264.418 62 268 65.5817 268 70V142H252V70Z" fill="#FF1700"/>
        <path d="M280 94C280 89.5817 283.582 86 288 86C292.418 86 296 89.5817 296 94V142H280V94Z" fill="#1598FF"/>
    </g>
    <g opacity="0.8">
        <path d="M336 19C336 14.5817 339.582 11 344 11C348.418 11 352 14.5817 352 19V142H336V19Z" fill="#FF1700"/>
        <path d="M364 72C364 67.5817 367.582 64 372 64C376.418 64 380 67.5817 380 72V142H364V72Z" fill="#1598FF"/>
    </g>
</svg>
