<svg width="392" height="112" viewBox="0 0 392 112" fill="none" xmlns="http://www.w3.org/2000/svg">
    <path d="M111.422 55.7111C111.422 86.4796 86.4796 111.422 55.7111 111.422C24.9427 111.422 0 86.4796 0 55.7111C0 24.9427 24.9427 0 55.7111 0C86.4796 0 111.422 24.9427 111.422 55.7111ZM11.1422 55.7111C11.1422 80.3259 31.0964 100.28 55.7111 100.28C80.3259 100.28 100.28 80.3259 100.28 55.7111C100.28 31.0964 80.3259 11.1422 55.7111 11.1422C31.0964 11.1422 11.1422 31.0964 11.1422 55.7111Z" fill="#F3F7FC"/>
    <path d="M105.134 64.161C108.167 64.6795 110.233 67.5694 109.414 70.5353C107.888 76.0627 105.515 81.3324 102.369 86.1534C98.2071 92.533 92.7806 97.9913 86.4254 102.191C80.0702 106.39 72.9213 109.242 65.4205 110.57C57.9196 111.897 50.2262 111.672 42.8157 109.909C35.4051 108.146 28.4349 104.882 22.3357 100.318C16.2365 95.755 11.1379 89.9892 7.35511 83.3775C3.57227 76.7657 1.18552 69.4484 0.342348 61.8778C-0.294826 56.1568 -0.0402962 50.383 1.08678 44.7607C1.69155 41.7439 4.83736 40.094 7.77873 40.997C10.7201 41.8999 12.3355 45.015 11.8063 48.0459C11.0817 52.1966 10.9476 56.4384 11.4161 60.6445C12.0906 66.701 14 72.5548 17.0263 77.8442C20.0526 83.1336 24.1314 87.7462 29.0108 91.397C33.8901 95.0477 39.4663 97.6591 45.3947 99.0697C51.3232 100.48 57.4779 100.66 63.4786 99.598C69.4793 98.5359 75.1984 96.2546 80.2826 92.8949C85.3667 89.5352 89.7079 85.1686 93.0378 80.0649C95.3504 76.5205 97.1411 72.6729 98.3634 68.6407C99.256 65.6962 102.101 63.6424 105.134 64.161Z" fill="#127AD6"/>
    <path d="M48.8427 65L60.3147 48.2H62.1627L50.6907 65H48.8427ZM50.1867 57.224C49.4187 57.224 48.7387 57.032 48.1467 56.648C47.5547 56.264 47.0907 55.728 46.7547 55.04C46.4347 54.352 46.2747 53.552 46.2747 52.64C46.2747 51.728 46.4347 50.928 46.7547 50.24C47.0907 49.552 47.5547 49.016 48.1467 48.632C48.7387 48.248 49.4187 48.056 50.1867 48.056C50.9707 48.056 51.6507 48.248 52.2267 48.632C52.8187 49.016 53.2747 49.552 53.5947 50.24C53.9147 50.928 54.0747 51.728 54.0747 52.64C54.0747 53.552 53.9147 54.352 53.5947 55.04C53.2747 55.728 52.8187 56.264 52.2267 56.648C51.6507 57.032 50.9707 57.224 50.1867 57.224ZM50.1867 55.856C50.9227 55.856 51.4987 55.576 51.9147 55.016C52.3307 54.44 52.5387 53.648 52.5387 52.64C52.5387 51.632 52.3307 50.848 51.9147 50.288C51.4987 49.712 50.9227 49.424 50.1867 49.424C49.4667 49.424 48.8907 49.712 48.4587 50.288C48.0427 50.848 47.8347 51.632 47.8347 52.64C47.8347 53.632 48.0427 54.416 48.4587 54.992C48.8907 55.568 49.4667 55.856 50.1867 55.856ZM60.8187 65.144C60.0507 65.144 59.3707 64.952 58.7787 64.568C58.1867 64.184 57.7307 63.648 57.4107 62.96C57.0907 62.272 56.9307 61.472 56.9307 60.56C56.9307 59.648 57.0907 58.848 57.4107 58.16C57.7307 57.472 58.1867 56.936 58.7787 56.552C59.3707 56.168 60.0507 55.976 60.8187 55.976C61.6027 55.976 62.2827 56.168 62.8587 56.552C63.4507 56.936 63.9067 57.472 64.2267 58.16C64.5627 58.848 64.7307 59.648 64.7307 60.56C64.7307 61.472 64.5627 62.272 64.2267 62.96C63.9067 63.648 63.4507 64.184 62.8587 64.568C62.2827 64.952 61.6027 65.144 60.8187 65.144ZM60.8187 63.776C61.5387 63.776 62.1067 63.496 62.5227 62.936C62.9547 62.36 63.1707 61.568 63.1707 60.56C63.1707 59.568 62.9547 58.784 62.5227 58.208C62.1067 57.632 61.5387 57.344 60.8187 57.344C60.0987 57.344 59.5227 57.632 59.0907 58.208C58.6747 58.768 58.4667 59.552 58.4667 60.56C58.4667 61.568 58.6747 62.36 59.0907 62.936C59.5227 63.496 60.0987 63.776 60.8187 63.776Z" fill="white"/>
    <path d="M254.845 55.7111C254.845 86.4796 229.902 111.422 199.134 111.422C168.365 111.422 143.422 86.4796 143.422 55.7111C143.422 24.9427 168.365 0 199.134 0C229.902 0 254.845 24.9427 254.845 55.7111ZM154.565 55.7111C154.565 80.3259 174.519 100.28 199.134 100.28C223.748 100.28 243.702 80.3259 243.702 55.7111C243.702 31.0964 223.748 11.1422 199.134 11.1422C174.519 11.1422 154.565 31.0964 154.565 55.7111Z" fill="#F3F7FC"/>
    <path d="M199.134 5.57111C199.134 2.49427 201.634 -0.0288795 204.695 0.278273C214.665 1.27854 224.219 4.95434 232.322 10.9643C241.922 18.0845 248.977 28.1035 252.446 39.5414C255.916 50.9793 255.614 63.2297 251.587 74.4832C247.559 85.7366 240.019 95.3965 230.081 102.036C220.142 108.676 208.332 111.943 196.394 111.355C184.456 110.767 173.023 106.355 163.785 98.7717C154.547 91.1879 147.992 80.8341 145.09 69.2394C142.64 59.4528 142.902 49.2202 145.795 39.6269C146.683 36.6811 149.971 35.3372 152.814 36.5151C155.656 37.6931 156.968 40.9474 156.154 43.9146C154.133 51.2767 154.03 59.0675 155.899 66.5338C158.22 75.8095 163.464 84.0926 170.855 90.1596C178.245 96.2266 187.391 99.7559 196.942 100.226C206.492 100.696 215.94 98.0827 223.891 92.771C231.842 87.4594 237.874 79.7315 241.096 70.7288C244.318 61.726 244.559 51.9257 241.784 42.7754C239.009 33.625 233.364 25.6099 225.684 19.9136C219.502 15.3286 212.265 12.4418 204.69 11.4899C201.637 11.1063 199.134 8.64795 199.134 5.57111Z" fill="#CD130A"/>
    <path d="M191.843 65L203.315 48.2H205.163L193.691 65H191.843ZM193.187 57.224C192.419 57.224 191.739 57.032 191.147 56.648C190.555 56.264 190.091 55.728 189.755 55.04C189.435 54.352 189.275 53.552 189.275 52.64C189.275 51.728 189.435 50.928 189.755 50.24C190.091 49.552 190.555 49.016 191.147 48.632C191.739 48.248 192.419 48.056 193.187 48.056C193.971 48.056 194.651 48.248 195.227 48.632C195.819 49.016 196.275 49.552 196.595 50.24C196.915 50.928 197.075 51.728 197.075 52.64C197.075 53.552 196.915 54.352 196.595 55.04C196.275 55.728 195.819 56.264 195.227 56.648C194.651 57.032 193.971 57.224 193.187 57.224ZM193.187 55.856C193.923 55.856 194.499 55.576 194.915 55.016C195.331 54.44 195.539 53.648 195.539 52.64C195.539 51.632 195.331 50.848 194.915 50.288C194.499 49.712 193.923 49.424 193.187 49.424C192.467 49.424 191.891 49.712 191.459 50.288C191.043 50.848 190.835 51.632 190.835 52.64C190.835 53.632 191.043 54.416 191.459 54.992C191.891 55.568 192.467 55.856 193.187 55.856ZM203.819 65.144C203.051 65.144 202.371 64.952 201.779 64.568C201.187 64.184 200.731 63.648 200.411 62.96C200.091 62.272 199.931 61.472 199.931 60.56C199.931 59.648 200.091 58.848 200.411 58.16C200.731 57.472 201.187 56.936 201.779 56.552C202.371 56.168 203.051 55.976 203.819 55.976C204.603 55.976 205.283 56.168 205.859 56.552C206.451 56.936 206.907 57.472 207.227 58.16C207.563 58.848 207.731 59.648 207.731 60.56C207.731 61.472 207.563 62.272 207.227 62.96C206.907 63.648 206.451 64.184 205.859 64.568C205.283 64.952 204.603 65.144 203.819 65.144ZM203.819 63.776C204.539 63.776 205.107 63.496 205.523 62.936C205.955 62.36 206.171 61.568 206.171 60.56C206.171 59.568 205.955 58.784 205.523 58.208C205.107 57.632 204.539 57.344 203.819 57.344C203.099 57.344 202.523 57.632 202.091 58.208C201.675 58.768 201.467 59.552 201.467 60.56C201.467 61.568 201.675 62.36 202.091 62.936C202.523 63.496 203.099 63.776 203.819 63.776Z" fill="white"/>
    <path d="M391.422 55.7111C391.422 86.4796 366.48 111.422 335.711 111.422C304.943 111.422 280 86.4796 280 55.7111C280 24.9427 304.943 0 335.711 0C366.48 0 391.422 24.9427 391.422 55.7111ZM291.142 55.7111C291.142 80.3259 311.096 100.28 335.711 100.28C360.326 100.28 380.28 80.3259 380.28 55.7111C380.28 31.0964 360.326 11.1422 335.711 11.1422C311.096 11.1422 291.142 31.0964 291.142 55.7111Z" fill="#F3F7FC"/>
    <path d="M383.449 71.0436C386.379 71.9845 388.016 75.137 386.788 77.9579C382.266 88.34 374.665 97.1423 364.951 103.132C353.65 110.1 340.232 112.804 327.114 110.755C313.996 108.706 302.041 102.04 293.403 91.9571C285.978 83.2905 281.424 72.5897 280.283 61.3232C279.973 58.262 282.494 55.759 285.571 55.7563C288.648 55.7535 291.109 58.2553 291.495 61.3078C292.584 69.9137 296.169 78.0591 301.865 84.7079C308.775 92.774 318.339 98.1071 328.833 99.7462C339.328 101.385 350.062 99.2226 359.103 93.6478C366.556 89.0527 372.453 82.3883 376.115 74.5244C377.414 71.7351 380.52 70.1028 383.449 71.0436Z" fill="#4A8ECC" fill-opacity="0.74"/>
    <path d="M328.843 65L340.315 48.2H342.163L330.691 65H328.843ZM330.187 57.224C329.419 57.224 328.739 57.032 328.147 56.648C327.555 56.264 327.091 55.728 326.755 55.04C326.435 54.352 326.275 53.552 326.275 52.64C326.275 51.728 326.435 50.928 326.755 50.24C327.091 49.552 327.555 49.016 328.147 48.632C328.739 48.248 329.419 48.056 330.187 48.056C330.971 48.056 331.651 48.248 332.227 48.632C332.819 49.016 333.275 49.552 333.595 50.24C333.915 50.928 334.075 51.728 334.075 52.64C334.075 53.552 333.915 54.352 333.595 55.04C333.275 55.728 332.819 56.264 332.227 56.648C331.651 57.032 330.971 57.224 330.187 57.224ZM330.187 55.856C330.923 55.856 331.499 55.576 331.915 55.016C332.331 54.44 332.539 53.648 332.539 52.64C332.539 51.632 332.331 50.848 331.915 50.288C331.499 49.712 330.923 49.424 330.187 49.424C329.467 49.424 328.891 49.712 328.459 50.288C328.043 50.848 327.835 51.632 327.835 52.64C327.835 53.632 328.043 54.416 328.459 54.992C328.891 55.568 329.467 55.856 330.187 55.856ZM340.819 65.144C340.051 65.144 339.371 64.952 338.779 64.568C338.187 64.184 337.731 63.648 337.411 62.96C337.091 62.272 336.931 61.472 336.931 60.56C336.931 59.648 337.091 58.848 337.411 58.16C337.731 57.472 338.187 56.936 338.779 56.552C339.371 56.168 340.051 55.976 340.819 55.976C341.603 55.976 342.283 56.168 342.859 56.552C343.451 56.936 343.907 57.472 344.227 58.16C344.563 58.848 344.731 59.648 344.731 60.56C344.731 61.472 344.563 62.272 344.227 62.96C343.907 63.648 343.451 64.184 342.859 64.568C342.283 64.952 341.603 65.144 340.819 65.144ZM340.819 63.776C341.539 63.776 342.107 63.496 342.523 62.936C342.955 62.36 343.171 61.568 343.171 60.56C343.171 59.568 342.955 58.784 342.523 58.208C342.107 57.632 341.539 57.344 340.819 57.344C340.099 57.344 339.523 57.632 339.091 58.208C338.675 58.768 338.467 59.552 338.467 60.56C338.467 61.568 338.675 62.36 339.091 62.936C339.523 63.496 340.099 63.776 340.819 63.776Z" fill="white"/>
</svg>
