<svg width="267" height="87" viewBox="0 0 267 87" fill="none" xmlns="http://www.w3.org/2000/svg">
    <path d="M267 43.5C267 67.5244 247.524 87 223.5 87C199.476 87 180 67.5244 180 43.5C180 19.4756 199.476 0 223.5 0C247.524 0 267 19.4756 267 43.5ZM188.7 43.5C188.7 62.7195 204.28 78.3 223.5 78.3C242.72 78.3 258.3 62.7195 258.3 43.5C258.3 24.2805 242.72 8.7 223.5 8.7C204.28 8.7 188.7 24.2805 188.7 43.5Z" fill="#F3F7FC"/>
    <path d="M223.5 4.35C223.5 1.94756 225.452 -0.0225495 227.843 0.21728C235.627 0.998298 243.087 3.86842 249.414 8.56105C256.91 14.1206 262.419 21.9436 265.127 30.8745C267.836 39.8053 267.601 49.3706 264.456 58.1575C261.312 66.9443 255.424 74.4869 247.664 79.6711C239.904 84.8553 230.682 87.4063 221.361 86.9474C212.039 86.4884 203.113 83.0438 195.899 77.1223C188.686 71.2007 183.568 63.1163 181.302 54.063C179.389 46.4215 179.593 38.4318 181.852 30.9412C182.546 28.6411 185.113 27.5917 187.333 28.5115V28.5115C189.552 29.4313 190.577 31.9723 189.941 34.2891C188.363 40.0376 188.282 46.1207 189.742 51.9504C191.555 59.1931 195.649 65.6606 201.42 70.3978C207.19 75.135 214.332 77.8907 221.789 78.2579C229.246 78.6251 236.623 76.5843 242.831 72.4369C249.039 68.2895 253.749 62.2554 256.265 55.226C258.781 48.1965 258.969 40.5443 256.802 33.3996C254.635 26.2549 250.228 19.9965 244.231 15.5488C239.404 11.9688 233.753 9.7147 227.839 8.9715C225.455 8.67197 223.5 6.75244 223.5 4.35V4.35Z" fill="#CD130A"/>
    <path d="M211.902 50.128C210.91 50.128 210.062 49.9093 209.358 49.472C208.654 49.0347 208.115 48.4053 207.742 47.584C207.379 46.752 207.198 45.7387 207.198 44.544C207.198 43.2747 207.422 42.2027 207.87 41.328C208.318 40.4533 208.942 39.792 209.742 39.344C210.542 38.896 211.459 38.672 212.494 38.672C213.027 38.672 213.534 38.7253 214.014 38.832C214.505 38.9387 214.926 39.104 215.278 39.328L214.67 40.576C214.382 40.3733 214.051 40.2347 213.678 40.16C213.315 40.0853 212.931 40.048 212.526 40.048C211.385 40.048 210.478 40.4053 209.806 41.12C209.134 41.824 208.798 42.8747 208.798 44.272C208.798 44.496 208.809 44.7627 208.83 45.072C208.851 45.3813 208.905 45.6853 208.99 45.984L208.446 45.44C208.606 44.9493 208.857 44.5387 209.198 44.208C209.55 43.8667 209.966 43.616 210.446 43.456C210.937 43.2853 211.465 43.2 212.03 43.2C212.777 43.2 213.438 43.3387 214.014 43.616C214.59 43.8933 215.043 44.288 215.374 44.8C215.705 45.3013 215.87 45.8987 215.87 46.592C215.87 47.3067 215.694 47.9307 215.342 48.464C214.99 48.9973 214.515 49.408 213.918 49.696C213.321 49.984 212.649 50.128 211.902 50.128ZM211.838 48.832C212.329 48.832 212.755 48.7413 213.118 48.56C213.491 48.3787 213.785 48.128 213.998 47.808C214.211 47.4773 214.318 47.0933 214.318 46.656C214.318 45.9947 214.089 45.472 213.63 45.088C213.171 44.6933 212.547 44.496 211.758 44.496C211.246 44.496 210.798 44.592 210.414 44.784C210.03 44.976 209.726 45.2373 209.502 45.568C209.289 45.888 209.182 46.256 209.182 46.672C209.182 47.056 209.283 47.4133 209.486 47.744C209.689 48.064 209.987 48.3253 210.382 48.528C210.777 48.7307 211.262 48.832 211.838 48.832ZM221.761 50.128C220.854 50.128 220.07 49.9947 219.409 49.728C218.748 49.4613 218.236 49.0827 217.873 48.592C217.51 48.0907 217.329 47.504 217.329 46.832C217.329 46.1707 217.5 45.6107 217.841 45.152C218.193 44.6827 218.7 44.3307 219.361 44.096C220.022 43.8507 220.822 43.728 221.761 43.728C222.7 43.728 223.5 43.8507 224.161 44.096C224.833 44.3307 225.345 44.6827 225.697 45.152C226.049 45.6213 226.225 46.1813 226.225 46.832C226.225 47.504 226.044 48.0907 225.681 48.592C225.318 49.0827 224.801 49.4613 224.129 49.728C223.457 49.9947 222.668 50.128 221.761 50.128ZM221.761 48.832C222.657 48.832 223.356 48.6507 223.857 48.288C224.369 47.9147 224.625 47.4133 224.625 46.784C224.625 46.1653 224.369 45.68 223.857 45.328C223.356 44.9653 222.657 44.784 221.761 44.784C220.876 44.784 220.182 44.9653 219.681 45.328C219.18 45.68 218.929 46.1653 218.929 46.784C218.929 47.4133 219.18 47.9147 219.681 48.288C220.182 48.6507 220.876 48.832 221.761 48.832ZM221.761 44.592C220.908 44.592 220.182 44.48 219.585 44.256C218.988 44.0213 218.529 43.6907 218.209 43.264C217.889 42.8267 217.729 42.3093 217.729 41.712C217.729 41.0827 217.894 40.544 218.225 40.096C218.566 39.6373 219.041 39.2853 219.649 39.04C220.257 38.7947 220.961 38.672 221.761 38.672C222.572 38.672 223.281 38.7947 223.889 39.04C224.497 39.2853 224.972 39.6373 225.313 40.096C225.654 40.544 225.825 41.0827 225.825 41.712C225.825 42.3093 225.665 42.8267 225.345 43.264C225.025 43.6907 224.561 44.0213 223.953 44.256C223.345 44.48 222.614 44.592 221.761 44.592ZM221.761 43.568C222.54 43.568 223.148 43.408 223.585 43.088C224.033 42.768 224.257 42.3307 224.257 41.776C224.257 41.2107 224.028 40.768 223.569 40.448C223.11 40.128 222.508 39.968 221.761 39.968C221.014 39.968 220.417 40.128 219.969 40.448C219.532 40.768 219.313 41.2107 219.313 41.776C219.313 42.3307 219.526 42.768 219.953 43.088C220.39 43.408 220.993 43.568 221.761 43.568ZM229.39 50L237.038 38.8H238.27L230.622 50H229.39ZM230.286 44.816C229.774 44.816 229.32 44.688 228.926 44.432C228.531 44.176 228.222 43.8187 227.998 43.36C227.784 42.9013 227.678 42.368 227.678 41.76C227.678 41.152 227.784 40.6187 227.998 40.16C228.222 39.7013 228.531 39.344 228.926 39.088C229.32 38.832 229.774 38.704 230.286 38.704C230.808 38.704 231.262 38.832 231.646 39.088C232.04 39.344 232.344 39.7013 232.558 40.16C232.771 40.6187 232.878 41.152 232.878 41.76C232.878 42.368 232.771 42.9013 232.558 43.36C232.344 43.8187 232.04 44.176 231.646 44.432C231.262 44.688 230.808 44.816 230.286 44.816ZM230.286 43.904C230.776 43.904 231.16 43.7173 231.438 43.344C231.715 42.96 231.854 42.432 231.854 41.76C231.854 41.088 231.715 40.5653 231.438 40.192C231.16 39.808 230.776 39.616 230.286 39.616C229.806 39.616 229.422 39.808 229.134 40.192C228.856 40.5653 228.718 41.088 228.718 41.76C228.718 42.4213 228.856 42.944 229.134 43.328C229.422 43.712 229.806 43.904 230.286 43.904ZM237.374 50.096C236.862 50.096 236.408 49.968 236.014 49.712C235.619 49.456 235.315 49.0987 235.102 48.64C234.888 48.1813 234.782 47.648 234.782 47.04C234.782 46.432 234.888 45.8987 235.102 45.44C235.315 44.9813 235.619 44.624 236.014 44.368C236.408 44.112 236.862 43.984 237.374 43.984C237.896 43.984 238.35 44.112 238.734 44.368C239.128 44.624 239.432 44.9813 239.646 45.44C239.87 45.8987 239.982 46.432 239.982 47.04C239.982 47.648 239.87 48.1813 239.646 48.64C239.432 49.0987 239.128 49.456 238.734 49.712C238.35 49.968 237.896 50.096 237.374 50.096ZM237.374 49.184C237.854 49.184 238.232 48.9973 238.51 48.624C238.798 48.24 238.942 47.712 238.942 47.04C238.942 46.3787 238.798 45.856 238.51 45.472C238.232 45.088 237.854 44.896 237.374 44.896C236.894 44.896 236.51 45.088 236.222 45.472C235.944 45.8453 235.806 46.368 235.806 47.04C235.806 47.712 235.944 48.24 236.222 48.624C236.51 48.9973 236.894 49.184 237.374 49.184Z" fill="white"/>
    <path d="M0 68C0 64.6863 2.68629 62 6 62V62C9.31371 62 12 64.6863 12 68V87H0V68Z" fill="#FF1700"/>
    <path d="M20 63C20 59.6863 22.6863 57 26 57V57C29.3137 57 32 59.6863 32 63V87H20V63Z" fill="#1598FF"/>
    <g opacity="0.8">
        <path d="M48 6C48 2.68629 50.6863 0 54 0V0C57.3137 0 60 2.68629 60 6V87H48V6Z" fill="#FF1700"/>
        <path d="M68 36C68 32.6863 70.6863 30 74 30V30C77.3137 30 80 32.6863 80 36V87H68V36Z" fill="#1598FF"/>
    </g>
    <g opacity="0.8">
        <path d="M96 48C96 44.6863 98.6863 42 102 42V42C105.314 42 108 44.6863 108 48V87H96V48Z" fill="#FF1700"/>
        <path d="M116 42C116 38.6863 118.686 36 122 36V36C125.314 36 128 38.6863 128 42V87H116V42Z" fill="#1598FF"/>
    </g>
</svg>
