<svg width="32" height="24" viewBox="0 0 32 24" fill="none" xmlns="http://www.w3.org/2000/svg">
<mask id="mask0_1_13811" style="mask-type:luminance" maskUnits="userSpaceOnUse" x="0" y="0" width="32" height="24">
<rect width="32" height="24" fill="white"/>
</mask>
<g mask="url(#mask0_1_13811)">
<path fill-rule="evenodd" clip-rule="evenodd" d="M32 0H0V6H32V0ZM32 18H0V24H32V18Z" fill="#F50101"/>
<path fill-rule="evenodd" clip-rule="evenodd" d="M0 6H32V18H0V6Z" fill="#F7FCFF"/>
<path fill-rule="evenodd" clip-rule="evenodd" d="M21.5148 12.5132C21.5894 13.3806 18.3886 12.1534 18.3886 12.5006C18.3886 12.8479 21.8174 13.4577 21.8117 14.2351C21.806 15.0125 17.746 14.0133 18.6564 14.3629C19.5669 14.7125 21.5217 15.5494 21.2995 16.0708C20.825 17.1844 17.6734 15.2983 17.4113 15.6701C16.9883 16.2699 19.7369 17.6688 19.7137 17.8025C19.6689 18.0588 17.8364 17.3996 17.4113 17.9319C17.0672 17.8348 16.9081 17.3714 16.8012 17.31L16.1249 8.58658C16.1249 8.58658 16.7322 16.8 15.9563 17.0362C15.1803 17.2724 13.0249 17.9906 12.9622 17.6319C12.9388 17.4983 15.5575 16.2699 15.1344 15.6701C14.8229 15.2282 11.6627 16.7955 11.4611 15.8879C10.5629 15.2405 14.3698 14.6802 14.3698 14.0181C14.3698 13.3559 10.8872 14.8018 11.3038 13.8801C11.7205 12.9583 14.5085 12.6283 14.5606 12.5006C14.6557 12.2672 11.4611 12.8641 11.4611 12.5006C11.4611 11.8129 13.3732 11.6776 14.5606 11.0588C14.6307 10.3525 11.6802 11.754 11.4611 11.1879C11.2419 10.6218 15.2322 9.15513 15.1344 9.04088C14.98 8.86044 11.7641 9.67462 12.2944 9.24707C13.3238 8.41727 15.3329 7.28888 15.7952 6.9879C15.7952 6.9879 15.8509 6.87434 15.9104 6.91287C15.97 6.87434 16.0356 6.83213 16.0356 6.83213C16.0356 6.83213 16.0356 7.54215 16.0257 6.9879C16.0158 6.43364 20.7353 8.8589 20.7889 9.47371C20.8513 10.1919 17.8728 8.93224 17.9428 9.63845C18.5483 10.0136 20.2704 10.7395 20.9819 11.0588C21.3046 11.2035 18.6041 10.7523 18.6611 10.9738C18.8065 11.5385 21.4371 11.6086 21.5148 12.5132Z" fill="#52AB0B"/>
</g>
</svg>
