<svg width="32" height="24" viewBox="0 0 32 24" fill="none" xmlns="http://www.w3.org/2000/svg">
<mask id="mask0_1_11786" style="mask-type:luminance" maskUnits="userSpaceOnUse" x="0" y="0" width="32" height="24">
<rect width="32" height="24" fill="white"/>
</mask>
<g mask="url(#mask0_1_11786)">
<path fill-rule="evenodd" clip-rule="evenodd" d="M0 0V24H32V0H0Z" fill="#2E42A5"/>
<mask id="mask1_1_11786" style="mask-type:luminance" maskUnits="userSpaceOnUse" x="0" y="0" width="32" height="24">
<path fill-rule="evenodd" clip-rule="evenodd" d="M0 0V24H32V0H0Z" fill="white"/>
</mask>
<g mask="url(#mask1_1_11786)">
<path fill-rule="evenodd" clip-rule="evenodd" d="M21.0467 10.0327C21.0467 10.0327 21.9327 21.964 25.9287 21.964C29.9246 21.964 30.9074 10.0327 30.9074 10.0327H21.0467Z" fill="#FECA00" stroke="#F7FCFF" stroke-width="0.5"/>
<path fill-rule="evenodd" clip-rule="evenodd" d="M25.9112 10.6218L26.0576 10.4566L26.7515 10.8986C26.852 10.7424 27.031 10.6697 27.2816 10.6817L27.0285 10.2962L27.2346 10.1864L27.7151 10.7648C27.7307 10.7695 27.7466 10.7745 27.7625 10.7797L27.6408 10.0281L27.8823 10L28.0401 10.9739C28.0439 10.9737 28.0478 10.9736 28.0515 10.9736C28.1195 10.9736 28.1961 11.0064 28.2749 11.0585L28.4464 10L28.6879 10.0281L28.5661 10.7797C28.5821 10.7745 28.5979 10.7695 28.6136 10.7648L29.094 10.1864L29.3002 10.2962L29.0471 10.6817C29.2977 10.6697 29.4767 10.7424 29.5772 10.8986L30.2711 10.4566L30.4175 10.6218L29.6562 11.1069C29.6665 11.1617 29.6718 11.2218 29.6718 11.2871V11.3996L30.7226 11.1693L30.8 11.3647L29.6718 11.7645V11.901L30.7415 11.8143L30.7737 12.0191L29.6718 12.1794V12.4153L30.7764 12.5977L30.7319 12.801L29.6718 12.6425V14.9406H29.5093V12.6182L28.7981 12.5119C28.7184 13.0742 28.6286 13.7822 28.6412 14.0381C28.6537 14.291 28.8425 14.3994 28.975 14.4755C29.0781 14.5347 29.1472 14.5743 29.0727 14.6472C28.9025 14.8139 28.4771 14.9736 28.0515 14.9736C27.626 14.9736 27.2063 14.8139 27.1153 14.6472C27.0991 14.6175 27.1012 14.6199 27.1157 14.6366C27.1829 14.7136 27.5148 15.0944 27.5408 14.0381C27.5551 13.4586 27.47 12.9354 27.3722 12.5356L26.8194 12.6182V14.9406H26.6569V12.6425L25.5968 12.801L25.5523 12.5977L26.6569 12.4153V12.1794L25.555 12.0191L25.5872 11.8143L26.6569 11.901V11.7645L25.5286 11.3647L25.6061 11.1693L26.6569 11.3996V11.2871C26.6569 11.2218 26.6621 11.1617 26.6725 11.1069L25.9112 10.6218ZM27.3019 12.2733C27.3051 12.2844 27.3084 12.2957 27.3116 12.3071L26.8194 12.3884V12.2031L27.3019 12.2733ZM27.3121 11.5143C27.3047 11.5225 27.2974 11.5305 27.2903 11.5384L26.8194 11.4352V11.2871C26.8194 11.2575 26.8205 11.2294 26.8228 11.2026L27.3121 11.5143ZM27.6251 11.2048C27.5705 11.2519 27.5166 11.3026 27.4654 11.3535L26.8839 10.983C26.9656 10.8412 27.1265 10.7896 27.3769 10.8267L27.6251 11.2048ZM28.6945 11.461L29.4447 10.983C29.3631 10.8412 29.2022 10.7896 28.9518 10.8267L28.6038 11.3568C28.6355 11.3919 28.6659 11.427 28.6945 11.461ZM28.9475 11.5583L29.5058 11.2026C29.5081 11.2294 29.5093 11.2575 29.5093 11.2871V11.4352L28.9475 11.5583ZM29.1724 11.9414L29.5093 11.8221V11.9141L29.1724 11.9414ZM28.9129 12.2899L29.5093 12.2031V12.3884L28.9129 12.2899ZM26.8194 11.8221V11.9141L27.1563 11.9414L26.8194 11.8221Z" fill="#CF6900"/>
<path fill-rule="evenodd" clip-rule="evenodd" d="M24.878 15.8428C24.878 15.8428 23.5643 18.0429 23.5643 19.3764C23.5643 19.3764 24.4595 20.0864 25.9992 20.0864C27.5389 20.0864 28.3311 19.3764 28.3311 19.3764C27.8976 17.7956 27.1598 15.8428 27.1598 15.8428H24.878Z" fill="#00A727"/>
<path fill-rule="evenodd" clip-rule="evenodd" d="M24.942 15.2352C24.942 14.6293 25.4331 14.1381 26.039 14.1381C26.6449 14.1381 27.136 14.6293 27.136 15.2352V15.9856H24.942V15.2352Z" fill="#E31D1C"/>
<path fill-rule="evenodd" clip-rule="evenodd" d="M21.5192 12.8335C21.5192 12.8335 23.2531 13.1907 23.2531 13.7539C23.2531 14.3172 23.9512 14.5203 24.1227 14.368C24.2942 14.2157 25.5024 14.1092 25.5024 13.375C25.5024 12.6409 25.6033 12.441 25.3098 11.9748C25.0164 11.5086 24.4044 9.93265 24.2636 10.5641C24.1227 11.1955 23.9107 11.6632 23.5192 11.2868C23.1276 10.9105 22.6246 10.1136 22.4481 10.5641C22.2716 11.0145 23.0076 11.4666 22.4481 11.4666C21.8886 11.4666 22.283 11.4961 22.283 11.8775C22.283 12.2588 22.3493 12.6183 21.9342 12.6183C21.5192 12.6183 21.5192 12.8335 21.5192 12.8335Z" fill="#FF927F"/>
<rect width="18" height="14" fill="#2B409A"/>
<mask id="mask2_1_11786" style="mask-type:luminance" maskUnits="userSpaceOnUse" x="0" y="0" width="18" height="14">
<rect width="18" height="14" fill="white"/>
</mask>
<g mask="url(#mask2_1_11786)">
<path d="M-2.00427 12.9998L1.95668 14.737L18.0899 1.88872L20.1792 -0.69281L15.9435 -1.27343L9.36317 4.26326L4.06667 7.99369L-2.00427 12.9998Z" fill="#F7FCFF"/>
<path d="M-1.46204 14.2169L0.555885 15.225L19.4289 -0.932678H16.5955L-1.46204 14.2169Z" fill="#F50100"/>
<path d="M20.0043 12.9998L16.0433 14.737L-0.0898743 1.88872L-2.17919 -0.69281L2.05648 -1.27343L8.63683 4.26326L13.9333 7.99369L20.0043 12.9998Z" fill="#F7FCFF"/>
<path d="M19.8691 13.8733L17.8512 14.8815L9.81489 7.96351L7.43229 7.19059L-2.3802 -0.683947H0.453194L10.2602 7.00368L12.8651 7.9305L19.8691 13.8733Z" fill="#F50100"/>
<mask id="path-15-outside-1_1_11786" maskUnits="userSpaceOnUse" x="-2" y="-2" width="22" height="18" fill="black">
<rect fill="white" x="-2" y="-2" width="22" height="18"/>
<path fill-rule="evenodd" clip-rule="evenodd" d="M9.98451 0H7.98451V6H0V8H7.98451V14H9.98451V8H18V6H9.98451V0Z"/>
</mask>
<path fill-rule="evenodd" clip-rule="evenodd" d="M9.98451 0H7.98451V6H0V8H7.98451V14H9.98451V8H18V6H9.98451V0Z" fill="#F50100"/>
<path d="M7.98451 0V-1.5H6.48451V0H7.98451ZM9.98451 0H11.4845V-1.5H9.98451V0ZM7.98451 6V7.5H9.48451V6H7.98451ZM0 6V4.5H-1.5V6H0ZM0 8H-1.5V9.5H0V8ZM7.98451 8H9.48451V6.5H7.98451V8ZM7.98451 14H6.48451V15.5H7.98451V14ZM9.98451 14V15.5H11.4845V14H9.98451ZM9.98451 8V6.5H8.48451V8H9.98451ZM18 8V9.5H19.5V8H18ZM18 6H19.5V4.5H18V6ZM9.98451 6H8.48451V7.5H9.98451V6ZM7.98451 1.5H9.98451V-1.5H7.98451V1.5ZM9.48451 6V0H6.48451V6H9.48451ZM0 7.5H7.98451V4.5H0V7.5ZM1.5 8V6H-1.5V8H1.5ZM7.98451 6.5H0V9.5H7.98451V6.5ZM9.48451 14V8H6.48451V14H9.48451ZM9.98451 12.5H7.98451V15.5H9.98451V12.5ZM8.48451 8V14H11.4845V8H8.48451ZM18 6.5H9.98451V9.5H18V6.5ZM16.5 6V8H19.5V6H16.5ZM9.98451 7.5H18V4.5H9.98451V7.5ZM8.48451 0V6H11.4845V0H8.48451Z" fill="#F7FCFF" mask="url(#path-15-outside-1_1_11786)"/>
</g>
</g>
</g>
</svg>
