<svg width="32" height="24" viewBox="0 0 32 24" fill="none" xmlns="http://www.w3.org/2000/svg">
<mask id="mask0_1_11170" style="mask-type:luminance" maskUnits="userSpaceOnUse" x="0" y="0" width="32" height="24">
<rect width="32" height="24" fill="white"/>
</mask>
<g mask="url(#mask0_1_11170)">
<path fill-rule="evenodd" clip-rule="evenodd" d="M0 0V24H32V0H0Z" fill="#F7FCFF"/>
<mask id="mask1_1_11170" style="mask-type:luminance" maskUnits="userSpaceOnUse" x="0" y="0" width="32" height="24">
<path fill-rule="evenodd" clip-rule="evenodd" d="M0 0V24H32V0H0Z" fill="white"/>
</mask>
<g mask="url(#mask1_1_11170)">
<rect y="2" width="32" height="3" fill="#2E42A5"/>
<rect y="8" width="32" height="3" fill="#2E42A5"/>
<rect y="14" width="32" height="3" fill="#2E42A5"/>
<rect y="19" width="32" height="3" fill="#2E42A5"/>
<rect width="14" height="14" fill="#F7FCFF"/>
<path fill-rule="evenodd" clip-rule="evenodd" d="M4.78245 2.58228C4.70916 2.57736 4.64518 2.63226 4.63954 2.7049C4.61212 3.05804 4.92297 3.37908 5.09506 3.55682L5.11203 3.57436C5.13921 3.6025 5.16705 3.6303 5.20193 3.66436C5.20191 3.66434 5.28331 3.74336 5.30559 3.76539C5.45504 3.91319 5.48743 4.05162 5.5238 4.20705L5.53281 4.24528C5.54854 4.31114 5.56471 4.39076 5.58247 4.47819L5.58247 4.47819C5.66119 4.86566 5.77106 5.40648 6.01106 5.58277C6.06984 5.62595 6.48165 5.36945 6.52578 5.31083C6.54135 5.29015 6.58738 5.25592 6.63786 5.21839L6.63786 5.21839C6.73049 5.14952 6.8381 5.06951 6.80006 5.04157C6.54875 4.85696 6.35784 4.40957 6.1098 3.76539C5.97736 3.46208 5.63059 3.26928 5.34282 3.10929C5.09702 2.97263 4.89428 2.85991 4.90493 2.72271C4.91057 2.65007 4.85573 2.5872 4.78245 2.58228ZM8.82974 2.6817C8.79395 2.61756 8.71307 2.5938 8.64907 2.62863C8.33797 2.79797 8.23802 3.23352 8.18269 3.47466L8.17722 3.49844C8.16842 3.53656 8.16027 3.57506 8.1507 3.62286C8.15071 3.62283 8.12877 3.73414 8.12243 3.76481C8.07987 3.97066 7.98142 4.07322 7.87087 4.18837L7.84371 4.21675C7.79704 4.26581 7.73907 4.32274 7.67542 4.38525C7.39334 4.6623 6.99961 5.049 6.98247 5.34629C6.97827 5.4191 7.41768 5.62477 7.49088 5.62986C7.5167 5.63165 7.57047 5.65162 7.62945 5.67352C7.73765 5.71369 7.86336 5.76037 7.86608 5.71324C7.88403 5.40193 8.15527 4.99815 8.56043 4.43928C8.74268 4.16302 8.7155 3.76719 8.69295 3.43871C8.67369 3.15813 8.65781 2.9267 8.77868 2.86091C8.84267 2.82608 8.86553 2.74584 8.82974 2.6817ZM11.416 5.0306C11.4866 5.04877 11.5295 5.12131 11.512 5.19263C11.4944 5.26395 11.4229 5.30704 11.3524 5.28887C11.2191 5.25455 11.0729 5.43465 10.8956 5.65298C10.6881 5.90859 10.438 6.21662 10.1163 6.29437C9.43886 6.42678 8.96512 6.53711 8.73968 6.75254C8.70555 6.78516 8.64544 6.66529 8.59371 6.56211L8.59371 6.56211L8.5937 6.5621C8.56551 6.50587 8.5398 6.4546 8.52214 6.43567C8.47207 6.38203 8.29097 5.93194 8.3437 5.88155C8.55899 5.67581 9.11067 5.66152 9.50592 5.65129L9.50594 5.65128C9.59512 5.64897 9.67634 5.64687 9.74393 5.64282L9.78314 5.64059C9.94252 5.63176 10.0845 5.6239 10.256 5.50238C10.2811 5.48457 10.3705 5.42001 10.3734 5.4179L10.3735 5.41784C10.4131 5.38941 10.4453 5.36682 10.4777 5.34494L10.4979 5.33127C10.7029 5.19266 11.073 4.94228 11.416 5.0306ZM2.32274 5.47387C2.26744 5.52221 2.26102 5.60627 2.3084 5.66163C2.53872 5.93072 2.98553 5.93793 3.2329 5.94192C3.24127 5.94206 3.24941 5.94219 3.2573 5.94232C3.29642 5.94301 3.33576 5.94297 3.38451 5.94239C3.38448 5.94239 3.49792 5.94071 3.52924 5.94054C3.73944 5.93936 3.86022 6.01435 3.99585 6.09854C4.00687 6.10538 4.01798 6.11227 4.02925 6.1192C4.08694 6.15465 4.15468 6.19952 4.22906 6.24878C4.55871 6.4671 5.01881 6.77182 5.31317 6.72678C5.38527 6.71575 5.49509 6.24318 5.48484 6.17052C5.48123 6.14489 5.48958 6.08814 5.49873 6.0259C5.51553 5.91171 5.53505 5.77904 5.48839 5.78618C5.18015 5.83335 4.7288 5.65199 4.09791 5.37187C3.78979 5.25105 3.40826 5.35993 3.09164 5.45028C2.82121 5.52745 2.59814 5.59111 2.50865 5.48656C2.46128 5.43121 2.37804 5.42553 2.32274 5.47387Z" fill="#FFC125"/>
<path d="M4.63954 2.7049L4.56476 2.69909V2.69909L4.63954 2.7049ZM4.78245 2.58228L4.77742 2.65711L4.78245 2.58228ZM5.09506 3.55682L5.14896 3.50467L5.14894 3.50465L5.09506 3.55682ZM5.11203 3.57436L5.16598 3.52226L5.16593 3.52221L5.11203 3.57436ZM5.20193 3.66436L5.14953 3.71802L5.25462 3.61098L5.20193 3.66436ZM5.30559 3.76539L5.25285 3.81871L5.25285 3.81871L5.30559 3.76539ZM5.5238 4.20705L5.45078 4.22414L5.4508 4.22425L5.5238 4.20705ZM5.53281 4.24528L5.45981 4.26248L5.45986 4.26269L5.53281 4.24528ZM5.58247 4.47819L5.50884 4.49315L5.51001 4.49751L5.58247 4.47819ZM5.58247 4.47819L5.65611 4.46323L5.65494 4.45887L5.58247 4.47819ZM6.01106 5.58277L5.96666 5.64322H5.96666L6.01106 5.58277ZM6.52578 5.31083L6.5857 5.35593V5.35593L6.52578 5.31083ZM6.63786 5.21839L6.5962 5.1559L6.59311 5.1582L6.63786 5.21839ZM6.63786 5.21839L6.67952 5.28087L6.68261 5.27858L6.63786 5.21839ZM6.80006 5.04157L6.75566 5.10201L6.80006 5.04157ZM6.1098 3.76539L6.17985 3.73841L6.17853 3.73537L6.1098 3.76539ZM5.34282 3.10929L5.30638 3.17484L5.34282 3.10929ZM4.90493 2.72271L4.83015 2.7169V2.7169L4.90493 2.72271ZM8.64907 2.62863L8.61322 2.56276V2.56276L8.64907 2.62863ZM8.82974 2.6817L8.89524 2.64516V2.64516L8.82974 2.6817ZM8.18269 3.47466L8.25578 3.49146L8.25579 3.49143L8.18269 3.47466ZM8.17722 3.49844L8.2503 3.51531L8.25031 3.51525L8.17722 3.49844ZM8.1507 3.62286L8.07716 3.60814L8.22418 3.63789L8.1507 3.62286ZM8.12243 3.76481L8.19588 3.78L8.19588 3.78L8.12243 3.76481ZM7.87087 4.18837L7.81676 4.13643L7.81668 4.13652L7.87087 4.18837ZM7.84371 4.21675L7.78953 4.16489L7.78937 4.16505L7.84371 4.21675ZM7.67542 4.38525L7.62287 4.33175L7.67542 4.38525ZM6.98247 5.34629L7.05734 5.35061V5.35061L6.98247 5.34629ZM7.49088 5.62986L7.48568 5.70468L7.49088 5.62986ZM7.62945 5.67352L7.65555 5.60321L7.62945 5.67352ZM7.86608 5.71324L7.7912 5.70892V5.70893L7.86608 5.71324ZM8.56043 4.43928L8.62121 4.48334L8.62304 4.48058L8.56043 4.43928ZM8.69295 3.43871L8.76778 3.43357V3.43357L8.69295 3.43871ZM8.77868 2.86091L8.74282 2.79504V2.79504L8.77868 2.86091ZM11.416 5.0306L11.4347 4.95797L11.416 5.0306ZM11.3524 5.28887L11.3337 5.3615L11.3524 5.28887ZM10.8956 5.65298L10.8374 5.60571L10.8956 5.65298ZM10.1163 6.29437L10.1307 6.36805L10.134 6.36727L10.1163 6.29437ZM8.73968 6.75254L8.68786 6.69832H8.68786L8.73968 6.75254ZM8.59371 6.56211L8.52382 6.59007L8.52667 6.59573L8.59371 6.56211ZM8.59371 6.56211L8.66358 6.53416L8.66079 6.52857L8.59371 6.56211ZM8.5937 6.5621L8.66079 6.52856L8.66075 6.52848L8.5937 6.5621ZM8.52214 6.43567L8.46731 6.48685V6.48685L8.52214 6.43567ZM8.3437 5.88155L8.39552 5.93577L8.3437 5.88155ZM9.50592 5.65129L9.50787 5.72627L9.50881 5.72623L9.50592 5.65129ZM9.50594 5.65128L9.504 5.5763L9.50306 5.57634L9.50594 5.65128ZM9.74393 5.64282L9.73966 5.56794L9.73944 5.56796L9.74393 5.64282ZM9.78314 5.64059L9.77899 5.5657L9.77888 5.56571L9.78314 5.64059ZM10.256 5.50238L10.2126 5.44119L10.256 5.50238ZM10.3734 5.4179L10.3295 5.35705L10.3295 5.3571L10.3734 5.4179ZM10.3735 5.41784L10.3297 5.35692L10.3296 5.357L10.3735 5.41784ZM10.4777 5.34494L10.5197 5.40712L10.5197 5.40708L10.4777 5.34494ZM10.4979 5.33127L10.5399 5.39341L10.54 5.39339L10.4979 5.33127ZM2.3084 5.66163L2.36537 5.61286H2.36537L2.3084 5.66163ZM2.32274 5.47387L2.3721 5.53033L2.3721 5.53033L2.32274 5.47387ZM3.2329 5.94192L3.23169 6.01691H3.23169L3.2329 5.94192ZM3.2573 5.94232L3.25861 5.86734H3.25861L3.2573 5.94232ZM3.38451 5.94239L3.3854 6.01739L3.38383 5.8674L3.38451 5.94239ZM3.52924 5.94054L3.52966 6.01553H3.52966L3.52924 5.94054ZM3.99585 6.09854L4.03541 6.03482H4.03541L3.99585 6.09854ZM4.02925 6.1192L3.98998 6.1831H3.98998L4.02925 6.1192ZM4.22906 6.24878L4.18765 6.31131L4.22906 6.24878ZM5.31317 6.72678L5.32452 6.80092H5.32452L5.31317 6.72678ZM5.48484 6.17052L5.55911 6.16005V6.16005L5.48484 6.17052ZM5.49873 6.0259L5.57293 6.03682H5.57293L5.49873 6.0259ZM5.48839 5.78618L5.47705 5.71204L5.48839 5.78618ZM4.09791 5.37187L4.12837 5.30326L4.12529 5.30205L4.09791 5.37187ZM3.09164 5.45028L3.11222 5.5224H3.11222L3.09164 5.45028ZM2.50865 5.48656L2.56563 5.43779H2.56563L2.50865 5.48656ZM4.71431 2.7107C4.71673 2.67962 4.7446 2.65491 4.77742 2.65711L4.78747 2.50744C4.67372 2.49981 4.57363 2.5849 4.56476 2.69909L4.71431 2.7107ZM5.14894 3.50465C5.06246 3.41533 4.9466 3.29541 4.85527 3.15561C4.76364 3.01537 4.70244 2.86365 4.71431 2.7107L4.56476 2.69909C4.54922 2.89928 4.62973 3.08466 4.72969 3.23766C4.82995 3.3911 4.95557 3.52057 5.04118 3.60899L5.14894 3.50465ZM5.16593 3.52221L5.14896 3.50467L5.04116 3.60896L5.05813 3.62651L5.16593 3.52221ZM5.25433 3.6107C5.21978 3.57696 5.19249 3.54971 5.16598 3.52226L5.05808 3.62646C5.08593 3.6553 5.11433 3.68364 5.14953 3.71802L5.25433 3.6107ZM5.35832 3.71206C5.34692 3.70078 5.32075 3.67527 5.2977 3.65285C5.28612 3.64158 5.27523 3.631 5.26725 3.62324C5.26326 3.61937 5.25999 3.61619 5.25771 3.61398C5.25658 3.61288 5.25569 3.61202 5.25509 3.61144C5.25479 3.61114 5.25456 3.61092 5.2544 3.61077C5.25433 3.61069 5.25427 3.61064 5.25423 3.6106C5.25421 3.61058 5.25419 3.61056 5.25418 3.61055C5.25417 3.61055 5.25417 3.61054 5.25416 3.61053C5.25416 3.61053 5.25415 3.61052 5.25414 3.61052C5.25413 3.6105 5.14831 3.61192 5.14924 3.71773L5.25462 3.61098C5.25555 3.71679 5.14974 3.71822 5.14972 3.7182C5.14972 3.7182 5.14971 3.71819 5.14971 3.71819C5.14971 3.71819 5.14971 3.71819 5.14971 3.71819C5.14972 3.7182 5.14973 3.71821 5.14975 3.71823C5.14979 3.71827 5.14985 3.71832 5.14992 3.7184C5.15008 3.71855 5.1503 3.71877 5.1506 3.71906C5.1512 3.71964 5.15208 3.7205 5.15322 3.7216C5.15548 3.72379 5.15874 3.72696 5.16273 3.73083C5.17069 3.73857 5.18155 3.74912 5.1931 3.76036C5.21632 3.78295 5.24198 3.80796 5.25285 3.81871L5.35832 3.71206ZM5.59683 4.18996C5.56011 4.03301 5.52405 3.87595 5.35832 3.71206L5.25285 3.81871C5.38604 3.95042 5.41476 4.07022 5.45078 4.22414L5.59683 4.18996ZM5.60581 4.22808L5.5968 4.18985L5.4508 4.22425L5.45981 4.26248L5.60581 4.22808ZM5.65597 4.46326C5.63829 4.37623 5.62184 4.29522 5.60576 4.22786L5.45986 4.26269C5.47523 4.32706 5.49113 4.40529 5.50897 4.49312L5.65597 4.46326ZM5.65494 4.45887L5.65494 4.45886L5.51001 4.49751L5.51001 4.49752L5.65494 4.45887ZM6.05546 5.52233C5.95631 5.44949 5.87464 5.29132 5.80757 5.08635C5.74185 4.88553 5.6955 4.65782 5.65597 4.46326L5.50898 4.49312C5.54817 4.68604 5.59611 4.92247 5.66501 5.133C5.73255 5.33938 5.82582 5.53976 5.96666 5.64322L6.05546 5.52233ZM6.46586 5.26572C6.46653 5.26483 6.46195 5.27017 6.44641 5.28266C6.43268 5.2937 6.41431 5.30725 6.39235 5.32243C6.34852 5.35273 6.29291 5.3878 6.23675 5.41982C6.1802 5.45208 6.12528 5.48 6.08239 5.49704C6.06061 5.50569 6.04493 5.51031 6.0352 5.51203C6.03036 5.51289 6.02961 5.51253 6.03177 5.5127C6.03344 5.51282 6.04378 5.51375 6.05546 5.52233L5.96666 5.64322C5.98568 5.65719 6.00613 5.66117 6.02032 5.66226C6.03499 5.66338 6.04916 5.66189 6.06128 5.65975C6.0855 5.65547 6.11197 5.64668 6.13776 5.63644C6.19 5.6157 6.2518 5.58392 6.31107 5.55012C6.37073 5.51609 6.43002 5.47874 6.47765 5.44581C6.50143 5.42938 6.52293 5.4136 6.54039 5.39957C6.55606 5.38698 6.574 5.37148 6.5857 5.35593L6.46586 5.26572ZM6.59311 5.1582C6.5682 5.17673 6.54288 5.19554 6.52184 5.21239C6.50271 5.22772 6.48009 5.24682 6.46586 5.26572L6.5857 5.35593C6.58555 5.35613 6.58749 5.35369 6.59351 5.34816C6.59908 5.34304 6.60643 5.33682 6.61562 5.32946C6.63411 5.31465 6.65704 5.29759 6.68261 5.27858L6.59311 5.1582ZM6.59626 5.15598L6.59626 5.15599L6.67946 5.28079L6.67947 5.28079L6.59626 5.15598ZM6.75566 5.10201C6.74506 5.09423 6.73508 5.08015 6.73321 5.06209C6.7317 5.04753 6.73638 5.03843 6.73657 5.03805C6.73658 5.03803 6.7321 5.04522 6.71625 5.06031C6.68657 5.08857 6.64075 5.12279 6.59312 5.1582L6.68261 5.27858C6.7276 5.24512 6.78191 5.20491 6.81967 5.16896C6.83755 5.15194 6.85863 5.12959 6.87102 5.10455C6.87739 5.09167 6.88495 5.07119 6.88241 5.04664C6.87951 5.01858 6.86457 4.99589 6.84446 4.98112L6.75566 5.10201ZM6.0398 3.79234C6.16373 4.11419 6.27475 4.39055 6.38692 4.60996C6.49846 4.82813 6.61551 4.99906 6.75566 5.10201L6.84446 4.98112C6.7333 4.89947 6.62924 4.7544 6.52048 4.54168C6.41236 4.3302 6.3039 4.06076 6.17979 3.73844L6.0398 3.79234ZM5.30638 3.17484C5.45108 3.25529 5.6049 3.34096 5.7391 3.44325C5.87325 3.5455 5.98202 3.66017 6.04106 3.7954L6.17853 3.73537C6.10514 3.5673 5.9743 3.43392 5.83002 3.32395C5.68579 3.21401 5.52233 3.12328 5.37926 3.04374L5.30638 3.17484ZM4.83015 2.7169C4.82161 2.82692 4.89954 2.91141 4.9816 2.97536C5.06728 3.04214 5.18531 3.10753 5.30638 3.17484L5.37926 3.04374C5.25453 2.97439 5.14828 2.91509 5.07381 2.85705C4.99571 2.79618 4.97759 2.7557 4.9797 2.72851L4.83015 2.7169ZM4.77742 2.65711C4.80966 2.65927 4.83252 2.68644 4.83015 2.7169L4.9797 2.72851C4.98862 2.61369 4.90181 2.51512 4.78747 2.50744L4.77742 2.65711ZM8.68493 2.69451C8.71232 2.6796 8.74822 2.68952 8.76425 2.71825L8.89524 2.64516C8.83969 2.54561 8.71382 2.508 8.61322 2.56276L8.68493 2.69451ZM8.25579 3.49143C8.2836 3.37025 8.32107 3.20778 8.38857 3.05504C8.45628 2.90181 8.55019 2.76785 8.68493 2.69451L8.61322 2.56276C8.43685 2.65876 8.32524 2.82724 8.25137 2.99441C8.17728 3.16206 8.13711 3.33793 8.10959 3.45788L8.25579 3.49143ZM8.25031 3.51525L8.25578 3.49146L8.1096 3.45785L8.10413 3.48164L8.25031 3.51525ZM8.22424 3.63758C8.23372 3.59022 8.24171 3.55249 8.2503 3.51531L8.10414 3.48157C8.09512 3.52063 8.08682 3.55989 8.07716 3.60814L8.22424 3.63758ZM8.19588 3.78C8.19912 3.76429 8.20626 3.72845 8.21251 3.69691C8.21566 3.68106 8.2186 3.66617 8.22076 3.65525C8.22184 3.64978 8.22272 3.64531 8.22333 3.64221C8.22364 3.64065 8.22388 3.63944 8.22404 3.63862C8.22412 3.63821 8.22418 3.63789 8.22422 3.63768C8.22424 3.63757 8.22426 3.63749 8.22427 3.63744C8.22428 3.63741 8.22428 3.63739 8.22428 3.63737C8.22429 3.63736 8.22429 3.63736 8.22429 3.63735C8.22429 3.63734 8.22429 3.63733 8.22429 3.63733C8.2243 3.63731 8.16544 3.54932 8.07722 3.60782L8.22418 3.63789C8.13597 3.6964 8.07711 3.60841 8.07711 3.60839C8.07711 3.60838 8.07711 3.60838 8.07711 3.60837C8.07711 3.60837 8.07711 3.60838 8.07711 3.60838C8.07711 3.60839 8.07711 3.60841 8.0771 3.60844C8.07709 3.60849 8.07708 3.60857 8.07705 3.60867C8.07701 3.60888 8.07695 3.60919 8.07687 3.6096C8.07671 3.61042 8.07647 3.61163 8.07617 3.61318C8.07556 3.61627 8.07468 3.62073 8.0736 3.62618C8.07145 3.63708 8.06851 3.65193 8.06538 3.66774C8.05908 3.69951 8.05208 3.73466 8.04898 3.74963L8.19588 3.78ZM7.92497 4.24031C8.0366 4.12403 8.14869 4.00825 8.19588 3.78L8.04898 3.74963C8.01106 3.93306 7.92623 4.0224 7.81676 4.13643L7.92497 4.24031ZM7.8979 4.2686L7.92505 4.24023L7.81668 4.13652L7.78953 4.16489L7.8979 4.2686ZM7.72798 4.43876C7.79133 4.37654 7.85031 4.31862 7.89805 4.26844L7.78937 4.16505C7.74376 4.213 7.68681 4.26894 7.62287 4.33175L7.72798 4.43876ZM7.05734 5.35061C7.06443 5.22778 7.15261 5.07315 7.28798 4.90526C7.4206 4.74077 7.58633 4.57788 7.72798 4.43876L7.62287 4.33175C7.48243 4.46968 7.31025 4.63866 7.17121 4.81111C7.03491 4.98015 6.91765 5.16751 6.90759 5.34198L7.05734 5.35061ZM7.49608 5.55504C7.49719 5.55512 7.49021 5.55418 7.47127 5.54796C7.45453 5.54245 7.43317 5.53442 7.40848 5.52428C7.35919 5.50402 7.2995 5.47648 7.24205 5.44683C7.1842 5.41697 7.13087 5.38611 7.09322 5.35942C7.07411 5.34587 7.06168 5.33523 7.05495 5.32801C7.05159 5.32441 7.05148 5.32359 7.05252 5.32549C7.05332 5.32697 7.05818 5.33614 7.05734 5.35061L6.90759 5.34198C6.90623 5.36554 6.91403 5.38486 6.92085 5.39735C6.92789 5.41026 6.93687 5.42133 6.94526 5.43033C6.96204 5.44832 6.98383 5.46574 7.00646 5.48178C7.05231 5.51429 7.11262 5.54883 7.17325 5.58012C7.23428 5.61162 7.2979 5.64101 7.35146 5.66302C7.37819 5.674 7.40313 5.68345 7.42441 5.69045C7.4435 5.69673 7.46627 5.70333 7.48568 5.70468L7.49608 5.55504ZM7.65555 5.60321C7.62645 5.5924 7.59688 5.58141 7.57128 5.57294C7.54801 5.56525 7.51967 5.55668 7.49608 5.55504L7.48568 5.70468C7.48544 5.70466 7.48854 5.70496 7.49646 5.707C7.50378 5.70888 7.513 5.71166 7.52418 5.71536C7.54667 5.7228 7.57347 5.73274 7.60334 5.74383L7.65555 5.60321ZM7.7912 5.70893C7.79196 5.6958 7.79833 5.67976 7.81246 5.66835C7.82385 5.65916 7.83403 5.65812 7.83445 5.65808C7.83447 5.65807 7.826 5.65824 7.80472 5.65316C7.76485 5.64366 7.7112 5.62387 7.65555 5.60321L7.60334 5.74383C7.6559 5.76334 7.71921 5.78698 7.76993 5.79907C7.79394 5.8048 7.82416 5.81031 7.8519 5.80706C7.86618 5.80538 7.88747 5.80058 7.90668 5.78507C7.92863 5.76735 7.93952 5.74246 7.94096 5.71756L7.7912 5.70893ZM8.49971 4.39526C8.29728 4.67449 8.12597 4.91811 8.00305 5.13169C7.88082 5.34405 7.80121 5.53531 7.7912 5.70892L7.94096 5.71756C7.9489 5.57986 8.01388 5.41358 8.13305 5.20651C8.25153 5.00065 8.41842 4.76294 8.62115 4.4833L8.49971 4.39526ZM8.61813 3.44384C8.62947 3.60901 8.6414 3.78468 8.6287 3.95293C8.61601 4.12114 8.57908 4.27481 8.49783 4.39798L8.62304 4.48058C8.72403 4.32749 8.76463 4.14512 8.77828 3.96422C8.79192 3.78337 8.77899 3.59688 8.76778 3.43357L8.61813 3.44384ZM8.74282 2.79504C8.6459 2.84779 8.61749 2.95917 8.60854 3.06282C8.5992 3.17105 8.60864 3.30565 8.61813 3.44384L8.76778 3.43357C8.758 3.29119 8.74987 3.16979 8.75799 3.07571C8.7665 2.97706 8.79058 2.93982 8.81453 2.92678L8.74282 2.79504ZM8.76425 2.71825C8.77999 2.74646 8.76965 2.78043 8.74282 2.79504L8.81453 2.92678C8.91569 2.87173 8.95108 2.74523 8.89524 2.64516L8.76425 2.71825ZM11.5848 5.21057C11.6121 5.09988 11.5456 4.98653 11.4347 4.95797L11.3973 5.10323C11.4275 5.11101 11.447 5.14275 11.4391 5.17469L11.5848 5.21057ZM11.3337 5.3615C11.4452 5.39022 11.5574 5.32184 11.5848 5.21057L11.4391 5.17469C11.4314 5.20606 11.4007 5.22386 11.3711 5.21624L11.3337 5.3615ZM10.9539 5.70025C11.0438 5.58946 11.1207 5.49512 11.1908 5.43186C11.2643 5.36551 11.3073 5.3547 11.3337 5.3615L11.3711 5.21624C11.2642 5.18872 11.1675 5.2508 11.0903 5.3205C11.0096 5.39329 10.9247 5.49817 10.8374 5.60571L10.9539 5.70025ZM10.134 6.36727C10.3122 6.32419 10.4663 6.2185 10.5996 6.09551C10.733 5.97255 10.8507 5.82733 10.9539 5.70025L10.8374 5.60571C10.7331 5.73424 10.622 5.87084 10.4979 5.98524C10.374 6.09961 10.2421 6.18681 10.0987 6.22147L10.134 6.36727ZM8.79149 6.80677C8.89121 6.71147 9.05214 6.63418 9.28052 6.56402C9.50756 6.49426 9.79174 6.43423 10.1307 6.36798L10.1019 6.22077C9.76346 6.28692 9.47203 6.34826 9.23647 6.42063C9.00225 6.49259 8.81358 6.57818 8.68786 6.69832L8.79149 6.80677ZM8.52667 6.59573C8.5518 6.64585 8.58197 6.70631 8.61082 6.74974C8.62447 6.7703 8.64282 6.79494 8.66533 6.81149C8.67691 6.82 8.69576 6.83101 8.72038 6.83276C8.74852 6.83478 8.77346 6.824 8.79149 6.80677L8.68786 6.69832C8.69736 6.68924 8.71296 6.68185 8.73107 6.68315C8.74568 6.68419 8.75383 6.69037 8.75417 6.69062C8.75419 6.69064 8.74788 6.68498 8.73577 6.66676C8.7131 6.63261 8.68736 6.58155 8.66075 6.52849L8.52667 6.59573ZM8.52407 6.58996L8.52407 6.58997L8.66334 6.53426L8.66334 6.53425L8.52407 6.58996ZM8.52662 6.59564L8.52663 6.59565L8.66079 6.52857L8.66079 6.52856L8.52662 6.59564ZM8.46731 6.48685C8.46714 6.48667 8.46921 6.48901 8.47361 6.49589C8.47768 6.50227 8.48253 6.51059 8.48818 6.52091C8.49956 6.54169 8.51238 6.56724 8.52666 6.59572L8.66075 6.52848C8.64683 6.50074 8.6327 6.47253 8.61976 6.44888C8.60799 6.42738 8.5931 6.40179 8.57697 6.3845L8.46731 6.48685ZM8.29189 5.82733C8.27482 5.84364 8.26735 5.86308 8.26381 5.87687C8.26016 5.89112 8.25917 5.90533 8.25918 5.91764C8.25918 5.94224 8.26324 5.96983 8.26885 5.99701C8.28021 6.05205 8.30076 6.11844 8.32376 6.18267C8.34691 6.24733 8.3734 6.31221 8.39756 6.36484C8.40962 6.39111 8.42141 6.41502 8.43221 6.43466C8.44189 6.45227 8.45403 6.47263 8.46731 6.48685L8.57697 6.3845C8.57772 6.38531 8.57326 6.37987 8.56366 6.3624C8.55517 6.34696 8.54502 6.32652 8.53388 6.30226C8.51165 6.25383 8.48677 6.19298 8.46498 6.13211C8.44304 6.07082 8.42508 6.01188 8.41575 5.96669C8.41101 5.94374 8.40918 5.92749 8.40918 5.91761C8.40918 5.91269 8.40965 5.91202 8.40912 5.91411C8.4087 5.91574 8.40599 5.92576 8.39552 5.93577L8.29189 5.82733ZM9.50398 5.57631C9.3072 5.58141 9.06603 5.58757 8.84673 5.61886C8.63176 5.64953 8.41823 5.70659 8.29189 5.82733L8.39552 5.93577C8.48447 5.85077 8.65442 5.79782 8.86792 5.76735C9.0771 5.73751 9.3094 5.7314 9.50787 5.72626L9.50398 5.57631ZM9.50306 5.57634L9.50304 5.57634L9.50881 5.72623L9.50883 5.72623L9.50306 5.57634ZM9.73944 5.56796C9.67339 5.57191 9.59359 5.57399 9.504 5.57631L9.50788 5.72626C9.59665 5.72396 9.67928 5.72183 9.74841 5.71769L9.73944 5.56796ZM9.77888 5.56571L9.73966 5.56794L9.74819 5.7177L9.7874 5.71547L9.77888 5.56571ZM10.2126 5.44119C10.0598 5.54948 9.93682 5.55696 9.77899 5.5657L9.78728 5.71548C9.94823 5.70656 10.1092 5.69833 10.2993 5.56358L10.2126 5.44119ZM10.3295 5.3571C10.3264 5.35936 10.2374 5.42363 10.2126 5.44119L10.2993 5.56358C10.3248 5.54551 10.4146 5.48065 10.4173 5.47869L10.3295 5.3571ZM10.3296 5.357L10.3295 5.35705L10.4173 5.47874L10.4173 5.47869L10.3296 5.357ZM10.4358 5.28276C10.4025 5.30518 10.3697 5.32822 10.3297 5.35692L10.4172 5.47876C10.4564 5.4506 10.488 5.42845 10.5197 5.40712L10.4358 5.28276ZM10.4559 5.26913L10.4357 5.2828L10.5197 5.40708L10.5399 5.39341L10.4559 5.26913ZM11.4347 4.95797C11.2403 4.9079 11.0437 4.955 10.8757 5.02688C10.7072 5.09896 10.5579 5.20019 10.4559 5.26915L10.54 5.39339C10.6429 5.32373 10.7812 5.23046 10.9347 5.16479C11.0887 5.0989 11.2488 5.06498 11.3973 5.10323L11.4347 4.95797ZM2.36537 5.61286C2.3451 5.58917 2.34733 5.55199 2.3721 5.53033L2.27338 5.4174C2.18755 5.49243 2.17694 5.62338 2.25142 5.71039L2.36537 5.61286ZM3.23411 5.86693C3.10979 5.86492 2.94308 5.86205 2.77964 5.82778C2.61568 5.79341 2.46513 5.72941 2.36537 5.61286L2.25142 5.71039C2.38198 5.86294 2.57 5.93709 2.74886 5.97459C2.92826 6.0122 3.10863 6.01493 3.23169 6.01691L3.23411 5.86693ZM3.25861 5.86734C3.25066 5.8672 3.24247 5.86706 3.23411 5.86693L3.23169 6.01691C3.24006 6.01705 3.24816 6.01718 3.256 6.01731L3.25861 5.86734ZM3.38362 5.8674C3.33533 5.86797 3.29676 5.868 3.25861 5.86734L3.256 6.01731C3.29608 6.01801 3.3362 6.01797 3.3854 6.01739L3.38362 5.8674ZM3.52883 5.86554C3.51279 5.86563 3.47624 5.8661 3.44409 5.86654C3.42793 5.86676 3.41276 5.86698 3.40163 5.86714C3.39606 5.86722 3.3915 5.86728 3.38834 5.86733C3.38675 5.86735 3.38552 5.86737 3.38468 5.86738C3.38426 5.86739 3.38394 5.86739 3.38372 5.8674C3.38361 5.8674 3.38353 5.8674 3.38348 5.8674C3.38345 5.8674 3.38343 5.8674 3.38341 5.8674C3.3834 5.8674 3.3834 5.8674 3.38339 5.8674C3.38338 5.8674 3.38338 5.8674 3.38337 5.8674C3.38335 5.8674 3.30952 5.94332 3.38519 6.01739L3.38383 5.8674C3.4595 5.94147 3.38567 6.01739 3.38565 6.01739C3.38565 6.01739 3.38564 6.01739 3.38564 6.01739C3.38564 6.01739 3.38564 6.01739 3.38565 6.01739C3.38566 6.01739 3.38568 6.01739 3.38571 6.01739C3.38576 6.01738 3.38584 6.01738 3.38595 6.01738C3.38616 6.01738 3.38648 6.01737 3.38689 6.01737C3.38773 6.01735 3.38896 6.01734 3.39054 6.01731C3.39369 6.01727 3.39824 6.0172 3.40379 6.01712C3.4149 6.01696 3.43004 6.01674 3.44615 6.01652C3.47854 6.01608 3.51437 6.01562 3.52966 6.01553L3.52883 5.86554ZM4.03541 6.03482C3.89845 5.9498 3.7619 5.86424 3.52883 5.86554L3.52966 6.01553C3.71697 6.01449 3.82199 6.07889 3.95629 6.16226L4.03541 6.03482ZM4.06851 6.0553C4.05742 6.04848 4.04644 6.04167 4.03541 6.03482L3.95629 6.16226C3.96729 6.16908 3.97855 6.17607 3.98998 6.1831L4.06851 6.0553ZM4.27048 6.18625C4.19644 6.13721 4.12753 6.09156 4.06851 6.0553L3.98998 6.1831C4.04636 6.21774 4.11293 6.26182 4.18765 6.31131L4.27048 6.18625ZM5.30183 6.65264C5.18021 6.67125 5.01062 6.61715 4.81826 6.51964C4.62979 6.42411 4.436 6.29587 4.27048 6.18625L4.18765 6.31131C4.35177 6.42 4.55286 6.55329 4.75044 6.65344C4.94413 6.75161 5.15177 6.82735 5.32452 6.80092L5.30183 6.65264ZM5.41058 6.18099C5.41042 6.17989 5.41096 6.18691 5.4088 6.20672C5.4069 6.22424 5.40349 6.24681 5.3987 6.27307C5.38913 6.3255 5.3746 6.38961 5.35754 6.45197C5.34036 6.51476 5.32127 6.57334 5.30299 6.61572C5.29371 6.63723 5.28589 6.65159 5.28022 6.65968C5.2774 6.66372 5.27662 6.66399 5.27826 6.66259C5.27954 6.66149 5.28751 6.65483 5.30183 6.65264L5.32452 6.80092C5.34785 6.79734 5.36512 6.7857 5.37593 6.77644C5.38709 6.76686 5.39605 6.75578 5.40311 6.7457C5.41722 6.72555 5.42972 6.70061 5.44072 6.67514C5.46298 6.62353 5.48422 6.55736 5.50223 6.49155C5.52035 6.4253 5.53586 6.35696 5.54626 6.3C5.55145 6.27157 5.5555 6.24521 5.55792 6.22294C5.5601 6.20296 5.56182 6.17931 5.55911 6.16005L5.41058 6.18099ZM5.42453 6.01498C5.42001 6.0457 5.41541 6.07691 5.41245 6.1037C5.40976 6.12807 5.40727 6.15757 5.41058 6.18099L5.55911 6.16005C5.55914 6.16029 5.55879 6.15719 5.55913 6.14902C5.55945 6.14147 5.56025 6.13187 5.56154 6.12017C5.56415 6.09663 5.5683 6.06834 5.57293 6.03682L5.42453 6.01498ZM5.49974 5.86032C5.48674 5.86231 5.46973 5.85941 5.45563 5.84796C5.44427 5.83873 5.44114 5.82899 5.44101 5.82859C5.441 5.82857 5.44292 5.83682 5.44238 5.85869C5.44137 5.89967 5.43317 5.95626 5.42453 6.01498L5.57293 6.03682C5.58109 5.98135 5.59105 5.91451 5.59234 5.86239C5.59295 5.83771 5.59205 5.807 5.5831 5.78054C5.5785 5.76693 5.56937 5.7471 5.55021 5.73153C5.52832 5.71375 5.50171 5.70827 5.47705 5.71204L5.49974 5.86032ZM4.06747 5.44042C4.38269 5.58038 4.6566 5.69729 4.89107 5.77312C5.1242 5.84852 5.32784 5.88662 5.49974 5.86032L5.47705 5.71204C5.34071 5.73291 5.16454 5.70392 4.93722 5.6304C4.71123 5.55731 4.44402 5.44349 4.12834 5.30333L4.06747 5.44042ZM3.11222 5.5224C3.27143 5.47697 3.44077 5.42878 3.60799 5.40621C3.77516 5.38365 3.93315 5.38783 4.07052 5.4417L4.12529 5.30205C3.95455 5.2351 3.76771 5.2333 3.58793 5.25756C3.4082 5.28181 3.22847 5.33324 3.07106 5.37816L3.11222 5.5224ZM2.45167 5.53533C2.52343 5.61916 2.63827 5.6238 2.74152 5.611C2.84933 5.59763 2.97902 5.56041 3.11222 5.5224L3.07106 5.37816C2.93383 5.41732 2.81677 5.45052 2.72306 5.46214C2.62479 5.47432 2.58336 5.45851 2.56563 5.43779L2.45167 5.53533ZM2.3721 5.53033C2.39643 5.50907 2.43181 5.51212 2.45167 5.53533L2.56563 5.43779C2.49074 5.3503 2.35966 5.34198 2.27338 5.4174L2.3721 5.53033Z" fill="#984111"/>
<path fill-rule="evenodd" clip-rule="evenodd" d="M4.75559 11.2454C4.6823 11.2503 4.61832 11.1954 4.61268 11.1228C4.58526 10.7697 4.89611 10.4486 5.06821 10.2709L5.08518 10.2533C5.11235 10.2252 5.1402 10.1974 5.17508 10.1633C5.17506 10.1634 5.25646 10.0843 5.27873 10.0623C5.42819 9.91451 5.46058 9.77608 5.49695 9.62065L5.50595 9.58242C5.52168 9.51656 5.53786 9.43694 5.55562 9.34951L5.55562 9.34951C5.63434 8.96204 5.74421 8.42122 5.9842 8.24493C6.04298 8.20175 6.45479 8.45825 6.49892 8.51687C6.51449 8.53755 6.56052 8.57177 6.611 8.60931L6.61101 8.60931C6.70363 8.67818 6.81125 8.75818 6.7732 8.78613C6.52189 8.97074 6.33098 9.41813 6.08294 10.0623C5.95051 10.3656 5.60373 10.5584 5.31596 10.7184C5.07017 10.8551 4.86742 10.9678 4.87807 11.105C4.88371 11.1776 4.82888 11.2405 4.75559 11.2454ZM8.80289 11.146C8.7671 11.2101 8.68621 11.2339 8.62222 11.1991C8.31111 11.0297 8.21117 10.5942 8.15583 10.353L8.15036 10.3293C8.14156 10.2911 8.13341 10.2526 8.12385 10.2048C8.12385 10.2049 8.10191 10.0936 8.09557 10.0629C8.05302 9.85704 7.95456 9.75448 7.84401 9.63932L7.81686 9.61095C7.77009 9.56179 7.71127 9.50405 7.64643 9.4404L7.64641 9.44038L7.6464 9.44037C7.35977 9.159 6.95561 8.76227 6.95561 8.48141C6.95561 8.35383 7.39082 8.20292 7.46402 8.19784C7.48985 8.19604 7.54362 8.17608 7.60259 8.15418C7.7108 8.11401 7.83651 8.06733 7.83922 8.11446C7.85717 8.42577 8.12841 8.82955 8.53358 9.38842C8.71582 9.66467 8.68865 10.0605 8.6661 10.389C8.64684 10.6696 8.63095 10.901 8.75182 10.9668C8.81581 11.0016 8.83868 11.0819 8.80289 11.146ZM11.3892 8.7971C11.4597 8.77893 11.5027 8.70638 11.4851 8.63507C11.4675 8.56375 11.3961 8.52066 11.3255 8.53883C11.1923 8.57314 11.0461 8.39305 10.8688 8.17472C10.6613 7.91911 10.4112 7.61108 10.0895 7.53332C9.41201 7.40091 8.93826 7.29059 8.71282 7.07515C8.67869 7.04254 8.61859 7.16241 8.56685 7.26559L8.56685 7.26559L8.56685 7.2656C8.53865 7.32183 8.51294 7.3731 8.49528 7.39202C8.44521 7.44566 8.26412 7.89576 8.31685 7.94615C8.53214 8.15188 9.08382 8.16617 9.47907 8.17641L9.47909 8.17641C9.56827 8.17872 9.64948 8.18083 9.71707 8.18488L9.75628 8.18711C9.91567 8.19593 10.0576 8.20379 10.2291 8.32532C10.2543 8.34313 10.3436 8.40769 10.3465 8.4098L10.3466 8.40985C10.3862 8.43829 10.4184 8.46088 10.4509 8.48276L10.4711 8.49643C10.676 8.63504 11.0461 8.88542 11.3892 8.7971ZM2.29589 8.35383C2.24059 8.30549 2.23416 8.22142 2.28154 8.16607C2.51186 7.89697 2.95867 7.88977 3.20604 7.88578C3.21441 7.88564 3.22255 7.88551 3.23045 7.88537C3.26956 7.88469 3.30891 7.88472 3.35765 7.8853C3.35763 7.8853 3.47106 7.88699 3.50239 7.88716C3.71258 7.88833 3.83337 7.81335 3.96899 7.72916C3.98001 7.72232 3.99112 7.71542 4.00239 7.7085C4.06009 7.67305 4.12783 7.62818 4.20221 7.57892C4.53185 7.3606 4.99196 7.05588 5.28632 7.10092C5.35841 7.11195 5.46823 7.58452 5.45799 7.65718C5.45437 7.68281 5.46272 7.73956 5.47188 7.8018C5.48868 7.91599 5.5082 8.04866 5.46154 8.04152C5.1533 7.99435 4.70195 8.17571 4.07105 8.45582C3.76294 8.57665 3.3814 8.46777 3.06479 8.37742C2.79435 8.30024 2.57128 8.23659 2.4818 8.34114C2.43442 8.39649 2.35119 8.40217 2.29589 8.35383Z" fill="#FFC125"/>
<path d="M4.61268 11.1228L4.53791 11.1286V11.1286L4.61268 11.1228ZM4.75559 11.2454L4.75057 11.1706L4.75559 11.2454ZM5.06821 10.2709L5.12211 10.323L5.12209 10.3231L5.06821 10.2709ZM5.08518 10.2533L5.13912 10.3054L5.13908 10.3055L5.08518 10.2533ZM5.17508 10.1633L5.12268 10.1097L5.22777 10.2167L5.17508 10.1633ZM5.27873 10.0623L5.22599 10.009L5.226 10.009L5.27873 10.0623ZM5.49695 9.62065L5.42392 9.60356L5.42395 9.60345L5.49695 9.62065ZM5.50595 9.58242L5.43295 9.56522L5.43301 9.565L5.50595 9.58242ZM5.55562 9.34951L5.48199 9.33455L5.48315 9.33019L5.55562 9.34951ZM5.55562 9.34951L5.62925 9.36446L5.62809 9.36883L5.55562 9.34951ZM5.9842 8.24493L5.9398 8.18448H5.9398L5.9842 8.24493ZM6.49892 8.51687L6.55884 8.47176V8.47176L6.49892 8.51687ZM6.611 8.60931L6.56935 8.67179L6.56626 8.66949L6.611 8.60931ZM6.61101 8.60931L6.65267 8.54682L6.65576 8.54912L6.61101 8.60931ZM6.7732 8.78613L6.7288 8.72569L6.7732 8.78613ZM6.08294 10.0623L6.153 10.0893L6.15167 10.0923L6.08294 10.0623ZM5.31596 10.7184L5.27952 10.6529L5.31596 10.7184ZM4.87807 11.105L4.8033 11.1108V11.1108L4.87807 11.105ZM8.62222 11.1991L8.58636 11.2649V11.2649L8.62222 11.1991ZM8.80289 11.146L8.86838 11.1825V11.1825L8.80289 11.146ZM8.15583 10.353L8.22893 10.3362L8.22893 10.3363L8.15583 10.353ZM8.15036 10.3293L8.22344 10.3124L8.22346 10.3124L8.15036 10.3293ZM8.12385 10.2048L8.05031 10.2196L8.19732 10.1898L8.12385 10.2048ZM8.09557 10.0629L8.16902 10.0477L8.16902 10.0477L8.09557 10.0629ZM7.84401 9.63932L7.78991 9.69126L7.78983 9.69118L7.84401 9.63932ZM7.81686 9.61095L7.76267 9.66281L7.76252 9.66264L7.81686 9.61095ZM7.64643 9.4404L7.59389 9.49392L7.59385 9.49388L7.64643 9.4404ZM7.64641 9.44038L7.69847 9.38639L7.699 9.3869L7.64641 9.44038ZM7.6464 9.44037L7.59434 9.49436L7.59386 9.49389L7.6464 9.44037ZM7.46402 8.19784L7.45882 8.12302L7.46402 8.19784ZM7.60259 8.15418L7.6287 8.22449L7.60259 8.15418ZM7.83922 8.11446L7.76435 8.11877V8.11877L7.83922 8.11446ZM8.53358 9.38842L8.59436 9.34435L8.59618 9.34712L8.53358 9.38842ZM8.6661 10.389L8.74092 10.3941V10.3941L8.6661 10.389ZM8.75182 10.9668L8.71597 11.0327V11.0327L8.75182 10.9668ZM11.3892 8.7971L11.4079 8.86973L11.3892 8.7971ZM11.3255 8.53883L11.3068 8.4662L11.3255 8.53883ZM10.8688 8.17472L10.8106 8.22199L10.8688 8.17472ZM10.0895 7.53332L10.1039 7.45965L10.1071 7.46042L10.0895 7.53332ZM8.71282 7.07515L8.66101 7.12938H8.661L8.71282 7.07515ZM8.56685 7.26559L8.49697 7.23763L8.49981 7.23197L8.56685 7.26559ZM8.56685 7.26559L8.63673 7.29354L8.63393 7.29913L8.56685 7.26559ZM8.56685 7.2656L8.63393 7.29914L8.63389 7.29921L8.56685 7.2656ZM8.49528 7.39202L8.44045 7.34085V7.34085L8.49528 7.39202ZM8.31685 7.94615L8.36866 7.89192L8.31685 7.94615ZM9.47907 8.17641L9.48101 8.10143L9.48195 8.10147L9.47907 8.17641ZM9.47909 8.17641L9.47715 8.25139L9.4762 8.25136L9.47909 8.17641ZM9.71707 8.18488L9.71281 8.25976L9.71258 8.25974L9.71707 8.18488ZM9.75628 8.18711L9.75213 8.26199L9.75202 8.26199L9.75628 8.18711ZM10.2291 8.32532L10.1858 8.38651L10.2291 8.32532ZM10.3465 8.4098L10.3027 8.47064L10.3026 8.47059L10.3465 8.4098ZM10.3466 8.40985L10.3029 8.47077L10.3028 8.4707L10.3466 8.40985ZM10.4509 8.48276L10.4928 8.42058L10.4929 8.42062L10.4509 8.48276ZM10.4711 8.49643L10.5131 8.43429L10.5131 8.4343L10.4711 8.49643ZM2.28154 8.16607L2.33852 8.21484H2.33852L2.28154 8.16607ZM2.29589 8.35383L2.34525 8.29736L2.34525 8.29736L2.29589 8.35383ZM3.20604 7.88578L3.20483 7.81079H3.20483L3.20604 7.88578ZM3.23045 7.88537L3.23175 7.96036H3.23175L3.23045 7.88537ZM3.35765 7.8853L3.35855 7.81031L3.35697 7.9603L3.35765 7.8853ZM3.50239 7.88716L3.50281 7.81216H3.50281L3.50239 7.88716ZM3.96899 7.72916L4.00855 7.79288H4.00855L3.96899 7.72916ZM4.00239 7.7085L3.96313 7.6446H3.96313L4.00239 7.7085ZM4.20221 7.57892L4.16079 7.51639L4.20221 7.57892ZM5.28632 7.10092L5.29766 7.02678H5.29766L5.28632 7.10092ZM5.45799 7.65718L5.53225 7.66765V7.66765L5.45799 7.65718ZM5.47188 7.8018L5.54608 7.79088H5.54608L5.47188 7.8018ZM5.46154 8.04152L5.45019 8.11565L5.46154 8.04152ZM4.07105 8.45582L4.10151 8.52444L4.09843 8.52565L4.07105 8.45582ZM3.06479 8.37742L3.08537 8.3053H3.08537L3.06479 8.37742ZM2.4818 8.34114L2.53877 8.38991H2.53877L2.4818 8.34114ZM4.68746 11.117C4.68987 11.1481 4.71774 11.1728 4.75057 11.1706L4.76061 11.3203C4.64687 11.3279 4.54677 11.2428 4.53791 11.1286L4.68746 11.117ZM5.12209 10.3231C5.0356 10.4124 4.91975 10.5323 4.82841 10.6721C4.73678 10.8123 4.67558 10.964 4.68746 11.117L4.53791 11.1286C4.52236 10.9284 4.60288 10.743 4.70284 10.59C4.80309 10.4366 4.92871 10.3071 5.01432 10.2187L5.12209 10.3231ZM5.13908 10.3055L5.12211 10.323L5.0143 10.2187L5.03127 10.2012L5.13908 10.3055ZM5.22747 10.217C5.19292 10.2507 5.16563 10.278 5.13912 10.3054L5.03123 10.2012C5.05907 10.1724 5.08747 10.1441 5.12268 10.1097L5.22747 10.217ZM5.33147 10.1156C5.32006 10.1269 5.29389 10.1524 5.27084 10.1748C5.25926 10.1861 5.24838 10.1967 5.24039 10.2045C5.2364 10.2083 5.23313 10.2115 5.23086 10.2137C5.22972 10.2148 5.22884 10.2157 5.22824 10.2163C5.22793 10.2166 5.2277 10.2168 5.22755 10.2169C5.22747 10.217 5.22741 10.2171 5.22737 10.2171C5.22735 10.2171 5.22734 10.2171 5.22732 10.2171C5.22732 10.2172 5.22731 10.2172 5.22731 10.2172C5.2273 10.2172 5.22729 10.2172 5.22729 10.2172C5.22727 10.2172 5.12145 10.2158 5.12239 10.11L5.22777 10.2167C5.2287 10.1109 5.12288 10.1095 5.12286 10.1095C5.12286 10.1095 5.12285 10.1095 5.12285 10.1095C5.12285 10.1095 5.12285 10.1095 5.12286 10.1095C5.12286 10.1095 5.12288 10.1095 5.1229 10.1095C5.12293 10.1094 5.12299 10.1094 5.12307 10.1093C5.12322 10.1092 5.12345 10.1089 5.12375 10.1086C5.12435 10.1081 5.12523 10.1072 5.12636 10.1061C5.12862 10.1039 5.13189 10.1007 5.13587 10.0969C5.14384 10.0891 5.15469 10.0786 5.16624 10.0673C5.18946 10.0447 5.21513 10.0197 5.22599 10.009L5.33147 10.1156ZM5.56998 9.63774C5.53325 9.79469 5.49719 9.95175 5.33147 10.1156L5.226 10.009C5.35918 9.87727 5.38791 9.75747 5.42392 9.60356L5.56998 9.63774ZM5.57896 9.59962L5.56995 9.63785L5.42395 9.60345L5.43295 9.56522L5.57896 9.59962ZM5.62912 9.36444C5.61144 9.45147 5.59499 9.53247 5.5789 9.59984L5.43301 9.565C5.44837 9.50064 5.46428 9.42241 5.48212 9.33458L5.62912 9.36444ZM5.62809 9.36883L5.62809 9.36884L5.48315 9.33019L5.48315 9.33018L5.62809 9.36883ZM6.02861 8.30537C5.92945 8.37821 5.84779 8.53638 5.78071 8.74135C5.71499 8.94217 5.66864 9.16988 5.62912 9.36444L5.48212 9.33457C5.52131 9.14166 5.56926 8.90523 5.63815 8.6947C5.70569 8.48832 5.79896 8.28794 5.9398 8.18448L6.02861 8.30537ZM6.43901 8.56198C6.43968 8.56287 6.43509 8.55753 6.41956 8.54504C6.40582 8.534 6.38745 8.52045 6.3655 8.50527C6.32166 8.47497 6.26606 8.4399 6.2099 8.40787C6.15335 8.37562 6.09843 8.3477 6.05553 8.33066C6.03376 8.32201 6.01807 8.31738 6.00835 8.31567C6.0035 8.31481 6.00275 8.31517 6.00491 8.315C6.00659 8.31487 6.01693 8.31395 6.0286 8.30537L5.9398 8.18448C5.95883 8.17051 5.97927 8.16652 5.99346 8.16544C6.00813 8.16432 6.0223 8.16581 6.03443 8.16795C6.05864 8.17223 6.08512 8.18101 6.11091 8.19126C6.16314 8.212 6.22495 8.24377 6.28421 8.27758C6.34387 8.3116 6.40317 8.34896 6.4508 8.38189C6.47457 8.39832 6.49608 8.41409 6.51354 8.42813C6.5292 8.44072 6.54714 8.45622 6.55884 8.47176L6.43901 8.56198ZM6.56626 8.66949C6.54134 8.65097 6.51602 8.63216 6.49498 8.6153C6.47585 8.59998 6.45323 8.58088 6.43901 8.56198L6.55884 8.47176C6.5587 8.47157 6.56064 8.47401 6.56666 8.47954C6.57222 8.48466 6.57958 8.49088 6.58876 8.49823C6.60725 8.51305 6.63018 8.53011 6.65575 8.54912L6.56626 8.66949ZM6.56941 8.67171L6.5694 8.67171L6.65261 8.5469L6.65261 8.54691L6.56941 8.67171ZM6.7288 8.72569C6.71821 8.73347 6.70823 8.74755 6.70635 8.76561C6.70485 8.78017 6.70952 8.78927 6.70971 8.78965C6.70972 8.78967 6.70524 8.78247 6.6894 8.76739C6.65971 8.73913 6.61389 8.70491 6.56626 8.6695L6.65576 8.54912C6.70075 8.58257 6.75505 8.62279 6.79282 8.65874C6.8107 8.67576 6.83178 8.69811 6.84416 8.72315C6.85053 8.73603 6.8581 8.7565 6.85556 8.78106C6.85265 8.80912 6.83771 8.83181 6.8176 8.84658L6.7288 8.72569ZM6.01295 10.0354C6.13688 9.71351 6.24789 9.43715 6.36007 9.21774C6.47161 8.99957 6.58865 8.82864 6.7288 8.72569L6.8176 8.84658C6.70644 8.92823 6.60238 9.0733 6.49362 9.28602C6.38551 9.4975 6.27704 9.76693 6.15293 10.0893L6.01295 10.0354ZM5.27952 10.6529C5.42422 10.5724 5.57804 10.4867 5.71224 10.3845C5.8464 10.2822 5.95516 10.1675 6.01421 10.0323L6.15167 10.0923C6.07829 10.2604 5.94745 10.3938 5.80317 10.5038C5.65893 10.6137 5.49548 10.7044 5.35241 10.784L5.27952 10.6529ZM4.8033 11.1108C4.79476 11.0008 4.87269 10.9163 4.95474 10.8523C5.04043 10.7856 5.15845 10.7202 5.27952 10.6529L5.35241 10.784C5.22768 10.8533 5.12143 10.9126 5.04695 10.9706C4.96885 11.0315 4.95074 11.072 4.95285 11.0992L4.8033 11.1108ZM4.75057 11.1706C4.7828 11.1684 4.80566 11.1413 4.8033 11.1108L4.95285 11.0992C4.96176 11.214 4.87495 11.3126 4.76061 11.3203L4.75057 11.1706ZM8.65807 11.1332C8.68546 11.1481 8.72136 11.1382 8.73739 11.1095L8.86838 11.1825C8.81284 11.2821 8.68696 11.3197 8.58636 11.2649L8.65807 11.1332ZM8.22893 10.3363C8.25674 10.4574 8.29421 10.6199 8.36171 10.7727C8.42942 10.9259 8.52333 11.0598 8.65807 11.1332L8.58636 11.2649C8.41 11.1689 8.29838 11.0005 8.22451 10.8333C8.15042 10.6656 8.11026 10.4898 8.08273 10.3698L8.22893 10.3363ZM8.22346 10.3124L8.22893 10.3362L8.08274 10.3698L8.07727 10.3461L8.22346 10.3124ZM8.19739 10.1901C8.20687 10.2375 8.21486 10.2752 8.22344 10.3124L8.07729 10.3461C8.06827 10.3071 8.05996 10.2678 8.05031 10.2196L8.19739 10.1901ZM8.16902 10.0477C8.17227 10.0634 8.17941 10.0993 8.18566 10.1308C8.1888 10.1466 8.19174 10.1615 8.1939 10.1725C8.19498 10.1779 8.19586 10.1824 8.19648 10.1855C8.19678 10.187 8.19702 10.1883 8.19718 10.1891C8.19726 10.1895 8.19733 10.1898 8.19737 10.19C8.19739 10.1901 8.1974 10.1902 8.19742 10.1903C8.19742 10.1903 8.19743 10.1903 8.19743 10.1903C8.19743 10.1903 8.19743 10.1903 8.19743 10.1903C8.19743 10.1904 8.19744 10.1904 8.19744 10.1904C8.19744 10.1904 8.13858 10.2784 8.05037 10.2199L8.19732 10.1898C8.10911 10.1313 8.05025 10.2193 8.05026 10.2193C8.05026 10.2193 8.05026 10.2193 8.05026 10.2193C8.05026 10.2193 8.05026 10.2193 8.05026 10.2193C8.05025 10.2193 8.05025 10.2193 8.05025 10.2193C8.05024 10.2192 8.05022 10.2191 8.0502 10.219C8.05016 10.2188 8.0501 10.2185 8.05002 10.2181C8.04985 10.2173 8.04962 10.2161 8.04931 10.2145C8.0487 10.2114 8.04782 10.207 8.04674 10.2015C8.04459 10.1906 8.04166 10.1758 8.03852 10.16C8.03222 10.1282 8.02522 10.093 8.02213 10.0781L8.16902 10.0477ZM7.89812 9.58739C8.00975 9.70367 8.12183 9.81945 8.16902 10.0477L8.02213 10.0781C7.9842 9.89463 7.89938 9.8053 7.78991 9.69126L7.89812 9.58739ZM7.87104 9.55909L7.8982 9.58747L7.78983 9.69118L7.76267 9.66281L7.87104 9.55909ZM7.69897 9.38688C7.7635 9.45023 7.82335 9.50897 7.8712 9.55926L7.76252 9.66264C7.71683 9.61461 7.65903 9.55787 7.59389 9.49392L7.69897 9.38688ZM7.699 9.3869L7.69902 9.38693L7.59385 9.49388L7.59383 9.49386L7.699 9.3869ZM7.69846 9.38638L7.69847 9.38639L7.59435 9.49437L7.59434 9.49436L7.69846 9.38638ZM7.03061 8.48141C7.03061 8.5346 7.0501 8.59962 7.08971 8.67543C7.12894 8.7505 7.18513 8.83094 7.25187 8.91357C7.38553 9.07907 7.555 9.24555 7.69894 9.38685L7.59386 9.49389C7.45117 9.35383 7.27525 9.18125 7.13517 9.00782C7.06505 8.92099 7.00228 8.832 6.95677 8.7449C6.91164 8.65853 6.88061 8.56864 6.88061 8.48141H7.03061ZM7.46922 8.27266C7.46936 8.27265 7.46871 8.27269 7.46708 8.27293C7.46551 8.27316 7.4634 8.27352 7.4607 8.27405C7.45528 8.27512 7.44831 8.27671 7.43984 8.27889C7.42292 8.28324 7.40155 8.28954 7.3772 8.29757C7.32845 8.31366 7.26985 8.33598 7.21373 8.36181C7.15696 8.38795 7.10597 8.41622 7.0704 8.44351C7.05259 8.45717 7.0412 8.46865 7.03484 8.47729C7.0283 8.48616 7.03061 8.48709 7.03061 8.48141H6.88061C6.88061 8.44382 6.89653 8.41213 6.91407 8.38831C6.9318 8.36426 6.95498 8.34298 6.97912 8.32448C7.02743 8.28743 7.08982 8.25373 7.151 8.22556C7.21284 8.19709 7.27676 8.17276 7.33021 8.15513C7.38043 8.13856 7.42984 8.12503 7.45882 8.12302L7.46922 8.27266ZM7.6287 8.22449C7.5996 8.2353 7.57002 8.24629 7.54443 8.25475C7.52116 8.26245 7.49282 8.27102 7.46922 8.27266L7.45882 8.12302C7.45858 8.12303 7.46169 8.12273 7.4696 8.1207C7.47693 8.11882 7.48615 8.11604 7.49732 8.11234C7.51981 8.1049 7.54662 8.09496 7.57649 8.08387L7.6287 8.22449ZM7.76435 8.11877C7.76511 8.1319 7.77147 8.14794 7.7856 8.15934C7.797 8.16854 7.80717 8.16957 7.80759 8.16962C7.80762 8.16963 7.79914 8.16946 7.77786 8.17453C7.73799 8.18404 7.68434 8.20383 7.6287 8.22449L7.57649 8.08387C7.62905 8.06436 7.69235 8.04072 7.74307 8.02863C7.76708 8.0229 7.79731 8.01739 7.82505 8.02064C7.83932 8.02231 7.86062 8.02712 7.87982 8.04263C7.90177 8.06034 7.91266 8.08523 7.9141 8.11014L7.76435 8.11877ZM8.47285 9.43244C8.27042 9.15321 8.09911 8.90959 7.97619 8.69601C7.85397 8.48364 7.77436 8.29238 7.76435 8.11877L7.9141 8.11014C7.92204 8.24784 7.98702 8.41412 8.1062 8.62119C8.22467 8.82705 8.39157 9.06475 8.5943 9.3444L8.47285 9.43244ZM8.59127 10.3839C8.60261 10.2187 8.61454 10.043 8.60185 9.87476C8.58916 9.70656 8.55223 9.55289 8.47097 9.42972L8.59618 9.34712C8.69717 9.5002 8.73777 9.68258 8.75142 9.86348C8.76507 10.0443 8.75213 10.2308 8.74092 10.3941L8.59127 10.3839ZM8.71597 11.0327C8.61905 10.9799 8.59063 10.8685 8.58169 10.7649C8.57235 10.6566 8.58179 10.522 8.59127 10.3839L8.74092 10.3941C8.73115 10.5365 8.72301 10.6579 8.73113 10.752C8.73965 10.8506 8.76373 10.8879 8.78768 10.9009L8.71597 11.0327ZM8.73739 11.1095C8.75313 11.0812 8.7428 11.0473 8.71597 11.0327L8.78768 10.9009C8.88883 10.956 8.92422 11.0825 8.86838 11.1825L8.73739 11.1095ZM11.5579 8.61713C11.5852 8.72782 11.5188 8.84116 11.4079 8.86973L11.3705 8.72446C11.4007 8.71669 11.4202 8.68495 11.4123 8.65301L11.5579 8.61713ZM11.3068 8.4662C11.4184 8.43748 11.5305 8.50586 11.5579 8.61713L11.4123 8.65301C11.4046 8.62164 11.3738 8.60384 11.3442 8.61146L11.3068 8.4662ZM10.927 8.12745C11.017 8.23824 11.0938 8.33258 11.1639 8.39584C11.2374 8.46219 11.2804 8.473 11.3068 8.4662L11.3442 8.61146C11.2374 8.63898 11.1406 8.5769 11.0634 8.50719C10.9828 8.43441 10.8979 8.32953 10.8106 8.22199L10.927 8.12745ZM10.1071 7.46042C10.2854 7.50351 10.4394 7.6092 10.5728 7.73219C10.7061 7.85515 10.8238 8.00036 10.927 8.12745L10.8106 8.22199C10.7062 8.09346 10.5951 7.95685 10.4711 7.84245C10.3471 7.72809 10.2153 7.64089 10.0719 7.60623L10.1071 7.46042ZM8.76464 7.02093C8.86435 7.11622 9.02529 7.19352 9.25366 7.26368C9.48071 7.33343 9.76488 7.39346 10.1039 7.45972L10.0751 7.60693C9.73661 7.54078 9.44517 7.47944 9.20961 7.40707C8.97539 7.33511 8.78673 7.24952 8.66101 7.12938L8.76464 7.02093ZM8.49981 7.23197C8.52494 7.18185 8.55512 7.12139 8.58396 7.07796C8.59762 7.0574 8.61597 7.03275 8.63847 7.01621C8.65005 7.0077 8.6689 6.99669 8.69353 6.99493C8.72166 6.99292 8.7466 7.0037 8.76464 7.02093L8.661 7.12938C8.67051 7.13846 8.68611 7.14585 8.70422 7.14455C8.71882 7.14351 8.72697 7.13732 8.72731 7.13707C8.72733 7.13706 8.72102 7.14272 8.70892 7.16094C8.68624 7.19508 8.6605 7.24615 8.6339 7.2992L8.49981 7.23197ZM8.49722 7.23774L8.49722 7.23773L8.63649 7.29344L8.63649 7.29344L8.49722 7.23774ZM8.49977 7.23205L8.49977 7.23205L8.63393 7.29913L8.63393 7.29914L8.49977 7.23205ZM8.44045 7.34085C8.44029 7.34102 8.44235 7.33869 8.44675 7.3318C8.45083 7.32543 8.45568 7.31711 8.46133 7.30679C8.4727 7.28601 8.48552 7.26046 8.4998 7.23198L8.63389 7.29921C8.61998 7.32696 8.60585 7.35517 8.5929 7.37881C8.58113 7.40031 8.56625 7.42591 8.55011 7.4432L8.44045 7.34085ZM8.26503 8.00037C8.24796 7.98406 8.24049 7.96462 8.23696 7.95083C8.23331 7.93658 8.23232 7.92237 8.23232 7.91006C8.23233 7.88546 8.23638 7.85786 8.24199 7.83069C8.25335 7.77565 8.27391 7.70926 8.29691 7.64502C8.32006 7.58036 8.34655 7.51548 8.3707 7.46286C8.38276 7.43659 8.39456 7.41268 8.40535 7.39304C8.41503 7.37543 8.42718 7.35507 8.44045 7.34085L8.55011 7.4432C8.55087 7.44238 8.5464 7.44782 8.5368 7.46529C8.52831 7.48074 8.51816 7.50118 8.50703 7.52544C8.48479 7.57387 8.45992 7.63472 8.43813 7.69559C8.41618 7.75688 8.39822 7.81581 8.38889 7.86101C8.38416 7.88396 8.38232 7.90021 8.38232 7.91008C8.38232 7.91501 8.3828 7.91568 8.38226 7.91359C8.38184 7.91196 8.37914 7.90193 8.36866 7.89192L8.26503 8.00037ZM9.47713 8.25139C9.28034 8.24629 9.03917 8.24013 8.81988 8.20884C8.60491 8.17816 8.39137 8.1211 8.26503 8.00037L8.36866 7.89192C8.45761 7.97693 8.62756 8.02988 8.84107 8.06034C9.05025 8.09019 9.28254 8.0963 9.48101 8.10144L9.47713 8.25139ZM9.4762 8.25136L9.47619 8.25136L9.48195 8.10147L9.48197 8.10147L9.4762 8.25136ZM9.71258 8.25974C9.64654 8.25578 9.56673 8.25371 9.47715 8.25139L9.48103 8.10144C9.5698 8.10374 9.65242 8.10587 9.72156 8.11001L9.71258 8.25974ZM9.75202 8.26199L9.71281 8.25976L9.72133 8.11L9.76054 8.11223L9.75202 8.26199ZM10.1858 8.38651C10.0329 8.27822 9.90996 8.27073 9.75213 8.26199L9.76043 8.11222C9.92137 8.12114 10.0823 8.12937 10.2725 8.26412L10.1858 8.38651ZM10.3026 8.47059C10.2995 8.46834 10.2105 8.40407 10.1858 8.38651L10.2725 8.26412C10.298 8.28219 10.3878 8.34705 10.3905 8.34901L10.3026 8.47059ZM10.3028 8.4707L10.3027 8.47064L10.3904 8.34896L10.3905 8.34901L10.3028 8.4707ZM10.4089 8.54494C10.3757 8.52252 10.3428 8.49947 10.3029 8.47077L10.3904 8.34893C10.4296 8.3771 10.4612 8.39924 10.4928 8.42058L10.4089 8.54494ZM10.4291 8.55857L10.4089 8.5449L10.4929 8.42062L10.5131 8.43429L10.4291 8.55857ZM11.4079 8.86973C11.2134 8.9198 11.0169 8.8727 10.8488 8.80082C10.6803 8.72873 10.531 8.6275 10.4291 8.55855L10.5131 8.4343C10.6161 8.50396 10.7543 8.59723 10.9078 8.66291C11.0619 8.72879 11.2219 8.76272 11.3705 8.72446L11.4079 8.86973ZM2.33852 8.21484C2.31824 8.23853 2.32048 8.27571 2.34525 8.29736L2.24652 8.41029C2.1607 8.33526 2.15008 8.20432 2.22456 8.1173L2.33852 8.21484ZM3.20725 7.96077C3.08294 7.96277 2.91622 7.96565 2.75279 7.99991C2.58883 8.03429 2.43827 8.09829 2.33852 8.21484L2.22456 8.1173C2.35513 7.96475 2.54314 7.89061 2.72201 7.85311C2.9014 7.81549 3.08177 7.81277 3.20483 7.81079L3.20725 7.96077ZM3.23175 7.96036C3.2238 7.9605 3.21561 7.96063 3.20725 7.96077L3.20483 7.81079C3.21321 7.81065 3.2213 7.81052 3.22914 7.81038L3.23175 7.96036ZM3.35676 7.9603C3.30847 7.95972 3.26991 7.9597 3.23175 7.96036L3.22914 7.81038C3.26922 7.80969 3.30934 7.80972 3.35855 7.81031L3.35676 7.9603ZM3.50197 7.96216C3.48593 7.96207 3.44939 7.9616 3.41724 7.96116C3.40108 7.96094 3.3859 7.96072 3.37477 7.96056C3.3692 7.96048 3.36465 7.96041 3.36148 7.96037C3.3599 7.96034 3.35866 7.96033 3.35782 7.96031C3.3574 7.96031 3.35708 7.9603 3.35687 7.9603C3.35676 7.9603 3.35668 7.9603 3.35662 7.9603C3.35659 7.9603 3.35657 7.9603 3.35656 7.9603C3.35655 7.9603 3.35654 7.96029 3.35653 7.96029C3.35653 7.96029 3.35652 7.96029 3.35652 7.96029C3.3565 7.96029 3.28266 7.88438 3.35834 7.81031L3.35697 7.9603C3.43265 7.88623 3.35881 7.81031 3.3588 7.81031C3.35879 7.81031 3.35879 7.81031 3.35879 7.81031C3.35879 7.81031 3.35879 7.81031 3.35879 7.81031C3.35881 7.81031 3.35882 7.81031 3.35885 7.81031C3.3589 7.81031 3.35898 7.81031 3.35909 7.81032C3.3593 7.81032 3.35962 7.81032 3.36004 7.81033C3.36087 7.81034 3.3621 7.81036 3.36368 7.81038C3.36684 7.81043 3.37138 7.8105 3.37694 7.81058C3.38804 7.81074 3.40318 7.81095 3.41929 7.81117C3.45168 7.81162 3.48752 7.81208 3.50281 7.81216L3.50197 7.96216ZM4.00855 7.79288C3.8716 7.8779 3.73504 7.96346 3.50197 7.96216L3.50281 7.81216C3.69012 7.81321 3.79514 7.74881 3.92944 7.66544L4.00855 7.79288ZM4.04166 7.7724C4.03056 7.77922 4.01959 7.78603 4.00855 7.79288L3.92944 7.66544C3.94043 7.65862 3.95169 7.65163 3.96313 7.6446L4.04166 7.7724ZM4.24362 7.64145C4.16958 7.69049 4.10067 7.73614 4.04166 7.7724L3.96313 7.6446C4.0195 7.60996 4.08607 7.56588 4.16079 7.51639L4.24362 7.64145ZM5.27497 7.17506C5.15336 7.15645 4.98377 7.21055 4.7914 7.30806C4.60293 7.40359 4.40914 7.53183 4.24362 7.64145L4.16079 7.51639C4.32492 7.40769 4.526 7.27441 4.72359 7.17426C4.91727 7.07609 5.12492 7.00035 5.29766 7.02678L5.27497 7.17506ZM5.38372 7.64671C5.38356 7.64781 5.3841 7.64079 5.38195 7.62097C5.38004 7.60345 5.37663 7.58088 5.37184 7.55463C5.36227 7.5022 5.34775 7.43809 5.33069 7.37573C5.31351 7.31294 5.29441 7.25436 5.27613 7.21198C5.26685 7.19047 5.25903 7.17611 5.25337 7.16802C5.25055 7.16398 5.24977 7.1637 5.25141 7.16511C5.25269 7.16621 5.26065 7.17286 5.27497 7.17506L5.29766 7.02678C5.321 7.03035 5.33827 7.042 5.34907 7.05126C5.36024 7.06084 5.3692 7.07192 5.37626 7.082C5.39036 7.10215 5.40287 7.12708 5.41386 7.15256C5.43613 7.20417 5.45737 7.27034 5.47537 7.33615C5.49349 7.40239 5.50901 7.47073 5.5194 7.5277C5.52459 7.55613 5.52865 7.58249 5.53107 7.60476C5.53324 7.62474 5.53497 7.64838 5.53225 7.66765L5.38372 7.64671ZM5.39768 7.81271C5.39316 7.782 5.38856 7.75079 5.3856 7.72399C5.38291 7.69963 5.38042 7.67013 5.38372 7.64671L5.53225 7.66765C5.53228 7.66741 5.53193 7.67051 5.53228 7.67867C5.5326 7.68623 5.5334 7.69583 5.53469 7.70753C5.53729 7.73107 5.54144 7.75935 5.54608 7.79088L5.39768 7.81271ZM5.47288 7.96738C5.45989 7.96539 5.44287 7.96829 5.42878 7.97974C5.41741 7.98897 5.41429 7.99871 5.41415 7.99911C5.41414 7.99913 5.41607 7.99088 5.41553 7.969C5.41452 7.92803 5.40632 7.87144 5.39768 7.81271L5.54608 7.79088C5.55424 7.84635 5.5642 7.91318 5.56548 7.96531C5.56609 7.98998 5.56519 8.02069 5.55625 8.04715C5.55164 8.06077 5.54252 8.0806 5.52335 8.09616C5.50146 8.11395 5.47485 8.11943 5.45019 8.11565L5.47288 7.96738ZM4.04061 8.38728C4.35583 8.24732 4.62974 8.13041 4.86421 8.05458C5.09735 7.97918 5.30098 7.94108 5.47288 7.96738L5.45019 8.11565C5.31385 8.09479 5.13769 8.12378 4.91037 8.1973C4.68438 8.27039 4.41717 8.38421 4.10148 8.52437L4.04061 8.38728ZM3.08537 8.3053C3.24457 8.35073 3.41392 8.39892 3.58114 8.42149C3.74831 8.44405 3.9063 8.43987 4.04367 8.386L4.09843 8.52565C3.92769 8.5926 3.74086 8.5944 3.56108 8.57014C3.38135 8.54588 3.20162 8.49446 3.04421 8.44954L3.08537 8.3053ZM2.42482 8.29237C2.49657 8.20854 2.61142 8.2039 2.71466 8.2167C2.82247 8.23007 2.95217 8.26729 3.08537 8.3053L3.04421 8.44954C2.90697 8.41038 2.78991 8.37718 2.69621 8.36556C2.59794 8.35338 2.55651 8.36919 2.53877 8.38991L2.42482 8.29237ZM2.34525 8.29736C2.36957 8.31863 2.40495 8.31558 2.42482 8.29237L2.53877 8.38991C2.46389 8.4774 2.3328 8.48572 2.24652 8.41029L2.34525 8.29736Z" fill="#984111"/>
<path fill-rule="evenodd" clip-rule="evenodd" d="M7.00002 2.0592C6.87258 2.0592 6.76459 2.15306 6.74683 2.27926L6.33336 5.2171H7.66669L7.25322 2.27926C7.23546 2.15306 7.12747 2.0592 7.00002 2.0592ZM10.4937 3.50634C10.4036 3.41622 10.2609 3.40623 10.1591 3.4829L7.78934 5.2679L8.73215 6.21071L10.5171 3.84097C10.5938 3.73918 10.5838 3.59645 10.4937 3.50634ZM11.7208 6.74683C11.847 6.76459 11.9408 6.87258 11.9408 7.00002C11.9408 7.12747 11.847 7.23546 11.7208 7.25322L8.78295 7.66669V6.33336L11.7208 6.74683ZM10.4937 10.4937C10.5838 10.4036 10.5938 10.2609 10.5171 10.1591L8.73215 7.78934L7.78934 8.73215L10.1591 10.5171C10.2609 10.5938 10.4036 10.5838 10.4937 10.4937ZM7.25322 11.7208C7.23546 11.847 7.12747 11.9408 7.00002 11.9408C6.87258 11.9408 6.76459 11.847 6.74683 11.7208L6.33336 8.78295H7.66669L7.25322 11.7208ZM3.50634 10.4937C3.59645 10.5838 3.73918 10.5938 3.84097 10.5171L6.21071 8.73215L5.2679 7.78934L3.4829 10.1591C3.40623 10.2609 3.41622 10.4036 3.50634 10.4937ZM2.27926 7.25322C2.15306 7.23546 2.0592 7.12747 2.0592 7.00002C2.0592 6.87258 2.15306 6.76459 2.27926 6.74683L5.2171 6.33336V7.66669L2.27926 7.25322ZM3.50634 3.50634C3.41622 3.59645 3.40623 3.73918 3.4829 3.84097L5.2679 6.21071L6.21071 5.2679L3.84097 3.4829C3.73918 3.40623 3.59645 3.41622 3.50634 3.50634Z" fill="#FFC125"/>
<path d="M6.74683 2.27926L6.67256 2.26881V2.26881L6.74683 2.27926ZM6.33336 5.2171L6.25909 5.20665L6.24706 5.2921H6.33336V5.2171ZM7.66669 5.2171V5.2921H7.75299L7.74096 5.20665L7.66669 5.2171ZM7.25322 2.27926L7.32749 2.26881V2.26881L7.25322 2.27926ZM10.1591 3.4829L10.114 3.423V3.423L10.1591 3.4829ZM7.78934 5.2679L7.74421 5.20799L7.67529 5.25991L7.73631 5.32093L7.78934 5.2679ZM8.73215 6.21071L8.67912 6.26374L8.74013 6.32476L8.79205 6.25584L8.73215 6.21071ZM10.5171 3.84097L10.4572 3.79585L10.5171 3.84097ZM11.7208 6.74683L11.7103 6.8211L11.7208 6.74683ZM11.7208 7.25322L11.7312 7.32749L11.7208 7.25322ZM8.78295 7.66669H8.70795V7.75299L8.7934 7.74096L8.78295 7.66669ZM8.78295 6.33336L8.7934 6.25909L8.70795 6.24706V6.33336H8.78295ZM10.5171 10.1591L10.5771 10.114L10.5171 10.1591ZM10.4937 10.4937L10.5467 10.5467L10.4937 10.4937ZM8.73215 7.78934L8.79206 7.74421L8.74014 7.67529L8.67912 7.73631L8.73215 7.78934ZM7.78934 8.73215L7.73631 8.67912L7.67529 8.74013L7.74422 8.79205L7.78934 8.73215ZM10.1591 10.5171L10.2042 10.4572L10.2042 10.4572L10.1591 10.5171ZM7.25322 11.7208L7.17895 11.7103L7.25322 11.7208ZM6.74683 11.7208L6.67256 11.7312L6.74683 11.7208ZM6.33336 8.78295V8.70795H6.24706L6.25909 8.7934L6.33336 8.78295ZM7.66669 8.78295L7.74096 8.7934L7.75299 8.70795H7.66669V8.78295ZM3.84097 10.5171L3.79585 10.4572V10.4572L3.84097 10.5171ZM3.50634 10.4937L3.4533 10.5467H3.4533L3.50634 10.4937ZM6.21071 8.73215L6.25584 8.79206L6.32476 8.74014L6.26374 8.67912L6.21071 8.73215ZM5.2679 7.78934L5.32093 7.73631L5.25991 7.67529L5.20799 7.74422L5.2679 7.78934ZM3.4829 10.1591L3.54281 10.2042L3.54281 10.2042L3.4829 10.1591ZM2.27926 7.25322L2.26881 7.32749H2.26881L2.27926 7.25322ZM2.27926 6.74683L2.26881 6.67256H2.26881L2.27926 6.74683ZM5.2171 6.33336H5.2921V6.24706L5.20665 6.25909L5.2171 6.33336ZM5.2171 7.66669L5.20665 7.74096L5.2921 7.75299V7.66669H5.2171ZM3.4829 3.84097L3.54281 3.79585L3.4829 3.84097ZM3.50634 3.50634L3.4533 3.4533L3.50634 3.50634ZM5.2679 6.21071L5.20799 6.25584L5.25991 6.32476L5.32093 6.26374L5.2679 6.21071ZM6.21071 5.2679L6.26374 5.32093L6.32476 5.25991L6.25584 5.20799L6.21071 5.2679ZM3.84097 3.4829L3.79585 3.54281L3.84097 3.4829ZM6.8211 2.28971C6.83365 2.20053 6.90996 2.1342 7.00002 2.1342V1.9842C6.8352 1.9842 6.69554 2.10559 6.67256 2.26881L6.8211 2.28971ZM6.40763 5.22755L6.8211 2.28971L6.67256 2.26881L6.25909 5.20665L6.40763 5.22755ZM7.66669 5.1421H6.33336V5.2921H7.66669V5.1421ZM7.17895 2.28971L7.59242 5.22755L7.74096 5.20665L7.32749 2.26881L7.17895 2.28971ZM7.00002 2.1342C7.09009 2.1342 7.1664 2.20053 7.17895 2.28971L7.32749 2.26881C7.30451 2.10559 7.16485 1.9842 7.00002 1.9842V2.1342ZM10.2042 3.54281C10.2761 3.48862 10.377 3.49569 10.4407 3.55937L10.5467 3.4533C10.4302 3.33675 10.2456 3.32383 10.114 3.423L10.2042 3.54281ZM7.83446 5.32781L10.2042 3.54281L10.114 3.423L7.74421 5.20799L7.83446 5.32781ZM8.78518 6.15768L7.84237 5.21487L7.73631 5.32093L8.67912 6.26374L8.78518 6.15768ZM10.4572 3.79585L8.67224 6.16559L8.79205 6.25584L10.5771 3.8861L10.4572 3.79585ZM10.4407 3.55937C10.5044 3.62305 10.5114 3.72391 10.4572 3.79585L10.5771 3.8861C10.6762 3.75444 10.6633 3.56985 10.5467 3.4533L10.4407 3.55937ZM12.0158 7.00002C12.0158 6.8352 11.8945 6.69554 11.7312 6.67256L11.7103 6.8211C11.7995 6.83365 11.8658 6.90996 11.8658 7.00002H12.0158ZM11.7312 7.32749C11.8945 7.30451 12.0158 7.16485 12.0158 7.00002H11.8658C11.8658 7.09009 11.7995 7.1664 11.7103 7.17895L11.7312 7.32749ZM8.7934 7.74096L11.7312 7.32749L11.7103 7.17895L8.7725 7.59242L8.7934 7.74096ZM8.70795 6.33336V7.66669H8.85795V6.33336H8.70795ZM11.7312 6.67256L8.7934 6.25909L8.7725 6.40763L11.7103 6.8211L11.7312 6.67256ZM10.4572 10.2042C10.5114 10.2761 10.5044 10.377 10.4407 10.4407L10.5467 10.5467C10.6633 10.4302 10.6762 10.2456 10.5771 10.114L10.4572 10.2042ZM8.67224 7.83446L10.4572 10.2042L10.5771 10.114L8.79206 7.74421L8.67224 7.83446ZM7.84237 8.78518L8.78518 7.84237L8.67912 7.73631L7.73631 8.67912L7.84237 8.78518ZM10.2042 10.4572L7.83446 8.67224L7.74422 8.79205L10.114 10.5771L10.2042 10.4572ZM10.4407 10.4407C10.377 10.5044 10.2761 10.5114 10.2042 10.4572L10.114 10.5771C10.2456 10.6762 10.4302 10.6633 10.5467 10.5467L10.4407 10.4407ZM7.00002 12.0158C7.16485 12.0158 7.30451 11.8945 7.32749 11.7312L7.17895 11.7103C7.1664 11.7995 7.09009 11.8658 7.00002 11.8658V12.0158ZM6.67256 11.7312C6.69554 11.8945 6.8352 12.0158 7.00002 12.0158V11.8658C6.90996 11.8658 6.83365 11.7995 6.8211 11.7103L6.67256 11.7312ZM6.25909 8.7934L6.67256 11.7312L6.8211 11.7103L6.40763 8.7725L6.25909 8.7934ZM7.66669 8.70795H6.33336V8.85795H7.66669V8.70795ZM7.32749 11.7312L7.74096 8.7934L7.59242 8.7725L7.17895 11.7103L7.32749 11.7312ZM3.79585 10.4572C3.72391 10.5114 3.62305 10.5044 3.55937 10.4407L3.4533 10.5467C3.56985 10.6633 3.75444 10.6762 3.8861 10.5771L3.79585 10.4572ZM6.16559 8.67224L3.79585 10.4572L3.8861 10.5771L6.25584 8.79206L6.16559 8.67224ZM5.21487 7.84237L6.15768 8.78518L6.26374 8.67912L5.32093 7.73631L5.21487 7.84237ZM3.54281 10.2042L5.32781 7.83446L5.20799 7.74422L3.423 10.114L3.54281 10.2042ZM3.55937 10.4407C3.49569 10.377 3.48862 10.2761 3.54281 10.2042L3.423 10.114C3.32383 10.2456 3.33675 10.4302 3.4533 10.5467L3.55937 10.4407ZM1.9842 7.00002C1.9842 7.16485 2.10559 7.30451 2.26881 7.32749L2.28971 7.17895C2.20053 7.1664 2.1342 7.09009 2.1342 7.00002H1.9842ZM2.26881 6.67256C2.10559 6.69554 1.9842 6.8352 1.9842 7.00002H2.1342C2.1342 6.90996 2.20053 6.83365 2.28971 6.8211L2.26881 6.67256ZM5.20665 6.25909L2.26881 6.67256L2.28971 6.8211L5.22755 6.40763L5.20665 6.25909ZM5.2921 7.66669V6.33336H5.1421V7.66669H5.2921ZM2.26881 7.32749L5.20665 7.74096L5.22755 7.59242L2.28971 7.17895L2.26881 7.32749ZM3.54281 3.79585C3.48862 3.72391 3.49569 3.62305 3.55937 3.55937L3.4533 3.4533C3.33675 3.56985 3.32383 3.75444 3.423 3.8861L3.54281 3.79585ZM5.32781 6.16559L3.54281 3.79585L3.423 3.8861L5.20799 6.25584L5.32781 6.16559ZM6.15768 5.21487L5.21487 6.15768L5.32093 6.26374L6.26374 5.32093L6.15768 5.21487ZM3.79585 3.54281L6.16559 5.32781L6.25584 5.20799L3.8861 3.423L3.79585 3.54281ZM3.55937 3.55937C3.62305 3.49569 3.72391 3.48862 3.79585 3.54281L3.8861 3.423C3.75444 3.32383 3.56985 3.33675 3.4533 3.4533L3.55937 3.55937Z" fill="#984111"/>
<path fill-rule="evenodd" clip-rule="evenodd" d="M7.00004 8.84216C8.0678 8.84216 8.93338 7.98796 8.93338 6.93426C8.93338 5.88056 8.0678 5.02637 7.00004 5.02637C5.93229 5.02637 5.06671 5.88056 5.06671 6.93426C5.06671 7.98796 5.93229 8.84216 7.00004 8.84216Z" fill="#FFC125" stroke="#984111" stroke-width="0.15"/>
<path d="M6.81346 6.43651C6.79352 6.42416 6.70897 6.36836 6.6882 6.35521C6.61503 6.3089 6.55667 6.27871 6.50247 6.2618C6.47276 6.25253 6.44565 6.24785 6.42112 6.24785C6.30346 6.24785 6.13724 6.32129 5.927 6.47095L5.849 6.36424C6.07991 6.19986 6.26911 6.11627 6.42112 6.11627C6.46028 6.11627 6.50069 6.12324 6.54267 6.13634C6.61045 6.1575 6.67795 6.19241 6.76018 6.24445C6.78262 6.25865 6.86644 6.31397 6.88435 6.32507C6.91349 6.34312 6.93235 6.3518 6.93213 6.3518C7.09132 6.3518 7.10096 6.92136 6.98837 7.096C6.95794 7.14321 6.92059 7.18136 6.87164 7.21977C6.85282 7.23454 6.79371 7.27711 6.785 7.28383C6.74577 7.31406 6.73334 7.33168 6.73334 7.35323C6.73334 7.35696 6.78125 7.36883 6.88809 7.36382C6.90926 7.36283 6.93028 7.36143 6.96124 7.35907C7.03717 7.35331 7.04699 7.35266 7.07148 7.35266V7.48424C7.05217 7.48424 7.04196 7.48491 6.97148 7.49026C6.93932 7.49271 6.91719 7.49418 6.89443 7.49525C6.70657 7.50407 6.6 7.47766 6.6 7.35323C6.6 7.28176 6.63456 7.23283 6.70292 7.18013C6.71408 7.17153 6.77257 7.1294 6.78866 7.11678C6.82693 7.08675 6.8544 7.05869 6.87588 7.02537C6.91036 6.97189 6.93177 6.8327 6.92927 6.68515C6.92812 6.61741 6.92194 6.55523 6.91217 6.51162C6.90924 6.49853 6.9061 6.48775 6.90314 6.47985C6.87785 6.47372 6.85063 6.45954 6.81346 6.43651Z" fill="#984111"/>
<path fill-rule="evenodd" clip-rule="evenodd" d="M7.35156 6.39035C7.32257 6.4093 7.29145 6.42963 7.28035 6.43651C7.24319 6.45954 7.21596 6.47372 7.19067 6.47985C7.18771 6.48775 7.18458 6.49853 7.18164 6.51162C7.17187 6.55523 7.16569 6.61741 7.16454 6.68515C7.16204 6.8327 7.18345 6.97189 7.21793 7.02537C7.23941 7.05869 7.26688 7.08675 7.30515 7.11678C7.31452 7.12412 7.33824 7.14147 7.35864 7.15638C7.37329 7.16708 7.38622 7.17654 7.39089 7.18013C7.45926 7.23283 7.49381 7.28176 7.49381 7.35323C7.49381 7.47766 7.38724 7.50407 7.19938 7.49525C7.17662 7.49418 7.15449 7.49271 7.12234 7.49026C7.05185 7.48491 7.04164 7.48424 7.02233 7.48424V7.35266C7.04682 7.35266 7.05664 7.35331 7.13257 7.35907C7.16353 7.36143 7.18455 7.36283 7.20572 7.36382C7.31256 7.36883 7.36047 7.35696 7.36047 7.35323C7.36047 7.33168 7.34804 7.31406 7.30881 7.28383C7.30559 7.28134 7.29547 7.27395 7.28304 7.26487C7.26187 7.24941 7.23403 7.22907 7.22217 7.21977C7.17322 7.18136 7.13587 7.14321 7.10544 7.096C6.99285 6.92136 7.00249 6.3518 7.16169 6.3518C7.16165 6.3518 7.16204 6.35162 7.16281 6.35123C7.16726 6.34904 7.18463 6.34046 7.20946 6.32507C7.21902 6.31915 7.24735 6.30063 7.27511 6.28249C7.29936 6.26663 7.32317 6.25107 7.33364 6.24445C7.41586 6.19241 7.48336 6.1575 7.55114 6.13634C7.59312 6.12324 7.63353 6.11627 7.67269 6.11627C7.82471 6.11627 8.0139 6.19986 8.24481 6.36424L8.16681 6.47095C7.95657 6.32129 7.79035 6.24785 7.67269 6.24785C7.64816 6.24785 7.62105 6.25253 7.59135 6.2618C7.53715 6.27871 7.47878 6.3089 7.40561 6.35521C7.3964 6.36104 7.37465 6.37525 7.35156 6.39035ZM7.19484 6.4704L7.19326 6.47357L7.19423 6.47139L7.19484 6.4704Z" fill="#984111"/>
<path d="M6.66518 7.72276L6.69869 7.78986L6.66518 7.72276ZM7.34201 7.72405L7.38063 7.65976L7.34201 7.72405ZM7.41069 7.76531L7.47229 7.80809L7.51799 7.74228L7.44931 7.70102L7.41069 7.76531ZM7.36499 7.83112L7.30339 7.78835L7.36499 7.83112ZM6.64173 7.83865L6.69869 7.78986L6.64173 7.83865ZM6.57923 7.76569L6.54572 7.69859L6.45977 7.74152L6.52227 7.81448L6.57923 7.76569ZM6.8307 7.81713L6.8084 7.74553L6.67893 7.78586L6.78191 7.87409L6.8307 7.81713ZM7.18515 7.81554L7.23909 7.86765L7.32084 7.78304L7.20963 7.74465L7.18515 7.81554ZM6.61122 7.77304L6.57247 7.70882L6.50108 7.75189L6.55144 7.81834L6.61122 7.77304ZM7.38239 7.77279L7.44645 7.81181L7.48184 7.7537L7.42744 7.71283L7.38239 7.77279ZM6.52351 7.65085L6.56297 7.71463L6.52351 7.65085ZM7.48094 7.65931L7.43502 7.71861V7.71861L7.48094 7.65931ZM7.52686 7.69487L7.57278 7.63558L7.57278 7.63558L7.52686 7.69487ZM7.57942 7.73558L7.6438 7.77405L7.6779 7.71699L7.62534 7.67628L7.57942 7.73558ZM7.54531 7.79264L7.48093 7.75417L7.48093 7.75417L7.54531 7.79264ZM7.51567 7.84226L7.58005 7.88073L7.58005 7.88073L7.51567 7.84226ZM6.48452 7.85412L6.42437 7.89892H6.42437L6.48452 7.85412ZM6.44202 7.79705L6.50217 7.75225L6.50217 7.75225L6.44202 7.79705ZM6.39319 7.73149L6.35372 7.66772L6.28421 7.71073L6.33304 7.77629L6.39319 7.73149ZM6.4627 7.68848L6.42323 7.6247H6.42323L6.4627 7.68848ZM7.01594 7.56415C6.88173 7.56415 6.75333 7.5949 6.63167 7.65566L6.69869 7.78986C6.8 7.73926 6.90551 7.71415 7.01594 7.71415V7.56415ZM7.38063 7.65976C7.2719 7.59445 7.14912 7.56415 7.01594 7.56415V7.71415C7.12568 7.71415 7.22103 7.73887 7.30339 7.78835L7.38063 7.65976ZM7.44931 7.70102L7.38063 7.65976L7.30339 7.78835L7.37207 7.8296L7.44931 7.70102ZM7.42659 7.8739L7.47229 7.80809L7.34908 7.72253L7.30339 7.78835L7.42659 7.8739ZM7.01594 8.12379C7.18785 8.12379 7.32337 8.02255 7.42659 7.8739L7.30339 7.78835C7.21586 7.91439 7.12046 7.97379 7.01594 7.97379V8.12379ZM6.58477 7.88744C6.7054 8.02826 6.84906 8.12379 7.01594 8.12379V7.97379C6.91103 7.97379 6.80526 7.91426 6.69869 7.78986L6.58477 7.88744ZM6.52227 7.81448L6.58477 7.88744L6.69869 7.78986L6.63619 7.71689L6.52227 7.81448ZM6.63167 7.65566L6.54572 7.69859L6.61274 7.83278L6.69869 7.78986L6.63167 7.65566ZM7.01594 7.82379C6.98365 7.82379 6.93854 7.81077 6.8795 7.76018L6.78191 7.87409C6.86025 7.94121 6.93868 7.97379 7.01594 7.97379V7.82379ZM7.13122 7.76343C7.08364 7.81267 7.04577 7.82379 7.01594 7.82379V7.97379C7.09401 7.97379 7.16898 7.94022 7.23909 7.86765L7.13122 7.76343ZM7.01594 7.86415C7.07148 7.86415 7.11914 7.87209 7.16068 7.88643L7.20963 7.74465C7.15042 7.7242 7.08596 7.71415 7.01594 7.71415V7.86415ZM6.85301 7.88874C6.90583 7.87229 6.95991 7.86415 7.01594 7.86415V7.71415C6.94504 7.71415 6.87591 7.7245 6.8084 7.74553L6.85301 7.88874ZM7.01594 7.95537C6.91551 7.95537 6.79975 7.89763 6.67099 7.72774L6.55144 7.81834C6.69464 8.00728 6.84951 8.10537 7.01594 8.10537V7.95537ZM7.31834 7.73378C7.2168 7.90047 7.11384 7.95537 7.01594 7.95537V8.10537C7.18482 8.10537 7.32905 8.00454 7.44645 7.81181L7.31834 7.73378ZM7.01594 7.73257C7.14483 7.73257 7.25034 7.76738 7.33734 7.83275L7.42744 7.71283C7.31182 7.62596 7.17387 7.58257 7.01594 7.58257V7.73257ZM6.64996 7.83726C6.76685 7.76673 6.88845 7.73257 7.01594 7.73257V7.58257C6.8599 7.58257 6.71167 7.62484 6.57247 7.70882L6.64996 7.83726ZM7.01594 7.43257C6.82702 7.43257 6.64845 7.48534 6.48404 7.58707L6.56297 7.71463C6.70488 7.62681 6.8563 7.58257 7.01594 7.58257V7.43257ZM7.52687 7.60002C7.38088 7.48695 7.2072 7.43257 7.01594 7.43257V7.58257C7.17743 7.58257 7.31794 7.62794 7.43502 7.71861L7.52687 7.60002ZM7.57278 7.63558L7.52687 7.60002L7.43502 7.71861L7.48093 7.75417L7.57278 7.63558ZM7.62534 7.67628L7.57278 7.63558L7.48093 7.75417L7.53349 7.79487L7.62534 7.67628ZM7.60969 7.83112L7.6438 7.77405L7.51504 7.69711L7.48093 7.75417L7.60969 7.83112ZM7.58005 7.88073L7.60969 7.83112L7.48093 7.75417L7.45129 7.80378L7.58005 7.88073ZM7.01594 8.25537C7.25987 8.25537 7.44672 8.10384 7.58005 7.88073L7.45129 7.80378C7.33303 8.00168 7.18727 8.10537 7.01594 8.10537V8.25537ZM6.42437 7.89892C6.58325 8.11225 6.77949 8.25537 7.01594 8.25537V8.10537C6.84686 8.10537 6.68979 8.00417 6.54467 7.80933L6.42437 7.89892ZM6.38187 7.84185L6.42437 7.89892L6.54467 7.80933L6.50217 7.75225L6.38187 7.84185ZM6.33304 7.77629L6.38187 7.84185L6.50217 7.75225L6.45334 7.68669L6.33304 7.77629ZM6.42323 7.6247L6.35372 7.66772L6.43265 7.79527L6.50217 7.75225L6.42323 7.6247ZM6.48404 7.58707L6.42323 7.6247L6.50217 7.75225L6.56297 7.71463L6.48404 7.58707Z" fill="#984111"/>
<path d="M6.06516 6.45299L6.09762 6.52061L6.06516 6.45299ZM6.06516 6.81449L6.03271 6.88211L6.03271 6.88211L6.06516 6.81449ZM6.60148 6.81449L6.63393 6.88211V6.88211L6.60148 6.81449ZM6.60148 6.45299L6.56902 6.52061H6.56902L6.60148 6.45299ZM6.07575 6.63091L6.00676 6.6015L6.00676 6.6015L6.07575 6.63091ZM6.08245 6.62105L6.13872 6.67063L6.13872 6.67063L6.08245 6.62105ZM6.13007 6.58822L6.09762 6.52061L6.09762 6.52061L6.13007 6.58822ZM6.53657 6.58822L6.56902 6.52061L6.56902 6.52061L6.53657 6.58822ZM6.58419 6.62105L6.52792 6.67063L6.52792 6.67063L6.58419 6.62105ZM6.59089 6.63091L6.5219 6.66032L6.5219 6.66032L6.59089 6.63091ZM6.59089 6.63658L6.5219 6.60716L6.5219 6.60716L6.59089 6.63658ZM6.58419 6.64644L6.52792 6.59685L6.52792 6.59685L6.58419 6.64644ZM6.53657 6.67927L6.56902 6.74688H6.56902L6.53657 6.67927ZM6.13007 6.67927L6.09762 6.74688H6.09762L6.13007 6.67927ZM6.08245 6.64644L6.02618 6.69602H6.02618L6.08245 6.64644ZM6.07575 6.63658L6.00676 6.66599L6.00676 6.66599L6.07575 6.63658ZM7.3985 6.45299L7.36604 6.38538V6.38538L7.3985 6.45299ZM7.3985 6.81449L7.36604 6.88211V6.88211L7.3985 6.81449ZM7.93481 6.81449L7.90236 6.74688V6.74688L7.93481 6.81449ZM7.93481 6.45299L7.90236 6.52061V6.52061L7.93481 6.45299ZM7.40909 6.63091L7.34009 6.6015L7.34009 6.6015L7.40909 6.63091ZM7.41579 6.62105L7.35952 6.57146L7.35952 6.57146L7.41579 6.62105ZM7.46341 6.58822L7.49586 6.65583L7.46341 6.58822ZM7.8699 6.58822L7.83745 6.65583L7.8699 6.58822ZM7.91752 6.62105L7.86125 6.67063L7.86125 6.67063L7.91752 6.62105ZM7.92422 6.63091L7.85523 6.66032L7.85523 6.66032L7.92422 6.63091ZM7.92422 6.63658L7.85523 6.60716L7.85523 6.60716L7.92422 6.63658ZM7.91752 6.64644L7.86125 6.59685L7.86125 6.59685L7.91752 6.64644ZM7.8699 6.67927L7.83745 6.61165L7.8699 6.67927ZM7.46341 6.67927L7.49586 6.61165L7.46341 6.67927ZM7.41579 6.64644L7.35952 6.69602L7.35952 6.69602L7.41579 6.64644ZM7.40909 6.63658L7.34009 6.66599L7.34009 6.66599L7.40909 6.63658ZM6.09762 6.52061C6.15794 6.49165 6.24127 6.47374 6.33332 6.47374V6.32374C6.22387 6.32374 6.1174 6.34472 6.03271 6.38538L6.09762 6.52061ZM5.99999 6.63374C5.99999 6.58995 6.03669 6.54985 6.09762 6.52061L6.03271 6.38538C5.95943 6.42055 5.84999 6.49851 5.84999 6.63374H5.99999ZM6.09762 6.74688C6.03669 6.71763 5.99999 6.67753 5.99999 6.63374H5.84999C5.84999 6.76898 5.95943 6.84693 6.03271 6.88211L6.09762 6.74688ZM6.33332 6.79374C6.24127 6.79374 6.15794 6.77583 6.09762 6.74688L6.03271 6.88211C6.1174 6.92276 6.22387 6.94374 6.33332 6.94374V6.79374ZM6.56902 6.74688C6.50871 6.77583 6.42537 6.79374 6.33332 6.79374V6.94374C6.44277 6.94374 6.54924 6.92276 6.63393 6.88211L6.56902 6.74688ZM6.66665 6.63374C6.66665 6.67753 6.62995 6.71763 6.56902 6.74688L6.63393 6.88211C6.70721 6.84693 6.81665 6.76898 6.81665 6.63374H6.66665ZM6.56902 6.52061C6.62995 6.54985 6.66665 6.58995 6.66665 6.63374H6.81665C6.81665 6.49851 6.70721 6.42055 6.63393 6.38538L6.56902 6.52061ZM6.33332 6.47374C6.42537 6.47374 6.50871 6.49165 6.56902 6.52061L6.63393 6.38538C6.54924 6.34472 6.44277 6.32374 6.33332 6.32374V6.47374ZM6.00676 6.6015C6.00227 6.61202 5.99999 6.62281 5.99999 6.63374H6.14999C6.14999 6.63457 6.14998 6.63701 6.14971 6.64009C6.14945 6.64298 6.14903 6.64574 6.14848 6.64835C6.1474 6.65347 6.14594 6.65752 6.14474 6.66032L6.00676 6.6015ZM6.02618 6.57146C6.01774 6.58105 6.01119 6.5911 6.00676 6.6015L6.14474 6.66032C6.14198 6.66682 6.13917 6.67013 6.13872 6.67063L6.02618 6.57146ZM6.09762 6.52061C6.06745 6.53509 6.04305 6.55232 6.02618 6.57146L6.13872 6.67063C6.13852 6.67087 6.14453 6.66448 6.16253 6.65583L6.09762 6.52061ZM6.33332 6.47374C6.24127 6.47374 6.15794 6.49165 6.09762 6.52061L6.16253 6.65583C6.19848 6.63858 6.25869 6.62374 6.33332 6.62374V6.47374ZM6.56902 6.52061C6.50871 6.49165 6.42537 6.47374 6.33332 6.47374V6.62374C6.40795 6.62374 6.46816 6.63858 6.50411 6.65583L6.56902 6.52061ZM6.64046 6.57146C6.6236 6.55233 6.59919 6.53509 6.56902 6.52061L6.50411 6.65583C6.52212 6.66448 6.52812 6.67087 6.52792 6.67063L6.64046 6.57146ZM6.65988 6.6015C6.65545 6.5911 6.64891 6.58105 6.64046 6.57146L6.52792 6.67063C6.52747 6.67013 6.52467 6.66682 6.5219 6.66032L6.65988 6.6015ZM6.66665 6.63374C6.66665 6.62281 6.66437 6.61202 6.65988 6.6015L6.5219 6.66032C6.5207 6.65752 6.51924 6.65347 6.51816 6.64835C6.51762 6.64575 6.51719 6.64298 6.51694 6.64009C6.51666 6.63701 6.51665 6.63457 6.51665 6.63374H6.66665ZM6.65988 6.66599C6.66437 6.65546 6.66665 6.64468 6.66665 6.63374H6.51665C6.51665 6.63291 6.51666 6.63048 6.51694 6.6274C6.51719 6.6245 6.51762 6.62174 6.51816 6.61913C6.51924 6.61401 6.5207 6.60997 6.5219 6.60716L6.65988 6.66599ZM6.64046 6.69602C6.64891 6.68644 6.65545 6.67639 6.65988 6.66599L6.5219 6.60716C6.52467 6.60067 6.52747 6.59736 6.52792 6.59685L6.64046 6.69602ZM6.56902 6.74688C6.59919 6.7324 6.6236 6.71516 6.64046 6.69602L6.52792 6.59685C6.52812 6.59662 6.52212 6.60301 6.50411 6.61165L6.56902 6.74688ZM6.33332 6.79374C6.42537 6.79374 6.50871 6.77583 6.56902 6.74688L6.50411 6.61165C6.46816 6.62891 6.40795 6.64374 6.33332 6.64374V6.79374ZM6.09762 6.74688C6.15794 6.77583 6.24127 6.79374 6.33332 6.79374V6.64374C6.25869 6.64374 6.19848 6.62891 6.16253 6.61165L6.09762 6.74688ZM6.02618 6.69602C6.04305 6.71516 6.06745 6.7324 6.09762 6.74688L6.16253 6.61165C6.14453 6.60301 6.13852 6.59662 6.13872 6.59685L6.02618 6.69602ZM6.00676 6.66599C6.01119 6.67639 6.01774 6.68644 6.02618 6.69602L6.13872 6.59685C6.13917 6.59736 6.14198 6.60067 6.14474 6.60716L6.00676 6.66599ZM5.99999 6.63374C5.99999 6.64468 6.00227 6.65546 6.00676 6.66599L6.14474 6.60716C6.14594 6.60997 6.1474 6.61402 6.14848 6.61914C6.14903 6.62174 6.14945 6.6245 6.14971 6.6274C6.14998 6.63048 6.14999 6.63291 6.14999 6.63374H5.99999ZM7.43095 6.52061C7.49127 6.49165 7.5746 6.47374 7.66665 6.47374V6.32374C7.5572 6.32374 7.45074 6.34472 7.36604 6.38538L7.43095 6.52061ZM7.33332 6.63374C7.33332 6.58995 7.37002 6.54985 7.43095 6.52061L7.36604 6.38538C7.29276 6.42055 7.18332 6.49851 7.18332 6.63374H7.33332ZM7.43095 6.74688C7.37002 6.71763 7.33332 6.67753 7.33332 6.63374H7.18332C7.18332 6.76898 7.29276 6.84693 7.36604 6.88211L7.43095 6.74688ZM7.66665 6.79374C7.5746 6.79374 7.49127 6.77583 7.43095 6.74688L7.36604 6.88211C7.45074 6.92276 7.5572 6.94374 7.66665 6.94374V6.79374ZM7.90236 6.74688C7.84204 6.77583 7.75871 6.79374 7.66665 6.79374V6.94374C7.77611 6.94374 7.88257 6.92276 7.96727 6.88211L7.90236 6.74688ZM7.99999 6.63374C7.99999 6.67753 7.96329 6.71763 7.90236 6.74688L7.96727 6.88211C8.04054 6.84693 8.14999 6.76898 8.14999 6.63374H7.99999ZM7.90236 6.52061C7.96329 6.54985 7.99999 6.58995 7.99999 6.63374H8.14999C8.14999 6.49851 8.04054 6.42055 7.96727 6.38538L7.90236 6.52061ZM7.66665 6.47374C7.75871 6.47374 7.84204 6.49165 7.90236 6.52061L7.96727 6.38538C7.88257 6.34472 7.77611 6.32374 7.66665 6.32374V6.47374ZM7.34009 6.6015C7.33561 6.61202 7.33332 6.62281 7.33332 6.63374H7.48332C7.48332 6.63457 7.48331 6.63701 7.48304 6.64009C7.48278 6.64298 7.48236 6.64574 7.48181 6.64835C7.48073 6.65347 7.47927 6.65752 7.47808 6.66032L7.34009 6.6015ZM7.35952 6.57146C7.35107 6.58105 7.34453 6.5911 7.34009 6.6015L7.47808 6.66032C7.47531 6.66682 7.4725 6.67013 7.47206 6.67063L7.35952 6.57146ZM7.43095 6.52061C7.40079 6.53509 7.37638 6.55232 7.35952 6.57146L7.47206 6.67063C7.47185 6.67087 7.47786 6.66448 7.49586 6.65583L7.43095 6.52061ZM7.66665 6.47374C7.5746 6.47374 7.49127 6.49165 7.43095 6.52061L7.49586 6.65583C7.53182 6.63858 7.59202 6.62374 7.66665 6.62374V6.47374ZM7.90236 6.52061C7.84204 6.49165 7.75871 6.47374 7.66665 6.47374V6.62374C7.74129 6.62374 7.80149 6.63858 7.83745 6.65583L7.90236 6.52061ZM7.97379 6.57146C7.95693 6.55233 7.93252 6.53509 7.90236 6.52061L7.83745 6.65583C7.85545 6.66448 7.86146 6.67087 7.86125 6.67063L7.97379 6.57146ZM7.99322 6.6015C7.98878 6.5911 7.98224 6.58105 7.97379 6.57146L7.86125 6.67063C7.86081 6.67013 7.858 6.66682 7.85523 6.66032L7.99322 6.6015ZM7.99999 6.63374C7.99999 6.62281 7.9977 6.61203 7.99322 6.6015L7.85523 6.66032C7.85404 6.65752 7.85257 6.65347 7.8515 6.64835C7.85095 6.64574 7.85053 6.64298 7.85027 6.64008C7.85 6.637 7.84999 6.63457 7.84999 6.63374H7.99999ZM7.99322 6.66599C7.9977 6.65546 7.99999 6.64467 7.99999 6.63374H7.84999C7.84999 6.63292 7.85 6.63049 7.85027 6.6274C7.85053 6.62451 7.85095 6.62175 7.8515 6.61914C7.85257 6.61402 7.85404 6.60997 7.85523 6.60716L7.99322 6.66599ZM7.97379 6.69602C7.98224 6.68644 7.98878 6.67639 7.99322 6.66599L7.85523 6.60716C7.858 6.60067 7.86081 6.59736 7.86125 6.59685L7.97379 6.69602ZM7.90236 6.74688C7.93252 6.7324 7.95693 6.71516 7.97379 6.69602L7.86125 6.59685C7.86146 6.59662 7.85545 6.60301 7.83745 6.61165L7.90236 6.74688ZM7.66665 6.79374C7.75871 6.79374 7.84204 6.77583 7.90236 6.74688L7.83745 6.61165C7.80149 6.62891 7.74129 6.64374 7.66665 6.64374V6.79374ZM7.43095 6.74688C7.49127 6.77583 7.5746 6.79374 7.66665 6.79374V6.64374C7.59202 6.64374 7.53182 6.62891 7.49586 6.61165L7.43095 6.74688ZM7.35952 6.69602C7.37638 6.71516 7.40079 6.7324 7.43095 6.74688L7.49586 6.61165C7.47786 6.60301 7.47185 6.59662 7.47206 6.59685L7.35952 6.69602ZM7.34009 6.66599C7.34453 6.67639 7.35107 6.68644 7.35952 6.69602L7.47206 6.59685C7.4725 6.59736 7.47531 6.60067 7.47808 6.60716L7.34009 6.66599ZM7.33332 6.63374C7.33332 6.64468 7.33561 6.65546 7.34009 6.66599L7.47808 6.60717C7.47927 6.60997 7.48073 6.61402 7.48181 6.61914C7.48236 6.62174 7.48278 6.6245 7.48304 6.6274C7.48331 6.63048 7.48332 6.63291 7.48332 6.63374H7.33332Z" fill="#984111"/>
</g>
</g>
</svg>
