<svg width="92" height="93" viewBox="0 0 92 93" fill="none" xmlns="http://www.w3.org/2000/svg">
    <circle cx="46" cy="46" r="46" fill="#8A81C2"/>
    <path d="M49.2332 54.0898L56.0625 47.0898M56.0625 47.0898L49.2332 40.0898M56.0625 47.0898L36.0625 47.0898" stroke="white" stroke-width="2" stroke-linecap="round" stroke-linejoin="round"/>
    <path d="M15.0074 28.0594L14.26 27.5231L16.7468 24.0573L17.4943 24.5936L15.0074 28.0594ZM23.5485 29.2118L16.617 24.2382L17.2763 23.3194L24.2078 28.293L23.5485 29.2118Z" fill="white"/>
    <path d="M15.0074 28.0594L14.8326 28.3031L15.0763 28.478L15.2512 28.2343L15.0074 28.0594ZM14.26 27.5231L14.0163 27.3482L13.8414 27.5919L14.0851 27.7668L14.26 27.5231ZM16.7468 24.0573L16.9217 23.8136L16.678 23.6387L16.5031 23.8824L16.7468 24.0573ZM17.4943 24.5936L17.738 24.7685L17.9129 24.5248L17.6692 24.3499L17.4943 24.5936ZM23.5485 29.2118L23.3736 29.4556L23.6174 29.6305L23.7923 29.3867L23.5485 29.2118ZM16.617 24.2382L16.3733 24.0633L16.1984 24.3071L16.4421 24.482L16.617 24.2382ZM17.2763 23.3194L17.4512 23.0757L17.2075 22.9008L17.0326 23.1445L17.2763 23.3194ZM24.2078 28.293L24.4515 28.4679L24.6264 28.2242L24.3827 28.0493L24.2078 28.293ZM15.1823 27.8156L14.4349 27.2793L14.0851 27.7668L14.8326 28.3031L15.1823 27.8156ZM14.5038 27.6979L16.9906 24.2322L16.5031 23.8824L14.0163 27.3482L14.5038 27.6979ZM16.5719 24.3011L17.3194 24.8374L17.6692 24.3499L16.9217 23.8136L16.5719 24.3011ZM17.2505 24.4187L14.7637 27.8845L15.2512 28.2343L17.738 24.7685L17.2505 24.4187ZM23.7234 28.9681L16.7919 23.9945L16.4421 24.482L23.3736 29.4556L23.7234 28.9681ZM16.8608 24.4131L17.5201 23.4943L17.0326 23.1445L16.3733 24.0633L16.8608 24.4131ZM17.1014 23.5632L24.0329 28.5368L24.3827 28.0493L17.4512 23.0757L17.1014 23.5632ZM23.964 28.1181L23.3048 29.0369L23.7923 29.3867L24.4515 28.4679L23.964 28.1181Z" fill="white"/>
    <path d="M13.0692 43.0613L12.5444 42.938C11.9208 42.7915 11.3801 42.5822 10.9224 42.3101C10.4646 42.038 10.0971 41.715 9.81989 41.3409C9.54264 40.9667 9.36099 40.5529 9.27495 40.0993C9.18802 39.6496 9.20396 39.1718 9.32279 38.666C9.43804 38.1755 9.63518 37.7463 9.9142 37.3785C10.1923 37.0145 10.5397 36.7229 10.9563 36.5038C11.3721 36.2885 11.8463 36.1572 12.3791 36.1098C12.9118 36.0624 13.4901 36.112 14.1137 36.2585L14.6385 36.3818C15.2621 36.5283 15.8005 36.7391 16.2535 37.014C16.7094 37.2937 17.0756 37.6225 17.3519 38.0004C17.6321 38.3792 17.8156 38.7935 17.9026 39.2433C17.9886 39.6968 17.974 40.1689 17.8587 40.6595C17.7399 41.1652 17.5414 41.6001 17.2633 41.9641C16.9843 42.3319 16.6355 42.6211 16.2168 42.8317C15.8011 43.047 15.3277 43.1746 14.7968 43.2144C14.2687 43.2588 13.6928 43.2078 13.0692 43.0613ZM12.8004 41.8485L13.3365 41.9745C13.8309 42.0906 14.2803 42.142 14.6847 42.1287C15.0882 42.1192 15.442 42.0478 15.7461 41.9146C16.0503 41.7814 16.302 41.5898 16.5012 41.3396C16.6995 41.0933 16.8402 40.7933 16.9233 40.4397C17.0037 40.0974 17.01 39.7719 16.9421 39.463C16.8733 39.1579 16.7329 38.8762 16.5207 38.6177C16.3077 38.363 16.0236 38.1377 15.6683 37.9419C15.3131 37.7461 14.8883 37.5901 14.3939 37.474L13.8577 37.348C13.3596 37.231 12.906 37.1806 12.4969 37.1968C12.0916 37.2139 11.7345 37.2905 11.4257 37.4266C11.1197 37.5674 10.8681 37.7591 10.6706 38.0016C10.4723 38.2479 10.333 38.5422 10.2526 38.8845C10.1686 39.2419 10.1605 39.5751 10.2284 39.8839C10.2963 40.1928 10.4372 40.4727 10.6511 40.7236C10.8679 40.9792 11.1548 41.2011 11.5119 41.3893C11.8727 41.5784 12.3022 41.7315 12.8004 41.8485Z" fill="white"/>
    <path d="M9.27495 40.0993L9.5697 40.0434L9.5695 40.0424L9.27495 40.0993ZM9.9142 37.3785L9.67582 37.1963L9.67519 37.1972L9.9142 37.3785ZM10.9563 36.5038L10.8184 36.2374L10.8167 36.2383L10.9563 36.5038ZM16.2535 37.014L16.4103 36.7583L16.4091 36.7576L16.2535 37.014ZM17.3519 38.0004L17.1098 38.1775L17.1107 38.1788L17.3519 38.0004ZM17.9026 39.2433L18.1973 39.1874L18.1971 39.1863L17.9026 39.2433ZM17.2633 41.9641L17.0249 41.782L17.0243 41.7828L17.2633 41.9641ZM16.2168 42.8317L16.082 42.5637L16.0789 42.5653L16.2168 42.8317ZM14.7968 43.2144L14.7743 42.9152L14.7716 42.9154L14.7968 43.2144ZM14.6847 42.1287L14.6776 41.8288L14.6748 41.8289L14.6847 42.1287ZM16.5012 41.3396L16.2675 41.1515L16.2665 41.1528L16.5012 41.3396ZM16.9421 39.463L17.2351 39.3986L17.2347 39.397L16.9421 39.463ZM16.5207 38.6177L16.7527 38.4274L16.7509 38.4252L16.5207 38.6177ZM12.4969 37.1968L12.485 36.897L12.4842 36.8971L12.4969 37.1968ZM11.4257 37.4266L11.3047 37.1521L11.3003 37.1541L11.4257 37.4266ZM10.6706 38.0016L10.438 37.8122L10.437 37.8135L10.6706 38.0016ZM10.6511 40.7236L10.8798 40.5295L10.8794 40.5289L10.6511 40.7236ZM11.5119 41.3893L11.372 41.6547L11.3726 41.655L11.5119 41.3893ZM13.1378 42.7692L12.613 42.6459L12.4758 43.23L13.0006 43.3533L13.1378 42.7692ZM12.613 42.6459C12.0133 42.505 11.5023 42.3058 11.0756 42.0522L10.7691 42.568C11.2578 42.8585 11.8282 43.0779 12.4758 43.23L12.613 42.6459ZM11.0756 42.0522C10.6473 41.7976 10.3113 41.5001 10.0609 41.1622L9.57887 41.5195C9.88298 41.9298 10.282 42.2785 10.7691 42.568L11.0756 42.0522ZM10.0609 41.1622C9.81035 40.8241 9.64723 40.4522 9.5697 40.0434L8.98021 40.1552C9.07475 40.6536 9.27493 41.1094 9.57887 41.5195L10.0609 41.1622ZM9.5695 40.0424C9.49161 39.6394 9.5044 39.2047 9.61484 38.7346L9.03074 38.5974C8.90353 39.1389 8.88443 39.6597 8.9804 40.1563L9.5695 40.0424ZM9.61484 38.7346C9.72138 38.2812 9.9018 37.8912 10.1532 37.5598L9.67519 37.1972C9.36855 37.6014 9.15471 38.0698 9.03074 38.5974L9.61484 38.7346ZM10.1526 37.5606C10.4035 37.2322 10.7168 36.9687 11.096 36.7693L10.8167 36.2383C10.3626 36.4771 9.98115 36.7967 9.67582 37.1963L10.1526 37.5606ZM11.0943 36.7702C11.4708 36.5752 11.9063 36.453 12.4057 36.4086L12.3525 35.811C11.7864 35.8613 11.2733 36.0018 10.8184 36.2374L11.0943 36.7702ZM12.4057 36.4086C12.9009 36.3646 13.4466 36.41 14.0451 36.5506L14.1823 35.9665C13.5335 35.814 12.9228 35.7603 12.3525 35.811L12.4057 36.4086ZM14.0451 36.5506L14.5699 36.6739L14.7071 36.0898L14.1823 35.9665L14.0451 36.5506ZM14.5699 36.6739C15.169 36.8146 15.6767 37.0149 16.0978 37.2705L16.4091 36.7576C15.9242 36.4632 15.3552 36.242 14.7071 36.0898L14.5699 36.6739ZM16.0966 37.2698C16.524 37.5319 16.8595 37.8353 17.1098 38.1775L17.5941 37.8233C17.2916 37.4097 16.8948 37.0555 16.4103 36.7583L16.0966 37.2698ZM17.1107 38.1788C17.365 38.5227 17.5298 38.8957 17.608 39.3002L18.1971 39.1863C18.1014 38.6913 17.8991 38.2358 17.5931 37.822L17.1107 38.1788ZM17.6078 39.2992C17.6853 39.7079 17.6732 40.1374 17.5667 40.5908L18.1508 40.7281C18.2748 40.2004 18.2919 39.6858 18.1973 39.1874L17.6078 39.2992ZM17.5667 40.5908C17.4563 41.0609 17.2741 41.4558 17.0249 41.782L17.5017 42.1462C17.8088 41.7444 18.0236 41.2695 18.1508 40.7281L17.5667 40.5908ZM17.0243 41.7828C16.7734 42.1136 16.4604 42.3734 16.082 42.5637L16.3517 43.0997C16.8105 42.8689 17.1952 42.5503 17.5023 42.1454L17.0243 41.7828ZM16.0789 42.5653C15.7036 42.7597 15.2705 42.878 14.7743 42.9152L14.8192 43.5135C15.385 43.4711 15.8985 43.3344 16.3548 43.0981L16.0789 42.5653ZM14.7716 42.9154C14.2807 42.9567 13.7369 42.91 13.1378 42.7692L13.0006 43.3533C13.6487 43.5056 14.2566 43.5609 14.8219 43.5133L14.7716 42.9154ZM12.7318 42.1405L13.2679 42.2665L13.4052 41.6824L12.869 41.5564L12.7318 42.1405ZM13.2679 42.2665C13.7818 42.3872 14.2581 42.4429 14.6946 42.4285L14.6748 41.8289C14.3025 41.8411 13.88 41.794 13.4052 41.6824L13.2679 42.2665ZM14.6917 42.4286C15.1261 42.4183 15.5198 42.3413 15.8665 42.1894L15.6258 41.6398C15.3642 41.7544 15.0503 41.82 14.6776 41.8288L14.6917 42.4286ZM15.8665 42.1894C16.2135 42.0374 16.5051 41.8163 16.7358 41.5265L16.2665 41.1528C16.0989 41.3632 15.887 41.5254 15.6258 41.6398L15.8665 42.1894ZM16.7349 41.5278C16.9652 41.2416 17.1235 40.8991 17.2153 40.5083L16.6312 40.3711C16.5569 40.6875 16.4337 40.945 16.2675 41.1515L16.7349 41.5278ZM17.2153 40.5083C17.3048 40.1273 17.3136 39.756 17.2351 39.3986L16.6491 39.5274C16.7063 39.7877 16.7025 40.0676 16.6312 40.3711L17.2153 40.5083ZM17.2347 39.397C17.155 39.0432 16.9923 38.7194 16.7526 38.4274L16.2888 38.808C16.4734 39.0329 16.5916 39.2727 16.6494 39.529L17.2347 39.397ZM16.7509 38.4252C16.5094 38.1365 16.1939 37.8891 15.8131 37.6792L15.5235 38.2046C15.8532 38.3864 16.1061 38.5895 16.2906 38.8101L16.7509 38.4252ZM15.8131 37.6792C15.4288 37.4673 14.9771 37.3028 14.4625 37.1819L14.3253 37.766C14.7994 37.8774 15.1973 38.0248 15.5235 38.2046L15.8131 37.6792ZM14.4625 37.1819L13.9263 37.0559L13.7891 37.64L14.3253 37.766L14.4625 37.1819ZM13.9263 37.0559C13.4081 36.9342 12.9269 36.8795 12.485 36.897L12.5088 37.4966C12.885 37.4816 13.3111 37.5277 13.7891 37.64L13.9263 37.0559ZM12.4842 36.8971C12.0489 36.9155 11.6539 36.9982 11.3047 37.1521L11.5466 37.7012C11.8151 37.5829 12.1343 37.5124 12.5095 37.4965L12.4842 36.8971ZM11.3003 37.1541C10.956 37.3126 10.6665 37.5315 10.438 37.8122L10.9033 38.191C11.0696 37.9867 11.2835 37.8223 11.5511 37.6992L11.3003 37.1541ZM10.437 37.8135C10.2075 38.0985 10.05 38.4348 9.9605 38.8159L10.5446 38.9531C10.6159 38.6496 10.7372 38.3974 10.9043 38.1897L10.437 37.8135ZM9.9605 38.8159C9.8679 39.21 9.85644 39.5891 9.93538 39.9483L10.5214 39.8196C10.4646 39.5611 10.4692 39.2739 10.5446 38.9531L9.9605 38.8159ZM9.93538 39.9483C10.0143 40.3074 10.1784 40.6315 10.4228 40.9182L10.8794 40.5289C10.696 40.3139 10.5783 40.0783 10.5214 39.8196L9.93538 39.9483ZM10.4223 40.9177C10.6684 41.2078 10.9878 41.4521 11.372 41.6547L11.6518 41.1239C11.3219 40.95 11.0674 40.7506 10.8798 40.5295L10.4223 40.9177ZM11.3726 41.655C11.7606 41.8584 12.215 42.0191 12.7318 42.1405L12.869 41.5564C12.3894 41.4438 11.9848 41.2984 11.6511 41.1236L11.3726 41.655Z" fill="white"/>
    <path d="M13.8139 56.4923L13.2847 56.5953C12.6559 56.7176 12.077 56.7487 11.5479 56.6885C11.0188 56.6283 10.5511 56.4846 10.1447 56.2572C9.73836 56.0299 9.40285 55.7271 9.13821 55.3488C8.87432 54.9744 8.69275 54.5321 8.5935 54.0222C8.49724 53.5276 8.50083 53.0553 8.60429 52.6054C8.70849 52.1593 8.90558 51.7508 9.19555 51.38C9.48626 51.013 9.86481 50.6986 10.3312 50.4367C10.7976 50.1748 11.3452 49.9827 11.974 49.8603L12.5031 49.7573C13.1319 49.6349 13.7093 49.6061 14.2353 49.6709C14.7659 49.7388 15.2347 49.8883 15.6418 50.1195C16.0528 50.3499 16.3902 50.6523 16.6541 51.0268C16.9187 51.4051 17.0992 51.8415 17.1955 52.3361C17.2947 52.8461 17.2922 53.3241 17.188 53.7702C17.0846 54.2202 16.8852 54.6271 16.5899 54.991C16.2992 55.3579 15.9199 55.6685 15.452 55.9228C14.9887 56.1801 14.4427 56.3699 13.8139 56.4923ZM13.0709 55.4967L13.6116 55.3915C14.11 55.2945 14.5409 55.1569 14.9042 54.9788C15.2682 54.8045 15.5616 54.5942 15.7842 54.3479C16.0069 54.1016 16.1577 53.8235 16.2367 53.5136C16.3165 53.2076 16.3216 52.8763 16.2522 52.5197C16.1851 52.1746 16.0571 51.8752 15.8685 51.6214C15.6805 51.3715 15.4368 51.1722 15.1373 51.0235C14.8385 50.8787 14.4869 50.7899 14.0826 50.7572C13.6783 50.7245 13.2269 50.7566 12.7284 50.8536L12.1878 50.9588C11.6855 51.0566 11.2511 51.1968 10.8848 51.3796C10.5222 51.5615 10.2281 51.778 10.0023 52.0288C9.78114 52.2828 9.63031 52.5609 9.54984 52.8631C9.47011 53.1691 9.46383 53.4946 9.53099 53.8397C9.60114 54.2002 9.73055 54.5073 9.91922 54.761C10.1079 55.0148 10.3513 55.2122 10.6493 55.3532C10.9519 55.4972 11.3047 55.5818 11.7075 55.6069C12.1142 55.6312 12.5686 55.5945 13.0709 55.4967Z" fill="white"/>
    <path d="M9.13821 55.3488L9.38403 55.1768L9.38343 55.176L9.13821 55.3488ZM8.60429 52.6054L8.31215 52.5371L8.31192 52.5381L8.60429 52.6054ZM9.19555 51.38L8.96039 51.1937L8.95922 51.1952L9.19555 51.38ZM14.2353 49.6709L14.2734 49.3733L14.272 49.3732L14.2353 49.6709ZM15.6418 50.1195L15.4937 50.3803L15.4951 50.3811L15.6418 50.1195ZM16.6541 51.0268L16.8999 50.8548L16.8993 50.854L16.6541 51.0268ZM17.188 53.7702L16.8959 53.702L16.8957 53.703L17.188 53.7702ZM16.5899 54.991L16.3569 54.8019L16.3547 54.8047L16.5899 54.991ZM15.452 55.9228L15.3088 55.6591L15.3064 55.6605L15.452 55.9228ZM14.9042 54.9788L14.7746 54.7082L14.7721 54.7094L14.9042 54.9788ZM16.2367 53.5136L15.9464 53.438L15.946 53.4395L16.2367 53.5136ZM15.8685 51.6214L16.1092 51.4424L16.1082 51.4411L15.8685 51.6214ZM15.1373 51.0235L15.2706 50.7548L15.2681 50.7536L15.1373 51.0235ZM10.8848 51.3796L10.7509 51.1111L10.7502 51.1114L10.8848 51.3796ZM10.0023 52.0288L9.7793 51.8281L9.7761 51.8318L10.0023 52.0288ZM9.54984 52.8631L9.25994 52.7859L9.25953 52.7874L9.54984 52.8631ZM10.6493 55.3532L10.7782 55.0823L10.7776 55.082L10.6493 55.3532ZM11.7075 55.6069L11.6889 55.9063L11.6896 55.9063L11.7075 55.6069ZM13.7565 56.1978L13.2274 56.3008L13.342 56.8897L13.8712 56.7868L13.7565 56.1978ZM13.2274 56.3008C12.6227 56.4185 12.075 56.4466 11.5818 56.3905L11.514 56.9866C12.0789 57.0509 12.6891 57.0168 13.342 56.8897L13.2274 56.3008ZM11.5818 56.3905C11.0867 56.3341 10.6582 56.2007 10.2912 55.9954L9.99828 56.5191C10.444 56.7684 10.951 56.9226 11.514 56.9866L11.5818 56.3905ZM10.2912 55.9954C9.92394 55.79 9.62252 55.5177 9.38403 55.1768L8.89239 55.5208C9.18319 55.9364 9.55278 56.2698 9.99828 56.5191L10.2912 55.9954ZM9.38343 55.176C9.14699 54.8405 8.98022 54.4389 8.88798 53.9649L8.29903 54.0795C8.40528 54.6254 8.60165 55.1082 8.89299 55.5216L9.38343 55.176ZM8.88798 53.9649C8.79899 53.5076 8.80344 53.078 8.89666 52.6726L8.31192 52.5381C8.19823 53.0326 8.19549 53.5475 8.29903 54.0795L8.88798 53.9649ZM8.89643 52.6736C8.99043 52.2711 9.16799 51.9022 9.43187 51.5648L8.95922 51.1952C8.64316 51.5994 8.42655 52.0474 8.31215 52.5371L8.89643 52.6736ZM9.4307 51.5663C9.69397 51.2339 10.0409 50.9437 10.4781 50.6983L10.1843 50.1751C9.68869 50.4534 9.27856 50.7921 8.96039 51.1937L9.4307 51.5663ZM10.4781 50.6983C10.9116 50.4548 11.4279 50.2722 12.0313 50.1548L11.9167 49.5658C11.2624 49.6931 10.6835 49.8948 10.1843 50.1751L10.4781 50.6983ZM12.0313 50.1548L12.5604 50.0518L12.4458 49.4628L11.9167 49.5658L12.0313 50.1548ZM12.5604 50.0518C13.1645 49.9342 13.7097 49.9084 14.1986 49.9687L14.272 49.3732C13.709 49.3038 13.0993 49.3357 12.4458 49.4628L12.5604 50.0518ZM14.1972 49.9685C14.6945 50.0321 15.125 50.171 15.4937 50.3803L15.7899 49.8586C15.3444 49.6056 14.8372 49.4455 14.2734 49.3733L14.1972 49.9685ZM15.4951 50.3811C15.8682 50.5903 16.1715 50.8628 16.4089 51.1996L16.8993 50.854C16.6089 50.4419 16.2374 50.1095 15.7885 49.8578L15.4951 50.3811ZM16.4083 51.1987C16.6467 51.5396 16.812 51.9362 16.901 52.3935L17.4899 52.2788C17.3864 51.7468 17.1908 51.2705 16.8999 50.8548L16.4083 51.1987ZM16.901 52.3935C16.9932 52.8674 16.9893 53.3023 16.8959 53.702L17.4802 53.8385C17.5952 53.346 17.5962 52.8248 17.4899 52.2788L16.901 52.3935ZM16.8957 53.703C16.8026 54.1076 16.6239 54.473 16.3569 54.8019L16.8228 55.18C17.1465 54.7811 17.3665 54.3327 17.4804 53.8375L16.8957 53.703ZM16.3547 54.8047C16.0924 55.1359 15.746 55.4216 15.3088 55.6592L15.5953 56.1864C16.0938 55.9155 16.506 55.58 16.8251 55.1772L16.3547 54.8047ZM15.3064 55.6605C14.8757 55.8997 14.3607 56.0802 13.7565 56.1978L13.8712 56.7868C14.5247 56.6596 15.1018 56.4605 15.5977 56.185L15.3064 55.6605ZM13.1282 55.7912L13.6689 55.686L13.5543 55.097L13.0136 55.2023L13.1282 55.7912ZM13.6689 55.686C14.187 55.5852 14.6442 55.4404 15.0363 55.2481L14.7721 54.7094C14.4377 54.8734 14.0331 55.0039 13.5543 55.097L13.6689 55.686ZM15.0337 55.2494C15.4256 55.0617 15.7529 54.8298 16.0068 54.5491L15.5617 54.1467C15.3702 54.3585 15.1108 54.5472 14.7746 54.7082L15.0337 55.2494ZM16.0068 54.5491C16.2609 54.268 16.4359 53.9467 16.5274 53.5877L15.946 53.4395C15.8796 53.7003 15.753 53.9351 15.5617 54.1467L16.0068 54.5491ZM16.527 53.5893C16.6197 53.2338 16.6234 52.8565 16.5467 52.4624L15.9577 52.577C16.0198 52.8961 16.0133 53.1815 15.9464 53.438L16.527 53.5893ZM16.5467 52.4624C16.4719 52.0782 16.3275 51.7361 16.1092 51.4424L15.6277 51.8004C15.7867 52.0143 15.8982 52.271 15.9577 52.577L16.5467 52.4624ZM16.1082 51.4411C15.8903 51.1512 15.6091 50.9227 15.2706 50.7548L15.0039 51.2923C15.2645 51.4216 15.4708 51.5917 15.6287 51.8017L16.1082 51.4411ZM15.2681 50.7536C14.9294 50.5894 14.5402 50.4933 14.1068 50.4582L14.0584 51.0562C14.4336 51.0866 14.7476 51.168 15.0064 51.2935L15.2681 50.7536ZM14.1068 50.4582C13.6694 50.4228 13.19 50.4582 12.6711 50.5591L12.7857 51.1481C13.2638 51.055 13.6871 51.0262 14.0584 51.0562L14.1068 50.4582ZM12.6711 50.5591L12.1305 50.6644L12.2451 51.2533L12.7857 51.1481L12.6711 50.5591ZM12.1305 50.6644C11.6079 50.7661 11.1466 50.9137 10.7509 51.1111L11.0187 51.648C11.3557 51.4799 11.7631 51.3471 12.2451 51.2533L12.1305 50.6644ZM10.7502 51.1114C10.3608 51.3069 10.0346 51.5445 9.77933 51.8282L10.2253 52.2295C10.4216 52.0114 10.6837 51.8162 11.0194 51.6477L10.7502 51.1114ZM9.7761 51.8318C9.52718 52.1176 9.3531 52.436 9.25994 52.7859L9.83974 52.9403C9.90753 52.6857 10.0351 52.448 10.2286 52.2259L9.7761 51.8318ZM9.25953 52.7874C9.16728 53.1415 9.16175 53.5129 9.23652 53.897L9.82547 53.7824C9.76592 53.4764 9.77295 53.1966 9.84015 52.9387L9.25953 52.7874ZM9.23652 53.897C9.31386 54.2945 9.45901 54.6448 9.67847 54.94L10.16 54.5821C10.0021 54.3697 9.88841 54.1059 9.82547 53.7824L9.23652 53.897ZM9.67847 54.94C9.89777 55.235 10.1805 55.4633 10.521 55.6244L10.7776 55.082C10.5221 54.9611 10.318 54.7946 10.16 54.5821L9.67847 54.94ZM10.5204 55.6241C10.8639 55.7876 11.2554 55.8793 11.6889 55.9063L11.7261 55.3075C11.3539 55.2843 11.04 55.2069 10.7782 55.0823L10.5204 55.6241ZM11.6896 55.9063C12.1269 55.9325 12.6072 55.8926 13.1282 55.7912L13.0136 55.2023C12.5301 55.2964 12.1014 55.3299 11.7254 55.3074L11.6896 55.9063Z" fill="white"/>
    <path d="M20.1944 62.5266L13.4663 67.772L12.771 66.8802L19.4991 61.6348L20.1944 62.5266ZM23.3611 66.5885L18.0439 66.2389L15.1878 65.9395L16.0244 65.0495L18.2498 65.2166L22.5253 65.5164L23.3611 66.5885ZM15.9629 70.9744L17.302 65.9258L18.4233 65.906L16.7915 72.0372L15.9629 70.9744Z" fill="white"/>
    <path d="M20.1944 62.5266L20.3789 62.7632L20.6155 62.5788L20.431 62.3422L20.1944 62.5266ZM13.4663 67.772L13.2297 67.9565L13.4141 68.1931L13.6507 68.0086L13.4663 67.772ZM12.771 66.8802L12.5865 66.6436L12.3499 66.828L12.5344 67.0646L12.771 66.8802ZM19.4991 61.6348L19.7357 61.4503L19.5513 61.2137L19.3147 61.3982L19.4991 61.6348ZM23.3611 66.5885L23.3414 66.8878L24.0091 66.9317L23.5977 66.404L23.3611 66.5885ZM18.0439 66.2389L18.0126 66.5375L18.0242 66.5383L18.0439 66.2389ZM15.1878 65.9395L14.9692 65.734L14.5549 66.1748L15.1565 66.2379L15.1878 65.9395ZM16.0244 65.0495L16.0469 64.7504L15.904 64.7396L15.8059 64.844L16.0244 65.0495ZM18.2498 65.2166L18.2274 65.5157L18.2288 65.5158L18.2498 65.2166ZM22.5253 65.5164L22.7619 65.332L22.6797 65.2265L22.5463 65.2172L22.5253 65.5164ZM15.9629 70.9744L15.6729 70.8974L15.6347 71.0414L15.7263 71.1588L15.9629 70.9744ZM17.302 65.9258L17.2967 65.6258L17.0701 65.6298L17.012 65.8489L17.302 65.9258ZM18.4233 65.906L18.7132 65.9832L18.8154 65.5991L18.418 65.6061L18.4233 65.906ZM16.7915 72.0372L16.5549 72.2216L16.9261 72.6978L17.0814 72.1143L16.7915 72.0372ZM20.01 62.29L13.2818 67.5354L13.6507 68.0086L20.3789 62.7632L20.01 62.29ZM13.7029 67.5876L13.0076 66.6957L12.5344 67.0646L13.2297 67.9565L13.7029 67.5876ZM12.9554 67.1167L19.6836 61.8714L19.3147 61.3982L12.5865 66.6436L12.9554 67.1167ZM19.2625 61.8192L19.9578 62.7111L20.431 62.3422L19.7357 61.4503L19.2625 61.8192ZM23.3808 66.2891L18.0636 65.9396L18.0242 66.5383L23.3414 66.8878L23.3808 66.2891ZM18.0752 65.9406L15.2191 65.6412L15.1565 66.2379L18.0126 66.5373L18.0752 65.9406ZM15.4064 66.145L16.243 65.255L15.8059 64.844L14.9692 65.734L15.4064 66.145ZM16.002 65.3487L18.2274 65.5157L18.2723 64.9174L16.0469 64.7504L16.002 65.3487ZM18.2288 65.5158L22.5043 65.8157L22.5463 65.2172L18.2708 64.9173L18.2288 65.5158ZM22.2887 65.7009L23.1245 66.7729L23.5977 66.404L22.7619 65.332L22.2887 65.7009ZM16.2528 71.0513L17.5919 66.0027L17.012 65.8489L15.6729 70.8974L16.2528 71.0513ZM17.3073 66.2258L18.4286 66.206L18.418 65.6061L17.2967 65.6258L17.3073 66.2258ZM18.1334 65.8289L16.5016 71.96L17.0814 72.1143L18.7132 65.9832L18.1334 65.8289ZM17.0281 71.8527L16.1995 70.7899L15.7263 71.1588L16.5549 72.2216L17.0281 71.8527Z" fill="white"/>
    <path d="M41.2118 77.0387L42.3135 77.2663L41.1462 82.9185C41.0167 83.5459 40.7692 84.0392 40.4038 84.3985C40.0384 84.7578 39.6026 84.9949 39.0962 85.1097C38.5945 85.2215 38.074 85.2217 37.5346 85.1103C36.9684 84.9934 36.4771 84.7842 36.0607 84.4828C35.6489 84.1784 35.3522 83.79 35.1705 83.3178C34.9927 82.8463 34.9685 82.2968 35.0981 81.6694L36.2654 76.0172L37.3614 76.2436L36.1941 81.8958C36.104 82.3319 36.1101 82.7081 36.2123 83.0244C36.3145 83.3406 36.4949 83.5973 36.7533 83.7942C37.0156 83.992 37.3381 84.1304 37.7206 84.2094C38.107 84.2892 38.4579 84.2898 38.7732 84.2114C39.0924 84.1337 39.3616 83.9699 39.5807 83.72C39.7998 83.4701 39.9544 83.1271 40.0445 82.691L41.2118 77.0387Z" fill="white"/>
    <path d="M41.2118 77.0387L41.2724 76.7449L40.9786 76.6843L40.918 76.9781L41.2118 77.0387ZM42.3135 77.2663L42.6073 77.327L42.668 77.0332L42.3742 76.9725L42.3135 77.2663ZM39.0962 85.1097L39.1615 85.4025L39.1626 85.4023L39.0962 85.1097ZM36.0607 84.4828L35.8823 84.7241L35.8848 84.7258L36.0607 84.4828ZM35.1705 83.3178L34.8898 83.4236L34.8905 83.4255L35.1705 83.3178ZM36.2654 76.0172L36.326 75.7234L36.0322 75.6628L35.9716 75.9566L36.2654 76.0172ZM37.3614 76.2436L37.6552 76.3043L37.7158 76.0105L37.422 75.9498L37.3614 76.2436ZM36.7533 83.7942L36.5715 84.0328L36.5727 84.0338L36.7533 83.7942ZM38.7732 84.2114L38.7023 83.9199L38.7008 83.9202L38.7732 84.2114ZM41.1511 77.3325L42.2528 77.5601L42.3742 76.9725L41.2724 76.7449L41.1511 77.3325ZM42.0197 77.2056L40.8524 82.8578L41.44 82.9792L42.6073 77.327L42.0197 77.2056ZM40.8524 82.8578C40.7319 83.4416 40.507 83.8764 40.1935 84.1846L40.6142 84.6124C41.0314 84.2021 41.3015 83.6502 41.44 82.9792L40.8524 82.8578ZM40.1935 84.1846C39.8684 84.5043 39.4826 84.7145 39.0299 84.8171L39.1626 85.4023C39.7225 85.2753 40.2085 85.0114 40.6142 84.6124L40.1935 84.1846ZM39.031 84.8169C38.5736 84.9188 38.0961 84.9199 37.5952 84.8165L37.4739 85.4041C38.0518 85.5234 38.6154 85.5242 39.1615 85.4025L39.031 84.8169ZM37.5952 84.8165C37.0654 84.7071 36.6146 84.5134 36.2366 84.2398L35.8848 84.7258C36.3396 85.055 36.8713 85.2796 37.4739 85.4041L37.5952 84.8165ZM36.239 84.2416C35.8726 83.9707 35.6114 83.6284 35.4505 83.2101L34.8905 83.4255C35.0929 83.9517 35.4253 84.3861 35.8824 84.7241L36.239 84.2416ZM35.4512 83.2119C35.2982 82.8062 35.2707 82.3168 35.3919 81.7301L34.8043 81.6088C34.6663 82.2768 34.6871 82.8863 34.8898 83.4236L35.4512 83.2119ZM35.3919 81.7301L36.5592 76.0779L35.9716 75.9566L34.8043 81.6088L35.3919 81.7301ZM36.2047 76.311L37.3007 76.5374L37.422 75.9498L36.326 75.7234L36.2047 76.311ZM37.0676 76.1829L35.9003 81.8351L36.4879 81.9565L37.6552 76.3043L37.0676 76.1829ZM35.9003 81.8351C35.8032 82.3054 35.8042 82.737 35.9268 83.1166L36.4978 82.9321C36.4161 82.6792 36.4049 82.3584 36.4879 81.9565L35.9003 81.8351ZM35.9268 83.1166C36.0474 83.4897 36.2632 83.7979 36.5715 84.0328L36.9352 83.5556C36.7265 83.3966 36.5816 83.1916 36.4978 82.9321L35.9268 83.1166ZM36.5727 84.0338C36.8766 84.2629 37.242 84.4169 37.6599 84.5032L37.7813 83.9156C37.4341 83.8439 37.1547 83.7211 36.9339 83.5547L36.5727 84.0338ZM37.6599 84.5032C38.0811 84.5901 38.4784 84.5939 38.8456 84.5025L38.7008 83.9202C38.4374 83.9858 38.1329 83.9882 37.7813 83.9156L37.6599 84.5032ZM38.8442 84.5029C39.224 84.4104 39.547 84.2135 39.8063 83.9178L39.3551 83.5222C39.1762 83.7263 38.9608 83.857 38.7023 83.9199L38.8442 84.5029ZM39.8063 83.9178C40.0693 83.6178 40.2412 83.2219 40.3383 82.7516L39.7507 82.6303C39.6677 83.0322 39.5303 83.3224 39.3551 83.5222L39.8063 83.9178ZM40.3383 82.7516L41.5056 77.0994L40.918 76.9781L39.7507 82.6303L40.3383 82.7516Z" fill="white"/>
    <path d="M54.0559 82.9435C54.0156 82.7484 53.9495 82.5825 53.8575 82.446C53.7685 82.3048 53.6367 82.1884 53.4623 82.0968C53.2916 82.0044 53.0648 81.9296 52.7817 81.8724C52.5025 81.8144 52.154 81.7687 51.7363 81.7353C51.2979 81.6982 50.8968 81.6394 50.5332 81.559C50.1688 81.4747 49.8478 81.3595 49.5703 81.2133C49.2929 81.0672 49.0649 80.881 48.8866 80.6545C48.7082 80.4281 48.5854 80.1523 48.5182 79.8272C48.4511 79.502 48.456 79.1879 48.533 78.8848C48.61 78.5817 48.7519 78.3031 48.9587 78.049C49.1686 77.7903 49.4357 77.5676 49.7601 77.3809C50.0845 77.1943 50.461 77.0567 50.8894 76.9682C51.5168 76.8386 52.0734 76.8493 52.5593 77.0003C53.0482 77.1466 53.4474 77.3893 53.7567 77.7282C54.0652 78.0634 54.2645 78.449 54.3546 78.8851L53.2528 79.1126C53.1881 78.799 53.0638 78.5354 52.8802 78.3221C52.6957 78.1049 52.4535 77.9555 52.1534 77.8739C51.8526 77.7884 51.4936 77.7887 51.0767 77.8749C50.6826 77.9562 50.3697 78.0827 50.1379 78.2542C49.9061 78.4257 49.748 78.6259 49.6636 78.8547C49.5831 79.0828 49.5696 79.3268 49.6234 79.587C49.6597 79.763 49.7292 79.9161 49.8319 80.0465C49.9377 80.1722 50.0816 80.2801 50.2637 80.3701C50.4497 80.4594 50.6758 80.5303 50.9419 80.5831C51.2119 80.635 51.5289 80.6732 51.893 80.6978C52.395 80.7337 52.8351 80.7984 53.2134 80.8918C53.5917 80.9852 53.9131 81.1122 54.1776 81.273C54.4452 81.4291 54.6594 81.6262 54.8202 81.8642C54.9841 82.0976 55.0996 82.3769 55.1668 82.7021C55.2371 83.0425 55.2318 83.3647 55.151 83.6686C55.0702 83.9725 54.9217 84.2484 54.7057 84.4965C54.4897 84.7445 54.213 84.9592 53.8755 85.1406C53.541 85.3174 53.1538 85.4512 52.7139 85.542C52.3275 85.6218 51.9358 85.6469 51.5388 85.6172C51.1456 85.5867 50.7739 85.4959 50.4236 85.3449C50.0771 85.1931 49.7797 84.9793 49.5313 84.7035C49.2859 84.4231 49.1202 84.0745 49.0341 83.6575L50.1358 83.4299C50.1951 83.7169 50.3015 83.9521 50.4551 84.1358C50.6079 84.3157 50.7938 84.4528 51.0127 84.5472C51.2354 84.6408 51.476 84.6948 51.7342 84.7093C51.9955 84.7191 52.2601 84.6964 52.5279 84.6411C52.9142 84.5613 53.2303 84.4402 53.4759 84.2778C53.7216 84.1154 53.8927 83.9205 53.9894 83.6931C54.0898 83.465 54.112 83.2151 54.0559 82.9435Z" fill="white"/>
    <path d="M53.8575 82.446L53.6036 82.606L53.6087 82.6136L53.8575 82.446ZM53.4623 82.0968L53.3194 82.3606L53.3228 82.3624L53.4623 82.0968ZM52.7817 81.8724L52.7207 82.1661L52.7223 82.1664L52.7817 81.8724ZM51.7363 81.7353L51.711 82.0342L51.7124 82.0343L51.7363 81.7353ZM50.5332 81.559L50.4656 81.8513L50.4684 81.8519L50.5332 81.559ZM48.9587 78.049L49.1914 78.2383L49.1917 78.238L48.9587 78.049ZM52.5593 77.0003L52.4703 77.2868L52.4733 77.2877L52.5593 77.0003ZM53.7567 77.7282L53.5351 77.9304L53.536 77.9314L53.7567 77.7282ZM54.3546 78.8851L54.4153 79.1789L54.7091 79.1182L54.6484 78.8244L54.3546 78.8851ZM53.2528 79.1126L52.959 79.1733L53.0197 79.4671L53.3135 79.4064L53.2528 79.1126ZM52.8802 78.3221L52.6515 78.5163L52.6528 78.5178L52.8802 78.3221ZM52.1534 77.8739L52.0714 78.1625L52.0746 78.1633L52.1534 77.8739ZM49.6636 78.8547L49.3821 78.7509L49.3807 78.7548L49.6636 78.8547ZM49.8319 80.0465L49.5962 80.2322L49.6023 80.2396L49.8319 80.0465ZM50.2637 80.3701L50.1308 80.6391L50.134 80.6406L50.2637 80.3701ZM50.9419 80.5831L50.8836 80.8774L50.8853 80.8777L50.9419 80.5831ZM51.893 80.6978L51.9144 80.3985L51.9132 80.3985L51.893 80.6978ZM54.1776 81.273L54.0218 81.5294L54.0264 81.5321L54.1776 81.273ZM54.8202 81.8642L54.5716 82.0322L54.5747 82.0366L54.8202 81.8642ZM53.8755 85.1406L54.0157 85.4058L54.0175 85.4048L53.8755 85.1406ZM51.5388 85.6172L51.5156 85.9163L51.5164 85.9163L51.5388 85.6172ZM50.4236 85.3449L50.3032 85.6197L50.3048 85.6204L50.4236 85.3449ZM49.5313 84.7035L49.3055 84.9011L49.3084 84.9043L49.5313 84.7035ZM49.0341 83.6575L48.9734 83.3637L48.6796 83.4243L48.7403 83.7181L49.0341 83.6575ZM50.1358 83.4299L50.4296 83.3693L50.3689 83.0755L50.0751 83.1361L50.1358 83.4299ZM50.4551 84.1358L50.225 84.3283L50.2265 84.3301L50.4551 84.1358ZM51.0127 84.5472L50.8939 84.8227L50.8965 84.8237L51.0127 84.5472ZM51.7342 84.7093L51.7174 85.0089L51.7229 85.0091L51.7342 84.7093ZM53.9894 83.6931L53.7148 83.5722L53.7133 83.5758L53.9894 83.6931ZM54.3497 82.8828C54.3032 82.6573 54.2242 82.4533 54.1062 82.2783L53.6087 82.6136C53.6748 82.7118 53.7281 82.8394 53.7621 83.0041L54.3497 82.8828ZM54.1112 82.286C53.9894 82.0927 53.8144 81.9429 53.6017 81.8312L53.3228 82.3624C53.4591 82.434 53.5476 82.5169 53.6037 82.6059L54.1112 82.286ZM53.6051 81.833C53.3989 81.7213 53.1406 81.6389 52.8412 81.5783L52.7223 82.1664C52.9889 82.2203 53.1843 82.2875 53.3194 82.3606L53.6051 81.833ZM52.8427 81.5787C52.547 81.5172 52.1852 81.4702 51.7602 81.4362L51.7124 82.0343C52.1229 82.0671 52.458 82.1115 52.7207 82.1661L52.8427 81.5787ZM51.7616 81.4364C51.3341 81.4002 50.9465 81.3432 50.598 81.266L50.4684 81.8519C50.8471 81.9357 51.2616 81.9962 51.711 82.0342L51.7616 81.4364ZM50.6008 81.2667C50.2568 81.1871 49.9609 81.08 49.7101 80.9479L49.4306 81.4788C49.7347 81.639 50.0807 81.7622 50.4656 81.8512L50.6008 81.2667ZM49.7101 80.9479C49.4665 80.8196 49.2724 80.6595 49.1222 80.4689L48.6509 80.8402C48.8575 81.1024 49.1192 81.3148 49.4306 81.4788L49.7101 80.9479ZM49.1222 80.4689C48.9767 80.2842 48.8712 80.053 48.8121 79.7665L48.2244 79.8878C48.2996 80.2517 48.4396 80.572 48.6509 80.8402L49.1222 80.4689ZM48.8121 79.7665C48.7535 79.483 48.7587 79.215 48.8238 78.9587L48.2423 78.8109C48.1534 79.1607 48.1487 79.521 48.2244 79.8878L48.8121 79.7665ZM48.8238 78.9587C48.8896 78.6998 49.0108 78.4603 49.1914 78.2383L48.726 77.8596C48.4931 78.1459 48.3305 78.4635 48.2423 78.8109L48.8238 78.9587ZM49.1917 78.238C49.3757 78.0112 49.6133 77.8115 49.9097 77.641L49.6105 77.1209C49.2581 77.3237 48.9614 77.5694 48.7257 77.86L49.1917 78.238ZM49.9097 77.641C50.2023 77.4726 50.5477 77.3451 50.9501 77.262L50.8287 76.6744C50.3742 76.7683 49.9668 76.9159 49.6105 77.1209L49.9097 77.641ZM50.9501 77.262C51.5404 77.1401 52.0439 77.1543 52.4703 77.2868L52.6483 76.7138C52.103 76.5444 51.4932 76.5372 50.8287 76.6744L50.9501 77.262ZM52.4733 77.2877C52.9161 77.4202 53.2664 77.636 53.5351 77.9304L53.9783 77.526C53.6283 77.1425 53.1803 76.873 52.6453 76.7129L52.4733 77.2877ZM53.536 77.9314C53.8086 78.2275 53.982 78.5642 54.0608 78.9458L54.6484 78.8244C54.5471 78.3338 54.3219 77.8992 53.9774 77.525L53.536 77.9314ZM54.2939 78.5913L53.1922 78.8188L53.3135 79.4064L54.4153 79.1789L54.2939 78.5913ZM53.5466 79.052C53.473 78.6953 53.3288 78.3834 53.1075 78.1264L52.6528 78.5178C52.7988 78.6875 52.9031 78.9026 52.959 79.1733L53.5466 79.052ZM53.1088 78.1279C52.8816 77.8603 52.5851 77.6804 52.2321 77.5844L52.0746 78.1633C52.3218 78.2306 52.5098 78.3495 52.6515 78.5163L53.1088 78.1279ZM52.2354 77.5853C51.8744 77.4827 51.464 77.4885 51.016 77.5811L51.1373 78.1687C51.5233 78.0889 51.8307 78.0941 52.0714 78.1624L52.2354 77.5853ZM51.016 77.5811C50.5951 77.668 50.2372 77.8075 49.9594 78.013L50.3163 78.4954C50.5022 78.3578 50.7702 78.2445 51.1373 78.1687L51.016 77.5811ZM49.9594 78.013C49.6894 78.2129 49.4902 78.4579 49.3821 78.7509L49.9451 78.9585C50.0058 78.7939 50.1228 78.6386 50.3163 78.4954L49.9594 78.013ZM49.3807 78.7548C49.2802 79.0394 49.2659 79.3394 49.3296 79.6477L49.9172 79.5263C49.8734 79.3143 49.8859 79.1261 49.9465 78.9546L49.3807 78.7548ZM49.3296 79.6477C49.3745 79.8654 49.4624 80.0622 49.5963 80.2321L50.0676 79.8608C49.996 79.77 49.9449 79.6605 49.9172 79.5263L49.3296 79.6477ZM49.6023 80.2396C49.7402 80.4035 49.9201 80.5349 50.1308 80.6391L50.3967 80.1012C50.2431 80.0253 50.1351 79.9409 50.0615 79.8534L49.6023 80.2396ZM50.134 80.6406C50.3485 80.7435 50.6 80.8212 50.8836 80.8774L51.0002 80.2888C50.7515 80.2395 50.5509 80.1752 50.3935 80.0997L50.134 80.6406ZM50.8853 80.8777C51.1705 80.9325 51.5002 80.972 51.8728 80.9971L51.9132 80.3985C51.5577 80.3745 51.2534 80.3375 50.9986 80.2885L50.8853 80.8777ZM51.8716 80.997C52.3612 81.0321 52.7838 81.0947 53.1415 81.183L53.2853 80.6005C52.8865 80.502 52.4288 80.4354 51.9144 80.3985L51.8716 80.997ZM53.1415 81.183C53.4975 81.2709 53.789 81.3879 54.0218 81.5294L54.3334 81.0166C54.0371 80.8366 53.6859 80.6994 53.2853 80.6005L53.1415 81.183ZM54.0264 81.5321C54.2582 81.6674 54.438 81.8344 54.5717 82.0322L55.0688 81.6963C54.8808 81.4181 54.6322 81.1909 54.3288 81.0139L54.0264 81.5321ZM54.5747 82.0366C54.7115 82.2314 54.8128 82.4712 54.873 82.7628L55.4606 82.6414C55.3865 82.2826 55.2567 81.9638 55.0658 81.6918L54.5747 82.0366ZM54.873 82.7628C54.9349 83.0625 54.9287 83.3372 54.8611 83.5915L55.4409 83.7457C55.5349 83.3923 55.5393 83.0226 55.4606 82.6414L54.873 82.7628ZM54.8611 83.5915C54.7926 83.849 54.6668 84.0844 54.4795 84.2994L54.9319 84.6935C55.1767 84.4125 55.3477 84.096 55.4409 83.7457L54.8611 83.5915ZM54.4795 84.2994C54.2908 84.5161 54.0442 84.7093 53.7334 84.8763L54.0175 85.4048C54.3817 85.2091 54.6886 84.9729 54.9319 84.6935L54.4795 84.2994ZM53.7353 84.8754C53.43 85.0367 53.0705 85.162 52.6532 85.2482L52.7746 85.8358C53.2372 85.7403 53.652 85.598 54.0157 85.4058L53.7353 84.8754ZM52.6532 85.2482C52.2944 85.3223 51.9307 85.3456 51.5612 85.318L51.5164 85.9163C51.941 85.9481 52.3607 85.9213 52.7746 85.8358L52.6532 85.2482ZM51.562 85.3181C51.2006 85.2901 50.8613 85.2069 50.5424 85.0694L50.3048 85.6204C50.6865 85.7849 51.0906 85.8833 51.5156 85.9163L51.562 85.3181ZM50.544 85.0701C50.2358 84.9351 49.9735 84.7462 49.7542 84.5027L49.3084 84.9043C49.5859 85.2124 49.9185 85.4511 50.3032 85.6197L50.544 85.0701ZM49.757 84.506C49.5504 84.2698 49.405 83.9704 49.3279 83.5968L48.7403 83.7181C48.8353 84.1785 49.0214 84.5764 49.3055 84.9011L49.757 84.506ZM49.0947 83.9513L50.1965 83.7237L50.0751 83.1361L48.9734 83.3637L49.0947 83.9513ZM49.842 83.4906C49.9091 83.8153 50.0332 84.099 50.225 84.3283L50.6852 83.9434C50.5697 83.8053 50.4811 83.6184 50.4296 83.3693L49.842 83.4906ZM50.2265 84.3301C50.4095 84.5454 50.6331 84.7102 50.8939 84.8226L51.1315 84.2717C50.9545 84.1954 50.8063 84.0859 50.6837 83.9416L50.2265 84.3301ZM50.8965 84.8237C51.153 84.9315 51.4274 84.9926 51.7174 85.0088L51.751 84.4097C51.5245 84.3971 51.3179 84.35 51.1289 84.2706L50.8965 84.8237ZM51.7229 85.0091C52.0094 85.0199 52.2982 84.9949 52.5885 84.9349L52.4672 84.3473C52.222 84.3979 51.9816 84.4184 51.7455 84.4095L51.7229 85.0091ZM52.5885 84.9349C53.0003 84.8499 53.3551 84.7173 53.6414 84.528L53.3105 84.0275C53.1054 84.1631 52.8281 84.2728 52.4672 84.3473L52.5885 84.9349ZM53.6414 84.528C53.9266 84.3395 54.1417 84.1017 54.2655 83.8105L53.7133 83.5758C53.6438 83.7392 53.5166 83.8913 53.3105 84.0275L53.6414 84.528ZM54.2639 83.814C54.3923 83.5224 54.4169 83.2083 54.3497 82.8828L53.7621 83.0041C53.8071 83.2219 53.7873 83.4075 53.7148 83.5722L54.2639 83.814Z" fill="white"/>
    <path d="M68.6127 77.4782L69.1521 78.2233L65.4929 80.8725L64.9534 80.1274L68.6127 77.4782ZM60.6751 73.8281L65.678 80.7385L64.762 81.4017L59.7591 74.4913L60.6751 73.8281ZM65.8161 74.6345L66.3556 75.3797L63.1804 77.6784L62.641 76.9332L65.8161 74.6345ZM64.1018 71.3473L64.6447 72.0972L61.0329 74.712L60.49 73.9621L64.1018 71.3473Z" fill="white"/>
    <path d="M68.6127 77.4782L68.8557 77.3023L68.6798 77.0593L68.4368 77.2352L68.6127 77.4782ZM69.1521 78.2233L69.3281 78.4664L69.5711 78.2904L69.3952 78.0474L69.1521 78.2233ZM65.4929 80.8725L65.2499 81.0485L65.4258 81.2915L65.6688 81.1155L65.4929 80.8725ZM64.9534 80.1274L64.7775 79.8844L64.5345 80.0603L64.7104 80.3033L64.9534 80.1274ZM60.6751 73.8281L60.9181 73.6522L60.7422 73.4092L60.4992 73.5851L60.6751 73.8281ZM65.678 80.7385L65.8539 80.9815L66.0969 80.8056L65.921 80.5626L65.678 80.7385ZM64.762 81.4017L64.519 81.5776L64.6949 81.8206L64.9379 81.6447L64.762 81.4017ZM59.7591 74.4913L59.5832 74.2483L59.3402 74.4242L59.5161 74.6672L59.7591 74.4913ZM65.8161 74.6345L66.0591 74.4586L65.8832 74.2156L65.6402 74.3915L65.8161 74.6345ZM66.3556 75.3797L66.5315 75.6227L66.7745 75.4467L66.5986 75.2037L66.3556 75.3797ZM63.1804 77.6784L62.9374 77.8543L63.1133 78.0973L63.3563 77.9214L63.1804 77.6784ZM62.641 76.9332L62.465 76.6902L62.222 76.8661L62.398 77.1092L62.641 76.9332ZM64.1018 71.3473L64.3448 71.1714L64.1689 70.9284L63.9259 71.1043L64.1018 71.3473ZM64.6447 72.0972L64.8206 72.3402L65.0636 72.1643L64.8877 71.9213L64.6447 72.0972ZM61.0329 74.712L60.7899 74.888L60.9658 75.131L61.2088 74.955L61.0329 74.712ZM60.49 73.9621L60.3141 73.7191L60.0711 73.8951L60.247 74.1381L60.49 73.9621ZM68.3697 77.6541L68.9091 78.3993L69.3952 78.0474L68.8557 77.3023L68.3697 77.6541ZM68.9762 77.9803L65.3169 80.6295L65.6688 81.1155L69.3281 78.4664L68.9762 77.9803ZM65.7359 80.6966L65.1964 79.9515L64.7104 80.3033L65.2499 81.0485L65.7359 80.6966ZM65.1293 80.3704L68.7886 77.7212L68.4368 77.2352L64.7775 79.8844L65.1293 80.3704ZM60.4321 74.0041L65.435 80.9145L65.921 80.5626L60.9181 73.6522L60.4321 74.0041ZM65.502 80.4955L64.586 81.1587L64.9379 81.6447L65.8539 80.9815L65.502 80.4955ZM65.005 81.2258L60.0021 74.3154L59.5161 74.6672L64.519 81.5776L65.005 81.2258ZM59.935 74.7343L60.851 74.0711L60.4992 73.5851L59.5832 74.2483L59.935 74.7343ZM65.5731 74.8104L66.1126 75.5556L66.5986 75.2037L66.0591 74.4586L65.5731 74.8104ZM66.1797 75.1367L63.0045 77.4354L63.3563 77.9214L66.5315 75.6227L66.1797 75.1367ZM63.4234 77.5024L62.884 76.7573L62.398 77.1092L62.9374 77.8543L63.4234 77.5024ZM62.8169 77.1762L65.9921 74.8775L65.6402 74.3915L62.465 76.6902L62.8169 77.1762ZM63.8588 71.5232L64.4017 72.2731L64.8877 71.9213L64.3448 71.1714L63.8588 71.5232ZM64.4688 71.8542L60.857 74.469L61.2088 74.955L64.8206 72.3402L64.4688 71.8542ZM61.2759 74.5361L60.733 73.7862L60.247 74.1381L60.7899 74.888L61.2759 74.5361ZM60.6659 74.2051L64.2777 71.5903L63.9259 71.1043L60.3141 73.7191L60.6659 74.2051Z" fill="white"/>
    <path d="M77.3691 64.4499L77.9445 63.4832C78.3778 63.8092 78.7134 64.1885 78.9514 64.6211C79.1894 65.0537 79.299 65.5303 79.2801 66.0509C79.2578 66.5695 79.0719 67.1225 78.7223 67.7099C78.4665 68.1396 78.1532 68.4827 77.7823 68.7393C77.4134 68.9925 77.0064 69.157 76.5611 69.233C76.1126 69.3069 75.6392 69.2889 75.1411 69.1788C74.6416 69.0633 74.135 68.8527 73.6214 68.5471L72.8914 68.1125C72.3778 67.8069 71.9528 67.463 71.6165 67.081C71.2788 66.6937 71.0365 66.2836 70.8896 65.8506C70.7447 65.4144 70.6996 64.967 70.7542 64.5086C70.8089 64.0502 70.971 63.5944 71.2407 63.1412C71.5704 62.5874 71.9531 62.1811 72.389 61.9223C72.8249 61.6635 73.2903 61.5382 73.7854 61.5465C74.2792 61.5494 74.7827 61.6695 75.2961 61.9069L74.7207 62.8736C74.3503 62.7168 74.0047 62.6293 73.6837 62.611C73.3594 62.5907 73.0602 62.6581 72.7861 62.8132C72.512 62.9682 72.262 63.2354 72.0363 63.6147C71.8425 63.9403 71.7338 64.2643 71.7101 64.5866C71.6885 64.9056 71.7418 65.2169 71.8702 65.5206C72.0006 65.8209 72.2002 66.1079 72.4692 66.3816C72.7381 66.6553 73.0673 66.9081 73.4567 67.1398L74.1968 67.5803C74.556 67.7941 74.9153 67.958 75.2748 68.0719C75.6363 68.1825 75.9821 68.2315 76.3123 68.2189C76.6426 68.2064 76.9474 68.1219 77.2269 67.9655C77.503 67.8071 77.738 67.565 77.9317 67.2394C78.1775 66.8266 78.3078 66.4587 78.3227 66.1357C78.3377 65.8127 78.2596 65.5162 78.0884 65.2462C77.9193 64.9728 77.6796 64.7074 77.3691 64.4499Z" fill="white"/>
    <path d="M77.3691 64.4499L77.1113 64.2965L76.9801 64.517L77.1776 64.6808L77.3691 64.4499ZM77.9445 63.4832L78.1249 63.2435L77.8577 63.0424L77.6867 63.3297L77.9445 63.4832ZM79.2801 66.0509L79.5798 66.0638L79.5799 66.0618L79.2801 66.0509ZM77.7823 68.7393L77.9521 68.9866L77.953 68.986L77.7823 68.7393ZM76.5611 69.233L76.6099 69.529L76.6116 69.5287L76.5611 69.233ZM75.1411 69.1788L75.0735 69.4711L75.0763 69.4717L75.1411 69.1788ZM71.6165 67.081L71.3904 67.2782L71.3913 67.2793L71.6165 67.081ZM70.8896 65.8506L70.6049 65.9452L70.6055 65.9471L70.8896 65.8506ZM73.7854 61.5465L73.7804 61.8465L73.7837 61.8465L73.7854 61.5465ZM75.2961 61.9069L75.5539 62.0603L75.7241 61.7743L75.422 61.6346L75.2961 61.9069ZM74.7207 62.8736L74.6037 63.1499L74.8447 63.2519L74.9785 63.027L74.7207 62.8736ZM73.6837 62.611L73.665 62.9104L73.6667 62.9105L73.6837 62.611ZM71.7101 64.5866L71.4109 64.5647L71.4108 64.5663L71.7101 64.5866ZM71.8702 65.5206L71.5939 65.6374L71.595 65.64L71.8702 65.5206ZM75.2748 68.0719L75.1841 68.3579L75.187 68.3588L75.2748 68.0719ZM77.2269 67.9655L77.3734 68.2273L77.3762 68.2257L77.2269 67.9655ZM78.0884 65.2462L77.8333 65.404L77.835 65.4068L78.0884 65.2462ZM77.6269 64.6033L78.2023 63.6366L77.6867 63.3297L77.1113 64.2965L77.6269 64.6033ZM77.7641 63.7229C78.1668 64.0259 78.4729 64.3738 78.6886 64.7657L79.2143 64.4765C78.9539 64.0032 78.5887 63.5925 78.1249 63.2435L77.7641 63.7229ZM78.6886 64.7657C78.899 65.1481 78.9973 65.5705 78.9803 66.04L79.5799 66.0618C79.6007 65.4901 79.4799 64.9593 79.2143 64.4765L78.6886 64.7657ZM78.9804 66.038C78.9608 66.4938 78.7965 66.9987 78.4645 67.5565L78.98 67.8634C79.3473 67.2463 79.5548 66.6452 79.5798 66.0638L78.9804 66.038ZM78.4645 67.5565C78.2283 67.9532 77.9435 68.263 77.6117 68.4925L77.953 68.986C78.363 68.7024 78.7047 68.326 78.98 67.8634L78.4645 67.5565ZM77.6126 68.4919C77.2798 68.7203 76.9135 68.8685 76.5107 68.9373L76.6116 69.5287C77.0992 69.4455 77.5471 69.2646 77.9521 68.9866L77.6126 68.4919ZM76.5124 68.937C76.1058 69.004 75.6712 68.9887 75.2058 68.8858L75.0763 69.4717C75.6072 69.589 76.1193 69.6099 76.6099 69.529L76.5124 68.937ZM75.2086 68.8865C74.7439 68.779 74.2661 68.5816 73.7749 68.2893L73.468 68.8049C74.0039 69.1238 74.5392 69.3476 75.0735 69.471L75.2086 68.8865ZM73.7749 68.2893L73.0448 67.8547L72.7379 68.3703L73.468 68.8049L73.7749 68.2893ZM73.0448 67.8547C72.5535 67.5624 72.1541 67.2377 71.8417 66.8828L71.3913 67.2793C71.7516 67.6884 72.202 68.0514 72.7379 68.3703L73.0448 67.8547ZM71.8426 66.8839C71.5275 66.5224 71.3066 66.1458 71.1737 65.7542L70.6055 65.9471C70.7665 66.4213 71.0302 66.865 71.3904 67.2782L71.8426 66.8839ZM71.1743 65.7561C71.0434 65.3618 71.0027 64.9589 71.0521 64.5441L70.4563 64.4731C70.3965 64.9751 70.446 65.4669 70.6049 65.9452L71.1743 65.7561ZM71.0521 64.5441C71.1011 64.1329 71.2472 63.7169 71.4985 63.2947L70.9829 62.9878C70.6948 63.4719 70.5166 63.9675 70.4563 64.4731L71.0521 64.5441ZM71.4985 63.2947C71.8094 62.7724 72.1595 62.4074 72.5422 62.1802L72.2358 61.6643C71.7468 61.9547 71.3314 62.4023 70.9829 62.9878L71.4985 63.2947ZM72.5422 62.1802C72.9314 61.9491 73.3423 61.8391 73.7804 61.8464L73.7905 61.2465C73.2384 61.2373 72.7183 61.3778 72.2358 61.6643L72.5422 62.1802ZM73.7837 61.8465C74.2287 61.8491 74.6901 61.9572 75.1702 62.1792L75.422 61.6346C74.8753 61.3819 74.3297 61.2497 73.7872 61.2465L73.7837 61.8465ZM75.0383 61.7534L74.4629 62.7202L74.9785 63.027L75.5539 62.0603L75.0383 61.7534ZM74.8376 62.5974C74.4432 62.4304 74.0635 62.3322 73.7008 62.3115L73.6667 62.9105C73.9458 62.9264 74.2575 63.0033 74.6037 63.1499L74.8376 62.5974ZM73.7024 62.3116C73.3221 62.2878 72.9648 62.3674 72.6384 62.5521L72.9338 63.0743C73.1556 62.9488 73.3967 62.8937 73.665 62.9104L73.7024 62.3116ZM72.6384 62.5521C72.3042 62.7411 72.0208 63.0542 71.7785 63.4613L72.2941 63.7682C72.5033 63.4166 72.7198 63.1954 72.9338 63.0743L72.6384 62.5521ZM71.7785 63.4613C71.565 63.82 71.4385 64.1885 71.4109 64.5647L72.0093 64.6085C72.029 64.34 72.12 64.0606 72.2941 63.7682L71.7785 63.4613ZM71.4108 64.5663C71.3859 64.9336 71.4478 65.2918 71.5939 65.6374L72.1465 65.4038C72.0359 65.142 71.9911 64.8775 72.0094 64.6069L71.4108 64.5663ZM71.595 65.64C71.7423 65.9794 71.9648 66.2964 72.2552 66.5919L72.6832 66.1714C72.4357 65.9195 72.2588 65.6624 72.1454 65.4011L71.595 65.64ZM72.2552 66.5919C72.5451 66.8869 72.8956 67.155 73.3032 67.3976L73.6101 66.882C73.239 66.6611 72.9311 66.4237 72.6832 66.1714L72.2552 66.5919ZM73.3032 67.3976L74.0434 67.8381L74.3502 67.3225L73.6101 66.882L73.3032 67.3976ZM74.0434 67.8381C74.4202 68.0624 74.8005 68.2363 75.1841 68.3579L75.3654 67.7859C75.0301 67.6796 74.6917 67.5258 74.3502 67.3225L74.0434 67.8381ZM75.187 68.3588C75.5761 68.4778 75.9555 68.5327 76.3238 68.5187L76.3009 67.9192C76.0087 67.9303 75.6965 67.8872 75.3626 67.785L75.187 68.3588ZM76.3238 68.5187C76.6998 68.5044 77.0512 68.4076 77.3734 68.2273L77.0804 67.7037C76.8436 67.8362 76.5853 67.9083 76.3009 67.9192L76.3238 68.5187ZM77.3762 68.2257C77.7049 68.0371 77.9744 67.7544 78.1895 67.3929L77.6739 67.086C77.5015 67.3757 77.3011 67.577 77.0776 67.7053L77.3762 68.2257ZM78.1895 67.3929C78.4492 66.9566 78.6044 66.5399 78.6224 66.1496L78.0231 66.1218C78.0112 66.3774 77.9058 66.6965 77.6739 67.086L78.1895 67.3929ZM78.6224 66.1496C78.6402 65.7658 78.5463 65.4083 78.3419 65.0856L77.835 65.4068C77.9728 65.6242 78.0352 65.8597 78.0231 66.1218L78.6224 66.1496ZM78.3436 65.0884C78.1536 64.7813 77.89 64.4922 77.5607 64.219L77.1776 64.6808C77.4691 64.9226 77.685 65.1643 77.8333 65.404L78.3436 65.0884Z" fill="white"/>
    <path d="M75.8893 53.0037L83.1118 57.037L82.9269 58.1764L75.0268 53.5998L75.146 52.8653L75.8893 53.0037ZM83.9434 51.9126L75.8151 53.4606L75.0662 53.3569L75.1854 52.6224L84.1293 50.7675L83.9434 51.9126ZM80.8026 51.5513L81.7164 51.6996L80.9486 56.4307L80.0348 56.2824L80.8026 51.5513Z" fill="white"/>
    <path d="M75.8893 53.0037L76.0355 52.7418L75.9926 52.7178L75.9442 52.7088L75.8893 53.0037ZM83.1118 57.037L83.4079 57.0851L83.4416 56.8776L83.2581 56.7751L83.1118 57.037ZM82.9269 58.1764L82.7765 58.436L83.1533 58.6542L83.223 58.2245L82.9269 58.1764ZM75.0268 53.5998L74.7306 53.5518L74.6975 53.7558L74.8764 53.8594L75.0268 53.5998ZM75.146 52.8653L75.2009 52.5704L74.899 52.5141L74.8498 52.8172L75.146 52.8653ZM83.9434 51.9126L83.9996 52.2073L84.2059 52.168L84.2396 51.9607L83.9434 51.9126ZM75.8151 53.4606L75.7739 53.7578L75.8228 53.7646L75.8712 53.7553L75.8151 53.4606ZM75.0662 53.3569L74.7701 53.3088L74.7209 53.6119L75.025 53.6541L75.0662 53.3569ZM75.1854 52.6224L75.1245 52.3286L74.9223 52.3705L74.8893 52.5743L75.1854 52.6224ZM84.1293 50.7675L84.4254 50.8155L84.4952 50.3852L84.0684 50.4737L84.1293 50.7675ZM80.8026 51.5513L80.8506 51.2552L80.5545 51.2071L80.5064 51.5033L80.8026 51.5513ZM81.7164 51.6996L82.0125 51.7477L82.0606 51.4516L81.7644 51.4035L81.7164 51.6996ZM80.9486 56.4307L80.9005 56.7268L81.1967 56.7749L81.2447 56.4788L80.9486 56.4307ZM80.0348 56.2824L79.7386 56.2343L79.6906 56.5305L79.9867 56.5785L80.0348 56.2824ZM75.743 53.2656L82.9656 57.2989L83.2581 56.7751L76.0355 52.7418L75.743 53.2656ZM82.8157 56.989L82.6308 58.1283L83.223 58.2245L83.4079 57.0851L82.8157 56.989ZM83.0773 57.9168L75.1771 53.3402L74.8764 53.8594L82.7765 58.436L83.0773 57.9168ZM75.3229 53.6479L75.4421 52.9133L74.8498 52.8172L74.7306 53.5518L75.3229 53.6479ZM75.091 53.1602L75.8343 53.2986L75.9442 52.7088L75.2009 52.5704L75.091 53.1602ZM83.8873 51.6179L75.759 53.1659L75.8712 53.7553L83.9996 52.2073L83.8873 51.6179ZM75.8563 53.1635L75.1073 53.0597L75.025 53.6541L75.7739 53.7578L75.8563 53.1635ZM75.3623 53.405L75.4815 52.6704L74.8893 52.5743L74.7701 53.3088L75.3623 53.405ZM75.2463 52.9161L84.1902 51.0612L84.0684 50.4737L75.1245 52.3286L75.2463 52.9161ZM83.8332 50.7194L83.6473 51.8646L84.2396 51.9607L84.4254 50.8155L83.8332 50.7194ZM80.7545 51.8474L81.6683 51.9957L81.7644 51.4035L80.8506 51.2552L80.7545 51.8474ZM81.4203 51.6516L80.6525 56.3826L81.2447 56.4788L82.0125 51.7477L81.4203 51.6516ZM80.9966 56.1346L80.0828 55.9863L79.9867 56.5785L80.9005 56.7268L80.9966 56.1346ZM80.3309 56.3305L81.0987 51.5994L80.5064 51.5033L79.7386 56.2343L80.3309 56.3305Z" fill="white"/>
    <path d="M80.8125 39.2412C80.6186 39.2868 80.4546 39.3574 80.3206 39.4531C80.1819 39.5459 80.0691 39.6807 79.9823 39.8576C79.8945 40.0307 79.8259 40.2595 79.7764 40.544C79.7259 40.8247 79.6897 41.1743 79.6676 41.5928C79.6425 42.0321 79.5946 42.4345 79.524 42.8002C79.4496 43.1668 79.3431 43.4907 79.2046 43.7721C79.0661 44.0534 78.886 44.2863 78.6645 44.4708C78.443 44.6552 78.1707 44.7854 77.8474 44.8613C77.5242 44.9373 77.2101 44.9409 76.905 44.8721C76.5999 44.8033 76.3176 44.669 76.058 44.4692C75.7937 44.2665 75.5638 44.0055 75.3684 43.6863C75.1731 43.367 75.0253 42.9944 74.9253 42.5685C74.7787 41.9449 74.7743 41.3882 74.9121 40.8984C75.0451 40.4057 75.2768 40.0001 75.6073 39.6817C75.934 39.3642 76.3141 39.1545 76.7476 39.0527L77.0049 40.1479C76.6931 40.2211 76.433 40.3524 76.2247 40.5418C76.0126 40.7321 75.8698 40.9783 75.7963 41.2805C75.7191 41.5835 75.7291 41.9423 75.8265 42.3568C75.9185 42.7485 76.0534 43.0578 76.2312 43.2849C76.4089 43.512 76.6133 43.6646 76.8443 43.7428C77.0744 43.8171 77.3188 43.8239 77.5774 43.7631C77.7523 43.722 77.9035 43.6484 78.0311 43.5422C78.1539 43.4331 78.2578 43.2863 78.3429 43.1018C78.4271 42.9135 78.4919 42.6856 78.5374 42.4181C78.582 42.1468 78.6116 41.8288 78.6263 41.4643C78.6486 40.9615 78.7013 40.5197 78.7844 40.1391C78.8675 39.7584 78.9858 39.4337 79.1394 39.1649C79.2882 38.8932 79.4794 38.6737 79.713 38.5065C79.9418 38.3363 80.2179 38.2133 80.5411 38.1373C80.8796 38.0578 81.2018 38.0544 81.5077 38.1269C81.8137 38.1995 82.0935 38.3404 82.3473 38.5496C82.6011 38.7588 82.8233 39.0297 83.0137 39.3621C83.1995 39.6916 83.3437 40.075 83.4465 40.5124C83.5367 40.8964 83.5724 41.2873 83.5535 41.685C83.5336 42.0789 83.453 42.4529 83.3115 42.8072C83.1691 43.1576 82.9635 43.4607 82.6946 43.7165C82.4209 43.9694 82.0769 44.1445 81.6624 44.2419L81.4051 43.1467C81.6903 43.0797 81.9226 42.967 82.102 42.8084C82.2777 42.6508 82.4097 42.4613 82.4981 42.2399C82.5856 42.0147 82.6331 41.7728 82.6406 41.5142C82.6434 41.2528 82.6135 40.9889 82.5509 40.7228C82.4607 40.3387 82.3311 40.0261 82.1621 39.7849C81.9931 39.5437 81.7936 39.3779 81.5637 39.2875C81.3329 39.1932 81.0825 39.1778 80.8125 39.2412Z" fill="white"/>
    <path d="M80.3206 39.4531L80.4875 39.7026L80.4949 39.6973L80.3206 39.4531ZM79.9823 39.8576L80.2499 39.9933L80.2516 39.9898L79.9823 39.8576ZM79.7764 40.544L80.0716 40.5971L80.0719 40.5955L79.7764 40.544ZM79.6676 41.5928L79.9672 41.61L79.9672 41.6086L79.6676 41.5928ZM79.524 42.8002L79.818 42.8599L79.8185 42.8571L79.524 42.8002ZM76.058 44.4692L76.241 44.2315L76.2406 44.2312L76.058 44.4692ZM74.9121 40.8984L75.2009 40.9796L75.2017 40.9766L74.9121 40.8984ZM75.6073 39.6817L75.8155 39.8978L75.8164 39.8968L75.6073 39.6817ZM76.7476 39.0527L77.0396 38.9841L76.971 38.692L76.679 38.7606L76.7476 39.0527ZM77.0049 40.1479L77.0735 40.4399L77.3655 40.3713L77.2969 40.0793L77.0049 40.1479ZM76.2247 40.5418L76.425 40.7651L76.4265 40.7638L76.2247 40.5418ZM75.7963 41.2805L76.0871 41.3546L76.0878 41.3513L75.7963 41.2805ZM76.8443 43.7428L76.7482 44.027L76.7521 44.0282L76.8443 43.7428ZM78.0311 43.5422L78.2231 43.7728L78.2303 43.7665L78.0311 43.5422ZM78.3429 43.1018L78.6154 43.2274L78.6168 43.2242L78.3429 43.1018ZM78.5374 42.4181L78.8331 42.4684L78.8334 42.4667L78.5374 42.4181ZM78.6263 41.4643L78.3266 41.451L78.3265 41.4522L78.6263 41.4643ZM79.1394 39.1649L79.3999 39.3137L79.4025 39.309L79.1394 39.1649ZM79.713 38.5065L79.8876 38.7504L79.8919 38.7472L79.713 38.5065ZM83.0137 39.3621L83.2751 39.2148L83.274 39.213L83.0137 39.3621ZM83.5535 41.685L83.8531 41.7001L83.8531 41.6992L83.5535 41.685ZM83.3115 42.8072L83.5895 42.9201L83.5901 42.9184L83.3115 42.8072ZM82.6946 43.7165L82.8982 43.9369L82.9013 43.9339L82.6946 43.7165ZM81.6624 44.2419L81.3703 44.3105L81.4389 44.6026L81.731 44.534L81.6624 44.2419ZM81.4051 43.1467L81.3364 42.8547L81.0444 42.9233L81.113 43.2154L81.4051 43.1467ZM82.102 42.8084L82.3006 43.0333L82.3024 43.0317L82.102 42.8084ZM82.4981 42.2399L82.7767 42.3512L82.7777 42.3486L82.4981 42.2399ZM82.6406 41.5142L82.9405 41.5229L82.9406 41.5174L82.6406 41.5142ZM81.5637 39.2875L81.4503 39.5652L81.4539 39.5666L81.5637 39.2875ZM80.7439 38.9492C80.5197 39.0019 80.318 39.0864 80.1463 39.209L80.4949 39.6973C80.5912 39.6285 80.7174 39.5718 80.8811 39.5333L80.7439 38.9492ZM80.1538 39.2038C79.9639 39.3308 79.8188 39.5098 79.713 39.7254L80.2516 39.9898C80.3194 39.8517 80.3999 39.761 80.4874 39.7025L80.1538 39.2038ZM79.7147 39.722C79.6087 39.9312 79.5332 40.1916 79.4808 40.4926L80.0719 40.5955C80.1186 40.3274 80.1804 40.1303 80.2498 39.9933L79.7147 39.722ZM79.4811 40.491C79.4277 40.7882 79.3905 41.1512 79.3681 41.577L79.9672 41.6086C79.9889 41.1974 80.0242 40.8612 80.0716 40.5971L79.4811 40.491ZM79.3681 41.5756C79.3436 42.0039 79.2971 42.3929 79.2294 42.7434L79.8185 42.8571C79.8921 42.4762 79.9413 42.0602 79.9672 41.61L79.3681 41.5756ZM79.23 42.7406C79.1598 43.0866 79.0607 43.3853 78.9355 43.6395L79.4737 43.9046C79.6256 43.5962 79.7394 43.247 79.818 42.8599L79.23 42.7406ZM78.9355 43.6395C78.8138 43.8865 78.659 44.085 78.4726 44.2402L78.8565 44.7013C79.1131 44.4876 79.3183 44.2203 79.4737 43.9046L78.9355 43.6395ZM78.4726 44.2402C78.2919 44.3906 78.0636 44.5024 77.7788 44.5693L77.9161 45.1534C78.2777 45.0684 78.5942 44.9198 78.8565 44.7013L78.4726 44.2402ZM77.7788 44.5693C77.497 44.6355 77.229 44.6376 76.971 44.5794L76.839 45.1648C77.1911 45.2441 77.5514 45.2391 77.9161 45.1534L77.7788 44.5693ZM76.971 44.5794C76.7105 44.5207 76.4677 44.406 76.241 44.2315L75.875 44.707C76.1675 44.9321 76.4894 45.0859 76.839 45.1648L76.971 44.5794ZM76.2406 44.2312C76.0089 44.0535 75.8028 43.8213 75.6243 43.5296L75.1126 43.8429C75.3248 44.1897 75.5785 44.4795 75.8754 44.7073L76.2406 44.2312ZM75.6243 43.5296C75.4481 43.2418 75.3113 42.8999 75.2173 42.4999L74.6332 42.6371C74.7394 43.089 74.898 43.4922 75.1126 43.8429L75.6243 43.5296ZM75.2173 42.4999C75.0795 41.9131 75.08 41.4094 75.2009 40.9796L74.6233 40.8172C74.4687 41.3669 74.478 41.9767 74.6332 42.6371L75.2173 42.4999ZM75.2017 40.9766C75.3222 40.5303 75.5284 40.1743 75.8155 39.8978L75.3992 39.4657C75.0253 39.8259 74.768 40.281 74.6224 40.8202L75.2017 40.9766ZM75.8164 39.8968C76.105 39.6163 76.4369 39.4339 76.8162 39.3447L76.679 38.7606C76.1912 38.8752 75.7629 39.1121 75.3982 39.4666L75.8164 39.8968ZM76.4555 39.1213L76.7128 40.2165L77.2969 40.0793L77.0396 38.9841L76.4555 39.1213ZM76.9363 39.8558C76.5817 39.9391 76.2738 40.0917 76.0229 40.3199L76.4265 40.7638C76.5921 40.6132 76.8044 40.5031 77.0735 40.4399L76.9363 39.8558ZM76.0244 40.3185C75.763 40.5529 75.5912 40.8542 75.5048 41.2096L76.0878 41.3513C76.1484 41.1024 76.2621 40.9113 76.425 40.7651L76.0244 40.3185ZM75.5056 41.2064C75.4129 41.57 75.4298 41.9801 75.5345 42.4254L76.1186 42.2882C76.0284 41.9045 76.0252 41.5971 76.087 41.3546L75.5056 41.2064ZM75.5345 42.4254C75.6328 42.8438 75.782 43.1978 75.9949 43.4698L76.4674 43.1C76.3249 42.9179 76.2043 42.6532 76.1186 42.2882L75.5345 42.4254ZM75.9949 43.4698C76.202 43.7344 76.4523 43.9269 76.7482 44.027L76.9404 43.4586C76.7742 43.4024 76.6158 43.2896 76.4674 43.1L75.9949 43.4698ZM76.7521 44.0282C77.0393 44.121 77.3396 44.1272 77.646 44.0552L77.5088 43.4711C77.298 43.5206 77.1096 43.5132 76.9365 43.4573L76.7521 44.0282ZM77.646 44.0552C77.8624 44.0043 78.0568 43.9111 78.223 43.7727L77.8391 43.3117C77.7503 43.3856 77.6422 43.4398 77.5088 43.4711L77.646 44.0552ZM78.2303 43.7665C78.3905 43.6242 78.5169 43.4408 78.6153 43.2274L78.0705 42.9762C77.9987 43.1317 77.9173 43.242 77.8318 43.3179L78.2303 43.7665ZM78.6168 43.2242C78.7139 43.0069 78.7847 42.7534 78.8331 42.4684L78.2416 42.3678C78.1991 42.6177 78.1402 42.82 78.069 42.9794L78.6168 43.2242ZM78.8334 42.4667C78.8805 42.1802 78.911 41.8495 78.926 41.4763L78.3265 41.4522C78.3122 41.8082 78.2834 42.1134 78.2414 42.3694L78.8334 42.4667ZM78.926 41.4776C78.9477 40.9872 78.9989 40.563 79.0775 40.2031L78.4913 40.0751C78.4037 40.4764 78.3494 40.9357 78.3266 41.451L78.926 41.4776ZM79.0775 40.2031C79.1557 39.8448 79.2648 39.5502 79.3999 39.3137L78.8789 39.0161C78.7069 39.3171 78.5793 39.672 78.4913 40.0751L79.0775 40.2031ZM79.4025 39.309C79.5314 39.0736 79.6935 38.8894 79.8876 38.7504L79.5383 38.2625C79.2653 38.458 79.045 38.7127 78.8762 39.0207L79.4025 39.309ZM79.8919 38.7472C80.083 38.6052 80.3199 38.4975 80.6097 38.4294L80.4725 37.8453C80.1159 37.9291 79.8007 38.0674 79.534 38.2657L79.8919 38.7472ZM80.6097 38.4294C80.9077 38.3594 81.1824 38.3581 81.4385 38.4188L81.5769 37.835C81.2211 37.7506 80.8514 37.7563 80.4725 37.8453L80.6097 38.4294ZM81.4385 38.4188C81.6978 38.4803 81.9364 38.5997 82.1565 38.7811L82.5382 38.3181C82.2507 38.0811 81.9296 37.9187 81.5769 37.835L81.4385 38.4188ZM82.1565 38.7811C82.3782 38.9638 82.578 39.2051 82.7534 39.5112L83.274 39.213C83.0685 38.8542 82.8241 38.5538 82.5382 38.3181L82.1565 38.7811ZM82.7524 39.5094C82.9219 39.8102 83.057 40.1662 83.1544 40.581L83.7385 40.4437C83.6305 39.9839 83.477 39.5731 83.2751 39.2148L82.7524 39.5094ZM83.1544 40.581C83.2382 40.9377 83.2714 41.3006 83.2538 41.6707L83.8531 41.6992C83.8734 41.274 83.8352 40.8552 83.7385 40.4437L83.1544 40.581ZM83.2538 41.6699C83.2356 42.0319 83.1617 42.3734 83.0329 42.6959L83.5901 42.9184C83.7443 42.5325 83.8317 42.1258 83.8531 41.7001L83.2538 41.6699ZM83.0336 42.6943C82.9069 43.006 82.7253 43.2733 82.4878 43.4991L82.9013 43.9339C83.2017 43.6482 83.4314 43.3092 83.5895 42.9201L83.0336 42.6943ZM82.4909 43.4962C82.2605 43.7092 81.9651 43.8626 81.5937 43.9499L81.731 44.534C82.1886 44.4265 82.5813 44.2297 82.8982 43.9369L82.4909 43.4962ZM81.9544 44.1733L81.6971 43.0781L81.113 43.2154L81.3703 44.3105L81.9544 44.1733ZM81.4737 43.4388C81.7964 43.363 82.0767 43.2312 82.3006 43.0333L81.9034 42.5836C81.7685 42.7028 81.5841 42.7965 81.3364 42.8547L81.4737 43.4388ZM82.3024 43.0317C82.5127 42.8429 82.6714 42.615 82.7767 42.3512L82.2195 42.1286C82.148 42.3076 82.0426 42.4587 81.9016 42.5852L82.3024 43.0317ZM82.7777 42.3486C82.8785 42.0892 82.9321 41.8133 82.9405 41.5229L82.3407 41.5056C82.3342 41.7323 82.2927 41.9401 82.2185 42.1312L82.7777 42.3486ZM82.9406 41.5174C82.9436 41.2307 82.9108 40.9428 82.843 40.6541L82.2589 40.7914C82.3162 41.0351 82.3431 41.2748 82.3406 41.5111L82.9406 41.5174ZM82.843 40.6541C82.7468 40.2448 82.6047 39.8938 82.4077 39.6127L81.9164 39.9571C82.0574 40.1583 82.1746 40.4326 82.2589 40.7914L82.843 40.6541ZM82.4077 39.6127C82.2115 39.3327 81.968 39.1241 81.6735 39.0083L81.4539 39.5666C81.6192 39.6317 81.7746 39.7547 81.9164 39.9571L82.4077 39.6127ZM81.6771 39.0097C81.3822 38.8893 81.0674 38.8732 80.7439 38.9492L80.8811 39.5333C81.0976 39.4824 81.2836 39.4972 81.4503 39.5652L81.6771 39.0097Z" fill="white"/>
    <path d="M74.9598 24.761L75.7072 24.2247L78.3409 27.8952L77.5935 28.4315L74.9598 24.761ZM71.2762 32.6831L78.2077 27.7095L78.867 28.6283L71.9355 33.6019L71.2762 32.6831ZM72.1043 27.5455L72.8517 27.0092L75.137 30.1941L74.3896 30.7304L72.1043 27.5455ZM68.8099 29.2459L69.5621 28.7062L72.1616 32.329L71.4094 32.8688L68.8099 29.2459Z" fill="white"/>
    <path d="M74.9598 24.761L74.7849 24.5173L74.5411 24.6922L74.716 24.9359L74.9598 24.761ZM75.7072 24.2247L75.9509 24.0498L75.7761 23.8061L75.5323 23.981L75.7072 24.2247ZM78.3409 27.8952L78.5158 28.1389L78.7595 27.964L78.5846 27.7203L78.3409 27.8952ZM77.5935 28.4315L77.3497 28.6064L77.5246 28.8501L77.7684 28.6752L77.5935 28.4315ZM71.2762 32.6831L71.1013 32.4394L70.8576 32.6143L71.0325 32.858L71.2762 32.6831ZM78.2077 27.7095L78.4514 27.5346L78.2765 27.2908L78.0328 27.4657L78.2077 27.7095ZM78.867 28.6283L79.0418 28.872L79.2856 28.6971L79.1107 28.4534L78.867 28.6283ZM71.9355 33.6019L71.6917 33.7768L71.8666 34.0205L72.1104 33.8456L71.9355 33.6019ZM72.1043 27.5455L71.9294 27.3018L71.6857 27.4767L71.8606 27.7204L72.1043 27.5455ZM72.8517 27.0092L73.0955 26.8343L72.9206 26.5906L72.6768 26.7655L72.8517 27.0092ZM75.137 30.1941L75.3119 30.4378L75.5556 30.2629L75.3807 30.0192L75.137 30.1941ZM74.3896 30.7304L74.1458 30.9053L74.3207 31.149L74.5645 30.9741L74.3896 30.7304ZM68.8099 29.2459L68.635 29.0022L68.3912 29.1771L68.5661 29.4208L68.8099 29.2459ZM69.5621 28.7062L69.8058 28.5313L69.6309 28.2876L69.3872 28.4625L69.5621 28.7062ZM72.1616 32.329L72.3365 32.5728L72.5802 32.3979L72.4053 32.1542L72.1616 32.329ZM71.4094 32.8688L71.1657 33.0437L71.3406 33.2874L71.5843 33.1125L71.4094 32.8688ZM75.1347 25.0048L75.8821 24.4685L75.5323 23.981L74.7849 24.5173L75.1347 25.0048ZM75.4635 24.3996L78.0972 28.07L78.5846 27.7203L75.9509 24.0498L75.4635 24.3996ZM78.166 27.6514L77.4186 28.1877L77.7684 28.6752L78.5158 28.1389L78.166 27.6514ZM77.8372 28.2566L75.2035 24.5861L74.716 24.9359L77.3497 28.6064L77.8372 28.2566ZM71.4511 32.9268L78.3826 27.9532L78.0328 27.4657L71.1013 32.4394L71.4511 32.9268ZM77.9639 27.8844L78.6232 28.8032L79.1107 28.4534L78.4514 27.5346L77.9639 27.8844ZM78.6921 28.3845L71.7606 33.3582L72.1104 33.8456L79.0418 28.872L78.6921 28.3845ZM72.1792 33.427L71.5199 32.5082L71.0325 32.858L71.6917 33.7768L72.1792 33.427ZM72.2792 27.7893L73.0266 27.253L72.6768 26.7655L71.9294 27.3018L72.2792 27.7893ZM72.608 27.1841L74.8932 30.369L75.3807 30.0192L73.0955 26.8343L72.608 27.1841ZM74.9621 29.9503L74.2147 30.4866L74.5645 30.9741L75.3119 30.4378L74.9621 29.9503ZM74.6333 30.5555L72.3481 27.3706L71.8606 27.7204L74.1458 30.9053L74.6333 30.5555ZM68.9848 29.4897L69.737 28.95L69.3872 28.4625L68.635 29.0022L68.9848 29.4897ZM69.3183 28.8811L71.9179 32.5039L72.4053 32.1542L69.8058 28.5313L69.3183 28.8811ZM71.9867 32.0853L71.2345 32.625L71.5843 33.1125L72.3365 32.5728L71.9867 32.0853ZM71.6532 32.6939L69.0536 29.071L68.5661 29.4208L71.1657 33.0437L71.6532 32.6939Z" fill="white"/>
</svg>
