<svg width="10" height="18" viewBox="0 0 10 18" fill="none" xmlns="http://www.w3.org/2000/svg">
    <path d="M1.88509 16.933L9.73195 9.08781C9.84418 8.97572 9.90039 8.84677 9.90039 8.7009C9.90039 8.55503 9.84418 8.42584 9.73195 8.31369L1.88509 0.469177C1.77268 0.356795 1.64369 0.300781 1.49772 0.300781C1.35181 0.300781 1.22264 0.356972 1.11046 0.469177L0.268776 1.31069C0.156539 1.42289 0.10045 1.55202 0.10045 1.69789C0.10045 1.84376 0.156539 1.97289 0.268776 2.0851L6.88633 8.7009L0.268363 15.3169C0.156126 15.4291 0.10039 15.5583 0.10039 15.7039C0.10039 15.85 0.15648 15.9791 0.268363 16.0913L1.1104 16.9329C1.22258 17.0451 1.35181 17.1008 1.49766 17.1008C1.64369 17.1008 1.77286 17.0451 1.88509 16.933Z" fill="white"/>
</svg>
