<svg width="10" height="18" viewBox="0 0 10 18" fill="none" xmlns="http://www.w3.org/2000/svg">
    <path d="M8.11491 1.06702L0.268053 8.91219C0.155816 9.02428 0.0996094 9.15323 0.0996094 9.2991C0.0996094 9.44497 0.155816 9.57416 0.268053 9.68631L8.11491 17.5308C8.22732 17.6432 8.35631 17.6992 8.50228 17.6992C8.64819 17.6992 8.77736 17.643 8.88954 17.5308L9.73122 16.6893C9.84346 16.5771 9.89955 16.448 9.89955 16.3021C9.89955 16.1562 9.84346 16.0271 9.73122 15.9149L3.11367 9.2991L9.73164 2.68306C9.84387 2.57092 9.89961 2.44173 9.89961 2.29609C9.89961 2.14998 9.84352 2.02086 9.73164 1.90871L8.8896 1.06708C8.77742 0.954937 8.64819 0.899218 8.50234 0.899218C8.35631 0.899158 8.22714 0.954878 8.11491 1.06702Z" fill="white"/>
</svg>
