<svg width="647" height="303" viewBox="0 0 647 303" fill="none" xmlns="http://www.w3.org/2000/svg">
    <rect x="394" y="225" width="253" height="4" fill="#FF1700"/>
    <path d="M196.26 52.335C196.26 52.335 219.107 56.9022 228.379 83.9494" stroke="#170486" stroke-width="0.54" stroke-miterlimit="10"/>
    <path d="M200.988 141.292L183.824 153.839L185.14 155.637L202.304 143.09L200.988 141.292Z" fill="#FF1700"/>
    <path d="M200.988 141.292L183.824 153.839L185.14 155.637L202.304 143.09L200.988 141.292Z" stroke="#170486" stroke-width="0.54" stroke-miterlimit="10"/>
    <path d="M231.122 109.794L229.74 95.312C229.74 95.312 228.983 91.7251 225.372 93.7079L196.685 137.821C196.685 137.821 193.141 143.257 198.312 147.78C198.312 147.78 202.681 151.144 206.626 145.084L231.122 109.794Z" fill="#FF1700"/>
    <path d="M231.122 109.794L229.74 95.312C229.74 95.312 228.983 91.7251 225.372 93.7079L196.685 137.821C196.685 137.821 193.141 143.257 198.312 147.78C198.312 147.78 202.681 151.144 206.626 145.084L231.122 109.794Z" stroke="#170486" stroke-width="0.54" stroke-miterlimit="10"/>
    <path d="M205.334 142.186C204.331 143.924 202.102 144.503 200.363 143.5C198.624 142.498 198.045 140.27 199.048 138.532C200.051 136.794 202.28 136.215 204.018 137.218C205.757 138.22 206.337 140.448 205.334 142.186Z" fill="#FF1700"/>
    <path d="M205.334 142.186C204.331 143.924 202.102 144.503 200.363 143.5C198.624 142.498 198.045 140.27 199.048 138.532C200.051 136.794 202.28 136.215 204.018 137.218C205.757 138.22 206.337 140.448 205.334 142.186Z" stroke="#170486" stroke-width="0.54" stroke-miterlimit="10"/>
    <path d="M194.658 155.243L173.661 171.618C171.566 173.244 168.557 172.866 166.93 170.794L165.904 169.479C164.277 167.385 164.656 164.377 166.729 162.751L187.726 146.376C189.821 144.749 192.83 145.128 194.457 147.2L195.483 148.514C197.11 150.609 196.731 153.616 194.658 155.243Z" fill="#FF1700"/>
    <path d="M166.724 162.748L187.711 146.388C189.802 144.758 192.805 145.129 194.437 147.22L195.465 148.537C197.096 150.628 196.725 153.63 194.633 155.26L173.629 171.633C171.537 173.264 168.534 172.892 166.903 170.802L165.875 169.484C164.244 167.394 164.615 164.392 166.707 162.761L166.724 162.748Z" stroke="#170486" stroke-width="0.54" stroke-miterlimit="10"/>
    <path d="M156.875 175.586C159.216 179.952 164.654 181.601 169.045 179.262C173.414 176.922 175.064 171.486 172.701 167.097C170.36 162.73 164.922 161.082 160.553 163.421C156.184 165.76 154.535 171.197 156.897 175.586" fill="#FF1700"/>
    <path d="M156.875 175.586C159.216 179.952 164.654 181.601 169.045 179.262C173.414 176.922 175.064 171.486 172.701 167.097C170.36 162.73 164.922 161.082 160.553 163.421C156.184 165.76 154.535 171.197 156.897 175.586H156.875Z" stroke="#170486" stroke-width="0.49" stroke-miterlimit="10"/>
    <path d="M159.885 173.957C161.333 176.653 164.699 177.677 167.419 176.229C170.116 174.781 171.141 171.417 169.692 168.699C168.243 166.003 164.878 164.978 162.158 166.426C159.461 167.874 158.436 171.239 159.885 173.957Z" fill="#FF1700"/>
    <path d="M159.885 173.957C161.333 176.653 164.699 177.677 167.419 176.229C170.116 174.781 171.141 171.417 169.692 168.699C168.243 166.003 164.878 164.978 162.158 166.426C159.461 167.874 158.436 171.239 159.885 173.957Z" stroke="#170486" stroke-width="0.49" stroke-miterlimit="10"/>
    <path d="M193.052 149.741C194.122 151.367 193.677 153.55 192.049 154.62C190.422 155.689 188.238 155.244 187.168 153.617C186.098 151.991 186.544 149.807 188.171 148.738C189.798 147.669 191.983 148.114 193.052 149.741Z" fill="#FF1700"/>
    <path d="M193.052 149.741C194.122 151.367 193.677 153.55 192.049 154.62C190.422 155.689 188.238 155.244 187.168 153.617C186.098 151.991 186.544 149.807 188.171 148.738C189.798 147.669 191.983 148.114 193.052 149.741Z" stroke="#170486" stroke-width="0.52" stroke-miterlimit="10"/>
    <mask id="mask0_0_1" style="mask-type:luminance" maskUnits="userSpaceOnUse" x="47" y="167" width="127" height="78">
        <path d="M167.061 170.214L92.3679 234.29C92.3679 234.29 85.1237 238.723 75.071 237.097C65.0184 235.493 48.5909 228.296 48.5909 228.296C48.5909 228.296 44.8908 238.701 50.1289 239.904C55.3669 241.107 71.8613 248.348 87.5533 242.733L173.213 170.214L168.844 167.117L167.061 170.214Z" fill="white"/>
    </mask>
    <g mask="url(#mask0_0_1)">
        <path d="M173.234 167.14H44.9121V248.393H173.234V167.14Z" fill="url(#paint0_linear_0_1)"/>
    </g>
    <path d="M167.061 170.215L92.3679 234.29C92.3679 234.29 85.1237 238.724 75.071 237.098C65.0184 235.493 48.5909 228.297 48.5909 228.297C48.5909 228.297 44.8908 238.702 50.1289 239.905C55.3669 241.108 71.8613 248.349 87.5533 242.712L173.213 170.193L168.844 167.096L167.061 170.193V170.215Z" stroke="#170486" stroke-width="0.54" stroke-miterlimit="10"/>
    <path d="M335.036 196.305L338.357 194.389C343.617 191.359 345.423 184.63 342.391 179.35L309.358 122.159C306.327 116.901 299.595 115.096 294.313 118.126L290.991 120.042C285.731 123.072 283.925 129.823 286.957 135.081L319.99 192.272C323.022 197.53 329.753 199.335 335.036 196.305Z" fill="#FF1700"/>
    <path d="M335.036 196.305L338.357 194.389C343.617 191.359 345.423 184.63 342.391 179.35L309.358 122.159C306.327 116.901 299.595 115.096 294.313 118.126L290.991 120.042C285.731 123.072 283.925 129.823 286.957 135.081L319.99 192.272C323.022 197.53 329.753 199.335 335.036 196.305Z" stroke="#170486" stroke-width="0.54" stroke-miterlimit="10"/>
    <path d="M397.358 218.694L398.473 216.422C400.256 212.835 398.762 208.468 395.174 206.708L332.339 175.762C328.728 173.98 324.382 175.472 322.599 179.059L321.484 181.332C319.701 184.919 321.194 189.286 324.783 191.046L387.618 221.992C391.229 223.774 395.575 222.281 397.358 218.694Z" fill="#FF1700"/>
    <path d="M397.358 218.694L398.473 216.422C400.256 212.835 398.762 208.468 395.174 206.708L332.339 175.762C328.728 173.98 324.382 175.472 322.599 179.059L321.484 181.332C319.701 184.919 321.194 189.286 324.783 191.046L387.618 221.992C391.229 223.774 395.575 222.281 397.358 218.694Z" stroke="#170486" stroke-width="0.54" stroke-miterlimit="10"/>
    <path d="M389.759 228.074C394.841 229.99 400.547 227.427 402.464 222.348C404.381 217.246 401.818 211.565 396.736 209.648C391.653 207.71 385.947 210.295 384.03 215.374C382.113 220.454 384.677 226.158 389.759 228.074Z" fill="#FF1700"/>
    <path d="M389.759 228.074C394.841 229.99 400.547 227.427 402.464 222.348C404.381 217.246 401.818 211.565 396.736 209.648C391.653 207.71 385.947 210.295 384.03 215.374C382.113 220.454 384.677 226.158 389.759 228.074Z" stroke="#170486" stroke-width="0.54" stroke-miterlimit="10"/>
    <path d="M391.095 224.576C394.238 225.779 397.759 224.175 398.963 221.033C400.167 217.892 398.562 214.372 395.419 213.169C392.276 211.966 388.754 213.57 387.551 216.711C386.347 219.853 387.952 223.373 391.095 224.576Z" fill="#FF1700"/>
    <path d="M391.095 224.576C394.238 225.779 397.759 224.175 398.963 221.033C400.167 217.892 398.562 214.372 395.419 213.169C392.276 211.966 388.754 213.57 387.551 216.711C386.347 219.853 387.952 223.373 391.095 224.576Z" stroke="#170486" stroke-width="0.54" stroke-miterlimit="10"/>
    <mask id="mask1_0_1" style="mask-type:luminance" maskUnits="userSpaceOnUse" x="196" y="76" width="126" height="124">
        <path d="M202.458 101.573C200.407 104.046 198.557 106.652 196.93 109.326C205.132 111.153 213.513 113.759 221.894 117.168C266.786 135.549 295.629 170.928 290.903 199.624C301.112 196.862 309.448 191.515 314.909 183.539C333.053 156.959 312.212 111.197 268.391 81.3206C265.671 79.4714 262.93 77.7114 260.166 76.085C259.542 76.085 258.94 76.085 258.316 76.085C237.007 76.085 216.455 84.6848 202.48 101.595" fill="white"/>
    </mask>
    <g mask="url(#mask1_0_1)">
        <path d="M214.435 30.5165L155.5 183.737L315.47 245.212L374.405 91.9909L214.435 30.5165Z" fill="url(#paint1_linear_0_1)"/>
    </g>
    <path d="M268.368 81.3422C265.649 79.4931 262.907 77.733 260.143 76.1066C238.166 75.5942 216.834 84.194 202.458 101.594C200.407 104.067 198.579 106.674 196.93 109.347C205.132 111.174 213.513 113.781 221.894 117.19C266.786 135.57 295.629 170.95 290.903 199.646C301.112 196.883 309.448 191.536 314.909 183.56C333.053 156.981 312.212 111.219 268.391 81.3422H268.368Z" stroke="#170486" stroke-width="0.54" stroke-miterlimit="10"/>
    <path d="M217.883 115.786C217.883 115.786 241.532 90.0535 261.593 97.5394C261.593 97.5394 334.057 152.547 301.648 195.524" stroke="#170486" stroke-width="0.54" stroke-miterlimit="10"/>
    <path d="M212.131 128.219C212.131 128.219 234.086 104.291 252.676 111.198C252.676 111.198 318.81 160.681 290.702 199.603" stroke="#170486" stroke-width="0.54" stroke-miterlimit="10"/>
    <path d="M213.826 180.552L214.851 184.25C216.478 190.11 222.541 193.541 228.403 191.914L292.041 174.247C297.903 172.621 301.335 166.56 299.708 160.701L298.683 157.003C297.056 151.143 290.993 147.712 285.131 149.339L221.494 167.006C215.631 168.632 212.199 174.692 213.826 180.552Z" fill="#FF1700"/>
    <path d="M221.486 166.995L285.141 149.314C291.004 147.685 297.069 151.111 298.698 156.971L299.724 160.663C301.354 166.524 297.926 172.586 292.063 174.214L228.409 191.895C222.546 193.524 216.481 190.098 214.852 184.238L213.825 180.546C212.196 174.685 215.623 168.623 221.486 166.995Z" stroke="#170486" stroke-width="0.54" stroke-miterlimit="10"/>
    <path d="M265.27 225.668L267.165 223.997C270.174 221.346 270.463 216.756 267.811 213.748L231.345 172.465C228.693 169.457 224.101 169.167 221.092 171.818L219.197 173.489C216.188 176.141 215.898 180.73 218.551 183.738L255.017 225.022C257.669 228.029 262.261 228.319 265.27 225.668Z" fill="#FF1700"/>
    <path d="M265.27 225.668L267.165 223.997C270.174 221.346 270.463 216.756 267.811 213.748L231.345 172.465C228.693 169.457 224.101 169.167 221.092 171.818L219.197 173.489C216.188 176.141 215.898 180.73 218.551 183.738L255.017 225.022C257.669 228.029 262.261 228.319 265.27 225.668Z" stroke="#170486" stroke-width="0.49" stroke-miterlimit="10"/>
    <path d="M248.063 226.85C250.871 231.528 256.912 233.043 261.593 230.236C266.274 227.429 267.767 221.391 264.981 216.712C262.172 212.034 256.132 210.519 251.451 213.326C246.77 216.133 245.277 222.171 248.063 226.85Z" fill="#FF1700"/>
    <path d="M248.063 226.85C250.871 231.528 256.912 233.043 261.593 230.236C266.274 227.429 267.767 221.391 264.981 216.712C262.172 212.034 256.132 210.519 251.451 213.326C246.77 216.133 245.277 222.171 248.063 226.85Z" stroke="#170486" stroke-width="0.54" stroke-miterlimit="10"/>
    <path d="M251.295 224.933C253.033 227.83 256.778 228.765 259.653 227.028C262.551 225.29 263.487 221.547 261.748 218.673C260.01 215.776 256.265 214.841 253.367 216.578C250.47 218.316 249.534 222.059 251.272 224.933" fill="#FF1700"/>
    <path d="M251.295 224.933C253.033 227.83 256.778 228.765 259.653 227.028C262.551 225.29 263.487 221.547 261.748 218.673C260.01 215.776 256.265 214.841 253.367 216.578C250.47 218.316 249.534 222.059 251.272 224.933H251.295Z" stroke="#170486" stroke-width="0.54" stroke-miterlimit="10"/>
    <path d="M202.736 142.615L185.572 155.162L186.888 156.96L204.052 144.413L202.736 142.615Z" fill="#FF1700"/>
    <path d="M202.736 142.615L185.572 155.162L186.888 156.96L204.052 144.413L202.736 142.615Z" stroke="#170486" stroke-width="0.54" stroke-miterlimit="10"/>
    <path d="M232.861 111.107L231.479 96.6255C231.479 96.6255 230.721 93.0385 227.11 95.0214L198.423 139.135C198.423 139.135 194.879 144.571 200.05 149.094C200.05 149.094 204.419 152.458 208.364 146.398L232.861 111.107Z" fill="#FF1700"/>
    <path d="M232.861 111.107L231.479 96.6255C231.479 96.6255 230.721 93.0385 227.11 95.0214L198.423 139.135C198.423 139.135 194.879 144.571 200.05 149.094C200.05 149.094 204.419 152.458 208.364 146.398L232.861 111.107Z" stroke="#170486" stroke-width="0.54" stroke-miterlimit="10"/>
    <path d="M207.072 143.502C206.069 145.24 203.84 145.819 202.101 144.817C200.363 143.814 199.783 141.586 200.786 139.848C201.789 138.111 204.018 137.531 205.757 138.534C207.495 139.537 208.075 141.764 207.072 143.502Z" fill="#FF1700"/>
    <path d="M207.072 143.502C206.069 145.24 203.84 145.819 202.101 144.817C200.363 143.814 199.783 141.586 200.786 139.848C201.789 138.111 204.018 137.531 205.757 138.534C207.495 139.537 208.075 141.764 207.072 143.502Z" stroke="#170486" stroke-width="0.54" stroke-miterlimit="10"/>
    <path d="M196.373 156.579L175.376 172.954C173.281 174.58 170.272 174.202 168.644 172.13L167.619 170.815C165.992 168.721 166.371 165.713 168.444 164.087L189.441 147.711C191.536 146.085 194.545 146.464 196.172 148.536L197.198 149.85C198.825 151.945 198.446 154.952 196.373 156.579Z" fill="#FF1700"/>
    <path d="M168.439 164.067L189.425 147.708C191.517 146.077 194.52 146.448 196.152 148.539L197.18 149.857C198.811 151.947 198.439 154.949 196.348 156.58L175.361 172.939C173.27 174.569 170.267 174.198 168.635 172.108L167.607 170.79C165.976 168.699 166.348 165.697 168.439 164.067Z" stroke="#170486" stroke-width="0.54" stroke-miterlimit="10"/>
    <path d="M158.592 176.899C160.932 181.266 166.371 182.915 170.762 180.575C175.131 178.236 176.78 172.8 174.418 168.411C172.077 164.044 166.639 162.395 162.27 164.735C157.901 167.074 156.252 172.51 158.614 176.899" fill="#FF1700"/>
    <path d="M158.592 176.899C160.932 181.266 166.371 182.915 170.762 180.575C175.131 178.236 176.78 172.8 174.418 168.411C172.077 164.044 166.639 162.395 162.27 164.735C157.901 167.074 156.252 172.51 158.614 176.899H158.592Z" stroke="#170486" stroke-width="0.49" stroke-miterlimit="10"/>
    <path d="M161.601 175.273C163.05 177.969 166.416 178.994 169.135 177.546C171.832 176.097 172.858 172.733 171.409 170.015C169.96 167.319 166.594 166.295 163.875 167.743C161.178 169.191 160.153 172.555 161.601 175.273Z" fill="#FF1700"/>
    <path d="M161.601 175.273C163.05 177.969 166.416 178.994 169.135 177.546C171.832 176.097 172.858 172.733 171.409 170.015C169.96 167.319 166.594 166.295 163.875 167.743C161.178 169.191 160.153 172.555 161.601 175.273Z" stroke="#170486" stroke-width="0.49" stroke-miterlimit="10"/>
    <path d="M194.767 151.077C195.837 152.703 195.391 154.886 193.764 155.956C192.137 157.025 189.953 156.58 188.883 154.953C187.813 153.327 188.259 151.143 189.886 150.074C191.513 149.005 193.697 149.45 194.767 151.077Z" fill="#FF1700"/>
    <path d="M194.767 151.077C195.837 152.703 195.391 154.886 193.764 155.956C192.137 157.025 189.953 156.58 188.883 154.953C187.813 153.327 188.259 151.143 189.886 150.074C191.513 149.005 193.697 149.45 194.767 151.077Z" stroke="#170486" stroke-width="0.52" stroke-miterlimit="10"/>
    <path d="M34.0352 247.169V250.377C34.0352 251.38 36.4647 252.182 39.4738 252.182C42.483 252.182 44.9125 251.38 44.9125 250.377V247.169H34.0352Z" fill="#FF1700"/>
    <path d="M34.0352 247.169V250.377C34.0352 251.38 36.4647 252.182 39.4738 252.182C42.483 252.182 44.9125 251.38 44.9125 250.377V247.169H34.0352Z" stroke="#170486" stroke-width="0.54" stroke-miterlimit="10"/>
    <path d="M44.9125 246.968C44.9125 247.97 42.483 248.772 39.4738 248.772C36.4647 248.772 34.0352 247.97 34.0352 246.968C34.0352 245.965 36.4647 245.163 39.4738 245.163C42.483 245.163 44.9125 245.965 44.9125 246.968Z" fill="#FF1700"/>
    <path d="M44.9125 246.968C44.9125 247.97 42.483 248.772 39.4738 248.772C36.4647 248.772 34.0352 247.97 34.0352 246.968C34.0352 245.965 36.4647 245.163 39.4738 245.163C42.483 245.163 44.9125 245.965 44.9125 246.968Z" stroke="#170486" stroke-width="0.54" stroke-miterlimit="10"/>
    <mask id="mask2_0_1" style="mask-type:luminance" maskUnits="userSpaceOnUse" x="165" y="17" width="75" height="69">
        <path d="M165.234 51.4644C165.234 70.2459 181.796 85.4628 202.213 85.4628C222.63 85.4628 239.192 70.2459 239.192 51.4644C239.192 32.6828 222.653 17.4883 202.213 17.4883C181.773 17.4883 165.234 32.7051 165.234 51.4644Z" fill="white"/>
    </mask>
    <g mask="url(#mask2_0_1)">
        <path d="M239.214 17.4883H165.234V85.4628H239.214V17.4883Z" fill="url(#paint2_linear_0_1)"/>
    </g>
    <path d="M239.213 51.4644C239.213 70.2459 222.652 85.4628 202.235 85.4628C181.817 85.4628 165.256 70.2459 165.256 51.4644C165.256 32.6828 181.795 17.4883 202.212 17.4883C222.63 17.4883 239.191 32.7051 239.191 51.4644H239.213Z" stroke="#170486" stroke-width="0.54" stroke-miterlimit="10"/>
    <mask id="mask3_0_1" style="mask-type:luminance" maskUnits="userSpaceOnUse" x="165" y="31" width="42" height="47">
        <path d="M165.256 54.5858C165.256 67.3742 174.595 77.7341 186.119 77.7341C197.643 77.7341 206.982 67.3742 206.982 54.5858C206.982 41.7974 197.643 31.4375 186.119 31.4375C174.595 31.4375 165.256 41.7974 165.256 54.5858Z" fill="white"/>
    </mask>
    <g mask="url(#mask3_0_1)">
        <path d="M196.572 13.367L145.205 43.0098L175.697 95.7996L227.064 66.1569L196.572 13.367Z" fill="url(#paint3_linear_0_1)"/>
    </g>
    <path d="M206.982 54.5858C206.982 67.3742 197.643 77.7341 186.119 77.7341C174.595 77.7341 165.256 67.3742 165.256 54.5858C165.256 41.7974 174.595 31.4375 186.119 31.4375C197.643 31.4375 206.982 41.7974 206.982 54.5858Z" stroke="#170486" stroke-width="0.54" stroke-miterlimit="10"/>
    <path d="M199.85 54.5397C199.85 65.0333 192.672 73.5217 183.823 73.5217C174.974 73.5217 167.797 65.011 167.797 54.5397C167.797 44.0684 174.974 35.5576 183.823 35.5576C192.672 35.5576 199.85 44.0684 199.85 54.5397Z" fill="#170486"/>
    <path d="M199.85 54.5397C199.85 65.0333 192.672 73.5217 183.823 73.5217C174.974 73.5217 167.797 65.011 167.797 54.5397C167.797 44.0684 174.974 35.5576 183.823 35.5576C192.672 35.5576 199.85 44.0684 199.85 54.5397Z" stroke="#170486" stroke-width="0.54" stroke-miterlimit="10"/>
    <mask id="mask4_0_1" style="mask-type:luminance" maskUnits="userSpaceOnUse" x="220" y="56" width="13" height="13">
        <path d="M220.711 62.2043C220.711 65.5016 223.386 68.1752 226.685 68.1752C229.983 68.1752 232.658 65.5016 232.658 62.2043C232.658 58.9069 229.983 56.2334 226.685 56.2334C223.386 56.2334 220.711 58.9069 220.711 62.2043Z" fill="white"/>
    </mask>
    <g mask="url(#mask4_0_1)">
        <path d="M232.636 56.2334H220.711V68.1529H232.636V56.2334Z" fill="url(#paint4_linear_0_1)"/>
    </g>
    <path d="M232.637 62.2043C232.637 65.5016 229.962 68.1752 226.663 68.1752C223.364 68.1752 220.689 65.5016 220.689 62.2043C220.689 58.9069 223.364 56.2334 226.663 56.2334C229.962 56.2334 232.637 58.9069 232.637 62.2043Z" stroke="#170486" stroke-width="0.54" stroke-miterlimit="10"/>
    <path d="M231.457 63.3849C231.457 64.6994 230.388 65.7688 229.072 65.7688C227.757 65.7688 226.688 64.6994 226.688 63.3849C226.688 62.0704 227.757 61.001 229.072 61.001C230.388 61.001 231.457 62.0704 231.457 63.3849Z" fill="#170486"/>
    <path d="M203.416 54.5397C203.416 65.0333 196.239 73.5217 187.39 73.5217C178.541 73.5217 171.363 65.011 171.363 54.5397C171.363 44.0684 178.541 35.5576 187.39 35.5576C196.239 35.5576 203.416 44.0684 203.416 54.5397Z" fill="#FF1700"/>
    <path d="M203.416 54.5397C203.416 65.0333 196.239 73.5217 187.39 73.5217C178.541 73.5217 171.363 65.011 171.363 54.5397C171.363 44.0684 178.541 35.5576 187.39 35.5576C196.239 35.5576 203.416 44.0684 203.416 54.5397Z" stroke="#170486" stroke-width="0.54" stroke-miterlimit="10"/>
    <path d="M195.034 53.9159C195.034 58.1713 191.602 61.6023 187.344 61.6023C183.087 61.6023 179.654 58.1713 179.654 53.9159C179.654 49.6605 183.087 46.2295 187.344 46.2295C191.602 46.2295 195.034 49.6605 195.034 53.9159Z" fill="#FF1700"/>
    <path d="M195.034 53.9159C195.034 58.1713 191.602 61.6023 187.344 61.6023C183.087 61.6023 179.654 58.1713 179.654 53.9159C179.654 49.6605 183.087 46.2295 187.344 46.2295C191.602 46.2295 195.034 49.6605 195.034 53.9159Z" stroke="#170486" stroke-width="0.54" stroke-miterlimit="10"/>
    <path d="M185.495 52.6681C185.495 54.3167 184.158 55.6535 182.508 55.6535C180.859 55.6535 179.521 54.3167 179.521 52.6681C179.521 51.0194 180.859 49.6826 182.508 49.6826C184.158 49.6826 185.495 51.0194 185.495 52.6681Z" fill="#170486"/>
    <defs>
        <linearGradient id="paint0_linear_0_1" x1="47.3408" y1="208.856" x2="173.233" y2="208.856" gradientUnits="userSpaceOnUse">
            <stop stop-color="#1598FF"/>
            <stop offset="0.99" stop-color="#170486"/>
            <stop offset="1" stop-color="#170486"/>
        </linearGradient>
        <linearGradient id="paint1_linear_0_1" x1="278.778" y1="110.108" x2="259.284" y2="160.834" gradientUnits="userSpaceOnUse">
            <stop stop-color="#1598FF"/>
            <stop offset="0.99" stop-color="#170486"/>
            <stop offset="1" stop-color="#170486"/>
        </linearGradient>
        <linearGradient id="paint2_linear_0_1" x1="163.175" y1="49.1184" x2="237.155" y2="49.1184" gradientUnits="userSpaceOnUse">
            <stop stop-color="#1598FF"/>
            <stop offset="0.99" stop-color="#170486"/>
            <stop offset="1" stop-color="#170486"/>
        </linearGradient>
        <linearGradient id="paint3_linear_0_1" x1="173.505" y1="37.393" x2="196.102" y2="76.5507" gradientUnits="userSpaceOnUse">
            <stop stop-color="#170486"/>
            <stop offset="0.01" stop-color="#170486"/>
            <stop offset="1" stop-color="#1598FF"/>
        </linearGradient>
        <linearGradient id="paint4_linear_0_1" x1="222.456" y1="64.9903" x2="234.381" y2="64.9903" gradientUnits="userSpaceOnUse">
            <stop stop-color="#170486"/>
            <stop offset="0.01" stop-color="#170486"/>
            <stop offset="1" stop-color="#1598FF"/>
        </linearGradient>
    </defs>
</svg>
