<svg width="200" height="141" viewBox="0 0 200 141" fill="none" xmlns="http://www.w3.org/2000/svg">
    <path d="M81.0094 38.4852C81.0094 38.4852 91.8676 37.6144 99.5059 48.5315" stroke="#170486" stroke-width="0.54" stroke-miterlimit="10"/>
    <path d="M157.298 86.2581L158.351 84.817C160.029 82.5361 159.518 79.3325 157.226 77.6633L132.268 59.5718C129.965 57.9026 126.756 58.4106 125.078 60.6915L124.026 62.1326C122.348 64.4135 122.859 67.6171 125.151 69.2862L150.108 87.3778C152.401 89.047 155.621 88.539 157.298 86.2581Z" fill="#FF1700"/>
    <path d="M157.298 86.2581L158.351 84.817C160.029 82.5361 159.518 79.3325 157.226 77.6633L132.268 59.5718C129.965 57.9026 126.756 58.4106 125.078 60.6915L124.026 62.1326C122.348 64.4135 122.859 67.6171 125.151 69.2862L150.108 87.3778C152.401 89.047 155.621 88.539 157.298 86.2581Z" stroke="#170486" stroke-width="0.54" stroke-miterlimit="10"/>
    <path d="M183.548 104.174L184.215 103.199C185.278 101.665 184.892 99.5603 183.339 98.5028L156.361 80.038C154.818 78.9805 152.703 79.3641 151.64 80.9089L150.973 81.8835C149.91 83.4179 150.296 85.5225 151.849 86.58L178.827 105.045C180.37 106.102 182.485 105.719 183.548 104.174Z" fill="#FF1700"/>
    <path d="M183.548 104.174L184.215 103.199C185.278 101.665 184.892 99.5603 183.339 98.5028L156.361 80.038C154.818 78.9805 152.703 79.3641 151.64 80.9089L150.973 81.8835C149.91 83.4179 150.296 85.5225 151.849 86.58L178.827 105.045C180.37 106.102 182.485 105.719 183.548 104.174Z" stroke="#170486" stroke-width="0.54" stroke-miterlimit="10"/>
    <path d="M179.4 107.99C181.63 109.224 184.433 108.415 185.663 106.207C186.893 103.988 186.09 101.199 183.871 99.9758C181.651 98.7524 178.837 99.5507 177.608 101.759C176.378 103.978 177.181 106.767 179.4 107.99Z" fill="#FF1700"/>
    <path d="M179.4 107.99C181.63 109.224 184.433 108.415 185.663 106.207C186.893 103.988 186.09 101.199 183.871 99.9758C181.651 98.7524 178.837 99.5507 177.608 101.759C176.378 103.978 177.181 106.767 179.4 107.99Z" stroke="#170486" stroke-width="0.54" stroke-miterlimit="10"/>
    <path d="M180.255 106.465C181.631 107.221 183.371 106.734 184.132 105.355C184.892 103.987 184.402 102.255 183.017 101.499C181.641 100.742 179.901 101.229 179.14 102.608C178.379 103.976 178.869 105.708 180.255 106.465Z" fill="#FF1700"/>
    <path d="M180.255 106.465C181.631 107.221 183.371 106.734 184.132 105.355C184.892 103.987 184.402 102.255 183.017 101.499C181.641 100.742 179.901 101.229 179.14 102.608C178.379 103.976 178.869 105.708 180.255 106.465Z" stroke="#170486" stroke-width="0.54" stroke-miterlimit="10"/>
    <path d="M114.317 29.31L124.2 30.373L124.088 31.4038L114.205 30.3408L114.317 29.31Z" fill="#FF1700"/>
    <path d="M114.317 29.31L124.2 30.373L124.088 31.4038L114.205 30.3408L114.317 29.31Z" stroke="#170486" stroke-width="0.54" stroke-miterlimit="10"/>
    <path d="M106.06 45.5962L99.2871 46.239C99.2871 46.239 97.5781 46.2079 98.1616 44.3832L115.866 27.3802C115.866 27.3802 118.054 25.286 120.576 27.2455C120.576 27.2455 122.514 28.9458 120.076 31.2785L106.05 45.5755L106.06 45.5962Z" fill="#FF1700"/>
    <path d="M106.06 45.5962L99.2871 46.239C99.2871 46.239 97.5781 46.2079 98.1616 44.3832L115.866 27.3802C115.866 27.3802 118.054 25.286 120.576 27.2455C120.576 27.2455 122.514 28.9458 120.076 31.2785L106.05 45.5755L106.06 45.5962Z" stroke="#170486" stroke-width="0.54" stroke-miterlimit="10"/>
    <path d="M118.648 30.9578C119.357 30.3461 119.43 29.2782 118.805 28.5732C118.19 27.8682 117.117 27.7956 116.408 28.4177C115.699 29.0294 115.626 30.0973 116.252 30.8023C116.867 31.5073 117.94 31.5798 118.648 30.9578Z" fill="#FF1700"/>
    <path d="M118.648 30.9578C119.357 30.3461 119.43 29.2782 118.805 28.5732C118.19 27.8682 117.117 27.7956 116.408 28.4177C115.699 29.0294 115.626 30.0973 116.252 30.8023C116.867 31.5073 117.94 31.5798 118.648 30.9578Z" stroke="#170486" stroke-width="0.54" stroke-miterlimit="10"/>
    <path d="M125.339 28.8L136.832 33.5588C137.979 34.0357 138.521 35.342 138.041 36.4825L137.739 37.1978C137.26 38.3383 135.947 38.8774 134.811 38.4005L123.327 33.6417C122.181 33.1648 121.639 31.8585 122.119 30.7284L122.421 30.013C122.9 28.8726 124.213 28.3335 125.349 28.8104" fill="#FF1700"/>
    <path d="M125.339 28.8L136.832 33.5588C137.979 34.0357 138.521 35.342 138.041 36.4825L137.739 37.1978C137.26 38.3383 135.947 38.8774 134.811 38.4005L123.327 33.6417C122.181 33.1648 121.639 31.8585 122.119 30.7284L122.421 30.013C122.9 28.8726 124.213 28.3335 125.349 28.8104L125.339 28.8Z" stroke="#170486" stroke-width="0.54" stroke-miterlimit="10"/>
    <path d="M142.293 39.4495C143.533 37.5003 142.95 34.9188 140.991 33.685C139.031 32.4513 136.437 33.0319 135.197 34.981C133.957 36.9301 134.54 39.5117 136.499 40.7454C138.458 41.9792 141.053 41.3986 142.293 39.4495Z" fill="#FF1700"/>
    <path d="M142.293 39.4495C143.533 37.5003 142.95 34.9188 140.991 33.685C139.031 32.4513 136.437 33.0319 135.197 34.981C133.957 36.9301 134.54 39.5117 136.499 40.7454C138.458 41.9792 141.053 41.3986 142.293 39.4495Z" stroke="#170486" stroke-width="0.49" stroke-miterlimit="10"/>
    <path d="M140.949 38.5982C141.72 37.3955 141.355 35.7989 140.146 35.0317C138.937 34.2645 137.333 34.6274 136.562 35.83C135.79 37.0327 136.155 38.6293 137.364 39.3965C138.573 40.1637 140.178 39.8008 140.949 38.5982Z" fill="#FF1700"/>
    <path d="M140.949 38.5982C141.72 37.3955 141.355 35.7989 140.146 35.0317C138.937 34.2645 137.333 34.6274 136.562 35.83C135.79 37.0327 136.155 38.6293 137.364 39.3965C138.573 40.1637 140.178 39.8008 140.949 38.5982Z" stroke="#170486" stroke-width="0.49" stroke-miterlimit="10"/>
    <path d="M123.463 30.7084C123.879 29.8998 124.869 29.5887 125.682 29.9931C126.495 30.4078 126.808 31.3927 126.391 32.2014C125.974 33.0101 124.984 33.3211 124.171 32.9167C123.358 32.502 123.046 31.5171 123.452 30.7084" fill="#FF1700"/>
    <path d="M123.463 30.7084C123.879 29.8998 124.869 29.5887 125.682 29.9931C126.495 30.4078 126.808 31.3927 126.391 32.2014C125.974 33.0101 124.984 33.3211 124.171 32.9167C123.358 32.502 123.046 31.5171 123.452 30.7084H123.463Z" stroke="#170486" stroke-width="0.52" stroke-miterlimit="10"/>
    <mask id="mask0_3403_18230" style="mask-type:luminance" maskUnits="userSpaceOnUse" x="83" y="35" width="64" height="53">
        <path d="M111.979 37.0745C135.488 44.9124 150.681 62.7759 145.898 76.9692C144.46 81.2303 141.386 84.6827 137.145 87.2124C135.634 73.7656 118.159 61.5629 95.6191 59.0021C91.4196 58.5252 87.3243 58.4215 83.3957 58.6392C83.7917 57.2292 84.2919 55.8399 84.8963 54.4714C89.1583 44.8606 97.6615 38.3083 107.613 35.7578C109.062 36.1414 110.52 36.5769 111.979 37.0641" fill="white"/>
    </mask>
    <g mask="url(#mask0_3403_18230)">
        <path d="M83.963 29.637L155.405 36.1934L150.109 93.3254L78.6663 86.7691L83.963 29.637Z" fill="url(#paint0_linear_3403_18230)"/>
    </g>
    <path d="M111.979 37.0739C110.52 36.5866 109.061 36.1512 107.613 35.7676C97.6611 38.318 89.1579 44.86 84.8959 54.4708C84.2915 55.8393 83.7913 57.239 83.3953 58.6386C87.3239 58.4209 91.4191 58.5246 95.6186 59.0015C118.158 61.5519 135.634 73.7546 137.145 87.2015C141.386 84.6718 144.46 81.2297 145.898 76.9582C150.681 62.7649 135.498 44.9015 111.979 37.0635V37.0739Z" stroke="#170486" stroke-width="0.54" stroke-miterlimit="10"/>
    <path d="M93.6496 58.8873C93.6496 58.8873 101.017 44.3726 111 45.1916C111 45.1916 150.588 60.6601 141.48 84.0184" stroke="#170486" stroke-width="0.54" stroke-miterlimit="10"/>
    <path d="M92.6491 65.1719C92.6491 65.1719 99.485 51.6836 108.728 52.4197C108.728 52.4197 144.762 66.219 137.072 87.2031" stroke="#170486" stroke-width="0.54" stroke-miterlimit="10"/>
    <path d="M105.665 88.1558L106.769 89.5658C108.51 91.8052 111.74 92.2095 113.991 90.4781L138.406 71.6608C140.657 69.9295 141.063 66.7155 139.323 64.4761L138.229 63.0661C136.489 60.8267 133.258 60.4223 131.008 62.1537L106.592 80.971C104.341 82.7024 103.935 85.9164 105.675 88.1558" fill="#FF1700"/>
    <path d="M105.665 88.1558L106.769 89.5658C108.51 91.8052 111.74 92.2095 113.991 90.4781L138.406 71.6608C140.657 69.9295 141.063 66.7155 139.323 64.4761L138.229 63.0661C136.489 60.8267 133.258 60.4223 131.008 62.1537L106.592 80.971C104.341 82.7024 103.935 85.9164 105.675 88.1558H105.665Z" stroke="#170486" stroke-width="0.54" stroke-miterlimit="10"/>
    <path d="M144.137 97.3317L144.512 96.2121C145.106 94.4392 144.148 92.5212 142.376 91.9302L111.333 81.5833C109.552 80.9923 107.624 81.9462 107.03 83.7087L106.655 84.8284C106.061 86.6012 107.019 88.5089 108.791 89.1102L139.834 99.4675C141.616 100.058 143.533 99.1046 144.137 97.3317Z" fill="#FF1700"/>
    <path d="M142.362 91.9206L111.316 81.5736C109.537 80.9808 107.612 81.9353 107.016 83.7048L106.638 84.8255C106.043 86.595 107.002 88.5111 108.781 89.1039L139.826 99.4509C141.605 100.044 143.531 99.0892 144.127 97.3197L144.504 96.199C145.1 94.4294 144.14 92.5133 142.362 91.9206Z" stroke="#170486" stroke-width="0.54" stroke-miterlimit="10"/>
    <path d="M137.447 101.81C139.677 103.044 142.48 102.235 143.71 100.027C144.939 97.8084 144.137 95.0195 141.917 93.7961C139.698 92.5727 136.884 93.371 135.655 95.5793C134.425 97.798 135.227 100.587 137.447 101.81Z" fill="#FF1700"/>
    <path d="M137.447 101.81C139.677 103.044 142.48 102.235 143.71 100.027C144.939 97.8084 144.137 95.0195 141.917 93.7961C139.698 92.5727 136.884 93.371 135.655 95.5793C134.425 97.798 135.227 100.587 137.447 101.81Z" stroke="#170486" stroke-width="0.54" stroke-miterlimit="10"/>
    <path d="M138.302 100.287C139.677 101.044 141.418 100.556 142.178 99.1775C142.939 97.809 142.449 96.0776 141.063 95.3208C139.688 94.5639 137.948 95.0512 137.187 96.4301C136.426 97.7986 136.916 99.53 138.302 100.287Z" fill="#FF1700"/>
    <path d="M138.302 100.287C139.677 101.044 141.418 100.556 142.178 99.1775C142.939 97.809 142.449 96.0776 141.063 95.3208C139.688 94.5639 137.948 95.0512 137.187 96.4301C136.426 97.7986 136.916 99.53 138.302 100.287Z" stroke="#170486" stroke-width="0.54" stroke-miterlimit="10"/>
    <path d="M79.7567 63.5884L87.7891 69.416L87.1751 70.2537L79.1427 64.4261L79.7567 63.5884Z" fill="#FF1700"/>
    <path d="M79.7567 63.5884L87.7891 69.416L87.1751 70.2537L79.1427 64.4261L79.7567 63.5884Z" stroke="#170486" stroke-width="0.54" stroke-miterlimit="10"/>
    <path d="M101.777 54.078L101.131 47.339C101.131 47.339 100.777 45.6698 99.0888 46.5925L85.6776 67.1205C85.6776 67.1205 84.0207 69.6502 86.4383 71.7548C86.4383 71.7548 88.4807 73.3203 90.3252 70.5003L101.777 54.078Z" fill="#FF1700"/>
    <path d="M101.777 54.078L101.131 47.339C101.131 47.339 100.777 45.6698 99.0888 46.5925L85.6776 67.1205C85.6776 67.1205 84.0207 69.6502 86.4383 71.7548C86.4383 71.7548 88.4807 73.3203 90.3252 70.5003L101.777 54.078Z" stroke="#170486" stroke-width="0.54" stroke-miterlimit="10"/>
    <path d="M89.7206 69.1518C89.2516 69.9605 88.2096 70.23 87.3968 69.7635C86.584 69.2969 86.313 68.2602 86.782 67.4515C87.2509 66.6428 88.2929 66.3733 89.1057 66.8398C89.9185 67.3064 90.1895 68.3431 89.7206 69.1518Z" fill="#FF1700"/>
    <path d="M89.7206 69.1518C89.2516 69.9605 88.2096 70.23 87.3968 69.7635C86.584 69.2969 86.313 68.2602 86.782 67.4515C87.2509 66.6428 88.2929 66.3733 89.1057 66.8398C89.9185 67.3064 90.1895 68.3431 89.7206 69.1518Z" stroke="#170486" stroke-width="0.54" stroke-miterlimit="10"/>
    <mask id="mask1_3403_18230" style="mask-type:luminance" maskUnits="userSpaceOnUse" x="67" y="28" width="38" height="29">
        <path d="M98.9121 31.9533C100.736 32.6686 102.476 33.4877 104.102 34.3793C94.6814 35.1776 86.2928 40.7036 82.8019 49.485C81.9474 51.6311 81.4577 53.8394 81.2701 56.0477C80.1655 56.2447 79.1131 56.5039 78.1335 56.8356C69.7971 51.009 65.41 43.1296 67.8797 36.8986C69.9325 31.7459 76.1849 28.957 84.0003 28.957C88.6062 28.957 93.7539 29.9212 98.9017 31.9533" fill="white"/>
    </mask>
    <g mask="url(#mask1_3403_18230)">
        <path d="M101.106 18.6557L111.597 54.6738L68.4086 67.1249L57.9184 31.1068L101.106 18.6557Z" fill="url(#paint1_linear_3403_18230)"/>
    </g>
    <path d="M81.2701 56.0477C81.4577 53.8394 81.9474 51.6311 82.8019 49.485C86.2928 40.7036 94.6814 35.1776 104.102 34.3793C102.476 33.4877 100.736 32.6687 98.9121 31.9533C85.0319 26.4895 71.1413 28.7082 67.8797 36.8987C65.41 43.1296 69.7971 51.009 78.1335 56.8356C79.1235 56.5039 80.1655 56.2447 81.2701 56.0477Z" stroke="#170486" stroke-width="0.54" stroke-miterlimit="10"/>
    <path d="M82.0722 51.8687C77.6331 48.2919 76.591 42.2371 79.7589 38.3596C82.9163 34.4821 89.0748 34.2437 93.5244 37.8205" stroke="#170486" stroke-width="0.54" stroke-miterlimit="10"/>
    <path d="M72.8291 46.156C72.8708 47.8459 74.288 49.1834 75.997 49.1419C77.6955 49.1004 79.0398 47.6904 78.9981 46.0005C78.9564 44.3106 77.5392 42.9731 75.8407 43.0146C74.1421 43.0561 72.7979 44.4661 72.8395 46.156" fill="#FF1700"/>
    <path d="M72.8291 46.156C72.8708 47.8459 74.288 49.1834 75.997 49.1419C77.6955 49.1004 79.0398 47.6904 78.9981 46.0005C78.9564 44.3106 77.5392 42.9731 75.8407 43.0146C74.1421 43.0561 72.7979 44.4661 72.8395 46.156H72.8291Z" stroke="#170486" stroke-width="0.54" stroke-miterlimit="10"/>
    <path d="M74.2572 46.1258C74.2781 47.0382 75.0388 47.7536 75.9558 47.7225C76.8728 47.7017 77.5918 46.9449 77.5605 46.0429C77.5397 45.1306 76.779 44.4152 75.862 44.4463C74.9554 44.467 74.226 45.2239 74.2572 46.1362" fill="#170486"/>
    <mask id="mask2_3403_18230" style="mask-type:luminance" maskUnits="userSpaceOnUse" x="70" y="38" width="6" height="7">
        <path d="M75.6113 41.4091L72.5894 44.2395L70.0363 41.0877L73.7356 38.4336L75.6113 41.4091Z" fill="white"/>
    </mask>
    <g mask="url(#mask2_3403_18230)">
        <path d="M73.8086 40.4043C73.8086 40.4043 71.0471 40.8812 70.6616 43.7945" stroke="#170486" stroke-width="0.49" stroke-linecap="round" stroke-linejoin="round"/>
    </g>
    <path d="M80.6763 68.582L70.3912 61.6046C69.37 60.91 69.0991 59.5207 69.7972 58.5047L70.2349 57.8619C70.9331 56.8459 72.3294 56.5763 73.3506 57.2709L83.6357 64.2484C84.657 64.943 84.9175 66.3323 84.2297 67.3483L83.792 67.9911C83.0939 69.0071 81.6975 69.2767 80.6763 68.582Z" fill="#FF1700"/>
    <path d="M83.6421 64.254L73.3625 57.2799C72.338 56.5848 70.9479 56.8464 70.2492 57.8657L69.8089 58.5081C69.1103 59.5275 69.3732 60.9105 70.3977 61.6056L80.6774 68.5797C81.7019 69.2747 83.092 69.0131 83.7906 67.9938L84.231 67.3514C84.9296 66.3321 84.6667 64.949 83.6421 64.254Z" stroke="#170486" stroke-width="0.54" stroke-miterlimit="10"/>
    <path d="M66.2433 54.7421C64.6282 56.4009 64.6803 59.0446 66.3476 60.6516C68.0148 62.2586 70.6721 62.2068 72.2873 60.5479C73.9025 58.8891 73.8504 56.2454 72.1831 54.6384C70.5158 53.0314 67.8585 53.0832 66.2433 54.7421Z" fill="#FF1700"/>
    <path d="M66.2433 54.7421C64.6282 56.4009 64.6803 59.0446 66.3476 60.6516C68.0148 62.2586 70.6721 62.2068 72.2873 60.5479C73.9025 58.8891 73.8504 56.2454 72.1831 54.6384C70.5158 53.0314 67.8585 53.0832 66.2433 54.7421Z" stroke="#170486" stroke-width="0.49" stroke-miterlimit="10"/>
    <path d="M67.3902 55.8404C66.3898 56.8668 66.4211 58.5049 67.4527 59.5002C68.4843 60.4955 70.1308 60.4644 71.1312 59.438C72.1315 58.4116 72.1003 56.7735 71.0686 55.7782C70.037 54.7829 68.3905 54.814 67.3902 55.8404Z" fill="#FF1700"/>
    <path d="M67.3902 55.8404C66.3898 56.8668 66.4211 58.5049 67.4527 59.5002C68.4843 60.4955 70.1308 60.4644 71.1312 59.438C72.1315 58.4116 72.1003 56.7735 71.0686 55.7782C70.037 54.7829 68.3905 54.814 67.3902 55.8404Z" stroke="#170486" stroke-width="0.49" stroke-miterlimit="10"/>
    <path d="M82.9062 67.0987C82.3331 67.8037 81.3014 67.9177 80.5928 67.3475C79.8842 66.7773 79.7696 65.7509 80.3427 65.0459C80.9159 64.3409 81.9475 64.2268 82.6561 64.797C83.3647 65.3673 83.4793 66.3937 82.9062 67.0987Z" fill="#FF1700"/>
    <path d="M82.9062 67.0987C82.3331 67.8037 81.3014 67.9177 80.5928 67.3475C79.8842 66.7773 79.7696 65.7509 80.3427 65.0459C80.9159 64.3409 81.9475 64.2268 82.6561 64.797C83.3647 65.3673 83.4793 66.3937 82.9062 67.0987Z" stroke="#170486" stroke-width="0.52" stroke-miterlimit="10"/>
    <mask id="mask3_3403_18230" style="mask-type:luminance" maskUnits="userSpaceOnUse" x="73" y="51" width="7" height="6">
        <path d="M79.04 52.8639L76.9455 56.9073L73.9131 55.0929L75.3199 51.2051L79.04 52.8639Z" fill="white"/>
    </mask>
    <g mask="url(#mask3_3403_18230)">
        <path d="M75.9768 55.1756C75.9768 55.1756 78.2276 53.5064 77.2377 50.7383" stroke="#170486" stroke-width="0.49" stroke-linecap="round" stroke-linejoin="round"/>
    </g>
    <defs>
        <linearGradient id="paint0_linear_3403_18230" x1="120.282" y1="48.0366" x2="117.971" y2="73.2186" gradientUnits="userSpaceOnUse">
            <stop stop-color="#1598FF"/>
            <stop offset="0.99" stop-color="#170486"/>
            <stop offset="1" stop-color="#170486"/>
        </linearGradient>
        <linearGradient id="paint1_linear_3403_18230" x1="80.0986" y1="27.7023" x2="85.8161" y2="47.5342" gradientUnits="userSpaceOnUse">
            <stop stop-color="#170486"/>
            <stop offset="0.01" stop-color="#170486"/>
            <stop offset="1" stop-color="#1598FF"/>
        </linearGradient>
    </defs>
</svg>
