<svg width="498" height="261" viewBox="0 0 498 261" fill="none" xmlns="http://www.w3.org/2000/svg">
    <path d="M230.346 119.704C230.346 119.704 209.58 119.639 196.668 141.708" stroke="#170486" stroke-width="0.66" stroke-miterlimit="10"/>
    <path d="M210.427 87.9776L195.965 96.3623L196.965 98.1009L211.427 89.7163L210.427 87.9776Z" fill="#FF1700"/>
    <path d="M210.427 87.9776L195.965 96.3623L196.965 98.1009L211.427 89.7163L210.427 87.9776Z" stroke="#170486" stroke-width="0.66" stroke-miterlimit="10"/>
    <path d="M216.069 156.677C212.247 157.754 209.401 159.468 206.669 161.28C203.515 163.37 197.449 166.357 196.36 166.993C193.595 167.94 190.326 168.544 186.147 168.544C174.731 168.544 170.048 164.039 164.161 160.35C160.047 157.771 155.364 155.583 147.412 155.583C147.119 155.583 146.81 155.583 146.517 155.583C146.274 155.583 146.046 155.583 145.802 155.6C145.721 155.6 145.639 155.6 145.558 155.6C145.379 155.6 145.2 155.616 145.005 155.632C144.729 155.632 144.468 155.665 144.192 155.698C143.997 155.698 143.818 155.73 143.639 155.747C143.46 155.763 143.265 155.779 143.086 155.812C142.907 155.828 142.728 155.861 142.55 155.877C142.371 155.893 142.192 155.926 142.029 155.959C141.899 155.975 141.753 155.991 141.639 156.024C141.428 156.057 141.216 156.089 141.021 156.138C140.647 156.204 140.289 156.285 139.931 156.367C139.346 156.497 138.761 156.644 138.224 156.808C138.078 156.857 137.931 156.889 137.785 156.938C137.639 156.987 137.492 157.036 137.362 157.085C137.232 157.134 137.086 157.183 136.939 157.232C136.256 157.477 135.59 157.738 134.955 158.032C134.825 158.081 134.695 158.146 134.581 158.211C134.451 158.26 134.337 158.326 134.207 158.391C133.963 158.505 133.72 158.636 133.476 158.75C133.362 158.815 133.232 158.864 133.118 158.93C132.646 159.174 132.191 159.436 131.736 159.713C131.508 159.844 131.297 159.974 131.069 160.121C130.874 160.235 130.695 160.35 130.5 160.48C130.126 160.709 129.752 160.954 129.394 161.199C129.215 161.313 129.02 161.443 128.841 161.558C128.369 161.868 127.898 162.194 127.41 162.504C127.215 162.635 127.003 162.782 126.792 162.913C125.589 163.712 124.369 164.48 123.052 165.182C122.905 165.263 122.775 165.328 122.629 165.41C122.19 165.639 121.735 165.867 121.247 166.079C121.068 166.161 120.905 166.243 120.726 166.308C120.694 166.308 120.661 166.324 120.645 166.34C120.304 166.487 119.946 166.634 119.588 166.765C119.442 166.814 119.312 166.863 119.165 166.928C119.084 166.961 118.986 166.993 118.905 167.01C118.775 167.059 118.645 167.108 118.515 167.14C118.401 167.173 118.287 167.206 118.173 167.238C118.043 167.271 117.929 167.32 117.799 167.353C117.718 167.369 117.637 167.402 117.572 167.418C117.49 167.45 117.393 167.467 117.311 167.483C117.214 167.499 117.133 167.532 117.035 167.565C116.905 167.597 116.775 167.63 116.645 167.663C116.515 167.695 116.385 167.728 116.238 167.761C116.092 167.793 115.945 167.826 115.799 167.859C115.588 167.908 115.376 167.94 115.165 167.989C114.498 168.12 113.799 168.218 113.067 168.316C112.953 168.316 112.84 168.348 112.726 168.348C112.579 168.365 112.417 168.381 112.254 168.397C112.14 168.397 112.01 168.414 111.896 168.43C111.408 168.463 110.904 168.495 110.384 168.528C110.173 168.528 109.961 168.544 109.734 168.544C109.668 168.544 109.62 168.544 109.555 168.544C109.262 168.544 108.969 168.544 108.66 168.544C108.433 168.544 108.205 168.544 107.977 168.544C107.75 168.544 107.538 168.544 107.311 168.544C107.115 168.544 106.904 168.544 106.709 168.528C106.709 168.528 106.676 168.528 106.66 168.528C106.449 168.528 106.237 168.512 106.026 168.495C105.392 168.446 104.79 168.397 104.205 168.332C104.009 168.299 103.814 168.283 103.619 168.25C104.091 166.765 104.66 165.312 105.359 163.876C107.197 160.056 109.782 156.481 112.937 153.118C116.986 148.809 121.962 144.875 127.426 141.317C128.044 140.908 128.662 140.517 129.296 140.125C150.892 126.691 179.138 118.921 189.172 116.439C202.376 125.434 212.133 138.852 215.727 155.11C215.841 155.649 215.955 156.171 216.052 156.71" fill="#FF1700"/>
    <path d="M216.069 156.677C212.247 157.754 209.401 159.468 206.669 161.28C203.515 163.37 197.449 166.357 196.36 166.993C193.595 167.94 190.326 168.544 186.147 168.544C174.731 168.544 170.048 164.039 164.161 160.35C160.047 157.771 155.364 155.583 147.412 155.583C147.119 155.583 146.81 155.583 146.517 155.583C146.274 155.583 146.046 155.583 145.802 155.6C145.721 155.6 145.639 155.6 145.558 155.6C145.379 155.6 145.2 155.616 145.005 155.632C144.729 155.632 144.468 155.665 144.192 155.698C143.997 155.698 143.818 155.73 143.639 155.747C143.46 155.763 143.265 155.779 143.086 155.812C142.907 155.828 142.728 155.861 142.55 155.877C142.371 155.893 142.192 155.926 142.029 155.959C141.899 155.975 141.753 155.991 141.639 156.024C141.428 156.057 141.216 156.089 141.021 156.138C140.647 156.204 140.289 156.285 139.931 156.367C139.346 156.497 138.761 156.644 138.224 156.808C138.078 156.857 137.931 156.889 137.785 156.938C137.639 156.987 137.492 157.036 137.362 157.085C137.232 157.134 137.086 157.183 136.939 157.232C136.256 157.477 135.59 157.738 134.955 158.032C134.825 158.081 134.695 158.146 134.581 158.211C134.451 158.26 134.337 158.326 134.207 158.391C133.963 158.505 133.72 158.636 133.476 158.75C133.362 158.815 133.232 158.864 133.118 158.93C132.646 159.174 132.191 159.436 131.736 159.713C131.508 159.844 131.297 159.974 131.069 160.121C130.874 160.235 130.695 160.35 130.5 160.48C130.126 160.709 129.752 160.954 129.394 161.199C129.215 161.313 129.02 161.443 128.841 161.558C128.369 161.868 127.898 162.194 127.41 162.504C127.215 162.635 127.003 162.782 126.792 162.913C125.589 163.712 124.369 164.48 123.052 165.182C122.905 165.263 122.775 165.328 122.629 165.41C122.19 165.639 121.735 165.867 121.247 166.079C121.068 166.161 120.905 166.243 120.726 166.308C120.694 166.308 120.661 166.324 120.645 166.34C120.304 166.487 119.946 166.634 119.588 166.765C119.442 166.814 119.312 166.863 119.165 166.928C119.084 166.961 118.986 166.993 118.905 167.01C118.775 167.059 118.645 167.108 118.515 167.14C118.401 167.173 118.287 167.206 118.173 167.238C118.043 167.271 117.929 167.32 117.799 167.353C117.718 167.369 117.637 167.402 117.572 167.418C117.49 167.45 117.393 167.467 117.311 167.483C117.214 167.499 117.133 167.532 117.035 167.565C116.905 167.597 116.775 167.63 116.645 167.663C116.515 167.695 116.385 167.728 116.238 167.761C116.092 167.793 115.945 167.826 115.799 167.859C115.588 167.908 115.376 167.94 115.165 167.989C114.498 168.12 113.799 168.218 113.067 168.316C112.953 168.316 112.84 168.348 112.726 168.348C112.579 168.365 112.417 168.381 112.254 168.397C112.14 168.397 112.01 168.414 111.896 168.43C111.408 168.463 110.904 168.495 110.384 168.528C110.173 168.528 109.961 168.544 109.734 168.544C109.668 168.544 109.62 168.544 109.555 168.544C109.262 168.544 108.969 168.544 108.66 168.544C108.433 168.544 108.205 168.544 107.977 168.544C107.75 168.544 107.538 168.544 107.311 168.544C107.115 168.544 106.904 168.544 106.709 168.528C106.709 168.528 106.676 168.528 106.66 168.528C106.449 168.528 106.237 168.512 106.026 168.495C105.392 168.446 104.79 168.397 104.205 168.332C104.009 168.299 103.814 168.283 103.619 168.25C104.091 166.765 104.66 165.312 105.359 163.876C107.197 160.056 109.782 156.481 112.937 153.118C116.986 148.809 121.962 144.875 127.426 141.317C128.044 140.908 128.662 140.517 129.296 140.125C150.892 126.691 179.138 118.921 189.172 116.439C202.376 125.434 212.133 138.852 215.727 155.11C215.841 155.649 215.955 156.171 216.052 156.71L216.069 156.677Z" stroke="#170486" stroke-width="0.66" stroke-miterlimit="10"/>
    <path d="M210.279 94.4847L231.956 89.4897C234.655 88.8694 236.346 86.1597 235.728 83.45C235.111 80.7403 232.411 79.0427 229.712 79.663L208.035 84.658C205.335 85.2783 203.644 87.988 204.262 90.6977C204.88 93.4074 207.579 95.105 210.279 94.4847Z" fill="#FF1700"/>
    <path d="M210.279 94.4847L231.956 89.4897C234.655 88.8694 236.346 86.1597 235.728 83.45C235.111 80.7403 232.411 79.0427 229.712 79.663L208.035 84.658C205.335 85.2783 203.644 87.988 204.262 90.6977C204.88 93.4074 207.579 95.105 210.279 94.4847Z" stroke="#170486" stroke-width="0.66" stroke-miterlimit="10"/>
    <path d="M206.718 89.2925C206.848 87.5622 208.36 86.2563 210.084 86.3869C211.808 86.5175 213.109 88.0356 212.979 89.7659C212.849 91.4962 211.336 92.8021 209.613 92.6715C207.889 92.5409 206.588 91.0228 206.718 89.2925Z" fill="#FF1700"/>
    <path d="M206.718 89.2925C206.848 87.5622 208.36 86.2563 210.084 86.3869C211.808 86.5175 213.109 88.0356 212.979 89.7659C212.849 91.4962 211.336 92.8021 209.613 92.6715C207.889 92.5409 206.588 91.0228 206.718 89.2925Z" stroke="#170486" stroke-width="0.64" stroke-miterlimit="10"/>
    <path d="M246.917 125.074C245.535 130.902 241.876 136.86 236.445 142.296C235.29 143.455 234.07 144.581 232.753 145.691C230.997 147.193 229.094 148.629 227.062 150C226.915 150.098 226.753 150.213 226.606 150.311C225.728 150.898 224.622 151.061 223.614 150.719C222.947 150.49 222.265 150.278 221.582 150.082C220.216 149.69 219.207 148.499 219.093 147.078C218.996 145.903 218.85 144.728 218.638 143.553C218.264 141.267 217.695 138.982 216.931 136.729C214.329 129.057 209.824 122.528 204.035 117.451C206.198 107.2 215.256 99.5117 226.119 99.5117H226.184C229.664 99.5117 233.079 100.491 236.119 102.189C241.177 105.013 244.852 108.979 246.543 113.942C247.747 117.5 247.828 121.271 246.917 125.091" fill="#FF1700"/>
    <path d="M246.917 125.074C245.535 130.902 241.876 136.86 236.445 142.296C235.29 143.455 234.07 144.581 232.753 145.691C230.997 147.193 229.094 148.629 227.062 150C226.915 150.098 226.753 150.213 226.606 150.311C225.728 150.898 224.622 151.061 223.614 150.719C222.947 150.49 222.265 150.278 221.582 150.082C220.216 149.69 219.207 148.499 219.093 147.078C218.996 145.903 218.85 144.728 218.638 143.553C218.264 141.267 217.695 138.982 216.931 136.729C214.329 129.057 209.824 122.528 204.035 117.451C206.198 107.2 215.256 99.5117 226.119 99.5117H226.184C229.664 99.5117 233.079 100.491 236.119 102.189C241.177 105.013 244.852 108.979 246.543 113.942C247.747 117.5 247.828 121.271 246.917 125.091V125.074Z" stroke="#170486" stroke-width="0.66" stroke-miterlimit="10"/>
    <path d="M232.77 145.69C231.014 147.192 229.095 148.628 227.079 149.999C226.737 149.493 226.526 148.906 226.477 148.253C226.331 146.278 227.794 144.564 229.762 144.4C230.965 144.302 232.071 144.825 232.786 145.69" fill="#FF1700"/>
    <path d="M232.77 145.69C231.014 147.192 229.095 148.628 227.079 149.999C226.737 149.493 226.526 148.906 226.477 148.253C226.331 146.278 227.794 144.564 229.762 144.4C230.965 144.302 232.071 144.825 232.786 145.69H232.77Z" stroke="#170486" stroke-width="0.66" stroke-miterlimit="10"/>
    <path d="M263.635 168.527C244.267 168.527 244.267 155.566 224.9 155.566C221.403 155.566 218.541 155.991 216.086 156.676C212.264 157.754 209.418 159.468 206.687 161.28C203.532 163.369 200.523 165.556 196.377 166.993C193.612 167.94 190.344 168.544 186.164 168.544C174.749 168.544 170.065 164.055 164.178 160.349C160.081 157.77 155.381 155.583 147.429 155.583C147.12 155.583 146.827 155.583 146.535 155.583C146.291 155.583 146.063 155.583 145.819 155.599C145.738 155.599 145.656 155.599 145.575 155.599C145.396 155.599 145.217 155.615 145.022 155.632C144.746 155.632 144.469 155.664 144.209 155.681C144.014 155.681 143.835 155.713 143.656 155.73C143.477 155.746 143.282 155.762 143.103 155.795C142.924 155.811 142.746 155.844 142.567 155.86C142.388 155.877 142.209 155.909 142.046 155.942C141.916 155.958 141.786 155.974 141.656 156.007C141.445 156.04 141.233 156.072 141.038 156.121C140.664 156.187 140.29 156.268 139.932 156.35C139.347 156.481 138.778 156.627 138.225 156.791C138.078 156.84 137.932 156.872 137.786 156.921C137.639 156.97 137.493 157.019 137.363 157.068C137.217 157.117 137.087 157.166 136.94 157.215C136.241 157.46 135.59 157.721 134.956 158.015C134.826 158.064 134.712 158.129 134.582 158.194C134.452 158.26 134.338 158.309 134.208 158.374C133.964 158.488 133.72 158.619 133.476 158.733C133.346 158.798 133.233 158.847 133.119 158.913C132.647 159.158 132.192 159.419 131.736 159.696C131.509 159.827 131.281 159.957 131.07 160.104C130.875 160.219 130.696 160.333 130.501 160.463C130.127 160.692 129.753 160.937 129.395 161.182C129.216 161.296 129.021 161.427 128.842 161.541C128.37 161.851 127.899 162.177 127.411 162.488C127.216 162.618 127.004 162.749 126.793 162.896C125.59 163.696 124.37 164.463 123.053 165.165C122.923 165.246 122.776 165.312 122.63 165.393C122.191 165.622 121.735 165.85 121.264 166.062C121.085 166.144 120.922 166.209 120.744 166.291C120.711 166.291 120.678 166.307 120.662 166.324C120.321 166.471 119.963 166.617 119.605 166.748C119.459 166.797 119.329 166.846 119.182 166.911C119.101 166.944 119.004 166.977 118.922 167.009C118.792 167.058 118.662 167.091 118.532 167.14C118.418 167.172 118.304 167.205 118.19 167.238C118.06 167.287 117.947 167.319 117.816 167.352C117.735 167.368 117.67 167.401 117.589 167.417C117.507 167.434 117.41 167.466 117.329 167.483C117.247 167.515 117.15 167.532 117.052 167.564C116.922 167.597 116.792 167.629 116.662 167.662C116.532 167.695 116.402 167.727 116.255 167.76C116.109 167.793 115.963 167.825 115.816 167.858C115.605 167.907 115.393 167.94 115.182 167.989C114.515 168.119 113.816 168.233 113.084 168.315C112.97 168.315 112.857 168.331 112.743 168.348C112.596 168.364 112.434 168.38 112.271 168.397C112.157 168.397 112.027 168.413 111.913 168.429C111.426 168.462 110.921 168.495 110.401 168.527C110.19 168.527 109.978 168.544 109.751 168.544C109.686 168.544 109.637 168.544 109.572 168.544C109.279 168.544 108.986 168.544 108.677 168.544C108.45 168.544 108.222 168.544 107.994 168.544C107.767 168.544 107.555 168.544 107.328 168.544C107.116 168.544 106.921 168.544 106.726 168.511C106.726 168.511 106.693 168.511 106.677 168.511C106.466 168.511 106.254 168.495 106.043 168.478C105.409 168.446 104.807 168.38 104.222 168.315C104.027 168.299 103.831 168.266 103.653 168.233C102.937 168.136 102.254 168.021 101.604 167.874C98.3675 167.189 95.8144 166.062 93.5215 164.757C86.8054 160.937 82.3497 155.599 69.9258 155.599" stroke="#170486" stroke-width="0.66" stroke-miterlimit="10"/>
    <path d="M69.9258 175.807C84.5288 175.807 88.1226 183.169 97.2942 186.792C97.6845 186.956 98.1073 187.103 98.5301 187.249C101.278 188.18 104.531 188.768 108.677 188.768C109.068 188.768 109.442 188.768 109.816 188.751C128.061 188.261 128.435 175.807 147.413 175.807C166.39 175.807 166.78 188.768 186.148 188.768C205.516 188.768 205.516 175.807 224.883 175.807C244.251 175.807 244.251 188.768 263.619 188.768" stroke="#170486" stroke-width="0.66" stroke-miterlimit="10"/>
    <path d="M69.9258 196.033C89.2934 196.033 89.2934 208.994 108.661 208.994C128.029 208.994 128.029 196.033 147.396 196.033C166.764 196.033 166.764 208.994 186.132 208.994C205.499 208.994 205.499 196.033 224.867 196.033C244.235 196.033 244.235 208.994 263.602 208.994" stroke="#170486" stroke-width="0.66" stroke-miterlimit="10"/>
    <path d="M245.177 80.6911C245.942 84.0701 249.308 86.1758 252.674 85.4086L253.617 89.5385C247.974 90.828 242.364 87.3022 241.063 81.6379C239.762 75.9736 243.291 70.342 248.934 69.0361L249.877 73.166C246.511 73.9495 244.413 77.3122 245.177 80.6911Z" fill="#FF1700"/>
    <path d="M245.177 80.6911C245.942 84.0701 249.308 86.1758 252.674 85.4086L253.617 89.5385C247.974 90.828 242.364 87.3022 241.063 81.6379C239.762 75.9736 243.291 70.342 248.934 69.0361L249.877 73.166C246.511 73.9495 244.413 77.3122 245.177 80.6911Z" stroke="#170486" stroke-width="0.66" stroke-miterlimit="10"/>
    <path d="M240.559 80.7236C242.267 84.8208 240.332 89.522 236.25 91.236C232.168 92.9499 227.485 91.0074 225.777 86.9102C224.07 82.813 226.005 78.1118 230.087 76.3979C234.168 74.6839 238.852 76.6264 240.559 80.7236Z" fill="#FF1700"/>
    <path d="M240.559 80.7236C242.267 84.8208 240.332 89.522 236.25 91.236C232.168 92.9499 227.485 91.0074 225.777 86.9102C224.07 82.813 226.005 78.1118 230.087 76.3979C234.168 74.6839 238.852 76.6264 240.559 80.7236Z" stroke="#170486" stroke-width="0.6" stroke-miterlimit="10"/>
    <path d="M237.746 81.8988C238.803 84.4289 237.6 87.3508 235.079 88.4119C232.559 89.4729 229.648 88.2813 228.591 85.7348C227.534 83.2047 228.737 80.2828 231.258 79.238C233.778 78.177 236.689 79.3686 237.746 81.9151" fill="#FF1700"/>
    <path d="M237.746 81.8988C238.803 84.4289 237.6 87.3508 235.079 88.4119C232.559 89.4729 229.648 88.2813 228.591 85.7348C227.534 83.2047 228.737 80.2828 231.258 79.238C233.778 78.177 236.689 79.3686 237.746 81.9151V81.8988Z" stroke="#170486" stroke-width="0.6" stroke-miterlimit="10"/>
    <path d="M233.648 138.737C232.087 138.72 230.624 138.084 229.534 136.958L223.29 130.526C221.046 128.208 221.094 124.486 223.404 122.234C224.526 121.14 226.005 120.552 227.55 120.569C229.095 120.585 230.575 121.222 231.665 122.348L237.909 128.779C240.153 131.097 240.104 134.819 237.795 137.072C236.673 138.165 235.21 138.753 233.648 138.737Z" fill="#FF1700"/>
    <path d="M233.648 138.737C232.087 138.72 230.624 138.084 229.534 136.958L223.29 130.526C221.046 128.208 221.094 124.486 223.404 122.234C224.526 121.14 226.005 120.552 227.55 120.569C229.095 120.585 230.575 121.222 231.665 122.348L237.909 128.779C240.153 131.097 240.104 134.819 237.795 137.072C236.673 138.165 235.21 138.753 233.648 138.737Z" stroke="#170486" stroke-width="0.66" stroke-miterlimit="10"/>
    <path d="M235.957 135.161C234.689 136.402 232.672 136.369 231.436 135.096L225.192 128.664C223.956 127.391 223.988 125.367 225.257 124.126C226.525 122.886 228.542 122.918 229.778 124.192L236.022 130.623C237.258 131.896 237.225 133.92 235.957 135.161Z" fill="#FF1700"/>
    <path d="M235.957 135.161C234.689 136.402 232.672 136.369 231.436 135.096L225.192 128.664C223.956 127.391 223.988 125.367 225.257 124.126C226.525 122.886 228.542 122.918 229.778 124.192L236.022 130.623C237.258 131.896 237.225 133.92 235.957 135.161Z" stroke="#170486" stroke-width="0.66" stroke-miterlimit="10"/>
    <mask id="mask0_2231_9680" style="mask-type:luminance" maskUnits="userSpaceOnUse" x="221" y="99" width="27" height="27">
        <path d="M221.646 99.9361C221.646 99.9361 229.615 117.843 246.836 125.385C248.153 121.565 247.877 117.337 246.429 113.615C244.998 109.942 241.827 105.829 237.502 102.989C237.502 102.989 237.502 102.989 237.485 102.989C234.705 101.16 231.013 99.5117 226.102 99.5117C224.72 99.5117 223.224 99.6423 221.646 99.9361Z" fill="white"/>
    </mask>
    <g mask="url(#mask0_2231_9680)">
        <path d="M248.169 99.5117H221.646V125.401H248.169V99.5117Z" fill="url(#paint0_linear_2231_9680)"/>
    </g>
    <path d="M246.836 125.384C229.598 117.842 221.646 99.9352 221.646 99.9352C228.85 98.5967 233.908 100.637 237.485 102.988C237.485 102.988 237.485 102.988 237.502 102.988C241.811 105.828 244.998 109.942 246.429 113.614C247.877 117.32 248.169 121.548 246.836 125.367V125.384Z" stroke="#170486" stroke-width="0.66" stroke-miterlimit="10"/>
    <mask id="mask1_2231_9680" style="mask-type:luminance" maskUnits="userSpaceOnUse" x="103" y="116" width="114" height="53">
        <path d="M103.635 168.201C105.163 168.413 106.822 168.527 108.66 168.527C128.027 168.527 128.027 155.566 147.395 155.566C155.363 155.566 160.047 157.754 164.144 160.333C170.893 164.675 179.203 170.404 196.343 166.977C197.562 166.732 203.498 163.369 206.669 161.263C209.401 159.468 212.247 157.737 216.068 156.676C215.97 156.154 215.857 155.615 215.743 155.077C212.149 138.818 202.392 125.401 189.171 116.406C173.527 120.275 113.359 137.056 103.635 168.201Z" fill="white"/>
    </mask>
    <g mask="url(#mask1_2231_9680)">
        <path d="M212.374 96.2496L94.0371 118.18L107.349 190.559L225.686 168.629L212.374 96.2496Z" fill="url(#paint1_linear_2231_9680)"/>
    </g>
    <path d="M216.068 156.676C212.247 157.753 209.401 159.467 206.669 161.279C203.498 163.385 197.562 166.747 196.343 166.992C179.203 170.42 170.877 164.674 164.144 160.348C160.03 157.769 155.347 155.582 147.395 155.582C128.027 155.582 128.027 168.543 108.66 168.543C106.822 168.543 105.163 168.429 103.635 168.216C113.376 137.071 173.527 120.307 189.171 116.422C202.376 125.416 212.133 138.834 215.727 155.092C215.84 155.631 215.954 156.153 216.052 156.692L216.068 156.676Z" stroke="#170486" stroke-width="0.66" stroke-miterlimit="10"/>
    <path d="M111.084 168.527C111.084 168.527 128.825 137.284 182.213 127.474C182.213 127.474 186.457 128.257 190.799 134.427C194.978 140.353 196.311 144.891 196.913 147.209C200.572 148.237 210.931 146.376 212.898 145.789" stroke="#170486" stroke-width="0.66" stroke-miterlimit="10"/>
    <path d="M118.873 166.911C118.873 166.911 141.607 143.193 176.521 141.969C176.521 141.969 182.456 144.695 186.457 155.077C204.523 157.297 214.557 150.49 214.557 150.49" stroke="#170486" stroke-width="0.66" stroke-miterlimit="10"/>
    <path d="M179.692 131.195L184.261 143.372C184.261 143.372 185.741 146.294 188.392 143.732L202.799 98.9072C202.799 98.9072 204.572 93.3735 199.076 90.6801C199.076 90.6801 194.539 88.7866 192.555 94.9569L179.708 131.162L179.692 131.195Z" fill="#FF1700"/>
    <path d="M179.692 131.195L184.261 143.372C184.261 143.372 185.741 146.294 188.392 143.732L202.799 98.9072C202.799 98.9072 204.572 93.3735 199.076 90.6801C199.076 90.6801 194.539 88.7866 192.555 94.9569L179.708 131.162L179.692 131.195Z" stroke="#170486" stroke-width="0.66" stroke-miterlimit="10"/>
    <path d="M194.343 97.1758C194.815 95.4455 196.587 94.4171 198.311 94.8741C200.035 95.3475 201.059 97.1268 200.604 98.8734C200.132 100.604 198.36 101.632 196.62 101.175C194.896 100.702 193.872 98.9224 194.327 97.1758" fill="#FF1700"/>
    <path d="M194.343 97.1758C194.815 95.4455 196.587 94.4171 198.311 94.8741C200.035 95.3475 201.059 97.1268 200.604 98.8734C200.132 100.604 198.36 101.632 196.62 101.175C194.896 100.702 193.872 98.9224 194.327 97.1758H194.343Z" stroke="#170486" stroke-width="0.66" stroke-miterlimit="10"/>
    <defs>
        <linearGradient id="paint0_linear_2231_9680" x1="227.736" y1="113.851" x2="253.771" y2="113.851" gradientUnits="userSpaceOnUse">
            <stop stop-color="#1598FF"/>
            <stop offset="0.99" stop-color="#170486"/>
            <stop offset="1" stop-color="#170486"/>
        </linearGradient>
        <linearGradient id="paint1_linear_2231_9680" x1="158.223" y1="138.499" x2="163.067" y2="164.641" gradientUnits="userSpaceOnUse">
            <stop stop-color="#1598FF"/>
            <stop offset="0.99" stop-color="#170486"/>
            <stop offset="1" stop-color="#170486"/>
        </linearGradient>
    </defs>
</svg>
