<svg width="461" height="306" viewBox="0 0 461 306" fill="none" xmlns="http://www.w3.org/2000/svg">
    <path d="M251.046 56.0254C251.046 56.0254 230.906 61.6054 224.321 86.4454" stroke="#170486" stroke-width="0.48" stroke-miterlimit="10"/>
    <mask id="mask0_3763_25950" style="mask-type:luminance" maskUnits="userSpaceOnUse" x="221" y="32" width="57" height="48">
        <path d="M221.849 50.3305C221.849 50.3305 240.549 51.0505 261.048 75.2155C261.497 75.7555 262.037 76.2055 262.509 76.7005C265.026 79.378 268.712 80.5255 272.286 79.7605C272.309 79.7605 272.354 79.7605 272.376 79.7605C280.445 61.918 279.951 44.5255 269.746 36.583C265.903 33.5905 261.452 32.1055 256.53 32.1055C246.505 32.1055 234.548 38.2705 221.849 50.3305Z" fill="white"/>
    </mask>
    <g mask="url(#mask0_3763_25950)">
        <path d="M225.454 17.9959L210.208 77.5645L276.835 94.6518L292.081 35.0832L225.454 17.9959Z" fill="url(#paint0_linear_3763_25950)"/>
    </g>
    <path d="M272.376 79.7634C272.376 79.7634 272.309 79.7634 272.286 79.7634C268.712 80.5284 265.026 79.3809 262.509 76.7034C262.037 76.2084 261.497 75.7584 261.048 75.2184C240.572 51.0309 221.849 50.3334 221.849 50.3334C240.774 32.3334 258.081 27.4959 269.769 36.5859C279.973 44.5284 280.468 61.9209 272.399 79.7634H272.376Z" stroke="#170486" stroke-width="0.48" stroke-miterlimit="10"/>
    <path d="M271.365 58.8588C271.702 61.2213 270.578 63.6288 268.375 64.8663C265.521 66.4638 261.925 65.4288 260.329 62.5713C259.542 61.1313 259.407 59.5113 259.812 58.0488" stroke="#170486" stroke-width="0.48" stroke-miterlimit="10"/>
    <mask id="mask1_3763_25950" style="mask-type:luminance" maskUnits="userSpaceOnUse" x="261" y="44" width="10" height="10">
        <path d="M261.43 51.6368L269.184 53.3918L270.308 45.6518L261.587 44.8418L261.43 51.6368Z" fill="white"/>
    </mask>
    <g mask="url(#mask1_3763_25950)">
        <path d="M263.408 48.195C263.408 48.195 268.442 46.2825 271.926 50.76" stroke="#170486" stroke-width="0.44" stroke-linecap="round" stroke-linejoin="round"/>
    </g>
    <mask id="mask2_3763_25950" style="mask-type:luminance" maskUnits="userSpaceOnUse" x="267" y="67" width="11" height="12">
        <path d="M267.004 74.0248L274.421 78.7048L277.635 72.7198L271.522 67.6348L267.004 74.0248Z" fill="white"/>
    </mask>
    <g mask="url(#mask2_3763_25950)">
        <path d="M274.331 74.9023C274.331 74.9023 268.982 74.3398 267.88 68.7598" stroke="#170486" stroke-width="0.44" stroke-linecap="round" stroke-linejoin="round"/>
    </g>
    <path d="M155.456 61.1803L154.948 63.1172L171.122 67.3679L171.63 65.4311L155.456 61.1803Z" fill="#FF1700"/>
    <path d="M155.456 61.1803L154.948 63.1172L171.122 67.3679L171.63 65.4311L155.456 61.1803Z" stroke="#170486" stroke-width="0.48" stroke-miterlimit="10"/>
    <path d="M207.509 76.1166L218.545 69.1191C218.545 69.1191 221.107 67.0491 218.05 64.9791L171.097 59.8941C171.097 59.8941 165.298 59.2641 163.792 65.2491C163.792 65.2491 162.87 70.1091 169.321 70.8291L207.509 76.1391V76.1166Z" fill="#FF1700"/>
    <path d="M207.509 76.1166L218.545 69.1191C218.545 69.1191 221.107 67.0491 218.05 64.9791L171.097 59.8941C171.097 59.8941 165.298 59.2641 163.792 65.2491C163.792 65.2491 162.87 70.1091 169.321 70.8291L207.509 76.1391V76.1166Z" stroke="#170486" stroke-width="0.48" stroke-miterlimit="10"/>
    <path d="M171.838 62.5278C170.062 62.2128 168.354 63.3828 168.04 65.1603C167.702 66.9378 168.894 68.6478 170.669 68.9628C172.445 69.3003 174.153 68.1078 174.468 66.3303C174.783 64.5528 173.614 62.8428 171.838 62.5278Z" fill="#FF1700"/>
    <path d="M171.838 62.5278C170.062 62.2128 168.354 63.3828 168.04 65.1603C167.702 66.9378 168.894 68.6478 170.669 68.9628C172.445 69.3003 174.153 68.1078 174.468 66.3303C174.783 64.5528 173.614 62.8428 171.838 62.5278Z" stroke="#170486" stroke-width="0.48" stroke-miterlimit="10"/>
    <path d="M155.588 67.4552L133.696 62.7977C130.976 62.2127 129.223 59.5352 129.807 56.7902C130.392 54.0677 133.066 52.3127 135.808 52.8977L157.701 57.5552C160.42 58.1402 162.174 60.8177 161.589 63.5627C161.005 66.2852 158.33 68.0402 155.588 67.4552Z" fill="#FF1700"/>
    <path d="M155.588 67.4552L133.696 62.7977C130.976 62.2127 129.223 59.5352 129.807 56.7902C130.392 54.0677 133.066 52.3127 135.808 52.8977L157.701 57.5552C160.42 58.1402 162.174 60.8177 161.589 63.5627C161.005 66.2852 158.33 68.0402 155.588 67.4552Z" stroke="#170486" stroke-width="0.48" stroke-miterlimit="10"/>
    <path d="M120.547 53.392C118.906 57.532 120.906 62.2345 125.042 63.877C129.178 65.5195 133.853 63.517 135.516 59.377C137.157 55.237 135.157 50.5345 131.021 48.892C126.885 47.2495 122.188 49.252 120.547 53.392Z" fill="#FF1700"/>
    <path d="M120.547 53.392C118.906 57.532 120.906 62.2345 125.042 63.877C129.178 65.5195 133.853 63.517 135.516 59.377C137.157 55.237 135.157 50.5345 131.021 48.892C126.885 47.2495 122.188 49.252 120.547 53.392Z" stroke="#170486" stroke-width="0.44" stroke-miterlimit="10"/>
    <path d="M123.379 54.518C122.367 57.083 123.603 59.9855 126.166 60.998C128.728 62.0105 131.627 60.773 132.639 58.208C133.65 55.643 132.414 52.7405 129.852 51.728C127.289 50.7155 124.39 51.953 123.379 54.518Z" fill="#FF1700"/>
    <path d="M123.379 54.518C122.367 57.083 123.603 59.9855 126.166 60.998C128.728 62.0105 131.627 60.773 132.639 58.208C133.65 55.643 132.414 52.7405 129.852 51.728C127.289 50.7155 124.39 51.953 123.379 54.518Z" stroke="#170486" stroke-width="0.44" stroke-miterlimit="10"/>
    <path d="M159.184 63.3386C158.689 65.0036 156.936 65.9711 155.25 65.4761C153.587 64.9811 152.62 63.2261 153.115 61.5386C153.609 59.8736 155.363 58.9061 157.048 59.4011C158.712 59.8961 159.678 61.6511 159.184 63.3386Z" fill="#FF1700"/>
    <path d="M159.184 63.3386C158.689 65.0036 156.936 65.9711 155.25 65.4761C153.587 64.9811 152.62 63.2261 153.115 61.5386C153.609 59.8736 155.363 58.9061 157.048 59.4011C158.712 59.8961 159.678 61.6511 159.184 63.3386Z" stroke="#170486" stroke-width="0.47" stroke-miterlimit="10"/>
    <path d="M90.8319 82.0808C86.921 87.1658 87.8875 94.4558 92.9672 98.3708L137.269 132.368C142.348 136.283 149.631 135.316 153.542 130.208C157.43 125.123 156.486 117.833 151.384 113.918L107.083 79.9433C102.003 76.0283 94.7204 76.9958 90.8094 82.0808" fill="#FF1700"/>
    <path d="M90.8319 82.0808C86.921 87.1658 87.8875 94.4558 92.9672 98.3708L137.269 132.368C142.348 136.283 149.631 135.316 153.542 130.208C157.43 125.123 156.486 117.833 151.384 113.918L107.083 79.9433C102.003 76.0283 94.7204 76.9958 90.8094 82.0808H90.8319Z" stroke="#170486" stroke-width="0.48" stroke-miterlimit="10"/>
    <mask id="mask3_3763_25950" style="mask-type:luminance" maskUnits="userSpaceOnUse" x="117" y="53" width="128" height="93">
        <path d="M218.567 54.8319C218.095 55.5969 217.6 56.3619 217.106 57.1269C217.061 57.1944 217.016 57.2619 216.971 57.3294C215.645 59.3094 210.385 67.0944 207.823 70.0194C205.328 72.8769 202.743 75.5769 200.114 78.1644C200.114 78.1644 200.114 78.1644 200.091 78.1644C199.304 78.9294 198.518 79.6944 197.731 80.4369C197.529 80.6169 197.326 80.8194 197.124 80.9994C194.674 83.2494 192.157 85.3869 189.639 87.3894C189.505 87.5019 189.37 87.6144 189.212 87.7269C180.761 94.3644 171.973 99.5619 163.364 103.139C163.162 103.229 162.96 103.297 162.757 103.387C160.959 104.129 159.184 104.782 157.408 105.367C157.026 105.502 156.644 105.614 156.262 105.749H156.239C155.385 106.019 154.531 106.267 153.699 106.514C151.025 107.257 148.372 107.842 145.788 108.247C135.313 109.912 125.626 108.787 117.759 104.534C117.377 110.272 118.006 115.717 119.715 120.667C120.097 121.747 120.524 122.827 120.996 123.862C121.423 124.784 121.895 125.662 122.389 126.539C122.996 127.597 123.671 128.632 124.412 129.622C125.828 131.512 127.424 133.222 129.2 134.774C130.863 136.237 132.706 137.564 134.662 138.734C156.059 151.492 190.651 147.329 222.95 123.614C227.76 120.082 234.638 111.959 239.29 106.109L239.335 106.064C242.325 102.307 244.393 99.5169 244.393 99.5169C245.786 88.4019 241.74 72.9219 229.85 61.1544C226.928 58.2519 223.534 55.5744 219.623 53.2344C219.309 53.7519 218.994 54.2694 218.657 54.7869" fill="white"/>
    </mask>
    <g mask="url(#mask3_3763_25950)">
        <path d="M239.02 24.7289L95.5015 58.373L123.965 180.046L267.484 146.402L239.02 24.7289Z" fill="url(#paint1_linear_3763_25950)"/>
    </g>
    <path d="M244.303 99.5637C244.303 99.5637 242.235 102.354 239.246 106.111L239.201 106.156C234.548 112.006 227.67 120.129 222.86 123.661C190.584 147.376 155.97 151.539 134.572 138.781C132.617 137.611 130.774 136.306 129.11 134.821C127.335 133.269 125.739 131.559 124.323 129.669C123.581 128.679 122.907 127.644 122.3 126.586C121.783 125.709 121.334 124.809 120.906 123.909C120.412 122.874 119.985 121.794 119.625 120.714C117.917 115.764 117.31 110.319 117.67 104.581C125.537 108.834 135.224 109.959 145.698 108.294C148.283 107.889 150.935 107.304 153.61 106.561C154.464 106.336 155.296 106.066 156.15 105.796C156.15 105.796 156.15 105.796 156.172 105.796C156.554 105.684 156.937 105.549 157.341 105.414C159.117 104.829 160.892 104.154 162.691 103.434C162.893 103.344 163.095 103.276 163.297 103.186C171.928 99.5862 180.694 94.4112 189.146 87.7737C189.28 87.6612 189.438 87.5487 189.573 87.4362C192.09 85.4337 194.607 83.2962 197.057 81.0237C197.26 80.8437 197.462 80.6412 197.664 80.4612C198.451 79.7187 199.26 78.9762 200.024 78.2112C202.654 75.6462 205.239 72.9237 207.734 70.0662C210.296 67.1412 215.578 59.3562 216.882 57.3762C216.927 57.3087 216.972 57.2412 217.017 57.1737C217.511 56.4087 218.006 55.6437 218.5 54.8787C218.837 54.3612 219.152 53.8437 219.467 53.3262C223.377 55.6662 226.794 58.3437 229.693 61.2462C241.584 73.0362 245.629 88.5162 244.236 99.6087L244.303 99.5637Z" stroke="#170486" stroke-width="0.48" stroke-miterlimit="10"/>
    <path d="M216.949 57.5547C227.94 73.9572 230.075 86.4222 229.109 100.8C229.109 100.8 198.046 147.825 121.94 125.91" stroke="#170486" stroke-width="0.48" stroke-miterlimit="10"/>
    <path d="M213.015 63.043C218.118 74.7655 219.534 86.848 217.106 98.458C217.106 98.458 183.639 138.215 118.838 118.1" stroke="#170486" stroke-width="0.48" stroke-miterlimit="10"/>
    <path d="M146.484 37.9336C149.586 40.7911 149.788 45.6511 146.934 48.7561L105.914 93.3961C103.06 96.5236 98.2046 96.7261 95.1028 93.8461C92.0011 90.9661 91.7763 86.1286 94.6533 83.0236L135.651 38.3836C138.505 35.2786 143.36 35.0761 146.462 37.9336" fill="#FF1700"/>
    <path d="M146.484 37.9336C149.586 40.7911 149.788 45.6511 146.934 48.7561L105.914 93.3961C103.06 96.5236 98.2046 96.7261 95.1028 93.8461C92.0011 90.9661 91.7763 86.1286 94.6533 83.0236L135.651 38.3836C138.505 35.2786 143.36 35.0761 146.462 37.9336H146.484Z" stroke="#170486" stroke-width="0.48" stroke-miterlimit="10"/>
    <path d="M130.233 35.7758C132.841 31.6358 138.28 30.3758 142.438 32.9858C146.574 35.5958 147.833 41.0633 145.225 45.2033C142.641 49.3433 137.179 50.6033 133.043 47.9933C128.907 45.3833 127.649 39.9158 130.256 35.7758" fill="#FF1700"/>
    <path d="M130.233 35.7758C132.841 31.6358 138.28 30.3758 142.438 32.9858C146.574 35.5958 147.833 41.0633 145.225 45.2033C142.641 49.3433 137.179 50.6033 133.043 47.9933C128.907 45.3833 127.649 39.9158 130.256 35.7758H130.233Z" stroke="#170486" stroke-width="0.48" stroke-miterlimit="10"/>
    <path d="M133.089 37.5756C134.685 35.0106 138.079 34.2456 140.641 35.8431C143.203 37.4406 143.968 40.8381 142.372 43.4031C140.753 45.9681 137.382 46.7331 134.82 45.1356C132.257 43.5381 131.493 40.1406 133.089 37.5756Z" fill="#FF1700"/>
    <path d="M133.089 37.5756C134.685 35.0106 138.079 34.2456 140.641 35.8431C143.203 37.4406 143.968 40.8381 142.372 43.4031C140.753 45.9681 137.382 46.7331 134.82 45.1356C132.257 43.5381 131.493 40.1406 133.089 37.5756Z" stroke="#170486" stroke-width="0.48" stroke-miterlimit="10"/>
    <path d="M165.747 198.361C171.95 196.808 175.749 190.486 174.176 184.276L160.622 130.051C159.071 123.818 152.778 120.038 146.552 121.613C140.326 123.166 136.55 129.488 138.123 135.698L151.676 189.923C153.227 196.133 159.543 199.913 165.747 198.361Z" fill="#FF1700"/>
    <path d="M165.747 198.361C171.95 196.808 175.749 190.486 174.176 184.276L160.622 130.051C159.071 123.818 152.778 120.038 146.552 121.613C140.326 123.166 136.55 129.488 138.123 135.698L151.676 189.923C153.227 196.133 159.543 199.913 165.747 198.361Z" stroke="#170486" stroke-width="0.48" stroke-miterlimit="10"/>
    <path d="M159.566 257.557C155.34 257.287 152.148 253.62 152.44 249.39L156.464 188.887C156.733 184.657 160.397 181.462 164.623 181.755C168.848 182.025 172.04 185.692 171.748 189.922L167.725 250.425C167.455 254.655 163.791 257.85 159.566 257.557Z" fill="#FF1700"/>
    <path d="M159.566 257.557C155.34 257.287 152.148 253.62 152.44 249.39L156.464 188.887C156.733 184.657 160.397 181.462 164.623 181.755C168.848 182.025 172.04 185.692 171.748 189.922L167.725 250.425C167.455 254.655 163.791 257.85 159.566 257.557Z" stroke="#170486" stroke-width="0.48" stroke-miterlimit="10"/>
    <path d="M173.569 249.029C174.131 253.889 170.669 258.277 165.814 258.862C160.959 259.424 156.576 255.959 155.992 251.099C155.43 246.239 158.891 241.852 163.746 241.267C168.601 240.704 172.984 244.169 173.569 249.029Z" fill="#FF1700"/>
    <path d="M173.569 249.029C174.131 253.889 170.669 258.277 165.814 258.862C160.959 259.424 156.576 255.959 155.992 251.099C155.43 246.239 158.891 241.852 163.746 241.267C168.601 240.704 172.984 244.169 173.569 249.029Z" stroke="#170486" stroke-width="0.48" stroke-miterlimit="10"/>
    <path d="M170.22 249.434C170.579 252.449 168.421 255.172 165.41 255.509C162.398 255.869 159.678 253.709 159.341 250.694C158.981 247.679 161.139 244.957 164.151 244.619C167.163 244.259 169.882 246.419 170.22 249.434Z" fill="#FF1700"/>
    <path d="M170.22 249.434C170.579 252.449 168.421 255.172 165.41 255.509C162.398 255.869 159.678 253.709 159.341 250.694C158.981 247.679 161.139 244.957 164.151 244.619C167.163 244.259 169.882 246.419 170.22 249.434Z" stroke="#170486" stroke-width="0.48" stroke-miterlimit="10"/>
    <path d="M283.03 127.395C245.786 127.395 215.623 157.612 215.623 194.872C215.623 232.132 245.809 262.35 283.03 262.35C320.251 262.35 350.437 232.132 350.437 194.872C350.437 157.612 320.251 127.395 283.03 127.395ZM283.03 255.96C249.382 255.96 222.006 228.555 222.006 194.872C222.006 161.19 249.382 133.785 283.03 133.785C316.678 133.785 344.054 161.19 344.054 194.872C344.054 228.555 316.678 255.96 283.03 255.96Z" fill="#FF1700"/>
    <path d="M283.03 127.395C245.786 127.395 215.623 157.612 215.623 194.872C215.623 232.132 245.809 262.35 283.03 262.35C320.251 262.35 350.437 232.132 350.437 194.872C350.437 157.612 320.251 127.395 283.03 127.395ZM283.03 255.96C249.382 255.96 222.006 228.555 222.006 194.872C222.006 161.19 249.382 133.785 283.03 133.785C316.678 133.785 344.054 161.19 344.054 194.872C344.054 228.555 316.678 255.96 283.03 255.96Z" stroke="#170486" stroke-width="0.48" stroke-miterlimit="10"/>
    <path d="M283.03 127.395C245.786 127.395 215.623 157.612 215.623 194.872C215.623 232.132 245.809 262.35 283.03 262.35C320.251 262.35 350.437 232.132 350.437 194.872C350.437 157.612 320.251 127.395 283.03 127.395ZM283.03 255.96C249.382 255.96 222.006 228.555 222.006 194.872C222.006 161.19 249.382 133.785 283.03 133.785C316.678 133.785 344.054 161.19 344.054 194.872C344.054 228.555 316.678 255.96 283.03 255.96Z" fill="#FF1700"/>
    <path d="M283.03 127.395C245.786 127.395 215.623 157.612 215.623 194.872C215.623 232.132 245.809 262.35 283.03 262.35C320.251 262.35 350.437 232.132 350.437 194.872C350.437 157.612 320.251 127.395 283.03 127.395ZM283.03 255.96C249.382 255.96 222.006 228.555 222.006 194.872C222.006 161.19 249.382 133.785 283.03 133.785C316.678 133.785 344.054 161.19 344.054 194.872C344.054 228.555 316.678 255.96 283.03 255.96Z" stroke="#170486" stroke-width="0.48" stroke-miterlimit="10"/>
    <path d="M269.365 36.6055L257.362 46.1005C257.362 46.1005 242.82 50.443 229.761 43.4905" stroke="#170486" stroke-width="0.48" stroke-miterlimit="10"/>
    <path d="M266.622 34.5371L255.338 41.7596C255.338 41.7596 245.404 43.0196 237.717 38.4746" stroke="#170486" stroke-width="0.48" stroke-miterlimit="10"/>
    <path d="M262.538 120.196L261.834 122.07L277.485 127.966L278.19 126.091L262.538 120.196Z" fill="#FF1700"/>
    <path d="M262.538 120.196L261.834 122.07L277.485 127.966L278.19 126.091L262.538 120.196Z" stroke="#170486" stroke-width="0.48" stroke-miterlimit="10"/>
    <path d="M277.321 131.67L299.708 132.007C302.495 132.052 304.787 129.825 304.832 127.035C304.877 124.245 302.652 121.95 299.865 121.905L277.478 121.567C274.691 121.522 272.399 123.75 272.354 126.54C272.309 129.33 274.534 131.625 277.321 131.67Z" fill="#FF1700"/>
    <path d="M277.321 131.67L299.708 132.007C302.495 132.052 304.787 129.825 304.832 127.035C304.877 124.245 302.652 121.95 299.865 121.905L277.478 121.567C274.691 121.522 272.399 123.75 272.354 126.54C272.309 129.33 274.534 131.625 277.321 131.67Z" stroke="#170486" stroke-width="0.48" stroke-miterlimit="10"/>
    <path d="M314.632 125.776C315.307 130.186 312.295 134.303 307.912 134.978C303.506 135.653 299.393 132.661 298.696 128.251C298.022 123.841 301.034 119.723 305.417 119.048C309.822 118.373 313.936 121.366 314.61 125.776" fill="#FF1700"/>
    <path d="M314.632 125.776C315.307 130.186 312.295 134.303 307.912 134.978C303.506 135.653 299.393 132.661 298.696 128.251C298.022 123.841 301.034 119.723 305.417 119.048C309.822 118.373 313.936 121.366 314.61 125.776H314.632Z" stroke="#170486" stroke-width="0.44" stroke-miterlimit="10"/>
    <path d="M311.598 126.249C312.025 128.971 310.159 131.536 307.439 131.941C304.72 132.369 302.157 130.501 301.73 127.779C301.303 125.056 303.169 122.491 305.888 122.086C308.608 121.659 311.17 123.526 311.575 126.249" fill="#FF1700"/>
    <path d="M311.598 126.249C312.025 128.971 310.159 131.536 307.439 131.941C304.72 132.369 302.157 130.501 301.73 127.779C301.303 125.056 303.169 122.491 305.888 122.086C308.608 121.659 311.17 123.526 311.575 126.249H311.598Z" stroke="#170486" stroke-width="0.44" stroke-miterlimit="10"/>
    <path d="M274.736 126.855C274.849 128.61 276.354 129.915 278.085 129.803C279.838 129.69 281.142 128.183 281.03 126.45C280.917 124.718 279.411 123.39 277.681 123.503C275.95 123.615 274.624 125.123 274.736 126.855Z" fill="#FF1700"/>
    <path d="M274.736 126.855C274.849 128.61 276.354 129.915 278.085 129.803C279.838 129.69 281.142 128.183 281.03 126.45C280.917 124.718 279.411 123.39 277.681 123.503C275.95 123.615 274.624 125.123 274.736 126.855Z" stroke="#170486" stroke-width="0.47" stroke-miterlimit="10"/>
    <path d="M233.334 98.5052L232.098 85.5002C232.098 85.5002 232.165 82.2152 235.671 83.3402L268.465 117.338C268.465 117.338 272.511 121.545 268.735 126.405C268.735 126.405 265.453 130.118 260.935 125.438L233.334 98.5052Z" fill="#FF1700"/>
    <path d="M233.334 98.5052L232.098 85.5002C232.098 85.5002 232.165 82.2152 235.671 83.3402L268.465 117.338C268.465 117.338 272.511 121.545 268.735 126.405C268.735 126.405 265.453 130.118 260.935 125.438L233.334 98.5052Z" stroke="#170486" stroke-width="0.48" stroke-miterlimit="10"/>
    <path d="M265.925 118.372C267.274 119.587 267.386 121.634 266.173 122.984C264.959 124.334 262.913 124.447 261.565 123.232C260.216 122.039 260.104 119.969 261.318 118.619C262.509 117.269 264.577 117.157 265.925 118.349" fill="#FF1700"/>
    <path d="M265.925 118.372C267.274 119.587 267.386 121.634 266.173 122.984C264.959 124.334 262.913 124.447 261.565 123.232C260.216 122.039 260.104 119.969 261.318 118.619C262.509 117.269 264.577 117.157 265.925 118.349V118.372Z" stroke="#170486" stroke-width="0.48" stroke-miterlimit="10"/>
    <defs>
        <linearGradient id="paint0_linear_3763_25950" x1="258.321" y1="28.8433" x2="249.758" y2="62.2306" gradientUnits="userSpaceOnUse">
            <stop stop-color="#170486"/>
            <stop offset="0.01" stop-color="#170486"/>
            <stop offset="1" stop-color="#1598FF"/>
        </linearGradient>
        <linearGradient id="paint1_linear_3763_25950" x1="192.168" y1="153.806" x2="167.998" y2="50.6997" gradientUnits="userSpaceOnUse">
            <stop stop-color="#170486"/>
            <stop offset="0.04" stop-color="#170486"/>
            <stop offset="0.4" stop-color="#1568D7"/>
            <stop offset="0.58" stop-color="#1598FF"/>
            <stop offset="1" stop-color="#1598FF"/>
        </linearGradient>
    </defs>
</svg>
