<svg width="428" height="272" viewBox="0 0 428 272" fill="none" xmlns="http://www.w3.org/2000/svg">
    <path d="M243.94 136.5C246.9 130.82 244.7 123.82 239.02 120.86L189.5 95.0799C183.82 92.1199 176.82 94.3199 173.86 99.9999C170.9 105.68 173.1 112.68 178.78 115.64L228.3 141.42C233.98 144.38 240.98 142.18 243.94 136.48" fill="#FF1700"/>
    <path d="M243.94 136.5C246.9 130.82 244.7 123.82 239.02 120.86L189.5 95.0799C183.82 92.1199 176.82 94.3199 173.86 99.9999C170.9 105.68 173.1 112.68 178.78 115.64L228.3 141.42C233.98 144.38 240.98 142.18 243.94 136.48V136.5Z" stroke="#170486" stroke-width="0.54" stroke-miterlimit="10"/>
    <path d="M199.82 164.719C202.56 167.939 207.4 168.319 210.62 165.579L237.92 142.259C241.14 139.519 241.52 134.679 238.78 131.459C236.04 128.239 231.2 127.859 227.98 130.619L200.68 153.939C197.46 156.679 197.08 161.519 199.82 164.739" fill="#FF1700"/>
    <path d="M199.82 164.719C202.56 167.939 207.4 168.319 210.62 165.579L237.92 142.259C241.14 139.519 241.52 134.679 238.78 131.459C236.04 128.239 231.2 127.859 227.98 130.619L200.68 153.939C197.46 156.679 197.08 161.519 199.82 164.739V164.719Z" stroke="#170486" stroke-width="0.54" stroke-miterlimit="10"/>
    <path d="M200.44 170.279C204.72 172.659 210.1 171.099 212.46 166.839C214.82 162.559 213.28 157.179 209.02 154.819C204.76 152.459 199.36 153.999 197 158.259C194.64 162.539 196.18 167.919 200.44 170.279Z" fill="#FF1700"/>
    <path d="M200.44 170.279C204.72 172.659 210.1 171.099 212.46 166.839C214.82 162.559 213.28 157.179 209.02 154.819C204.76 152.459 199.36 153.999 197 158.259C194.64 162.539 196.18 167.919 200.44 170.279Z" stroke="#170486" stroke-width="0.54" stroke-miterlimit="10"/>
    <path d="M202.06 167.319C204.7 168.779 208.04 167.839 209.5 165.179C210.96 162.539 210.02 159.199 207.36 157.739C204.72 156.279 201.38 157.219 199.92 159.879C198.46 162.519 199.4 165.859 202.06 167.319Z" fill="#FF1700"/>
    <path d="M202.06 167.319C204.7 168.779 208.04 167.839 209.5 165.179C210.96 162.539 210.02 159.199 207.36 157.739C204.72 156.279 201.38 157.219 199.92 159.879C198.46 162.519 199.4 165.859 202.06 167.319Z" stroke="#170486" stroke-width="0.54" stroke-miterlimit="10"/>
    <path d="M290.62 67.3404C290.62 67.3404 269.8 65.6604 255.12 86.7204" stroke="#170486" stroke-width="0.54" stroke-miterlimit="10"/>
    <path d="M206.12 200.8C206.12 208.02 211.96 213.86 219.18 213.86C226.4 213.86 232.24 208.02 232.24 200.8C232.24 193.58 226.4 187.74 219.18 187.74C211.96 187.74 206.12 193.58 206.12 200.8Z" fill="#FF1700"/>
    <path d="M214.176 212.862C207.512 210.102 204.348 202.462 207.108 195.799C209.868 189.135 217.508 185.97 224.172 188.731C230.836 191.491 234 199.131 231.24 205.794C228.48 212.458 220.84 215.623 214.176 212.862Z" stroke="#170486" stroke-width="0.54" stroke-miterlimit="10"/>
    <path d="M205.36 143.301H266.62V148.321H205.36V143.301Z" fill="#FF1700"/>
    <path d="M205.36 143.301H266.62V148.321H205.36V143.301Z" stroke="#170486" stroke-width="0.54" stroke-miterlimit="10"/>
    <path d="M270.272 135.698L274.074 138.977L218.32 203.613L214.519 200.334L270.272 135.698Z" fill="#FF1700"/>
    <path d="M270.272 135.698L274.074 138.977L218.32 203.613L214.519 200.334L270.272 135.698Z" stroke="#170486" stroke-width="0.54" stroke-miterlimit="10"/>
    <path d="M265.822 132.339L271.673 160.15L267.661 160.994L261.81 133.183L265.822 132.339Z" fill="#FF1700"/>
    <path d="M265.822 132.339L271.673 160.15L267.661 160.994L261.81 133.183L265.822 132.339Z" stroke="#170486" stroke-width="0.54" stroke-miterlimit="10"/>
    <mask id="mask0_3763_26427" style="mask-type:luminance" maskUnits="userSpaceOnUse" x="244" y="50" width="70" height="56">
        <path d="M312.64 69.7201C315.84 82.2401 305.56 96.2601 288.28 105.4C286.48 104.54 284.56 103.78 282.5 103.14C282.68 98.8601 282.28 94.5401 281.18 90.2201C276.66 72.5601 262.04 59.9601 244.3 56.1401C247.62 54.8201 251.12 53.6801 254.78 52.7401C261.84 50.9401 268.76 50.0801 275.26 50.0801C294.32 50.0801 309.52 57.4401 312.66 69.7201" fill="white"/>
    </mask>
    <g mask="url(#mask0_3763_26427)">
        <path d="M255.574 23.9807L336 58.8008L304.541 131.463L224.115 96.643L255.574 23.9807Z" fill="url(#paint0_linear_3763_26427)"/>
    </g>
    <path d="M282.48 103.141C282.66 98.8808 282.26 94.5408 281.16 90.2208C276.66 72.5608 262.02 59.9608 244.28 56.1408C247.6 54.8208 251.1 53.6808 254.76 52.7408C282.52 45.6608 308.42 53.2608 312.64 69.7208C315.84 82.2408 305.56 96.2608 288.28 105.381C286.48 104.521 284.56 103.761 282.5 103.121L282.48 103.141Z" stroke="#170486" stroke-width="0.54" stroke-miterlimit="10"/>
    <path d="M285.68 153.641C307.54 153.641 325.26 171.361 325.26 193.221C325.26 215.081 307.54 232.801 285.68 232.801C263.82 232.801 246.1 215.081 246.1 193.221C246.1 171.361 263.82 153.641 285.68 153.641ZM285.68 227.141C304.42 227.141 319.6 211.961 319.6 193.221C319.6 174.481 304.42 159.301 285.68 159.301C266.94 159.301 251.76 174.501 251.76 193.221C251.76 211.941 266.94 227.141 285.68 227.141Z" fill="#FF1700"/>
    <path d="M285.68 153.641C307.54 153.641 325.26 171.361 325.26 193.221C325.26 215.081 307.54 232.801 285.68 232.801C263.82 232.801 246.1 215.081 246.1 193.221C246.1 171.361 263.82 153.641 285.68 153.641ZM285.68 227.141C304.42 227.141 319.6 211.961 319.6 193.221C319.6 174.481 304.42 159.301 285.68 159.301C266.94 159.301 251.76 174.501 251.76 193.221C251.76 211.941 266.94 227.141 285.68 227.141Z" stroke="#170486" stroke-width="0.54" stroke-miterlimit="10"/>
    <path d="M281.98 94.9396C291.3 89.1596 294.76 77.8396 289.68 69.6596C284.6 61.4796 272.94 59.5196 263.6 65.2996" stroke="#170486" stroke-width="0.54" stroke-miterlimit="10"/>
    <path d="M255.34 128.456L273.431 134.52L272.795 136.416L254.704 130.352L255.34 128.456Z" fill="#FF1700"/>
    <path d="M255.34 128.456L273.431 134.52L272.795 136.416L254.704 130.352L255.34 128.456Z" stroke="#170486" stroke-width="0.54" stroke-miterlimit="10"/>
    <path d="M287.52 86.0802C287.52 89.3402 290.16 92.0002 293.44 92.0002C296.72 92.0002 299.36 89.3602 299.36 86.0802C299.36 82.8002 296.72 80.1602 293.44 80.1602C290.16 80.1602 287.52 82.8002 287.52 86.0802Z" fill="#FF1700"/>
    <path d="M291.177 91.5561C288.157 90.3049 286.722 86.8419 287.974 83.8212C289.225 80.8006 292.688 79.3661 295.708 80.6173C298.729 81.8685 300.163 85.3315 298.912 88.3522C297.661 91.3728 294.198 92.8073 291.177 91.5561Z" stroke="#170486" stroke-width="0.54" stroke-miterlimit="10"/>
    <path d="M290.26 86.0799C290.26 87.8399 291.68 89.2599 293.44 89.2599C295.2 89.2599 296.6 87.8399 296.6 86.0799C296.6 84.3199 295.18 82.9199 293.44 82.9199C291.7 82.9199 290.26 84.3399 290.26 86.0799Z" fill="#170486"/>
    <path d="M166.08 153.641C187.94 153.641 205.66 171.361 205.66 193.221C205.66 215.081 187.94 232.801 166.08 232.801C144.22 232.801 126.5 215.081 126.5 193.221C126.5 171.361 144.22 153.641 166.08 153.641ZM166.08 227.141C184.82 227.141 200 211.961 200 193.221C200 174.481 184.82 159.301 166.08 159.301C147.34 159.301 132.16 174.501 132.16 193.221C132.16 211.941 147.34 227.141 166.08 227.141Z" fill="#FF1700"/>
    <path d="M166.08 153.641C187.94 153.641 205.66 171.361 205.66 193.221C205.66 215.081 187.94 232.801 166.08 232.801C144.22 232.801 126.5 215.081 126.5 193.221C126.5 171.361 144.22 153.641 166.08 153.641ZM166.08 227.141C184.82 227.141 200 211.961 200 193.221C200 174.481 184.82 159.301 166.08 159.301C147.34 159.301 132.16 174.501 132.16 193.221C132.16 211.941 147.34 227.141 166.08 227.141Z" stroke="#170486" stroke-width="0.54" stroke-miterlimit="10"/>
    <mask id="mask1_3763_26427" style="mask-type:luminance" maskUnits="userSpaceOnUse" x="155" y="64" width="126" height="81">
        <path d="M247.9 64.1191C264.96 74.0391 277.24 90.6191 280.08 110.679C280.48 113.539 280.68 116.379 280.68 119.199C273.54 116.759 265.92 114.819 257.9 113.519C214.92 106.539 176.26 120.119 166.44 144.299C159.92 137.399 156.04 129.399 155.62 120.739C154.2 91.8991 191.6 66.6191 239.14 64.2991C241.5 64.1791 243.86 64.1191 246.18 64.1191C246.76 64.1191 247.32 64.1191 247.88 64.1191" fill="white"/>
    </mask>
    <g mask="url(#mask1_3763_26427)">
        <path d="M158.405 41.5409L295.016 66.7617L276.535 166.87L139.923 141.649L158.405 41.5409Z" fill="url(#paint1_linear_3763_26427)"/>
    </g>
    <path d="M239.16 64.2796C242.12 64.1396 245.04 64.0796 247.92 64.1196C264.98 74.0396 277.26 90.5996 280.1 110.68C280.5 113.54 280.7 116.38 280.7 119.2C273.56 116.76 265.94 114.82 257.92 113.52C214.96 106.54 176.28 120.12 166.46 144.3C159.94 137.4 156.06 129.4 155.64 120.74C154.22 91.8996 191.62 66.6196 239.16 64.2996V64.2796Z" stroke="#170486" stroke-width="0.54" stroke-miterlimit="10"/>
    <path d="M261.62 114.319C261.62 114.319 255.6 83.5394 236.72 79.8594C236.72 79.8594 155.48 87.9994 160.12 136.099" stroke="#170486" stroke-width="0.54" stroke-miterlimit="10"/>
    <path d="M260.2 126.52C260.2 126.52 254.62 97.9005 237.18 94.4805C237.18 94.4805 163.38 101.36 166.64 144.32" stroke="#170486" stroke-width="0.54" stroke-miterlimit="10"/>
    <path d="M239.16 64.2796C242.12 64.1396 245.04 64.0796 247.92 64.1196C264.98 74.0396 277.26 90.5996 280.1 110.68C280.5 113.54 280.7 116.38 280.7 119.2C273.56 116.76 265.94 114.82 257.92 113.52C214.96 106.54 176.28 120.12 166.46 144.3C159.94 137.4 156.06 129.4 155.64 120.74C154.22 91.8996 191.62 66.6196 239.16 64.2996V64.2796Z" stroke="#170486" stroke-width="0.54" stroke-miterlimit="10"/>
    <path d="M249.22 93.9598L256.84 83.3598C256.84 83.3598 259.04 80.9199 260.94 84.0799L263.24 131.26C263.24 131.26 263.52 137.08 257.48 138.24C257.48 138.24 252.56 138.88 252.26 132.38L249.22 93.9399V93.9598Z" fill="#FF1700"/>
    <path d="M249.22 93.9598L256.84 83.3598C256.84 83.3598 259.04 80.9199 260.94 84.0799L263.24 131.26C263.24 131.26 263.52 137.08 257.48 138.24C257.48 138.24 252.56 138.88 252.26 132.38L249.22 93.9399V93.9598Z" stroke="#170486" stroke-width="0.54" stroke-miterlimit="10"/>
    <path d="M254.58 130.721C254.58 132.521 256.04 133.981 257.84 133.981C259.64 133.981 261.1 132.521 261.1 130.721C261.1 128.921 259.64 127.461 257.84 127.461C256.04 127.461 254.58 128.921 254.58 130.721Z" fill="#FF1700"/>
    <path d="M254.58 130.721C254.58 132.521 256.04 133.981 257.84 133.981C259.64 133.981 261.1 132.521 261.1 130.721C261.1 128.921 259.64 127.461 257.84 127.461C256.04 127.461 254.58 128.921 254.58 130.721Z" stroke="#170486" stroke-width="0.54" stroke-miterlimit="10"/>
    <path d="M269.54 138.9L293.36 140.78C295.72 140.96 297.8 139.2 298 136.82L298.12 135.32C298.3 132.96 296.54 130.88 294.16 130.68L270.34 128.8C267.98 128.62 265.9 130.38 265.7 132.76L265.58 134.26C265.4 136.62 267.16 138.7 269.54 138.88" fill="#FF1700"/>
    <path d="M269.54 138.9L293.36 140.78C295.72 140.96 297.8 139.2 298 136.82L298.12 135.32C298.3 132.96 296.54 130.88 294.16 130.68L270.34 128.8C267.98 128.62 265.9 130.38 265.7 132.76L265.58 134.26C265.4 136.62 267.16 138.7 269.54 138.88V138.9Z" stroke="#170486" stroke-width="0.54" stroke-miterlimit="10"/>
    <path d="M303.5 134.919C303.9 139.359 300.64 143.279 296.2 143.679C291.76 144.079 287.84 140.819 287.44 136.379C287.04 131.939 290.3 128.019 294.74 127.619C299.18 127.219 303.1 130.479 303.5 134.919Z" fill="#FF1700"/>
    <path d="M303.5 134.919C303.9 139.359 300.64 143.279 296.2 143.679C291.76 144.079 287.84 140.819 287.44 136.379C287.04 131.939 290.3 128.019 294.74 127.619C299.18 127.219 303.1 130.479 303.5 134.919Z" stroke="#170486" stroke-width="0.49" stroke-miterlimit="10"/>
    <path d="M300.44 135.201C300.68 137.941 298.68 140.381 295.92 140.621C293.18 140.881 290.76 138.861 290.5 136.101C290.26 133.361 292.28 130.941 295.02 130.681C297.76 130.421 300.18 132.441 300.44 135.201Z" fill="#FF1700"/>
    <path d="M300.44 135.201C300.68 137.941 298.68 140.381 295.92 140.621C293.18 140.881 290.76 138.861 290.5 136.101C290.26 133.361 292.28 130.941 295.02 130.681C297.76 130.421 300.18 132.441 300.44 135.201Z" stroke="#170486" stroke-width="0.49" stroke-miterlimit="10"/>
    <path d="M268.02 133.98C268.02 135.72 269.44 137.14 271.18 137.14C272.92 137.14 274.34 135.72 274.34 133.98C274.34 132.24 272.92 130.82 271.18 130.82C269.44 130.82 268.02 132.24 268.02 133.98Z" fill="#FF1700"/>
    <path d="M268.02 133.98C268.02 135.72 269.44 137.14 271.18 137.14C272.92 137.14 274.34 135.72 274.34 133.98C274.34 132.24 272.92 130.82 271.18 130.82C269.44 130.82 268.02 132.24 268.02 133.98Z" stroke="#170486" stroke-width="0.52" stroke-miterlimit="10"/>
    <mask id="mask2_3763_26427" style="mask-type:luminance" maskUnits="userSpaceOnUse" x="285" y="94" width="12" height="11">
        <path d="M296.14 100.56L289.52 104.72L285.28 97.0602L291.42 94.1602L296.14 100.56Z" fill="white"/>
    </mask>
    <g mask="url(#mask2_3763_26427)">
        <path d="M289.06 97.3594C289.06 97.3594 289.34 102.739 294.84 104.139" stroke="#170486" stroke-width="0.49" stroke-linecap="round" stroke-linejoin="round"/>
    </g>
    <path d="M220.94 208.219L223.18 207.899C226.74 207.379 229.22 204.079 228.7 200.519L223.24 162.739C222.72 159.179 219.42 156.699 215.86 157.219L213.62 157.539C210.06 158.059 207.58 161.359 208.1 164.919L213.56 202.699C214.08 206.259 217.38 208.739 220.94 208.219Z" fill="#FF1700"/>
    <path d="M220.94 208.219L223.18 207.899C226.74 207.379 229.22 204.079 228.7 200.519L223.24 162.739C222.72 159.179 219.42 156.699 215.86 157.219L213.62 157.539C210.06 158.059 207.58 161.359 208.1 164.919L213.56 202.699C214.08 206.259 217.38 208.739 220.94 208.219Z" stroke="#170486" stroke-width="0.54" stroke-miterlimit="10"/>
    <path d="M222.26 168.92C227.54 165.3 228.9 158.08 225.28 152.8L193.76 106.72C190.14 101.44 182.92 100.08 177.64 103.7C172.36 107.32 171 114.54 174.62 119.82L206.14 165.9C209.76 171.18 216.98 172.54 222.26 168.92Z" fill="#FF1700"/>
    <path d="M222.26 168.92C227.54 165.3 228.9 158.08 225.28 152.8L193.76 106.72C190.14 101.44 182.92 100.08 177.64 103.7C172.36 107.32 171 114.54 174.62 119.82L206.14 165.9C209.76 171.18 216.98 172.54 222.26 168.92Z" stroke="#170486" stroke-width="0.54" stroke-miterlimit="10"/>
    <path d="M216.64 208.76C220.92 211.14 226.3 209.58 228.66 205.32C231.02 201.04 229.48 195.66 225.22 193.3C220.96 190.94 215.56 192.48 213.2 196.74C210.84 201.02 212.38 206.4 216.64 208.76Z" fill="#FF1700"/>
    <path d="M216.64 208.76C220.92 211.14 226.3 209.58 228.66 205.32C231.02 201.04 229.48 195.66 225.22 193.3C220.96 190.94 215.56 192.48 213.2 196.74C210.84 201.02 212.38 206.4 216.64 208.76Z" stroke="#170486" stroke-width="0.54" stroke-miterlimit="10"/>
    <path d="M218.28 205.819C220.92 207.279 224.26 206.339 225.72 203.679C227.18 201.039 226.24 197.699 223.58 196.239C220.94 194.779 217.6 195.719 216.14 198.379C214.68 201.019 215.62 204.359 218.28 205.819Z" fill="#FF1700"/>
    <path d="M218.28 205.819C220.92 207.279 224.26 206.339 225.72 203.679C227.18 201.039 226.24 197.699 223.58 196.239C220.94 194.779 217.6 195.719 216.14 198.379C214.68 201.019 215.62 204.359 218.28 205.819Z" stroke="#170486" stroke-width="0.54" stroke-miterlimit="10"/>
    <defs>
        <linearGradient id="paint0_linear_3763_26427" x1="292.722" y1="49.9191" x2="276.909" y2="86.443" gradientUnits="userSpaceOnUse">
            <stop stop-color="#170486"/>
            <stop offset="0.01" stop-color="#170486"/>
            <stop offset="1" stop-color="#1598FF"/>
        </linearGradient>
        <linearGradient id="paint1_linear_3763_26427" x1="219.153" y1="79.9302" x2="210.297" y2="127.9" gradientUnits="userSpaceOnUse">
            <stop stop-color="#1598FF"/>
            <stop offset="0.99" stop-color="#170486"/>
            <stop offset="1" stop-color="#170486"/>
        </linearGradient>
    </defs>
</svg>
