<svg width="284" height="190" viewBox="0 0 284 190" fill="none" xmlns="http://www.w3.org/2000/svg">
    <rect x="-10" y="143" width="135" height="2" fill="#FF1700"/>
    <path d="M161.389 32.8174C161.389 32.8174 147.115 35.6814 141.322 52.6416" stroke="#170486" stroke-width="0.54" stroke-miterlimit="10"/>
    <path d="M158.434 88.599L169.157 96.4668L168.335 97.5945L157.612 89.7267L158.434 88.599Z" fill="#FF1700"/>
    <path d="M158.434 88.599L169.157 96.4668L168.335 97.5945L157.612 89.7267L158.434 88.599Z" stroke="#170486" stroke-width="0.54" stroke-miterlimit="10"/>
    <path d="M139.61 68.8472L140.473 59.7663C140.473 59.7663 140.946 57.5171 143.202 58.7605L161.124 86.4222C161.124 86.4222 163.338 89.8311 160.108 92.6671C160.108 92.6671 157.378 94.7766 154.913 90.9766L139.61 68.8472Z" fill="#FF1700"/>
    <path d="M139.61 68.8472L140.473 59.7663C140.473 59.7663 140.946 57.5171 143.202 58.7605L161.124 86.4222C161.124 86.4222 163.338 89.8311 160.108 92.6671C160.108 92.6671 157.378 94.7766 154.913 90.9766L139.61 68.8472Z" stroke="#170486" stroke-width="0.54" stroke-miterlimit="10"/>
    <path d="M155.721 89.1596C156.348 90.2494 157.74 90.6126 158.827 89.9839C159.913 89.3552 160.275 87.9582 159.648 86.8685C159.022 85.7788 157.629 85.4155 156.543 86.0442C155.457 86.6729 155.095 88.0699 155.721 89.1596Z" fill="#FF1700"/>
    <path d="M155.721 89.1596C156.348 90.2494 157.74 90.6126 158.827 89.9839C159.913 89.3552 160.275 87.9582 159.648 86.8685C159.022 85.7788 157.629 85.4155 156.543 86.0442C155.457 86.6729 155.095 88.0699 155.721 89.1596Z" stroke="#170486" stroke-width="0.54" stroke-miterlimit="10"/>
    <path d="M162.391 97.3468L175.508 107.615C176.817 108.635 178.697 108.397 179.714 107.098L180.354 106.274C181.371 104.961 181.134 103.075 179.839 102.055L166.721 91.7865C165.412 90.7666 163.533 91.0041 162.516 92.3034L161.875 93.1276C160.859 94.4409 161.096 96.3269 162.391 97.3468Z" fill="#FF1700"/>
    <path d="M179.841 102.053L166.73 91.7951C165.423 90.7727 163.547 91.0055 162.528 92.3165L161.886 93.1427C160.867 94.4537 161.099 96.336 162.405 97.3584L175.527 107.625C176.834 108.648 178.71 108.415 179.729 107.104L180.372 106.278C181.391 104.967 181.159 103.084 179.852 102.062L179.841 102.053Z" stroke="#170486" stroke-width="0.54" stroke-miterlimit="10"/>
    <path d="M185.994 110.103C184.532 112.841 181.134 113.875 178.391 112.408C175.662 110.941 174.631 107.532 176.107 104.78C177.569 102.042 180.967 101.008 183.696 102.475C186.426 103.942 187.456 107.35 185.98 110.103" fill="#FF1700"/>
    <path d="M185.994 110.103C184.532 112.841 181.134 113.875 178.391 112.408C175.662 110.941 174.631 107.532 176.107 104.78C177.569 102.042 180.967 101.008 183.696 102.475C186.426 103.942 187.456 107.35 185.98 110.103H185.994Z" stroke="#170486" stroke-width="0.49" stroke-miterlimit="10"/>
    <path d="M184.114 109.082C183.209 110.772 181.106 111.415 179.408 110.507C177.723 109.599 177.082 107.489 177.987 105.785C178.892 104.094 180.995 103.452 182.694 104.36C184.379 105.268 185.019 107.377 184.114 109.082Z" fill="#FF1700"/>
    <path d="M184.114 109.082C183.209 110.772 181.106 111.415 179.408 110.507C177.723 109.599 177.082 107.489 177.987 105.785C178.892 104.094 180.995 103.452 182.694 104.36C184.379 105.268 185.019 107.377 184.114 109.082Z" stroke="#170486" stroke-width="0.49" stroke-miterlimit="10"/>
    <path d="M163.394 93.8968C162.725 94.9167 163.004 96.2858 164.02 96.9564C165.037 97.627 166.402 97.3475 167.07 96.3277C167.738 95.3078 167.46 93.9387 166.443 93.2681C165.427 92.5975 164.062 92.877 163.394 93.8968Z" fill="#FF1700"/>
    <path d="M163.394 93.8968C162.725 94.9167 163.004 96.2858 164.02 96.9564C165.037 97.627 166.402 97.3475 167.07 96.3277C167.738 95.3078 167.46 93.9387 166.443 93.2681C165.427 92.5975 164.062 92.877 163.394 93.8968Z" stroke="#170486" stroke-width="0.52" stroke-miterlimit="10"/>
    <mask id="mask0_0_1" style="mask-type:luminance" maskUnits="userSpaceOnUse" x="175" y="104" width="80" height="50">
        <path d="M179.63 106.735L226.294 146.914C226.294 146.914 230.82 149.694 237.1 148.675C243.38 147.669 253.643 143.156 253.643 143.156C253.643 143.156 255.955 149.68 252.682 150.435C249.41 151.189 239.105 155.73 229.302 152.209L175.787 106.735L178.516 104.793L179.63 106.735Z" fill="white"/>
    </mask>
    <g mask="url(#mask0_0_1)">
        <path d="M175.773 104.807H255.94V155.757H175.773V104.807Z" fill="url(#paint0_linear_0_1)"/>
    </g>
    <path d="M179.63 106.735L226.294 146.915C226.294 146.915 230.82 149.695 237.1 148.675C243.38 147.669 253.643 143.157 253.643 143.157C253.643 143.157 255.955 149.681 252.682 150.435C249.41 151.19 239.105 155.73 229.302 152.195L175.787 106.721L178.516 104.779L179.63 106.721V106.735Z" stroke="#170486" stroke-width="0.54" stroke-miterlimit="10"/>
    <path d="M74.6901 123.095L72.6152 121.893C69.3288 119.993 68.2009 115.774 70.0947 112.463L90.7319 76.6008C92.6258 73.3037 96.8312 72.1721 100.131 74.0721L102.206 75.2736C105.493 77.1736 106.621 81.4067 104.727 84.7037L84.0896 120.566C82.1958 123.863 77.9903 124.995 74.6901 123.095Z" fill="#FF1700"/>
    <path d="M74.6901 123.095L72.6152 121.893C69.3288 119.993 68.2009 115.774 70.0947 112.463L90.7319 76.6008C92.6258 73.3037 96.8312 72.1721 100.131 74.0721L102.206 75.2736C105.493 77.1736 106.621 81.4067 104.727 84.7037L84.0896 120.566C82.1958 123.863 77.9903 124.995 74.6901 123.095Z" stroke="#170486" stroke-width="0.54" stroke-miterlimit="10"/>
    <path d="M35.7547 137.135L35.0584 135.71C33.9444 133.461 34.8774 130.722 37.1193 129.619L76.3746 110.214C78.6305 109.096 81.3459 110.032 82.4599 112.281L83.1562 113.706C84.2702 115.955 83.3372 118.694 81.0952 119.797L41.84 139.203C39.5841 140.32 36.8687 139.384 35.7547 137.135Z" fill="#FF1700"/>
    <path d="M35.7547 137.135L35.0584 135.71C33.9444 133.461 34.8774 130.722 37.1193 129.619L76.3746 110.214C78.6305 109.096 81.3459 110.032 82.4599 112.281L83.1562 113.706C84.2702 115.955 83.3372 118.694 81.0952 119.797L41.84 139.203C39.5841 140.32 36.8687 139.384 35.7547 137.135Z" stroke="#170486" stroke-width="0.54" stroke-miterlimit="10"/>
    <path d="M40.5035 143.016C37.3285 144.218 33.7637 142.611 32.5661 139.426C31.3685 136.227 32.9699 132.664 36.1449 131.463C39.3198 130.247 42.8847 131.868 44.0823 135.053C45.2798 138.239 43.6784 141.815 40.5035 143.016Z" fill="#FF1700"/>
    <path d="M40.5035 143.016C37.3285 144.218 33.7637 142.611 32.5661 139.426C31.3685 136.227 32.9699 132.664 36.1449 131.463C39.3198 130.247 42.8847 131.868 44.0823 135.053C45.2798 138.239 43.6784 141.815 40.5035 143.016Z" stroke="#170486" stroke-width="0.54" stroke-miterlimit="10"/>
    <path d="M39.6676 140.823C37.7041 141.577 35.5039 140.571 34.752 138.602C34 136.632 35.0026 134.424 36.9661 133.67C38.9295 132.915 41.1297 133.921 41.8817 135.891C42.6337 137.861 41.631 140.068 39.6676 140.823Z" fill="#FF1700"/>
    <path d="M39.6676 140.823C37.7041 141.577 35.5039 140.571 34.752 138.602C34 136.632 35.0026 134.424 36.9661 133.67C38.9295 132.915 41.1297 133.921 41.8817 135.891C42.6337 137.861 41.631 140.068 39.6676 140.823Z" stroke="#170486" stroke-width="0.54" stroke-miterlimit="10"/>
    <mask id="mask1_0_1" style="mask-type:luminance" maskUnits="userSpaceOnUse" x="83" y="47" width="78" height="79">
        <path d="M157.517 63.6923C158.798 65.243 159.954 66.8776 160.971 68.5541C155.846 69.6997 150.61 71.3342 145.374 73.4717C117.329 84.9975 99.3098 107.183 102.262 125.177C95.8842 123.445 90.6761 120.092 87.2644 115.09C75.9293 98.4232 88.9494 69.7276 116.326 50.993C118.025 49.8335 119.738 48.7298 121.465 47.71C121.855 47.71 122.231 47.71 122.621 47.71C135.933 47.71 148.772 53.1026 157.503 63.7063" fill="white"/>
    </mask>
    <g mask="url(#mask1_0_1)">
        <path d="M150.034 19.1358L186.854 115.215L86.9141 153.763L50.095 57.6841L150.034 19.1358Z" fill="url(#paint1_linear_0_1)"/>
    </g>
    <path d="M116.34 51.0066C118.039 49.847 119.752 48.7434 121.479 47.7235C135.209 47.4022 148.535 52.7948 157.517 63.7059C158.798 65.2566 159.94 66.8912 160.971 68.5676C155.846 69.7132 150.61 71.3478 145.374 73.4853C117.329 85.011 99.3098 107.196 102.262 125.19C95.8842 123.458 90.6761 120.105 87.2644 115.104C75.9293 98.4368 88.9494 69.7412 116.326 51.0066H116.34Z" stroke="#170486" stroke-width="0.54" stroke-miterlimit="10"/>
    <path d="M147.881 72.6048C147.881 72.6048 133.106 56.4688 120.573 61.1629C120.573 61.1629 75.3025 95.6563 95.5498 122.606" stroke="#170486" stroke-width="0.54" stroke-miterlimit="10"/>
    <path d="M151.474 80.4018C151.474 80.4018 137.757 65.3973 126.144 69.7282C126.144 69.7282 84.8275 100.757 102.387 125.164" stroke="#170486" stroke-width="0.54" stroke-miterlimit="10"/>
    <path d="M150.415 113.218L149.775 115.537C148.758 119.211 144.971 121.363 141.308 120.343L101.552 109.264C97.8895 108.244 95.745 104.444 96.7616 100.77L97.4021 98.4508C98.4187 94.7765 102.206 92.625 105.869 93.6449L145.625 104.724C149.288 105.743 151.432 109.543 150.415 113.218Z" fill="#FF1700"/>
    <path d="M145.629 104.716L105.861 93.6287C102.199 92.6076 98.4096 94.7557 97.3917 98.4304L96.7504 100.746C95.7326 104.42 97.8737 108.222 101.537 109.243L141.304 120.33C144.967 121.351 148.756 119.203 149.774 115.528L150.415 113.213C151.433 109.538 149.292 105.737 145.629 104.716Z" stroke="#170486" stroke-width="0.54" stroke-miterlimit="10"/>
    <path d="M118.276 141.508L117.092 140.46C115.212 138.797 115.031 135.919 116.688 134.033L139.47 108.146C141.127 106.26 143.996 106.078 145.876 107.741L147.059 108.789C148.939 110.451 149.12 113.329 147.463 115.215L124.681 141.102C123.024 142.989 120.156 143.17 118.276 141.508Z" fill="#FF1700"/>
    <path d="M118.276 141.508L117.092 140.46C115.212 138.797 115.031 135.919 116.688 134.033L139.47 108.146C141.127 106.26 143.996 106.078 145.876 107.741L147.059 108.789C148.939 110.451 149.12 113.329 147.463 115.215L124.681 141.102C123.024 142.989 120.156 143.17 118.276 141.508Z" stroke="#170486" stroke-width="0.49" stroke-miterlimit="10"/>
    <path d="M129.026 142.249C127.272 145.183 123.498 146.133 120.574 144.373C117.649 142.612 116.716 138.826 118.457 135.892C120.212 132.959 123.985 132.009 126.91 133.769C129.834 135.529 130.767 139.315 129.026 142.249Z" fill="#FF1700"/>
    <path d="M129.026 142.249C127.272 145.183 123.498 146.133 120.574 144.373C117.649 142.612 116.716 138.826 118.457 135.892C120.212 132.959 123.985 132.009 126.91 133.769C129.834 135.529 130.767 139.315 129.026 142.249Z" stroke="#170486" stroke-width="0.54" stroke-miterlimit="10"/>
    <path d="M127.007 141.047C125.92 142.864 123.581 143.45 121.785 142.361C119.974 141.271 119.389 138.924 120.476 137.122C121.562 135.305 123.901 134.719 125.712 135.808C127.522 136.898 128.107 139.245 127.021 141.047" fill="#FF1700"/>
    <path d="M127.007 141.047C125.92 142.864 123.581 143.45 121.785 142.361C119.974 141.271 119.389 138.924 120.476 137.122C121.562 135.305 123.901 134.719 125.712 135.808C127.522 136.898 128.107 139.245 127.021 141.047H127.007Z" stroke="#170486" stroke-width="0.54" stroke-miterlimit="10"/>
    <path d="M157.342 89.4281L168.065 97.2959L167.243 98.4236L156.52 90.5558L157.342 89.4281Z" fill="#FF1700"/>
    <path d="M157.342 89.4281L168.065 97.2959L167.243 98.4236L156.52 90.5558L157.342 89.4281Z" stroke="#170486" stroke-width="0.54" stroke-miterlimit="10"/>
    <path d="M138.523 69.6714L139.386 60.5906C139.386 60.5906 139.86 58.3413 142.115 59.5847L160.037 87.2464C160.037 87.2464 162.251 90.6553 159.021 93.4913C159.021 93.4913 156.291 95.6009 153.827 91.8009L138.523 69.6714Z" fill="#FF1700"/>
    <path d="M138.523 69.6714L139.386 60.5906C139.386 60.5906 139.86 58.3413 142.115 59.5847L160.037 87.2464C160.037 87.2464 162.251 90.6553 159.021 93.4913C159.021 93.4913 156.291 95.6009 153.827 91.8009L138.523 69.6714Z" stroke="#170486" stroke-width="0.54" stroke-miterlimit="10"/>
    <path d="M154.634 89.9848C155.261 91.0745 156.654 91.4378 157.74 90.8091C158.826 90.1804 159.188 88.7834 158.561 87.6937C157.935 86.604 156.542 86.2407 155.456 86.8694C154.37 87.4981 154.008 88.8951 154.634 89.9848Z" fill="#FF1700"/>
    <path d="M154.634 89.9848C155.261 91.0745 156.654 91.4378 157.74 90.8091C158.826 90.1804 159.188 88.7834 158.561 87.6937C157.935 86.604 156.542 86.2407 155.456 86.8694C154.37 87.4981 154.008 88.8951 154.634 89.9848Z" stroke="#170486" stroke-width="0.54" stroke-miterlimit="10"/>
    <path d="M161.318 98.1846L174.436 108.453C175.745 109.473 177.625 109.235 178.641 107.936L179.282 107.112C180.299 105.799 180.062 103.913 178.767 102.893L165.649 92.6244C164.34 91.6045 162.46 91.842 161.444 93.1413L160.803 93.9655C159.787 95.2788 160.023 97.1648 161.318 98.1846Z" fill="#FF1700"/>
    <path d="M178.769 102.88L165.658 92.6221C164.351 91.5997 162.475 91.8325 161.456 93.1434L160.814 93.9697C159.795 95.2806 160.027 97.163 161.333 98.1854L174.444 108.444C175.751 109.466 177.627 109.233 178.646 107.922L179.289 107.096C180.308 105.785 180.076 103.903 178.769 102.88Z" stroke="#170486" stroke-width="0.54" stroke-miterlimit="10"/>
    <path d="M184.922 110.927C183.46 113.665 180.062 114.699 177.319 113.232C174.589 111.765 173.559 108.356 175.035 105.604C176.497 102.866 179.895 101.832 182.624 103.299C185.353 104.766 186.384 108.175 184.908 110.927" fill="#FF1700"/>
    <path d="M184.922 110.927C183.46 113.665 180.062 114.699 177.319 113.232C174.589 111.765 173.559 108.356 175.035 105.604C176.497 102.866 179.895 101.832 182.624 103.299C185.353 104.766 186.384 108.175 184.908 110.927H184.922Z" stroke="#170486" stroke-width="0.49" stroke-miterlimit="10"/>
    <path d="M183.042 109.907C182.137 111.597 180.034 112.24 178.335 111.332C176.65 110.424 176.01 108.314 176.915 106.61C177.82 104.919 179.923 104.277 181.622 105.185C183.307 106.093 183.947 108.203 183.042 109.907Z" fill="#FF1700"/>
    <path d="M183.042 109.907C182.137 111.597 180.034 112.24 178.335 111.332C176.65 110.424 176.01 108.314 176.915 106.61C177.82 104.919 179.923 104.277 181.622 105.185C183.307 106.093 183.947 108.203 183.042 109.907Z" stroke="#170486" stroke-width="0.49" stroke-miterlimit="10"/>
    <path d="M162.321 94.7347C161.653 95.7546 161.932 97.1237 162.948 97.7943C163.965 98.4648 165.329 98.1854 165.998 97.1656C166.666 96.1457 166.388 94.7766 165.371 94.106C164.355 93.4354 162.99 93.7148 162.321 94.7347Z" fill="#FF1700"/>
    <path d="M162.321 94.7347C161.653 95.7546 161.932 97.1237 162.948 97.7943C163.965 98.4648 165.329 98.1854 165.998 97.1656C166.666 96.1457 166.388 94.7766 165.371 94.106C164.355 93.4354 162.99 93.7148 162.321 94.7347Z" stroke="#170486" stroke-width="0.52" stroke-miterlimit="10"/>
    <path d="M262.736 154.99V157.002C262.736 157.631 261.218 158.134 259.339 158.134C257.459 158.134 255.941 157.631 255.941 157.002V154.99H262.736Z" fill="#FF1700"/>
    <path d="M262.736 154.99V157.002C262.736 157.631 261.218 158.134 259.339 158.134C257.459 158.134 255.941 157.631 255.941 157.002V154.99H262.736Z" stroke="#170486" stroke-width="0.54" stroke-miterlimit="10"/>
    <path d="M255.941 154.864C255.941 155.493 257.459 155.996 259.339 155.996C261.218 155.996 262.736 155.493 262.736 154.864C262.736 154.235 261.218 153.732 259.339 153.732C257.459 153.732 255.941 154.235 255.941 154.864Z" fill="#FF1700"/>
    <path d="M255.941 154.864C255.941 155.493 257.459 155.996 259.339 155.996C261.218 155.996 262.736 155.493 262.736 154.864C262.736 154.235 261.218 153.732 259.339 153.732C257.459 153.732 255.941 154.235 255.941 154.864Z" stroke="#170486" stroke-width="0.54" stroke-miterlimit="10"/>
    <mask id="mask2_0_1" style="mask-type:luminance" maskUnits="userSpaceOnUse" x="134" y="10" width="47" height="44">
        <path d="M180.772 32.2719C180.772 44.0491 170.426 53.5911 157.67 53.5911C144.915 53.5911 134.569 44.0491 134.569 32.2719C134.569 20.4947 144.901 10.9668 157.67 10.9668C170.44 10.9668 180.772 20.5087 180.772 32.2719Z" fill="white"/>
    </mask>
    <g mask="url(#mask2_0_1)">
        <path d="M134.555 10.9668H180.772V53.5911H134.555V10.9668Z" fill="url(#paint2_linear_0_1)"/>
    </g>
    <path d="M134.555 32.2719C134.555 44.0491 144.901 53.5911 157.657 53.5911C170.412 53.5911 180.759 44.0491 180.759 32.2719C180.759 20.4947 170.426 10.9668 157.671 10.9668C144.915 10.9668 134.569 20.5087 134.569 32.2719H134.555Z" stroke="#170486" stroke-width="0.54" stroke-miterlimit="10"/>
    <mask id="mask3_0_1" style="mask-type:luminance" maskUnits="userSpaceOnUse" x="154" y="19" width="27" height="30">
        <path d="M180.759 34.2283C180.759 42.2474 174.924 48.7438 167.725 48.7438C160.525 48.7438 154.691 42.2474 154.691 34.2283C154.691 26.2092 160.525 19.7129 167.725 19.7129C174.924 19.7129 180.759 26.2092 180.759 34.2283Z" fill="white"/>
    </mask>
    <g mask="url(#mask3_0_1)">
        <path d="M161.195 8.38186L193.285 26.9697L174.235 60.0723L142.145 41.4844L161.195 8.38186Z" fill="url(#paint3_linear_0_1)"/>
    </g>
    <path d="M154.691 34.2283C154.691 42.2474 160.525 48.7438 167.725 48.7438C174.924 48.7438 180.759 42.2474 180.759 34.2283C180.759 26.2092 174.924 19.7129 167.725 19.7129C160.525 19.7129 154.691 26.2092 154.691 34.2283Z" stroke="#170486" stroke-width="0.54" stroke-miterlimit="10"/>
    <path d="M159.146 34.1998C159.146 40.78 163.63 46.1028 169.159 46.1028C174.687 46.1028 179.171 40.766 179.171 34.1998C179.171 27.6336 174.687 22.2969 169.159 22.2969C163.63 22.2969 159.146 27.6336 159.146 34.1998Z" fill="#170486"/>
    <path d="M159.146 34.1998C159.146 40.78 163.63 46.1028 169.159 46.1028C174.687 46.1028 179.171 40.766 179.171 34.1998C179.171 27.6336 174.687 22.2969 169.159 22.2969C163.63 22.2969 159.146 27.6336 159.146 34.1998Z" stroke="#170486" stroke-width="0.54" stroke-miterlimit="10"/>
    <mask id="mask4_0_1" style="mask-type:luminance" maskUnits="userSpaceOnUse" x="138" y="35" width="9" height="8">
        <path d="M146.112 39.0058C146.112 41.0735 144.441 42.75 142.38 42.75C140.319 42.75 138.648 41.0735 138.648 39.0058C138.648 36.9382 140.319 35.2617 142.38 35.2617C144.441 35.2617 146.112 36.9382 146.112 39.0058Z" fill="white"/>
    </mask>
    <g mask="url(#mask4_0_1)">
        <path d="M138.662 35.2617H146.112V42.736H138.662V35.2617Z" fill="url(#paint4_linear_0_1)"/>
    </g>
    <path d="M138.662 39.0058C138.662 41.0735 140.333 42.75 142.394 42.75C144.455 42.75 146.126 41.0735 146.126 39.0058C146.126 36.9382 144.455 35.2617 142.394 35.2617C140.333 35.2617 138.662 36.9382 138.662 39.0058Z" stroke="#170486" stroke-width="0.54" stroke-miterlimit="10"/>
    <path d="M139.401 39.7458C139.401 40.5701 140.069 41.2407 140.891 41.2407C141.712 41.2407 142.381 40.5701 142.381 39.7458C142.381 38.9216 141.712 38.251 140.891 38.251C140.069 38.251 139.401 38.9216 139.401 39.7458Z" fill="#170486"/>
    <path d="M156.919 34.1998C156.919 40.78 161.403 46.1028 166.931 46.1028C172.459 46.1028 176.943 40.766 176.943 34.1998C176.943 27.6336 172.459 22.2969 166.931 22.2969C161.403 22.2969 156.919 27.6336 156.919 34.1998Z" fill="#FF1700"/>
    <path d="M156.919 34.1998C156.919 40.78 161.403 46.1028 166.931 46.1028C172.459 46.1028 176.943 40.766 176.943 34.1998C176.943 27.6336 172.459 22.2969 166.931 22.2969C161.403 22.2969 156.919 27.6336 156.919 34.1998Z" stroke="#170486" stroke-width="0.54" stroke-miterlimit="10"/>
    <path d="M162.154 33.8091C162.154 36.4775 164.299 38.629 166.958 38.629C169.618 38.629 171.763 36.4775 171.763 33.8091C171.763 31.1407 169.618 28.9893 166.958 28.9893C164.299 28.9893 162.154 31.1407 162.154 33.8091Z" fill="#FF1700"/>
    <path d="M162.154 33.8091C162.154 36.4775 164.299 38.629 166.958 38.629C169.618 38.629 171.763 36.4775 171.763 33.8091C171.763 31.1407 169.618 28.9893 166.958 28.9893C164.299 28.9893 162.154 31.1407 162.154 33.8091Z" stroke="#170486" stroke-width="0.54" stroke-miterlimit="10"/>
    <path d="M168.114 33.0264C168.114 34.0602 168.949 34.8984 169.98 34.8984C171.01 34.8984 171.846 34.0602 171.846 33.0264C171.846 31.9925 171.01 31.1543 169.98 31.1543C168.949 31.1543 168.114 31.9925 168.114 33.0264Z" fill="#170486"/>
    <defs>
        <linearGradient id="paint0_linear_0_1" x1="254.423" y1="130.965" x2="175.773" y2="130.965" gradientUnits="userSpaceOnUse">
            <stop stop-color="#1598FF"/>
            <stop offset="0.99" stop-color="#170486"/>
            <stop offset="1" stop-color="#170486"/>
        </linearGradient>
        <linearGradient id="paint1_linear_0_1" x1="109.837" y1="69.0448" x2="122.094" y2="100.823" gradientUnits="userSpaceOnUse">
            <stop stop-color="#1598FF"/>
            <stop offset="0.99" stop-color="#170486"/>
            <stop offset="1" stop-color="#170486"/>
        </linearGradient>
        <linearGradient id="paint2_linear_0_1" x1="182.059" y1="30.8008" x2="135.841" y2="30.8008" gradientUnits="userSpaceOnUse">
            <stop stop-color="#1598FF"/>
            <stop offset="0.99" stop-color="#170486"/>
            <stop offset="1" stop-color="#170486"/>
        </linearGradient>
        <linearGradient id="paint3_linear_0_1" x1="175.605" y1="23.4477" x2="161.409" y2="47.9563" gradientUnits="userSpaceOnUse">
            <stop stop-color="#170486"/>
            <stop offset="0.01" stop-color="#170486"/>
            <stop offset="1" stop-color="#1598FF"/>
        </linearGradient>
        <linearGradient id="paint4_linear_0_1" x1="145.022" y1="40.7529" x2="137.572" y2="40.7529" gradientUnits="userSpaceOnUse">
            <stop stop-color="#170486"/>
            <stop offset="0.01" stop-color="#170486"/>
            <stop offset="1" stop-color="#1598FF"/>
        </linearGradient>
    </defs>
</svg>
