<svg width="353" height="267" viewBox="0 0 353 267" fill="none" xmlns="http://www.w3.org/2000/svg">
    <rect x="309" y="208" width="70" height="2" fill="#FF1700"/>
    <path d="M159.355 75.8984C159.355 75.8984 176.742 79.3804 183.799 100.001" stroke="#170486" stroke-width="0.54" stroke-miterlimit="10"/>
    <path d="M162.952 143.718L149.891 153.283L150.892 154.654L163.954 145.089L162.952 143.718Z" fill="#FF1700"/>
    <path d="M162.952 143.718L149.891 153.283L150.892 154.654L163.954 145.089L162.952 143.718Z" stroke="#170486" stroke-width="0.54" stroke-miterlimit="10"/>
    <path d="M185.886 119.704L184.835 108.664C184.835 108.664 184.258 105.929 181.51 107.441L159.679 141.072C159.679 141.072 156.982 145.216 160.917 148.664C160.917 148.664 164.242 151.229 167.244 146.609L185.886 119.704Z" fill="#FF1700"/>
    <path d="M185.886 119.704L184.835 108.664C184.835 108.664 184.258 105.929 181.51 107.441L159.679 141.072C159.679 141.072 156.982 145.216 160.917 148.664C160.917 148.664 164.242 151.229 167.244 146.609L185.886 119.704Z" stroke="#170486" stroke-width="0.54" stroke-miterlimit="10"/>
    <path d="M166.261 144.399C165.497 145.724 163.801 146.166 162.478 145.401C161.155 144.637 160.714 142.939 161.477 141.614C162.241 140.289 163.937 139.847 165.26 140.612C166.583 141.376 167.024 143.074 166.261 144.399Z" fill="#FF1700"/>
    <path d="M166.261 144.399C165.497 145.724 163.801 146.166 162.478 145.401C161.155 144.637 160.714 142.939 161.477 141.614C162.241 140.289 163.937 139.847 165.26 140.612C166.583 141.376 167.024 143.074 166.261 144.399Z" stroke="#170486" stroke-width="0.54" stroke-miterlimit="10"/>
    <path d="M158.136 154.353L142.157 166.838C140.563 168.077 138.273 167.789 137.035 166.209L136.254 165.207C135.016 163.61 135.304 161.317 136.882 160.077L152.861 147.593C154.455 146.353 156.745 146.642 157.983 148.222L158.764 149.224C160.002 150.82 159.714 153.113 158.136 154.353Z" fill="#FF1700"/>
    <path d="M136.877 160.075L152.848 147.603C154.44 146.36 156.725 146.643 157.967 148.237L158.749 149.241C159.991 150.835 159.708 153.124 158.116 154.367L142.132 166.849C140.54 168.092 138.255 167.809 137.013 166.215L136.231 165.211C134.99 163.617 135.272 161.328 136.864 160.085L136.877 160.075Z" stroke="#170486" stroke-width="0.54" stroke-miterlimit="10"/>
    <path d="M129.382 169.862C131.163 173.191 135.302 174.448 138.644 172.665C141.969 170.881 143.224 166.737 141.426 163.391C139.645 160.062 135.506 158.805 132.181 160.588C128.857 162.372 127.601 166.516 129.399 169.862" fill="#FF1700"/>
    <path d="M129.382 169.862C131.163 173.191 135.302 174.448 138.644 172.665C141.969 170.881 143.224 166.737 141.426 163.391C139.645 160.062 135.506 158.805 132.181 160.588C128.857 162.372 127.601 166.516 129.399 169.862H129.382Z" stroke="#170486" stroke-width="0.49" stroke-miterlimit="10"/>
    <path d="M131.673 168.62C132.775 170.676 135.337 171.457 137.406 170.353C139.458 169.249 140.239 166.684 139.136 164.612C138.034 162.557 135.472 161.775 133.403 162.879C131.35 163.983 130.57 166.548 131.673 168.62Z" fill="#FF1700"/>
    <path d="M131.673 168.62C132.775 170.676 135.337 171.457 137.406 170.353C139.458 169.249 140.239 166.684 139.136 164.612C138.034 162.557 135.472 161.775 133.403 162.879C131.35 163.983 130.57 166.548 131.673 168.62Z" stroke="#170486" stroke-width="0.49" stroke-miterlimit="10"/>
    <path d="M156.913 150.158C157.727 151.398 157.388 153.063 156.15 153.878C154.912 154.693 153.249 154.353 152.435 153.114C151.621 151.874 151.96 150.209 153.198 149.394C154.437 148.578 156.099 148.918 156.913 150.158Z" fill="#FF1700"/>
    <path d="M156.913 150.158C157.727 151.398 157.388 153.063 156.15 153.878C154.912 154.693 153.249 154.353 152.435 153.114C151.621 151.874 151.96 150.209 153.198 149.394C154.437 148.578 156.099 148.918 156.913 150.158Z" stroke="#170486" stroke-width="0.52" stroke-miterlimit="10"/>
    <mask id="mask0_3403_12629" style="mask-type:luminance" maskUnits="userSpaceOnUse" x="46" y="163" width="96" height="60">
        <path d="M137.133 165.767L80.2917 214.617C80.2917 214.617 74.7789 217.997 67.1287 216.757C59.4786 215.534 46.9771 210.048 46.9771 210.048C46.9771 210.048 44.1613 217.98 48.1475 218.897C52.1338 219.814 64.6861 225.335 76.6278 221.054L141.815 165.767L138.49 163.406L137.133 165.767Z" fill="white"/>
    </mask>
    <g mask="url(#mask0_3403_12629)">
        <path d="M141.832 163.423H44.1777V225.368H141.832V163.423Z" fill="url(#paint0_linear_3403_12629)"/>
    </g>
    <path d="M137.133 165.768L80.2917 214.617C80.2917 214.617 74.7789 217.997 67.1287 216.757C59.4786 215.535 46.9771 210.048 46.9771 210.048C46.9771 210.048 44.1613 217.98 48.1475 218.898C52.1338 219.815 64.6861 225.335 76.6278 221.038L141.815 165.751L138.49 163.39L137.133 165.751V165.768Z" stroke="#170486" stroke-width="0.54" stroke-miterlimit="10"/>
    <path d="M264.965 185.658L267.493 184.197C271.496 181.887 272.87 176.757 270.563 172.732L245.424 129.13C243.117 125.122 237.995 123.746 233.975 126.056L231.447 127.517C227.444 129.827 226.07 134.973 228.377 138.982L253.516 182.583C255.822 186.592 260.945 187.968 264.965 185.658Z" fill="#FF1700"/>
    <path d="M264.965 185.658L267.493 184.197C271.496 181.887 272.87 176.757 270.563 172.732L245.424 129.13C243.117 125.122 237.995 123.746 233.975 126.056L231.447 127.517C227.444 129.827 226.07 134.973 228.377 138.982L253.516 182.583C255.822 186.592 260.945 187.968 264.965 185.658Z" stroke="#170486" stroke-width="0.54" stroke-miterlimit="10"/>
    <path d="M312.392 202.728L313.24 200.995C314.597 198.261 313.461 194.932 310.73 193.59L262.912 169.997C260.164 168.638 256.857 169.776 255.5 172.511L254.652 174.243C253.295 176.978 254.431 180.307 257.162 181.649L304.98 205.242C307.728 206.6 311.035 205.462 312.392 202.728Z" fill="#FF1700"/>
    <path d="M312.392 202.728L313.24 200.995C314.598 198.261 313.461 194.932 310.73 193.59L262.912 169.997C260.164 168.638 256.857 169.776 255.5 172.511L254.652 174.243C253.295 176.978 254.431 180.307 257.162 181.649L304.98 205.242C307.728 206.6 311.035 205.462 312.392 202.728Z" stroke="#170486" stroke-width="0.54" stroke-miterlimit="10"/>
    <path d="M306.609 209.878C310.476 211.339 314.819 209.386 316.278 205.513C317.736 201.623 315.786 197.292 311.918 195.831C308.051 194.354 303.708 196.324 302.249 200.196C300.791 204.069 302.741 208.417 306.609 209.878Z" fill="#FF1700"/>
    <path d="M306.609 209.878C310.476 211.339 314.819 209.386 316.278 205.513C317.736 201.623 315.786 197.292 311.918 195.831C308.051 194.354 303.708 196.324 302.249 200.196C300.791 204.069 302.741 208.417 306.609 209.878Z" stroke="#170486" stroke-width="0.54" stroke-miterlimit="10"/>
    <path d="M307.625 207.212C310.017 208.129 312.697 206.906 313.613 204.511C314.529 202.116 313.307 199.432 310.916 198.515C308.524 197.598 305.844 198.821 304.928 201.216C304.012 203.611 305.233 206.294 307.625 207.212Z" fill="#FF1700"/>
    <path d="M307.625 207.212C310.017 208.129 312.697 206.906 313.613 204.511C314.529 202.116 313.307 199.432 310.916 198.515C308.524 197.598 305.844 198.821 304.928 201.216C304.012 203.611 305.233 206.294 307.625 207.212Z" stroke="#170486" stroke-width="0.54" stroke-miterlimit="10"/>
    <mask id="mask1_3403_12629" style="mask-type:luminance" maskUnits="userSpaceOnUse" x="159" y="94" width="96" height="95">
        <path d="M164.072 113.436C162.511 115.321 161.104 117.309 159.865 119.347C166.107 120.74 172.485 122.727 178.863 125.326C213.026 139.339 234.976 166.311 231.38 188.188C239.149 186.082 245.493 182.006 249.648 175.925C263.456 155.661 247.596 120.774 214.247 97.9964C212.178 96.5866 210.092 95.2448 207.988 94.0049C207.513 94.0049 207.055 94.0049 206.58 94.0049C190.364 94.0049 174.724 100.561 164.089 113.453" fill="white"/>
    </mask>
    <g mask="url(#mask1_3403_12629)">
        <path d="M173.188 59.2643L128.338 176.076L250.076 222.943L294.926 106.131L173.188 59.2643Z" fill="url(#paint1_linear_3403_12629)"/>
    </g>
    <path d="M214.23 98.0129C212.161 96.6031 210.075 95.2613 207.971 94.0214C191.246 93.6307 175.013 100.187 164.072 113.453C162.511 115.338 161.12 117.325 159.865 119.363C166.107 120.756 172.485 122.743 178.863 125.342C213.026 139.355 234.976 166.328 231.38 188.205C239.149 186.099 245.493 182.022 249.648 175.941C263.456 155.678 247.596 120.79 214.247 98.0129H214.23Z" stroke="#170486" stroke-width="0.54" stroke-miterlimit="10"/>
    <path d="M175.811 124.272C175.811 124.272 193.808 104.654 209.074 110.361C209.074 110.361 264.22 152.298 239.556 185.063" stroke="#170486" stroke-width="0.54" stroke-miterlimit="10"/>
    <path d="M171.434 133.751C171.434 133.751 188.142 115.509 202.289 120.775C202.289 120.775 252.617 158.499 231.227 188.172" stroke="#170486" stroke-width="0.54" stroke-miterlimit="10"/>
    <path d="M172.724 173.648L173.504 176.468C174.742 180.935 179.356 183.551 183.817 182.311L232.245 168.841C236.707 167.602 239.319 162.982 238.081 158.514L237.3 155.695C236.062 151.228 231.448 148.612 226.987 149.852L178.559 163.321C174.098 164.561 171.485 169.181 172.724 173.648Z" fill="#FF1700"/>
    <path d="M178.552 163.313L226.994 149.834C231.455 148.592 236.071 151.204 237.311 155.671L238.092 158.486C239.332 162.954 236.724 167.576 232.262 168.817L183.82 182.297C179.359 183.538 174.743 180.926 173.503 176.459L172.722 173.644C171.482 169.176 174.09 164.555 178.552 163.313Z" stroke="#170486" stroke-width="0.54" stroke-miterlimit="10"/>
    <path d="M211.872 208.043L213.314 206.77C215.604 204.748 215.824 201.249 213.806 198.956L186.055 167.483C184.036 165.19 180.542 164.969 178.252 166.99L176.81 168.264C174.52 170.285 174.3 173.784 176.318 176.077L204.069 207.551C206.088 209.844 209.582 210.065 211.872 208.043Z" fill="#FF1700"/>
    <path d="M211.872 208.043L213.314 206.77C215.604 204.748 215.824 201.249 213.806 198.956L186.055 167.483C184.036 165.19 180.542 164.969 178.252 166.99L176.81 168.264C174.52 170.285 174.3 173.784 176.318 176.077L204.069 207.551C206.088 209.844 209.582 210.065 211.872 208.043Z" stroke="#170486" stroke-width="0.49" stroke-miterlimit="10"/>
    <path d="M198.777 208.945C200.914 212.511 205.511 213.666 209.073 211.526C212.635 209.386 213.772 204.783 211.651 201.216C209.514 197.649 204.917 196.494 201.355 198.634C197.793 200.775 196.657 205.378 198.777 208.945Z" fill="#FF1700"/>
    <path d="M198.777 208.945C200.914 212.511 205.511 213.666 209.073 211.526C212.635 209.386 213.772 204.783 211.651 201.216C209.514 197.649 204.917 196.494 201.355 198.634C197.793 200.775 196.657 205.378 198.777 208.945Z" stroke="#170486" stroke-width="0.54" stroke-miterlimit="10"/>
    <path d="M201.237 207.485C202.56 209.693 205.409 210.406 207.598 209.081C209.803 207.756 210.515 204.903 209.192 202.712C207.869 200.504 205.019 199.79 202.814 201.115C200.609 202.44 199.897 205.293 201.22 207.485" fill="#FF1700"/>
    <path d="M201.237 207.485C202.56 209.693 205.409 210.406 207.598 209.081C209.803 207.756 210.515 204.903 209.192 202.712C207.869 200.504 205.019 199.79 202.814 201.115C200.609 202.44 199.897 205.293 201.22 207.485H201.237Z" stroke="#170486" stroke-width="0.54" stroke-miterlimit="10"/>
    <path d="M164.283 144.726L151.221 154.292L152.222 155.663L165.284 146.097L164.283 144.726Z" fill="#FF1700"/>
    <path d="M164.283 144.726L151.221 154.292L152.222 155.663L165.284 146.097L164.283 144.726Z" stroke="#170486" stroke-width="0.54" stroke-miterlimit="10"/>
    <path d="M187.208 120.706L186.157 109.666C186.157 109.666 185.58 106.931 182.832 108.443L161.001 142.074C161.001 142.074 158.304 146.218 162.239 149.666C162.239 149.666 165.564 152.231 168.567 147.611L187.208 120.706Z" fill="#FF1700"/>
    <path d="M187.208 120.706L186.157 109.666C186.157 109.666 185.58 106.931 182.832 108.443L161.001 142.074C161.001 142.074 158.304 146.218 162.239 149.666C162.239 149.666 165.564 152.231 168.567 147.611L187.208 120.706Z" stroke="#170486" stroke-width="0.54" stroke-miterlimit="10"/>
    <path d="M167.583 145.403C166.82 146.728 165.123 147.17 163.8 146.405C162.477 145.641 162.036 143.943 162.8 142.618C163.563 141.293 165.259 140.851 166.582 141.616C167.905 142.38 168.346 144.078 167.583 145.403Z" fill="#FF1700"/>
    <path d="M167.583 145.403C166.82 146.728 165.123 147.17 163.8 146.405C162.477 145.641 162.036 143.943 162.8 142.618C163.563 141.293 165.259 140.851 166.582 141.616C167.905 142.38 168.346 144.078 167.583 145.403Z" stroke="#170486" stroke-width="0.54" stroke-miterlimit="10"/>
    <path d="M159.441 155.372L143.462 167.856C141.867 169.096 139.578 168.807 138.339 167.228L137.559 166.226C136.321 164.629 136.609 162.336 138.187 161.096L154.165 148.612C155.76 147.372 158.05 147.661 159.288 149.24L160.068 150.242C161.307 151.839 161.018 154.132 159.441 155.372Z" fill="#FF1700"/>
    <path d="M138.182 161.081L154.153 148.609C155.745 147.366 158.03 147.649 159.272 149.243L160.054 150.248C161.296 151.842 161.013 154.13 159.421 155.373L143.45 167.845C141.859 169.088 139.573 168.805 138.332 167.211L137.549 166.207C136.308 164.613 136.591 162.324 138.182 161.081Z" stroke="#170486" stroke-width="0.54" stroke-miterlimit="10"/>
    <path d="M130.689 170.863C132.47 174.192 136.609 175.449 139.951 173.666C143.275 171.882 144.531 167.738 142.732 164.392C140.951 161.063 136.813 159.806 133.488 161.589C130.163 163.373 128.908 167.517 130.706 170.863" fill="#FF1700"/>
    <path d="M130.689 170.863C132.47 174.192 136.609 175.449 139.951 173.666C143.275 171.882 144.531 167.738 142.732 164.392C140.951 161.063 136.813 159.806 133.488 161.589C130.163 163.373 128.908 167.517 130.706 170.863H130.689Z" stroke="#170486" stroke-width="0.49" stroke-miterlimit="10"/>
    <path d="M132.979 169.624C134.082 171.68 136.643 172.461 138.713 171.357C140.765 170.253 141.545 167.688 140.443 165.616C139.34 163.561 136.779 162.779 134.709 163.883C132.657 164.987 131.877 167.552 132.979 169.624Z" fill="#FF1700"/>
    <path d="M132.979 169.624C134.082 171.68 136.643 172.461 138.713 171.357C140.765 170.253 141.545 167.688 140.443 165.616C139.34 163.561 136.779 162.779 134.709 163.883C132.657 164.987 131.877 167.552 132.979 169.624Z" stroke="#170486" stroke-width="0.49" stroke-miterlimit="10"/>
    <path d="M158.22 151.177C159.034 152.417 158.695 154.081 157.457 154.896C156.218 155.712 154.556 155.372 153.742 154.132C152.928 152.892 153.267 151.228 154.505 150.412C155.743 149.597 157.406 149.937 158.22 151.177Z" fill="#FF1700"/>
    <path d="M158.22 151.177C159.034 152.417 158.695 154.081 157.457 154.896C156.218 155.712 154.556 155.372 153.742 154.132C152.928 152.892 153.267 151.228 154.505 150.412C155.743 149.597 157.406 149.937 158.22 151.177Z" stroke="#170486" stroke-width="0.52" stroke-miterlimit="10"/>
    <path d="M35.9004 224.436V226.881C35.9004 227.646 37.7493 228.257 40.0393 228.257C42.3292 228.257 44.1781 227.646 44.1781 226.881V224.436H35.9004Z" fill="#FF1700"/>
    <path d="M35.9004 224.436V226.881C35.9004 227.646 37.7493 228.257 40.0393 228.257C42.3292 228.257 44.1781 227.646 44.1781 226.881V224.436H35.9004Z" stroke="#170486" stroke-width="0.54" stroke-miterlimit="10"/>
    <path d="M44.1781 224.282C44.1781 225.046 42.3292 225.658 40.0393 225.658C37.7493 225.658 35.9004 225.046 35.9004 224.282C35.9004 223.518 37.7493 222.906 40.0393 222.906C42.3292 222.906 44.1781 223.518 44.1781 224.282Z" fill="#FF1700"/>
    <path d="M44.1781 224.282C44.1781 225.046 42.3292 225.658 40.0393 225.658C37.7493 225.658 35.9004 225.046 35.9004 224.282C35.9004 223.518 37.7493 222.906 40.0393 222.906C42.3292 222.906 44.1781 223.518 44.1781 224.282Z" stroke="#170486" stroke-width="0.54" stroke-miterlimit="10"/>
    <mask id="mask2_3403_12629" style="mask-type:luminance" maskUnits="userSpaceOnUse" x="135" y="49" width="58" height="53">
        <path d="M135.744 75.2356C135.744 89.5542 148.347 101.155 163.885 101.155C179.423 101.155 192.026 89.5542 192.026 75.2356C192.026 60.917 179.44 49.333 163.885 49.333C148.33 49.333 135.744 60.934 135.744 75.2356Z" fill="white"/>
    </mask>
    <g mask="url(#mask2_3403_12629)">
        <path d="M192.043 49.333H135.744V101.155H192.043V49.333Z" fill="url(#paint2_linear_3403_12629)"/>
    </g>
    <path d="M192.044 75.2356C192.044 89.5542 179.44 101.155 163.903 101.155C148.365 101.155 135.762 89.5542 135.762 75.2356C135.762 60.917 148.348 49.333 163.886 49.333C179.423 49.333 192.027 60.934 192.027 75.2356H192.044Z" stroke="#170486" stroke-width="0.54" stroke-miterlimit="10"/>
    <mask id="mask3_3403_12629" style="mask-type:luminance" maskUnits="userSpaceOnUse" x="135" y="59" width="33" height="37">
        <path d="M135.762 77.6145C135.762 87.3641 142.869 95.2622 151.639 95.2622C160.408 95.2622 167.516 87.3641 167.516 77.6145C167.516 67.865 160.408 59.9668 151.639 59.9668C142.869 59.9668 135.762 67.865 135.762 77.6145Z" fill="white"/>
    </mask>
    <g mask="url(#mask3_3403_12629)">
        <path d="M159.594 46.1901L120.504 68.7891L143.709 109.035L182.799 86.4359L159.594 46.1901Z" fill="url(#paint3_linear_3403_12629)"/>
    </g>
    <path d="M167.516 77.6145C167.516 87.3641 160.408 95.2622 151.639 95.2622C142.869 95.2622 135.762 87.3641 135.762 77.6145C135.762 67.865 142.869 59.9668 151.639 59.9668C160.408 59.9668 167.516 67.865 167.516 77.6145Z" stroke="#170486" stroke-width="0.54" stroke-miterlimit="10"/>
    <path d="M162.088 77.5799C162.088 85.5799 156.626 92.0513 149.891 92.0513C143.157 92.0513 137.695 85.563 137.695 77.5799C137.695 69.5968 143.157 63.1084 149.891 63.1084C156.626 63.1084 162.088 69.5968 162.088 77.5799Z" fill="#170486"/>
    <path d="M162.088 77.5799C162.088 85.5799 156.626 92.0513 149.891 92.0513C143.157 92.0513 137.695 85.563 137.695 77.5799C137.695 69.5968 143.157 63.1084 149.891 63.1084C156.626 63.1084 162.088 69.5968 162.088 77.5799Z" stroke="#170486" stroke-width="0.54" stroke-miterlimit="10"/>
    <mask id="mask4_3403_12629" style="mask-type:luminance" maskUnits="userSpaceOnUse" x="177" y="78" width="11" height="10">
        <path d="M177.963 83.4232C177.963 85.937 179.998 87.9752 182.509 87.9752C185.019 87.9752 187.055 85.937 187.055 83.4232C187.055 80.9093 185.019 78.8711 182.509 78.8711C179.998 78.8711 177.963 80.9093 177.963 83.4232Z" fill="white"/>
    </mask>
    <g mask="url(#mask4_3403_12629)">
        <path d="M187.038 78.8711H177.963V87.9582H187.038V78.8711Z" fill="url(#paint4_linear_3403_12629)"/>
    </g>
    <path d="M187.037 83.4232C187.037 85.937 185.002 87.9752 182.491 87.9752C179.981 87.9752 177.945 85.937 177.945 83.4232C177.945 80.9093 179.981 78.8711 182.491 78.8711C185.002 78.8711 187.037 80.9093 187.037 83.4232Z" stroke="#170486" stroke-width="0.54" stroke-miterlimit="10"/>
    <path d="M186.14 84.3233C186.14 85.3254 185.326 86.1407 184.325 86.1407C183.324 86.1407 182.51 85.3254 182.51 84.3233C182.51 83.3212 183.324 82.5059 184.325 82.5059C185.326 82.5059 186.14 83.3212 186.14 84.3233Z" fill="#170486"/>
    <path d="M164.8 77.5799C164.8 85.5799 159.338 92.0513 152.604 92.0513C145.87 92.0513 140.408 85.563 140.408 77.5799C140.408 69.5968 145.87 63.1084 152.604 63.1084C159.338 63.1084 164.8 69.5968 164.8 77.5799Z" fill="#FF1700"/>
    <path d="M164.8 77.5799C164.8 85.5799 159.338 92.0513 152.604 92.0513C145.87 92.0513 140.408 85.563 140.408 77.5799C140.408 69.5968 145.87 63.1084 152.604 63.1084C159.338 63.1084 164.8 69.5968 164.8 77.5799Z" stroke="#170486" stroke-width="0.54" stroke-miterlimit="10"/>
    <path d="M158.423 77.1041C158.423 80.3483 155.811 82.964 152.571 82.964C149.331 82.964 146.719 80.3483 146.719 77.1041C146.719 73.8599 149.331 71.2441 152.571 71.2441C155.811 71.2441 158.423 73.8599 158.423 77.1041Z" fill="#FF1700"/>
    <path d="M158.423 77.1041C158.423 80.3483 155.811 82.964 152.571 82.964C149.331 82.964 146.719 80.3483 146.719 77.1041C146.719 73.8599 149.331 71.2441 152.571 71.2441C155.811 71.2441 158.423 73.8599 158.423 77.1041Z" stroke="#170486" stroke-width="0.54" stroke-miterlimit="10"/>
    <path d="M151.163 76.153C151.163 77.4099 150.145 78.429 148.89 78.429C147.635 78.429 146.617 77.4099 146.617 76.153C146.617 74.8961 147.635 73.877 148.89 73.877C150.145 73.877 151.163 74.8961 151.163 76.153Z" fill="#170486"/>
    <defs>
        <linearGradient id="paint0_linear_3403_12629" x1="46.026" y1="195.226" x2="141.831" y2="195.226" gradientUnits="userSpaceOnUse">
            <stop stop-color="#1598FF"/>
            <stop offset="0.99" stop-color="#170486"/>
            <stop offset="1" stop-color="#170486"/>
        </linearGradient>
        <linearGradient id="paint1_linear_3403_12629" x1="222.153" y1="119.943" x2="207.272" y2="158.598" gradientUnits="userSpaceOnUse">
            <stop stop-color="#1598FF"/>
            <stop offset="0.99" stop-color="#170486"/>
            <stop offset="1" stop-color="#170486"/>
        </linearGradient>
        <linearGradient id="paint2_linear_3403_12629" x1="134.177" y1="73.447" x2="190.476" y2="73.447" gradientUnits="userSpaceOnUse">
            <stop stop-color="#1598FF"/>
            <stop offset="0.99" stop-color="#170486"/>
            <stop offset="1" stop-color="#170486"/>
        </linearGradient>
        <linearGradient id="paint3_linear_3403_12629" x1="142.04" y1="64.507" x2="159.283" y2="94.333" gradientUnits="userSpaceOnUse">
            <stop stop-color="#170486"/>
            <stop offset="0.01" stop-color="#170486"/>
            <stop offset="1" stop-color="#1598FF"/>
        </linearGradient>
        <linearGradient id="paint4_linear_3403_12629" x1="179.291" y1="85.5472" x2="188.366" y2="85.5472" gradientUnits="userSpaceOnUse">
            <stop stop-color="#170486"/>
            <stop offset="0.01" stop-color="#170486"/>
            <stop offset="1" stop-color="#1598FF"/>
        </linearGradient>
    </defs>
</svg>
