<svg width="375" height="191" viewBox="0 0 375 191" fill="none" xmlns="http://www.w3.org/2000/svg">
    <rect x="-57" y="189" width="159" height="2" fill="#FF1700"/>
    <path d="M278.581 67.5954C278.581 67.5954 259.625 66.0657 246.291 85.2406" stroke="#170486" stroke-width="0.54" stroke-miterlimit="10"/>
    <path d="M145.4 151.504L143.562 148.973C140.633 144.967 141.525 139.34 145.527 136.408L189.096 104.632C193.116 101.701 198.719 102.593 201.648 106.599L203.485 109.13C206.414 113.136 205.522 118.763 201.52 121.695L157.952 153.471C153.95 156.403 148.328 155.51 145.4 151.504Z" fill="#FF1700"/>
    <path d="M145.4 151.504L143.562 148.973C140.633 144.967 141.525 139.34 145.527 136.408L189.096 104.632C193.116 101.701 198.719 102.593 201.648 106.599L203.485 109.13C206.414 113.136 205.522 118.763 201.52 121.695L157.952 153.471C153.95 156.403 148.328 155.51 145.4 151.504Z" stroke="#170486" stroke-width="0.54" stroke-miterlimit="10"/>
    <path d="M99.5744 182.972L98.4101 181.261C96.5546 178.566 97.2277 174.869 99.9382 173.012L147.036 140.58C149.728 138.723 153.421 139.397 155.277 142.11L156.441 143.821C158.297 146.517 157.623 150.213 154.913 152.07L107.815 184.502C105.123 186.359 101.43 185.686 99.5744 182.972Z" fill="#FF1700"/>
    <path d="M99.5744 182.972L98.4101 181.261C96.5546 178.566 97.2277 174.869 99.9382 173.012L147.036 140.58C149.728 138.723 153.421 139.397 155.277 142.11L156.441 143.821C158.297 146.517 157.623 150.213 154.913 152.07L107.815 184.502C105.123 186.359 101.43 185.686 99.5744 182.972Z" stroke="#170486" stroke-width="0.54" stroke-miterlimit="10"/>
    <path d="M106.816 189.673C102.923 191.84 98.0298 190.42 95.8832 186.541C93.7366 182.644 95.1373 177.746 99.0121 175.597C102.887 173.448 107.799 174.85 109.945 178.729C112.092 182.626 110.691 187.524 106.816 189.673Z" fill="#FF1700"/>
    <path d="M106.816 189.673C102.923 191.84 98.0298 190.42 95.8832 186.541C93.7366 182.644 95.1373 177.746 99.0121 175.597C102.887 173.448 107.799 174.85 109.945 178.729C112.092 182.626 110.691 187.524 106.816 189.673Z" stroke="#170486" stroke-width="0.54" stroke-miterlimit="10"/>
    <path d="M105.323 186.996C102.922 188.325 99.8841 187.47 98.5562 185.048C97.2282 182.644 98.0832 179.603 100.503 178.274C102.904 176.944 105.942 177.8 107.27 180.222C108.598 182.626 107.743 185.667 105.323 186.996Z" fill="#FF1700"/>
    <path d="M105.323 186.996C102.922 188.325 99.8841 187.47 98.5562 185.048C97.2282 182.644 98.0832 179.603 100.503 178.274C102.904 176.944 105.942 177.8 107.27 180.222C108.598 182.626 107.743 185.667 105.323 186.996Z" stroke="#170486" stroke-width="0.54" stroke-miterlimit="10"/>
    <path d="M220.432 51.4795L203.178 53.3467L203.373 55.1571L220.627 53.29L220.432 51.4795Z" fill="#FF1700"/>
    <path d="M220.432 51.4795L203.178 53.3467L203.373 55.1571L220.627 53.29L220.432 51.4795Z" stroke="#170486" stroke-width="0.54" stroke-miterlimit="10"/>
    <path d="M234.848 80.0866L246.673 81.2156C246.673 81.2156 249.656 81.161 248.637 77.956L217.73 48.0921C217.73 48.0921 213.91 44.4137 209.507 47.8553C209.507 47.8553 206.124 50.8417 210.381 54.9389L234.866 80.0502L234.848 80.0866Z" fill="#FF1700"/>
    <path d="M234.848 80.0866L246.673 81.2156C246.673 81.2156 249.656 81.161 248.637 77.956L217.73 48.0921C217.73 48.0921 213.91 44.4137 209.507 47.8553C209.507 47.8553 206.124 50.8417 210.381 54.9389L234.866 80.0502L234.848 80.0866Z" stroke="#170486" stroke-width="0.54" stroke-miterlimit="10"/>
    <path d="M212.872 54.3733C211.635 53.2989 211.507 51.4233 212.599 50.1851C213.672 48.9468 215.546 48.8193 216.783 49.9119C218.02 50.9863 218.147 52.8619 217.056 54.1002C215.982 55.3384 214.109 55.4659 212.872 54.3733Z" fill="#FF1700"/>
    <path d="M212.872 54.3733C211.635 53.2989 211.507 51.4233 212.599 50.1851C213.672 48.9468 215.546 48.8193 216.783 49.9119C218.02 50.9863 218.147 52.8619 217.056 54.1002C215.982 55.3384 214.109 55.4659 212.872 54.3733Z" stroke="#170486" stroke-width="0.54" stroke-miterlimit="10"/>
    <path d="M201.193 50.5857L181.128 58.9439C179.127 59.7816 178.181 62.076 179.018 64.0791L179.545 65.3356C180.382 67.3386 182.674 68.2855 184.657 67.4479L204.704 59.0896C206.705 58.252 207.651 55.9575 206.814 53.9727L206.287 52.7162C205.45 50.7131 203.158 49.7662 201.175 50.6039" fill="#FF1700"/>
    <path d="M201.193 50.5857L181.128 58.9439C179.127 59.7816 178.181 62.076 179.018 64.0791L179.545 65.3356C180.382 67.3386 182.674 68.2855 184.657 67.4479L204.704 59.0896C206.705 58.252 207.651 55.9575 206.814 53.9727L206.287 52.7162C205.45 50.7131 203.158 49.7662 201.175 50.6039L201.193 50.5857Z" stroke="#170486" stroke-width="0.54" stroke-miterlimit="10"/>
    <path d="M171.594 69.288C169.429 65.8646 170.448 61.3304 173.868 59.1634C177.288 56.9965 181.818 58.0162 183.982 61.4396C186.147 64.8631 185.128 69.3973 181.708 71.5643C178.288 73.7312 173.759 72.7115 171.594 69.288Z" fill="#FF1700"/>
    <path d="M171.594 69.288C169.429 65.8646 170.448 61.3304 173.868 59.1634C177.288 56.9965 181.818 58.0162 183.982 61.4396C186.147 64.8631 185.128 69.3973 181.708 71.5643C178.288 73.7312 173.759 72.7115 171.594 69.288Z" stroke="#170486" stroke-width="0.49" stroke-miterlimit="10"/>
    <path d="M173.941 67.7949C172.595 65.6826 173.232 62.8783 175.342 61.5307C177.452 60.1832 180.254 60.8206 181.6 62.9329C182.946 65.0452 182.309 67.8495 180.199 69.197C178.089 70.5446 175.287 69.9072 173.941 67.7949Z" fill="#FF1700"/>
    <path d="M173.941 67.7949C172.595 65.6826 173.232 62.8783 175.342 61.5307C177.452 60.1832 180.254 60.8206 181.6 62.9329C182.946 65.0452 182.309 67.8495 180.199 69.197C178.089 70.5446 175.287 69.9072 173.941 67.7949Z" stroke="#170486" stroke-width="0.49" stroke-miterlimit="10"/>
    <path d="M204.467 53.9379C203.739 52.5175 202.011 51.9712 200.592 52.6814C199.173 53.4098 198.627 55.1397 199.355 56.5601C200.083 57.9804 201.811 58.5267 203.23 57.8165C204.649 57.0881 205.195 55.3582 204.485 53.9379" fill="#FF1700"/>
    <path d="M204.467 53.9379C203.739 52.5175 202.011 51.9712 200.592 52.6814C199.173 53.4098 198.627 55.1397 199.355 56.5601C200.083 57.9804 201.811 58.5267 203.23 57.8165C204.649 57.0881 205.195 55.3582 204.485 53.9379H204.467Z" stroke="#170486" stroke-width="0.52" stroke-miterlimit="10"/>
    <mask id="mask0_3403_12726" style="mask-type:luminance" maskUnits="userSpaceOnUse" x="163" y="62" width="112" height="92">
        <path d="M224.515 65.1183C183.475 78.8849 156.952 110.26 165.302 135.189C167.812 142.674 173.179 148.737 180.583 153.181C183.221 129.563 213.728 108.13 253.076 103.632C260.407 102.794 267.556 102.612 274.415 102.995C273.723 100.518 272.85 98.0779 271.795 95.6743C264.355 78.7938 249.51 67.2853 232.138 62.8057C229.609 63.4794 227.062 64.2442 224.515 65.1001" fill="white"/>
    </mask>
    <g mask="url(#mask0_3403_12726)">
        <path d="M273.424 52.0548L148.705 63.5703L157.952 163.917L282.671 152.402L273.424 52.0548Z" fill="url(#paint0_linear_3403_12726)"/>
    </g>
    <path d="M224.514 65.1177C227.061 64.2618 229.608 63.497 232.136 62.8232C249.509 67.3028 264.353 78.7932 271.794 95.6736C272.849 98.0773 273.722 100.536 274.413 102.994C267.555 102.612 260.406 102.794 253.075 103.631C213.726 108.111 183.219 129.544 180.582 153.162C173.178 148.719 167.811 142.673 165.301 135.171C156.951 110.241 183.456 78.866 224.514 65.0995V65.1177Z" stroke="#170486" stroke-width="0.54" stroke-miterlimit="10"/>
    <path d="M256.513 103.431C256.513 103.431 243.652 77.9375 226.225 79.3761C226.225 79.3761 157.115 106.545 173.014 147.572" stroke="#170486" stroke-width="0.54" stroke-miterlimit="10"/>
    <path d="M258.26 114.467C258.26 114.467 246.326 90.7757 230.19 92.0686C230.19 92.0686 167.284 116.306 180.709 153.162" stroke="#170486" stroke-width="0.54" stroke-miterlimit="10"/>
    <path d="M235.539 154.837L233.611 157.314C230.573 161.247 224.933 161.957 221.004 158.916L178.381 125.865C174.452 122.824 173.742 117.179 176.78 113.246L178.69 110.769C181.728 106.836 187.368 106.126 191.297 109.167L233.92 142.218C237.849 145.259 238.559 150.904 235.521 154.837" fill="#FF1700"/>
    <path d="M235.539 154.837L233.611 157.314C230.573 161.247 224.933 161.957 221.004 158.916L178.381 125.865C174.452 122.824 173.742 117.179 176.78 113.246L178.69 110.769C181.728 106.836 187.368 106.126 191.297 109.167L233.92 142.218C237.849 145.259 238.559 150.904 235.521 154.837H235.539Z" stroke="#170486" stroke-width="0.54" stroke-miterlimit="10"/>
    <path d="M168.376 170.953L167.721 168.987C166.684 165.873 168.358 162.504 171.451 161.466L225.643 143.293C228.754 142.255 232.119 143.93 233.156 147.026L233.811 148.993C234.848 152.106 233.174 155.457 230.082 156.513L175.889 174.705C172.779 175.743 169.431 174.067 168.376 170.953Z" fill="#FF1700"/>
    <path d="M171.475 161.449L225.672 143.276C228.777 142.235 232.139 143.911 233.18 147.019L233.838 148.988C234.878 152.096 233.204 155.461 230.099 156.502L175.901 174.676C172.796 175.717 169.434 174.04 168.394 170.932L167.735 168.964C166.695 165.856 168.37 162.49 171.475 161.449Z" stroke="#170486" stroke-width="0.54" stroke-miterlimit="10"/>
    <path d="M180.053 178.82C176.16 180.987 171.266 179.566 169.119 175.688C166.973 171.791 168.374 166.892 172.248 164.744C176.123 162.595 181.035 163.997 183.182 167.876C185.328 171.773 183.927 176.671 180.053 178.82Z" fill="#FF1700"/>
    <path d="M180.053 178.82C176.16 180.987 171.266 179.566 169.119 175.688C166.973 171.791 168.374 166.892 172.248 164.744C176.123 162.595 181.035 163.997 183.182 167.876C185.328 171.773 183.927 176.671 180.053 178.82Z" stroke="#170486" stroke-width="0.54" stroke-miterlimit="10"/>
    <path d="M178.564 176.143C176.162 177.472 173.124 176.616 171.796 174.194C170.468 171.79 171.323 168.749 173.743 167.42C176.144 166.091 179.182 166.947 180.51 169.369C181.838 171.772 180.983 174.813 178.564 176.143Z" fill="#FF1700"/>
    <path d="M178.564 176.143C176.162 177.472 173.124 176.616 171.796 174.194C170.468 171.79 171.323 168.749 173.743 167.42C176.144 166.091 179.182 166.947 180.51 169.369C181.838 171.772 180.983 174.813 178.564 176.143Z" stroke="#170486" stroke-width="0.54" stroke-miterlimit="10"/>
    <path d="M280.767 111.688L266.744 121.924L267.816 123.395L281.838 113.16L280.767 111.688Z" fill="#FF1700"/>
    <path d="M280.767 111.688L266.744 121.924L267.816 123.395L281.838 113.16L280.767 111.688Z" stroke="#170486" stroke-width="0.54" stroke-miterlimit="10"/>
    <path d="M242.324 94.9825L243.452 83.1462C243.452 83.1462 244.071 80.2144 247.018 81.8351L270.43 117.89C270.43 117.89 273.323 122.334 269.102 126.03C269.102 126.03 265.537 128.78 262.317 123.827L242.324 94.9825Z" fill="#FF1700"/>
    <path d="M242.324 94.9825L243.452 83.1462C243.452 83.1462 244.071 80.2144 247.018 81.8351L270.43 117.89C270.43 117.89 273.323 122.334 269.102 126.03C269.102 126.03 265.537 128.78 262.317 123.827L242.324 94.9825Z" stroke="#170486" stroke-width="0.54" stroke-miterlimit="10"/>
    <path d="M263.372 121.46C264.19 122.88 266.009 123.354 267.428 122.534C268.847 121.715 269.32 119.894 268.502 118.474C267.683 117.053 265.864 116.58 264.445 117.399C263.026 118.219 262.553 120.04 263.372 121.46Z" fill="#FF1700"/>
    <path d="M263.372 121.46C264.19 122.88 266.009 123.354 267.428 122.534C268.847 121.715 269.32 119.894 268.502 118.474C267.683 117.053 265.864 116.58 264.445 117.399C263.026 118.219 262.553 120.04 263.372 121.46Z" stroke="#170486" stroke-width="0.54" stroke-miterlimit="10"/>
    <mask id="mask1_3403_12726" style="mask-type:luminance" maskUnits="userSpaceOnUse" x="238" y="50" width="65" height="50">
        <path d="M247.327 56.122C244.143 57.3785 241.105 58.817 238.268 60.3831C254.713 61.7852 269.357 71.491 275.451 86.9147C276.943 90.6841 277.798 94.5628 278.125 98.4414C280.053 98.7874 281.891 99.2427 283.601 99.8254C298.154 89.5915 305.813 75.7521 301.501 64.808C297.917 55.7578 287.003 50.8594 273.359 50.8594C265.318 50.8594 256.332 52.5529 247.345 56.122" fill="white"/>
    </mask>
    <g mask="url(#mask1_3403_12726)">
        <path d="M243.497 32.7681L225.184 96.0303L300.578 117.899L318.891 54.6371L243.497 32.7681Z" fill="url(#paint1_linear_3403_12726)"/>
    </g>
    <path d="M278.125 98.4415C277.798 94.5628 276.943 90.6841 275.451 86.9147C269.357 71.491 254.713 61.7852 238.268 60.3831C241.105 58.817 244.143 57.3785 247.327 56.122C271.558 46.5255 295.807 50.4224 301.501 64.8081C305.813 75.7521 298.154 89.5915 283.601 99.8254C281.873 99.2427 280.053 98.7874 278.125 98.4415Z" stroke="#170486" stroke-width="0.54" stroke-miterlimit="10"/>
    <path d="M276.723 91.1024C284.472 84.8201 286.292 74.1856 280.761 67.3751C275.249 60.5647 264.498 60.1459 256.73 66.4282" stroke="#170486" stroke-width="0.54" stroke-miterlimit="10"/>
    <path d="M292.861 81.07C292.788 84.0382 290.314 86.3872 287.331 86.3144C284.365 86.2416 282.019 83.765 282.091 80.7968C282.164 77.8287 284.638 75.4796 287.604 75.5524C290.569 75.6253 292.915 78.1018 292.843 81.07" fill="#FF1700"/>
    <path d="M292.861 81.07C292.788 84.0382 290.314 86.3872 287.331 86.3144C284.365 86.2416 282.019 83.765 282.091 80.7968C282.164 77.8287 284.638 75.4796 287.604 75.5524C290.569 75.6253 292.915 78.1018 292.843 81.07H292.861Z" stroke="#170486" stroke-width="0.54" stroke-miterlimit="10"/>
    <path d="M290.368 81.0152C290.332 82.6176 289.004 83.8741 287.403 83.8195C285.802 83.7831 284.547 82.4537 284.601 80.8695C284.638 79.267 285.966 78.0106 287.567 78.0652C289.149 78.1016 290.423 79.4309 290.368 81.0334" fill="#170486"/>
    <mask id="mask2_3403_12726" style="mask-type:luminance" maskUnits="userSpaceOnUse" x="288" y="67" width="10" height="11">
        <path d="M288.002 72.7301L293.277 77.7014L297.734 72.1656L291.276 67.5039L288.002 72.7301Z" fill="white"/>
    </mask>
    <g mask="url(#mask2_3403_12726)">
        <path d="M291.148 70.9648C291.148 70.9648 295.969 71.8025 296.642 76.9194" stroke="#170486" stroke-width="0.49" stroke-linecap="round" stroke-linejoin="round"/>
    </g>
    <path d="M279.162 120.457L297.117 108.202C298.9 106.982 299.373 104.542 298.154 102.757L297.39 101.628C296.171 99.8438 293.733 99.3703 291.951 100.59L273.996 112.846C272.213 114.066 271.758 116.506 272.959 118.29L273.723 119.419C274.942 121.204 277.379 121.677 279.162 120.457Z" fill="#FF1700"/>
    <path d="M273.983 112.857L291.929 100.608C293.717 99.3867 296.144 99.8461 297.364 101.636L298.132 102.765C299.352 104.555 298.893 106.984 297.104 108.205L279.159 120.454C277.37 121.675 274.944 121.216 273.724 119.426L272.955 118.297C271.736 116.507 272.195 114.078 273.983 112.857Z" stroke="#170486" stroke-width="0.54" stroke-miterlimit="10"/>
    <path d="M304.356 96.1476C307.176 99.0611 307.085 103.705 304.174 106.527C301.264 109.35 296.625 109.259 293.805 106.345C290.986 103.431 291.077 98.788 293.987 95.9655C296.898 93.143 301.537 93.234 304.356 96.1476Z" fill="#FF1700"/>
    <path d="M304.356 96.1476C307.176 99.0611 307.085 103.705 304.174 106.527C301.264 109.35 296.625 109.259 293.805 106.345C290.986 103.431 291.077 98.788 293.987 95.9655C296.898 93.143 301.537 93.234 304.356 96.1476Z" stroke="#170486" stroke-width="0.49" stroke-miterlimit="10"/>
    <path d="M302.356 98.0783C304.102 99.8811 304.048 102.758 302.247 104.506C300.446 106.255 297.572 106.2 295.825 104.397C294.079 102.594 294.133 99.7172 295.934 97.9691C297.735 96.2209 300.61 96.2756 302.356 98.0783Z" fill="#FF1700"/>
    <path d="M302.356 98.0783C304.102 99.8811 304.048 102.758 302.247 104.506C300.446 106.255 297.572 106.2 295.825 104.397C294.079 102.594 294.133 99.7172 295.934 97.9691C297.735 96.2209 300.61 96.2756 302.356 98.0783Z" stroke="#170486" stroke-width="0.49" stroke-miterlimit="10"/>
    <path d="M275.269 117.854C276.269 119.092 278.07 119.292 279.307 118.291C280.544 117.289 280.744 115.487 279.744 114.248C278.743 113.01 276.942 112.81 275.705 113.811C274.468 114.813 274.268 116.616 275.269 117.854Z" fill="#FF1700"/>
    <path d="M275.269 117.854C276.269 119.092 278.07 119.292 279.307 118.291C280.544 117.289 280.744 115.487 279.744 114.248C278.743 113.01 276.942 112.81 275.705 113.811C274.468 114.813 274.268 116.616 275.269 117.854Z" stroke="#170486" stroke-width="0.52" stroke-miterlimit="10"/>
    <mask id="mask3_3403_12726" style="mask-type:luminance" maskUnits="userSpaceOnUse" x="282" y="89" width="9" height="11">
        <path d="M282.018 92.8511L285.674 99.9529L290.968 96.7662L288.512 89.9375L282.018 92.8511Z" fill="white"/>
    </mask>
    <g mask="url(#mask3_3403_12726)">
        <path d="M287.367 96.9119C287.367 96.9119 283.438 93.9802 285.166 89.1182" stroke="#170486" stroke-width="0.49" stroke-linecap="round" stroke-linejoin="round"/>
    </g>
    <defs>
        <linearGradient id="paint0_linear_3403_12726" x1="210.02" y1="84.3718" x2="214.104" y2="128.597" gradientUnits="userSpaceOnUse">
            <stop stop-color="#1598FF"/>
            <stop offset="0.99" stop-color="#170486"/>
            <stop offset="1" stop-color="#170486"/>
        </linearGradient>
        <linearGradient id="paint1_linear_3403_12726" x1="280.171" y1="48.6574" x2="270.077" y2="83.4575" gradientUnits="userSpaceOnUse">
            <stop stop-color="#170486"/>
            <stop offset="0.01" stop-color="#170486"/>
            <stop offset="1" stop-color="#1598FF"/>
        </linearGradient>
    </defs>
</svg>
