<svg width="188" height="138" viewBox="0 0 188 138" fill="none" xmlns="http://www.w3.org/2000/svg">
    <path d="M104.793 29.6094C104.793 29.6094 113.808 35.1091 113.533 48.0364" stroke="#170486" stroke-width="0.54" stroke-miterlimit="10"/>
    <path d="M140.131 111.577C143.564 110.582 145.53 107.01 144.532 103.591L136.973 77.7361C135.975 74.3165 132.389 72.3581 128.956 73.3525C125.523 74.3469 123.557 77.9187 124.555 81.3383L132.104 107.193C133.102 110.613 136.688 112.571 140.121 111.577" fill="#FF1700"/>
    <path d="M140.131 111.577C143.564 110.582 145.53 107.01 144.532 103.591L136.973 77.7361C135.975 74.3165 132.389 72.3581 128.956 73.3525C125.523 74.3469 123.557 77.9187 124.555 81.3383L132.104 107.193C133.102 110.613 136.688 112.571 140.121 111.577H140.131Z" stroke="#170486" stroke-width="0.54" stroke-miterlimit="10"/>
    <path d="M89.5969 49.1233L93.5356 57.9062L92.6055 58.3201L88.6668 49.5371L89.5969 49.1233Z" fill="#FF1700"/>
    <path d="M89.5969 49.1233L93.5356 57.9062L92.6055 58.3201L88.6668 49.5371L89.5969 49.1233Z" stroke="#170486" stroke-width="0.54" stroke-miterlimit="10"/>
    <path d="M112.851 54.0636L116.212 48.4015C116.212 48.4015 116.895 46.8896 115.041 46.6562L92.7212 55.1392C92.7212 55.1392 89.9707 56.1843 90.6533 59.2082C90.6533 59.2082 91.3562 61.6029 94.4224 60.436L112.84 54.0636H112.851Z" fill="#FF1700"/>
    <path d="M112.851 54.0636L116.212 48.4015C116.212 48.4015 116.895 46.8896 115.041 46.6562L92.7212 55.1392C92.7212 55.1392 89.9707 56.1843 90.6533 59.2082C90.6533 59.2082 91.3562 61.6029 94.4224 60.436L112.84 54.0636H112.851Z" stroke="#170486" stroke-width="0.54" stroke-miterlimit="10"/>
    <path d="M94.728 59.0362C93.8927 59.4015 92.9148 59.026 92.548 58.194C92.1813 57.3619 92.5582 56.3878 93.3936 56.0225C94.2289 55.6572 95.1966 56.0327 95.5634 56.8647C95.9301 57.6968 95.5532 58.6709 94.7179 59.0362" fill="#FF1700"/>
    <path d="M94.728 59.0362C93.8927 59.4015 92.9148 59.026 92.548 58.194C92.1813 57.3619 92.5582 56.3878 93.3936 56.0225C94.2289 55.6572 95.1966 56.0327 95.5634 56.8647C95.9301 57.6968 95.5532 58.6709 94.7179 59.0362H94.728Z" stroke="#170486" stroke-width="0.54" stroke-miterlimit="10"/>
    <path d="M87.8926 52.8959L82.6973 42.8807C82.0453 41.6326 82.5445 40.0903 83.7975 39.451C85.0504 38.8118 86.5887 39.2988 87.2406 40.5469L92.436 50.5621C93.0879 51.8101 92.5888 53.3423 91.3358 53.9918C90.0828 54.6412 88.5344 54.144 87.8926 52.8959Z" fill="#FF1700"/>
    <path d="M87.8926 52.8959L82.6973 42.8807C82.0453 41.6326 82.5445 40.0903 83.7975 39.451C85.0504 38.8118 86.5887 39.2988 87.2406 40.5469L92.436 50.5621C93.0879 51.8101 92.5888 53.3423 91.3358 53.9918C90.0828 54.6412 88.5344 54.144 87.8926 52.8959Z" stroke="#170486" stroke-width="0.54" stroke-miterlimit="10"/>
    <path d="M90.653 52.977C89.8381 53.322 88.9009 52.9364 88.5647 52.1246C88.2183 51.3129 88.6054 50.3793 89.4204 50.0445C90.2354 49.6995 91.1726 50.0851 91.5087 50.8968C91.8551 51.7086 91.468 52.6421 90.653 52.977Z" fill="#FF1700"/>
    <path d="M90.653 52.977C89.8381 53.322 88.9009 52.9364 88.5647 52.1246C88.2183 51.3129 88.6054 50.3793 89.4204 50.0445C90.2354 49.6995 91.1726 50.0851 91.5087 50.8968C91.8551 51.7086 91.468 52.6421 90.653 52.977Z" stroke="#170486" stroke-width="0.52" stroke-miterlimit="10"/>
    <path d="M86.2396 55.4035L94.3223 60.668L93.7648 61.5172L85.6821 56.2528L86.2396 55.4035Z" fill="#FF1700"/>
    <path d="M86.2396 55.4035L94.3223 60.668L93.7648 61.5172L85.6821 56.2528L86.2396 55.4035Z" stroke="#170486" stroke-width="0.54" stroke-miterlimit="10"/>
    <path d="M85.2441 58.6395L76.463 51.5163C75.373 50.6234 75.1998 49.0201 76.0963 47.9344C76.9927 46.8487 78.6023 46.6762 79.6923 47.5691L88.4734 54.6923C89.5634 55.5853 89.7264 57.1885 88.8401 58.2743C87.9437 59.36 86.3341 59.5325 85.2441 58.6395Z" fill="#FF1700"/>
    <path d="M85.2441 58.6395L76.463 51.5163C75.373 50.6234 75.1998 49.0201 76.0963 47.9344C76.9927 46.8487 78.6023 46.6762 79.6923 47.5691L88.4734 54.6923C89.5634 55.5853 89.7264 57.1885 88.8401 58.2743C87.9437 59.36 86.3341 59.5325 85.2441 58.6395Z" stroke="#170486" stroke-width="0.54" stroke-miterlimit="10"/>
    <mask id="mask0_3403_17744" style="mask-type:luminance" maskUnits="userSpaceOnUse" x="77" y="31" width="15" height="15">
        <path d="M88.9521 33.2105C91.9165 35.7879 92.212 40.2627 89.6347 43.2155C87.0472 46.1683 82.5548 46.4626 79.5904 43.8852C76.626 41.3079 76.3306 36.833 78.918 33.8802C80.3238 32.277 82.3001 31.4551 84.2764 31.4551C85.9368 31.4551 87.6075 32.0335 88.9521 33.2105Z" fill="white"/>
    </mask>
    <g mask="url(#mask0_3403_17744)">
        <path d="M76.3203 31.4551H92.2119V46.4626H76.3203V31.4551Z" fill="url(#paint0_linear_3403_17744)"/>
    </g>
    <path d="M78.9076 33.8901C76.3202 36.8429 76.6258 41.3177 79.5902 43.8951C82.5545 46.4724 87.047 46.168 89.6345 43.2152C92.2219 40.2624 91.9163 35.7876 88.9621 33.2102C85.9977 30.6329 81.5053 30.9373 78.9178 33.8799L78.9076 33.8901Z" stroke="#170486" stroke-width="0.54" stroke-miterlimit="10"/>
    <mask id="mask1_3403_17744" style="mask-type:luminance" maskUnits="userSpaceOnUse" x="67" y="40" width="15" height="15">
        <path d="M79.3869 41.8976C82.3513 44.475 82.6467 48.9498 80.0592 51.9026C77.4717 54.8554 72.9793 55.1497 70.0149 52.5825C67.0505 50.0051 66.7551 45.5303 69.3426 42.5775C70.7484 40.9743 72.7246 40.1523 74.7111 40.1523C76.3716 40.1523 78.0422 40.7307 79.3869 41.9078" fill="white"/>
    </mask>
    <g mask="url(#mask1_3403_17744)">
        <path d="M66.7652 40.1426H82.6567V55.1501H66.7652V40.1426Z" fill="url(#paint1_linear_3403_17744)"/>
    </g>
    <path d="M69.3422 42.5659C66.7547 45.5187 67.0603 49.9935 70.0247 52.5709C72.9891 55.1482 77.4815 54.8438 80.069 51.891C82.6565 48.9382 82.3509 44.4634 79.3865 41.886C76.4221 39.3087 71.9297 39.6131 69.3422 42.5557V42.5659Z" stroke="#170486" stroke-width="0.54" stroke-miterlimit="10"/>
    <path d="M87.8111 57.6156C87.1999 58.2549 86.1914 58.2752 85.5496 57.6663C84.9078 57.0575 84.8874 56.053 85.4986 55.4137C86.1099 54.7744 87.1184 54.7541 87.7601 55.363C88.4019 55.9718 88.4223 56.9763 87.8111 57.6156Z" fill="#FF1700"/>
    <path d="M87.8111 57.6156C87.1999 58.2549 86.1914 58.2752 85.5496 57.6663C84.9078 57.0575 84.8874 56.053 85.4986 55.4137C86.1099 54.7744 87.1184 54.7541 87.7601 55.363C88.4019 55.9718 88.4223 56.9763 87.8111 57.6156Z" stroke="#170486" stroke-width="0.52" stroke-miterlimit="10"/>
    <mask id="mask2_3403_17744" style="mask-type:luminance" maskUnits="userSpaceOnUse" x="94" y="39" width="47" height="61">
        <path d="M126.776 41.8153C127.693 42.9417 128.579 44.1187 129.445 45.3364C136.067 54.6108 136.505 62.7386 140.579 70.7345C140.579 70.7345 142.321 90.7343 133.53 95.7571C133.398 95.8281 133.265 95.9093 133.123 95.9803C129.272 98.0808 125.146 99.4709 120.369 99.0346C126.909 87.609 120.216 68.0759 103.998 53.2409C100.993 50.4911 97.8657 48.0964 94.6772 46.0365C94.6466 46.0162 94.6466 45.9756 94.6772 45.9452C95.7774 45.0827 96.9488 44.2912 98.1916 43.5708C103.153 40.7093 108.592 39.3496 114.053 39.3496C118.362 39.3496 122.671 40.1918 126.766 41.8153" fill="white"/>
    </mask>
    <g mask="url(#mask2_3403_17744)">
        <path d="M112.067 16.4965L171.382 61.3262L124.904 122.34L65.59 77.5108L112.067 16.4965Z" fill="url(#paint2_linear_3403_17744)"/>
    </g>
    <path d="M129.445 45.3367C128.579 44.119 127.693 42.9521 126.776 41.8258C117.506 38.1627 107.075 38.457 98.2019 43.5813C96.9591 44.3017 95.7876 45.0932 94.6874 45.9557C94.6569 45.976 94.6569 46.0267 94.6874 46.047C97.8657 48.1068 101.003 50.5015 104.008 53.2514C120.216 68.0965 126.919 87.6296 120.379 99.0552C125.156 99.4814 129.282 98.1014 133.133 96.001C133.265 95.9299 133.408 95.8488 133.54 95.7777C142.332 90.7549 140.59 70.7551 140.59 70.7551C136.515 62.749 136.067 54.6314 129.455 45.3468L129.445 45.3367Z" stroke="#170486" stroke-width="0.54" stroke-miterlimit="10"/>
    <path d="M77.6143 53.7082L74.2322 49.9233L70.9418 50.2988L67.9367 45.0527" stroke="#170486" stroke-width="0.49" stroke-miterlimit="10"/>
    <path d="M94.9116 43.5504C96.3276 41.9167 97.9473 40.4149 99.8828 39.2683C108.318 34.2658 118.82 33.9411 118.82 33.9411C118.82 33.9411 118.016 31.5971 116.987 28.6849C114.949 22.9417 108.949 19.583 102.969 20.8412L92.3343 23.0837C90.6229 30.8057 88.7995 33.038 91.988 42.3632C92.9455 42.6676 93.9235 43.0633 94.9014 43.5301L94.9116 43.5504Z" fill="#1594FC" stroke="#166FDE" stroke-width="0.54" stroke-miterlimit="10"/>
    <path d="M97.937 40.7304C96.5108 35.393 99.1696 30.0455 103.876 28.8076C103.876 28.8076 98.426 23.318 92.0286 24.5357" stroke="#170486" stroke-width="0.54" stroke-miterlimit="10"/>
    <mask id="mask3_3403_17744" style="mask-type:luminance" maskUnits="userSpaceOnUse" x="92" y="29" width="9" height="8">
        <path d="M100.127 34.5099C99.1187 36.6205 96.5923 37.5134 94.4734 36.5088C93.3834 35.9913 92.6092 35.068 92.2629 34.0025L92.6296 33.7894L94.0354 32.9878L94.5346 32.6935L97.5499 30.9685L97.6721 30.8975L99.4548 29.8828C100.555 31.1106 100.861 32.9269 100.117 34.4997" fill="white"/>
    </mask>
    <g mask="url(#mask3_3403_17744)">
        <path d="M92.2525 29.8926H100.871V37.513H92.2525V29.8926Z" fill="url(#paint3_linear_3403_17744)"/>
    </g>
    <path d="M92.2629 34.0119C92.6092 35.0773 93.3834 36.0007 94.4734 36.5182C96.5923 37.5228 99.1187 36.6197 100.127 34.5193C100.881 32.9363 100.565 31.1301 99.465 29.9023L97.6823 30.917L97.56 30.9881L94.5447 32.7131L94.0456 33.0073L92.6398 33.809L92.2629 34.0221V34.0119Z" stroke="#170486" stroke-width="0.54" stroke-miterlimit="10"/>
    <mask id="mask4_3403_17744" style="mask-type:luminance" maskUnits="userSpaceOnUse" x="92" y="27" width="6" height="6">
        <path d="M97.9575 30.603L94.5245 32.6932L92.7214 29.1824L96.7758 27.3965L97.9575 30.603Z" fill="white"/>
    </mask>
    <g mask="url(#mask4_3403_17744)">
        <path d="M96.4497 29.2837C96.4497 29.2837 93.7298 29.1822 92.7824 31.8813" stroke="#170486" stroke-width="0.49" stroke-linecap="round" stroke-linejoin="round"/>
    </g>
    <mask id="mask5_3403_17744" style="mask-type:luminance" maskUnits="userSpaceOnUse" x="89" y="36" width="6" height="6">
        <path d="M94.9829 39.7867L91.0202 41.7654L89.6959 38.6097L93.027 36.3672L94.9829 39.7867Z" fill="white"/>
    </mask>
    <g mask="url(#mask5_3403_17744)">
        <path d="M91.2543 39.858C91.2543 39.858 93.9742 39.8276 94.7993 37.0879" stroke="#170486" stroke-width="0.49" stroke-linecap="round" stroke-linejoin="round"/>
    </g>
    <path d="M93.4753 33.6071C93.7198 34.358 94.2597 35.0074 95.0339 35.3727C96.5314 36.083 98.3141 35.4438 99.017 33.9623C99.5467 32.8461 99.3226 31.5676 98.5484 30.7051L97.2954 31.4154L97.2037 31.4661L95.0746 32.6838L94.7181 32.8867L93.7299 33.4549L93.4651 33.6071H93.4753Z" fill="#FF1700"/>
    <path d="M93.4753 33.6071C93.7198 34.358 94.2597 35.0074 95.0339 35.3727C96.5314 36.083 98.3141 35.4438 99.017 33.9623C99.5467 32.8461 99.3226 31.5676 98.5484 30.7051L97.2954 31.4154L97.2037 31.4661L95.0746 32.6838L94.7181 32.8867L93.7299 33.4549L93.4651 33.6071H93.4753Z" stroke="#170486" stroke-width="0.54" stroke-miterlimit="10"/>
    <path d="M94.7284 32.8873C94.7997 33.4048 95.1256 33.8818 95.635 34.1253C96.4296 34.5007 97.3871 34.1659 97.7641 33.3643C98.09 32.6743 97.8863 31.8625 97.2955 31.416L97.2038 31.4668L95.0747 32.6844L94.7182 32.8873H94.7284Z" fill="#170486"/>
    <path d="M92.202 93.5041C93.2003 96.9237 96.7861 98.882 100.219 97.8876L126.175 90.3585C129.608 89.3641 131.574 85.7923 130.576 82.3728C129.578 78.9532 125.992 76.9948 122.559 77.9893L96.6028 85.5184C93.1698 86.5128 91.2037 90.0845 92.202 93.5041Z" fill="#FF1700"/>
    <path d="M92.202 93.5041C93.2003 96.9237 96.7861 98.882 100.219 97.8876L126.175 90.3585C129.608 89.3641 131.574 85.7923 130.576 82.3728C129.578 78.9532 125.992 76.9948 122.559 77.9893L96.6028 85.5184C93.1698 86.5128 91.2037 90.0845 92.202 93.5041Z" stroke="#170486" stroke-width="0.54" stroke-miterlimit="10"/>
    <path d="M134.539 95.017C140.366 90.3392 139.53 77.5742 139.53 77.5742C139.53 77.5742 136.77 73.7894 134.447 68.5332" stroke="#170486" stroke-width="0.54" stroke-miterlimit="10"/>
    <path d="M172.892 116.986C173.575 114.855 172.383 112.582 170.254 111.912L139.642 102.252C137.503 101.583 135.221 102.76 134.549 104.891C133.877 107.021 135.058 109.294 137.187 109.964L167.799 119.624C169.938 120.304 172.22 119.117 172.892 116.986Z" fill="#FF1700"/>
    <path d="M172.892 116.986C173.575 114.855 172.383 112.582 170.254 111.912L139.642 102.252C137.503 101.583 135.221 102.76 134.549 104.891C133.877 107.021 135.058 109.294 137.187 109.964L167.799 119.624C169.938 120.304 172.22 119.117 172.892 116.986Z" stroke="#170486" stroke-width="0.54" stroke-miterlimit="10"/>
    <path d="M168.512 121.795C170.926 122.313 173.31 120.781 173.82 118.366C174.339 115.961 172.801 113.586 170.376 113.079C167.962 112.561 165.589 114.094 165.069 116.509C164.549 118.914 166.088 121.288 168.512 121.795Z" fill="#FF1700"/>
    <path d="M168.512 121.795C170.926 122.313 173.31 120.781 173.82 118.366C174.339 115.961 172.801 113.586 170.376 113.079C167.962 112.561 165.589 114.094 165.069 116.509C164.549 118.914 166.088 121.288 168.512 121.795Z" stroke="#170486" stroke-width="0.54" stroke-miterlimit="10"/>
    <path d="M168.869 120.131C170.366 120.445 171.833 119.501 172.159 118.01C172.485 116.518 171.527 115.057 170.03 114.732C168.532 114.418 167.065 115.361 166.74 116.853C166.424 118.345 167.371 119.806 168.869 120.131Z" fill="#FF1700"/>
    <path d="M168.869 120.131C170.366 120.445 171.833 119.501 172.159 118.01C172.485 116.518 171.527 115.057 170.03 114.732C168.532 114.418 167.065 115.361 166.74 116.853C166.424 118.345 167.371 119.806 168.869 120.131Z" stroke="#170486" stroke-width="0.54" stroke-miterlimit="10"/>
    <mask id="mask6_3403_17744" style="mask-type:luminance" maskUnits="userSpaceOnUse" x="89" y="20" width="25" height="18">
        <path d="M112.199 21.8057C113.106 22.3942 113.645 23.1045 113.931 23.5307L111.639 24.6367L109.306 32.3992C109.245 33.6574 109.184 34.9055 109.122 36.1638C108.644 36.5088 107.941 36.9451 107.024 37.2698C105.954 37.6452 105.007 37.7366 104.365 37.7467L102.348 30.7046L97.9576 27.488C95.4109 28.3404 92.7317 29.5479 90.185 30.4002C90.0729 29.7508 89.696 28.7666 89.9405 27.3967C90.2257 25.7529 90.8166 24.931 91.0407 24.3627C97.2852 23.0842 103.102 22.0188 109.347 20.7402C109.876 20.8113 111.221 21.1563 112.209 21.8057" fill="white"/>
    </mask>
    <g mask="url(#mask6_3403_17744)">
        <path d="M113.047 16.224L117.119 37.1328L90.568 42.2641L86.4954 21.3553L113.047 16.224Z" fill="url(#paint4_linear_3403_17744)"/>
    </g>
    <path d="M91.0304 24.353C90.8063 24.9212 90.2256 25.7431 89.9302 27.3869C89.6857 28.7669 90.0626 29.7512 90.1747 30.3905C92.7214 29.5381 95.4006 28.3306 97.9473 27.4783L102.338 30.6949L104.355 37.7369C105.007 37.7268 105.944 37.6355 107.014 37.26C107.931 36.9353 108.633 36.5091 109.112 36.154C109.173 34.8958 109.234 33.6477 109.296 32.3894L111.628 24.6269L113.92 23.5209C113.635 23.0846 113.095 22.3844 112.189 21.7959C111.201 21.1465 109.846 20.8015 109.326 20.7305C103.082 22.009 97.2648 23.0744 91.0202 24.353H91.0304Z" stroke="#170486" stroke-width="0.54" stroke-miterlimit="10"/>
    <path d="M111.639 24.6379C111.639 24.6379 110.661 22.5374 107.146 21.1777" stroke="#170486" stroke-width="0.54" stroke-miterlimit="10"/>
    <mask id="mask7_3403_17744" style="mask-type:luminance" maskUnits="userSpaceOnUse" x="103" y="25" width="5" height="8">
        <path d="M106.789 26.5246L107.9 30.4109C108.175 31.385 107.615 32.3997 106.637 32.6737C105.659 32.9477 104.64 32.3896 104.365 31.4155L103.255 27.5291C102.98 26.555 103.54 25.5403 104.518 25.2663C104.691 25.2156 104.854 25.1953 105.027 25.1953C105.832 25.1953 106.565 25.723 106.8 26.5246" fill="white"/>
    </mask>
    <g mask="url(#mask7_3403_17744)">
        <path d="M107.477 23.418L110.836 31.9043L103.671 34.7183L100.312 26.232L107.477 23.418Z" fill="url(#paint5_linear_3403_17744)"/>
    </g>
    <path d="M106.636 32.674C107.614 32.4 108.185 31.3853 107.9 30.4112L106.789 26.5248C106.514 25.5507 105.495 24.9825 104.518 25.2666C103.54 25.5406 102.969 26.5553 103.254 27.5294L104.365 31.4157C104.64 32.3898 105.658 32.9581 106.636 32.674Z" stroke="#170486" stroke-width="0.54" stroke-miterlimit="10"/>
    <path d="M103.642 29.5178L107.125 28.5234" stroke="#170486" stroke-width="0.54" stroke-miterlimit="10"/>
    <mask id="mask8_3403_17744" style="mask-type:luminance" maskUnits="userSpaceOnUse" x="101" y="67" width="44" height="38">
        <path d="M144.165 89.8112L144.084 99.045L125.116 102.901L124.403 99.39L104.609 104.453L101.217 84.1491L120.654 78.345L118.81 72.8047L139.011 67.2441C142.8 74.1441 144.237 81.998 144.175 89.8213" fill="white"/>
    </mask>
    <g mask="url(#mask8_3403_17744)">
        <path d="M101.207 67.2344H144.227V104.444H101.207V67.2344Z" fill="url(#paint6_linear_3403_17744)"/>
    </g>
    <path d="M101.217 84.1296L104.61 104.434L124.403 99.3705L125.116 102.881L144.084 99.0356L144.165 89.8018C144.237 81.9886 142.8 74.1246 139.001 67.2246L118.8 72.7852L120.644 78.3255L101.207 84.1296H101.217Z" stroke="#170486" stroke-width="0.54" stroke-miterlimit="10"/>
    <path d="M120.328 119.724C122.039 118.283 122.253 115.726 120.797 114.022L100.036 89.618C98.5892 87.9133 96.0221 87.7002 94.3107 89.1512C92.5993 90.5921 92.3853 93.1492 93.8421 94.8539L114.603 119.258C116.05 120.962 118.617 121.175 120.328 119.724Z" fill="#FF1700"/>
    <path d="M120.328 119.724C122.039 118.283 122.253 115.726 120.797 114.022L100.036 89.618C98.5892 87.9133 96.0221 87.7002 94.3107 89.1512C92.5993 90.5921 92.3853 93.1492 93.8421 94.8539L114.603 119.258C116.05 120.962 118.617 121.175 120.328 119.724Z" stroke="#170486" stroke-width="0.54" stroke-miterlimit="10"/>
    <path d="M111.618 119.654C112.85 121.796 115.581 122.536 117.72 121.308C119.859 120.091 120.603 117.361 119.38 115.23C118.158 113.099 115.418 112.359 113.278 113.576C111.139 114.794 110.395 117.524 111.618 119.654Z" fill="#FF1700"/>
    <path d="M111.618 119.654C112.85 121.796 115.581 122.536 117.72 121.308C119.859 120.091 120.603 117.361 119.38 115.23C118.158 113.099 115.418 112.359 113.278 113.576C111.139 114.794 110.395 117.524 111.618 119.654Z" stroke="#170486" stroke-width="0.54" stroke-miterlimit="10"/>
    <path d="M113.095 118.811C113.859 120.131 115.55 120.597 116.874 119.836C118.199 119.085 118.657 117.391 117.903 116.072C117.139 114.753 115.448 114.296 114.124 115.047C112.8 115.808 112.331 117.492 113.095 118.811Z" fill="#FF1700"/>
    <path d="M113.095 118.811C113.859 120.131 115.55 120.597 116.874 119.836C118.199 119.085 118.657 117.391 117.903 116.072C117.139 114.753 115.448 114.296 114.124 115.047C112.8 115.808 112.331 117.492 113.095 118.811Z" stroke="#170486" stroke-width="0.54" stroke-miterlimit="10"/>
    <path d="M123.364 77.584L120.654 78.3349" stroke="#170486" stroke-width="0.54" stroke-miterlimit="10"/>
    <path d="M140.906 81.5723C140.906 81.5723 143.289 94.7432 132.237 97.493L124.586 99.3702" stroke="#170486" stroke-width="0.54" stroke-miterlimit="10"/>
    <path d="M130.393 69.8828C131.696 73.4952 134.854 80.0603 132.359 86.3515C131.075 89.5985 127.031 91.8918 122.416 93.5052C116.263 95.6563 109.112 96.5797 106.209 96.8841" stroke="#170486" stroke-width="0.54" stroke-miterlimit="10"/>
    <path d="M126.705 70.8574C126.705 70.8574 131.849 81.4307 127.836 86.2911C124.454 90.3905 108.908 93.5057 104.09 94.3884" stroke="#170486" stroke-width="0.54" stroke-miterlimit="10"/>
    <path d="M116.875 48.1278C116.875 44.6068 114.012 41.7656 110.477 41.7656C106.942 41.7656 104.08 44.6169 104.08 48.1278C104.08 51.6387 106.942 54.5002 110.477 54.5002C114.012 54.5002 116.875 51.6489 116.875 48.1278Z" stroke="#170486" stroke-width="0.54" stroke-miterlimit="10"/>
    <path d="M105.954 46.1078H112.555C112.555 46.1078 114.206 46.2904 113.472 47.9952L94.7996 62.8302C94.7996 62.8302 92.4974 64.6566 90.2257 62.5257C90.2257 62.5257 88.5143 60.7094 91.0814 58.6597L105.954 46.0977V46.1078Z" fill="#FF1700"/>
    <path d="M105.954 46.1078H112.555C112.555 46.1078 114.206 46.2904 113.472 47.9952L94.7996 62.8302C94.7996 62.8302 92.4974 64.6566 90.2257 62.5257C90.2257 62.5257 88.5143 60.7094 91.0814 58.6597L105.954 46.0977V46.1078Z" stroke="#170486" stroke-width="0.54" stroke-miterlimit="10"/>
    <path d="M92.4465 59.1256C91.7028 59.6532 91.5398 60.6882 92.0695 61.4188C92.5993 62.1595 93.6383 62.3219 94.3718 61.7943C95.1154 61.2666 95.2784 60.2316 94.7487 59.501C94.219 58.7603 93.1799 58.5979 92.4465 59.1256Z" fill="#FF1700"/>
    <path d="M92.4465 59.1256C91.7028 59.6532 91.5398 60.6882 92.0695 61.4188C92.5993 62.1595 93.6383 62.3219 94.3718 61.7943C95.1154 61.2666 95.2784 60.2316 94.7487 59.501C94.219 58.7603 93.1799 58.5979 92.4465 59.1256Z" stroke="#170486" stroke-width="0.54" stroke-miterlimit="10"/>
    <path d="M137.014 61.623L114.501 65.3166" stroke="#170486" stroke-width="0.54" stroke-miterlimit="10"/>
    <defs>
        <linearGradient id="paint0_linear_3403_17744" x1="96.7369" y1="37.7972" x2="82.4956" y2="37.7972" gradientUnits="userSpaceOnUse">
            <stop stop-color="#170486"/>
            <stop offset="0.01" stop-color="#170486"/>
            <stop offset="1" stop-color="#1598FF"/>
        </linearGradient>
        <linearGradient id="paint1_linear_3403_17744" x1="-16324.5" y1="46.4847" x2="-16338.8" y2="46.4847" gradientUnits="userSpaceOnUse">
            <stop stop-color="#170486"/>
            <stop offset="0.01" stop-color="#170486"/>
            <stop offset="1" stop-color="#1598FF"/>
        </linearGradient>
        <linearGradient id="paint2_linear_3403_17744" x1="136.86" y1="45.4911" x2="110.141" y2="80.8442" gradientUnits="userSpaceOnUse">
            <stop stop-color="#1598FF"/>
            <stop offset="0.99" stop-color="#170486"/>
            <stop offset="1" stop-color="#170486"/>
        </linearGradient>
        <linearGradient id="paint3_linear_3403_17744" x1="96.5493" y1="34.6158" x2="88.2775" y2="34.6158" gradientUnits="userSpaceOnUse">
            <stop stop-color="#170486"/>
            <stop offset="0.01" stop-color="#170486"/>
            <stop offset="1" stop-color="#1598FF"/>
        </linearGradient>
        <linearGradient id="paint4_linear_3403_17744" x1="112.811" y1="28.1525" x2="85.0577" y2="33.5583" gradientUnits="userSpaceOnUse">
            <stop stop-color="#170486"/>
            <stop offset="0.01" stop-color="#170486"/>
            <stop offset="1" stop-color="#1598FF"/>
        </linearGradient>
        <linearGradient id="paint5_linear_3403_17744" x1="113.257" y1="25.3243" x2="104.661" y2="28.7271" gradientUnits="userSpaceOnUse">
            <stop stop-color="#170486"/>
            <stop offset="0.01" stop-color="#170486"/>
            <stop offset="0.25" stop-color="#160688"/>
            <stop offset="0.41" stop-color="#160F8F"/>
            <stop offset="0.55" stop-color="#161E9B"/>
            <stop offset="0.68" stop-color="#1634AD"/>
            <stop offset="0.79" stop-color="#1550C4"/>
            <stop offset="0.9" stop-color="#1571DF"/>
            <stop offset="1" stop-color="#1598FF"/>
        </linearGradient>
        <linearGradient id="paint6_linear_3403_17744" x1="140.667" y1="86.8154" x2="97.7188" y2="86.8154" gradientUnits="userSpaceOnUse">
            <stop stop-color="#1598FF"/>
            <stop offset="0.99" stop-color="#170486"/>
            <stop offset="1" stop-color="#170486"/>
        </linearGradient>
    </defs>
</svg>
