<svg width="391" height="216" viewBox="0 0 391 216" fill="none" xmlns="http://www.w3.org/2000/svg">
    <rect x="-130" y="213" width="159" height="2" fill="#FF1700"/>
    <path d="M231.388 76.4429C231.388 76.4429 209.993 74.7131 194.943 96.3977" stroke="#170486" stroke-width="0.54" stroke-miterlimit="10"/>
    <path d="M81.071 171.334L78.9973 168.472C75.6916 163.941 76.6977 157.578 81.2147 154.262L130.389 118.327C134.926 115.012 141.25 116.021 144.556 120.551L146.629 123.414C149.935 127.944 148.929 134.308 144.412 137.623L95.238 173.558C90.721 176.874 84.3766 175.865 81.071 171.334Z" fill="#FF1700"/>
    <path d="M81.071 171.334L78.9973 168.472C75.6916 163.941 76.6977 157.578 81.2147 154.262L130.389 118.327C134.926 115.012 141.25 116.021 144.556 120.551L146.629 123.414C149.935 127.944 148.929 134.308 144.412 137.623L95.238 173.558C90.721 176.874 84.3766 175.865 81.071 171.334Z" stroke="#170486" stroke-width="0.54" stroke-miterlimit="10"/>
    <path d="M29.3501 206.922L28.036 204.986C25.9418 201.938 26.7015 197.758 29.7607 195.658L82.9179 158.981C85.9566 156.88 90.1245 157.642 92.2188 160.711L93.5329 162.647C95.6271 165.694 94.8674 169.875 91.8082 171.975L38.651 208.652C35.6123 210.752 31.4443 209.99 29.3501 206.922Z" fill="#FF1700"/>
    <path d="M29.3501 206.922L28.036 204.986C25.9418 201.938 26.7015 197.758 29.7607 195.658L82.9179 158.981C85.9566 156.88 90.1246 157.642 92.2188 160.711L93.5329 162.647C95.6271 165.694 94.8674 169.875 91.8082 171.975L38.651 208.652C35.6123 210.752 31.4443 209.99 29.3501 206.922Z" stroke="#170486" stroke-width="0.54" stroke-miterlimit="10"/>
    <path d="M37.5232 214.5C33.1294 216.951 27.6063 215.344 25.1835 210.958C22.7607 206.551 24.3417 201.011 28.715 198.581C33.0883 196.151 38.6319 197.737 41.0547 202.123C43.4774 206.53 41.8965 212.07 37.5232 214.5Z" fill="#FF1700"/>
    <path d="M37.5232 214.5C33.1294 216.951 27.6063 215.344 25.1835 210.958C22.7607 206.551 24.3417 201.011 28.715 198.581C33.0883 196.151 38.6319 197.737 41.0547 202.123C43.4774 206.53 41.8965 212.07 37.5232 214.5Z" stroke="#170486" stroke-width="0.54" stroke-miterlimit="10"/>
    <path d="M35.8388 211.472C33.1286 212.975 29.6998 212.007 28.201 209.268C26.7021 206.55 27.6671 203.111 30.3979 201.607C33.1081 200.104 36.5369 201.072 38.0358 203.811C39.5346 206.529 38.5696 209.968 35.8388 211.472Z" fill="#FF1700"/>
    <path d="M35.8388 211.472C33.1286 212.975 29.6998 212.007 28.201 209.268C26.7021 206.55 27.6671 203.111 30.3979 201.607C33.1081 200.104 36.5369 201.072 38.0358 203.811C39.5346 206.529 38.5696 209.968 35.8388 211.472Z" stroke="#170486" stroke-width="0.54" stroke-miterlimit="10"/>
    <path d="M165.755 58.2176L146.281 60.3291L146.502 62.3765L165.976 60.265L165.755 58.2176Z" fill="#FF1700"/>
    <path d="M165.755 58.2176L146.281 60.3291L146.502 62.3765L165.976 60.265L165.755 58.2176Z" stroke="#170486" stroke-width="0.54" stroke-miterlimit="10"/>
    <path d="M182.028 90.5691L195.374 91.8459C195.374 91.8459 198.741 91.7841 197.592 88.1597L162.708 54.3868C162.708 54.3868 158.396 50.227 153.427 54.1191C153.427 54.1191 149.608 57.4964 154.413 62.1299L182.049 90.5279L182.028 90.5691Z" fill="#FF1700"/>
    <path d="M182.028 90.5691L195.374 91.8459C195.374 91.8459 198.741 91.7841 197.592 88.1597L162.708 54.3868C162.708 54.3868 158.396 50.227 153.427 54.1191C153.427 54.1191 149.608 57.4964 154.413 62.1299L182.049 90.5279L182.028 90.5691Z" stroke="#170486" stroke-width="0.54" stroke-miterlimit="10"/>
    <path d="M157.223 61.4902C155.827 60.2752 155.683 58.1541 156.915 56.7537C158.126 55.3534 160.241 55.2092 161.637 56.4448C163.033 57.6598 163.177 59.7809 161.945 61.1813C160.734 62.5816 158.619 62.7258 157.223 61.4902Z" fill="#FF1700"/>
    <path d="M157.223 61.4902C155.827 60.2752 155.683 58.1541 156.915 56.7537C158.126 55.3534 160.241 55.2092 161.637 56.4448C163.033 57.6598 163.177 59.7809 161.945 61.1813C160.734 62.5816 158.619 62.7258 157.223 61.4902Z" stroke="#170486" stroke-width="0.54" stroke-miterlimit="10"/>
    <path d="M144.042 57.2072L121.396 66.6595C119.137 67.6068 118.069 70.2015 119.014 72.4668L119.609 73.8877C120.554 76.153 123.141 77.2238 125.379 76.2765L148.005 66.8242C150.263 65.8769 151.331 63.2822 150.387 61.0375L149.791 59.6166C148.847 57.3514 146.26 56.2805 144.022 57.2278" fill="#FF1700"/>
    <path d="M144.042 57.2072L121.396 66.6595C119.137 67.6068 118.069 70.2015 119.014 72.4668L119.609 73.8877C120.554 76.153 123.141 77.2238 125.379 76.2765L148.005 66.8242C150.263 65.8769 151.331 63.2822 150.387 61.0375L149.791 59.6166C148.847 57.3514 146.26 56.2805 144.022 57.2278L144.042 57.2072Z" stroke="#170486" stroke-width="0.54" stroke-miterlimit="10"/>
    <path d="M110.636 78.3569C108.192 74.4854 109.342 69.3577 113.202 66.9071C117.062 64.4565 122.175 65.6097 124.618 69.4813C127.061 73.3528 125.911 78.4805 122.051 80.9311C118.191 83.3817 113.079 82.2285 110.636 78.3569Z" fill="#FF1700"/>
    <path d="M110.636 78.3569C108.192 74.4854 109.342 69.3577 113.202 66.9071C117.062 64.4565 122.175 65.6097 124.618 69.4813C127.061 73.3528 125.911 78.4805 122.051 80.9311C118.191 83.3817 113.079 82.2285 110.636 78.3569Z" stroke="#170486" stroke-width="0.49" stroke-miterlimit="10"/>
    <path d="M113.284 76.6683C111.765 74.2795 112.483 71.1082 114.865 69.5843C117.247 68.0604 120.409 68.7811 121.928 71.17C123.447 73.5588 122.729 76.7301 120.347 78.254C117.965 79.7779 114.803 79.0572 113.284 76.6683Z" fill="#FF1700"/>
    <path d="M113.284 76.6683C111.765 74.2795 112.483 71.1082 114.865 69.5843C117.247 68.0604 120.409 68.7811 121.928 71.17C123.447 73.5588 122.729 76.7301 120.347 78.254C117.965 79.7779 114.803 79.0572 113.284 76.6683Z" stroke="#170486" stroke-width="0.49" stroke-miterlimit="10"/>
    <path d="M147.737 60.9974C146.916 59.3912 144.965 58.7734 143.364 59.5765C141.762 60.4002 141.147 62.3566 141.968 63.9629C142.789 65.5691 144.74 66.1869 146.341 65.3838C147.943 64.5601 148.559 62.6037 147.758 60.9974" fill="#FF1700"/>
    <path d="M147.737 60.9974C146.916 59.3912 144.965 58.7734 143.364 59.5765C141.762 60.4002 141.147 62.3566 141.968 63.9629C142.789 65.5691 144.74 66.1869 146.341 65.3838C147.943 64.5601 148.559 62.6037 147.758 60.9974H147.737Z" stroke="#170486" stroke-width="0.52" stroke-miterlimit="10"/>
    <mask id="mask0_3763_28592" style="mask-type:luminance" maskUnits="userSpaceOnUse" x="101" y="71" width="126" height="103">
        <path d="M170.365 73.6417C124.045 89.2102 94.1097 124.692 103.534 152.884C106.367 161.348 112.424 168.206 120.781 173.231C123.758 146.521 158.19 122.283 202.6 117.196C210.875 116.249 218.944 116.043 226.684 116.476C225.904 113.675 224.919 110.915 223.728 108.197C215.33 89.1072 198.576 76.0923 178.968 71.0264C176.114 71.7883 173.24 72.6532 170.365 73.6211" fill="white"/>
    </mask>
    <g mask="url(#mask0_3763_28592)">
        <path d="M225.566 58.8678L84.8018 71.8906L95.238 185.372L236.003 172.349L225.566 58.8678Z" fill="url(#paint0_linear_3763_28592)"/>
    </g>
    <path d="M170.364 73.6406C173.239 72.6728 176.113 71.8078 178.967 71.0459C198.575 76.1118 215.329 89.1062 223.727 108.196C224.917 110.914 225.903 113.694 226.683 116.475C218.943 116.042 210.874 116.248 202.599 117.195C158.189 122.261 123.757 146.499 120.779 173.209C112.423 168.184 106.366 161.347 103.533 152.863C94.1085 124.671 124.024 89.1885 170.364 73.6201V73.6406Z" stroke="#170486" stroke-width="0.54" stroke-miterlimit="10"/>
    <path d="M206.48 116.969C206.48 116.969 191.963 88.1387 172.294 89.7656C172.294 89.7656 94.2931 120.491 112.238 166.887" stroke="#170486" stroke-width="0.54" stroke-miterlimit="10"/>
    <path d="M208.451 129.449C208.451 129.449 194.982 102.657 176.771 104.119C176.771 104.119 105.771 131.529 120.924 173.21" stroke="#170486" stroke-width="0.54" stroke-miterlimit="10"/>
    <path d="M182.807 175.104L180.63 177.904C177.201 182.352 170.837 183.156 166.402 179.716L118.295 142.34C113.86 138.901 113.06 132.517 116.489 128.069L118.644 125.268C122.073 120.82 128.438 120.017 132.873 123.456L180.979 160.833C185.414 164.272 186.215 170.655 182.786 175.104" fill="#FF1700"/>
    <path d="M182.807 175.104L180.63 177.904C177.201 182.352 170.837 183.156 166.402 179.716L118.295 142.34C113.86 138.901 113.06 132.517 116.489 128.069L118.644 125.268C122.073 120.82 128.438 120.017 132.873 123.456L180.979 160.832C185.414 164.272 186.215 170.655 182.786 175.104H182.807Z" stroke="#170486" stroke-width="0.54" stroke-miterlimit="10"/>
    <path d="M107.004 193.33L106.265 191.106C105.094 187.585 106.983 183.775 110.474 182.601L171.638 162.049C175.149 160.875 178.948 162.77 180.118 166.271L180.857 168.495C182.027 172.016 180.139 175.805 176.648 177L115.484 197.572C111.973 198.746 108.195 196.851 107.004 193.33Z" fill="#FF1700"/>
    <path d="M110.501 182.581L171.671 162.029C175.176 160.852 178.97 162.748 180.144 166.262L180.888 168.489C182.062 172.003 180.171 175.809 176.667 176.987L115.497 197.539C111.992 198.716 108.198 196.82 107.024 193.306L106.28 191.08C105.106 187.565 106.997 183.759 110.501 182.581Z" stroke="#170486" stroke-width="0.54" stroke-miterlimit="10"/>
    <path d="M120.182 202.226C115.789 204.676 110.265 203.07 107.843 198.684C105.42 194.277 107.001 188.737 111.374 186.307C115.747 183.877 121.291 185.463 123.714 189.849C126.137 194.256 124.556 199.796 120.182 202.226Z" fill="#FF1700"/>
    <path d="M120.182 202.226C115.789 204.676 110.265 203.07 107.843 198.684C105.42 194.277 107.001 188.737 111.374 186.307C115.747 183.877 121.291 185.463 123.714 189.849C126.137 194.256 124.556 199.796 120.182 202.226Z" stroke="#170486" stroke-width="0.54" stroke-miterlimit="10"/>
    <path d="M118.502 199.198C115.792 200.701 112.363 199.734 110.864 196.995C109.365 194.276 110.33 190.837 113.061 189.334C115.771 187.831 119.2 188.799 120.699 191.537C122.198 194.256 121.233 197.695 118.502 199.198Z" fill="#FF1700"/>
    <path d="M118.502 199.198C115.792 200.701 112.363 199.734 110.864 196.995C109.365 194.276 110.33 190.837 113.061 189.334C115.771 187.831 119.2 188.799 120.699 191.537C122.198 194.256 121.233 197.695 118.502 199.198Z" stroke="#170486" stroke-width="0.54" stroke-miterlimit="10"/>
    <path d="M233.854 126.307L218.027 137.883L219.237 139.547L235.064 127.971L233.854 126.307Z" fill="#FF1700"/>
    <path d="M233.854 126.307L218.027 137.883L219.237 139.547L235.064 127.971L233.854 126.307Z" stroke="#170486" stroke-width="0.54" stroke-miterlimit="10"/>
    <path d="M190.465 107.415L191.738 94.0292C191.738 94.0292 192.436 90.7137 195.762 92.5465L222.187 133.321C222.187 133.321 225.451 138.346 220.688 142.526C220.688 142.526 216.664 145.636 213.029 140.034L190.465 107.415Z" fill="#FF1700"/>
    <path d="M190.465 107.415L191.738 94.0292C191.738 94.0292 192.436 90.7137 195.762 92.5465L222.187 133.321C222.187 133.321 225.451 138.346 220.688 142.526C220.688 142.526 216.664 145.636 213.029 140.034L190.465 107.415Z" stroke="#170486" stroke-width="0.54" stroke-miterlimit="10"/>
    <path d="M214.222 137.358C215.146 138.964 217.199 139.499 218.801 138.573C220.402 137.646 220.936 135.587 220.012 133.98C219.088 132.374 217.035 131.839 215.433 132.765C213.832 133.692 213.298 135.751 214.222 137.358Z" fill="#FF1700"/>
    <path d="M214.222 137.358C215.146 138.964 217.199 139.499 218.801 138.573C220.402 137.646 220.936 135.587 220.012 133.98C219.088 132.374 217.035 131.839 215.433 132.765C213.832 133.692 213.298 135.751 214.222 137.358Z" stroke="#170486" stroke-width="0.54" stroke-miterlimit="10"/>
    <mask id="mask1_3763_28592" style="mask-type:luminance" maskUnits="userSpaceOnUse" x="185" y="57" width="74" height="56">
        <path d="M196.112 63.468C192.519 64.889 189.09 66.5158 185.887 68.2869C204.448 69.8725 220.976 80.8487 227.854 98.2912C229.538 102.554 230.503 106.94 230.872 111.327C233.049 111.718 235.122 112.233 237.052 112.892C253.478 101.318 262.122 85.6675 257.256 73.291C253.211 63.0562 240.892 57.5166 225.493 57.5166C216.418 57.5166 206.275 59.4318 196.132 63.468" fill="white"/>
    </mask>
    <g mask="url(#mask1_3763_28592)">
        <path d="M191.788 37.058L171.119 108.601L256.214 133.332L276.883 61.7895L191.788 37.058Z" fill="url(#paint1_linear_3763_28592)"/>
    </g>
    <path d="M230.872 111.327C230.503 106.94 229.538 102.554 227.854 98.2912C220.976 80.8487 204.448 69.8725 185.887 68.2869C189.09 66.5159 192.519 64.889 196.112 63.4681C223.46 52.6154 250.829 57.0224 257.256 73.291C262.122 85.6676 253.478 101.318 237.052 112.892C235.102 112.233 233.049 111.718 230.872 111.327Z" stroke="#170486" stroke-width="0.54" stroke-miterlimit="10"/>
    <path d="M229.289 103.027C238.036 95.9221 240.089 83.8957 233.847 76.1938C227.626 68.4919 215.492 68.0183 206.725 75.1229" stroke="#170486" stroke-width="0.54" stroke-miterlimit="10"/>
    <path d="M247.504 91.6811C247.422 95.0378 244.63 97.6943 241.263 97.6119C237.916 97.5295 235.267 94.7289 235.35 91.3722C235.432 88.0155 238.224 85.3589 241.571 85.4413C244.917 85.5237 247.566 88.3244 247.484 91.6811" fill="#FF1700"/>
    <path d="M247.504 91.6811C247.422 95.0378 244.63 97.6943 241.263 97.6119C237.916 97.5295 235.267 94.7289 235.35 91.3722C235.432 88.0155 238.224 85.3589 241.571 85.4413C244.917 85.5237 247.566 88.3244 247.484 91.6811H247.504Z" stroke="#170486" stroke-width="0.54" stroke-miterlimit="10"/>
    <path d="M244.69 91.6193C244.649 93.4315 243.15 94.8524 241.344 94.7906C239.537 94.7495 238.12 93.2462 238.182 91.4545C238.223 89.6423 239.722 88.2214 241.528 88.2832C243.315 88.3244 244.752 89.8277 244.69 91.6399" fill="#170486"/>
    <mask id="mask2_3763_28592" style="mask-type:luminance" maskUnits="userSpaceOnUse" x="242" y="76" width="12" height="12">
        <path d="M242.02 82.2501L247.974 87.872L253.004 81.6117L245.715 76.3398L242.02 82.2501Z" fill="white"/>
    </mask>
    <g mask="url(#mask2_3763_28592)">
        <path d="M245.57 80.2539C245.57 80.2539 251.011 81.2012 251.771 86.9879" stroke="#170486" stroke-width="0.49" stroke-linecap="round" stroke-linejoin="round"/>
    </g>
    <path d="M232.042 136.224L252.307 122.364C254.319 120.985 254.853 118.225 253.478 116.207L252.615 114.93C251.24 112.912 248.488 112.377 246.476 113.756L226.211 127.616C224.199 128.995 223.686 131.755 225.041 133.773L225.903 135.05C227.279 137.068 230.03 137.603 232.042 136.224Z" fill="#FF1700"/>
    <path d="M226.198 127.629L246.452 113.776C248.471 112.395 251.21 112.915 252.586 114.94L253.454 116.216C254.83 118.24 254.312 120.988 252.294 122.368L232.039 136.221C230.021 137.601 227.282 137.082 225.905 135.057L225.038 133.781C223.661 131.756 224.179 129.009 226.198 127.629Z" stroke="#170486" stroke-width="0.54" stroke-miterlimit="10"/>
    <path d="M260.479 108.732C263.661 112.027 263.558 117.278 260.273 120.47C256.988 123.662 251.753 123.559 248.57 120.264C245.388 116.97 245.49 111.718 248.775 108.526C252.061 105.334 257.296 105.437 260.479 108.732Z" fill="#FF1700"/>
    <path d="M260.479 108.732C263.661 112.027 263.558 117.278 260.273 120.47C256.988 123.662 251.753 123.559 248.57 120.264C245.388 116.97 245.49 111.718 248.775 108.526C252.061 105.334 257.296 105.437 260.479 108.732Z" stroke="#170486" stroke-width="0.49" stroke-miterlimit="10"/>
    <path d="M258.222 110.916C260.193 112.955 260.131 116.209 258.099 118.186C256.066 120.162 252.822 120.101 250.851 118.062C248.88 116.023 248.941 112.77 250.974 110.793C253.007 108.816 256.251 108.877 258.222 110.916Z" fill="#FF1700"/>
    <path d="M258.222 110.916C260.193 112.955 260.131 116.209 258.099 118.186C256.066 120.162 252.822 120.101 250.851 118.062C248.88 116.023 248.941 112.77 250.974 110.793C253.007 108.816 256.251 108.877 258.222 110.916Z" stroke="#170486" stroke-width="0.49" stroke-miterlimit="10"/>
    <path d="M227.649 133.28C228.779 134.68 230.811 134.907 232.208 133.774C233.604 132.642 233.83 130.603 232.7 129.202C231.571 127.802 229.538 127.576 228.142 128.708C226.746 129.841 226.52 131.88 227.649 133.28Z" fill="#FF1700"/>
    <path d="M227.649 133.28C228.779 134.68 230.811 134.907 232.208 133.774C233.604 132.642 233.83 130.603 232.7 129.202C231.571 127.802 229.538 127.576 228.142 128.708C226.746 129.841 226.52 131.88 227.649 133.28Z" stroke="#170486" stroke-width="0.52" stroke-miterlimit="10"/>
    <mask id="mask3_3763_28592" style="mask-type:luminance" maskUnits="userSpaceOnUse" x="235" y="101" width="11" height="13">
        <path d="M235.266 105.004L239.393 113.035L245.367 109.431L242.596 101.709L235.266 105.004Z" fill="white"/>
    </mask>
    <g mask="url(#mask3_3763_28592)">
        <path d="M241.302 109.596C241.302 109.596 236.867 106.281 238.818 100.782" stroke="#170486" stroke-width="0.49" stroke-linecap="round" stroke-linejoin="round"/>
    </g>
    <defs>
        <linearGradient id="paint0_linear_3763_28592" x1="154.006" y1="95.4148" x2="158.632" y2="145.427" gradientUnits="userSpaceOnUse">
            <stop stop-color="#1598FF"/>
            <stop offset="0.99" stop-color="#170486"/>
            <stop offset="1" stop-color="#170486"/>
        </linearGradient>
        <linearGradient id="paint1_linear_3763_28592" x1="233.181" y1="55.027" x2="221.746" y2="94.3701" gradientUnits="userSpaceOnUse">
            <stop stop-color="#170486"/>
            <stop offset="0.01" stop-color="#170486"/>
            <stop offset="1" stop-color="#1598FF"/>
        </linearGradient>
    </defs>
</svg>
