<svg width="375" height="306" viewBox="0 0 375 306" fill="none" xmlns="http://www.w3.org/2000/svg">
    <path d="M217.046 56.0254C217.046 56.0254 196.907 61.6054 190.321 86.4454" stroke="#170486" stroke-width="0.48" stroke-miterlimit="10"/>
    <mask id="mask0_3403_18485" style="mask-type:luminance" maskUnits="userSpaceOnUse" x="187" y="32" width="57" height="48">
        <path d="M187.849 50.3305C187.849 50.3305 206.549 51.0505 227.048 75.2155C227.497 75.7555 228.037 76.2055 228.509 76.7005C231.026 79.378 234.712 80.5255 238.286 79.7605C238.309 79.7605 238.354 79.7605 238.376 79.7605C246.445 61.918 245.951 44.5255 235.746 36.583C231.903 33.5905 227.452 32.1055 222.53 32.1055C212.505 32.1055 200.548 38.2705 187.849 50.3305Z" fill="white"/>
    </mask>
    <g mask="url(#mask0_3403_18485)">
        <path d="M191.455 17.9959L176.209 77.5645L242.836 94.6518L258.081 35.0832L191.455 17.9959Z" fill="url(#paint0_linear_3403_18485)"/>
    </g>
    <path d="M238.376 79.7634C238.376 79.7634 238.309 79.7634 238.286 79.7634C234.712 80.5284 231.026 79.3809 228.509 76.7034C228.037 76.2084 227.497 75.7584 227.048 75.2184C206.572 51.0309 187.849 50.3334 187.849 50.3334C206.774 32.3334 224.081 27.4959 235.769 36.5859C245.973 44.5284 246.468 61.9209 238.399 79.7634H238.376Z" stroke="#170486" stroke-width="0.48" stroke-miterlimit="10"/>
    <path d="M237.365 58.8588C237.702 61.2213 236.578 63.6288 234.375 64.8663C231.521 66.4638 227.925 65.4288 226.329 62.5713C225.542 61.1313 225.407 59.5113 225.812 58.0488" stroke="#170486" stroke-width="0.48" stroke-miterlimit="10"/>
    <mask id="mask1_3403_18485" style="mask-type:luminance" maskUnits="userSpaceOnUse" x="227" y="44" width="10" height="10">
        <path d="M227.43 51.6368L235.184 53.3918L236.308 45.6518L227.587 44.8418L227.43 51.6368Z" fill="white"/>
    </mask>
    <g mask="url(#mask1_3403_18485)">
        <path d="M229.407 48.195C229.407 48.195 234.442 46.2825 237.926 50.76" stroke="#170486" stroke-width="0.44" stroke-linecap="round" stroke-linejoin="round"/>
    </g>
    <mask id="mask2_3403_18485" style="mask-type:luminance" maskUnits="userSpaceOnUse" x="233" y="67" width="11" height="12">
        <path d="M233.004 74.0248L240.421 78.7048L243.635 72.7198L237.522 67.6348L233.004 74.0248Z" fill="white"/>
    </mask>
    <g mask="url(#mask2_3403_18485)">
        <path d="M240.332 74.9023C240.332 74.9023 234.982 74.3398 233.881 68.7598" stroke="#170486" stroke-width="0.44" stroke-linecap="round" stroke-linejoin="round"/>
    </g>
    <path d="M121.456 61.1803L120.948 63.1172L137.123 67.3679L137.631 65.4311L121.456 61.1803Z" fill="#FF1700"/>
    <path d="M121.456 61.1803L120.948 63.1172L137.123 67.3679L137.631 65.4311L121.456 61.1803Z" stroke="#170486" stroke-width="0.48" stroke-miterlimit="10"/>
    <path d="M173.509 76.1166L184.545 69.1191C184.545 69.1191 187.107 67.0491 184.05 64.9791L137.097 59.8941C137.097 59.8941 131.298 59.2641 129.792 65.2491C129.792 65.2491 128.87 70.1091 135.321 70.8291L173.509 76.1391V76.1166Z" fill="#FF1700"/>
    <path d="M173.509 76.1166L184.545 69.1191C184.545 69.1191 187.107 67.0491 184.05 64.9791L137.097 59.8941C137.097 59.8941 131.298 59.2641 129.792 65.2491C129.792 65.2491 128.87 70.1091 135.321 70.8291L173.509 76.1391V76.1166Z" stroke="#170486" stroke-width="0.48" stroke-miterlimit="10"/>
    <path d="M137.838 62.5278C136.062 62.2128 134.354 63.3828 134.04 65.1603C133.702 66.9378 134.894 68.6478 136.669 68.9628C138.445 69.3003 140.153 68.1078 140.468 66.3303C140.783 64.5528 139.614 62.8428 137.838 62.5278Z" fill="#FF1700"/>
    <path d="M137.838 62.5278C136.062 62.2128 134.354 63.3828 134.04 65.1603C133.702 66.9378 134.894 68.6478 136.669 68.9628C138.445 69.3003 140.153 68.1078 140.468 66.3303C140.783 64.5528 139.614 62.8428 137.838 62.5278Z" stroke="#170486" stroke-width="0.48" stroke-miterlimit="10"/>
    <path d="M121.587 67.4552L99.6952 62.7977C96.9755 62.2127 95.2224 59.5352 95.8067 56.7902C96.3911 54.0677 99.0659 52.3127 101.808 52.8977L123.7 57.5552C126.42 58.1402 128.173 60.8177 127.589 63.5627C127.004 66.2852 124.33 68.0402 121.587 67.4552Z" fill="#FF1700"/>
    <path d="M121.587 67.4552L99.6952 62.7977C96.9755 62.2127 95.2224 59.5352 95.8067 56.7902C96.3911 54.0677 99.0659 52.3127 101.808 52.8977L123.7 57.5552C126.42 58.1402 128.173 60.8177 127.589 63.5627C127.004 66.2852 124.33 68.0402 121.587 67.4552Z" stroke="#170486" stroke-width="0.48" stroke-miterlimit="10"/>
    <path d="M86.5467 53.392C84.9059 57.532 86.9063 62.2345 91.042 63.877C95.1777 65.5195 99.8529 63.517 101.516 59.377C103.157 55.237 101.157 50.5345 97.0208 48.892C92.8851 47.2495 88.1875 49.252 86.5467 53.392Z" fill="#FF1700"/>
    <path d="M86.5467 53.392C84.9059 57.532 86.9063 62.2345 91.042 63.877C95.1777 65.5195 99.8529 63.517 101.516 59.377C103.157 55.237 101.157 50.5345 97.0208 48.892C92.8851 47.2495 88.1875 49.252 86.5467 53.392Z" stroke="#170486" stroke-width="0.44" stroke-miterlimit="10"/>
    <path d="M89.3781 54.518C88.3666 57.083 89.6028 59.9855 92.1652 60.998C94.7275 62.0105 97.627 60.773 98.6384 58.208C99.6499 55.643 98.4137 52.7405 95.8513 51.728C93.289 50.7155 90.3895 51.953 89.3781 54.518Z" fill="#FF1700"/>
    <path d="M89.3781 54.518C88.3666 57.083 89.6028 59.9855 92.1652 60.998C94.7275 62.0105 97.627 60.773 98.6384 58.208C99.6499 55.643 98.4137 52.7405 95.8513 51.728C93.289 50.7155 90.3895 51.953 89.3781 54.518Z" stroke="#170486" stroke-width="0.44" stroke-miterlimit="10"/>
    <path d="M125.184 63.3386C124.689 65.0036 122.936 65.9711 121.25 65.4761C119.587 64.9811 118.62 63.2261 119.115 61.5386C119.609 59.8736 121.363 58.9061 123.048 59.4011C124.712 59.8961 125.678 61.6511 125.184 63.3386Z" fill="#FF1700"/>
    <path d="M125.184 63.3386C124.689 65.0036 122.936 65.9711 121.25 65.4761C119.587 64.9811 118.62 63.2261 119.115 61.5386C119.609 59.8736 121.363 58.9061 123.048 59.4011C124.712 59.8961 125.678 61.6511 125.184 63.3386Z" stroke="#170486" stroke-width="0.47" stroke-miterlimit="10"/>
    <path d="M56.8324 82.0808C52.9215 87.1658 53.888 94.4558 58.9677 98.3708L103.269 132.368C108.349 136.283 115.631 135.316 119.542 130.208C123.431 125.123 122.487 117.833 117.384 113.918L73.083 79.9433C68.0033 76.0283 60.7209 76.9958 56.8099 82.0808" fill="#FF1700"/>
    <path d="M56.8324 82.0808C52.9215 87.1658 53.888 94.4558 58.9677 98.3708L103.269 132.368C108.349 136.283 115.631 135.316 119.542 130.208C123.431 125.123 122.487 117.833 117.384 113.918L73.083 79.9433C68.0033 76.0283 60.7209 76.9958 56.8099 82.0808H56.8324Z" stroke="#170486" stroke-width="0.48" stroke-miterlimit="10"/>
    <mask id="mask3_3403_18485" style="mask-type:luminance" maskUnits="userSpaceOnUse" x="83" y="53" width="128" height="93">
        <path d="M184.567 54.8319C184.095 55.5969 183.6 56.3619 183.106 57.1269C183.061 57.1944 183.016 57.2619 182.971 57.3294C181.645 59.3094 176.385 67.0944 173.823 70.0194C171.328 72.8769 168.743 75.5769 166.114 78.1644C166.114 78.1644 166.114 78.1644 166.091 78.1644C165.304 78.9294 164.518 79.6944 163.731 80.4369C163.529 80.6169 163.326 80.8194 163.124 80.9994C160.674 83.2494 158.157 85.3869 155.639 87.3894C155.505 87.5019 155.37 87.6144 155.212 87.7269C146.761 94.3644 137.973 99.5619 129.364 103.139C129.162 103.229 128.96 103.297 128.757 103.387C126.959 104.129 125.184 104.782 123.408 105.367C123.026 105.502 122.644 105.614 122.262 105.749H122.239C121.385 106.019 120.531 106.267 119.699 106.514C117.025 107.257 114.372 107.842 111.788 108.247C101.313 109.912 91.626 108.787 83.7592 104.534C83.3771 110.272 84.0064 115.717 85.7146 120.667C86.0967 121.747 86.5238 122.827 86.9958 123.862C87.4229 124.784 87.8949 125.662 88.3894 126.539C88.9962 127.597 89.6705 128.632 90.4123 129.622C91.8283 131.512 93.4241 133.222 95.1998 134.774C96.8631 136.237 98.7061 137.564 100.662 138.734C122.059 151.492 156.651 147.329 188.95 123.614C193.76 120.082 200.638 111.959 205.29 106.109L205.335 106.064C208.325 102.307 210.393 99.5169 210.393 99.5169C211.786 88.4019 207.74 72.9219 195.85 61.1544C192.928 58.2519 189.534 55.5744 185.623 53.2344C185.309 53.7519 184.994 54.2694 184.657 54.7869" fill="white"/>
    </mask>
    <g mask="url(#mask3_3403_18485)">
        <path d="M205.021 24.7289L61.502 58.373L89.9658 180.046L233.485 146.402L205.021 24.7289Z" fill="url(#paint1_linear_3403_18485)"/>
    </g>
    <path d="M210.303 99.5637C210.303 99.5637 208.235 102.354 205.246 106.111L205.201 106.156C200.548 112.006 193.67 120.129 188.86 123.661C156.584 147.376 121.97 151.539 100.572 138.781C98.6168 137.611 96.7737 136.306 95.1104 134.821C93.3348 133.269 91.7389 131.559 90.3229 129.669C89.5812 128.679 88.9069 127.644 88.3 126.586C87.783 125.709 87.3335 124.809 86.9065 123.909C86.412 122.874 85.9849 121.794 85.6253 120.714C83.9171 115.764 83.3102 110.319 83.6698 104.581C91.5366 108.834 101.224 109.959 111.698 108.294C114.283 107.889 116.935 107.304 119.61 106.561C120.464 106.336 121.296 106.066 122.15 105.796C122.15 105.796 122.15 105.796 122.172 105.796C122.554 105.684 122.937 105.549 123.341 105.414C125.117 104.829 126.892 104.154 128.691 103.434C128.893 103.344 129.095 103.276 129.297 103.186C137.928 99.5862 146.694 94.4112 155.146 87.7737C155.28 87.6612 155.438 87.5487 155.573 87.4362C158.09 85.4337 160.607 83.2962 163.057 81.0237C163.26 80.8437 163.462 80.6412 163.664 80.4612C164.451 79.7187 165.26 78.9762 166.024 78.2112C168.654 75.6462 171.239 72.9237 173.734 70.0662C176.296 67.1412 181.578 59.3562 182.882 57.3762C182.927 57.3087 182.972 57.2412 183.017 57.1737C183.511 56.4087 184.006 55.6437 184.5 54.8787C184.837 54.3612 185.152 53.8437 185.467 53.3262C189.377 55.6662 192.794 58.3437 195.693 61.2462C207.584 73.0362 211.629 88.5162 210.236 99.6087L210.303 99.5637Z" stroke="#170486" stroke-width="0.48" stroke-miterlimit="10"/>
    <path d="M182.948 57.5547C193.939 73.9572 196.075 86.4222 195.108 100.8C195.108 100.8 164.045 147.825 87.9395 125.91" stroke="#170486" stroke-width="0.48" stroke-miterlimit="10"/>
    <path d="M179.015 63.043C184.117 74.7655 185.533 86.848 183.106 98.458C183.106 98.458 149.638 138.215 84.8379 118.1" stroke="#170486" stroke-width="0.48" stroke-miterlimit="10"/>
    <path d="M112.484 37.9336C115.586 40.7911 115.788 45.6511 112.934 48.7561L71.9141 93.3961C69.0596 96.5236 64.2046 96.7261 61.1028 93.8461C58.0011 90.9661 57.7763 86.1286 60.6533 83.0236L101.651 38.3836C104.505 35.2786 109.36 35.0761 112.462 37.9336" fill="#FF1700"/>
    <path d="M112.484 37.9336C115.586 40.7911 115.788 45.6511 112.934 48.7561L71.9141 93.3961C69.0596 96.5236 64.2046 96.7261 61.1028 93.8461C58.0011 90.9661 57.7763 86.1286 60.6533 83.0236L101.651 38.3836C104.505 35.2786 109.36 35.0761 112.462 37.9336H112.484Z" stroke="#170486" stroke-width="0.48" stroke-miterlimit="10"/>
    <path d="M96.2334 35.7758C98.8407 31.6358 104.28 30.3758 108.438 32.9858C112.574 35.5958 113.833 41.0633 111.225 45.2033C108.641 49.3433 103.179 50.6033 99.043 47.9933C94.9073 45.3833 93.6486 39.9158 96.2559 35.7758" fill="#FF1700"/>
    <path d="M96.2334 35.7758C98.8407 31.6358 104.28 30.3758 108.438 32.9858C112.574 35.5958 113.833 41.0633 111.225 45.2033C108.641 49.3433 103.179 50.6033 99.043 47.9933C94.9073 45.3833 93.6486 39.9158 96.2559 35.7758H96.2334Z" stroke="#170486" stroke-width="0.48" stroke-miterlimit="10"/>
    <path d="M99.0883 37.5756C100.684 35.0106 104.078 34.2456 106.64 35.8431C109.203 37.4406 109.967 40.8381 108.371 43.4031C106.753 45.9681 103.381 46.7331 100.819 45.1356C98.2567 43.5381 97.4925 40.1406 99.0883 37.5756Z" fill="#FF1700"/>
    <path d="M99.0883 37.5756C100.684 35.0106 104.078 34.2456 106.64 35.8431C109.203 37.4406 109.967 40.8381 108.371 43.4031C106.753 45.9681 103.381 46.7331 100.819 45.1356C98.2567 43.5381 97.4925 40.1406 99.0883 37.5756Z" stroke="#170486" stroke-width="0.48" stroke-miterlimit="10"/>
    <path d="M131.746 198.361C137.95 196.808 141.748 190.486 140.175 184.276L126.622 130.051C125.071 123.818 118.777 120.038 112.551 121.613C106.325 123.166 102.549 129.488 104.123 135.698L117.676 189.923C119.227 196.133 125.543 199.913 131.746 198.361Z" fill="#FF1700"/>
    <path d="M131.746 198.361C137.95 196.808 141.748 190.486 140.175 184.276L126.622 130.051C125.071 123.818 118.777 120.038 112.551 121.613C106.325 123.166 102.549 129.488 104.123 135.698L117.676 189.923C119.227 196.133 125.543 199.913 131.746 198.361Z" stroke="#170486" stroke-width="0.48" stroke-miterlimit="10"/>
    <path d="M125.566 257.557C121.34 257.287 118.148 253.62 118.44 249.39L122.464 188.887C122.733 184.657 126.397 181.462 130.623 181.755C134.848 182.025 138.04 185.692 137.748 189.922L133.725 250.425C133.455 254.655 129.791 257.85 125.566 257.557Z" fill="#FF1700"/>
    <path d="M125.566 257.557C121.34 257.287 118.148 253.62 118.44 249.39L122.464 188.887C122.733 184.657 126.397 181.462 130.623 181.755C134.848 182.025 138.04 185.692 137.748 189.922L133.725 250.425C133.455 254.655 129.791 257.85 125.566 257.557Z" stroke="#170486" stroke-width="0.48" stroke-miterlimit="10"/>
    <path d="M139.569 249.029C140.131 253.889 136.67 258.277 131.815 258.862C126.96 259.424 122.577 255.959 121.992 251.099C121.43 246.239 124.892 241.852 129.747 241.267C134.602 240.704 138.985 244.169 139.569 249.029Z" fill="#FF1700"/>
    <path d="M139.569 249.029C140.131 253.889 136.67 258.277 131.815 258.862C126.96 259.424 122.577 255.959 121.992 251.099C121.43 246.239 124.892 241.852 129.747 241.267C134.602 240.704 138.985 244.169 139.569 249.029Z" stroke="#170486" stroke-width="0.48" stroke-miterlimit="10"/>
    <path d="M136.22 249.434C136.579 252.449 134.421 255.172 131.41 255.509C128.398 255.869 125.678 253.709 125.341 250.694C124.981 247.679 127.139 244.957 130.151 244.619C133.163 244.259 135.882 246.419 136.22 249.434Z" fill="#FF1700"/>
    <path d="M136.22 249.434C136.579 252.449 134.421 255.172 131.41 255.509C128.398 255.869 125.678 253.709 125.341 250.694C124.981 247.679 127.139 244.957 130.151 244.619C133.163 244.259 135.882 246.419 136.22 249.434Z" stroke="#170486" stroke-width="0.48" stroke-miterlimit="10"/>
    <path d="M249.03 127.395C211.787 127.395 181.623 157.612 181.623 194.872C181.623 232.132 211.809 262.35 249.03 262.35C286.252 262.35 316.438 232.132 316.438 194.872C316.438 157.612 286.252 127.395 249.03 127.395ZM249.03 255.96C215.383 255.96 188.006 228.555 188.006 194.872C188.006 161.19 215.383 133.785 249.03 133.785C282.678 133.785 310.055 161.19 310.055 194.872C310.055 228.555 282.678 255.96 249.03 255.96Z" fill="#FF1700"/>
    <path d="M249.03 127.395C211.787 127.395 181.623 157.612 181.623 194.872C181.623 232.132 211.809 262.35 249.03 262.35C286.252 262.35 316.438 232.132 316.438 194.872C316.438 157.612 286.252 127.395 249.03 127.395ZM249.03 255.96C215.383 255.96 188.006 228.555 188.006 194.872C188.006 161.19 215.383 133.785 249.03 133.785C282.678 133.785 310.055 161.19 310.055 194.872C310.055 228.555 282.678 255.96 249.03 255.96Z" stroke="#170486" stroke-width="0.48" stroke-miterlimit="10"/>
    <path d="M249.03 127.395C211.787 127.395 181.623 157.612 181.623 194.872C181.623 232.132 211.809 262.35 249.03 262.35C286.252 262.35 316.438 232.132 316.438 194.872C316.438 157.612 286.252 127.395 249.03 127.395ZM249.03 255.96C215.383 255.96 188.006 228.555 188.006 194.872C188.006 161.19 215.383 133.785 249.03 133.785C282.678 133.785 310.055 161.19 310.055 194.872C310.055 228.555 282.678 255.96 249.03 255.96Z" fill="#FF1700"/>
    <path d="M249.03 127.395C211.787 127.395 181.623 157.612 181.623 194.872C181.623 232.132 211.809 262.35 249.03 262.35C286.252 262.35 316.438 232.132 316.438 194.872C316.438 157.612 286.252 127.395 249.03 127.395ZM249.03 255.96C215.383 255.96 188.006 228.555 188.006 194.872C188.006 161.19 215.383 133.785 249.03 133.785C282.678 133.785 310.055 161.19 310.055 194.872C310.055 228.555 282.678 255.96 249.03 255.96Z" stroke="#170486" stroke-width="0.48" stroke-miterlimit="10"/>
    <path d="M235.365 36.6055L223.362 46.1005C223.362 46.1005 208.82 50.443 195.761 43.4905" stroke="#170486" stroke-width="0.48" stroke-miterlimit="10"/>
    <path d="M232.622 34.5371L221.338 41.7596C221.338 41.7596 211.404 43.0196 203.717 38.4746" stroke="#170486" stroke-width="0.48" stroke-miterlimit="10"/>
    <path d="M228.538 120.196L227.834 122.07L243.485 127.966L244.19 126.091L228.538 120.196Z" fill="#FF1700"/>
    <path d="M228.538 120.196L227.834 122.07L243.485 127.966L244.19 126.091L228.538 120.196Z" stroke="#170486" stroke-width="0.48" stroke-miterlimit="10"/>
    <path d="M243.322 131.67L265.708 132.007C268.495 132.052 270.788 129.825 270.833 127.035C270.878 124.245 268.653 121.95 265.866 121.905L243.479 121.567C240.692 121.522 238.399 123.75 238.354 126.54C238.309 129.33 240.534 131.625 243.322 131.67Z" fill="#FF1700"/>
    <path d="M243.322 131.67L265.708 132.007C268.495 132.052 270.788 129.825 270.833 127.035C270.878 124.245 268.653 121.95 265.866 121.905L243.479 121.567C240.692 121.522 238.399 123.75 238.354 126.54C238.309 129.33 240.534 131.625 243.322 131.67Z" stroke="#170486" stroke-width="0.48" stroke-miterlimit="10"/>
    <path d="M280.632 125.776C281.306 130.186 278.294 134.303 273.911 134.978C269.506 135.653 265.393 132.661 264.696 128.251C264.022 123.841 267.033 119.723 271.416 119.048C275.822 118.373 279.935 121.366 280.609 125.776" fill="#FF1700"/>
    <path d="M280.632 125.776C281.306 130.186 278.294 134.303 273.911 134.978C269.506 135.653 265.393 132.661 264.696 128.251C264.022 123.841 267.033 119.723 271.416 119.048C275.822 118.373 279.935 121.366 280.609 125.776H280.632Z" stroke="#170486" stroke-width="0.44" stroke-miterlimit="10"/>
    <path d="M277.598 126.249C278.025 128.971 276.16 131.536 273.44 131.941C270.72 132.369 268.158 130.501 267.731 127.779C267.304 125.056 269.169 122.491 271.889 122.086C274.609 121.659 277.171 123.526 277.576 126.249" fill="#FF1700"/>
    <path d="M277.598 126.249C278.025 128.971 276.16 131.536 273.44 131.941C270.72 132.369 268.158 130.501 267.731 127.779C267.304 125.056 269.169 122.491 271.889 122.086C274.609 121.659 277.171 123.526 277.576 126.249H277.598Z" stroke="#170486" stroke-width="0.44" stroke-miterlimit="10"/>
    <path d="M240.736 126.855C240.849 128.61 242.354 129.915 244.085 129.803C245.838 129.69 247.142 128.183 247.03 126.45C246.917 124.718 245.411 123.39 243.681 123.503C241.95 123.615 240.624 125.123 240.736 126.855Z" fill="#FF1700"/>
    <path d="M240.736 126.855C240.849 128.61 242.354 129.915 244.085 129.803C245.838 129.69 247.142 128.183 247.03 126.45C246.917 124.718 245.411 123.39 243.681 123.503C241.95 123.615 240.624 125.123 240.736 126.855Z" stroke="#170486" stroke-width="0.47" stroke-miterlimit="10"/>
    <path d="M199.334 98.5052L198.098 85.5002C198.098 85.5002 198.165 82.2152 201.671 83.3402L234.465 117.338C234.465 117.338 238.511 121.545 234.735 126.405C234.735 126.405 231.453 130.118 226.935 125.438L199.334 98.5052Z" fill="#FF1700"/>
    <path d="M199.334 98.5052L198.098 85.5002C198.098 85.5002 198.165 82.2152 201.671 83.3402L234.465 117.338C234.465 117.338 238.511 121.545 234.735 126.405C234.735 126.405 231.453 130.118 226.935 125.438L199.334 98.5052Z" stroke="#170486" stroke-width="0.48" stroke-miterlimit="10"/>
    <path d="M231.925 118.372C233.274 119.587 233.386 121.634 232.173 122.984C230.959 124.334 228.913 124.447 227.565 123.232C226.216 122.039 226.104 119.969 227.318 118.619C228.509 117.269 230.577 117.157 231.925 118.349" fill="#FF1700"/>
    <path d="M231.925 118.372C233.274 119.587 233.386 121.634 232.173 122.984C230.959 124.334 228.913 124.447 227.565 123.232C226.216 122.039 226.104 119.969 227.318 118.619C228.509 117.269 230.577 117.157 231.925 118.349V118.372Z" stroke="#170486" stroke-width="0.48" stroke-miterlimit="10"/>
    <defs>
        <linearGradient id="paint0_linear_3403_18485" x1="224.321" y1="28.8433" x2="215.758" y2="62.2306" gradientUnits="userSpaceOnUse">
            <stop stop-color="#170486"/>
            <stop offset="0.01" stop-color="#170486"/>
            <stop offset="1" stop-color="#1598FF"/>
        </linearGradient>
        <linearGradient id="paint1_linear_3403_18485" x1="158.169" y1="153.806" x2="133.998" y2="50.6997" gradientUnits="userSpaceOnUse">
            <stop stop-color="#170486"/>
            <stop offset="0.04" stop-color="#170486"/>
            <stop offset="0.4" stop-color="#1568D7"/>
            <stop offset="0.58" stop-color="#1598FF"/>
            <stop offset="1" stop-color="#1598FF"/>
        </linearGradient>
    </defs>
</svg>
