<svg width="253" height="188" viewBox="0 0 253 188" fill="none" xmlns="http://www.w3.org/2000/svg">
    <path d="M76.3724 78.0762C76.3724 78.0762 67.8533 86.1215 71.079 100.166" stroke="#170486" stroke-width="0.44" stroke-miterlimit="10"/>
    <mask id="mask0_2231_9572" style="mask-type:luminance" maskUnits="userSpaceOnUse" x="54" y="50" width="37" height="36">
        <path d="M63.7314 53.4141C55.0193 58.8605 52.0142 69.7811 57.0043 77.8126C61.9945 85.8441 73.1053 87.9314 81.8174 82.485C90.5296 77.0385 93.5347 66.1041 88.5445 58.0864C85.4291 53.0823 79.9289 50.3867 74.1254 50.3867C70.624 50.3867 66.9985 51.3682 63.7314 53.4279" fill="white"/>
    </mask>
    <g mask="url(#mask0_2231_9572)">
        <path d="M81.909 31.6766L35.1973 60.9014L63.6548 106.641L110.367 77.4163L81.909 31.6766Z" fill="url(#paint0_linear_2231_9572)"/>
    </g>
    <path d="M57.0043 77.8132C61.9945 85.8447 73.1053 87.932 81.8174 82.4855C90.5296 77.0391 93.5347 66.1047 88.5445 58.087C83.5543 50.0555 72.4436 47.9682 63.7314 53.4147C55.0193 58.8611 52.0142 69.7955 57.0043 77.8132Z" stroke="#170486" stroke-width="0.44" stroke-miterlimit="10"/>
    <mask id="mask1_2231_9572" style="mask-type:luminance" maskUnits="userSpaceOnUse" x="69" y="53" width="23" height="24">
        <path d="M74.3033 55.0862C69.3958 58.1551 68.169 65.0807 71.5739 70.5548C74.9788 76.0289 81.7197 77.9642 86.6271 74.8954C91.5346 71.8265 92.7615 64.9009 89.3566 59.4268C87.0545 55.7221 83.2084 53.6348 79.4313 53.6348C77.6393 53.6348 75.8748 54.1048 74.2895 55.0862" fill="white"/>
    </mask>
    <g mask="url(#mask1_2231_9572)">
        <path d="M92.7311 52.782L67.3401 53.6533L68.1986 78.8112L93.5896 77.9399L92.7311 52.782Z" fill="url(#paint1_linear_2231_9572)"/>
    </g>
    <path d="M71.5739 70.5543C74.9788 76.0284 81.7197 77.9637 86.6271 74.8949C91.5346 71.8261 92.7615 64.9005 89.3566 59.4264C85.9517 53.9522 79.2108 52.0169 74.3033 55.0858C69.3958 58.1546 68.169 65.0802 71.5739 70.5543Z" stroke="#170486" stroke-width="0.44" stroke-miterlimit="10"/>
    <path d="M74.6083 68.6334C77.3928 73.1122 82.7139 74.8402 86.491 72.4763C90.2681 70.1125 91.0538 64.5693 88.2692 60.0905C85.4847 55.6116 80.1636 53.8837 76.3865 56.2475C72.6094 58.6113 71.8237 64.1546 74.6083 68.6334Z" fill="#170486"/>
    <path d="M74.6083 68.6334C77.3928 73.1122 82.7139 74.8402 86.491 72.4763C90.2681 70.1125 91.0538 64.5693 88.2692 60.0905C85.4847 55.6116 80.1636 53.8837 76.3865 56.2475C72.6094 58.6113 71.8237 64.1546 74.6083 68.6334Z" stroke="#170486" stroke-width="0.44" stroke-miterlimit="10"/>
    <mask id="mask2_2231_9572" style="mask-type:luminance" maskUnits="userSpaceOnUse" x="62" y="76" width="7" height="7">
        <path d="M63.6214 76.5128C62.2153 77.3975 61.788 79.2499 62.6702 80.6599C63.5525 82.0699 65.3997 82.4984 66.8057 81.6137C68.2118 80.729 68.6392 78.8766 67.7569 77.4666C67.1917 76.5543 66.213 76.0566 65.2067 76.0566C64.6691 76.0566 64.1177 76.2087 63.6214 76.5128Z" fill="white"/>
    </mask>
    <g mask="url(#mask2_2231_9572)">
        <path d="M66.7052 72.9769L58.9043 77.8574L63.7056 85.5745L71.5065 80.694L66.7052 72.9769Z" fill="url(#paint2_linear_2231_9572)"/>
    </g>
    <path d="M62.6702 80.6604C63.5525 82.0704 65.3997 82.4989 66.8057 81.6142C68.2118 80.7295 68.6392 78.8771 67.7569 77.4671C66.8747 76.0571 65.0275 75.6286 63.6214 76.5133C62.2153 77.398 61.788 79.2504 62.6702 80.6604Z" stroke="#170486" stroke-width="0.44" stroke-miterlimit="10"/>
    <path d="M63.4975 80.8404C63.8421 81.4072 64.5865 81.5731 65.1517 81.2275C65.7169 80.8681 65.8823 80.1354 65.5377 79.5687C65.1931 79.0019 64.4487 78.836 63.8835 79.1816C63.3183 79.5272 63.1529 80.2737 63.4975 80.8404Z" fill="#170486"/>
    <path d="M73.0907 69.5875C75.8753 74.0663 81.1963 75.7943 84.9734 73.4304C88.7505 71.0666 89.5362 65.5234 86.7517 61.0446C83.9671 56.5657 78.646 54.8378 74.8689 57.2016C71.0918 59.5654 70.3061 65.1087 73.0907 69.5875Z" fill="#FF1700"/>
    <path d="M73.0907 69.5875C75.8753 74.0663 81.1963 75.7943 84.9734 73.4304C88.7505 71.0666 89.5362 65.5234 86.7517 61.0446C83.9671 56.5657 78.646 54.8378 74.8689 57.2016C71.0918 59.5654 70.3061 65.1087 73.0907 69.5875Z" stroke="#170486" stroke-width="0.44" stroke-miterlimit="10"/>
    <path d="M78.095 66.8504C79.2254 68.6612 81.6102 69.2142 83.416 68.0806C85.2219 66.9471 85.7733 64.5556 84.6429 62.7448C83.5125 60.9339 81.1277 60.3809 79.3219 61.5006C77.516 62.6342 76.9646 65.0256 78.095 66.8365" fill="#FF1700"/>
    <path d="M78.095 66.8504C79.2254 68.6612 81.6102 69.2142 83.416 68.0806C85.2219 66.9471 85.7733 64.5556 84.6429 62.7448C83.5125 60.9339 81.1277 60.3809 79.3219 61.5006C77.516 62.6342 76.9646 65.0256 78.095 66.8365V66.8504Z" stroke="#170486" stroke-width="0.44" stroke-miterlimit="10"/>
    <path d="M82.4384 66.546C82.8795 67.251 83.8031 67.4722 84.5061 67.0298C85.2092 66.5875 85.4297 65.6613 84.9886 64.9563C84.5475 64.2513 83.6239 64.0301 82.9208 64.4725C82.2178 64.9148 82.011 65.841 82.4384 66.546Z" fill="#170486"/>
    <mask id="mask3_2231_9572" style="mask-type:luminance" maskUnits="userSpaceOnUse" x="72" y="58" width="7" height="7">
        <path d="M72.3047 62.4819L75.5717 64.4172L78.5493 61.0996L75.0755 58.4316L72.3047 62.4819Z" fill="white"/>
    </mask>
    <g mask="url(#mask3_2231_9572)">
        <path d="M74.4277 62.5089C74.4277 62.5089 74.8689 59.523 78.0118 59.0254" stroke="#170486" stroke-width="0.4" stroke-linecap="round" stroke-linejoin="round"/>
    </g>
    <path d="M54.4395 69.1044C58.9058 71.4406 64.1855 70.1274 66.2257 66.2015C68.2659 62.2618 66.2946 57.1886 61.8282 54.8662" stroke="#170486" stroke-width="0.36" stroke-miterlimit="10"/>
    <path d="M134.146 125.186C135.565 128.489 134.035 132.318 130.741 133.742L102.013 146.114C98.7179 147.538 94.8995 146.004 93.4796 142.7C92.0598 139.396 93.5899 135.567 96.8845 134.143L125.613 121.771C128.907 120.347 132.726 121.882 134.146 125.186Z" fill="#FF1700"/>
    <path d="M134.146 125.186C135.565 128.489 134.035 132.318 130.741 133.742L102.013 146.114C98.7179 147.538 94.8995 146.004 93.4796 142.7C92.0598 139.396 93.5899 135.567 96.8845 134.143L125.613 121.771C128.907 120.347 132.726 121.882 134.146 125.186Z" stroke="#170486" stroke-width="0.44" stroke-miterlimit="10"/>
    <path d="M125.654 169.351C123.297 169.144 121.546 167.057 121.753 164.693L124.717 130.811C124.923 128.448 127.005 126.692 129.362 126.899C131.719 127.107 133.47 129.194 133.263 131.558L130.3 165.439C130.093 167.803 128.011 169.559 125.654 169.351Z" fill="#FF1700"/>
    <path d="M125.654 169.351C123.297 169.144 121.546 167.057 121.753 164.693L124.717 130.811C124.923 128.448 127.005 126.692 129.362 126.899C131.719 127.107 133.47 129.194 133.263 131.558L130.3 165.439C130.093 167.803 128.011 169.559 125.654 169.351Z" stroke="#170486" stroke-width="0.44" stroke-miterlimit="10"/>
    <path d="M133.594 164.734C133.856 167.471 131.857 169.89 129.142 170.153C126.412 170.416 124 168.411 123.738 165.688C123.476 162.951 125.475 160.532 128.19 160.269C130.92 160.007 133.332 162.011 133.594 164.734Z" fill="#FF1700"/>
    <path d="M133.594 164.734C133.856 167.471 131.857 169.89 129.142 170.153C126.412 170.416 124 168.411 123.738 165.688C123.476 162.951 125.475 160.532 128.19 160.269C130.92 160.007 133.332 162.011 133.594 164.734Z" stroke="#170486" stroke-width="0.44" stroke-miterlimit="10"/>
    <path d="M131.719 164.914C131.885 166.601 130.644 168.108 128.962 168.273C127.28 168.439 125.778 167.195 125.612 165.509C125.447 163.822 126.688 162.315 128.369 162.15C130.051 161.984 131.554 163.228 131.719 164.914Z" fill="#FF1700"/>
    <path d="M131.719 164.914C131.885 166.601 130.644 168.108 128.962 168.273C127.28 168.439 125.778 167.195 125.612 165.509C125.447 163.822 126.688 162.315 128.369 162.15C130.051 161.984 131.554 163.228 131.719 164.914Z" stroke="#170486" stroke-width="0.44" stroke-miterlimit="10"/>
    <path d="M107.485 97.3978L97.5391 101.309L97.9517 102.364L107.898 98.4531L107.485 97.3978Z" fill="#FF1700"/>
    <path d="M107.485 97.3978L97.5391 101.309L97.9517 102.364L107.898 98.4531L107.485 97.3978Z" stroke="#170486" stroke-width="0.44" stroke-miterlimit="10"/>
    <path d="M84.7667 87.6816L77.5571 88.9258C77.5571 88.9258 75.7926 89.4372 76.923 91.179L100.109 103.938C100.109 103.938 102.977 105.514 105.044 102.735C105.044 102.735 106.561 100.413 103.377 98.6575L84.7667 87.6816Z" fill="#FF1700"/>
    <path d="M84.7667 87.6816L77.5571 88.9258C77.5571 88.9258 75.7926 89.4372 76.923 91.179L100.109 103.938C100.109 103.938 102.977 105.514 105.044 102.735C105.044 102.735 106.561 100.413 103.377 98.6575L84.7667 87.6816Z" stroke="#170486" stroke-width="0.44" stroke-miterlimit="10"/>
    <path d="M101.971 99.4183C102.881 99.8606 103.253 100.953 102.812 101.865C102.371 102.777 101.268 103.151 100.372 102.708C99.4621 102.266 99.0899 101.174 99.5311 100.262C99.9722 99.3492 101.061 98.9759 101.971 99.4183Z" fill="#FF1700"/>
    <path d="M101.971 99.4183C102.881 99.8606 103.253 100.953 102.812 101.865C102.371 102.777 101.268 103.151 100.372 102.708C99.4621 102.266 99.0899 101.174 99.5311 100.262C99.9722 99.3492 101.061 98.9759 101.971 99.4183Z" stroke="#170486" stroke-width="0.44" stroke-miterlimit="10"/>
    <path d="M109.871 99.5155L119.769 91.8019C121.01 90.8343 121.23 89.051 120.265 87.8208C119.3 86.5766 117.522 86.3555 116.295 87.3231L106.397 95.0366C105.171 96.0043 104.936 97.7875 105.901 99.0178C106.866 100.262 108.644 100.483 109.871 99.5155Z" fill="#FF1700"/>
    <path d="M109.871 99.5155L119.769 91.8019C121.01 90.8343 121.23 89.051 120.265 87.8208C119.3 86.5766 117.522 86.3555 116.295 87.3231L106.397 95.0366C105.171 96.0043 104.936 97.7875 105.901 99.0178C106.866 100.262 108.644 100.483 109.871 99.5155Z" stroke="#170486" stroke-width="0.44" stroke-miterlimit="10"/>
    <path d="M124.096 83.84C125.929 85.5264 126.067 88.3879 124.385 90.2264C122.704 92.0788 119.85 92.2032 118.017 90.5167C116.183 88.8303 116.045 85.9688 117.727 84.1164C119.409 82.2779 122.262 82.1397 124.096 83.8261" fill="#FF1700"/>
    <path d="M124.096 83.84C125.929 85.5264 126.067 88.3879 124.385 90.2264C122.704 92.0788 119.85 92.2032 118.017 90.5167C116.183 88.8303 116.045 85.9688 117.727 84.1164C119.409 82.2779 122.262 82.1397 124.096 83.8261V83.84Z" stroke="#170486" stroke-width="0.4" stroke-miterlimit="10"/>
    <path d="M122.938 85.1117C124.082 86.1623 124.151 87.9317 123.117 89.0653C122.07 90.2126 120.305 90.2817 119.175 89.245C118.03 88.2082 117.962 86.425 118.995 85.2914C120.043 84.1441 121.808 84.075 122.938 85.1117Z" fill="#FF1700"/>
    <path d="M122.938 85.1117C124.082 86.1623 124.151 87.9317 123.117 89.0653C122.07 90.2126 120.305 90.2817 119.175 89.245C118.03 88.2082 117.962 86.425 118.995 85.2914C120.043 84.1441 121.808 84.075 122.938 85.1117Z" stroke="#170486" stroke-width="0.4" stroke-miterlimit="10"/>
    <path d="M107.044 98.3127C107.705 99.0315 108.822 99.0868 109.539 98.4233C110.256 97.7598 110.311 96.6401 109.649 95.9212C108.987 95.2024 107.871 95.1471 107.154 95.8107C106.437 96.4742 106.382 97.5939 107.044 98.3127Z" fill="#FF1700"/>
    <path d="M107.044 98.3127C107.705 99.0315 108.822 99.0868 109.539 98.4233C110.256 97.7598 110.311 96.6401 109.649 95.9212C108.987 95.2024 107.871 95.1471 107.154 95.8107C106.437 96.4742 106.382 97.5939 107.044 98.3127Z" stroke="#170486" stroke-width="0.43" stroke-miterlimit="10"/>
    <mask id="mask4_2231_9572" style="mask-type:luminance" maskUnits="userSpaceOnUse" x="66" y="81" width="46" height="72">
        <path d="M92.528 82.0844C81.2794 83.6326 71.9607 90.4891 66.3778 100.041C66.3502 101.659 66.3778 103.304 66.4467 104.962C67.6322 131.669 81.6929 152.723 97.849 152.004C102.701 151.783 107.195 149.626 111.069 145.991C97.5457 140.406 90.0467 118.661 94.0581 94.5532C94.8025 90.0606 95.9191 85.7753 97.2976 81.7803C97.2563 81.7803 97.2011 81.7803 97.1598 81.7803C95.6296 81.7803 94.0857 81.877 92.528 82.0982" fill="white"/>
    </mask>
    <g mask="url(#mask4_2231_9572)">
        <path d="M67.8997 73.5763L53.4199 150.275L109.521 160.926L124.001 84.2266L67.8997 73.5763Z" fill="url(#paint3_linear_2231_9572)"/>
    </g>
    <path d="M66.4467 104.962C66.3778 103.304 66.3502 101.672 66.3778 100.041C71.9745 90.4893 81.2794 83.6328 92.528 82.0845C94.1271 81.8634 95.7261 81.7666 97.3114 81.7666C95.9191 85.7754 94.8163 90.0469 94.0719 94.5395C90.0605 118.662 97.5595 140.406 111.083 145.977C107.209 149.612 102.715 151.783 97.8628 151.99C81.7067 152.709 67.646 131.642 66.4605 104.949L66.4467 104.962Z" stroke="#170486" stroke-width="0.44" stroke-miterlimit="10"/>
    <path d="M94.7341 92.5205C94.7341 92.5205 77.4477 95.6723 75.2559 106.247C75.2559 106.247 79.2122 151.92 106.176 149.681" stroke="#170486" stroke-width="0.44" stroke-miterlimit="10"/>
    <path d="M94.0716 95.7422C89.5777 97.6498 84.5324 100.912 83.4434 106.11C83.4434 106.11 86.7518 147.594 110.834 146.101" stroke="#170486" stroke-width="0.44" stroke-miterlimit="10"/>
    <path d="M103.327 96.9816L94.6875 103.283L95.3524 104.2L103.992 97.8983L103.327 96.9816Z" fill="#FF1700"/>
    <path d="M103.327 96.9816L94.6875 103.283L95.3524 104.2L103.992 97.8983L103.327 96.9816Z" stroke="#170486" stroke-width="0.44" stroke-miterlimit="10"/>
    <path d="M78.9087 93.3086L72.2505 96.3359C72.2505 96.3359 70.6652 97.2759 72.1954 98.6721L97.8355 105.169C97.8355 105.169 101.006 105.971 102.302 102.764C102.302 102.764 103.198 100.137 99.669 99.2389L78.9087 93.3086Z" fill="#FF1700"/>
    <path d="M78.9087 93.3086L72.2505 96.3359C72.2505 96.3359 70.6652 97.2759 72.1954 98.6721L97.8355 105.169C97.8355 105.169 101.006 105.971 102.302 102.764C102.302 102.764 103.198 100.137 99.669 99.2389L78.9087 93.3086Z" stroke="#170486" stroke-width="0.44" stroke-miterlimit="10"/>
    <path d="M98.5112 100.344C99.5037 100.538 100.138 101.505 99.9448 102.501C99.7519 103.496 98.7869 104.132 97.7944 103.938C96.8019 103.731 96.1677 102.777 96.3607 101.782C96.5675 100.787 97.5187 100.151 98.5112 100.344Z" fill="#FF1700"/>
    <path d="M98.5112 100.344C99.5037 100.538 100.138 101.505 99.9448 102.501C99.7519 103.496 98.7869 104.132 97.7944 103.938C96.8019 103.731 96.1677 102.777 96.3607 101.782C96.5675 100.787 97.5187 100.151 98.5112 100.344Z" stroke="#170486" stroke-width="0.44" stroke-miterlimit="10"/>
    <path d="M106.162 98.4511L113.813 88.4843C114.764 87.2402 114.53 85.4569 113.289 84.5031C112.049 83.5493 110.27 83.7843 109.319 85.0284L101.668 94.9952C100.717 96.2393 100.952 98.0225 102.192 98.9763C103.433 99.9302 105.211 99.6952 106.162 98.4511Z" fill="#FF1700"/>
    <path d="M106.162 98.4511L113.813 88.4843C114.764 87.2402 114.53 85.4569 113.289 84.5031C112.049 83.5493 110.27 83.7843 109.319 85.0284L101.668 94.9952C100.717 96.2393 100.952 98.0225 102.192 98.9763C103.433 99.9302 105.211 99.6952 106.162 98.4511Z" stroke="#170486" stroke-width="0.44" stroke-miterlimit="10"/>
    <path d="M116.005 79.6785C118.211 80.8535 119.052 83.5906 117.88 85.7885C116.708 88.0003 113.979 88.8435 111.787 87.6685C109.582 86.4935 108.741 83.7565 109.899 81.5585C111.07 79.3468 113.786 78.5035 115.992 79.6647" fill="#FF1700"/>
    <path d="M116.005 79.6785C118.211 80.8535 119.052 83.5906 117.88 85.7885C116.708 88.0003 113.979 88.8435 111.787 87.6685C109.582 86.4935 108.741 83.7565 109.899 81.5585C111.07 79.3468 113.786 78.5035 115.992 79.6647L116.005 79.6785Z" stroke="#170486" stroke-width="0.4" stroke-miterlimit="10"/>
    <path d="M115.204 81.1989C116.568 81.9177 117.092 83.618 116.362 84.9865C115.645 86.355 113.949 86.8803 112.585 86.1615C111.22 85.4427 110.696 83.7424 111.413 82.3739C112.13 81.0053 113.825 80.48 115.19 81.1989" fill="#FF1700"/>
    <path d="M115.204 81.1989C116.568 81.9177 117.092 83.618 116.362 84.9865C115.645 86.355 113.949 86.8803 112.585 86.1615C111.22 85.4427 110.696 83.7424 111.413 82.3739C112.13 81.0053 113.825 80.48 115.19 81.1989H115.204Z" stroke="#170486" stroke-width="0.4" stroke-miterlimit="10"/>
    <path d="M103.143 97.9953C103.956 98.5344 105.059 98.2994 105.597 97.47C106.134 96.6544 105.9 95.5485 105.073 95.0094C104.259 94.4703 103.157 94.7053 102.619 95.5347C102.081 96.3503 102.316 97.4562 103.143 97.9953Z" fill="#FF1700"/>
    <path d="M103.143 97.9953C103.956 98.5344 105.059 98.2994 105.597 97.47C106.134 96.6544 105.9 95.5485 105.073 95.0094C104.259 94.4703 103.157 94.7053 102.619 95.5347C102.081 96.3503 102.316 97.4562 103.143 97.9953Z" stroke="#170486" stroke-width="0.43" stroke-miterlimit="10"/>
    <path d="M128.051 121.91C129.899 124.992 128.906 129.001 125.818 130.854L99.0063 146.986C95.9322 148.838 91.9345 147.843 90.0873 144.746C88.2401 141.664 89.2327 137.655 92.3067 135.802L119.119 119.67C122.193 117.818 126.19 118.813 128.038 121.91" fill="#FF1700"/>
    <path d="M128.051 121.91C129.899 124.992 128.906 129.001 125.818 130.854L99.0063 146.986C95.9322 148.838 91.9345 147.843 90.0873 144.746C88.2401 141.664 89.2327 137.655 92.3067 135.802L119.119 119.67C122.193 117.818 126.19 118.813 128.038 121.91H128.051Z" stroke="#170486" stroke-width="0.44" stroke-miterlimit="10"/>
    <path d="M116.102 164.873C113.786 164.375 112.311 162.08 112.807 159.758L119.961 126.499C120.458 124.176 122.746 122.697 125.062 123.209C127.378 123.706 128.853 126.001 128.343 128.323L121.188 161.569C120.692 163.891 118.404 165.37 116.088 164.859" fill="#FF1700"/>
    <path d="M116.102 164.873C113.786 164.375 112.311 162.08 112.807 159.758L119.961 126.499C120.458 124.176 122.746 122.697 125.062 123.209C127.378 123.706 128.853 126.001 128.343 128.323L121.188 161.569C120.692 163.891 118.404 165.37 116.088 164.859L116.102 164.873Z" stroke="#170486" stroke-width="0.44" stroke-miterlimit="10"/>
    <path d="M124.563 161.292C124.481 164.029 122.206 166.199 119.463 166.117C116.734 166.034 114.583 163.753 114.652 161.002C114.735 158.265 117.009 156.108 119.752 156.177C122.482 156.26 124.632 158.541 124.563 161.292Z" fill="#FF1700"/>
    <path d="M124.563 161.292C124.481 164.029 122.206 166.199 119.463 166.117C116.734 166.034 114.583 163.753 114.652 161.002C114.735 158.265 117.009 156.108 119.752 156.177C122.482 156.26 124.632 158.541 124.563 161.292Z" stroke="#170486" stroke-width="0.44" stroke-miterlimit="10"/>
    <path d="M122.674 161.239C122.619 162.939 121.213 164.266 119.518 164.225C117.822 164.169 116.499 162.759 116.54 161.059C116.595 159.359 118.001 158.032 119.697 158.073C121.392 158.115 122.716 159.539 122.674 161.239Z" fill="#FF1700"/>
    <path d="M122.674 161.239C122.619 162.939 121.213 164.266 119.518 164.225C117.822 164.169 116.499 162.759 116.54 161.059C116.595 159.359 118.001 158.032 119.697 158.073C121.392 158.115 122.716 159.539 122.674 161.239Z" stroke="#170486" stroke-width="0.44" stroke-miterlimit="10"/>
    <path d="M148.95 162.814L148.826 162.648C149.033 162.773 149.074 162.8 148.95 162.814Z" fill="#FF1700"/>
    <mask id="mask5_2231_9572" style="mask-type:luminance" maskUnits="userSpaceOnUse" x="114" y="12" width="52" height="135">
        <path d="M137.551 12.3167C137.524 12.4135 137.413 12.4688 137.358 12.5517C137.358 12.5517 133.154 18.5373 128.908 29.1676C127.336 33.1073 124.097 41.1388 121.092 52.8749C121.092 52.9164 121.078 52.9579 121.064 52.9994C118.238 64.0996 115.633 78.4761 114.847 95.8246C114.282 110.353 115.164 125.366 117.494 140.806C117.646 141.774 118.073 144.138 118.431 146.059C120.141 143.17 131.927 141.263 142.817 136.051C154.534 130.453 159.304 126.499 165.163 120.375C169.794 115.523 149.448 92.6176 153.018 33.9505C153.307 29.3196 138.792 12.2891 137.62 12.2891C137.592 12.2891 137.565 12.3029 137.551 12.3444" fill="white"/>
    </mask>
    <g mask="url(#mask5_2231_9572)">
        <path d="M169.809 12.2754H114.297V146.046H169.809V12.2754Z" fill="url(#paint4_linear_2231_9572)"/>
    </g>
    <path d="M142.829 136.037C131.925 141.249 120.139 143.156 118.443 146.045C118.085 144.124 117.657 141.774 117.506 140.792C115.176 125.352 114.294 110.353 114.859 95.8106C115.631 78.4759 118.236 64.0856 121.076 52.9853C121.076 52.9439 121.09 52.9024 121.104 52.8609C124.109 41.1248 127.348 33.0933 128.92 29.1536C133.165 18.5233 137.37 12.5377 137.37 12.5377C137.425 12.4548 137.535 12.3995 137.563 12.3027C137.907 11.2106 153.319 29.1398 153.03 33.9089C149.459 92.5759 169.806 115.482 165.174 120.334C159.316 126.457 154.546 130.411 142.829 136.009V136.037Z" stroke="#170486" stroke-width="0.44" stroke-miterlimit="10"/>
    <mask id="mask6_2231_9572" style="mask-type:luminance" maskUnits="userSpaceOnUse" x="112" y="11" width="26" height="150">
        <path d="M135.454 11.9026C133.758 14.6396 129.03 22.5605 125.653 31.2831L125.57 31.5043C123.406 37.089 118.347 50.1523 115.176 69.6849C111.413 92.867 111.509 117.418 115.479 142.715C115.686 143.986 116.913 150.193 116.913 150.193L118.953 159.4C119.091 160.035 119.711 160.45 120.332 160.298C120.952 160.16 121.338 159.524 121.2 158.888L118.995 148.88C118.995 148.88 117.795 142.549 117.52 140.779C111.592 101.59 115.024 65.1508 127.721 32.3752L127.803 32.154C131.112 23.5973 135.757 15.8284 137.411 13.1743C137.742 12.6352 137.604 11.9164 137.081 11.557C136.888 11.4187 136.653 11.3496 136.433 11.3496C136.06 11.3496 135.688 11.5431 135.468 11.8887" fill="white"/>
    </mask>
    <g mask="url(#mask6_2231_9572)">
        <path d="M137.728 11.3633H111.398V160.45H137.728V11.3633Z" fill="url(#paint5_linear_2231_9572)"/>
    </g>
    <path d="M120.318 160.311C119.698 160.449 119.077 160.048 118.94 159.413L116.899 150.206C116.899 150.206 115.659 143.999 115.466 142.728C111.496 117.431 111.399 92.8799 115.162 69.6979C118.333 50.1652 123.406 37.102 125.556 31.5173L125.639 31.2961C129.016 22.5735 133.745 14.6526 135.44 11.9155C135.785 11.3626 136.515 11.2105 137.053 11.5838C137.577 11.9432 137.715 12.662 137.384 13.2149C135.73 15.8691 131.084 23.6517 127.776 32.1946L127.693 32.4158C114.997 65.1914 111.565 101.63 117.492 140.82C117.754 142.589 118.967 148.921 118.967 148.921L121.173 158.929C121.311 159.565 120.925 160.201 120.304 160.339L120.318 160.311Z" stroke="#170486" stroke-width="0.44" stroke-miterlimit="10"/>
    <path d="M125.82 37.2549C125.82 37.2549 142.941 45.8946 152.481 52.6681" stroke="#170486" stroke-width="0.44" stroke-linecap="round" stroke-linejoin="round"/>
    <path d="M118.072 66.8359C118.072 66.8359 147.834 73.6371 153.679 74.4527L118.072 66.8359Z" fill="#FF1700"/>
    <path d="M118.072 66.8359C118.072 66.8359 147.834 73.6371 153.679 74.4527" stroke="#170486" stroke-width="0.44" stroke-linecap="round" stroke-linejoin="round"/>
    <path d="M165.175 120.348C165.175 120.348 120.098 129.278 115.824 127.259" stroke="#170486" stroke-width="0.44" stroke-linecap="round" stroke-linejoin="round"/>
    <path d="M115.273 94.4561C115.273 94.4561 125.088 94.9952 135.868 95.3408C144.429 95.6172 153.61 95.7831 158.958 95.479" stroke="#170486" stroke-width="0.44" stroke-linecap="round" stroke-linejoin="round"/>
    <path d="M175.79 169.076C176.052 168.289 175.514 167.459 174.701 167.335C164.114 165.676 76.6894 151.991 64.7929 150.415C60.2439 149.82 60.809 153.249 64.4759 157.935C68.4873 163.049 78.702 170.459 88.2413 172.795C101.888 176.126 129.086 175.173 141.769 175.062C153.445 174.951 174.15 173.942 175.79 169.076Z" fill="#FF1700"/>
    <path d="M175.79 169.076C176.052 168.289 175.514 167.459 174.701 167.335C164.114 165.676 76.6894 151.991 64.7929 150.415C60.2439 149.82 60.809 153.249 64.4759 157.935C68.4873 163.049 78.702 170.459 88.2413 172.795C101.888 176.126 129.086 175.173 141.769 175.062C153.445 174.951 174.15 173.942 175.79 169.076Z" stroke="#170486" stroke-width="0.44" stroke-miterlimit="10"/>
    <path d="M115.273 103.607L140.5 103.773L144.815 109.883L162.556 106.745" stroke="#170486" stroke-width="0.44" stroke-linecap="round" stroke-linejoin="round"/>
    <path d="M128.922 29.1816L139.15 35.7202V40.1575L152.494 47.8434" stroke="#170486" stroke-width="0.44" stroke-linecap="round" stroke-linejoin="round"/>
    <defs>
        <linearGradient id="paint0_linear_2231_9572" x1="88.7263" y1="57.1086" x2="57.1343" y2="76.7639" gradientUnits="userSpaceOnUse">
            <stop stop-color="#1598FF"/>
            <stop offset="0.99" stop-color="#170486"/>
            <stop offset="1" stop-color="#170486"/>
        </linearGradient>
        <linearGradient id="paint1_linear_2231_9572" x1="79.4119" y1="53.4241" x2="80.1937" y2="76.2056" gradientUnits="userSpaceOnUse">
            <stop stop-color="#170486"/>
            <stop offset="0.01" stop-color="#170486"/>
            <stop offset="1" stop-color="#1598FF"/>
        </linearGradient>
        <linearGradient id="paint2_linear_2231_9572" x1="67.8239" y1="77.3369" x2="62.7284" y2="80.5071" gradientUnits="userSpaceOnUse">
            <stop stop-color="#170486"/>
            <stop offset="0.01" stop-color="#170486"/>
            <stop offset="1" stop-color="#1598FF"/>
        </linearGradient>
        <linearGradient id="paint3_linear_2231_9572" x1="78.1318" y1="113.474" x2="104.969" y2="118.54" gradientUnits="userSpaceOnUse">
            <stop stop-color="#1598FF"/>
            <stop offset="0.99" stop-color="#170486"/>
            <stop offset="1" stop-color="#170486"/>
        </linearGradient>
        <linearGradient id="paint4_linear_2231_9572" x1="115.136" y1="79.7342" x2="166.306" y2="79.7342" gradientUnits="userSpaceOnUse">
            <stop stop-color="#1598FF"/>
            <stop offset="0.99" stop-color="#170486"/>
            <stop offset="1" stop-color="#170486"/>
        </linearGradient>
        <linearGradient id="paint5_linear_2231_9572" x1="112.615" y1="86.2799" x2="137.772" y2="86.2799" gradientUnits="userSpaceOnUse">
            <stop stop-color="#170486"/>
            <stop offset="0.01" stop-color="#170486"/>
            <stop offset="1" stop-color="#1598FF"/>
        </linearGradient>
    </defs>
</svg>
