<svg width="539" height="354" viewBox="0 0 539 354" fill="none" xmlns="http://www.w3.org/2000/svg">
    <path d="M227.515 149.508C227.515 149.508 211.141 164.914 217.341 191.808" stroke="#170486" stroke-width="0.44" stroke-miterlimit="10"/>
    <mask id="mask0_2833_10450" style="mask-type:luminance" maskUnits="userSpaceOnUse" x="185" y="96" width="71" height="68">
        <path d="M203.219 102.283C186.474 112.713 180.698 133.625 190.289 149.004C199.881 164.383 221.236 168.38 237.981 157.951C254.726 147.522 260.502 126.583 250.911 111.23C244.923 101.648 234.351 96.4863 223.197 96.4863C216.467 96.4863 209.499 98.3657 203.219 102.31" fill="white"/>
    </mask>
    <g mask="url(#mask0_2833_10450)">
        <path d="M238.158 60.6588L148.376 116.621L203.072 204.208L292.854 148.245L238.158 60.6588Z" fill="url(#paint0_linear_2833_10450)"/>
    </g>
    <path d="M190.289 149.003C199.881 164.382 221.236 168.379 237.981 157.95C254.726 147.52 260.502 126.582 250.911 111.229C241.319 95.8498 219.964 91.8527 203.219 102.282C186.474 112.712 180.698 133.65 190.289 149.003Z" stroke="#170486" stroke-width="0.44" stroke-miterlimit="10"/>
    <mask id="mask1_2833_10450" style="mask-type:luminance" maskUnits="userSpaceOnUse" x="214" y="102" width="43" height="45">
        <path d="M223.541 105.484C214.109 111.361 211.751 124.623 218.295 135.105C224.84 145.587 237.796 149.293 247.228 143.417C256.661 137.54 259.019 124.279 252.474 113.796C248.05 106.702 240.657 102.705 233.398 102.705C229.953 102.705 226.562 103.605 223.515 105.484" fill="white"/>
    </mask>
    <g mask="url(#mask1_2833_10450)">
        <path d="M258.961 101.072L210.159 102.74L211.809 150.915L260.611 149.246L258.961 101.072Z" fill="url(#paint1_linear_2833_10450)"/>
    </g>
    <path d="M218.295 135.106C224.84 145.588 237.796 149.294 247.228 143.417C256.661 137.541 259.019 124.279 252.474 113.797C245.93 103.314 232.974 99.6086 223.541 105.485C214.109 111.362 211.751 124.623 218.295 135.106Z" stroke="#170486" stroke-width="0.44" stroke-miterlimit="10"/>
    <path d="M224.124 131.427C229.476 140.004 239.704 143.313 246.963 138.786C254.223 134.26 255.733 123.645 250.381 115.068C245.029 106.492 234.802 103.183 227.542 107.71C220.282 112.236 218.772 122.851 224.124 131.427Z" fill="#170486"/>
    <path d="M224.124 131.427C229.476 140.004 239.704 143.313 246.963 138.786C254.223 134.26 255.733 123.645 250.381 115.068C245.029 106.492 234.802 103.183 227.542 107.71C220.282 112.236 218.772 122.851 224.124 131.427Z" stroke="#170486" stroke-width="0.44" stroke-miterlimit="10"/>
    <mask id="mask2_2833_10450" style="mask-type:luminance" maskUnits="userSpaceOnUse" x="200" y="145" width="12" height="13">
        <path d="M203.007 146.514C200.305 148.208 199.483 151.755 201.179 154.455C202.875 157.155 206.425 157.976 209.128 156.282C211.83 154.588 212.652 151.041 210.956 148.341C209.87 146.594 207.988 145.641 206.054 145.641C205.021 145.641 203.961 145.932 203.007 146.514Z" fill="white"/>
    </mask>
    <g mask="url(#mask2_2833_10450)">
        <path d="M208.932 139.744L193.938 149.09L203.167 163.867L218.16 154.522L208.932 139.744Z" fill="url(#paint2_linear_2833_10450)"/>
    </g>
    <path d="M201.179 154.456C202.875 157.156 206.425 157.977 209.128 156.282C211.83 154.588 212.652 151.041 210.956 148.341C209.26 145.641 205.71 144.821 203.007 146.515C200.305 148.209 199.483 151.756 201.179 154.456Z" stroke="#170486" stroke-width="0.44" stroke-miterlimit="10"/>
    <path d="M202.769 154.802C203.432 155.887 204.862 156.205 205.949 155.543C207.035 154.855 207.353 153.452 206.69 152.366C206.028 151.281 204.597 150.963 203.511 151.625C202.425 152.287 202.107 153.716 202.769 154.802Z" fill="#170486"/>
    <path d="M221.209 133.253C226.561 141.83 236.789 145.139 244.048 140.612C251.308 136.086 252.818 125.471 247.466 116.895C242.114 108.318 231.887 105.009 224.627 109.536C217.367 114.062 215.857 124.677 221.209 133.253Z" fill="#FF1700"/>
    <path d="M221.209 133.253C226.561 141.83 236.789 145.139 244.048 140.612C251.308 136.086 252.818 125.471 247.466 116.895C242.114 108.318 231.887 105.009 224.627 109.536C217.367 114.062 215.857 124.677 221.209 133.253Z" stroke="#170486" stroke-width="0.44" stroke-miterlimit="10"/>
    <path d="M230.827 128.013C233 131.48 237.584 132.539 241.054 130.368C244.525 128.198 245.585 123.618 243.413 120.151C241.24 116.683 236.656 115.624 233.185 117.768C229.714 119.939 228.655 124.518 230.827 127.986" fill="#FF1700"/>
    <path d="M230.827 128.013C233 131.48 237.584 132.539 241.054 130.368C244.525 128.198 245.585 123.618 243.413 120.151C241.24 116.683 236.656 115.624 233.185 117.768C229.714 119.939 228.655 124.518 230.827 127.986V128.013Z" stroke="#170486" stroke-width="0.44" stroke-miterlimit="10"/>
    <path d="M239.173 127.429C240.021 128.779 241.796 129.203 243.148 128.356C244.499 127.509 244.923 125.735 244.075 124.385C243.227 123.035 241.452 122.612 240.101 123.459C238.75 124.306 238.352 126.079 239.173 127.429Z" fill="#170486"/>
    <mask id="mask3_2833_10450" style="mask-type:luminance" maskUnits="userSpaceOnUse" x="219" y="111" width="13" height="13">
        <path d="M219.699 119.647L225.979 123.352L231.702 116.999L225.025 111.891L219.699 119.647Z" fill="white"/>
    </mask>
    <g mask="url(#mask3_2833_10450)">
        <path d="M223.78 119.698C223.78 119.698 224.628 113.98 230.669 113.027" stroke="#170486" stroke-width="0.4" stroke-linecap="round" stroke-linejoin="round"/>
    </g>
    <path d="M185.361 132.327C193.946 136.801 204.094 134.286 208.015 126.768C211.936 119.224 208.147 109.51 199.563 105.062" stroke="#170486" stroke-width="0.36" stroke-miterlimit="10"/>
    <path d="M338.558 239.717C341.287 246.043 338.346 253.376 332.013 256.102L276.797 279.793C270.465 282.52 263.125 279.582 260.396 273.255C257.667 266.929 260.608 259.596 266.941 256.87L322.157 233.179C328.489 230.452 335.829 233.39 338.558 239.717Z" fill="#FF1700"/>
    <path d="M338.558 239.717C341.287 246.043 338.346 253.376 332.013 256.102L276.797 279.793C270.465 282.52 263.125 279.582 260.396 273.255C257.667 266.929 260.608 259.596 266.941 256.87L322.157 233.179C328.489 230.452 335.829 233.39 338.558 239.717Z" stroke="#170486" stroke-width="0.44" stroke-miterlimit="10"/>
    <path d="M322.237 324.292C317.706 323.895 314.341 319.898 314.738 315.371L320.435 250.492C320.832 245.965 324.833 242.604 329.364 243.001C333.895 243.398 337.259 247.395 336.862 251.921L331.166 316.801C330.768 321.327 326.767 324.689 322.237 324.292Z" fill="#FF1700"/>
    <path d="M322.237 324.292C317.706 323.895 314.341 319.898 314.738 315.371L320.435 250.492C320.832 245.965 324.833 242.604 329.364 243.001C333.895 243.398 337.259 247.395 336.862 251.921L331.166 316.801C330.768 321.327 326.767 324.689 322.237 324.292Z" stroke="#170486" stroke-width="0.44" stroke-miterlimit="10"/>
    <path d="M337.498 315.45C338.001 320.691 334.159 325.323 328.94 325.826C323.694 326.329 319.057 322.491 318.554 317.276C318.05 312.035 321.892 307.403 327.112 306.9C332.358 306.397 336.994 310.235 337.498 315.45Z" fill="#FF1700"/>
    <path d="M337.498 315.45C338.001 320.691 334.159 325.323 328.94 325.826C323.694 326.329 319.057 322.491 318.554 317.276C318.05 312.035 321.892 307.403 327.112 306.9C332.358 306.397 336.994 310.235 337.498 315.45Z" stroke="#170486" stroke-width="0.44" stroke-miterlimit="10"/>
    <path d="M333.894 315.793C334.212 319.023 331.828 321.908 328.595 322.226C325.363 322.543 322.475 320.161 322.157 316.931C321.839 313.702 324.223 310.817 327.456 310.499C330.688 310.181 333.576 312.564 333.894 315.793Z" fill="#FF1700"/>
    <path d="M333.894 315.793C334.212 319.023 331.828 321.908 328.595 322.226C325.363 322.543 322.475 320.161 322.157 316.931C321.839 313.702 324.223 310.817 327.456 310.499C330.688 310.181 333.576 312.564 333.894 315.793Z" stroke="#170486" stroke-width="0.44" stroke-miterlimit="10"/>
    <path d="M287.316 186.507L268.199 193.996L268.992 196.017L288.109 188.528L287.316 186.507Z" fill="#FF1700"/>
    <path d="M287.316 186.507L268.199 193.996L268.992 196.017L288.109 188.528L287.316 186.507Z" stroke="#170486" stroke-width="0.44" stroke-miterlimit="10"/>
    <path d="M243.651 167.902L229.794 170.285C229.794 170.285 226.403 171.264 228.575 174.599L273.14 199.032C273.14 199.032 278.651 202.049 282.626 196.729C282.626 196.729 285.54 192.282 279.42 188.92L243.651 167.902Z" fill="#FF1700"/>
    <path d="M243.651 167.902L229.794 170.285C229.794 170.285 226.403 171.264 228.575 174.599L273.14 199.032C273.14 199.032 278.651 202.049 282.626 196.729C282.626 196.729 285.54 192.282 279.42 188.92L243.651 167.902Z" stroke="#170486" stroke-width="0.44" stroke-miterlimit="10"/>
    <path d="M276.717 190.375C278.466 191.223 279.181 193.314 278.334 195.061C277.486 196.808 275.366 197.523 273.644 196.675C271.895 195.828 271.18 193.737 272.028 191.99C272.875 190.243 274.969 189.528 276.717 190.375Z" fill="#FF1700"/>
    <path d="M276.717 190.375C278.466 191.223 279.181 193.314 278.334 195.061C277.486 196.808 275.366 197.523 273.644 196.675C271.895 195.828 271.18 193.737 272.028 191.99C272.875 190.243 274.969 189.528 276.717 190.375Z" stroke="#170486" stroke-width="0.44" stroke-miterlimit="10"/>
    <path d="M291.899 190.563L310.922 175.793C313.307 173.94 313.731 170.525 311.876 168.169C310.022 165.787 306.604 165.363 304.246 167.216L285.222 181.987C282.864 183.84 282.413 187.254 284.268 189.61C286.123 191.993 289.541 192.416 291.899 190.563Z" fill="#FF1700"/>
    <path d="M291.899 190.563L310.922 175.793C313.307 173.94 313.731 170.525 311.876 168.169C310.022 165.787 306.604 165.363 304.246 167.216L285.222 181.987C282.864 183.84 282.413 187.254 284.268 189.61C286.123 191.993 289.541 192.416 291.899 190.563Z" stroke="#170486" stroke-width="0.44" stroke-miterlimit="10"/>
    <path d="M319.242 160.543C322.766 163.772 323.031 169.252 319.798 172.772C316.566 176.32 311.081 176.558 307.558 173.328C304.034 170.099 303.769 164.62 307.001 161.072C310.234 157.552 315.718 157.287 319.242 160.517" fill="#FF1700"/>
    <path d="M319.242 160.543C322.766 163.772 323.031 169.252 319.798 172.772C316.566 176.32 311.081 176.558 307.558 173.328C304.034 170.099 303.769 164.62 307.001 161.072C310.234 157.552 315.718 157.287 319.242 160.517V160.543Z" stroke="#170486" stroke-width="0.4" stroke-miterlimit="10"/>
    <path d="M317.017 162.981C319.216 164.993 319.348 168.381 317.361 170.552C315.347 172.749 311.956 172.881 309.783 170.896C307.584 168.911 307.452 165.496 309.439 163.326C311.453 161.129 314.844 160.996 317.017 162.981Z" fill="#FF1700"/>
    <path d="M317.017 162.981C319.216 164.993 319.348 168.381 317.361 170.552C315.347 172.749 311.956 172.881 309.783 170.896C307.584 168.911 307.452 165.496 309.439 163.326C311.453 161.129 314.844 160.996 317.017 162.981Z" stroke="#170486" stroke-width="0.4" stroke-miterlimit="10"/>
    <path d="M286.467 188.26C287.739 189.636 289.885 189.742 291.263 188.471C292.641 187.201 292.747 185.057 291.475 183.68C290.203 182.304 288.057 182.198 286.679 183.468C285.302 184.739 285.196 186.883 286.467 188.26Z" fill="#FF1700"/>
    <path d="M286.467 188.26C287.739 189.636 289.885 189.742 291.263 188.471C292.641 187.201 292.747 185.057 291.475 183.68C290.203 182.304 288.057 182.198 286.679 183.468C285.302 184.739 285.196 186.883 286.467 188.26Z" stroke="#170486" stroke-width="0.43" stroke-miterlimit="10"/>
    <mask id="mask4_2833_10450" style="mask-type:luminance" maskUnits="userSpaceOnUse" x="208" y="156" width="87" height="136">
        <path d="M258.568 157.182C236.947 160.147 219.037 173.276 208.306 191.567C208.253 194.664 208.306 197.814 208.438 200.991C210.717 252.132 237.742 292.447 268.795 291.07C278.121 290.647 286.759 286.517 294.204 279.555C268.212 268.861 253.798 227.223 261.509 181.058C262.939 172.455 265.085 164.25 267.735 156.6C267.655 156.6 267.549 156.6 267.47 156.6C264.529 156.6 261.562 156.785 258.568 157.208" fill="white"/>
    </mask>
    <g mask="url(#mask4_2833_10450)">
        <path d="M211.233 140.891L183.402 287.762L291.231 308.156L319.061 161.285L211.233 140.891Z" fill="url(#paint3_linear_2833_10450)"/>
    </g>
    <path d="M208.438 200.992C208.306 197.815 208.253 194.692 208.306 191.568C219.063 173.277 236.947 160.148 258.568 157.183C261.641 156.76 264.714 156.574 267.761 156.574C265.085 164.251 262.966 172.43 261.535 181.033C253.825 227.224 268.238 268.862 294.23 279.53C286.785 286.492 278.148 290.648 268.821 291.045C237.769 292.421 210.744 252.08 208.465 200.965L208.438 200.992Z" stroke="#170486" stroke-width="0.44" stroke-miterlimit="10"/>
    <path d="M262.808 177.166C262.808 177.166 229.582 183.201 225.37 203.451C225.37 203.451 232.974 290.91 284.799 286.622" stroke="#170486" stroke-width="0.44" stroke-miterlimit="10"/>
    <path d="M261.535 183.334C252.898 186.987 243.201 193.234 241.107 203.187C241.107 203.187 247.466 282.625 293.754 279.766" stroke="#170486" stroke-width="0.44" stroke-miterlimit="10"/>
    <path d="M279.325 185.71L262.719 197.777L263.997 199.533L280.603 187.466L279.325 185.71Z" fill="#FF1700"/>
    <path d="M279.325 185.71L262.719 197.777L263.997 199.533L280.603 187.466L279.325 185.71Z" stroke="#170486" stroke-width="0.44" stroke-miterlimit="10"/>
    <path d="M232.391 178.676L219.594 184.473C219.594 184.473 216.547 186.273 219.488 188.946L268.769 201.388C268.769 201.388 274.863 202.923 277.354 196.782C277.354 196.782 279.076 191.752 272.293 190.032L232.391 178.676Z" fill="#FF1700"/>
    <path d="M232.391 178.676L219.594 184.473C219.594 184.473 216.547 186.273 219.488 188.946L268.769 201.388C268.769 201.388 274.863 202.923 277.353 196.782C277.353 196.782 279.076 191.752 272.293 190.032L232.391 178.676Z" stroke="#170486" stroke-width="0.44" stroke-miterlimit="10"/>
    <path d="M270.067 192.148C271.975 192.519 273.193 194.372 272.822 196.278C272.451 198.184 270.597 199.401 268.689 199.031C266.781 198.634 265.563 196.807 265.934 194.901C266.331 192.995 268.159 191.778 270.067 192.148Z" fill="#FF1700"/>
    <path d="M270.067 192.148C271.975 192.519 273.193 194.372 272.822 196.278C272.451 198.184 270.597 199.401 268.689 199.031C266.781 198.634 265.563 196.807 265.934 194.901C266.331 192.995 268.159 191.778 270.067 192.148Z" stroke="#170486" stroke-width="0.44" stroke-miterlimit="10"/>
    <path d="M284.772 188.525L299.477 169.439C301.305 167.057 300.854 163.642 298.47 161.816C296.085 159.989 292.667 160.439 290.839 162.822L276.134 181.907C274.306 184.289 274.756 187.704 277.141 189.53C279.526 191.357 282.943 190.907 284.772 188.525Z" fill="#FF1700"/>
    <path d="M284.772 188.525L299.477 169.439C301.305 167.057 300.854 163.642 298.47 161.816C296.085 159.989 292.667 160.439 290.839 162.822L276.134 181.907C274.306 184.289 274.756 187.704 277.141 189.53C279.526 191.357 282.943 190.907 284.772 188.525Z" stroke="#170486" stroke-width="0.44" stroke-miterlimit="10"/>
    <path d="M303.689 152.577C307.929 154.827 309.545 160.068 307.293 164.277C305.041 168.512 299.795 170.127 295.582 167.877C291.343 165.627 289.726 160.386 291.952 156.177C294.204 151.942 299.424 150.327 303.663 152.551" fill="#FF1700"/>
    <path d="M303.689 152.577C307.929 154.827 309.545 160.068 307.293 164.277C305.041 168.512 299.795 170.127 295.582 167.877C291.343 165.627 289.726 160.386 291.952 156.177C294.204 151.942 299.424 150.327 303.663 152.551L303.689 152.577Z" stroke="#170486" stroke-width="0.4" stroke-miterlimit="10"/>
    <path d="M302.153 155.488C304.776 156.864 305.783 160.12 304.378 162.74C303.001 165.361 299.742 166.367 297.119 164.99C294.496 163.614 293.489 160.358 294.866 157.737C296.244 155.117 299.503 154.111 302.126 155.488" fill="#FF1700"/>
    <path d="M302.153 155.488C304.776 156.864 305.783 160.12 304.378 162.74C303.001 165.361 299.742 166.367 297.119 164.99C294.496 163.614 293.489 160.358 294.866 157.737C296.244 155.117 299.503 154.111 302.126 155.488H302.153Z" stroke="#170486" stroke-width="0.4" stroke-miterlimit="10"/>
    <path d="M278.969 187.649C280.533 188.682 282.652 188.232 283.685 186.643C284.719 185.082 284.268 182.964 282.679 181.932C281.115 180.899 278.996 181.349 277.962 182.938C276.929 184.499 277.38 186.617 278.969 187.649Z" fill="#FF1700"/>
    <path d="M278.969 187.649C280.533 188.682 282.652 188.232 283.685 186.643C284.719 185.082 284.268 182.964 282.679 181.932C281.115 180.899 278.996 181.349 277.962 182.938C276.929 184.499 277.38 186.617 278.969 187.649Z" stroke="#170486" stroke-width="0.43" stroke-miterlimit="10"/>
    <path d="M326.846 233.444C330.397 239.347 328.489 247.024 322.554 250.571L271.021 281.462C265.112 285.009 257.428 283.103 253.878 277.174C250.328 271.271 252.235 263.594 258.144 260.047L309.677 229.156C315.586 225.609 323.269 227.515 326.82 233.444" fill="#FF1700"/>
    <path d="M326.846 233.444C330.397 239.347 328.489 247.024 322.554 250.571L271.021 281.462C265.112 285.009 257.428 283.103 253.878 277.174C250.328 271.271 252.235 263.594 258.144 260.047L309.677 229.156C315.586 225.609 323.269 227.515 326.82 233.444H326.846Z" stroke="#170486" stroke-width="0.44" stroke-miterlimit="10"/>
    <path d="M303.874 315.714C299.423 314.761 296.588 310.367 297.542 305.92L311.293 242.232C312.247 237.785 316.645 234.953 321.096 235.932C325.548 236.885 328.383 241.279 327.402 245.726L313.651 309.388C312.697 313.835 308.299 316.667 303.848 315.688" fill="#FF1700"/>
    <path d="M303.874 315.714C299.423 314.761 296.588 310.367 297.542 305.92L311.293 242.232C312.247 237.785 316.645 234.953 321.096 235.932C325.548 236.885 328.383 241.279 327.402 245.726L313.651 309.388C312.697 313.835 308.299 316.667 303.848 315.688L303.874 315.714Z" stroke="#170486" stroke-width="0.44" stroke-miterlimit="10"/>
    <path d="M320.143 308.858C319.984 314.099 315.612 318.255 310.34 318.096C305.094 317.937 300.96 313.57 301.093 308.302C301.252 303.061 305.624 298.931 310.896 299.064C316.142 299.222 320.276 303.59 320.143 308.858Z" fill="#FF1700"/>
    <path d="M320.143 308.858C319.984 314.099 315.612 318.255 310.34 318.096C305.094 317.937 300.96 313.57 301.093 308.302C301.252 303.061 305.624 298.931 310.896 299.064C316.142 299.222 320.276 303.59 320.143 308.858Z" stroke="#170486" stroke-width="0.44" stroke-miterlimit="10"/>
    <path d="M316.513 308.753C316.407 312.009 313.704 314.55 310.446 314.471C307.187 314.365 304.643 311.665 304.723 308.409C304.828 305.153 307.531 302.612 310.79 302.691C314.049 302.771 316.592 305.497 316.513 308.753Z" fill="#FF1700"/>
    <path d="M316.513 308.753C316.407 312.009 313.704 314.55 310.446 314.471C307.187 314.365 304.643 311.665 304.723 308.409C304.828 305.153 307.531 302.612 310.79 302.691C314.049 302.771 316.592 305.497 316.513 308.753Z" stroke="#170486" stroke-width="0.44" stroke-miterlimit="10"/>
    <path d="M367.013 311.771L366.774 311.453C367.172 311.691 367.251 311.744 367.013 311.771Z" fill="#FF1700"/>
    <mask id="mask5_2833_10450" style="mask-type:luminance" maskUnits="userSpaceOnUse" x="301" y="23" width="99" height="257">
        <path d="M345.101 23.5842C345.048 23.7695 344.836 23.8754 344.731 24.0342C344.731 24.0342 336.649 35.496 328.489 55.8518C325.468 63.396 319.242 78.7754 313.466 101.249C313.466 101.328 313.44 101.408 313.413 101.487C307.981 122.743 302.974 150.272 301.464 183.493C300.377 211.314 302.073 240.061 306.551 269.628C306.842 271.481 307.664 276.008 308.352 279.687C311.638 274.155 334.291 270.502 355.223 260.522C377.744 249.802 386.911 242.231 398.172 230.505C407.074 221.214 367.967 177.352 374.829 65.0107C375.386 56.143 347.486 23.5312 345.234 23.5312C345.181 23.5312 345.128 23.5577 345.101 23.6371" fill="white"/>
    </mask>
    <g mask="url(#mask5_2833_10450)">
        <path d="M407.1 23.5039H300.404V279.66H407.1V23.5039Z" fill="url(#paint4_linear_2833_10450)"/>
    </g>
    <path d="M355.25 260.497C334.292 270.476 311.638 274.129 308.379 279.661C307.69 275.982 306.869 271.482 306.578 269.602C302.1 240.035 300.404 211.314 301.49 183.467C302.974 150.273 307.982 122.717 313.44 101.461C313.44 101.382 313.466 101.302 313.493 101.223C319.269 78.7495 325.495 63.3701 328.516 55.826C336.676 35.4701 344.757 24.0084 344.757 24.0084C344.863 23.8495 345.075 23.7436 345.128 23.5584C345.791 21.4672 375.412 55.7995 374.856 64.9319C367.994 177.273 407.101 221.135 398.198 230.426C386.938 242.152 377.771 249.723 355.25 260.444V260.497Z" stroke="#170486" stroke-width="0.44" stroke-miterlimit="10"/>
    <mask id="mask6_2833_10450" style="mask-type:luminance" maskUnits="userSpaceOnUse" x="296" y="21" width="50" height="287">
        <path d="M341.074 22.7912C337.815 28.0324 328.728 43.2001 322.236 59.903L322.077 60.3265C317.917 71.0207 308.194 96.0354 302.1 133.438C294.866 177.829 295.052 224.841 302.683 273.282C303.08 275.718 305.438 287.603 305.438 287.603L309.359 305.232C309.624 306.45 310.817 307.244 312.009 306.953C313.201 306.688 313.943 305.471 313.678 304.253L309.439 285.088C309.439 285.088 307.134 272.965 306.604 269.577C295.211 194.532 301.808 124.756 326.21 61.9942L326.369 61.5707C332.728 45.1854 341.657 30.3089 344.837 25.2265C345.473 24.1942 345.208 22.8177 344.201 22.1295C343.83 21.8648 343.379 21.7324 342.956 21.7324C342.24 21.7324 341.525 22.103 341.101 22.7648" fill="white"/>
    </mask>
    <g mask="url(#mask6_2833_10450)">
        <path d="M345.446 21.7598H294.84V307.245H345.446V21.7598Z" fill="url(#paint5_linear_2833_10450)"/>
    </g>
    <path d="M311.983 306.978C310.79 307.243 309.598 306.475 309.333 305.258L305.412 287.628C305.412 287.628 303.027 275.743 302.656 273.308C295.026 224.867 294.84 177.855 302.073 133.464C308.167 96.0608 317.918 71.046 322.051 60.3519L322.21 59.9284C328.701 43.2255 337.789 28.0578 341.048 22.8166C341.71 21.7578 343.115 21.4666 344.148 22.1813C345.155 22.8696 345.42 24.2461 344.784 25.3049C341.604 30.3872 332.675 45.2902 326.317 61.649L326.158 62.0725C301.755 124.834 295.158 194.611 306.551 269.655C307.054 273.043 309.386 285.167 309.386 285.167L313.625 304.331C313.89 305.549 313.148 306.767 311.956 307.031L311.983 306.978Z" stroke="#170486" stroke-width="0.44" stroke-miterlimit="10"/>
    <path d="M322.554 71.3379C322.554 71.3379 355.461 87.882 373.796 100.853" stroke="#170486" stroke-width="0.44" stroke-linecap="round" stroke-linejoin="round"/>
    <path d="M307.664 127.984C307.664 127.984 364.867 141.008 376.101 142.57L307.664 127.984Z" fill="#FF1700"/>
    <path d="M307.664 127.984C307.664 127.984 364.867 141.008 376.101 142.57" stroke="#170486" stroke-width="0.44" stroke-linecap="round" stroke-linejoin="round"/>
    <path d="M398.198 230.451C398.198 230.451 311.558 247.551 303.345 243.686" stroke="#170486" stroke-width="0.44" stroke-linecap="round" stroke-linejoin="round"/>
    <path d="M302.286 180.873C302.286 180.873 321.15 181.905 341.87 182.567C358.323 183.097 375.969 183.414 386.249 182.832" stroke="#170486" stroke-width="0.44" stroke-linecap="round" stroke-linejoin="round"/>
    <path d="M418.599 323.762C419.103 322.253 418.069 320.665 416.506 320.427C396.158 317.25 228.124 291.044 205.259 288.027C196.516 286.889 197.602 293.453 204.65 302.427C212.36 312.221 231.993 326.409 250.328 330.883C276.558 337.262 328.833 335.436 353.209 335.224C375.65 335.012 415.446 333.08 418.599 323.762Z" fill="#FF1700"/>
    <path d="M418.599 323.762C419.103 322.253 418.069 320.665 416.506 320.427C396.158 317.25 228.124 291.044 205.259 288.027C196.516 286.889 197.602 293.453 204.65 302.427C212.36 312.221 231.993 326.409 250.328 330.883C276.558 337.262 328.833 335.436 353.209 335.224C375.65 335.012 415.446 333.08 418.599 323.762Z" stroke="#170486" stroke-width="0.44" stroke-miterlimit="10"/>
    <path d="M302.286 198.398L350.772 198.716L359.065 210.416L393.165 204.407" stroke="#170486" stroke-width="0.44" stroke-linecap="round" stroke-linejoin="round"/>
    <path d="M328.516 55.8809L348.175 68.4014V76.8985L373.823 91.6162" stroke="#170486" stroke-width="0.44" stroke-linecap="round" stroke-linejoin="round"/>
    <defs>
        <linearGradient id="paint0_linear_2833_10450" x1="251.261" y1="109.358" x2="190.666" y2="147.198" gradientUnits="userSpaceOnUse">
            <stop stop-color="#1598FF"/>
            <stop offset="0.99" stop-color="#170486"/>
            <stop offset="1" stop-color="#170486"/>
        </linearGradient>
        <linearGradient id="paint1_linear_2833_10450" x1="233.361" y1="102.301" x2="234.853" y2="145.926" gradientUnits="userSpaceOnUse">
            <stop stop-color="#170486"/>
            <stop offset="0.01" stop-color="#170486"/>
            <stop offset="1" stop-color="#1598FF"/>
        </linearGradient>
        <linearGradient id="paint2_linear_2833_10450" x1="211.082" y1="148.093" x2="201.309" y2="154.196" gradientUnits="userSpaceOnUse">
            <stop stop-color="#170486"/>
            <stop offset="0.01" stop-color="#170486"/>
            <stop offset="1" stop-color="#1598FF"/>
        </linearGradient>
        <linearGradient id="paint3_linear_2833_10450" x1="230.899" y1="217.291" x2="282.467" y2="227.063" gradientUnits="userSpaceOnUse">
            <stop stop-color="#1598FF"/>
            <stop offset="0.99" stop-color="#170486"/>
            <stop offset="1" stop-color="#170486"/>
        </linearGradient>
        <linearGradient id="paint4_linear_2833_10450" x1="302.016" y1="152.68" x2="400.366" y2="152.68" gradientUnits="userSpaceOnUse">
            <stop stop-color="#1598FF"/>
            <stop offset="0.99" stop-color="#170486"/>
            <stop offset="1" stop-color="#170486"/>
        </linearGradient>
        <linearGradient id="paint5_linear_2833_10450" x1="297.178" y1="165.217" x2="345.532" y2="165.217" gradientUnits="userSpaceOnUse">
            <stop stop-color="#170486"/>
            <stop offset="0.01" stop-color="#170486"/>
            <stop offset="1" stop-color="#1598FF"/>
        </linearGradient>
    </defs>
</svg>
