
<svg width="473" height="341" viewBox="0 0 473 341" fill="none" xmlns="http://www.w3.org/2000/svg">
    <path d="M253.287 58.8984C253.287 58.8984 227.71 64.0385 217.329 94.4778" stroke="#170486" stroke-width="0.54" stroke-miterlimit="10"/>
    <path d="M247.992 159.011L267.207 173.132L265.734 175.156L246.519 161.035L247.992 159.011Z" fill="#FF1700"/>
    <path d="M247.992 159.011L267.207 173.132L265.734 175.156L246.519 161.035L247.992 159.011Z" stroke="#170486" stroke-width="0.54" stroke-miterlimit="10"/>
    <path d="M214.26 123.563L215.807 107.265C215.807 107.265 216.655 103.228 220.697 105.46L252.812 155.105C252.812 155.105 256.78 161.223 250.991 166.313C250.991 166.313 246.1 170.099 241.683 163.279L214.26 123.563Z" fill="#FF1700"/>
    <path d="M214.26 123.563L215.807 107.265C215.807 107.265 216.655 103.228 220.697 105.46L252.812 155.105C252.812 155.105 256.78 161.223 250.991 166.313C250.991 166.313 246.1 170.099 241.683 163.279L214.26 123.563Z" stroke="#170486" stroke-width="0.54" stroke-miterlimit="10"/>
    <path d="M243.13 160.018C244.253 161.974 246.748 162.626 248.695 161.497C250.641 160.369 251.29 157.862 250.167 155.906C249.044 153.95 246.549 153.298 244.602 154.427C242.656 155.555 242.007 158.062 243.13 160.018Z" fill="#FF1700"/>
    <path d="M243.13 160.018C244.253 161.974 246.748 162.626 248.695 161.497C250.641 160.369 251.29 157.862 250.167 155.906C249.044 153.95 246.549 153.298 244.602 154.427C242.656 155.555 242.007 158.062 243.13 160.018Z" stroke="#170486" stroke-width="0.54" stroke-miterlimit="10"/>
    <path d="M255.084 174.712L278.59 193.141C280.936 194.971 284.304 194.545 286.126 192.213L287.274 190.734C289.095 188.377 288.671 184.992 286.35 183.162L262.844 164.733C260.499 162.902 257.13 163.329 255.309 165.661L254.161 167.14C252.339 169.497 252.763 172.882 255.084 174.712Z" fill="#FF1700"/>
    <path d="M286.353 183.159L262.859 164.748C260.518 162.913 257.155 163.331 255.329 165.683L254.178 167.166C252.352 169.519 252.768 172.897 255.11 174.732L278.623 193.159C280.965 194.994 284.327 194.576 286.153 192.223L287.304 190.74C289.13 188.387 288.715 185.009 286.373 183.174L286.353 183.159Z" stroke="#170486" stroke-width="0.54" stroke-miterlimit="10"/>
    <path d="M297.379 197.606C294.759 202.52 288.671 204.376 283.755 201.743C278.864 199.11 277.017 192.992 279.663 188.053C282.283 183.139 288.371 181.283 293.262 183.916C298.153 186.549 299.999 192.667 297.354 197.606" fill="#FF1700"/>
    <path d="M297.379 197.606C294.759 202.52 288.671 204.376 283.755 201.743C278.864 199.11 277.017 192.992 279.663 188.053C282.283 183.139 288.371 181.283 293.262 183.916C298.153 186.549 299.999 192.667 297.354 197.606H297.379Z" stroke="#170486" stroke-width="0.49" stroke-miterlimit="10"/>
    <path d="M294.009 195.773C292.387 198.807 288.62 199.96 285.575 198.33C282.556 196.7 281.408 192.914 283.03 189.855C284.652 186.821 288.42 185.668 291.464 187.298C294.484 188.928 295.631 192.714 294.009 195.773Z" fill="#FF1700"/>
    <path d="M294.009 195.773C292.387 198.807 288.62 199.96 285.575 198.33C282.556 196.7 281.408 192.914 283.03 189.855C284.652 186.821 288.42 185.668 291.464 187.298C294.484 188.928 295.631 192.714 294.009 195.773Z" stroke="#170486" stroke-width="0.49" stroke-miterlimit="10"/>
    <path d="M256.88 168.519C255.682 170.35 256.181 172.807 258.003 174.01C259.824 175.214 262.27 174.713 263.468 172.882C264.665 171.052 264.166 168.595 262.345 167.391C260.523 166.188 258.078 166.689 256.88 168.519Z" fill="#FF1700"/>
    <path d="M256.88 168.519C255.682 170.35 256.181 172.807 258.003 174.01C259.824 175.214 262.27 174.713 263.468 172.882C264.665 171.052 264.166 168.595 262.345 167.391C260.523 166.188 258.078 166.689 256.88 168.519Z" stroke="#170486" stroke-width="0.52" stroke-miterlimit="10"/>
    <mask id="mask0_3763_29941" style="mask-type:luminance" maskUnits="userSpaceOnUse" x="279" y="188" width="142" height="88">
        <path d="M285.975 191.561L369.593 263.673C369.593 263.673 377.703 268.662 388.957 266.832C400.211 265.027 418.601 256.928 418.601 256.928C418.601 256.928 422.744 268.637 416.88 269.991C411.016 271.345 392.55 279.494 374.983 273.176L279.088 191.561L283.978 188.076L285.975 191.561Z" fill="white"/>
    </mask>
    <g mask="url(#mask0_3763_29941)">
        <path d="M279.063 188.102H422.719V279.545H279.063V188.102Z" fill="url(#paint0_linear_3763_29941)"/>
    </g>
    <path d="M285.975 191.562L369.593 263.674C369.593 263.674 377.703 268.663 388.957 266.833C400.211 265.027 418.601 256.929 418.601 256.929C418.601 256.929 422.744 268.638 416.88 269.992C411.016 271.346 392.55 279.495 374.983 273.151L279.088 191.537L283.978 188.052L285.975 191.537V191.562Z" stroke="#170486" stroke-width="0.54" stroke-miterlimit="10"/>
    <path d="M97.9279 220.923L94.2099 218.767C88.3209 215.357 86.2997 207.785 89.6934 201.842L126.674 137.479C130.068 131.561 137.604 129.53 143.518 132.94L147.236 135.097C153.125 138.507 155.146 146.104 151.752 152.021L114.771 216.385C111.378 222.302 103.842 224.333 97.9279 220.923Z" fill="#FF1700"/>
    <path d="M97.9279 220.923L94.2099 218.767C88.3209 215.357 86.2997 207.785 89.6934 201.842L126.674 137.479C130.068 131.561 137.604 129.53 143.518 132.94L147.236 135.097C153.125 138.507 155.146 146.104 151.752 152.021L114.771 216.385C111.378 222.302 103.842 224.333 97.9279 220.923Z" stroke="#170486" stroke-width="0.54" stroke-miterlimit="10"/>
    <path d="M28.1588 246.121L26.9111 243.564C24.9148 239.527 26.5867 234.613 30.6042 232.632L100.947 197.805C104.99 195.799 109.856 197.479 111.852 201.516L113.1 204.073C115.096 208.11 113.424 213.024 109.407 215.005L39.0634 249.832C35.021 251.838 30.155 250.158 28.1588 246.121Z" fill="#FF1700"/>
    <path d="M28.1588 246.121L26.9111 243.564C24.9148 239.527 26.5867 234.613 30.6042 232.632L100.947 197.805C104.99 195.799 109.856 197.479 111.852 201.516L113.1 204.073C115.096 208.11 113.424 213.024 109.407 215.005L39.0634 249.832C35.021 251.838 30.155 250.158 28.1588 246.121Z" stroke="#170486" stroke-width="0.54" stroke-miterlimit="10"/>
    <path d="M36.6682 256.677C30.9788 258.833 24.5908 255.95 22.4448 250.233C20.2988 244.491 23.1684 238.098 28.8578 235.941C34.5471 233.76 40.9352 236.668 43.0812 242.385C45.2271 248.102 42.3575 254.521 36.6682 256.677Z" fill="#FF1700"/>
    <path d="M36.6682 256.677C30.9788 258.833 24.5908 255.95 22.4448 250.233C20.2988 244.491 23.1684 238.098 28.8578 235.941C34.5471 233.76 40.9352 236.668 43.0812 242.385C45.2271 248.102 42.3575 254.521 36.6682 256.677Z" stroke="#170486" stroke-width="0.54" stroke-miterlimit="10"/>
    <path d="M35.1701 252.74C31.6517 254.094 27.7091 252.289 26.3616 248.754C25.0141 245.218 26.8108 241.257 30.3292 239.903C33.8476 238.549 37.7902 240.354 39.1377 243.889C40.4852 247.425 38.6885 251.386 35.1701 252.74Z" fill="#FF1700"/>
    <path d="M35.1701 252.74C31.6517 254.094 27.7091 252.289 26.3616 248.754C25.0141 245.218 26.8108 241.257 30.3292 239.903C33.8476 238.549 37.7902 240.354 39.1377 243.889C40.4852 247.425 38.6885 251.386 35.1701 252.74Z" stroke="#170486" stroke-width="0.54" stroke-miterlimit="10"/>
    <mask id="mask1_3763_29941" style="mask-type:luminance" maskUnits="userSpaceOnUse" x="113" y="85" width="140" height="140">
        <path d="M246.349 114.311C248.644 117.094 250.716 120.028 252.537 123.037C243.354 125.093 233.972 128.026 224.589 131.863C174.334 152.548 142.044 192.365 147.334 224.66C135.906 221.551 126.573 215.533 120.459 206.557C100.147 176.644 123.479 125.143 172.537 91.5192C175.581 89.4381 178.65 87.4573 181.745 85.627C182.443 85.627 183.117 85.627 183.816 85.627C207.671 85.627 230.678 95.3053 246.324 114.336" fill="white"/>
    </mask>
    <g mask="url(#mask1_3763_29941)">
        <path d="M232.94 34.3437L298.918 206.78L119.832 275.964L53.8541 103.528L232.94 34.3437Z" fill="url(#paint1_linear_3763_29941)"/>
    </g>
    <path d="M172.562 91.5436C175.606 89.4625 178.675 87.4817 181.77 85.6513C206.374 85.0746 230.254 94.753 246.349 114.335C248.644 117.119 250.691 120.052 252.537 123.061C243.354 125.117 233.972 128.051 224.589 131.887C174.334 152.573 142.044 192.389 147.334 224.684C135.906 221.575 126.573 215.557 120.459 206.581C100.147 176.668 123.479 125.167 172.537 91.5436H172.562Z" stroke="#170486" stroke-width="0.54" stroke-miterlimit="10"/>
    <path d="M229.082 130.307C229.082 130.307 202.607 101.347 180.149 109.772C180.149 109.772 99.0256 171.679 135.308 220.046" stroke="#170486" stroke-width="0.54" stroke-miterlimit="10"/>
    <path d="M235.52 144.299C235.52 144.299 210.941 117.37 190.13 125.143C190.13 125.143 116.093 180.831 147.559 224.635" stroke="#170486" stroke-width="0.54" stroke-miterlimit="10"/>
    <path d="M233.624 203.196L232.476 207.358C230.654 213.952 223.867 217.814 217.304 215.983L146.063 196.1C139.5 194.27 135.657 187.45 137.479 180.855L138.627 176.693C140.448 170.099 147.236 166.238 153.798 168.068L225.04 187.951C231.603 189.782 235.445 196.602 233.624 203.196Z" fill="#FF1700"/>
    <path d="M225.047 187.938L153.786 168.039C147.222 166.207 140.432 170.062 138.608 176.657L137.459 180.812C135.635 187.408 139.472 194.23 146.036 196.063L217.297 215.961C223.86 217.794 230.65 213.938 232.474 207.343L233.623 203.188C235.447 196.593 231.611 189.77 225.047 187.938Z" stroke="#170486" stroke-width="0.54" stroke-miterlimit="10"/>
    <path d="M176.03 253.969L173.909 252.088C170.54 249.105 170.216 243.939 173.185 240.555L214.009 194.093C216.978 190.708 222.119 190.382 225.487 193.366L227.608 195.247C230.977 198.23 231.302 203.396 228.332 206.781L187.509 253.242C184.539 256.627 179.399 256.953 176.03 253.969Z" fill="#FF1700"/>
    <path d="M176.03 253.969L173.909 252.088C170.54 249.105 170.216 243.939 173.185 240.555L214.009 194.093C216.978 190.708 222.119 190.382 225.487 193.366L227.608 195.247C230.977 198.23 231.302 203.396 228.332 206.781L187.509 253.242C184.539 256.627 179.399 256.953 176.03 253.969Z" stroke="#170486" stroke-width="0.49" stroke-miterlimit="10"/>
    <path d="M195.295 255.299C192.151 260.564 185.389 262.269 180.149 259.11C174.908 255.95 173.237 249.156 176.356 243.89C179.5 238.625 186.262 236.92 191.502 240.079C196.743 243.238 198.414 250.033 195.295 255.299Z" fill="#FF1700"/>
    <path d="M195.295 255.299C192.151 260.564 185.389 262.269 180.149 259.11C174.908 255.95 173.237 249.156 176.356 243.89C179.5 238.625 186.262 236.92 191.502 240.079C196.743 243.238 198.414 250.033 195.295 255.299Z" stroke="#170486" stroke-width="0.54" stroke-miterlimit="10"/>
    <path d="M191.677 253.143C189.73 256.403 185.538 257.456 182.319 255.5C179.075 253.544 178.027 249.332 179.973 246.098C181.92 242.838 186.112 241.785 189.356 243.741C192.6 245.696 193.648 249.909 191.701 253.143" fill="#FF1700"/>
    <path d="M191.677 253.143C189.73 256.403 185.538 257.456 182.319 255.5C179.075 253.544 178.027 249.332 179.973 246.098C181.92 242.838 186.112 241.785 189.356 243.741C192.6 245.696 193.648 249.909 191.701 253.143H191.677Z" stroke="#170486" stroke-width="0.54" stroke-miterlimit="10"/>
    <path d="M246.037 160.5L265.252 174.621L263.779 176.645L244.564 162.524L246.037 160.5Z" fill="#FF1700"/>
    <path d="M246.037 160.5L265.252 174.621L263.779 176.645L244.564 162.524L246.037 160.5Z" stroke="#170486" stroke-width="0.54" stroke-miterlimit="10"/>
    <path d="M212.312 125.042L213.859 108.744C213.859 108.744 214.708 104.708 218.75 106.939L250.865 156.585C250.865 156.585 254.833 162.703 249.043 167.793C249.043 167.793 244.153 171.579 239.736 164.759L212.312 125.042Z" fill="#FF1700"/>
    <path d="M212.312 125.042L213.859 108.744C213.859 108.744 214.708 104.708 218.75 106.939L250.865 156.585C250.865 156.585 254.833 162.703 249.043 167.793C249.043 167.793 244.153 171.579 239.736 164.759L212.312 125.042Z" stroke="#170486" stroke-width="0.54" stroke-miterlimit="10"/>
    <path d="M241.185 161.499C242.308 163.455 244.803 164.107 246.749 162.979C248.696 161.85 249.344 159.343 248.222 157.387C247.099 155.432 244.603 154.78 242.657 155.908C240.711 157.036 240.062 159.544 241.185 161.499Z" fill="#FF1700"/>
    <path d="M241.185 161.499C242.308 163.455 244.803 164.107 246.749 162.979C248.696 161.85 249.344 159.343 248.222 157.387C247.099 155.432 244.603 154.78 242.657 155.908C240.711 157.036 240.062 159.544 241.185 161.499Z" stroke="#170486" stroke-width="0.54" stroke-miterlimit="10"/>
    <path d="M253.162 176.216L276.668 194.645C279.014 196.475 282.382 196.049 284.204 193.717L285.352 192.238C287.173 189.881 286.749 186.496 284.428 184.666L260.923 166.237C258.577 164.406 255.208 164.833 253.387 167.164L252.239 168.644C250.417 171.001 250.841 174.386 253.162 176.216Z" fill="#FF1700"/>
    <path d="M284.432 184.643L260.937 166.232C258.596 164.397 255.234 164.815 253.408 167.168L252.257 168.65C250.431 171.003 250.846 174.382 253.188 176.217L276.682 194.628C279.024 196.462 282.386 196.045 284.212 193.692L285.363 192.209C287.189 189.856 286.773 186.478 284.432 184.643Z" stroke="#170486" stroke-width="0.54" stroke-miterlimit="10"/>
    <path d="M295.457 199.085C292.837 203.999 286.749 205.854 281.833 203.222C276.942 200.589 275.096 194.471 277.741 189.531C280.361 184.617 286.449 182.762 291.34 185.394C296.231 188.027 298.078 194.145 295.433 199.085" fill="#FF1700"/>
    <path d="M295.457 199.085C292.837 203.999 286.749 205.854 281.833 203.222C276.942 200.589 275.096 194.471 277.741 189.531C280.361 184.617 286.449 182.762 291.34 185.394C296.231 188.027 298.078 194.145 295.433 199.085H295.457Z" stroke="#170486" stroke-width="0.49" stroke-miterlimit="10"/>
    <path d="M292.089 197.254C290.468 200.288 286.7 201.441 283.655 199.812C280.636 198.182 279.488 194.396 281.11 191.337C282.732 188.303 286.5 187.15 289.544 188.779C292.564 190.409 293.711 194.195 292.089 197.254Z" fill="#FF1700"/>
    <path d="M292.089 197.254C290.468 200.288 286.7 201.441 283.655 199.812C280.636 198.182 279.488 194.396 281.11 191.337C282.732 188.303 286.5 187.15 289.544 188.779C292.564 190.409 293.711 194.195 292.089 197.254Z" stroke="#170486" stroke-width="0.49" stroke-miterlimit="10"/>
    <path d="M254.958 170.023C253.76 171.854 254.259 174.311 256.081 175.514C257.902 176.718 260.348 176.216 261.546 174.386C262.743 172.556 262.244 170.099 260.423 168.895C258.601 167.691 256.156 168.193 254.958 170.023Z" fill="#FF1700"/>
    <path d="M254.958 170.023C253.76 171.854 254.259 174.311 256.081 175.514C257.902 176.718 260.348 176.216 261.546 174.386C262.743 172.556 262.244 170.099 260.423 168.895C258.601 167.691 256.156 168.193 254.958 170.023Z" stroke="#170486" stroke-width="0.52" stroke-miterlimit="10"/>
    <path d="M434.896 278.167V281.778C434.896 282.906 432.177 283.809 428.808 283.809C425.439 283.809 422.719 282.906 422.719 281.778V278.167H434.896Z" fill="#FF1700"/>
    <path d="M434.896 278.167V281.778C434.896 282.906 432.177 283.809 428.808 283.809C425.439 283.809 422.719 282.906 422.719 281.778V278.167H434.896Z" stroke="#170486" stroke-width="0.54" stroke-miterlimit="10"/>
    <path d="M422.719 277.94C422.719 279.068 425.439 279.971 428.808 279.971C432.177 279.971 434.896 279.068 434.896 277.94C434.896 276.812 432.177 275.909 428.808 275.909C425.439 275.909 422.719 276.812 422.719 277.94Z" fill="#FF1700"/>
    <path d="M422.719 277.94C422.719 279.068 425.439 279.971 428.808 279.971C432.177 279.971 434.896 279.068 434.896 277.94C434.896 276.812 432.177 275.909 428.808 275.909C425.439 275.909 422.719 276.812 422.719 277.94Z" stroke="#170486" stroke-width="0.54" stroke-miterlimit="10"/>
    <mask id="mask2_3763_29941" style="mask-type:luminance" maskUnits="userSpaceOnUse" x="205" y="19" width="84" height="78">
        <path d="M288.021 57.9188C288.021 79.0558 269.481 96.181 246.624 96.181C223.767 96.181 205.227 79.0558 205.227 57.9188C205.227 36.7818 223.742 19.6816 246.624 19.6816C269.506 19.6816 288.021 36.8069 288.021 57.9188Z" fill="white"/>
    </mask>
    <g mask="url(#mask2_3763_29941)">
        <path d="M205.202 19.6816H288.021V96.181H205.202V19.6816Z" fill="url(#paint2_linear_3763_29941)"/>
    </g>
    <path d="M205.201 57.9188C205.201 79.0558 223.741 96.181 246.599 96.181C269.456 96.181 287.996 79.0558 287.996 57.9188C287.996 36.7818 269.481 19.6816 246.624 19.6816C223.766 19.6816 205.226 36.8069 205.226 57.9188H205.201Z" stroke="#170486" stroke-width="0.54" stroke-miterlimit="10"/>
    <mask id="mask3_3763_29941" style="mask-type:luminance" maskUnits="userSpaceOnUse" x="241" y="35" width="47" height="53">
        <path d="M287.996 61.4313C287.996 75.8235 277.541 87.4827 264.64 87.4827C251.739 87.4827 241.284 75.8235 241.284 61.4313C241.284 47.0391 251.739 35.3799 264.64 35.3799C277.541 35.3799 287.996 47.0391 287.996 61.4313Z" fill="white"/>
    </mask>
    <g mask="url(#mask3_3763_29941)">
        <path d="M252.939 15.044L310.443 48.4043L276.307 107.815L218.803 74.4543L252.939 15.044Z" fill="url(#paint3_linear_3763_29941)"/>
    </g>
    <path d="M241.284 61.4313C241.284 75.8235 251.739 87.4827 264.64 87.4827C277.541 87.4827 287.996 75.8235 287.996 61.4313C287.996 47.0391 277.541 35.3799 264.64 35.3799C251.739 35.3799 241.284 47.0391 241.284 61.4313Z" stroke="#170486" stroke-width="0.54" stroke-miterlimit="10"/>
    <path d="M249.27 61.3802C249.27 73.1899 257.304 82.7429 267.211 82.7429C277.117 82.7429 285.152 73.1648 285.152 61.3802C285.152 49.5957 277.117 40.0176 267.211 40.0176C257.304 40.0176 249.27 49.5957 249.27 61.3802Z" fill="#170486"/>
    <path d="M249.27 61.3802C249.27 73.1899 257.304 82.7429 267.211 82.7429C277.117 82.7429 285.152 73.1648 285.152 61.3802C285.152 49.5957 277.117 40.0176 267.211 40.0176C257.304 40.0176 249.27 49.5957 249.27 61.3802Z" stroke="#170486" stroke-width="0.54" stroke-miterlimit="10"/>
    <mask id="mask4_3763_29941" style="mask-type:luminance" maskUnits="userSpaceOnUse" x="212" y="63" width="14" height="14">
        <path d="M225.912 70.0058C225.912 73.7167 222.918 76.7255 219.225 76.7255C215.532 76.7255 212.537 73.7167 212.537 70.0058C212.537 66.295 215.532 63.2861 219.225 63.2861C222.918 63.2861 225.912 66.295 225.912 70.0058Z" fill="white"/>
    </mask>
    <g mask="url(#mask4_3763_29941)">
        <path d="M212.562 63.2861H225.912V76.7005H212.562V63.2861Z" fill="url(#paint4_linear_3763_29941)"/>
    </g>
    <path d="M212.563 70.0058C212.563 73.7167 215.557 76.7255 219.25 76.7255C222.943 76.7255 225.938 73.7167 225.938 70.0058C225.938 66.295 222.943 63.2861 219.25 63.2861C215.557 63.2861 212.563 66.295 212.563 70.0058Z" stroke="#170486" stroke-width="0.54" stroke-miterlimit="10"/>
    <path d="M213.885 71.3342C213.885 72.8136 215.082 74.0171 216.555 74.0171C218.027 74.0171 219.225 72.8136 219.225 71.3342C219.225 69.8549 218.027 68.6514 216.555 68.6514C215.082 68.6514 213.885 69.8549 213.885 71.3342Z" fill="#170486"/>
    <path d="M245.277 61.3802C245.277 73.1899 253.312 82.7429 263.219 82.7429C273.125 82.7429 281.16 73.1648 281.16 61.3802C281.16 49.5957 273.125 40.0176 263.219 40.0176C253.312 40.0176 245.277 49.5957 245.277 61.3802Z" fill="#FF1700"/>
    <path d="M245.277 61.3802C245.277 73.1899 253.312 82.7429 263.219 82.7429C273.125 82.7429 281.16 73.1648 281.16 61.3802C281.16 49.5957 273.125 40.0176 263.219 40.0176C253.312 40.0176 245.277 49.5957 245.277 61.3802Z" stroke="#170486" stroke-width="0.54" stroke-miterlimit="10"/>
    <path d="M254.659 60.6777C254.659 65.4668 258.502 69.3281 263.268 69.3281C268.034 69.3281 271.877 65.4668 271.877 60.6777C271.877 55.8887 268.034 52.0273 263.268 52.0273C258.502 52.0273 254.659 55.8887 254.659 60.6777Z" fill="#FF1700"/>
    <path d="M254.659 60.6777C254.659 65.4668 258.502 69.3281 263.268 69.3281C268.034 69.3281 271.877 65.4668 271.877 60.6777C271.877 55.8887 268.034 52.0273 263.268 52.0273C258.502 52.0273 254.659 55.8887 254.659 60.6777Z" stroke="#170486" stroke-width="0.54" stroke-miterlimit="10"/>
    <path d="M265.338 59.2729C265.338 61.1284 266.835 62.6328 268.682 62.6328C270.528 62.6328 272.025 61.1284 272.025 59.2729C272.025 57.4175 270.528 55.9131 268.682 55.9131C266.835 55.9131 265.338 57.4175 265.338 59.2729Z" fill="#170486"/>
    <defs>
        <linearGradient id="paint0_linear_3763_29941" x1="420" y1="235.049" x2="279.064" y2="235.049" gradientUnits="userSpaceOnUse">
            <stop stop-color="#1598FF"/>
            <stop offset="0.99" stop-color="#170486"/>
            <stop offset="1" stop-color="#170486"/>
        </linearGradient>
        <linearGradient id="paint1_linear_3763_29941" x1="160.909" y1="123.917" x2="182.933" y2="180.927" gradientUnits="userSpaceOnUse">
            <stop stop-color="#1598FF"/>
            <stop offset="0.99" stop-color="#170486"/>
            <stop offset="1" stop-color="#170486"/>
        </linearGradient>
        <linearGradient id="paint2_linear_3763_29941" x1="290.326" y1="55.2785" x2="207.507" y2="55.2785" gradientUnits="userSpaceOnUse">
            <stop stop-color="#1598FF"/>
            <stop offset="0.99" stop-color="#170486"/>
            <stop offset="1" stop-color="#170486"/>
        </linearGradient>
        <linearGradient id="paint3_linear_3763_29941" x1="278.762" y1="42.0832" x2="253.264" y2="86.0353" gradientUnits="userSpaceOnUse">
            <stop stop-color="#170486"/>
            <stop offset="0.01" stop-color="#170486"/>
            <stop offset="1" stop-color="#1598FF"/>
        </linearGradient>
        <linearGradient id="paint4_linear_3763_29941" x1="223.958" y1="73.1413" x2="210.608" y2="73.1413" gradientUnits="userSpaceOnUse">
            <stop stop-color="#170486"/>
            <stop offset="0.01" stop-color="#170486"/>
            <stop offset="1" stop-color="#1598FF"/>
        </linearGradient>
    </defs>
</svg>
