<svg width="309" height="246" viewBox="0 0 309 246" fill="none" xmlns="http://www.w3.org/2000/svg">
    <path d="M140.586 67.144C140.586 67.144 159.43 65.6246 172.686 84.6715" stroke="#170486" stroke-width="0.54" stroke-miterlimit="10"/>
    <path d="M272.979 150.493L274.805 147.979C277.717 144 276.831 138.41 272.852 135.498L229.541 103.934C225.544 101.022 219.974 101.908 217.063 105.888L215.236 108.402C212.325 112.382 213.211 117.971 217.189 120.883L260.501 152.447C264.479 155.359 270.067 154.473 272.979 150.493Z" fill="#FF1700"/>
    <path d="M272.979 150.493L274.805 147.979C277.717 144 276.831 138.41 272.852 135.498L229.541 103.934C225.544 101.022 219.974 101.908 217.063 105.888L215.236 108.402C212.325 112.382 213.211 117.971 217.189 120.883L260.501 152.447C264.479 155.359 270.067 154.473 272.979 150.493Z" stroke="#170486" stroke-width="0.54" stroke-miterlimit="10"/>
    <path d="M318.534 181.752L319.692 180.052C321.536 177.375 320.867 173.703 318.173 171.858L271.353 139.642C268.676 137.797 265.005 138.467 263.161 141.162L262.003 142.862C260.159 145.539 260.828 149.211 263.522 151.056L310.342 183.271C313.019 185.116 316.69 184.447 318.534 181.752Z" fill="#FF1700"/>
    <path d="M318.534 181.752L319.692 180.052C321.536 177.375 320.867 173.703 318.173 171.858L271.353 139.642C268.676 137.797 265.005 138.467 263.161 141.162L262.003 142.862C260.159 145.539 260.828 149.211 263.522 151.056L310.342 183.271C313.019 185.116 316.69 184.447 318.534 181.752Z" stroke="#170486" stroke-width="0.54" stroke-miterlimit="10"/>
    <path d="M311.336 188.408C315.206 190.56 320.071 189.149 322.205 185.296C324.339 181.425 322.946 176.56 319.094 174.425C315.242 172.291 310.36 173.684 308.226 177.536C306.092 181.407 307.484 186.273 311.336 188.408Z" fill="#FF1700"/>
    <path d="M311.336 188.408C315.206 190.56 320.071 189.149 322.205 185.296C324.339 181.425 322.946 176.56 319.094 174.425C315.242 172.291 310.36 173.684 308.226 177.536C306.092 181.407 307.484 186.273 311.336 188.408Z" stroke="#170486" stroke-width="0.54" stroke-miterlimit="10"/>
    <path d="M198.389 51.1365L215.541 52.9912L215.347 54.7896L198.194 52.9349L198.389 51.1365Z" fill="#FF1700"/>
    <path d="M198.389 51.1365L215.541 52.9912L215.347 54.7896L198.194 52.9349L198.389 51.1365Z" stroke="#170486" stroke-width="0.54" stroke-miterlimit="10"/>
    <path d="M184.061 79.5521L172.306 80.6736C172.306 80.6736 169.34 80.6193 170.353 77.4358L201.078 47.7711C201.078 47.7711 204.876 44.1173 209.252 47.536C209.252 47.536 212.616 50.5024 208.384 54.5723L184.043 79.5159L184.061 79.5521Z" fill="#FF1700"/>
    <path d="M184.061 79.5521L172.306 80.6736C172.306 80.6736 169.34 80.6193 170.353 77.4358L201.078 47.7711C201.078 47.7711 204.876 44.1173 209.252 47.536C209.252 47.536 212.616 50.5024 208.384 54.5723L184.043 79.5159L184.061 79.5521Z" stroke="#170486" stroke-width="0.54" stroke-miterlimit="10"/>
    <path d="M205.906 54.0104C207.136 52.9432 207.262 51.0801 206.177 49.8501C205.11 48.6201 203.248 48.4935 202.018 49.5788C200.788 50.646 200.662 52.5091 201.747 53.7391C202.814 54.9691 204.676 55.0957 205.906 54.0104Z" fill="#FF1700"/>
    <path d="M205.906 54.0104C207.136 52.9432 207.262 51.0801 206.177 49.8501C205.11 48.6201 203.248 48.4935 202.018 49.5788C200.788 50.646 200.662 52.5091 201.747 53.7391C202.814 54.9691 204.676 55.0957 205.906 54.0104Z" stroke="#170486" stroke-width="0.54" stroke-miterlimit="10"/>
    <path d="M217.516 50.2488L237.463 58.5513C239.452 59.3834 240.392 61.6625 239.56 63.6522L239.036 64.9003C238.204 66.89 235.925 67.8306 233.954 66.9985L214.026 58.696C212.036 57.8639 211.096 55.5848 211.928 53.6132L212.452 52.3651C213.284 50.3754 215.563 49.4348 217.534 50.2669" fill="#FF1700"/>
    <path d="M217.516 50.2488L237.463 58.5513C239.452 59.3834 240.392 61.6625 239.56 63.6522L239.036 64.9003C238.204 66.89 235.925 67.8306 233.954 66.9985L214.026 58.696C212.036 57.8639 211.096 55.5848 211.928 53.6132L212.452 52.3651C213.284 50.3754 215.563 49.4348 217.534 50.2669L217.516 50.2488Z" stroke="#170486" stroke-width="0.54" stroke-miterlimit="10"/>
    <path d="M246.938 68.8262C249.09 65.4256 248.077 60.9216 244.678 58.7691C241.278 56.6166 236.775 57.6296 234.623 61.0301C232.471 64.4307 233.484 68.9347 236.883 71.0872C240.283 73.2397 244.786 72.2268 246.938 68.8262Z" fill="#FF1700"/>
    <path d="M246.938 68.8262C249.09 65.4256 248.077 60.9216 244.678 58.7691C241.278 56.6166 236.775 57.6296 234.623 61.0301C232.471 64.4307 233.484 68.9347 236.883 71.0872C240.283 73.2397 244.786 72.2268 246.938 68.8262Z" stroke="#170486" stroke-width="0.49" stroke-miterlimit="10"/>
    <path d="M244.606 67.3421C245.944 65.2439 245.311 62.4583 243.214 61.1198C241.116 59.7812 238.331 60.4143 236.993 62.5126C235.654 64.6108 236.287 67.3964 238.385 68.7349C240.483 70.0734 243.268 69.4404 244.606 67.3421Z" fill="#FF1700"/>
    <path d="M244.606 67.3421C245.944 65.2439 245.311 62.4583 243.214 61.1198C241.116 59.7812 238.331 60.4143 236.993 62.5126C235.654 64.6108 236.287 67.3964 238.385 68.7349C240.483 70.0734 243.268 69.4404 244.606 67.3421Z" stroke="#170486" stroke-width="0.49" stroke-miterlimit="10"/>
    <path d="M214.26 53.5778C214.984 52.1669 216.702 51.6243 218.112 52.3297C219.523 53.0532 220.065 54.7716 219.342 56.1825C218.619 57.5934 216.901 58.136 215.49 57.4306C214.08 56.7071 213.537 54.9887 214.242 53.5778" fill="#FF1700"/>
    <path d="M214.26 53.5778C214.984 52.1669 216.702 51.6243 218.112 52.3297C219.523 53.0532 220.065 54.7716 219.342 56.1825C218.619 57.5934 216.901 58.136 215.49 57.4306C214.08 56.7071 213.537 54.9887 214.242 53.5778H214.26Z" stroke="#170486" stroke-width="0.52" stroke-miterlimit="10"/>
    <mask id="mask0_3763_29867" style="mask-type:luminance" maskUnits="userSpaceOnUse" x="144" y="62" width="111" height="91">
        <path d="M194.332 64.6839C235.129 78.3586 261.496 109.525 253.195 134.287C250.7 141.722 245.365 147.745 238.005 152.159C235.383 128.698 205.055 107.408 165.94 102.941C158.652 102.108 151.545 101.928 144.727 102.307C145.414 99.8475 146.282 97.4236 147.331 95.036C154.727 78.2682 169.484 66.8364 186.754 62.3867C189.268 63.056 191.8 63.8157 194.332 64.6658" fill="white"/>
    </mask>
    <g mask="url(#mask0_3763_29867)">
        <path d="M145.712 51.7078L269.695 63.1465L260.503 162.824L136.52 151.385L145.712 51.7078Z" fill="url(#paint0_linear_3763_29867)"/>
    </g>
    <path d="M194.333 64.6834C191.801 63.8333 189.269 63.0736 186.756 62.4043C169.485 66.854 154.729 78.2677 147.332 95.0355C146.283 97.4231 145.415 99.865 144.728 102.307C151.546 101.927 158.653 102.108 165.941 102.94C205.057 107.39 235.384 128.68 238.006 152.14C245.366 147.727 250.701 141.721 253.197 134.269C261.497 109.506 235.149 78.34 194.333 64.6653V64.6834Z" stroke="#170486" stroke-width="0.54" stroke-miterlimit="10"/>
    <path d="M162.523 102.741C162.523 102.741 175.308 77.4174 192.633 78.8464C192.633 78.8464 261.334 105.834 245.529 146.587" stroke="#170486" stroke-width="0.54" stroke-miterlimit="10"/>
    <path d="M160.785 113.704C160.785 113.704 172.648 90.1707 188.689 91.455C188.689 91.455 251.224 115.53 237.878 152.141" stroke="#170486" stroke-width="0.54" stroke-miterlimit="10"/>
    <path d="M183.374 153.804L185.291 156.264C188.311 160.171 193.917 160.876 197.823 157.856L240.194 125.025C244.1 122.005 244.806 116.397 241.785 112.49L239.887 110.03C236.867 106.123 231.261 105.418 227.354 108.439L184.983 141.269C181.077 144.289 180.372 149.897 183.392 153.804" fill="#FF1700"/>
    <path d="M183.374 153.804L185.291 156.264C188.311 160.171 193.917 160.876 197.823 157.856L240.194 125.025C244.1 122.005 244.806 116.397 241.785 112.49L239.887 110.03C236.867 106.123 231.261 105.418 227.354 108.439L184.983 141.269C181.077 144.289 180.372 149.897 183.392 153.804H183.374Z" stroke="#170486" stroke-width="0.54" stroke-miterlimit="10"/>
    <path d="M250.139 169.813L250.79 167.859C251.821 164.766 250.157 161.42 247.083 160.389L193.21 142.337C190.118 141.306 186.773 142.97 185.742 146.045L185.091 147.998C184.06 151.091 185.724 154.42 188.798 155.469L242.671 173.539C245.763 174.57 249.09 172.906 250.139 169.813Z" fill="#FF1700"/>
    <path d="M247.058 160.372L193.181 142.32C190.094 141.286 186.752 142.951 185.718 146.038L185.063 147.993C184.029 151.081 185.694 154.424 188.781 155.458L242.658 173.51C245.745 174.544 249.087 172.879 250.121 169.792L250.776 167.836C251.81 164.749 250.145 161.406 247.058 160.372Z" stroke="#170486" stroke-width="0.54" stroke-miterlimit="10"/>
    <path d="M238.53 177.626C242.4 179.779 247.264 178.368 249.398 174.515C251.532 170.644 250.14 165.778 246.288 163.644C242.436 161.51 237.553 162.902 235.419 166.755C233.285 170.626 234.678 175.492 238.53 177.626Z" fill="#FF1700"/>
    <path d="M238.53 177.626C242.4 179.779 247.264 178.368 249.398 174.515C251.532 170.644 250.14 165.778 246.288 163.644C242.436 161.51 237.553 162.902 235.419 166.755C233.285 170.626 234.678 175.492 238.53 177.626Z" stroke="#170486" stroke-width="0.54" stroke-miterlimit="10"/>
    <path d="M240.011 174.968C242.398 176.288 245.418 175.438 246.739 173.032C248.059 170.645 247.209 167.624 244.804 166.304C242.416 164.983 239.396 165.833 238.076 168.239C236.756 170.627 237.606 173.647 240.011 174.968Z" fill="#FF1700"/>
    <path d="M240.011 174.968C242.398 176.288 245.418 175.438 246.739 173.032C248.059 170.645 247.209 167.624 244.804 166.304C242.416 164.983 239.396 165.833 238.076 168.239C236.756 170.627 237.606 173.647 240.011 174.968Z" stroke="#170486" stroke-width="0.54" stroke-miterlimit="10"/>
    <path d="M138.412 110.943L152.352 121.11L151.286 122.572L137.346 112.405L138.412 110.943Z" fill="#FF1700"/>
    <path d="M138.412 110.943L152.352 121.11L151.286 122.572L137.346 112.405L138.412 110.943Z" stroke="#170486" stroke-width="0.54" stroke-miterlimit="10"/>
    <path d="M176.627 94.3486L175.506 82.5912C175.506 82.5912 174.891 79.679 171.961 81.2889L148.687 117.104C148.687 117.104 145.812 121.517 150.007 125.189C150.007 125.189 153.552 127.92 156.753 123L176.627 94.3486Z" fill="#FF1700"/>
    <path d="M176.627 94.3486L175.506 82.5912C175.506 82.5912 174.891 79.679 171.961 81.2889L148.687 117.104C148.687 117.104 145.812 121.517 150.007 125.189C150.007 125.189 153.552 127.92 156.753 123L176.627 94.3486Z" stroke="#170486" stroke-width="0.54" stroke-miterlimit="10"/>
    <path d="M155.705 120.649C154.891 122.06 153.083 122.53 151.672 121.716C150.262 120.902 149.791 119.094 150.605 117.683C151.419 116.272 153.227 115.801 154.638 116.615C156.049 117.429 156.519 119.238 155.705 120.649Z" fill="#FF1700"/>
    <path d="M155.705 120.649C154.891 122.06 153.083 122.53 151.672 121.716C150.262 120.902 149.791 119.094 150.605 117.683C151.419 116.272 153.227 115.801 154.638 116.615C156.049 117.429 156.519 119.238 155.705 120.649Z" stroke="#170486" stroke-width="0.54" stroke-miterlimit="10"/>
    <mask id="mask1_3763_29867" style="mask-type:luminance" maskUnits="userSpaceOnUse" x="116" y="50" width="65" height="50">
        <path d="M171.654 55.747C174.819 56.9951 177.839 58.4241 180.66 59.9797C164.312 61.3725 149.754 71.0135 143.696 86.3342C142.213 90.0785 141.363 93.9313 141.038 97.7841C139.121 98.1278 137.294 98.58 135.595 99.1588C121.127 88.9932 113.514 75.2462 117.8 64.3751C121.362 55.3853 132.213 50.5195 145.776 50.5195C153.769 50.5195 162.703 52.2017 171.636 55.747" fill="white"/>
    </mask>
    <g mask="url(#mask1_3763_29867)">
        <path d="M175.461 32.5486L193.666 95.3887L118.716 117.112L100.511 54.2717L175.461 32.5486Z" fill="url(#paint1_linear_3763_29867)"/>
    </g>
    <path d="M141.038 97.7841C141.363 93.9313 142.213 90.0785 143.696 86.3342C149.754 71.0135 164.312 61.3725 180.66 59.9797C177.839 58.4241 174.819 56.9951 171.654 55.747C147.566 46.2145 123.46 50.0854 117.8 64.3751C113.514 75.2462 121.127 88.9932 135.595 99.1588C137.313 98.58 139.121 98.1278 141.038 97.7841Z" stroke="#170486" stroke-width="0.54" stroke-miterlimit="10"/>
    <path d="M142.43 90.495C134.726 84.2546 132.918 73.691 138.416 66.926C143.895 60.161 154.583 59.745 162.305 65.9854" stroke="#170486" stroke-width="0.54" stroke-miterlimit="10"/>
    <path d="M126.39 80.5292C126.463 83.4776 128.922 85.811 131.888 85.7387C134.836 85.6663 137.168 83.2063 137.096 80.2579C137.024 77.3095 134.564 74.9762 131.617 75.0485C128.669 75.1209 126.336 77.5809 126.408 80.5292" fill="#FF1700"/>
    <path d="M126.39 80.5292C126.463 83.4776 128.922 85.811 131.888 85.7387C134.836 85.6663 137.168 83.2063 137.096 80.2579C137.024 77.3095 134.564 74.9762 131.617 75.0485C128.669 75.1209 126.336 77.5809 126.408 80.5292H126.39Z" stroke="#170486" stroke-width="0.54" stroke-miterlimit="10"/>
    <path d="M128.867 80.475C128.903 82.0667 130.224 83.3148 131.815 83.2606C133.406 83.2244 134.654 81.9039 134.6 80.3303C134.564 78.7385 133.244 77.4904 131.652 77.5447C130.079 77.5808 128.813 78.9013 128.867 80.4931" fill="#170486"/>
    <mask id="mask2_3763_29867" style="mask-type:luminance" maskUnits="userSpaceOnUse" x="121" y="67" width="11" height="11">
        <path d="M131.219 72.245L125.974 77.1831L121.544 71.6843L127.964 67.0537L131.219 72.245Z" fill="white"/>
    </mask>
    <g mask="url(#mask2_3763_29867)">
        <path d="M128.09 70.4912C128.09 70.4912 123.298 71.3233 122.628 76.4061" stroke="#170486" stroke-width="0.49" stroke-linecap="round" stroke-linejoin="round"/>
    </g>
    <path d="M140.007 119.653L122.158 107.48C120.386 106.268 119.916 103.844 121.128 102.071L121.887 100.95C123.099 99.1773 125.522 98.707 127.294 99.9189L145.143 112.092C146.916 113.304 147.368 115.728 146.174 117.501L145.415 118.622C144.203 120.395 141.78 120.865 140.007 119.653Z" fill="#FF1700"/>
    <path d="M145.155 112.104L127.315 99.9364C125.537 98.7237 123.125 99.1801 121.912 100.958L121.148 102.079C119.936 103.858 120.392 106.271 122.17 107.483L140.01 119.651C141.788 120.864 144.2 120.407 145.413 118.629L146.177 117.508C147.389 115.73 146.933 113.317 145.155 112.104Z" stroke="#170486" stroke-width="0.54" stroke-miterlimit="10"/>
    <path d="M114.96 95.5066C112.157 98.4008 112.248 103.013 115.141 105.817C118.035 108.621 122.646 108.53 125.449 105.636C128.252 102.742 128.162 98.1294 125.268 95.3258C122.375 92.5221 117.763 92.6125 114.96 95.5066Z" fill="#FF1700"/>
    <path d="M114.96 95.5066C112.157 98.4008 112.248 103.013 115.141 105.817C118.035 108.621 122.646 108.53 125.449 105.636C128.252 102.742 128.162 98.1294 125.268 95.3258C122.375 92.5221 117.763 92.6125 114.96 95.5066Z" stroke="#170486" stroke-width="0.49" stroke-miterlimit="10"/>
    <path d="M116.95 97.4236C115.214 99.2143 115.268 102.072 117.058 103.809C118.849 105.545 121.706 105.491 123.442 103.7C125.178 101.909 125.124 99.0515 123.334 97.315C121.543 95.5786 118.686 95.6328 116.95 97.4236Z" fill="#FF1700"/>
    <path d="M116.95 97.4236C115.214 99.2143 115.268 102.072 117.058 103.809C118.849 105.545 121.706 105.491 123.442 103.7C125.178 101.909 125.124 99.0515 123.334 97.315C121.543 95.5786 118.686 95.6328 116.95 97.4236Z" stroke="#170486" stroke-width="0.49" stroke-miterlimit="10"/>
    <path d="M143.878 117.067C142.883 118.297 141.093 118.496 139.863 117.501C138.633 116.506 138.434 114.715 139.429 113.485C140.424 112.255 142.214 112.056 143.444 113.051C144.673 114.046 144.872 115.837 143.878 117.067Z" fill="#FF1700"/>
    <path d="M143.878 117.067C142.883 118.297 141.093 118.496 139.863 117.501C138.633 116.506 138.434 114.715 139.429 113.485C140.424 112.255 142.214 112.056 143.444 113.051C144.673 114.046 144.872 115.837 143.878 117.067Z" stroke="#170486" stroke-width="0.52" stroke-miterlimit="10"/>
    <mask id="mask3_3763_29867" style="mask-type:luminance" maskUnits="userSpaceOnUse" x="128" y="89" width="10" height="11">
        <path d="M137.168 92.231L133.533 99.2854L128.271 96.12L130.712 89.3369L137.168 92.231Z" fill="white"/>
    </mask>
    <g mask="url(#mask3_3763_29867)">
        <path d="M131.852 96.2642C131.852 96.2642 135.758 93.352 134.04 88.5225" stroke="#170486" stroke-width="0.49" stroke-linecap="round" stroke-linejoin="round"/>
    </g>
    <defs>
        <linearGradient id="paint0_linear_3763_29867" x1="208.742" y1="83.8092" x2="204.689" y2="127.74" gradientUnits="userSpaceOnUse">
            <stop stop-color="#1598FF"/>
            <stop offset="0.99" stop-color="#170486"/>
            <stop offset="1" stop-color="#170486"/>
        </linearGradient>
        <linearGradient id="paint1_linear_3763_29867" x1="139.003" y1="48.3319" x2="149.024" y2="82.904" gradientUnits="userSpaceOnUse">
            <stop stop-color="#170486"/>
            <stop offset="0.01" stop-color="#170486"/>
            <stop offset="1" stop-color="#1598FF"/>
        </linearGradient>
    </defs>
</svg>
