<svg width="180" height="137" viewBox="0 0 180 137" fill="none" xmlns="http://www.w3.org/2000/svg">
    <path d="M78.4669 37.393C78.4669 37.393 88.9843 36.5468 96.3828 47.1542" stroke="#170486" stroke-width="0.54" stroke-miterlimit="10"/>
    <path d="M152.361 83.811L153.38 82.4108C155.005 80.1946 154.511 77.0819 152.29 75.4601L128.116 57.8817C125.885 56.2599 122.777 56.7535 121.152 58.9697L120.132 60.3699C118.507 62.5861 119.002 65.6988 121.222 67.3206L145.396 84.8989C147.617 86.5208 150.736 86.0272 152.361 83.811Z" fill="#FF1700"/>
    <path d="M152.361 83.811L153.38 82.4108C155.005 80.1946 154.511 77.0819 152.29 75.4601L128.116 57.8817C125.885 56.2599 122.777 56.7535 121.152 58.9697L120.132 60.3699C118.507 62.5861 119.002 65.6988 121.222 67.3206L145.396 84.8989C147.617 86.5208 150.736 86.0272 152.361 83.811Z" stroke="#170486" stroke-width="0.54" stroke-miterlimit="10"/>
    <path d="M177.786 101.219L178.432 100.272C179.461 98.7816 179.088 96.7366 177.584 95.7091L151.452 77.7682C149.958 76.7407 147.909 77.1134 146.88 78.6144L146.234 79.5613C145.204 81.0521 145.578 83.0971 147.082 84.1246L173.214 102.066C174.707 103.093 176.756 102.72 177.786 101.219Z" fill="#FF1700"/>
    <path d="M177.786 101.219L178.432 100.272C179.461 98.7816 179.088 96.7366 177.584 95.7091L151.452 77.7682C149.958 76.7407 147.909 77.1134 146.88 78.6144L146.234 79.5613C145.204 81.0521 145.578 83.0971 147.082 84.1246L173.214 102.066C174.707 103.093 176.756 102.72 177.786 101.219Z" stroke="#170486" stroke-width="0.54" stroke-miterlimit="10"/>
    <path d="M173.769 104.926C175.929 106.125 178.644 105.339 179.835 103.193C181.026 101.038 180.249 98.3279 178.099 97.1392C175.949 95.9505 173.224 96.7262 172.033 98.8719C170.842 101.028 171.619 103.737 173.769 104.926Z" fill="#FF1700"/>
    <path d="M173.769 104.926C175.929 106.125 178.644 105.339 179.835 103.193C181.026 101.038 180.249 98.3279 178.099 97.1392C175.949 95.9505 173.224 96.7262 172.033 98.8719C170.842 101.028 171.619 103.737 173.769 104.926Z" stroke="#170486" stroke-width="0.54" stroke-miterlimit="10"/>
    <path d="M174.597 103.445C175.929 104.181 177.615 103.707 178.352 102.368C179.089 101.038 178.614 99.3556 177.272 98.6202C175.939 97.8849 174.254 98.3583 173.517 99.6981C172.78 101.028 173.255 102.71 174.597 103.445Z" fill="#FF1700"/>
    <path d="M174.597 103.445C175.929 104.181 177.615 103.707 178.352 102.368C179.089 101.038 178.614 99.3556 177.272 98.6202C175.939 97.8849 174.254 98.3583 173.517 99.6981C172.78 101.028 173.255 102.71 174.597 103.445Z" stroke="#170486" stroke-width="0.54" stroke-miterlimit="10"/>
    <path d="M110.728 28.4788L120.302 29.5117L120.193 30.5132L110.62 29.4803L110.728 28.4788Z" fill="#FF1700"/>
    <path d="M110.728 28.4788L120.302 29.5117L120.193 30.5132L110.62 29.4803L110.728 28.4788Z" stroke="#170486" stroke-width="0.54" stroke-miterlimit="10"/>
    <path d="M102.731 44.3038L96.1706 44.9284C96.1706 44.9284 94.5153 44.8982 95.0805 43.1252L112.229 26.6046C112.229 26.6046 114.349 24.5698 116.792 26.4737C116.792 26.4737 118.669 28.1257 116.307 30.3923L102.721 44.2837L102.731 44.3038Z" fill="#FF1700"/>
    <path d="M102.731 44.3038L96.1706 44.9284C96.1706 44.9284 94.5153 44.8982 95.0805 43.1252L112.229 26.6046C112.229 26.6046 114.349 24.5698 116.792 26.4737C116.792 26.4737 118.669 28.1257 116.307 30.3923L102.721 44.2837L102.731 44.3038Z" stroke="#170486" stroke-width="0.54" stroke-miterlimit="10"/>
    <path d="M114.924 30.0788C115.61 29.4844 115.681 28.4469 115.075 27.7619C114.479 27.0769 113.44 27.0064 112.753 27.6108C112.067 28.2051 111.996 29.2427 112.602 29.9277C113.198 30.6127 114.237 30.6832 114.924 30.0788Z" fill="#FF1700"/>
    <path d="M114.924 30.0788C115.61 29.4844 115.681 28.4469 115.075 27.7619C114.479 27.0769 113.44 27.0064 112.753 27.6108C112.067 28.2051 111.996 29.2427 112.602 29.9277C113.198 30.6127 114.237 30.6832 114.924 30.0788Z" stroke="#170486" stroke-width="0.54" stroke-miterlimit="10"/>
    <path d="M121.404 27.9839L132.537 32.6076C133.647 33.071 134.172 34.3403 133.708 35.4484L133.415 36.1434C132.951 37.2515 131.679 37.7753 130.579 37.312L119.456 32.6882C118.346 32.2248 117.821 30.9556 118.285 29.8576L118.578 29.1625C119.042 28.0544 120.314 27.5306 121.414 27.9939" fill="#FF1700"/>
    <path d="M121.404 27.9839L132.537 32.6076C133.647 33.071 134.172 34.3403 133.708 35.4484L133.415 36.1434C132.951 37.2515 131.679 37.7753 130.579 37.312L119.456 32.6882C118.346 32.2248 117.821 30.9556 118.285 29.8576L118.578 29.1625C119.042 28.0544 120.314 27.5306 121.414 27.9939L121.404 27.9839Z" stroke="#170486" stroke-width="0.54" stroke-miterlimit="10"/>
    <path d="M137.826 38.33C139.027 36.4362 138.462 33.9279 136.565 32.7292C134.667 31.5304 132.154 32.0945 130.953 33.9884C129.751 35.8822 130.317 38.3905 132.214 39.5892C134.112 40.788 136.625 40.2239 137.826 38.33Z" fill="#FF1700"/>
    <path d="M137.826 38.33C139.027 36.4362 138.462 33.9279 136.565 32.7292C134.667 31.5304 132.154 32.0945 130.953 33.9884C129.751 35.8822 130.317 38.3905 132.214 39.5892C134.112 40.788 136.625 40.2239 137.826 38.33Z" stroke="#170486" stroke-width="0.49" stroke-miterlimit="10"/>
    <path d="M136.524 37.5032C137.271 36.3346 136.918 34.7833 135.747 34.0379C134.576 33.2924 133.021 33.645 132.275 34.8135C131.528 35.9821 131.881 37.5334 133.052 38.2788C134.223 39.0243 135.777 38.6717 136.524 37.5032Z" fill="#FF1700"/>
    <path d="M136.524 37.5032C137.271 36.3346 136.918 34.7833 135.747 34.0379C134.576 33.2924 133.021 33.645 132.275 34.8135C131.528 35.9821 131.881 37.5334 133.052 38.2788C134.223 39.0243 135.777 38.6717 136.524 37.5032Z" stroke="#170486" stroke-width="0.49" stroke-miterlimit="10"/>
    <path d="M119.588 29.8384C119.991 29.0527 120.95 28.7505 121.738 29.1433C122.525 29.5463 122.828 30.5033 122.424 31.289C122.02 32.0747 121.061 32.3769 120.274 31.9841C119.487 31.5811 119.184 30.6241 119.578 29.8384" fill="#FF1700"/>
    <path d="M119.588 29.8384C119.991 29.0527 120.95 28.7505 121.738 29.1433C122.525 29.5463 122.828 30.5033 122.424 31.289C122.02 32.0747 121.061 32.3769 120.274 31.9841C119.487 31.5811 119.184 30.6241 119.578 29.8384H119.588Z" stroke="#170486" stroke-width="0.52" stroke-miterlimit="10"/>
    <mask id="mask0_3403_13258" style="mask-type:luminance" maskUnits="userSpaceOnUse" x="80" y="34" width="63" height="51">
        <path d="M108.464 36.0235C131.235 43.6391 145.951 60.9958 141.318 74.7864C139.926 78.9266 136.948 82.2811 132.84 84.7391C131.376 71.6737 114.45 59.8172 92.6175 57.329C88.5499 56.8656 84.5831 56.7649 80.7779 56.9764C81.1615 55.6064 81.6459 54.2566 82.2314 52.9269C86.3596 43.5887 94.5958 37.2222 104.235 34.7441C105.638 35.1169 107.051 35.5399 108.464 36.0134" fill="white"/>
    </mask>
    <g mask="url(#mask0_3403_13258)">
        <path d="M81.3276 28.7967L150.527 35.167L145.397 90.6783L76.1972 84.3079L81.3276 28.7967Z" fill="url(#paint0_linear_3403_13258)"/>
    </g>
    <path d="M108.464 36.0232C107.051 35.5497 105.638 35.1266 104.235 34.7539C94.5954 37.232 86.3592 43.5884 82.231 52.9266C81.6455 54.2563 81.161 55.6162 80.7775 56.9761C84.5827 56.7646 88.5495 56.8653 92.6171 57.3287C114.449 59.8068 131.376 71.6633 132.84 84.7287C136.948 82.2707 139.925 78.9263 141.318 74.776C145.951 60.9854 131.245 43.6287 108.464 36.0131V36.0232Z" stroke="#170486" stroke-width="0.54" stroke-miterlimit="10"/>
    <path d="M90.7103 57.2175C90.7103 57.2175 97.8464 43.1146 107.516 43.9104C107.516 43.9104 145.861 58.9401 137.039 81.6358" stroke="#170486" stroke-width="0.54" stroke-miterlimit="10"/>
    <path d="M89.7404 63.322C89.7404 63.322 96.3617 50.2163 105.315 50.9316C105.315 50.9316 140.218 64.3394 132.769 84.7283" stroke="#170486" stroke-width="0.54" stroke-miterlimit="10"/>
    <path d="M102.348 85.6552L103.418 87.0252C105.104 89.2011 108.232 89.594 110.413 87.9117L134.062 69.6283C136.242 67.946 136.635 64.8232 134.95 62.6473L133.89 61.2773C132.204 59.1014 129.075 58.7086 126.895 60.3908L103.246 78.6743C101.066 80.3566 100.672 83.4794 102.358 85.6552" fill="#FF1700"/>
    <path d="M102.348 85.6552L103.418 87.0252C105.104 89.2011 108.232 89.594 110.413 87.9117L134.062 69.6283C136.242 67.946 136.635 64.8232 134.95 62.6473L133.89 61.2773C132.204 59.1014 129.075 58.7086 126.895 60.3908L103.246 78.6743C101.066 80.3566 100.672 83.4794 102.358 85.6552H102.348Z" stroke="#170486" stroke-width="0.54" stroke-miterlimit="10"/>
    <path d="M139.613 94.5704L139.976 93.4825C140.551 91.7599 139.623 89.8963 137.907 89.3221L107.838 79.2688C106.112 78.6946 104.245 79.6213 103.67 81.3338L103.306 82.4218C102.731 84.1443 103.66 85.9979 105.376 86.5821L135.444 96.6456C137.17 97.2198 139.027 96.293 139.613 94.5704Z" fill="#FF1700"/>
    <path d="M137.894 89.3124L107.822 79.2589C106.1 78.6829 104.234 79.6103 103.657 81.3297L103.292 82.4186C102.715 84.1379 103.644 85.9996 105.367 86.5756L135.438 96.6291C137.161 97.205 139.026 96.2776 139.603 94.5583L139.969 93.4694C140.546 91.75 139.616 89.8883 137.894 89.3124Z" stroke="#170486" stroke-width="0.54" stroke-miterlimit="10"/>
    <path d="M133.132 98.9221C135.292 100.121 138.008 99.3352 139.199 97.1895C140.39 95.0338 139.612 92.324 137.462 91.1353C135.313 89.9466 132.587 90.7223 131.396 92.868C130.205 95.0237 130.982 97.7335 133.132 98.9221Z" fill="#FF1700"/>
    <path d="M133.132 98.9221C135.292 100.121 138.008 99.3352 139.199 97.1895C140.39 95.0338 139.612 92.324 137.462 91.1353C135.313 89.9466 132.587 90.7223 131.396 92.868C130.205 95.0237 130.982 97.7335 133.132 98.9221Z" stroke="#170486" stroke-width="0.54" stroke-miterlimit="10"/>
    <path d="M133.96 97.4416C135.293 98.1769 136.978 97.7035 137.715 96.3637C138.452 95.034 137.977 93.3517 136.635 92.6163C135.303 91.881 133.617 92.3544 132.88 93.6942C132.143 95.0239 132.618 96.7062 133.96 97.4416Z" fill="#FF1700"/>
    <path d="M133.96 97.4416C135.293 98.1769 136.978 97.7035 137.715 96.3637C138.452 95.034 137.977 93.3517 136.635 92.6163C135.303 91.881 133.617 92.3544 132.88 93.6942C132.143 95.0239 132.618 96.7062 133.96 97.4416Z" stroke="#170486" stroke-width="0.54" stroke-miterlimit="10"/>
    <path d="M77.2529 61.785L85.0332 67.4473L84.4385 68.2612L76.6582 62.5989L77.2529 61.785Z" fill="#FF1700"/>
    <path d="M77.2529 61.785L85.0332 67.4473L84.4385 68.2612L76.6582 62.5989L77.2529 61.785Z" stroke="#170486" stroke-width="0.54" stroke-miterlimit="10"/>
    <path d="M98.583 52.5433L97.9572 45.9955C97.9572 45.9955 97.614 44.3736 95.9789 45.2702L82.9886 65.2158C82.9886 65.2158 81.3838 67.6737 83.7254 69.7186C83.7254 69.7186 85.7038 71.2398 87.4903 68.4998L98.583 52.5433Z" fill="#FF1700"/>
    <path d="M98.583 52.5433L97.9572 45.9955C97.9572 45.9955 97.614 44.3736 95.9789 45.2702L82.9886 65.2158C82.9886 65.2158 81.3838 67.6737 83.7254 69.7186C83.7254 69.7186 85.7038 71.2398 87.4903 68.4998L98.583 52.5433Z" stroke="#170486" stroke-width="0.54" stroke-miterlimit="10"/>
    <path d="M86.9045 67.191C86.4503 67.9768 85.441 68.2387 84.6537 67.7854C83.8664 67.3321 83.604 66.3247 84.0582 65.539C84.5124 64.7533 85.5217 64.4913 86.309 64.9447C87.0963 65.398 87.3587 66.4053 86.9045 67.191Z" fill="#FF1700"/>
    <path d="M86.9045 67.191C86.4503 67.9768 85.441 68.2387 84.6537 67.7854C83.8664 67.3321 83.604 66.3247 84.0582 65.539C84.5124 64.7533 85.5217 64.4913 86.309 64.9447C87.0963 65.398 87.3587 66.4053 86.9045 67.191Z" stroke="#170486" stroke-width="0.54" stroke-miterlimit="10"/>
    <mask id="mask1_3403_13258" style="mask-type:luminance" maskUnits="userSpaceOnUse" x="65" y="28" width="36" height="28">
        <path d="M95.8074 31.046C97.5738 31.7411 99.2594 32.5369 100.834 33.4032C91.7095 34.1789 83.5843 39.5481 80.203 48.0804C79.3753 50.1656 78.9009 52.3112 78.7192 54.4569C77.6493 54.6483 76.6299 54.9001 75.6811 55.2225C67.6063 49.5612 63.357 41.9053 65.7491 35.8511C67.7375 30.8445 73.7936 28.1348 81.3637 28.1348C85.825 28.1348 90.8112 29.0716 95.7974 31.046" fill="white"/>
    </mask>
    <g mask="url(#mask1_3403_13258)">
        <path d="M97.9328 18.1267L108.094 53.123L66.2613 65.2209L56.1004 30.2246L97.9328 18.1267Z" fill="url(#paint1_linear_3403_13258)"/>
    </g>
    <path d="M78.7192 54.4569C78.9009 52.3112 79.3753 50.1656 80.203 48.0804C83.5843 39.5481 91.7095 34.1789 100.834 33.4032C99.2594 32.5369 97.5738 31.7411 95.8074 31.046C82.363 25.7373 68.9084 27.893 65.7491 35.8511C63.357 41.9053 67.6063 49.5612 75.6811 55.2225C76.64 54.9001 77.6493 54.6483 78.7192 54.4569Z" stroke="#170486" stroke-width="0.54" stroke-miterlimit="10"/>
    <path d="M79.4962 50.3973C75.1963 46.9219 74.187 41.039 77.2554 37.2715C80.3137 33.504 86.279 33.2723 90.5889 36.7477" stroke="#170486" stroke-width="0.54" stroke-miterlimit="10"/>
    <path d="M70.5433 44.8471C70.5837 46.4891 71.9564 47.7886 73.6117 47.7483C75.2569 47.708 76.559 46.338 76.5186 44.696C76.4782 43.054 75.1055 41.7546 73.4603 41.7949C71.8151 41.8352 70.513 43.2052 70.5534 44.8471" fill="#FF1700"/>
    <path d="M70.5433 44.8471C70.5837 46.4891 71.9564 47.7886 73.6117 47.7483C75.2569 47.708 76.559 46.338 76.5186 44.696C76.4782 43.054 75.1055 41.7546 73.4603 41.7949C71.8151 41.8352 70.513 43.2052 70.5534 44.8471H70.5433Z" stroke="#170486" stroke-width="0.54" stroke-miterlimit="10"/>
    <path d="M71.9264 44.8174C71.9466 45.7039 72.6834 46.399 73.5716 46.3688C74.4598 46.3486 75.1563 45.6132 75.126 44.7368C75.1058 43.8504 74.369 43.1553 73.4808 43.1855C72.6026 43.2057 71.8961 43.941 71.9264 44.8275" fill="#170486"/>
    <mask id="mask2_3403_13258" style="mask-type:luminance" maskUnits="userSpaceOnUse" x="67" y="37" width="7" height="6">
        <path d="M73.2383 40.2339L70.3112 42.984L67.8383 39.9216L71.4215 37.3428L73.2383 40.2339Z" fill="white"/>
    </mask>
    <g mask="url(#mask2_3403_13258)">
        <path d="M71.4922 39.2568C71.4922 39.2568 68.8174 39.7202 68.444 42.5509" stroke="#170486" stroke-width="0.49" stroke-linecap="round" stroke-linejoin="round"/>
    </g>
    <path d="M78.1436 66.636L68.1814 59.8565C67.1922 59.1815 66.9298 57.8317 67.6061 56.8445L68.03 56.2199C68.7062 55.2327 70.0588 54.9708 71.0479 55.6457L81.0102 62.4252C81.9993 63.1001 82.2517 64.45 81.5855 65.4372L81.1616 66.0618C80.4853 67.049 79.1328 67.3109 78.1436 66.636Z" fill="#FF1700"/>
    <path d="M81.0166 62.4322L71.0597 55.6559C70.0673 54.9806 68.7208 55.2347 68.0442 56.2251L67.6177 56.8493C66.941 57.8397 67.1956 59.1835 68.188 59.8589L78.145 66.6351C79.1373 67.3105 80.4838 67.0563 81.1605 66.0659L81.587 65.4417C82.2637 64.4513 82.009 63.1075 81.0166 62.4322Z" stroke="#170486" stroke-width="0.54" stroke-miterlimit="10"/>
    <path d="M64.1644 53.1882C62.5999 54.8 62.6504 57.3688 64.2654 58.9302C65.8803 60.4916 68.4542 60.4412 70.0186 58.8294C71.5831 57.2177 71.5327 54.6489 69.9177 53.0875C68.3027 51.5261 65.7289 51.5765 64.1644 53.1882Z" fill="#FF1700"/>
    <path d="M64.1644 53.1882C62.5999 54.8 62.6504 57.3688 64.2654 58.9302C65.8803 60.4916 68.4542 60.4412 70.0186 58.8294C71.5831 57.2177 71.5327 54.6489 69.9177 53.0875C68.3027 51.5261 65.7289 51.5765 64.1644 53.1882Z" stroke="#170486" stroke-width="0.49" stroke-miterlimit="10"/>
    <path d="M65.2747 54.2565C64.3057 55.2538 64.336 56.8454 65.3353 57.8125C66.3345 58.7795 67.9293 58.7493 68.8983 57.752C69.8672 56.7547 69.8369 55.1631 68.8377 54.1961C67.8384 53.229 66.2437 53.2592 65.2747 54.2565Z" fill="#FF1700"/>
    <path d="M65.2747 54.2565C64.3057 55.2538 64.336 56.8454 65.3353 57.8125C66.3345 58.7795 67.9293 58.7493 68.8983 57.752C69.8672 56.7547 69.8369 55.1631 68.8377 54.1961C67.8384 53.229 66.2437 53.2592 65.2747 54.2565Z" stroke="#170486" stroke-width="0.49" stroke-miterlimit="10"/>
    <path d="M80.3034 65.1959C79.7483 65.8809 78.749 65.9917 78.0626 65.4377C77.3763 64.8836 77.2653 63.8863 77.8204 63.2013C78.3755 62.5163 79.3748 62.4055 80.0612 62.9596C80.7475 63.5136 80.8585 64.5109 80.3034 65.1959Z" fill="#FF1700"/>
    <path d="M80.3034 65.1959C79.7483 65.8809 78.749 65.9917 78.0626 65.4377C77.3763 64.8836 77.2653 63.8863 77.8204 63.2013C78.3755 62.5163 79.3748 62.4055 80.0612 62.9596C80.7475 63.5136 80.8585 64.5109 80.3034 65.1959Z" stroke="#170486" stroke-width="0.52" stroke-miterlimit="10"/>
    <mask id="mask3_3403_13258" style="mask-type:luminance" maskUnits="userSpaceOnUse" x="71" y="49" width="6" height="7">
        <path d="M76.5586 51.3647L74.5298 55.2934L71.5926 53.5305L72.9552 49.7529L76.5586 51.3647Z" fill="white"/>
    </mask>
    <g mask="url(#mask3_3403_13258)">
        <path d="M73.5907 53.6113C73.5907 53.6113 75.7708 51.9894 74.812 49.2998" stroke="#170486" stroke-width="0.49" stroke-linecap="round" stroke-linejoin="round"/>
    </g>
    <defs>
        <linearGradient id="paint0_linear_3403_13258" x1="116.507" y1="46.6743" x2="114.255" y2="71.1405" gradientUnits="userSpaceOnUse">
            <stop stop-color="#1598FF"/>
            <stop offset="0.99" stop-color="#170486"/>
            <stop offset="1" stop-color="#170486"/>
        </linearGradient>
        <linearGradient id="paint1_linear_3403_13258" x1="77.5844" y1="26.9166" x2="83.1544" y2="46.1768" gradientUnits="userSpaceOnUse">
            <stop stop-color="#170486"/>
            <stop offset="0.01" stop-color="#170486"/>
            <stop offset="1" stop-color="#1598FF"/>
        </linearGradient>
    </defs>
</svg>
