<svg width="1275" height="313" viewBox="0 0 1275 313" fill="none" xmlns="http://www.w3.org/2000/svg">
    <path d="M271.046 63.0254C271.046 63.0254 250.906 68.6054 244.321 93.4454" stroke="#170486" stroke-width="0.48" stroke-miterlimit="10"/>
    <mask id="mask0_0_1" style="mask-type:luminance" maskUnits="userSpaceOnUse" x="241" y="39" width="57" height="48">
        <path d="M241.849 57.3305C241.849 57.3305 260.549 58.0505 281.048 82.2155C281.497 82.7555 282.037 83.2055 282.509 83.7005C285.026 86.378 288.712 87.5255 292.286 86.7605C292.309 86.7605 292.354 86.7605 292.376 86.7605C300.445 68.918 299.951 51.5255 289.746 43.583C285.903 40.5905 281.452 39.1055 276.53 39.1055C266.505 39.1055 254.548 45.2705 241.849 57.3305Z" fill="white"/>
    </mask>
    <g mask="url(#mask0_0_1)">
        <path d="M245.454 24.9959L230.208 84.5645L296.835 101.652L312.081 42.0832L245.454 24.9959Z" fill="url(#paint0_linear_0_1)"/>
    </g>
    <path d="M292.376 86.7634C292.376 86.7634 292.309 86.7634 292.286 86.7634C288.712 87.5284 285.026 86.3809 282.509 83.7034C282.037 83.2084 281.497 82.7584 281.048 82.2184C260.572 58.0309 241.849 57.3334 241.849 57.3334C260.774 39.3334 278.081 34.4959 289.769 43.5859C299.973 51.5284 300.468 68.9209 292.399 86.7634H292.376Z" stroke="#170486" stroke-width="0.48" stroke-miterlimit="10"/>
    <path d="M291.365 65.8588C291.702 68.2213 290.578 70.6288 288.375 71.8663C285.521 73.4638 281.925 72.4288 280.329 69.5713C279.542 68.1313 279.407 66.5113 279.812 65.0488" stroke="#170486" stroke-width="0.48" stroke-miterlimit="10"/>
    <mask id="mask1_0_1" style="mask-type:luminance" maskUnits="userSpaceOnUse" x="281" y="51" width="10" height="10">
        <path d="M281.43 58.6368L289.184 60.3918L290.308 52.6518L281.587 51.8418L281.43 58.6368Z" fill="white"/>
    </mask>
    <g mask="url(#mask1_0_1)">
        <path d="M283.408 55.195C283.408 55.195 288.442 53.2825 291.926 57.76" stroke="#170486" stroke-width="0.44" stroke-linecap="round" stroke-linejoin="round"/>
    </g>
    <mask id="mask2_0_1" style="mask-type:luminance" maskUnits="userSpaceOnUse" x="287" y="74" width="11" height="12">
        <path d="M287.004 81.0248L294.421 85.7048L297.635 79.7198L291.522 74.6348L287.004 81.0248Z" fill="white"/>
    </mask>
    <g mask="url(#mask2_0_1)">
        <path d="M294.331 81.9023C294.331 81.9023 288.982 81.3398 287.88 75.7598" stroke="#170486" stroke-width="0.44" stroke-linecap="round" stroke-linejoin="round"/>
    </g>
    <path d="M175.456 68.1803L174.948 70.1172L191.122 74.3679L191.63 72.4311L175.456 68.1803Z" fill="#FF1700"/>
    <path d="M175.456 68.1803L174.948 70.1172L191.122 74.3679L191.63 72.4311L175.456 68.1803Z" stroke="#170486" stroke-width="0.48" stroke-miterlimit="10"/>
    <path d="M227.509 83.1166L238.545 76.1191C238.545 76.1191 241.107 74.0491 238.05 71.9791L191.097 66.8941C191.097 66.8941 185.298 66.2641 183.792 72.2491C183.792 72.2491 182.87 77.1091 189.321 77.8291L227.509 83.1391V83.1166Z" fill="#FF1700"/>
    <path d="M227.509 83.1166L238.545 76.1191C238.545 76.1191 241.107 74.0491 238.05 71.9791L191.097 66.8941C191.097 66.8941 185.298 66.2641 183.792 72.2491C183.792 72.2491 182.87 77.1091 189.321 77.8291L227.509 83.1391V83.1166Z" stroke="#170486" stroke-width="0.48" stroke-miterlimit="10"/>
    <path d="M191.838 69.5278C190.062 69.2128 188.354 70.3828 188.04 72.1603C187.702 73.9378 188.894 75.6478 190.669 75.9628C192.445 76.3003 194.153 75.1078 194.468 73.3303C194.783 71.5528 193.614 69.8428 191.838 69.5278Z" fill="#FF1700"/>
    <path d="M191.838 69.5278C190.062 69.2128 188.354 70.3828 188.04 72.1603C187.702 73.9378 188.894 75.6478 190.669 75.9628C192.445 76.3003 194.153 75.1078 194.468 73.3303C194.783 71.5528 193.614 69.8428 191.838 69.5278Z" stroke="#170486" stroke-width="0.48" stroke-miterlimit="10"/>
    <path d="M175.588 74.4552L153.696 69.7977C150.976 69.2127 149.223 66.5352 149.807 63.7902C150.392 61.0677 153.066 59.3127 155.808 59.8977L177.701 64.5552C180.42 65.1402 182.174 67.8177 181.589 70.5627C181.005 73.2852 178.33 75.0402 175.588 74.4552Z" fill="#FF1700"/>
    <path d="M175.588 74.4552L153.696 69.7977C150.976 69.2127 149.223 66.5352 149.807 63.7902C150.392 61.0677 153.066 59.3127 155.808 59.8977L177.701 64.5552C180.42 65.1402 182.174 67.8177 181.589 70.5627C181.005 73.2852 178.33 75.0402 175.588 74.4552Z" stroke="#170486" stroke-width="0.48" stroke-miterlimit="10"/>
    <path d="M140.547 60.392C138.906 64.532 140.906 69.2345 145.042 70.877C149.178 72.5195 153.853 70.517 155.516 66.377C157.157 62.237 155.157 57.5345 151.021 55.892C146.885 54.2495 142.188 56.252 140.547 60.392Z" fill="#FF1700"/>
    <path d="M140.547 60.392C138.906 64.532 140.906 69.2345 145.042 70.877C149.178 72.5195 153.853 70.517 155.516 66.377C157.157 62.237 155.157 57.5345 151.021 55.892C146.885 54.2495 142.188 56.252 140.547 60.392Z" stroke="#170486" stroke-width="0.44" stroke-miterlimit="10"/>
    <path d="M143.379 61.518C142.367 64.083 143.603 66.9855 146.166 67.998C148.728 69.0105 151.627 67.773 152.639 65.208C153.65 62.643 152.414 59.7405 149.852 58.728C147.289 57.7155 144.39 58.953 143.379 61.518Z" fill="#FF1700"/>
    <path d="M143.379 61.518C142.367 64.083 143.603 66.9855 146.166 67.998C148.728 69.0105 151.627 67.773 152.639 65.208C153.65 62.643 152.414 59.7405 149.852 58.728C147.289 57.7155 144.39 58.953 143.379 61.518Z" stroke="#170486" stroke-width="0.44" stroke-miterlimit="10"/>
    <path d="M179.184 70.3386C178.689 72.0036 176.936 72.9711 175.25 72.4761C173.587 71.9811 172.62 70.2261 173.115 68.5386C173.609 66.8736 175.363 65.9061 177.048 66.4011C178.712 66.8961 179.678 68.6511 179.184 70.3386Z" fill="#FF1700"/>
    <path d="M179.184 70.3386C178.689 72.0036 176.936 72.9711 175.25 72.4761C173.587 71.9811 172.62 70.2261 173.115 68.5386C173.609 66.8736 175.363 65.9061 177.048 66.4011C178.712 66.8961 179.678 68.6511 179.184 70.3386Z" stroke="#170486" stroke-width="0.47" stroke-miterlimit="10"/>
    <path d="M110.832 89.0808C106.921 94.1658 107.887 101.456 112.967 105.371L157.269 139.368C162.348 143.283 169.631 142.316 173.542 137.208C177.43 132.123 176.486 124.833 171.384 120.918L127.083 86.9433C122.003 83.0283 114.72 83.9958 110.809 89.0808" fill="#FF1700"/>
    <path d="M110.832 89.0808C106.921 94.1658 107.887 101.456 112.967 105.371L157.269 139.368C162.348 143.283 169.631 142.316 173.542 137.208C177.43 132.123 176.486 124.833 171.384 120.918L127.083 86.9433C122.003 83.0283 114.72 83.9958 110.809 89.0808H110.832Z" stroke="#170486" stroke-width="0.48" stroke-miterlimit="10"/>
    <mask id="mask3_0_1" style="mask-type:luminance" maskUnits="userSpaceOnUse" x="137" y="60" width="128" height="93">
        <path d="M238.567 61.8319C238.095 62.5969 237.6 63.3619 237.106 64.1269C237.061 64.1944 237.016 64.2619 236.971 64.3294C235.645 66.3094 230.385 74.0944 227.823 77.0194C225.328 79.8769 222.743 82.5769 220.114 85.1644C220.114 85.1644 220.114 85.1644 220.091 85.1644C219.304 85.9294 218.518 86.6944 217.731 87.4369C217.529 87.6169 217.326 87.8194 217.124 87.9994C214.674 90.2494 212.157 92.3869 209.639 94.3894C209.505 94.5019 209.37 94.6144 209.212 94.7269C200.761 101.364 191.973 106.562 183.364 110.139C183.162 110.229 182.96 110.297 182.757 110.387C180.959 111.129 179.184 111.782 177.408 112.367C177.026 112.502 176.644 112.614 176.262 112.749H176.239C175.385 113.019 174.531 113.267 173.699 113.514C171.025 114.257 168.372 114.842 165.788 115.247C155.313 116.912 145.626 115.787 137.759 111.534C137.377 117.272 138.006 122.717 139.715 127.667C140.097 128.747 140.524 129.827 140.996 130.862C141.423 131.784 141.895 132.662 142.389 133.539C142.996 134.597 143.671 135.632 144.412 136.622C145.828 138.512 147.424 140.222 149.2 141.774C150.863 143.237 152.706 144.564 154.662 145.734C176.059 158.492 210.651 154.329 242.95 130.614C247.76 127.082 254.638 118.959 259.29 113.109L259.335 113.064C262.325 109.307 264.393 106.517 264.393 106.517C265.786 95.4019 261.74 79.9219 249.85 68.1544C246.928 65.2519 243.534 62.5744 239.623 60.2344C239.309 60.7519 238.994 61.2694 238.657 61.7869" fill="white"/>
    </mask>
    <g mask="url(#mask3_0_1)">
        <path d="M259.02 31.7289L115.501 65.373L143.965 187.046L287.484 153.402L259.02 31.7289Z" fill="url(#paint1_linear_0_1)"/>
    </g>
    <path d="M264.303 106.564C264.303 106.564 262.235 109.354 259.246 113.111L259.201 113.156C254.548 119.006 247.67 127.129 242.86 130.661C210.584 154.376 175.97 158.539 154.572 145.781C152.617 144.611 150.774 143.306 149.11 141.821C147.335 140.269 145.739 138.559 144.323 136.669C143.581 135.679 142.907 134.644 142.3 133.586C141.783 132.709 141.334 131.809 140.906 130.909C140.412 129.874 139.985 128.794 139.625 127.714C137.917 122.764 137.31 117.319 137.67 111.581C145.537 115.834 155.224 116.959 165.698 115.294C168.283 114.889 170.935 114.304 173.61 113.561C174.464 113.336 175.296 113.066 176.15 112.796C176.15 112.796 176.15 112.796 176.172 112.796C176.554 112.684 176.937 112.549 177.341 112.414C179.117 111.829 180.892 111.154 182.691 110.434C182.893 110.344 183.095 110.276 183.297 110.186C191.928 106.586 200.694 101.411 209.146 94.7737C209.28 94.6612 209.438 94.5487 209.573 94.4362C212.09 92.4337 214.607 90.2962 217.057 88.0237C217.26 87.8437 217.462 87.6412 217.664 87.4612C218.451 86.7187 219.26 85.9762 220.024 85.2112C222.654 82.6462 225.239 79.9237 227.734 77.0662C230.296 74.1412 235.578 66.3562 236.882 64.3762C236.927 64.3087 236.972 64.2412 237.017 64.1737C237.511 63.4087 238.006 62.6437 238.5 61.8787C238.837 61.3612 239.152 60.8437 239.467 60.3262C243.377 62.6662 246.794 65.3437 249.693 68.2462C261.584 80.0362 265.629 95.5162 264.236 106.609L264.303 106.564Z" stroke="#170486" stroke-width="0.48" stroke-miterlimit="10"/>
    <path d="M236.949 64.5547C247.94 80.9572 250.075 93.4222 249.109 107.8C249.109 107.8 218.046 154.825 141.94 132.91" stroke="#170486" stroke-width="0.48" stroke-miterlimit="10"/>
    <path d="M233.015 70.043C238.118 81.7655 239.534 93.848 237.106 105.458C237.106 105.458 203.639 145.215 138.838 125.1" stroke="#170486" stroke-width="0.48" stroke-miterlimit="10"/>
    <path d="M166.484 44.9336C169.586 47.7911 169.788 52.6511 166.934 55.7561L125.914 100.396C123.06 103.524 118.205 103.726 115.103 100.846C112.001 97.9661 111.776 93.1286 114.653 90.0236L155.651 45.3836C158.505 42.2786 163.36 42.0761 166.462 44.9336" fill="#FF1700"/>
    <path d="M166.484 44.9336C169.586 47.7911 169.788 52.6511 166.934 55.7561L125.914 100.396C123.06 103.524 118.205 103.726 115.103 100.846C112.001 97.9661 111.776 93.1286 114.653 90.0236L155.651 45.3836C158.505 42.2786 163.36 42.0761 166.462 44.9336H166.484Z" stroke="#170486" stroke-width="0.48" stroke-miterlimit="10"/>
    <path d="M150.233 42.7758C152.841 38.6358 158.28 37.3758 162.438 39.9858C166.574 42.5958 167.833 48.0633 165.225 52.2033C162.641 56.3433 157.179 57.6033 153.043 54.9933C148.907 52.3833 147.649 46.9158 150.256 42.7758" fill="#FF1700"/>
    <path d="M150.233 42.7758C152.841 38.6358 158.28 37.3758 162.438 39.9858C166.574 42.5958 167.833 48.0633 165.225 52.2033C162.641 56.3433 157.179 57.6033 153.043 54.9933C148.907 52.3833 147.649 46.9158 150.256 42.7758H150.233Z" stroke="#170486" stroke-width="0.48" stroke-miterlimit="10"/>
    <path d="M153.089 44.5756C154.685 42.0106 158.079 41.2456 160.641 42.8431C163.203 44.4406 163.968 47.8381 162.372 50.4031C160.753 52.9681 157.382 53.7331 154.82 52.1356C152.257 50.5381 151.493 47.1406 153.089 44.5756Z" fill="#FF1700"/>
    <path d="M153.089 44.5756C154.685 42.0106 158.079 41.2456 160.641 42.8431C163.203 44.4406 163.968 47.8381 162.372 50.4031C160.753 52.9681 157.382 53.7331 154.82 52.1356C152.257 50.5381 151.493 47.1406 153.089 44.5756Z" stroke="#170486" stroke-width="0.48" stroke-miterlimit="10"/>
    <path d="M185.747 205.361C191.95 203.808 195.749 197.486 194.176 191.276L180.622 137.051C179.071 130.818 172.778 127.038 166.552 128.613C160.326 130.166 156.55 136.488 158.123 142.698L171.676 196.923C173.227 203.133 179.543 206.913 185.747 205.361Z" fill="#FF1700"/>
    <path d="M185.747 205.361C191.95 203.808 195.749 197.486 194.176 191.276L180.622 137.051C179.071 130.818 172.778 127.038 166.552 128.613C160.326 130.166 156.55 136.488 158.123 142.698L171.676 196.923C173.227 203.133 179.543 206.913 185.747 205.361Z" stroke="#170486" stroke-width="0.48" stroke-miterlimit="10"/>
    <path d="M179.566 264.557C175.34 264.287 172.148 260.62 172.44 256.39L176.464 195.887C176.733 191.657 180.397 188.462 184.623 188.755C188.848 189.025 192.04 192.692 191.748 196.922L187.725 257.425C187.455 261.655 183.791 264.85 179.566 264.557Z" fill="#FF1700"/>
    <path d="M179.566 264.557C175.34 264.287 172.148 260.62 172.44 256.39L176.464 195.887C176.733 191.657 180.397 188.462 184.623 188.755C188.848 189.025 192.04 192.692 191.748 196.922L187.725 257.425C187.455 261.655 183.791 264.85 179.566 264.557Z" stroke="#170486" stroke-width="0.48" stroke-miterlimit="10"/>
    <path d="M193.569 256.029C194.131 260.889 190.669 265.277 185.814 265.862C180.959 266.424 176.576 262.959 175.992 258.099C175.43 253.239 178.891 248.852 183.746 248.267C188.601 247.704 192.984 251.169 193.569 256.029Z" fill="#FF1700"/>
    <path d="M193.569 256.029C194.131 260.889 190.669 265.277 185.814 265.862C180.959 266.424 176.576 262.959 175.992 258.099C175.43 253.239 178.891 248.852 183.746 248.267C188.601 247.704 192.984 251.169 193.569 256.029Z" stroke="#170486" stroke-width="0.48" stroke-miterlimit="10"/>
    <path d="M190.22 256.434C190.579 259.449 188.421 262.172 185.41 262.509C182.398 262.869 179.678 260.709 179.341 257.694C178.981 254.679 181.139 251.957 184.151 251.619C187.163 251.259 189.882 253.419 190.22 256.434Z" fill="#FF1700"/>
    <path d="M190.22 256.434C190.579 259.449 188.421 262.172 185.41 262.509C182.398 262.869 179.678 260.709 179.341 257.694C178.981 254.679 181.139 251.957 184.151 251.619C187.163 251.259 189.882 253.419 190.22 256.434Z" stroke="#170486" stroke-width="0.48" stroke-miterlimit="10"/>
    <path d="M303.03 134.395C265.786 134.395 235.623 164.612 235.623 201.872C235.623 239.132 265.809 269.35 303.03 269.35C340.251 269.35 370.437 239.132 370.437 201.872C370.437 164.612 340.251 134.395 303.03 134.395ZM303.03 262.96C269.382 262.96 242.006 235.555 242.006 201.872C242.006 168.19 269.382 140.785 303.03 140.785C336.678 140.785 364.054 168.19 364.054 201.872C364.054 235.555 336.678 262.96 303.03 262.96Z" fill="#FF1700"/>
    <path d="M303.03 134.395C265.786 134.395 235.623 164.612 235.623 201.872C235.623 239.132 265.809 269.35 303.03 269.35C340.251 269.35 370.437 239.132 370.437 201.872C370.437 164.612 340.251 134.395 303.03 134.395ZM303.03 262.96C269.382 262.96 242.006 235.555 242.006 201.872C242.006 168.19 269.382 140.785 303.03 140.785C336.678 140.785 364.054 168.19 364.054 201.872C364.054 235.555 336.678 262.96 303.03 262.96Z" stroke="#170486" stroke-width="0.48" stroke-miterlimit="10"/>
    <path d="M303.03 134.395C265.786 134.395 235.623 164.612 235.623 201.872C235.623 239.132 265.809 269.35 303.03 269.35C340.251 269.35 370.437 239.132 370.437 201.872C370.437 164.612 340.251 134.395 303.03 134.395ZM303.03 262.96C269.382 262.96 242.006 235.555 242.006 201.872C242.006 168.19 269.382 140.785 303.03 140.785C336.678 140.785 364.054 168.19 364.054 201.872C364.054 235.555 336.678 262.96 303.03 262.96Z" fill="#FF1700"/>
    <path d="M303.03 134.395C265.786 134.395 235.623 164.612 235.623 201.872C235.623 239.132 265.809 269.35 303.03 269.35C340.251 269.35 370.437 239.132 370.437 201.872C370.437 164.612 340.251 134.395 303.03 134.395ZM303.03 262.96C269.382 262.96 242.006 235.555 242.006 201.872C242.006 168.19 269.382 140.785 303.03 140.785C336.678 140.785 364.054 168.19 364.054 201.872C364.054 235.555 336.678 262.96 303.03 262.96Z" stroke="#170486" stroke-width="0.48" stroke-miterlimit="10"/>
    <path d="M289.365 43.6055L277.362 53.1005C277.362 53.1005 262.82 57.443 249.761 50.4905" stroke="#170486" stroke-width="0.48" stroke-miterlimit="10"/>
    <path d="M286.622 41.5371L275.338 48.7596C275.338 48.7596 265.404 50.0196 257.717 45.4746" stroke="#170486" stroke-width="0.48" stroke-miterlimit="10"/>
    <path d="M282.538 127.196L281.834 129.07L297.485 134.966L298.19 133.091L282.538 127.196Z" fill="#FF1700"/>
    <path d="M282.538 127.196L281.834 129.07L297.485 134.966L298.19 133.091L282.538 127.196Z" stroke="#170486" stroke-width="0.48" stroke-miterlimit="10"/>
    <path d="M297.321 138.67L319.708 139.007C322.495 139.052 324.787 136.825 324.832 134.035C324.877 131.245 322.652 128.95 319.865 128.905L297.478 128.567C294.691 128.522 292.399 130.75 292.354 133.54C292.309 136.33 294.534 138.625 297.321 138.67Z" fill="#FF1700"/>
    <path d="M297.321 138.67L319.708 139.007C322.495 139.052 324.787 136.825 324.832 134.035C324.877 131.245 322.652 128.95 319.865 128.905L297.478 128.567C294.691 128.522 292.399 130.75 292.354 133.54C292.309 136.33 294.534 138.625 297.321 138.67Z" stroke="#170486" stroke-width="0.48" stroke-miterlimit="10"/>
    <path d="M334.632 132.776C335.307 137.186 332.295 141.303 327.912 141.978C323.506 142.653 319.393 139.661 318.696 135.251C318.022 130.841 321.034 126.723 325.417 126.048C329.822 125.373 333.936 128.366 334.61 132.776" fill="#FF1700"/>
    <path d="M334.632 132.776C335.307 137.186 332.295 141.303 327.912 141.978C323.506 142.653 319.393 139.661 318.696 135.251C318.022 130.841 321.034 126.723 325.417 126.048C329.822 125.373 333.936 128.366 334.61 132.776H334.632Z" stroke="#170486" stroke-width="0.44" stroke-miterlimit="10"/>
    <path d="M331.598 133.249C332.025 135.971 330.159 138.536 327.439 138.941C324.72 139.369 322.157 137.501 321.73 134.779C321.303 132.056 323.169 129.491 325.888 129.086C328.608 128.659 331.17 130.526 331.575 133.249" fill="#FF1700"/>
    <path d="M331.598 133.249C332.025 135.971 330.159 138.536 327.439 138.941C324.72 139.369 322.157 137.501 321.73 134.779C321.303 132.056 323.169 129.491 325.888 129.086C328.608 128.659 331.17 130.526 331.575 133.249H331.598Z" stroke="#170486" stroke-width="0.44" stroke-miterlimit="10"/>
    <path d="M294.736 133.855C294.849 135.61 296.354 136.915 298.085 136.803C299.838 136.69 301.142 135.183 301.03 133.45C300.917 131.718 299.411 130.39 297.681 130.503C295.95 130.615 294.624 132.123 294.736 133.855Z" fill="#FF1700"/>
    <path d="M294.736 133.855C294.849 135.61 296.354 136.915 298.085 136.803C299.838 136.69 301.142 135.183 301.03 133.45C300.917 131.718 299.411 130.39 297.681 130.503C295.95 130.615 294.624 132.123 294.736 133.855Z" stroke="#170486" stroke-width="0.47" stroke-miterlimit="10"/>
    <path d="M253.334 105.505L252.098 92.5002C252.098 92.5002 252.165 89.2152 255.671 90.3402L288.465 124.338C288.465 124.338 292.511 128.545 288.735 133.405C288.735 133.405 285.453 137.118 280.935 132.438L253.334 105.505Z" fill="#FF1700"/>
    <path d="M253.334 105.505L252.098 92.5002C252.098 92.5002 252.165 89.2152 255.671 90.3402L288.465 124.338C288.465 124.338 292.511 128.545 288.735 133.405C288.735 133.405 285.453 137.118 280.935 132.438L253.334 105.505Z" stroke="#170486" stroke-width="0.48" stroke-miterlimit="10"/>
    <path d="M285.925 125.372C287.274 126.587 287.386 128.634 286.173 129.984C284.959 131.334 282.913 131.447 281.565 130.232C280.216 129.039 280.104 126.969 281.318 125.619C282.509 124.269 284.577 124.157 285.925 125.349" fill="#FF1700"/>
    <path d="M285.925 125.372C287.274 126.587 287.386 128.634 286.173 129.984C284.959 131.334 282.913 131.447 281.565 130.232C280.216 129.039 280.104 126.969 281.318 125.619C282.509 124.269 284.577 124.157 285.925 125.349V125.372Z" stroke="#170486" stroke-width="0.48" stroke-miterlimit="10"/>
    <path d="M864.33 128.627C864.33 128.627 850.765 136.916 851.179 156.401" stroke="#170486" stroke-width="0.54" stroke-miterlimit="10"/>
    <path d="M811.161 252.175C805.995 250.676 803.037 245.293 804.539 240.138L815.912 201.169C817.414 196.015 822.809 193.063 827.974 194.562C833.14 196.061 836.098 201.444 834.596 206.598L823.238 245.568C821.736 250.722 816.341 253.674 811.176 252.175" fill="#FF1700"/>
    <path d="M811.161 252.175C805.995 250.676 803.037 245.293 804.539 240.138L815.912 201.169C817.414 196.015 822.809 193.063 827.974 194.562C833.14 196.061 836.098 201.444 834.596 206.598L823.238 245.568C821.736 250.722 816.341 253.674 811.176 252.175H811.161Z" stroke="#170486" stroke-width="0.54" stroke-miterlimit="10"/>
    <path d="M887.193 158.039L881.267 171.277L882.667 171.901L888.593 158.663L887.193 158.039Z" fill="#FF1700"/>
    <path d="M887.193 158.039L881.267 171.277L882.667 171.901L888.593 158.663L887.193 158.039Z" stroke="#170486" stroke-width="0.54" stroke-miterlimit="10"/>
    <path d="M852.206 165.487L847.149 156.953C847.149 156.953 846.122 154.674 848.911 154.322L882.493 167.108C882.493 167.108 886.631 168.683 885.604 173.241C885.604 173.241 884.547 176.851 879.933 175.092L852.222 165.487H852.206Z" fill="#FF1700"/>
    <path d="M852.206 165.487L847.149 156.953C847.149 156.953 846.122 154.674 848.911 154.322L882.493 167.108C882.493 167.108 886.631 168.683 885.604 173.241C885.604 173.241 884.547 176.851 879.933 175.092L852.222 165.487H852.206Z" stroke="#170486" stroke-width="0.54" stroke-miterlimit="10"/>
    <path d="M879.473 172.981C880.73 173.532 882.201 172.966 882.753 171.712C883.305 170.458 882.738 168.99 881.481 168.439C880.224 167.888 878.768 168.454 878.216 169.708C877.665 170.963 878.232 172.431 879.489 172.981" fill="#FF1700"/>
    <path d="M879.473 172.981C880.73 173.532 882.201 172.966 882.753 171.712C883.305 170.458 882.738 168.99 881.481 168.439C880.224 167.888 878.768 168.454 878.216 169.708C877.665 170.963 878.232 172.431 879.489 172.981H879.473Z" stroke="#170486" stroke-width="0.54" stroke-miterlimit="10"/>
    <path d="M889.757 163.727L897.574 148.632C898.555 146.751 897.804 144.426 895.919 143.463C894.034 142.499 891.719 143.233 890.738 145.115L882.922 160.21C881.941 162.091 882.692 164.4 884.577 165.379C886.462 166.358 888.792 165.609 889.757 163.727Z" fill="#FF1700"/>
    <path d="M889.757 163.727L897.574 148.632C898.555 146.751 897.804 144.426 895.919 143.463C894.034 142.499 891.719 143.233 890.738 145.115L882.922 160.21C881.941 162.091 882.692 164.4 884.577 165.379C886.462 166.358 888.792 165.609 889.757 163.727Z" stroke="#170486" stroke-width="0.54" stroke-miterlimit="10"/>
    <path d="M885.604 163.851C886.83 164.371 888.24 163.79 888.746 162.566C889.267 161.343 888.685 159.936 887.459 159.431C886.232 158.911 884.822 159.492 884.317 160.716C883.795 161.939 884.378 163.346 885.604 163.851Z" fill="#FF1700"/>
    <path d="M885.604 163.851C886.83 164.371 888.24 163.79 888.746 162.566C889.267 161.343 888.685 159.936 887.459 159.431C886.232 158.911 884.822 159.492 884.317 160.716C883.795 161.939 884.378 163.346 885.604 163.851Z" stroke="#170486" stroke-width="0.52" stroke-miterlimit="10"/>
    <path d="M892.245 167.507L880.083 175.441L880.922 176.721L893.083 168.787L892.245 167.507Z" fill="#FF1700"/>
    <path d="M892.245 167.507L880.083 175.441L880.922 176.721L893.083 168.787L892.245 167.507Z" stroke="#170486" stroke-width="0.54" stroke-miterlimit="10"/>
    <path d="M893.743 172.385L906.955 161.649C908.595 160.303 908.855 157.887 907.506 156.25C906.158 154.614 903.736 154.354 902.096 155.7L888.884 166.436C887.244 167.782 886.999 170.198 888.332 171.835C889.681 173.471 892.103 173.731 893.743 172.385Z" fill="#FF1700"/>
    <path d="M893.743 172.385L906.955 161.649C908.595 160.303 908.855 157.887 907.506 156.25C906.158 154.614 903.736 154.354 902.096 155.7L888.884 166.436C887.244 167.782 886.999 170.198 888.332 171.835C889.681 173.471 892.103 173.731 893.743 172.385Z" stroke="#170486" stroke-width="0.54" stroke-miterlimit="10"/>
    <mask id="mask4_0_1" style="mask-type:luminance" maskUnits="userSpaceOnUse" x="884" y="131" width="22" height="22">
        <path d="M888.164 134.058C883.703 137.943 883.259 144.687 887.137 149.138C891.03 153.589 897.789 154.032 902.249 150.147C906.709 146.263 907.154 139.518 903.261 135.067C901.146 132.651 898.172 131.412 895.199 131.412C892.7 131.412 890.187 132.284 888.164 134.058Z" fill="white"/>
    </mask>
    <g mask="url(#mask4_0_1)">
        <path d="M907.169 131.412H883.259V154.032H907.169V131.412Z" fill="url(#paint2_linear_0_1)"/>
    </g>
    <path d="M903.276 135.082C907.169 139.533 906.71 146.278 902.249 150.162C897.789 154.047 891.03 153.588 887.137 149.138C883.244 144.687 883.704 137.942 888.149 134.058C892.609 130.173 899.368 130.632 903.261 135.067L903.276 135.082Z" stroke="#170486" stroke-width="0.54" stroke-miterlimit="10"/>
    <mask id="mask5_0_1" style="mask-type:luminance" maskUnits="userSpaceOnUse" x="898" y="144" width="23" height="22">
        <path d="M902.556 147.15C898.095 151.035 897.651 157.78 901.544 162.23C905.437 166.681 912.196 167.124 916.657 163.255C921.117 159.37 921.561 152.625 917.668 148.175C915.553 145.758 912.58 144.52 909.591 144.52C907.092 144.52 904.579 145.391 902.556 147.165" fill="white"/>
    </mask>
    <g mask="url(#mask5_0_1)">
        <path d="M921.546 144.504H897.636V167.124H921.546V144.504Z" fill="url(#paint3_linear_0_1)"/>
    </g>
    <path d="M917.668 148.158C921.562 152.609 921.102 159.354 916.642 163.238C912.181 167.123 905.422 166.664 901.529 162.214C897.636 157.763 898.096 151.018 902.556 147.134C907.016 143.249 913.775 143.708 917.668 148.143V148.158Z" stroke="#170486" stroke-width="0.54" stroke-miterlimit="10"/>
    <path d="M889.88 170.84C890.8 171.804 892.317 171.835 893.283 170.917C894.248 169.999 894.279 168.485 893.359 167.522C892.44 166.558 890.922 166.527 889.957 167.445C888.991 168.363 888.961 169.877 889.88 170.84Z" fill="#FF1700"/>
    <path d="M889.88 170.84C890.8 171.804 892.317 171.835 893.283 170.917C894.248 169.999 894.279 168.485 893.359 167.522C892.44 166.558 890.922 166.527 889.957 167.445C888.991 168.363 888.961 169.877 889.88 170.84Z" stroke="#170486" stroke-width="0.52" stroke-miterlimit="10"/>
    <mask id="mask6_0_1" style="mask-type:luminance" maskUnits="userSpaceOnUse" x="810" y="143" width="70" height="91">
        <path d="M831.254 147.027C829.875 148.725 828.541 150.499 827.239 152.334C817.276 166.313 816.617 178.563 810.486 190.615C810.486 190.615 807.865 220.76 821.092 228.331C821.292 228.438 821.491 228.56 821.705 228.667C827.499 231.833 833.707 233.928 840.895 233.271C831.055 216.049 841.125 186.608 865.526 164.248C870.047 160.103 874.753 156.494 879.55 153.389C879.596 153.359 879.596 153.298 879.55 153.252C877.895 151.952 876.132 150.759 874.262 149.673C866.798 145.36 858.613 143.311 850.398 143.311C843.914 143.311 837.431 144.58 831.27 147.027" fill="white"/>
    </mask>
    <g mask="url(#mask6_0_1)">
        <path d="M853.385 108.866L764.141 176.436L834.07 268.399L923.314 200.83L853.385 108.866Z" fill="url(#paint4_linear_0_1)"/>
    </g>
    <path d="M827.239 152.333C828.542 150.498 829.875 148.739 831.254 147.042C845.202 141.521 860.897 141.964 874.247 149.688C876.117 150.773 877.879 151.966 879.535 153.266C879.581 153.297 879.581 153.373 879.535 153.404C874.753 156.509 870.032 160.118 865.511 164.263C841.125 186.638 831.04 216.079 840.88 233.301C833.691 233.943 827.484 231.863 821.69 228.697C821.491 228.59 821.276 228.468 821.077 228.361C807.85 220.79 810.471 190.645 810.471 190.645C816.602 178.578 817.276 166.343 827.223 152.349L827.239 152.333Z" stroke="#170486" stroke-width="0.54" stroke-miterlimit="10"/>
    <path d="M905.223 164.952L910.311 159.247L915.262 159.813L919.783 151.906" stroke="#170486" stroke-width="0.49" stroke-miterlimit="10"/>
    <path d="M879.197 149.642C877.067 147.18 874.63 144.917 871.718 143.188C859.027 135.648 843.225 135.159 843.225 135.159C843.225 135.159 844.435 131.626 845.983 127.237C849.049 118.58 858.077 113.518 867.074 115.414L883.075 118.794C885.65 130.433 888.394 133.798 883.596 147.853C882.155 148.312 880.684 148.908 879.213 149.612L879.197 149.642Z" fill="#1594FC" stroke="#166FDE" stroke-width="0.54" stroke-miterlimit="10"/>
    <path d="M874.645 145.39C876.791 137.345 872.791 129.285 865.709 127.419C865.709 127.419 873.909 119.145 883.535 120.981" stroke="#170486" stroke-width="0.54" stroke-miterlimit="10"/>
    <mask id="mask7_0_1" style="mask-type:luminance" maskUnits="userSpaceOnUse" x="870" y="129" width="14" height="11">
        <path d="M871.35 136.015C872.867 139.196 876.669 140.542 879.857 139.028C881.497 138.248 882.662 136.856 883.183 135.25L882.631 134.929L880.516 133.721L879.765 133.277L875.228 130.677L875.044 130.57L872.362 129.041C870.706 130.892 870.247 133.629 871.365 136" fill="white"/>
    </mask>
    <g mask="url(#mask7_0_1)">
        <path d="M883.198 129.057H870.231V140.543H883.198V129.057Z" fill="url(#paint5_linear_0_1)"/>
    </g>
    <path d="M883.182 135.266C882.661 136.872 881.496 138.264 879.856 139.044C876.668 140.558 872.867 139.197 871.35 136.031C870.216 133.645 870.691 130.923 872.346 129.072L875.028 130.602L875.212 130.709L879.749 133.309L880.5 133.752L882.615 134.961L883.182 135.282V135.266Z" stroke="#170486" stroke-width="0.54" stroke-miterlimit="10"/>
    <mask id="mask8_0_1" style="mask-type:luminance" maskUnits="userSpaceOnUse" x="874" y="125" width="9" height="9">
        <path d="M874.615 130.128L879.78 133.278L882.493 127.987L876.393 125.295L874.615 130.128Z" fill="white"/>
    </mask>
    <g mask="url(#mask8_0_1)">
        <path d="M876.883 128.139C876.883 128.139 880.976 127.986 882.401 132.055" stroke="#170486" stroke-width="0.49" stroke-linecap="round" stroke-linejoin="round"/>
    </g>
    <mask id="mask9_0_1" style="mask-type:luminance" maskUnits="userSpaceOnUse" x="879" y="138" width="9" height="9">
        <path d="M879.09 143.969L885.053 146.951L887.045 142.194L882.033 138.814L879.09 143.969Z" fill="white"/>
    </mask>
    <g mask="url(#mask9_0_1)">
        <path d="M884.7 144.076C884.7 144.076 880.608 144.03 879.366 139.9" stroke="#170486" stroke-width="0.49" stroke-linecap="round" stroke-linejoin="round"/>
    </g>
    <path d="M881.359 134.653C880.991 135.785 880.179 136.764 879.014 137.315C876.761 138.385 874.078 137.422 873.021 135.189C872.224 133.506 872.561 131.579 873.726 130.279L875.611 131.35L875.749 131.426L878.952 133.262L879.489 133.568L880.976 134.424L881.374 134.653H881.359Z" fill="#FF1700"/>
    <path d="M881.359 134.653C880.991 135.785 880.179 136.764 879.014 137.315C876.761 138.385 874.078 137.422 873.021 135.189C872.224 133.506 872.561 131.579 873.726 130.279L875.611 131.35L875.749 131.426L878.952 133.262L879.489 133.568L880.976 134.424L881.374 134.653H881.359Z" stroke="#170486" stroke-width="0.54" stroke-miterlimit="10"/>
    <path d="M879.473 133.567C879.366 134.347 878.876 135.066 878.109 135.433C876.914 135.999 875.473 135.494 874.906 134.286C874.415 133.246 874.722 132.023 875.611 131.35L875.749 131.426L878.952 133.261L879.489 133.567H879.473Z" fill="#170486"/>
    <path d="M883.275 224.935C881.773 230.089 876.377 233.041 871.212 231.542L832.159 220.194C826.993 218.695 824.035 213.311 825.537 208.157C827.039 203.003 832.435 200.051 837.6 201.55L876.653 212.898C881.819 214.397 884.777 219.781 883.275 224.935Z" fill="#FF1700"/>
    <path d="M883.275 224.935C881.773 230.089 876.377 233.041 871.212 231.542L832.159 220.194C826.993 218.695 824.035 213.311 825.537 208.157C827.039 203.003 832.435 200.051 837.6 201.55L876.653 212.898C881.818 214.397 884.777 219.781 883.275 224.935Z" stroke="#170486" stroke-width="0.54" stroke-miterlimit="10"/>
    <path d="M819.575 227.215C810.808 220.164 812.065 200.924 812.065 200.924C812.065 200.924 816.218 195.219 819.713 187.297" stroke="#170486" stroke-width="0.54" stroke-miterlimit="10"/>
    <path d="M761.868 260.326C760.841 257.114 762.635 253.688 765.838 252.679L811.896 238.119C815.115 237.11 818.548 238.884 819.559 242.096C820.571 245.307 818.793 248.733 815.59 249.743L769.532 264.303C766.313 265.327 762.88 263.538 761.868 260.326Z" fill="#FF1700"/>
    <path d="M761.868 260.326C760.841 257.114 762.635 253.688 765.838 252.679L811.896 238.119C815.115 237.11 818.548 238.884 819.559 242.096C820.571 245.307 818.793 248.733 815.59 249.743L769.532 264.303C766.313 265.327 762.88 263.538 761.868 260.326Z" stroke="#170486" stroke-width="0.54" stroke-miterlimit="10"/>
    <path d="M768.459 267.574C764.826 268.354 761.24 266.045 760.474 262.405C759.692 258.78 762.006 255.201 765.654 254.437C769.287 253.657 772.858 255.966 773.64 259.606C774.421 263.231 772.107 266.81 768.459 267.574Z" fill="#FF1700"/>
    <path d="M768.459 267.574C764.826 268.354 761.24 266.045 760.474 262.405C759.692 258.78 762.006 255.201 765.654 254.437C769.287 253.657 772.858 255.966 773.64 259.606C774.421 263.231 772.107 266.81 768.459 267.574Z" stroke="#170486" stroke-width="0.54" stroke-miterlimit="10"/>
    <path d="M767.922 265.067C765.669 265.542 763.462 264.119 762.972 261.871C762.481 259.623 763.922 257.42 766.175 256.931C768.428 256.457 770.635 257.879 771.126 260.127C771.601 262.376 770.176 264.578 767.922 265.067Z" fill="#FF1700"/>
    <path d="M767.922 265.067C765.669 265.542 763.462 264.119 762.972 261.871C762.481 259.623 763.922 257.42 766.175 256.931C768.428 256.457 770.635 257.879 771.126 260.127C771.601 262.376 770.176 264.578 767.922 265.067Z" stroke="#170486" stroke-width="0.54" stroke-miterlimit="10"/>
    <mask id="mask10_0_1" style="mask-type:luminance" maskUnits="userSpaceOnUse" x="850" y="115" width="37" height="26">
        <path d="M853.187 116.868C851.823 117.755 851.011 118.825 850.582 119.468L854.03 121.135L857.54 132.835C857.632 134.731 857.724 136.612 857.816 138.509C858.536 139.029 859.594 139.686 860.973 140.176C862.583 140.742 864.008 140.879 864.974 140.895L868.008 130.281L874.614 125.432C878.446 126.717 882.477 128.537 886.309 129.822C886.478 128.843 887.045 127.359 886.677 125.295C886.248 122.817 885.359 121.578 885.022 120.722C875.626 118.795 866.874 117.189 857.479 115.262C856.682 115.369 854.659 115.889 853.172 116.868" fill="white"/>
    </mask>
    <g mask="url(#mask10_0_1)">
        <path d="M851.912 108.456L845.784 139.971L885.733 147.705L891.86 116.19L851.912 108.456Z" fill="url(#paint6_linear_0_1)"/>
    </g>
    <path d="M885.037 120.706C885.374 121.563 886.248 122.801 886.692 125.279C887.06 127.359 886.493 128.843 886.324 129.806C882.492 128.521 878.461 126.701 874.63 125.417L868.024 130.265L864.989 140.879C864.008 140.864 862.598 140.726 860.988 140.16C859.609 139.671 858.551 139.028 857.831 138.493C857.739 136.597 857.647 134.716 857.555 132.819L854.045 121.119L850.597 119.452C851.026 118.794 851.838 117.739 853.202 116.852C854.689 115.873 856.728 115.353 857.509 115.246C866.905 117.173 875.656 118.779 885.052 120.706H885.037Z" stroke="#170486" stroke-width="0.54" stroke-miterlimit="10"/>
    <path d="M854.03 121.135C854.03 121.135 855.502 117.969 860.79 115.92" stroke="#170486" stroke-width="0.54" stroke-miterlimit="10"/>
    <mask id="mask11_0_1" style="mask-type:luminance" maskUnits="userSpaceOnUse" x="859" y="121" width="8" height="13">
        <path d="M861.326 123.978L859.655 129.836C859.242 131.304 860.085 132.833 861.556 133.246C863.027 133.659 864.56 132.818 864.974 131.35L866.645 125.492C867.058 124.024 866.215 122.495 864.744 122.082C864.484 122.005 864.238 121.975 863.978 121.975C862.767 121.975 861.663 122.77 861.311 123.978" fill="white"/>
    </mask>
    <g mask="url(#mask11_0_1)">
        <path d="M860.292 119.295L855.238 132.086L866.017 136.327L871.072 123.536L860.292 119.295Z" fill="url(#paint7_linear_0_1)"/>
    </g>
    <path d="M861.556 133.248C860.085 132.835 859.226 131.305 859.656 129.837L861.326 123.98C861.74 122.511 863.273 121.655 864.744 122.083C866.216 122.496 867.074 124.025 866.645 125.494L864.974 131.351C864.56 132.82 863.028 133.676 861.556 133.248Z" stroke="#170486" stroke-width="0.54" stroke-miterlimit="10"/>
    <path d="M866.062 128.491L860.82 126.992" stroke="#170486" stroke-width="0.54" stroke-miterlimit="10"/>
    <mask id="mask12_0_1" style="mask-type:luminance" maskUnits="userSpaceOnUse" x="805" y="185" width="65" height="57">
        <path d="M805.091 219.368L805.214 233.285L833.753 239.097L834.825 233.805L864.606 241.437L869.71 210.834L840.466 202.085L843.24 193.735L812.846 185.354C807.145 195.754 804.984 207.591 805.076 219.383" fill="white"/>
    </mask>
    <g mask="url(#mask12_0_1)">
        <path d="M869.725 185.338H804.999V241.421H869.725V185.338Z" fill="url(#paint8_linear_0_1)"/>
    </g>
    <path d="M869.71 210.804L864.606 241.408L834.825 233.776L833.752 239.068L805.213 233.271L805.091 219.354C804.983 207.577 807.145 195.724 812.862 185.324L843.255 193.705L840.481 202.056L869.725 210.804H869.71Z" stroke="#170486" stroke-width="0.54" stroke-miterlimit="10"/>
    <path d="M840.956 264.456C838.381 262.284 838.059 258.43 840.251 255.86L871.488 219.078C873.664 216.509 877.527 216.187 880.102 218.374C882.677 220.546 882.998 224.4 880.807 226.97L849.57 263.752C847.394 266.321 843.531 266.643 840.956 264.456Z" fill="#FF1700"/>
    <path d="M840.956 264.456C838.381 262.284 838.059 258.43 840.251 255.86L871.488 219.078C873.664 216.509 877.527 216.187 880.102 218.374C882.677 220.546 882.998 224.4 880.807 226.97L849.57 263.752C847.394 266.321 843.531 266.643 840.956 264.456Z" stroke="#170486" stroke-width="0.54" stroke-miterlimit="10"/>
    <path d="M854.061 264.349C852.207 267.576 848.099 268.693 844.88 266.842C841.662 265.007 840.543 260.893 842.382 257.681C844.221 254.469 848.344 253.353 851.563 255.188C854.782 257.023 855.9 261.138 854.061 264.349Z" fill="#FF1700"/>
    <path d="M854.061 264.349C852.207 267.576 848.099 268.693 844.88 266.842C841.662 265.007 840.543 260.893 842.382 257.681C844.221 254.469 848.344 253.353 851.563 255.188C854.782 257.023 855.9 261.138 854.061 264.349Z" stroke="#170486" stroke-width="0.54" stroke-miterlimit="10"/>
    <path d="M851.838 263.078C850.689 265.066 848.144 265.77 846.152 264.623C844.159 263.491 843.47 260.937 844.604 258.949C845.753 256.96 848.298 256.272 850.29 257.404C852.283 258.551 852.988 261.09 851.838 263.078Z" fill="#FF1700"/>
    <path d="M851.838 263.078C850.689 265.066 848.144 265.77 846.152 264.623C844.159 263.491 843.47 260.937 844.604 258.949C845.753 256.96 848.298 256.272 850.29 257.404C852.283 258.551 852.988 261.09 851.838 263.078Z" stroke="#170486" stroke-width="0.54" stroke-miterlimit="10"/>
    <path d="M836.389 200.939L840.466 202.071" stroke="#170486" stroke-width="0.54" stroke-miterlimit="10"/>
    <path d="M809.996 206.949C809.996 206.949 806.409 226.801 823.039 230.946L834.55 233.775" stroke="#170486" stroke-width="0.54" stroke-miterlimit="10"/>
    <path d="M825.813 189.33C823.852 194.775 819.1 204.67 822.855 214.152C824.787 219.047 830.871 222.503 837.815 224.935C847.072 228.177 857.832 229.569 862.2 230.028" stroke="#170486" stroke-width="0.54" stroke-miterlimit="10"/>
    <path d="M831.361 190.799C831.361 190.799 823.621 206.735 829.66 214.061C834.749 220.24 858.138 224.935 865.388 226.266" stroke="#170486" stroke-width="0.54" stroke-miterlimit="10"/>
    <path d="M846.152 156.541C846.152 151.234 850.459 146.951 855.778 146.951C861.096 146.951 865.403 151.249 865.403 156.541C865.403 161.832 861.096 166.145 855.778 166.145C850.459 166.145 846.152 161.848 846.152 156.541Z" stroke="#170486" stroke-width="0.54" stroke-miterlimit="10"/>
    <path d="M862.583 153.496H852.651C852.651 153.496 850.168 153.771 851.271 156.34L879.366 178.7C879.366 178.7 882.83 181.453 886.248 178.242C886.248 178.242 888.823 175.504 884.96 172.415L862.583 153.48V153.496Z" fill="#FF1700"/>
    <path d="M862.583 153.496H852.651C852.651 153.496 850.168 153.771 851.271 156.34L879.366 178.7C879.366 178.7 882.83 181.453 886.248 178.242C886.248 178.242 888.823 175.504 884.96 172.415L862.583 153.48V153.496Z" stroke="#170486" stroke-width="0.54" stroke-miterlimit="10"/>
    <path d="M882.907 173.118C884.025 173.914 884.271 175.474 883.474 176.575C882.677 177.691 881.113 177.936 880.01 177.141C878.891 176.345 878.646 174.785 879.443 173.684C880.24 172.568 881.803 172.323 882.907 173.118Z" fill="#FF1700"/>
    <path d="M882.907 173.118C884.025 173.914 884.271 175.474 883.474 176.575C882.677 177.691 881.113 177.936 880.01 177.141C878.891 176.345 878.646 174.785 879.443 173.684C880.24 172.568 881.803 172.323 882.907 173.118Z" stroke="#170486" stroke-width="0.54" stroke-miterlimit="10"/>
    <path d="M815.851 176.883L849.723 182.45" stroke="#170486" stroke-width="0.54" stroke-miterlimit="10"/>
    <rect x="304" y="267" width="1036" height="2" fill="#FF1700"/>
    <defs>
        <linearGradient id="paint0_linear_0_1" x1="278.321" y1="35.8433" x2="269.758" y2="69.2306" gradientUnits="userSpaceOnUse">
            <stop stop-color="#170486"/>
            <stop offset="0.01" stop-color="#170486"/>
            <stop offset="1" stop-color="#1598FF"/>
        </linearGradient>
        <linearGradient id="paint1_linear_0_1" x1="212.168" y1="160.806" x2="187.998" y2="57.6997" gradientUnits="userSpaceOnUse">
            <stop stop-color="#170486"/>
            <stop offset="0.04" stop-color="#170486"/>
            <stop offset="0.4" stop-color="#1568D7"/>
            <stop offset="0.58" stop-color="#1598FF"/>
            <stop offset="1" stop-color="#1598FF"/>
        </linearGradient>
        <linearGradient id="paint2_linear_0_1" x1="876.45" y1="140.971" x2="897.878" y2="140.971" gradientUnits="userSpaceOnUse">
            <stop stop-color="#170486"/>
            <stop offset="0.01" stop-color="#170486"/>
            <stop offset="1" stop-color="#1598FF"/>
        </linearGradient>
        <linearGradient id="paint3_linear_0_1" x1="25583.7" y1="154.063" x2="25605.1" y2="154.063" gradientUnits="userSpaceOnUse">
            <stop stop-color="#170486"/>
            <stop offset="0.01" stop-color="#170486"/>
            <stop offset="1" stop-color="#1598FF"/>
        </linearGradient>
        <linearGradient id="paint4_linear_0_1" x1="816.082" y1="152.568" x2="856.374" y2="205.786" gradientUnits="userSpaceOnUse">
            <stop stop-color="#1598FF"/>
            <stop offset="0.99" stop-color="#170486"/>
            <stop offset="1" stop-color="#170486"/>
        </linearGradient>
        <linearGradient id="paint5_linear_0_1" x1="876.733" y1="136.176" x2="889.179" y2="136.176" gradientUnits="userSpaceOnUse">
            <stop stop-color="#170486"/>
            <stop offset="0.01" stop-color="#170486"/>
            <stop offset="1" stop-color="#1598FF"/>
        </linearGradient>
        <linearGradient id="paint6_linear_0_1" x1="852.266" y1="126.435" x2="894.029" y2="134.555" gradientUnits="userSpaceOnUse">
            <stop stop-color="#170486"/>
            <stop offset="0.01" stop-color="#170486"/>
            <stop offset="1" stop-color="#1598FF"/>
        </linearGradient>
        <linearGradient id="paint7_linear_0_1" x1="851.595" y1="122.168" x2="864.535" y2="127.281" gradientUnits="userSpaceOnUse">
            <stop stop-color="#170486"/>
            <stop offset="0.01" stop-color="#170486"/>
            <stop offset="0.25" stop-color="#160688"/>
            <stop offset="0.41" stop-color="#160F8F"/>
            <stop offset="0.55" stop-color="#161E9B"/>
            <stop offset="0.68" stop-color="#1634AD"/>
            <stop offset="0.79" stop-color="#1550C4"/>
            <stop offset="0.9" stop-color="#1571DF"/>
            <stop offset="1" stop-color="#1598FF"/>
        </linearGradient>
        <linearGradient id="paint8_linear_0_1" x1="810.354" y1="214.851" x2="874.974" y2="214.851" gradientUnits="userSpaceOnUse">
            <stop stop-color="#1598FF"/>
            <stop offset="0.99" stop-color="#170486"/>
            <stop offset="1" stop-color="#170486"/>
        </linearGradient>
    </defs>
</svg>
