<svg width="438" height="376" viewBox="0 0 438 376" fill="none" xmlns="http://www.w3.org/2000/svg">
    <path d="M245.026 113.443L220.435 121.668L221.298 124.243L245.889 116.018L245.026 113.443Z" fill="#FF1700"/>
    <path d="M245.026 113.443L220.435 121.668L221.298 124.243L245.889 116.018L245.026 113.443Z" stroke="#170486" stroke-width="0.54" stroke-miterlimit="10"/>
    <path d="M293.577 119.595L306.407 107.348C306.407 107.348 309.261 103.926 304.64 101.971L240.706 107.782C240.706 107.782 232.823 108.488 232.388 116.852C232.388 116.852 232.469 123.587 241.249 122.772L293.549 119.595H293.577Z" fill="#FF1700"/>
    <path d="M293.577 119.595L306.407 107.348C306.407 107.348 309.261 103.926 304.64 101.971L240.706 107.782C240.706 107.782 232.823 108.488 232.388 116.852C232.388 116.852 232.469 123.587 241.249 122.772L293.549 119.595H293.577Z" stroke="#170486" stroke-width="0.54" stroke-miterlimit="10"/>
    <path d="M240.706 111.286C238.259 111.476 236.438 113.594 236.601 116.038C236.791 118.482 238.912 120.301 241.358 120.138C243.805 119.948 245.626 117.83 245.463 115.386C245.273 112.942 243.152 111.123 240.706 111.286Z" fill="#FF1700"/>
    <path d="M240.706 111.286C238.259 111.476 236.438 113.594 236.601 116.038C236.791 118.482 238.912 120.301 241.358 120.138C243.805 119.948 245.626 117.83 245.463 115.386C245.273 112.942 243.152 111.123 240.706 111.286Z" stroke="#170486" stroke-width="0.54" stroke-miterlimit="10"/>
    <path d="M220.128 118.156L194.331 137.871C191.776 139.826 191.287 143.492 193.244 146.072L194.495 147.701C196.452 150.254 200.121 150.743 202.704 148.788L228.5 129.072C231.056 127.117 231.545 123.451 229.588 120.871L228.337 119.242C226.38 116.689 222.71 116.2 220.128 118.156Z" fill="#FF1700"/>
    <path d="M194.341 137.873L220.122 118.175C222.691 116.212 226.366 116.72 228.315 119.265L229.553 120.883C231.518 123.45 231.031 127.105 228.462 129.068L202.681 148.766C200.112 150.729 196.453 150.242 194.488 147.675L193.25 146.058C191.285 143.491 191.772 139.836 194.341 137.873Z" stroke="#170486" stroke-width="0.54" stroke-miterlimit="10"/>
    <path d="M184.491 156.445C180.06 152.344 179.789 145.419 183.92 140.993C188.025 136.566 194.957 136.295 199.388 140.423C203.818 144.523 204.09 151.448 199.958 155.874C195.854 160.301 188.922 160.572 184.491 156.445Z" fill="#FF1700"/>
    <path d="M184.491 156.445C180.06 152.344 179.789 145.419 183.92 140.993C188.025 136.566 194.957 136.295 199.388 140.423C203.818 144.523 204.09 151.448 199.958 155.874C195.854 160.301 188.922 160.572 184.491 156.445Z" stroke="#170486" stroke-width="0.54" stroke-miterlimit="10"/>
    <path d="M187.318 153.376C184.573 150.824 184.41 146.56 186.965 143.817C189.52 141.075 193.788 140.912 196.533 143.464C199.279 146.017 199.442 150.28 196.887 153.023C194.331 155.766 190.064 155.929 187.318 153.376Z" fill="#FF1700"/>
    <path d="M187.318 153.376C184.573 150.824 184.41 146.56 186.965 143.817C189.52 141.075 193.788 140.912 196.533 143.464C199.279 146.017 199.442 150.28 196.887 153.023C194.331 155.766 190.064 155.929 187.318 153.376Z" stroke="#170486" stroke-width="0.54" stroke-miterlimit="10"/>
    <path d="M226.136 121.74C224.559 119.975 221.841 119.839 220.074 121.414C218.307 122.989 218.171 125.705 219.748 127.47C221.324 129.235 224.043 129.371 225.809 127.796C227.576 126.221 227.712 123.505 226.136 121.74Z" fill="#FF1700"/>
    <path d="M226.136 121.74C224.559 119.975 221.841 119.839 220.074 121.414C218.307 122.989 218.171 125.705 219.748 127.47C221.324 129.235 224.043 129.371 225.809 127.796C227.576 126.221 227.712 123.505 226.136 121.74Z" stroke="#170486" stroke-width="0.54" stroke-miterlimit="10"/>
    <mask id="mask0_2668_11672" style="mask-type:luminance" maskUnits="userSpaceOnUse" x="0" y="129" width="427" height="234">
        <path d="M421.282 134.042C417.314 140.288 404.592 149.792 396.981 155.224C389.397 160.655 323.342 200.031 274.766 226.806C226.217 253.609 0.733887 359.789 0.733887 359.789V362.45L44.0093 343.033C44.0093 343.033 194.005 272.7 211.321 264.091C228.636 255.483 301.215 217.22 318.639 207.281C336.064 197.342 396.899 158.374 409.322 148.57C421.745 138.767 425.251 132.548 426.23 131.109C426.692 130.43 426.502 129.67 425.768 129.67C424.952 129.67 423.403 130.675 421.282 134.015" fill="white"/>
    </mask>
    <g mask="url(#mask0_2668_11672)">
        <path d="M426.665 129.697H0.733887V362.477H426.665V129.697Z" fill="url(#paint0_linear_2668_11672)"/>
    </g>
    <path d="M0.733887 359.786C0.733887 359.786 226.217 253.58 274.766 226.804C323.315 200.028 389.397 160.625 396.981 155.221C404.565 149.79 417.314 140.258 421.282 134.04C425.251 127.794 427.181 129.722 426.202 131.134C425.251 132.573 421.745 138.819 409.295 148.595C396.872 158.398 336.009 197.367 318.612 207.279C301.215 217.218 228.609 255.481 211.294 264.089C193.978 272.697 43.9821 343.031 43.9821 343.031L0.733887 362.475V359.813V359.786Z" stroke="#170486" stroke-width="0.54" stroke-miterlimit="10"/>
    <path d="M247.121 162.609L250.709 165.596C256.417 170.349 257.178 178.794 252.421 184.497L200.882 246.331C196.125 252.033 187.672 252.794 181.963 248.069L178.375 245.082C172.666 240.356 171.905 231.884 176.635 226.181L228.174 164.347C232.904 158.644 241.385 157.884 247.094 162.609" fill="#FF1700"/>
    <path d="M247.121 162.609L250.709 165.596C256.417 170.349 257.178 178.794 252.421 184.497L200.882 246.331C196.125 252.033 187.672 252.794 181.963 248.069L178.375 245.082C172.666 240.356 171.905 231.884 176.635 226.181L228.174 164.347C232.904 158.644 241.385 157.884 247.094 162.609H247.121Z" stroke="#170486" stroke-width="0.54" stroke-miterlimit="10"/>
    <path d="M119.306 288.777L117.457 286.306C114.522 282.395 115.31 276.856 119.252 273.923L187.644 222.816C191.558 219.883 197.131 220.67 200.039 224.608L201.888 227.079C204.824 230.989 204.008 236.556 200.094 239.462L131.701 290.597C127.787 293.529 122.242 292.715 119.306 288.804" fill="#FF1700"/>
    <path d="M119.306 288.777L117.457 286.306C114.522 282.395 115.31 276.856 119.252 273.923L187.644 222.816C191.558 219.883 197.131 220.67 200.039 224.608L201.888 227.079C204.824 230.989 204.008 236.556 200.094 239.462L131.701 290.597C127.787 293.529 122.242 292.715 119.306 288.804V288.777Z" stroke="#170486" stroke-width="0.54" stroke-miterlimit="10"/>
    <path d="M139.558 294.451C135.045 299.339 127.461 299.638 122.568 295.13C117.676 290.622 117.377 283.046 121.889 278.158C126.401 273.297 133.985 272.971 138.878 277.479C143.771 281.987 144.07 289.563 139.558 294.451Z" fill="#FF1700"/>
    <path d="M139.558 294.451C135.045 299.339 127.461 299.638 122.568 295.13C117.676 290.622 117.377 283.046 121.889 278.158C126.401 273.297 133.985 272.971 138.878 277.479C143.771 281.987 144.07 289.563 139.558 294.451Z" stroke="#170486" stroke-width="0.54" stroke-miterlimit="10"/>
    <path d="M136.187 291.356C133.387 294.37 128.684 294.561 125.667 291.791C122.65 288.994 122.459 284.296 125.232 281.281C128.005 278.267 132.735 278.077 135.752 280.847C138.769 283.644 138.96 288.342 136.187 291.356Z" fill="#FF1700"/>
    <path d="M136.187 291.356C133.387 294.37 128.684 294.561 125.667 291.791C122.65 288.994 122.459 284.296 125.232 281.281C128.005 278.267 132.735 278.077 135.752 280.847C138.769 283.644 138.96 288.342 136.187 291.356Z" stroke="#170486" stroke-width="0.54" stroke-miterlimit="10"/>
    <path d="M243.669 113.32C241.222 113.157 239.102 115.031 238.966 117.475C238.803 119.919 240.678 122.037 243.125 122.173C245.571 122.336 247.692 120.462 247.828 118.018C247.991 115.574 246.115 113.456 243.669 113.32Z" fill="#FF1700"/>
    <path d="M243.669 113.32C241.222 113.157 239.102 115.031 238.966 117.475C238.803 119.919 240.678 122.037 243.125 122.173C245.571 122.336 247.692 120.462 247.828 118.018C247.991 115.574 246.115 113.456 243.669 113.32Z" stroke="#170486" stroke-width="0.54" stroke-miterlimit="10"/>
    <mask id="mask1_2668_11672" style="mask-type:luminance" maskUnits="userSpaceOnUse" x="209" y="87" width="143" height="157">
        <path d="M269.791 88.7994C266.747 91.2706 263.73 93.8504 260.767 96.5388C213.033 140.151 195.826 198.971 222.303 227.919C230.267 236.609 241.276 241.605 254.053 243.18C243.37 209.399 272.048 161.713 323.07 131.76C332.584 126.193 342.234 121.604 351.83 117.965C349.383 115.032 346.719 112.208 343.811 109.574C327.447 94.7194 306.679 87.4688 285.449 87.4688C280.23 87.4688 274.983 87.9032 269.737 88.7722" fill="white"/>
    </mask>
    <g mask="url(#mask1_2668_11672)">
        <path d="M314.777 21.1193L129.485 124.529L232.959 309.564L418.25 206.154L314.777 21.1193Z" fill="url(#paint1_linear_2668_11672)"/>
    </g>
    <path d="M260.767 96.5385C263.73 93.823 266.747 91.2432 269.791 88.7991C296.24 84.3727 323.451 91.0802 343.838 109.573C346.747 112.207 349.41 115.032 351.857 117.965C342.261 121.603 332.611 126.166 323.097 131.76C272.075 161.713 243.397 209.371 254.08 243.18C241.276 241.605 230.294 236.608 222.33 227.919C195.826 198.998 213.033 140.178 260.767 96.5385Z" stroke="#170486" stroke-width="0.54" stroke-miterlimit="10"/>
    <path d="M327.664 129.399C327.664 129.399 294.664 102.433 271.722 114.952C271.722 114.952 193.761 193.84 240.325 240.114" stroke="#170486" stroke-width="0.54" stroke-miterlimit="10"/>
    <path d="M320.461 133.09C309.887 127.849 296.078 123.749 284.878 129.832C284.878 129.832 213.631 200.953 254.297 243.072" stroke="#170486" stroke-width="0.54" stroke-miterlimit="10"/>
    <mask id="mask2_2668_11672" style="mask-type:luminance" maskUnits="userSpaceOnUse" x="2" y="136" width="436" height="239">
        <path d="M431.965 140.749C427.915 147.13 414.922 156.907 407.174 162.474C399.427 168.04 331.986 208.394 282.432 235.849C232.85 263.303 2.69116 372.144 2.69116 372.144V374.887L46.8636 354.981C46.8636 354.981 199.986 282.91 217.654 274.084C235.323 265.258 309.424 226.045 327.202 215.862C344.98 205.679 407.093 165.732 419.787 155.712C432.482 145.664 436.043 139.282 437.049 137.816C437.511 137.137 437.32 136.35 436.586 136.35C435.744 136.35 434.167 137.382 432.02 140.803" fill="white"/>
    </mask>
    <g mask="url(#mask2_2668_11672)">
        <path d="M437.484 136.297H2.69116V374.861H437.484V136.297Z" fill="url(#paint2_linear_2668_11672)"/>
    </g>
    <path d="M2.69116 372.145C2.69116 372.145 232.85 263.304 282.432 235.849C332.013 208.395 399.427 168.041 407.174 162.474C414.922 156.907 427.915 147.158 431.965 140.75C436.016 134.341 437.973 136.323 436.994 137.79C436.016 139.256 432.427 145.665 419.733 155.685C407.039 165.706 344.925 205.652 327.148 215.835C309.37 226.019 235.269 265.232 217.6 274.058C199.931 282.883 46.8092 354.955 46.8092 354.955L2.69116 374.887V372.145Z" stroke="#170486" stroke-width="0.54" stroke-miterlimit="10"/>
    <path d="M249.078 175.019L252.666 178.006C258.375 182.759 259.136 191.204 254.379 196.907L202.84 258.741C198.083 264.444 189.629 265.204 183.92 260.479L180.332 257.492C174.624 252.767 173.863 244.294 178.592 238.591L230.132 176.757C234.889 171.055 243.342 170.294 249.051 175.019" fill="#FF1700"/>
    <path d="M249.078 175.019L252.666 178.006C258.375 182.759 259.136 191.204 254.379 196.907L202.84 258.741C198.083 264.444 189.629 265.204 183.92 260.479L180.332 257.492C174.624 252.767 173.863 244.294 178.592 238.591L230.132 176.757C234.889 171.055 243.342 170.294 249.051 175.019H249.078Z" stroke="#170486" stroke-width="0.54" stroke-miterlimit="10"/>
    <path d="M121.263 301.185L119.415 298.714C116.479 294.804 117.268 289.264 121.209 286.331L189.602 235.224C193.516 232.291 199.088 233.078 201.997 237.016L203.845 239.487C206.781 243.398 205.993 248.965 202.051 251.87L133.659 303.005C129.745 305.938 124.199 305.123 121.263 301.212" fill="#FF1700"/>
    <path d="M121.263 301.185L119.415 298.714C116.479 294.804 117.268 289.264 121.209 286.331L189.602 235.224C193.516 232.291 199.088 233.078 201.997 237.016L203.845 239.487C206.781 243.398 205.993 248.965 202.051 251.87L133.659 303.005C129.745 305.938 124.199 305.123 121.263 301.212V301.185Z" stroke="#170486" stroke-width="0.54" stroke-miterlimit="10"/>
    <path d="M141.515 306.859C137.003 311.748 129.418 312.046 124.525 307.538C119.633 303.03 119.334 295.454 123.846 290.566C128.358 285.705 135.942 285.379 140.835 289.887C145.728 294.395 146.027 301.971 141.515 306.859Z" fill="#FF1700"/>
    <path d="M141.515 306.859C137.003 311.748 129.418 312.046 124.525 307.538C119.633 303.03 119.334 295.454 123.846 290.566C128.358 285.705 135.942 285.379 140.835 289.887C145.728 294.395 146.027 301.971 141.515 306.859Z" stroke="#170486" stroke-width="0.54" stroke-miterlimit="10"/>
    <path d="M138.144 303.764C135.344 306.779 130.641 306.969 127.624 304.199C124.607 301.402 124.416 296.704 127.189 293.69C129.962 290.675 134.692 290.485 137.709 293.255C140.726 296.052 140.917 300.75 138.144 303.764Z" fill="#FF1700"/>
    <path d="M138.144 303.764C135.344 306.779 130.641 306.969 127.624 304.199C124.607 301.402 124.416 296.704 127.189 293.69C129.962 290.675 134.692 290.485 137.709 293.255C140.726 296.052 140.917 300.75 138.144 303.764Z" stroke="#170486" stroke-width="0.54" stroke-miterlimit="10"/>
    <path d="M347.589 50.5371C347.589 50.5371 320.107 57.6519 310.648 91.2166" stroke="#170486" stroke-width="0.54" stroke-miterlimit="10"/>
    <path d="M246.407 119.261L221.819 127.494L222.683 130.069L247.271 121.836L246.407 119.261Z" fill="#FF1700"/>
    <path d="M246.407 119.261L221.819 127.494L222.683 130.069L247.271 121.836L246.407 119.261Z" stroke="#170486" stroke-width="0.54" stroke-miterlimit="10"/>
    <path d="M294.963 125.407L307.793 113.16C307.793 113.16 310.648 109.738 306.026 107.783L242.092 113.595C242.092 113.595 234.209 114.301 233.774 122.665C233.774 122.665 233.855 129.399 242.636 128.585L294.936 125.407H294.963Z" fill="#FF1700"/>
    <path d="M294.963 125.407L307.793 113.16C307.793 113.16 310.648 109.738 306.026 107.783L242.092 113.595C242.092 113.595 234.209 114.301 233.774 122.665C233.774 122.665 233.855 129.399 242.636 128.585L294.936 125.407H294.963Z" stroke="#170486" stroke-width="0.54" stroke-miterlimit="10"/>
    <path d="M242.092 117.096C239.646 117.286 237.824 119.404 237.987 121.848C238.178 124.292 240.298 126.112 242.744 125.949C245.191 125.759 247.012 123.641 246.849 121.197C246.659 118.753 244.539 116.933 242.092 117.096Z" fill="#FF1700"/>
    <path d="M242.092 117.096C239.646 117.286 237.824 119.404 237.987 121.848C238.178 124.292 240.298 126.112 242.744 125.949C245.191 125.759 247.012 123.641 246.849 121.197C246.659 118.753 244.539 116.933 242.092 117.096Z" stroke="#170486" stroke-width="0.54" stroke-miterlimit="10"/>
    <path d="M221.515 123.968L195.718 143.683C193.163 145.639 192.674 149.305 194.631 151.884L195.881 153.514C197.838 156.066 201.508 156.555 204.09 154.6L229.887 134.885C232.442 132.93 232.932 129.264 230.974 126.684L229.724 125.054C227.767 122.502 224.097 122.013 221.515 123.968Z" fill="#FF1700"/>
    <path d="M195.715 143.685L221.495 123.986C224.065 122.023 227.723 122.51 229.688 125.077L230.927 126.695C232.892 129.262 232.404 132.916 229.835 134.879L204.033 154.594C201.463 156.557 197.805 156.07 195.84 153.503L194.602 151.886C192.636 149.319 193.124 145.664 195.693 143.701L195.715 143.685Z" stroke="#170486" stroke-width="0.54" stroke-miterlimit="10"/>
    <path d="M185.877 162.255C181.446 158.155 181.175 151.23 185.306 146.803C189.411 142.377 196.343 142.105 200.774 146.233C205.204 150.334 205.476 157.258 201.344 161.685C197.24 166.111 190.308 166.383 185.877 162.255Z" fill="#FF1700"/>
    <path d="M185.877 162.255C181.446 158.155 181.175 151.23 185.306 146.803C189.411 142.377 196.343 142.105 200.774 146.233C205.204 150.334 205.476 157.258 201.344 161.685C197.24 166.111 190.308 166.383 185.877 162.255Z" stroke="#170486" stroke-width="0.54" stroke-miterlimit="10"/>
    <path d="M188.705 159.187C185.959 156.634 185.796 152.371 188.351 149.628C190.906 146.885 195.174 146.722 197.92 149.275C200.665 151.828 200.828 156.091 198.273 158.834C195.718 161.577 191.45 161.739 188.705 159.187Z" fill="#FF1700"/>
    <path d="M188.705 159.187C185.959 156.634 185.796 152.371 188.351 149.628C190.906 146.885 195.174 146.722 197.92 149.275C200.665 151.828 200.828 156.091 198.273 158.834C195.718 161.577 191.45 161.739 188.705 159.187Z" stroke="#170486" stroke-width="0.54" stroke-miterlimit="10"/>
    <path d="M227.522 127.55C225.945 125.785 223.227 125.649 221.46 127.225C219.693 128.8 219.557 131.515 221.134 133.28C222.71 135.045 225.429 135.181 227.196 133.606C228.963 132.031 229.098 129.316 227.522 127.55Z" fill="#FF1700"/>
    <path d="M227.522 127.55C225.945 125.785 223.227 125.649 221.46 127.225C219.693 128.8 219.557 131.515 221.134 133.28C222.71 135.045 225.429 135.181 227.196 133.606C228.963 132.031 229.098 129.316 227.522 127.55Z" stroke="#170486" stroke-width="0.54" stroke-miterlimit="10"/>
    <path d="M356.886 90.3205C340.087 96.675 321.33 88.2024 314.97 71.4472C308.609 54.6649 317.09 35.9274 333.862 29.5729C350.661 23.2184 369.417 31.6911 375.778 48.4462C382.139 65.2285 373.658 83.9661 356.886 90.3205Z" fill="#FF1700"/>
    <path d="M356.886 90.3205C340.087 96.675 321.33 88.2024 314.97 71.4472C308.609 54.6649 317.09 35.9274 333.862 29.5729C350.661 23.2184 369.417 31.6911 375.778 48.4462C382.139 65.2285 373.658 83.9661 356.886 90.3205Z" stroke="#170486" stroke-width="0.54" stroke-miterlimit="10"/>
    <mask id="mask3_2668_11672" style="mask-type:luminance" maskUnits="userSpaceOnUse" x="302" y="17" width="76" height="75">
        <path d="M303.689 46.299C299.067 66.4214 311.68 86.4625 331.796 91.0518C335.629 91.9208 339.434 92.1652 343.158 91.8665L377.49 56.754C378.551 38.8854 366.563 22.3203 348.486 18.1926C345.686 17.5409 342.859 17.2422 340.114 17.2422C323.043 17.2422 307.657 28.9735 303.689 46.2718" fill="white"/>
    </mask>
    <g mask="url(#mask3_2668_11672)">
        <path d="M303.039 -0.01671L282.773 88.4512L374.589 109.442L394.855 20.974L303.039 -0.01671Z" fill="url(#paint3_linear_2668_11672)"/>
    </g>
    <path d="M343.158 91.8961L377.49 56.7835C378.551 38.8878 366.563 22.3499 348.486 18.2222C328.344 13.6057 308.283 26.1789 303.689 46.3014C299.067 66.4239 311.68 86.4649 331.796 91.0542C335.629 91.9232 339.434 92.1948 343.158 91.8689V91.8961Z" stroke="#170486" stroke-width="0.54" stroke-miterlimit="10"/>
    <mask id="mask4_2668_11672" style="mask-type:luminance" maskUnits="userSpaceOnUse" x="322" y="50" width="21" height="22">
        <path d="M327.963 51.8679C322.907 54.3662 320.841 60.4763 323.315 65.5273C325.816 70.5782 331.932 72.6421 336.961 70.1709C341.989 67.6997 344.083 61.5625 341.609 56.5115C339.842 52.8998 336.227 50.8359 332.448 50.8359C330.926 50.8359 329.404 51.1618 327.963 51.895" fill="white"/>
    </mask>
    <g mask="url(#mask4_2668_11672)">
        <path d="M339.563 41.625L312.18 55.1035L325.384 81.8746L352.767 68.3962L339.563 41.625Z" fill="url(#paint4_linear_2668_11672)"/>
    </g>
    <path d="M341.636 56.5097C344.137 61.5607 342.044 67.6708 336.988 70.1691C331.932 72.6675 325.815 70.5765 323.315 65.5255C320.814 60.4745 322.907 54.3644 327.963 51.8661C333.019 49.3677 339.135 51.4587 341.636 56.5097Z" stroke="#170486" stroke-width="0.54" stroke-miterlimit="10"/>
    <mask id="mask5_2668_11672" style="mask-type:luminance" maskUnits="userSpaceOnUse" x="329" y="58" width="8" height="8">
        <path d="M331.579 59.1732C329.893 60.015 329.187 62.0517 330.029 63.7082C330.872 65.3918 332.911 66.0979 334.596 65.2561C336.281 64.4142 336.988 62.3775 336.145 60.6939C335.547 59.499 334.351 58.793 333.101 58.793C332.584 58.793 332.095 58.9016 331.606 59.146" fill="white"/>
    </mask>
    <g mask="url(#mask5_2668_11672)">
        <path d="M335.454 55.7335L326.31 60.2344L330.72 69.1743L339.863 64.6735L335.454 55.7335Z" fill="url(#paint5_linear_2668_11672)"/>
    </g>
    <path d="M336.118 60.7203C336.933 62.4039 336.254 64.4406 334.569 65.2825C332.883 66.1243 330.845 65.4182 330.029 63.7346C329.186 62.0509 329.893 60.0142 331.578 59.1996C333.264 58.3577 335.303 59.0638 336.145 60.7474L336.118 60.7203Z" stroke="#170486" stroke-width="0.54" stroke-miterlimit="10"/>
    <defs>
        <linearGradient id="paint0_linear_2668_11672" x1="8.09233" y1="249.798" x2="433.806" y2="249.798" gradientUnits="userSpaceOnUse">
            <stop stop-color="#170486"/>
            <stop offset="0.01" stop-color="#170486"/>
            <stop offset="1" stop-color="#1598FF"/>
        </linearGradient>
        <linearGradient id="paint1_linear_2668_11672" x1="246.819" y1="128.147" x2="279.104" y2="185.997" gradientUnits="userSpaceOnUse">
            <stop stop-color="#1598FF"/>
            <stop offset="0.99" stop-color="#170486"/>
            <stop offset="1" stop-color="#170486"/>
        </linearGradient>
        <linearGradient id="paint2_linear_2668_11672" x1="-2.93844" y1="251.905" x2="431.636" y2="251.905" gradientUnits="userSpaceOnUse">
            <stop stop-color="#170486"/>
            <stop offset="0.01" stop-color="#170486"/>
            <stop offset="1" stop-color="#1598FF"/>
        </linearGradient>
        <linearGradient id="paint3_linear_2668_11672" x1="294.767" y1="38.6637" x2="367.179" y2="55.2515" gradientUnits="userSpaceOnUse">
            <stop stop-color="#170486"/>
            <stop offset="0.01" stop-color="#170486"/>
            <stop offset="1" stop-color="#1598FF"/>
        </linearGradient>
        <linearGradient id="paint4_linear_2668_11672" x1="308.781" y1="65.2217" x2="327.086" y2="56.1935" gradientUnits="userSpaceOnUse">
            <stop stop-color="#1598FF"/>
            <stop offset="0.99" stop-color="#170486"/>
            <stop offset="1" stop-color="#170486"/>
        </linearGradient>
        <linearGradient id="paint5_linear_2668_11672" x1="336.881" y1="64.2492" x2="342.975" y2="61.2438" gradientUnits="userSpaceOnUse">
            <stop stop-color="#1598FF"/>
            <stop offset="0.99" stop-color="#170486"/>
            <stop offset="1" stop-color="#170486"/>
        </linearGradient>
    </defs>
</svg>
