<svg width="564" height="216" viewBox="0 0 564 216" fill="none" xmlns="http://www.w3.org/2000/svg">
    <rect x="206" y="182" width="578" height="3" fill="#FF1700"/>
    <path d="M147.075 108.397C144.71 103.886 146.468 98.3271 151.007 95.9766L190.576 75.5042C195.115 73.1536 200.708 74.9007 203.074 79.4113C205.439 83.9218 203.681 89.4807 199.142 91.8313L159.573 112.304C155.034 114.654 149.44 112.907 147.075 108.381" fill="#FF1700"/>
    <path d="M147.075 108.397C144.71 103.886 146.468 98.3271 151.007 95.9766L190.576 75.5042C195.115 73.1536 200.708 74.9007 203.074 79.4113C205.439 83.9218 203.681 89.4807 199.142 91.8313L159.573 112.304C155.034 114.654 149.44 112.907 147.075 108.381V108.397Z" stroke="#170486" stroke-width="0.54" stroke-miterlimit="10"/>
    <path d="M182.331 130.807C180.142 133.364 176.275 133.666 173.702 131.49L151.887 112.971C149.314 110.795 149.01 106.952 151.2 104.395C153.389 101.837 157.257 101.536 159.83 103.727L181.644 122.246C184.217 124.422 184.521 128.266 182.331 130.823" fill="#FF1700"/>
    <path d="M182.331 130.807C180.142 133.364 176.275 133.666 173.702 131.49L151.887 112.971C149.314 110.795 149.01 106.952 151.2 104.395C153.389 101.837 157.257 101.536 159.83 103.727L181.644 122.246C184.217 124.422 184.521 128.266 182.331 130.823V130.807Z" stroke="#170486" stroke-width="0.54" stroke-miterlimit="10"/>
    <path d="M181.834 135.222C178.414 137.112 174.115 135.873 172.23 132.49C170.344 129.091 171.574 124.819 174.978 122.945C178.382 121.071 182.697 122.294 184.583 125.677C186.469 129.075 185.238 133.348 181.834 135.222Z" fill="#FF1700"/>
    <path d="M181.834 135.222C178.414 137.112 174.115 135.873 172.23 132.49C170.344 129.091 171.574 124.819 174.978 122.945C178.382 121.071 182.697 122.294 184.583 125.677C186.469 129.075 185.238 133.348 181.834 135.222Z" stroke="#170486" stroke-width="0.54" stroke-miterlimit="10"/>
    <path d="M180.541 132.872C178.431 134.031 175.762 133.285 174.596 131.172C173.429 129.076 174.18 126.423 176.306 125.264C178.415 124.105 181.084 124.851 182.251 126.963C183.417 129.06 182.666 131.712 180.541 132.872Z" fill="#FF1700"/>
    <path d="M180.541 132.872C178.431 134.031 175.762 133.285 174.596 131.172C173.429 129.076 174.18 126.423 176.306 125.264C178.415 124.105 181.084 124.851 182.251 126.963C183.417 129.06 182.666 131.712 180.541 132.872Z" stroke="#170486" stroke-width="0.54" stroke-miterlimit="10"/>
    <path d="M109.775 53.4764C109.775 53.4764 126.412 52.1423 138.142 68.8664" stroke="#170486" stroke-width="0.54" stroke-miterlimit="10"/>
    <path d="M177.297 159.459C177.297 165.193 172.631 169.83 166.862 169.83C161.092 169.83 156.426 165.193 156.426 159.459C156.426 153.726 161.092 149.088 166.862 149.088C172.631 149.088 177.297 153.726 177.297 159.459Z" fill="#FF1700"/>
    <path d="M170.859 169.037C176.184 166.845 178.713 160.779 176.507 155.487C174.301 150.195 168.197 147.682 162.872 149.874C157.547 152.066 155.018 158.133 157.224 163.424C159.43 168.716 165.534 171.229 170.859 169.037Z" stroke="#170486" stroke-width="0.54" stroke-miterlimit="10"/>
    <path d="M177.904 113.798H128.953V117.784H177.904V113.798Z" fill="#FF1700"/>
    <path d="M177.904 113.798H128.953V117.784H177.904V113.798Z" stroke="#170486" stroke-width="0.54" stroke-miterlimit="10"/>
    <path d="M126.036 107.759L122.998 110.363L167.549 161.692L170.586 159.089L126.036 107.759Z" fill="#FF1700"/>
    <path d="M126.036 107.759L122.998 110.363L167.549 161.692L170.586 159.089L126.036 107.759Z" stroke="#170486" stroke-width="0.54" stroke-miterlimit="10"/>
    <path d="M129.591 105.093L124.916 127.179L128.122 127.849L132.797 105.764L129.591 105.093Z" fill="#FF1700"/>
    <path d="M129.591 105.093L124.916 127.179L128.122 127.849L132.797 105.764L129.591 105.093Z" stroke="#170486" stroke-width="0.54" stroke-miterlimit="10"/>
    <mask id="mask0_3763_30042" style="mask-type:luminance" maskUnits="userSpaceOnUse" x="91" y="39" width="56" height="45">
        <path d="M92.1791 55.366C89.6221 65.3084 97.8365 76.4419 111.644 83.7001C113.083 83.0172 114.617 82.4136 116.263 81.9054C116.119 78.5066 116.439 75.076 117.318 71.6454C120.93 57.6213 132.612 47.6154 146.787 44.5819C144.134 43.5336 141.338 42.6284 138.413 41.8819C132.772 40.4525 127.242 39.7695 122.048 39.7695C106.818 39.7695 94.6722 45.6142 92.1632 55.366" fill="white"/>
    </mask>
    <g mask="url(#mask0_3763_30042)">
        <path d="M137.779 19.0441L73.5137 46.6953L98.6514 104.398L162.917 76.7465L137.779 19.0441Z" fill="url(#paint0_linear_3763_30042)"/>
    </g>
    <path d="M116.279 81.9055C116.135 78.5226 116.455 75.0761 117.334 71.6455C120.93 57.6214 132.628 47.6155 146.803 44.582C144.15 43.5337 141.354 42.6284 138.429 41.882C116.247 36.2596 95.5512 42.2949 92.1791 55.3661C89.6221 65.3084 97.8365 76.442 111.644 83.6843C113.083 83.0014 114.617 82.3979 116.263 81.8896L116.279 81.9055Z" stroke="#170486" stroke-width="0.54" stroke-miterlimit="10"/>
    <path d="M113.723 122.009C96.2551 122.009 82.0957 136.081 82.0957 153.44C82.0957 170.799 96.2551 184.871 113.723 184.871C131.19 184.871 145.35 170.799 145.35 153.44C145.35 136.081 131.19 122.009 113.723 122.009ZM113.723 180.376C98.7482 180.376 86.6184 168.322 86.6184 153.44C86.6184 138.558 98.7482 126.503 113.723 126.503C128.697 126.503 140.827 138.574 140.827 153.44C140.827 168.306 128.697 180.376 113.723 180.376Z" fill="#FF1700"/>
    <path d="M113.723 122.009C96.2551 122.009 82.0957 136.081 82.0957 153.44C82.0957 170.799 96.2551 184.871 113.723 184.871C131.19 184.871 145.35 170.799 145.35 153.44C145.35 136.081 131.19 122.009 113.723 122.009ZM113.723 180.376C98.7482 180.376 86.6184 168.322 86.6184 153.44C86.6184 138.558 98.7482 126.503 113.723 126.503C128.697 126.503 140.827 138.574 140.827 153.44C140.827 168.306 128.697 180.376 113.723 180.376Z" stroke="#170486" stroke-width="0.54" stroke-miterlimit="10"/>
    <path d="M116.679 75.3927C109.231 70.8027 106.467 61.8133 110.526 55.3175C114.585 48.8216 123.902 47.2651 131.366 51.8551" stroke="#170486" stroke-width="0.54" stroke-miterlimit="10"/>
    <path d="M137.967 102.009L123.512 106.824L124.02 108.33L138.475 103.515L137.967 102.009Z" fill="#FF1700"/>
    <path d="M137.967 102.009L123.512 106.824L124.02 108.33L138.475 103.515L137.967 102.009Z" stroke="#170486" stroke-width="0.54" stroke-miterlimit="10"/>
    <path d="M112.252 68.3574C112.252 70.9463 110.142 73.0586 107.521 73.0586C104.901 73.0586 102.791 70.9621 102.791 68.3574C102.791 65.7527 104.901 63.6562 107.521 63.6562C110.142 63.6562 112.252 65.7527 112.252 68.3574Z" fill="#FF1700"/>
    <path d="M109.331 72.7059C111.744 71.7123 112.891 68.9623 111.891 66.5636C110.891 64.1648 108.124 63.0257 105.71 64.0193C103.297 65.0129 102.15 67.7629 103.15 70.1617C104.15 72.5604 106.917 73.6995 109.331 72.7059Z" stroke="#170486" stroke-width="0.54" stroke-miterlimit="10"/>
    <path d="M110.064 68.358C110.064 69.7557 108.929 70.8833 107.523 70.8833C106.117 70.8833 104.998 69.7557 104.998 68.358C104.998 66.9604 106.133 65.8486 107.523 65.8486C108.913 65.8486 110.064 66.9763 110.064 68.358Z" fill="#170486"/>
    <path d="M209.291 122.009C191.824 122.009 177.664 136.081 177.664 153.44C177.664 170.799 191.824 184.871 209.291 184.871C226.759 184.871 240.918 170.799 240.918 153.44C240.918 136.081 226.759 122.009 209.291 122.009ZM209.291 180.376C194.317 180.376 182.187 168.322 182.187 153.44C182.187 138.558 194.317 126.503 209.291 126.503C224.266 126.503 236.395 138.574 236.395 153.44C236.395 168.306 224.266 180.376 209.291 180.376Z" fill="#FF1700"/>
    <path d="M209.291 122.009C191.824 122.009 177.664 136.081 177.664 153.44C177.664 170.799 191.824 184.871 209.291 184.871C226.759 184.871 240.918 170.799 240.918 153.44C240.918 136.081 226.759 122.009 209.291 122.009ZM209.291 180.376C194.317 180.376 182.187 168.322 182.187 153.44C182.187 138.558 194.317 126.503 209.291 126.503C224.266 126.503 236.395 138.574 236.395 153.44C236.395 168.306 224.266 180.376 209.291 180.376Z" stroke="#170486" stroke-width="0.54" stroke-miterlimit="10"/>
    <mask id="mask1_3763_30042" style="mask-type:luminance" maskUnits="userSpaceOnUse" x="117" y="50" width="101" height="65">
        <path d="M143.912 50.918C130.28 58.7956 120.468 71.9621 118.198 87.8921C117.879 90.1633 117.719 92.4186 117.719 94.658C123.424 92.7203 129.513 91.1797 135.921 90.1474C170.265 84.6044 201.157 95.3886 209.004 114.59C214.214 109.111 217.314 102.758 217.65 95.8809C218.785 72.9786 188.9 52.9033 150.912 51.0609C149.026 50.9656 147.14 50.918 145.287 50.918C144.823 50.918 144.376 50.918 143.928 50.918" fill="white"/>
    </mask>
    <g mask="url(#mask1_3763_30042)">
        <path d="M215.425 32.9883L106.264 53.0166L121.032 132.514L230.193 112.486L215.425 32.9883Z" fill="url(#paint1_linear_3763_30042)"/>
    </g>
    <path d="M150.896 51.0459C148.531 50.9347 146.198 50.8871 143.896 50.9188C130.264 58.7965 120.452 71.9471 118.183 87.893C117.863 90.1641 117.703 92.4194 117.703 94.6588C123.408 92.7212 129.497 91.1806 135.906 90.1482C170.234 84.6053 201.142 95.3894 208.988 114.591C214.198 109.112 217.299 102.759 217.634 95.8818C218.769 72.9794 188.884 52.9041 150.896 51.0618V51.0459Z" stroke="#170486" stroke-width="0.54" stroke-miterlimit="10"/>
    <path d="M132.949 90.7833C132.949 90.7833 137.76 66.3403 152.846 63.418C152.846 63.418 217.762 69.8821 214.054 108.079" stroke="#170486" stroke-width="0.54" stroke-miterlimit="10"/>
    <path d="M134.082 100.472C134.082 100.472 138.541 77.7442 152.477 75.0283C152.477 75.0283 211.448 80.4918 208.843 114.607" stroke="#170486" stroke-width="0.54" stroke-miterlimit="10"/>
    <path d="M150.896 51.0459C148.531 50.9347 146.198 50.8871 143.896 50.9188C130.264 58.7965 120.452 71.9471 118.183 87.893C117.863 90.1641 117.703 92.4194 117.703 94.6588C123.408 92.7212 129.497 91.1806 135.906 90.1482C170.234 84.6053 201.142 95.3894 208.988 114.591C214.198 109.112 217.299 102.759 217.634 95.8818C218.769 72.9794 188.884 52.9041 150.896 51.0618V51.0459Z" stroke="#170486" stroke-width="0.54" stroke-miterlimit="10"/>
    <path d="M142.857 74.6149L136.768 66.1972C136.768 66.1972 135.01 64.2596 133.492 66.769L131.654 104.235C131.654 104.235 131.43 108.857 136.257 109.778C136.257 109.778 140.188 110.287 140.428 105.125L142.857 74.599V74.6149Z" fill="#FF1700"/>
    <path d="M142.857 74.6149L136.768 66.1972C136.768 66.1972 135.01 64.2596 133.492 66.769L131.654 104.235C131.654 104.235 131.43 108.857 136.257 109.778C136.257 109.778 140.188 110.287 140.428 105.125L142.857 74.599V74.6149Z" stroke="#170486" stroke-width="0.54" stroke-miterlimit="10"/>
    <path d="M138.573 103.808C138.573 105.237 137.407 106.396 135.968 106.396C134.53 106.396 133.363 105.237 133.363 103.808C133.363 102.378 134.53 101.219 135.968 101.219C137.407 101.219 138.573 102.378 138.573 103.808Z" fill="#FF1700"/>
    <path d="M138.573 103.808C138.573 105.237 137.407 106.396 135.968 106.396C134.53 106.396 133.363 105.237 133.363 103.808C133.363 102.378 134.53 101.219 135.968 101.219C137.407 101.219 138.573 102.378 138.573 103.808Z" stroke="#170486" stroke-width="0.54" stroke-miterlimit="10"/>
    <path d="M126.619 110.303L107.585 111.796C105.699 111.939 104.037 110.541 103.877 108.651L103.782 107.46C103.638 105.586 105.044 103.934 106.946 103.775L125.98 102.283C127.865 102.14 129.527 103.537 129.687 105.427L129.783 106.618C129.927 108.493 128.521 110.144 126.619 110.287" fill="#FF1700"/>
    <path d="M126.619 110.303L107.585 111.796C105.699 111.939 104.037 110.541 103.877 108.651L103.782 107.46C103.638 105.586 105.044 103.934 106.946 103.775L125.98 102.283C127.865 102.14 129.527 103.537 129.687 105.427L129.783 106.618C129.927 108.493 128.521 110.144 126.619 110.287V110.303Z" stroke="#170486" stroke-width="0.54" stroke-miterlimit="10"/>
    <path d="M99.4836 107.142C99.1639 110.668 101.769 113.781 105.317 114.098C108.865 114.416 111.997 111.827 112.317 108.301C112.636 104.775 110.031 101.662 106.483 101.345C102.936 101.027 99.8032 103.616 99.4836 107.142Z" fill="#FF1700"/>
    <path d="M99.4836 107.142C99.1639 110.668 101.769 113.781 105.317 114.098C108.865 114.416 111.997 111.827 112.317 108.301C112.636 104.775 110.031 101.662 106.483 101.345C102.936 101.027 99.8032 103.616 99.4836 107.142Z" stroke="#170486" stroke-width="0.49" stroke-miterlimit="10"/>
    <path d="M101.93 107.365C101.738 109.541 103.336 111.479 105.541 111.669C107.731 111.876 109.665 110.272 109.872 108.08C110.064 105.904 108.45 103.982 106.261 103.776C104.071 103.569 102.137 105.173 101.93 107.365Z" fill="#FF1700"/>
    <path d="M101.93 107.365C101.738 109.541 103.336 111.479 105.541 111.669C107.731 111.876 109.665 110.272 109.872 108.08C110.064 105.904 108.45 103.982 106.261 103.776C104.071 103.569 102.137 105.173 101.93 107.365Z" stroke="#170486" stroke-width="0.49" stroke-miterlimit="10"/>
    <path d="M127.835 106.396C127.835 107.778 126.701 108.906 125.31 108.906C123.92 108.906 122.785 107.778 122.785 106.396C122.785 105.014 123.92 103.887 125.31 103.887C126.701 103.887 127.835 105.014 127.835 106.396Z" fill="#FF1700"/>
    <path d="M127.835 106.396C127.835 107.778 126.701 108.906 125.31 108.906C123.92 108.906 122.785 107.778 122.785 106.396C122.785 105.014 123.92 103.887 125.31 103.887C126.701 103.887 127.835 105.014 127.835 106.396Z" stroke="#170486" stroke-width="0.52" stroke-miterlimit="10"/>
    <mask id="mask2_3763_30042" style="mask-type:luminance" maskUnits="userSpaceOnUse" x="105" y="74" width="10" height="10">
        <path d="M105.365 79.8568L110.655 83.1603L114.043 77.0774L109.137 74.7744L105.365 79.8568Z" fill="white"/>
    </mask>
    <g mask="url(#mask2_3763_30042)">
        <path d="M111.023 77.3154C111.023 77.3154 110.799 81.5878 106.404 82.6995" stroke="#170486" stroke-width="0.49" stroke-linecap="round" stroke-linejoin="round"/>
    </g>
    <path d="M165.455 165.351L163.665 165.096C160.82 164.684 158.839 162.063 159.254 159.236L163.617 129.234C164.033 126.407 166.67 124.438 169.514 124.851L171.304 125.105C174.149 125.518 176.131 128.138 175.715 130.965L171.352 160.967C170.937 163.794 168.3 165.764 165.455 165.351Z" fill="#FF1700"/>
    <path d="M165.455 165.351L163.665 165.096C160.82 164.684 158.839 162.063 159.254 159.236L163.617 129.234C164.033 126.407 166.67 124.438 169.514 124.851L171.304 125.105C174.149 125.518 176.131 128.138 175.715 130.965L171.352 160.967C170.937 163.794 168.3 165.764 165.455 165.351Z" stroke="#170486" stroke-width="0.54" stroke-miterlimit="10"/>
    <path d="M164.401 134.142C160.182 131.267 159.095 125.534 161.987 121.341L187.174 84.7477C190.067 80.5547 195.836 79.4747 200.055 82.3494C204.274 85.2242 205.361 90.9577 202.468 95.1506L177.282 131.744C174.389 135.937 168.62 137.017 164.401 134.142Z" fill="#FF1700"/>
    <path d="M164.401 134.142C160.182 131.267 159.095 125.534 161.987 121.341L187.174 84.7477C190.067 80.5547 195.836 79.4747 200.055 82.3494C204.274 85.2242 205.361 90.9577 202.468 95.1506L177.282 131.744C174.389 135.937 168.62 137.017 164.401 134.142Z" stroke="#170486" stroke-width="0.54" stroke-miterlimit="10"/>
    <path d="M168.891 165.78C165.471 167.67 161.172 166.431 159.286 163.048C157.401 159.649 158.631 155.377 162.035 153.503C165.439 151.628 169.754 152.851 171.64 156.234C173.526 159.633 172.295 163.905 168.891 165.78Z" fill="#FF1700"/>
    <path d="M168.891 165.78C165.471 167.67 161.172 166.431 159.286 163.048C157.401 159.649 158.631 155.377 162.035 153.503C165.439 151.628 169.754 152.851 171.64 156.234C173.526 159.633 172.295 163.905 168.891 165.78Z" stroke="#170486" stroke-width="0.54" stroke-miterlimit="10"/>
    <path d="M167.58 163.445C165.47 164.604 162.801 163.858 161.635 161.745C160.468 159.649 161.219 156.997 163.345 155.837C165.454 154.678 168.123 155.424 169.29 157.537C170.456 159.633 169.705 162.285 167.58 163.445Z" fill="#FF1700"/>
    <path d="M167.58 163.445C165.47 164.604 162.801 163.858 161.635 161.745C160.468 159.649 161.219 156.997 163.345 155.837C165.454 154.678 168.123 155.424 169.29 157.537C170.456 159.633 169.705 162.285 167.58 163.445Z" stroke="#170486" stroke-width="0.54" stroke-miterlimit="10"/>
    <defs>
        <linearGradient id="paint0_linear_3763_30042" x1="108.095" y1="39.6422" x2="120.599" y2="68.7031" gradientUnits="userSpaceOnUse">
            <stop stop-color="#170486"/>
            <stop offset="0.01" stop-color="#170486"/>
            <stop offset="1" stop-color="#1598FF"/>
        </linearGradient>
        <linearGradient id="paint1_linear_3763_30042" x1="166.884" y1="63.4739" x2="173.876" y2="101.583" gradientUnits="userSpaceOnUse">
            <stop stop-color="#1598FF"/>
            <stop offset="0.99" stop-color="#170486"/>
            <stop offset="1" stop-color="#170486"/>
        </linearGradient>
    </defs>
</svg>
