<svg width="1354" height="319" viewBox="0 0 1354 319" fill="none" xmlns="http://www.w3.org/2000/svg">
    <rect x="244" y="286" width="1114" height="4" fill="#FF1700"/>
    <path d="M206.216 31.7812C206.216 31.7812 180.801 38.8201 172.49 70.1542" stroke="#170486" stroke-width="0.48" stroke-miterlimit="10"/>
    <mask id="mask0_0_1" style="mask-type:luminance" maskUnits="userSpaceOnUse" x="169" y="1" width="72" height="62">
        <path d="M169.371 24.5952C169.371 24.5952 192.97 25.5034 218.838 55.9861C219.406 56.6672 220.086 57.2349 220.682 57.8593C223.859 61.2368 228.511 62.6843 233.021 61.7193C233.049 61.7193 233.106 61.7193 233.134 61.7193C243.317 39.2121 242.693 17.2725 229.815 7.25356C224.965 3.4787 219.349 1.60547 213.137 1.60547C200.486 1.60547 185.397 9.38223 169.371 24.5952Z" fill="white"/>
    </mask>
    <g mask="url(#mask0_0_1)">
        <path d="M173.921 -16.1929L154.681 58.9492L238.761 80.5039L258 5.36179L173.921 -16.1929Z" fill="url(#paint0_linear_0_1)"/>
    </g>
    <path d="M233.134 61.7219C233.134 61.7219 233.049 61.7219 233.021 61.7219C228.511 62.6869 223.859 61.2394 220.682 57.8619C220.086 57.2375 219.406 56.6699 218.838 55.9887C192.998 25.4777 169.371 24.5978 169.371 24.5978C193.254 1.89193 215.094 -4.21027 229.844 7.2562C242.721 17.2752 243.345 39.2147 233.162 61.7219H233.134Z" stroke="#170486" stroke-width="0.48" stroke-miterlimit="10"/>
    <path d="M231.858 35.3538C232.283 38.3339 230.865 41.3709 228.085 42.9319C224.483 44.947 219.944 43.6414 217.931 40.0369C216.938 38.2204 216.768 36.1769 217.278 34.332" stroke="#170486" stroke-width="0.48" stroke-miterlimit="10"/>
    <mask id="mask1_0_1" style="mask-type:luminance" maskUnits="userSpaceOnUse" x="219" y="17" width="12" height="12">
        <path d="M219.32 26.2433L229.106 28.4572L230.524 18.6936L219.518 17.6719L219.32 26.2433Z" fill="white"/>
    </mask>
    <g mask="url(#mask1_0_1)">
        <path d="M221.816 21.9027C221.816 21.9027 228.17 19.4902 232.566 25.1383" stroke="#170486" stroke-width="0.44" stroke-linecap="round" stroke-linejoin="round"/>
    </g>
    <mask id="mask2_0_1" style="mask-type:luminance" maskUnits="userSpaceOnUse" x="226" y="46" width="14" height="15">
        <path d="M226.354 54.4825L235.715 60.386L239.771 52.8363L232.055 46.4219L226.354 54.4825Z" fill="white"/>
    </mask>
    <g mask="url(#mask2_0_1)">
        <path d="M235.601 55.5882C235.601 55.5882 228.85 54.8787 227.46 47.8398" stroke="#170486" stroke-width="0.44" stroke-linecap="round" stroke-linejoin="round"/>
    </g>
    <path d="M85.5856 38.2794L84.9446 40.7227L105.356 46.0847L105.997 43.6415L85.5856 38.2794Z" fill="#FF1700"/>
    <path d="M85.5856 38.2794L84.9446 40.7227L105.356 46.0847L105.997 43.6415L85.5856 38.2794Z" stroke="#170486" stroke-width="0.48" stroke-miterlimit="10"/>
    <path d="M151.274 57.1244L165.201 48.2975C165.201 48.2975 168.434 45.6863 164.577 43.0752L105.323 36.6608C105.323 36.6608 98.0052 35.866 96.1048 43.4158C96.1048 43.4158 94.9418 49.5463 103.082 50.4546L151.274 57.1528V57.1244Z" fill="#FF1700"/>
    <path d="M151.274 57.1244L165.201 48.2975C165.201 48.2975 168.434 45.6863 164.577 43.0752L105.323 36.6608C105.323 36.6608 98.0052 35.866 96.1048 43.4158C96.1048 43.4158 94.9418 49.5463 103.082 50.4546L151.274 57.1528V57.1244Z" stroke="#170486" stroke-width="0.48" stroke-miterlimit="10"/>
    <path d="M106.259 39.9826C104.018 39.5852 101.862 41.0611 101.465 43.3033C101.04 45.5455 102.543 47.7026 104.784 48.0999C107.025 48.5257 109.181 47.0214 109.578 44.7792C109.975 42.537 108.5 40.3799 106.259 39.9826Z" fill="#FF1700"/>
    <path d="M106.259 39.9826C104.018 39.5852 101.862 41.0611 101.465 43.3033C101.04 45.5455 102.543 47.7026 104.784 48.0999C107.025 48.5257 109.181 47.0214 109.578 44.7792C109.975 42.537 108.5 40.3799 106.259 39.9826Z" stroke="#170486" stroke-width="0.48" stroke-miterlimit="10"/>
    <path d="M85.7521 46.1967L58.1251 40.3216C54.693 39.5836 52.4806 36.2061 53.218 32.7435C53.9555 29.3092 57.3309 27.0954 60.7913 27.8334L88.4184 33.7085C91.8505 34.4464 94.0629 37.8239 93.3254 41.2866C92.5879 44.7209 89.2126 46.9347 85.7521 46.1967Z" fill="#FF1700"/>
    <path d="M85.7521 46.1967L58.1251 40.3216C54.693 39.5836 52.4806 36.2061 53.218 32.7435C53.9555 29.3092 57.3309 27.0954 60.7913 27.8334L88.4184 33.7085C91.8505 34.4464 94.0629 37.8239 93.3254 41.2866C92.5879 44.7209 89.2126 46.9347 85.7521 46.1967Z" stroke="#170486" stroke-width="0.48" stroke-miterlimit="10"/>
    <path d="M41.5318 28.4548C39.4612 33.6772 41.9856 39.6091 47.2047 41.681C52.4238 43.7529 58.3236 41.2269 60.4225 36.0045C62.4932 30.7822 59.9687 24.8503 54.7496 22.7783C49.5306 20.7064 43.6024 23.2325 41.5318 28.4548Z" fill="#FF1700"/>
    <path d="M41.5318 28.4548C39.4612 33.6772 41.9856 39.6091 47.2047 41.681C52.4238 43.7529 58.3236 41.2269 60.4225 36.0045C62.4932 30.7822 59.9687 24.8503 54.7496 22.7783C49.5306 20.7064 43.6024 23.2325 41.5318 28.4548Z" stroke="#170486" stroke-width="0.44" stroke-miterlimit="10"/>
    <path d="M45.1052 29.8788C43.8288 33.1144 45.3888 36.7757 48.6224 38.0529C51.8559 39.3301 55.515 37.7691 56.7914 34.5335C58.0678 31.2979 56.5077 27.6366 53.2742 26.3594C50.0406 25.0822 46.3816 26.6432 45.1052 29.8788Z" fill="#FF1700"/>
    <path d="M45.1052 29.8788C43.8288 33.1144 45.3888 36.7757 48.6224 38.0529C51.8559 39.3301 55.515 37.7691 56.7914 34.5335C58.0678 31.2979 56.5077 27.6366 53.2742 26.3594C50.0406 25.0822 46.3816 26.6432 45.1052 29.8788Z" stroke="#170486" stroke-width="0.44" stroke-miterlimit="10"/>
    <path d="M90.2901 41.0054C89.6661 43.1057 87.4536 44.3262 85.3263 43.7018C83.2273 43.0773 82.0077 40.8635 82.6317 38.7348C83.2557 36.6346 85.4681 35.4141 87.5955 36.0385C89.6944 36.6629 90.9141 38.8768 90.2901 41.0054Z" fill="#FF1700"/>
    <path d="M90.2901 41.0054C89.6661 43.1057 87.4536 44.3262 85.3263 43.7018C83.2273 43.0773 82.0077 40.8635 82.6317 38.7348C83.2557 36.6346 85.4681 35.4141 87.5955 36.0385C89.6944 36.6629 90.9141 38.8768 90.2901 41.0054Z" stroke="#170486" stroke-width="0.47" stroke-miterlimit="10"/>
    <path d="M4.03335 64.6456C-0.90207 71.0601 0.317604 80.2559 6.72798 85.1945L62.6344 128.08C69.0448 133.019 78.2348 131.798 83.1703 125.356C88.0773 118.941 86.886 109.745 80.4473 104.807L24.5409 61.9493C18.1305 57.0108 8.94041 58.2312 4.00499 64.6456" fill="#FF1700"/>
    <path d="M4.03335 64.6456C-0.90207 71.0601 0.317604 80.2559 6.72798 85.1945L62.6344 128.08C69.0448 133.019 78.2348 131.798 83.1703 125.356C88.0773 118.941 86.886 109.745 80.4473 104.807L24.5409 61.9493C18.1305 57.0108 8.94041 58.2312 4.00499 64.6456H4.03335Z" stroke="#170486" stroke-width="0.48" stroke-miterlimit="10"/>
    <mask id="mask3_0_1" style="mask-type:luminance" maskUnits="userSpaceOnUse" x="37" y="28" width="162" height="118">
        <path d="M165.229 30.273C164.633 31.238 164.009 32.203 163.385 33.168C163.328 33.2531 163.272 33.3383 163.215 33.4234C161.541 35.921 154.904 45.7413 151.67 49.431C148.522 53.0356 145.26 56.4415 141.941 59.7055C141.941 59.7055 141.941 59.7055 141.913 59.7055C140.92 60.6705 139.928 61.6355 138.935 62.5721C138.68 62.7991 138.424 63.0546 138.169 63.2816C135.077 66.1199 131.9 68.8162 128.724 71.3422C128.553 71.4841 128.383 71.626 128.185 71.768C117.52 80.1408 106.429 86.6971 95.5655 91.2099C95.3103 91.3234 95.055 91.4085 94.7997 91.5221C92.5305 92.4587 90.2897 93.2818 88.0489 94.0197C87.5667 94.19 87.0845 94.3319 86.6024 94.5022H86.574C85.4961 94.8428 84.4183 95.155 83.3688 95.4672C79.9934 96.4038 76.6464 97.1418 73.3845 97.6527C60.1666 99.753 47.9416 98.3338 38.014 92.9696C37.5318 100.207 38.326 107.076 40.4817 113.32C40.9639 114.682 41.5028 116.044 42.0985 117.35C42.6374 118.514 43.2331 119.621 43.8571 120.728C44.6229 122.061 45.4738 123.367 46.4099 124.616C48.1968 127 50.2107 129.157 52.4515 131.115C54.5505 132.96 56.8764 134.635 59.3441 136.111C86.3471 152.204 130 146.953 170.76 117.038C176.83 112.582 185.509 102.336 191.381 94.9563L191.437 94.8996C195.21 90.1597 197.819 86.6403 197.819 86.6403C199.578 72.6194 194.472 53.0924 179.468 38.2484C175.78 34.5871 171.497 31.2096 166.562 28.2578C166.165 28.9106 165.768 29.5634 165.342 30.2162" fill="white"/>
    </mask>
    <g mask="url(#mask3_0_1)">
        <path d="M191.04 -7.70175L9.92578 34.7383L45.8458 188.222L226.96 145.781L191.04 -7.70175Z" fill="url(#paint1_linear_0_1)"/>
    </g>
    <path d="M197.706 86.7007C197.706 86.7007 195.097 90.2201 191.324 94.96L191.268 95.0168C185.396 102.396 176.717 112.642 170.647 117.098C129.915 147.013 86.234 152.264 59.2311 136.171C56.7633 134.695 54.4375 133.049 52.3385 131.176C50.0977 129.217 48.0838 127.06 46.2969 124.676C45.3608 123.427 44.5099 122.122 43.7441 120.788C43.0917 119.681 42.5244 118.546 41.9855 117.41C41.3614 116.105 40.8225 114.742 40.3687 113.38C38.213 107.136 37.4471 100.267 37.901 93.03C47.8285 98.3943 60.0536 99.8134 73.2715 97.7131C76.5334 97.2022 79.8804 96.4643 83.2558 95.5276C84.3336 95.2438 85.3831 94.9032 86.461 94.5626C86.461 94.5626 86.461 94.5626 86.4893 94.5626C86.9715 94.4207 87.4537 94.2504 87.9643 94.0801C90.2051 93.3422 92.4459 92.4907 94.715 91.5825C94.9703 91.469 95.2256 91.3838 95.4809 91.2703C106.373 86.7291 117.435 80.2012 128.1 71.8284C128.27 71.6865 128.469 71.5446 128.639 71.4026C131.816 68.8766 134.993 66.1803 138.084 63.3137C138.34 63.0866 138.595 62.8312 138.85 62.6041C139.843 61.6675 140.864 60.7309 141.828 59.7659C145.147 56.5303 148.409 53.096 151.557 49.4915C154.791 45.8018 161.457 35.9815 163.102 33.4838C163.159 33.3987 163.215 33.3135 163.272 33.2284C163.896 32.2634 164.52 31.2984 165.144 30.3334C165.57 29.6806 165.967 29.0278 166.364 28.375C171.299 31.3268 175.611 34.7043 179.27 38.3656C194.274 53.2379 199.38 72.765 197.621 86.7575L197.706 86.7007Z" stroke="#170486" stroke-width="0.48" stroke-miterlimit="10"/>
    <path d="M163.186 33.7109C177.057 54.4017 179.751 70.1255 178.532 88.2618C178.532 88.2618 139.332 147.581 43.2898 119.937" stroke="#170486" stroke-width="0.48" stroke-miterlimit="10"/>
    <path d="M158.223 40.6328C164.662 55.42 166.449 70.6613 163.386 85.3066C163.386 85.3066 121.151 135.458 39.376 110.084" stroke="#170486" stroke-width="0.48" stroke-miterlimit="10"/>
    <path d="M74.2642 8.95917C78.1785 12.5637 78.4338 18.6943 74.8315 22.6111L23.0663 78.9217C19.464 82.8668 13.3373 83.1223 9.42302 79.4893C5.50872 75.8564 5.22507 69.7542 8.85573 65.8374L60.5926 9.52682C64.1948 5.61006 70.3216 5.35462 74.2359 8.95917" fill="#FF1700"/>
    <path d="M74.2642 8.95917C78.1785 12.5637 78.4338 18.6943 74.8315 22.6111L23.0663 78.9217C19.464 82.8668 13.3373 83.1223 9.42302 79.4893C5.50872 75.8564 5.22507 69.7542 8.85573 65.8374L60.5926 9.52682C64.1948 5.61006 70.3216 5.35462 74.2359 8.95917H74.2642Z" stroke="#170486" stroke-width="0.48" stroke-miterlimit="10"/>
    <path d="M53.7565 6.23601C57.0468 1.01366 63.911 -0.575755 69.1584 2.7166C74.3775 6.00895 75.9659 12.9059 72.6756 18.1282C69.4137 23.3506 62.5211 24.94 57.302 21.6476C52.083 18.3553 50.4946 11.4584 53.7849 6.23601" fill="#FF1700"/>
    <path d="M53.7565 6.23601C57.0468 1.01366 63.911 -0.575755 69.1584 2.7166C74.3775 6.00895 75.9659 12.9059 72.6756 18.1282C69.4137 23.3506 62.5211 24.94 57.302 21.6476C52.083 18.3553 50.4946 11.4584 53.7849 6.23601H53.7565Z" stroke="#170486" stroke-width="0.48" stroke-miterlimit="10"/>
    <path d="M57.3591 8.50617C59.373 5.27058 63.656 4.30558 66.8896 6.32072C70.1231 8.33587 71.0875 12.6216 69.0737 15.8572C67.0314 19.0928 62.7767 20.0578 59.5432 18.0426C56.3096 16.0275 55.3452 11.7418 57.3591 8.50617Z" fill="#FF1700"/>
    <path d="M57.3591 8.50617C59.373 5.27058 63.656 4.30558 66.8896 6.32072C70.1231 8.33587 71.0875 12.6216 69.0737 15.8572C67.0314 19.0928 62.7767 20.0578 59.5432 18.0426C56.3096 16.0275 55.3452 11.7418 57.3591 8.50617Z" stroke="#170486" stroke-width="0.48" stroke-miterlimit="10"/>
    <path d="M98.5723 211.325C106.401 209.367 111.194 201.392 109.209 193.558L92.1052 125.157C90.148 117.295 82.206 112.526 74.349 114.513C66.4921 116.472 61.7268 124.447 63.7123 132.281L80.8161 200.682C82.7733 208.516 90.7437 213.284 98.5723 211.325Z" fill="#FF1700"/>
    <path d="M98.5723 211.325C106.401 209.367 111.194 201.392 109.209 193.558L92.1052 125.157C90.148 117.295 82.206 112.526 74.349 114.513C66.4921 116.472 61.7268 124.447 63.7123 132.281L80.8161 200.682C82.7733 208.516 90.7437 213.284 98.5723 211.325Z" stroke="#170486" stroke-width="0.48" stroke-miterlimit="10"/>
    <path d="M90.7721 285.999C85.4395 285.658 81.4118 281.032 81.7805 275.696L86.8578 199.376C87.1981 194.04 91.8215 190.01 97.1541 190.379C102.487 190.719 106.514 195.346 106.146 200.682L101.068 277.002C100.728 282.338 96.1046 286.368 90.7721 285.999Z" fill="#FF1700"/>
    <path d="M90.7721 285.999C85.4395 285.658 81.4118 281.032 81.7805 275.696L86.8578 199.376C87.1981 194.04 91.8215 190.01 97.1541 190.379C102.487 190.719 106.514 195.346 106.146 200.682L101.068 277.002C100.728 282.338 96.1046 286.368 90.7721 285.999Z" stroke="#170486" stroke-width="0.48" stroke-miterlimit="10"/>
    <path d="M108.443 275.242C109.153 281.373 104.784 286.908 98.6577 287.645C92.531 288.355 86.9999 283.984 86.2625 277.854C85.5533 271.723 89.9215 266.188 96.0482 265.45C102.175 264.741 107.706 269.112 108.443 275.242Z" fill="#FF1700"/>
    <path d="M108.443 275.242C109.153 281.373 104.784 286.908 98.6577 287.645C92.531 288.355 86.9999 283.984 86.2625 277.854C85.5533 271.723 89.9215 266.188 96.0482 265.45C102.175 264.741 107.706 269.112 108.443 275.242Z" stroke="#170486" stroke-width="0.48" stroke-miterlimit="10"/>
    <path d="M104.217 275.752C104.671 279.555 101.948 282.99 98.1468 283.415C94.346 283.87 90.9139 281.145 90.4884 277.342C90.0346 273.538 92.7575 270.104 96.5584 269.678C100.359 269.224 103.791 271.949 104.217 275.752Z" fill="#FF1700"/>
    <path d="M104.217 275.752C104.671 279.555 101.948 282.99 98.1468 283.415C94.346 283.87 90.9139 281.145 90.4884 277.342C90.0346 273.538 92.7575 270.104 96.5584 269.678C100.359 269.224 103.791 271.949 104.217 275.752Z" stroke="#170486" stroke-width="0.48" stroke-miterlimit="10"/>
    <path d="M246.579 121.809C199.579 121.809 161.513 159.926 161.513 206.927C161.513 253.928 199.607 292.046 246.579 292.046C293.55 292.046 331.644 253.928 331.644 206.927C331.644 159.926 293.55 121.809 246.579 121.809ZM246.579 283.985C204.117 283.985 169.569 249.416 169.569 206.927C169.569 164.439 204.117 129.869 246.579 129.869C289.04 129.869 323.588 164.439 323.588 206.927C323.588 249.416 289.04 283.985 246.579 283.985Z" fill="#FF1700"/>
    <path d="M246.579 121.809C199.579 121.809 161.513 159.926 161.513 206.927C161.513 253.928 199.607 292.046 246.579 292.046C293.55 292.046 331.644 253.928 331.644 206.927C331.644 159.926 293.55 121.809 246.579 121.809ZM246.579 283.985C204.117 283.985 169.569 249.416 169.569 206.927C169.569 164.439 204.117 129.869 246.579 129.869C289.04 129.869 323.588 164.439 323.588 206.927C323.588 249.416 289.04 283.985 246.579 283.985Z" stroke="#170486" stroke-width="0.48" stroke-miterlimit="10"/>
    <path d="M246.579 121.809C199.579 121.809 161.513 159.926 161.513 206.927C161.513 253.928 199.607 292.046 246.579 292.046C293.55 292.046 331.644 253.928 331.644 206.927C331.644 159.926 293.55 121.809 246.579 121.809ZM246.579 283.985C204.117 283.985 169.569 249.416 169.569 206.927C169.569 164.439 204.117 129.869 246.579 129.869C289.04 129.869 323.588 164.439 323.588 206.927C323.588 249.416 289.04 283.985 246.579 283.985Z" fill="#FF1700"/>
    <path d="M246.579 121.809C199.579 121.809 161.513 159.926 161.513 206.927C161.513 253.928 199.607 292.046 246.579 292.046C293.55 292.046 331.644 253.928 331.644 206.927C331.644 159.926 293.55 121.809 246.579 121.809ZM246.579 283.985C204.117 283.985 169.569 249.416 169.569 206.927C169.569 164.439 204.117 129.869 246.579 129.869C289.04 129.869 323.588 164.439 323.588 206.927C323.588 249.416 289.04 283.985 246.579 283.985Z" stroke="#170486" stroke-width="0.48" stroke-miterlimit="10"/>
    <path d="M229.333 7.28516L214.187 19.2625C214.187 19.2625 195.835 24.7403 179.355 15.9702" stroke="#170486" stroke-width="0.48" stroke-miterlimit="10"/>
    <path d="M225.872 4.67188L211.633 13.7826C211.633 13.7826 199.096 15.372 189.395 9.63879" stroke="#170486" stroke-width="0.48" stroke-miterlimit="10"/>
    <path d="M220.719 112.73L219.83 115.094L239.581 122.53L240.47 120.166L220.719 112.73Z" fill="#FF1700"/>
    <path d="M220.719 112.73L219.83 115.094L239.581 122.53L240.47 120.166L220.719 112.73Z" stroke="#170486" stroke-width="0.48" stroke-miterlimit="10"/>
    <path d="M239.374 127.198L267.625 127.623C271.142 127.68 274.036 124.87 274.092 121.351C274.149 117.831 271.341 114.936 267.824 114.88L239.573 114.454C236.055 114.397 233.162 117.207 233.106 120.726C233.049 124.246 235.857 127.141 239.374 127.198Z" fill="#FF1700"/>
    <path d="M239.374 127.198L267.625 127.623C271.142 127.68 274.036 124.87 274.092 121.351C274.149 117.831 271.341 114.936 267.824 114.88L239.573 114.454C236.055 114.397 233.162 117.207 233.106 120.726C233.049 124.246 235.857 127.141 239.374 127.198Z" stroke="#170486" stroke-width="0.48" stroke-miterlimit="10"/>
    <path d="M286.459 119.766C287.31 125.329 283.509 130.523 277.978 131.375C272.419 132.226 267.228 128.451 266.349 122.888C265.498 117.325 269.298 112.131 274.83 111.28C280.389 110.429 285.58 114.203 286.431 119.766" fill="#FF1700"/>
    <path d="M286.459 119.766C287.31 125.329 283.509 130.523 277.978 131.375C272.419 132.226 267.228 128.451 266.349 122.888C265.498 117.325 269.298 112.131 274.83 111.28C280.389 110.429 285.58 114.203 286.431 119.766H286.459Z" stroke="#170486" stroke-width="0.44" stroke-miterlimit="10"/>
    <path d="M282.629 120.363C283.168 123.797 280.814 127.033 277.382 127.544C273.95 128.083 270.716 125.727 270.177 122.293C269.638 118.859 271.993 115.623 275.425 115.112C278.857 114.573 282.09 116.929 282.601 120.363" fill="#FF1700"/>
    <path d="M282.629 120.363C283.168 123.797 280.814 127.033 277.382 127.544C273.95 128.083 270.716 125.727 270.177 122.293C269.638 118.859 271.993 115.623 275.425 115.112C278.857 114.573 282.09 116.929 282.601 120.363H282.629Z" stroke="#170486" stroke-width="0.44" stroke-miterlimit="10"/>
    <path d="M236.111 121.124C236.253 123.338 238.154 124.984 240.338 124.842C242.55 124.7 244.195 122.799 244.053 120.613C243.912 118.428 242.011 116.753 239.827 116.895C237.643 117.037 235.97 118.939 236.111 121.124Z" fill="#FF1700"/>
    <path d="M236.111 121.124C236.253 123.338 238.154 124.984 240.338 124.842C242.55 124.7 244.195 122.799 244.053 120.613C243.912 118.428 242.011 116.753 239.827 116.895C237.643 117.037 235.97 118.939 236.111 121.124Z" stroke="#170486" stroke-width="0.47" stroke-miterlimit="10"/>
    <path d="M183.864 85.3632L182.304 68.9582C182.304 68.9582 182.389 64.8144 186.814 66.2335L228.198 109.119C228.198 109.119 233.304 114.427 228.538 120.557C228.538 120.557 224.397 125.24 218.696 119.337L183.864 85.3632Z" fill="#FF1700"/>
    <path d="M183.864 85.3632L182.304 68.9582C182.304 68.9582 182.389 64.8144 186.814 66.2335L228.198 109.119C228.198 109.119 233.304 114.427 228.538 120.557C228.538 120.557 224.397 125.24 218.696 119.337L183.864 85.3632Z" stroke="#170486" stroke-width="0.48" stroke-miterlimit="10"/>
    <path d="M224.993 110.427C226.695 111.96 226.837 114.542 225.305 116.245C223.773 117.948 221.192 118.09 219.49 116.558C217.788 115.053 217.647 112.442 219.178 110.739C220.682 109.036 223.291 108.894 224.993 110.399" fill="#FF1700"/>
    <path d="M224.993 110.427C226.695 111.96 226.837 114.542 225.305 116.245C223.773 117.948 221.192 118.09 219.49 116.558C217.788 115.053 217.647 112.442 219.178 110.739C220.682 109.036 223.291 108.894 224.993 110.399V110.427Z" stroke="#170486" stroke-width="0.48" stroke-miterlimit="10"/>
    <path d="M1063.64 112.922C1063.64 112.922 1042.98 116.142 1033.6 140.022" stroke="#170486" stroke-width="0.54" stroke-miterlimit="10"/>
    <mask id="mask4_0_1" style="mask-type:luminance" maskUnits="userSpaceOnUse" x="1035" y="80" width="54" height="57">
        <path d="M1043.24 90.1405C1043.24 90.1405 1024.34 102.82 1045.52 119.02C1045.52 119.02 1069.32 134.22 1080.04 136.5C1090.76 138.78 1088.4 87.2605 1088.4 87.2605C1088.4 87.2605 1086.14 85.2005 1081.96 83.4405C1078.84 82.1205 1074.64 80.9805 1069.52 80.9805C1062.42 80.9805 1053.56 83.1605 1043.24 90.1205" fill="white"/>
    </mask>
    <g mask="url(#mask4_0_1)">
        <path d="M1025.73 71.5706L1016.17 137.582L1089.4 148.188L1098.96 82.1763L1025.73 71.5706Z" fill="url(#paint2_linear_0_1)"/>
    </g>
    <path d="M1088.4 87.2572C1088.4 87.2572 1086.14 85.1972 1081.96 83.4372C1074.52 80.3172 1061 78.1372 1043.24 90.1372C1043.24 90.1372 1024.34 102.817 1045.52 119.017C1045.52 119.017 1069.3 134.217 1080.04 136.497C1090.76 138.777 1088.4 87.2572 1088.4 87.2572Z" stroke="#170486" stroke-width="0.63" stroke-miterlimit="10"/>
    <mask id="mask5_0_1" style="mask-type:luminance" maskUnits="userSpaceOnUse" x="1055" y="84" width="50" height="53">
        <path d="M1068.08 86.7598C1051.9 94.8398 1052.66 113.02 1060.4 121.24C1068.14 129.46 1076.52 136.98 1081.3 136.54C1086.08 136.1 1093.08 133.8 1097.6 129.2C1102.12 124.62 1105.84 117.04 1103.72 108.6C1102.68 104.48 1102.14 103.18 1100.52 100.2C1098.9 97.1998 1095.68 93.5598 1095.68 93.5598C1095.68 93.5598 1088.6 84.3398 1077.7 84.3398C1074.74 84.3398 1071.52 85.0198 1068.06 86.7398" fill="white"/>
    </mask>
    <g mask="url(#mask5_0_1)">
        <path d="M1065.4 60.9971L1029.12 123.836L1092.37 160.356L1128.65 97.5171L1065.4 60.9971Z" fill="url(#paint3_linear_0_1)"/>
    </g>
    <path d="M1095.7 93.5808C1095.7 93.5808 1084.26 78.6808 1068.08 86.7608C1051.9 94.8408 1052.66 113.021 1060.4 121.241C1068.14 129.461 1076.52 136.981 1081.3 136.541C1086.08 136.101 1093.08 133.801 1097.6 129.201C1102.12 124.601 1105.84 117.041 1103.72 108.601C1102.68 104.481 1102.14 103.181 1100.52 100.201C1098.9 97.2008 1095.68 93.5608 1095.68 93.5608L1095.7 93.5808Z" stroke="#170486" stroke-width="0.63" stroke-miterlimit="10"/>
    <path d="M1083.56 84.1788C1083.56 84.1788 1069.12 78.4988 1057.56 90.7788C1046.46 102.559 1051.06 111.719 1053.22 116.419C1055.48 121.299 1060.96 126.799 1067.26 131.439" stroke="#170486" stroke-width="0.63" stroke-miterlimit="10"/>
    <path d="M935.84 247.041L933.16 244.881C928.9 241.461 928.22 235.241 931.64 231.001L968.72 184.761C972.14 180.501 978.36 179.821 982.6 183.241L985.28 185.401C989.54 188.821 990.22 195.041 986.8 199.281L949.72 245.521C946.3 249.781 940.08 250.461 935.84 247.041Z" fill="#FF1700"/>
    <path d="M935.84 247.041L933.16 244.881C928.9 241.461 928.22 235.241 931.64 231.001L968.72 184.761C972.14 180.501 978.36 179.821 982.6 183.241L985.28 185.401C989.54 188.821 990.22 195.041 986.8 199.281L949.72 245.521C946.3 249.781 940.08 250.461 935.84 247.041Z" stroke="#170486" stroke-width="0.54" stroke-miterlimit="10"/>
    <path d="M893.36 190.261L894.98 188.661C897.54 186.121 901.66 186.141 904.2 188.681L948.5 233.261C951.04 235.821 951.02 239.941 948.48 242.481L946.86 244.081C944.3 246.621 940.18 246.601 937.64 244.061L893.34 199.481C890.8 196.921 890.82 192.801 893.36 190.261Z" fill="#FF1700"/>
    <path d="M893.36 190.261L894.98 188.661C897.54 186.121 901.66 186.141 904.2 188.681L948.5 233.261C951.04 235.821 951.02 239.941 948.48 242.481L946.86 244.081C944.3 246.621 940.18 246.601 937.64 244.061L893.34 199.481C890.8 196.921 890.82 192.801 893.36 190.261Z" stroke="#170486" stroke-width="0.54" stroke-miterlimit="10"/>
    <path d="M887.54 199.421C884.44 195.641 885 190.061 888.78 186.981C892.56 183.881 898.14 184.441 901.22 188.221C904.32 192.001 903.76 197.581 899.98 200.661C896.2 203.761 890.62 203.201 887.54 199.421Z" fill="#FF1700"/>
    <path d="M887.54 199.421C884.44 195.641 885 190.061 888.78 186.981C892.56 183.881 898.14 184.441 901.22 188.221C904.32 192.001 903.76 197.581 899.98 200.661C896.2 203.761 890.62 203.201 887.54 199.421Z" stroke="#170486" stroke-width="0.54" stroke-miterlimit="10"/>
    <path d="M890.16 197.28C888.24 194.94 888.58 191.5 890.92 189.58C893.26 187.66 896.7 188 898.62 190.34C900.54 192.68 900.2 196.12 897.86 198.04C895.52 199.96 892.08 199.62 890.16 197.28Z" fill="#FF1700"/>
    <path d="M890.16 197.28C888.24 194.94 888.58 191.5 890.92 189.58C893.26 187.66 896.7 188 898.62 190.34C900.54 192.68 900.2 196.12 897.86 198.04C895.52 199.96 892.08 199.62 890.16 197.28Z" stroke="#170486" stroke-width="0.54" stroke-miterlimit="10"/>
    <path d="M998.087 117.334L980.222 124.035L980.932 125.926L998.796 119.226L998.087 117.334Z" fill="#FF1700"/>
    <path d="M998.087 117.334L980.222 124.035L980.932 125.926L998.796 119.226L998.087 117.334Z" stroke="#170486" stroke-width="0.54" stroke-miterlimit="10"/>
    <path d="M1028.28 137.901L1040.34 132.901C1040.34 132.901 1043.22 131.301 1040.58 128.741L995.2 115.681C995.2 115.681 989.6 114.061 987.08 119.701C987.08 119.701 985.34 124.341 991.58 126.141L1028.3 137.901H1028.28Z" fill="#FF1700"/>
    <path d="M1028.28 137.901L1040.34 132.901C1040.34 132.901 1043.22 131.301 1040.58 128.741L995.2 115.681C995.2 115.681 989.6 114.061 987.08 119.701C987.08 119.701 985.34 124.341 991.58 126.141L1028.3 137.901H1028.28Z" stroke="#170486" stroke-width="0.54" stroke-miterlimit="10"/>
    <path d="M993.72 124.259C991.96 123.839 990.88 122.099 991.28 120.339C991.7 118.579 993.46 117.499 995.2 117.919C996.96 118.339 998.04 120.079 997.62 121.839C997.2 123.599 995.46 124.679 993.7 124.259" fill="#FF1700"/>
    <path d="M993.72 124.259C991.96 123.839 990.88 122.099 991.28 120.339C991.7 118.579 993.46 117.499 995.2 117.919C996.96 118.339 998.04 120.079 997.62 121.839C997.2 123.599 995.46 124.679 993.7 124.259H993.72Z" stroke="#170486" stroke-width="0.54" stroke-miterlimit="10"/>
    <path d="M977.34 121.62L958.26 136C956.36 137.42 955.98 140.14 957.42 142.02L958.32 143.22C959.76 145.12 962.46 145.5 964.34 144.06L983.42 129.68C985.32 128.24 985.7 125.54 984.26 123.66L983.36 122.46C981.92 120.56 979.22 120.18 977.34 121.62Z" fill="#FF1700"/>
    <path d="M958.27 135.982L977.339 121.607C979.24 120.175 981.928 120.552 983.361 122.453L984.264 123.65C985.697 125.551 985.319 128.24 983.419 129.672L964.35 144.047C962.449 145.48 959.76 145.102 958.328 143.202L957.425 142.004C955.992 140.103 956.37 137.415 958.27 135.982Z" stroke="#170486" stroke-width="0.54" stroke-miterlimit="10"/>
    <path d="M950.92 149.6C947.68 146.56 947.52 141.46 950.58 138.22C953.64 134.98 958.74 134.82 961.98 137.88C965.22 140.92 965.38 146.02 962.32 149.26C959.28 152.5 954.18 152.66 950.94 149.6" fill="#FF1700"/>
    <path d="M950.92 149.6C947.68 146.56 947.52 141.46 950.58 138.22C953.64 134.98 958.74 134.82 961.98 137.88C965.22 140.92 965.38 146.02 962.32 149.26C959.28 152.5 954.18 152.66 950.94 149.6H950.92Z" stroke="#170486" stroke-width="0.54" stroke-miterlimit="10"/>
    <path d="M953.02 147.381C951.02 145.501 950.92 142.341 952.8 140.341C954.7 138.341 957.84 138.241 959.86 140.121C961.86 142.001 961.96 145.161 960.08 147.181C958.2 149.181 955.04 149.281 953.04 147.401" fill="#FF1700"/>
    <path d="M953.02 147.381C951.02 145.501 950.92 142.341 952.8 140.341C954.7 138.341 957.84 138.241 959.86 140.121C961.86 142.001 961.96 145.161 960.08 147.181C958.2 149.181 955.04 149.281 953.04 147.401L953.02 147.381Z" stroke="#170486" stroke-width="0.54" stroke-miterlimit="10"/>
    <path d="M981.74 124.28C980.58 122.98 978.58 122.86 977.28 124C975.98 125.16 975.86 127.16 977 128.46C978.16 129.76 980.16 129.88 981.46 128.74C982.76 127.58 982.88 125.58 981.74 124.28Z" fill="#FF1700"/>
    <path d="M981.74 124.28C980.58 122.98 978.58 122.86 977.28 124C975.98 125.16 975.86 127.16 977 128.46C978.16 129.76 980.16 129.88 981.46 128.74C982.76 127.58 982.88 125.58 981.74 124.28Z" stroke="#170486" stroke-width="0.52" stroke-miterlimit="10"/>
    <mask id="mask6_0_1" style="mask-type:luminance" maskUnits="userSpaceOnUse" x="960" y="119" width="115" height="111">
        <path d="M1011.32 124.061C970.94 149.261 950.6 189.541 965.88 214.041C970.48 221.401 977.76 226.501 986.8 229.341C983.6 203.441 1010.76 172.741 1051.68 157.901C1059.3 155.141 1066.9 153.121 1074.34 151.781C1072.96 149.321 1071.42 146.921 1069.66 144.621C1057.4 128.481 1038.6 120.001 1018.88 119.641C1016.34 121.021 1013.82 122.481 1011.32 124.041" fill="white"/>
    </mask>
    <g mask="url(#mask6_0_1)">
        <path d="M1061.62 82.0825L917.289 130.938L963.323 266.938L1107.66 218.083L1061.62 82.0825Z" fill="url(#paint4_linear_0_1)"/>
    </g>
    <path d="M1011.32 124.06C1013.82 122.5 1016.34 121.02 1018.88 119.66C1038.6 120 1057.4 128.5 1069.66 144.64C1071.4 146.94 1072.96 149.34 1074.34 151.8C1066.92 153.14 1059.3 155.16 1051.68 157.94C1010.76 172.78 983.6 203.48 986.8 229.38C977.76 226.54 970.46 221.44 965.86 214.08C950.58 189.58 970.92 149.28 1011.3 124.1L1011.32 124.06Z" stroke="#170486" stroke-width="0.54" stroke-miterlimit="10"/>
    <path d="M1055.3 156.818C1055.3 156.818 1035.04 132.878 1016.78 138.858C1016.78 138.858 949.8 185.538 977.28 225.278" stroke="#170486" stroke-width="0.54" stroke-miterlimit="10"/>
    <path d="M1060.02 168.157C1060.02 168.157 1041.2 145.897 1024.3 151.397C1024.3 151.397 963.22 193.357 986.98 229.297" stroke="#170486" stroke-width="0.54" stroke-miterlimit="10"/>
    <path d="M1033.18 234.182L1030.86 236.722C1027.2 240.762 1020.94 241.062 1016.9 237.382L973.04 197.502C969 193.842 968.7 187.582 972.38 183.542L974.7 181.002C978.36 176.962 984.62 176.662 988.66 180.342L1032.52 220.222C1036.56 223.882 1036.86 230.142 1033.18 234.182Z" fill="#FF1700"/>
    <path d="M1033.18 234.182L1030.86 236.722C1027.2 240.762 1020.94 241.062 1016.9 237.382L973.04 197.502C969 193.842 968.7 187.582 972.38 183.542L974.7 181.002C978.36 176.962 984.62 176.662 988.66 180.342L1032.52 220.222C1036.56 223.882 1036.86 230.142 1033.18 234.182Z" stroke="#170486" stroke-width="0.54" stroke-miterlimit="10"/>
    <path d="M1056.98 287.902L1054.96 288.942C1051.76 290.602 1047.82 289.342 1046.18 286.142L1017.36 230.302C1015.7 227.102 1016.96 223.162 1020.16 221.522L1022.18 220.482C1025.38 218.822 1029.32 220.082 1030.96 223.282L1059.78 279.122C1061.44 282.322 1060.18 286.262 1056.98 287.902Z" fill="#FF1700"/>
    <path d="M1056.98 287.902L1054.96 288.942C1051.76 290.602 1047.82 289.342 1046.18 286.142L1017.36 230.302C1015.7 227.102 1016.96 223.162 1020.16 221.522L1022.18 220.482C1025.38 218.822 1029.32 220.082 1030.96 223.282L1059.78 279.122C1061.44 282.322 1060.18 286.262 1056.98 287.902Z" stroke="#170486" stroke-width="0.54" stroke-miterlimit="10"/>
    <path d="M1063.56 273.879C1066.56 277.739 1065.84 283.299 1061.98 286.299C1058.12 289.299 1052.56 288.579 1049.58 284.719C1046.58 280.859 1047.28 275.299 1051.14 272.319C1055 269.319 1060.56 270.019 1063.56 273.879Z" fill="#FF1700"/>
    <path d="M1063.56 273.879C1066.56 277.739 1065.84 283.299 1061.98 286.299C1058.12 289.299 1052.56 288.579 1049.58 284.719C1046.58 280.859 1047.28 275.299 1051.14 272.319C1055 269.319 1060.56 270.019 1063.56 273.879Z" stroke="#170486" stroke-width="0.54" stroke-miterlimit="10"/>
    <path d="M1060.9 275.96C1062.76 278.36 1062.32 281.78 1059.92 283.64C1057.54 285.5 1054.1 285.06 1052.24 282.66C1050.38 280.26 1050.82 276.84 1053.22 274.98C1055.6 273.12 1059.04 273.56 1060.9 275.96Z" fill="#FF1700"/>
    <path d="M1060.9 275.96C1062.76 278.36 1062.32 281.78 1059.92 283.64C1057.54 285.5 1054.1 285.06 1052.24 282.66C1050.38 280.26 1050.82 276.84 1053.22 274.98C1055.6 273.12 1059.04 273.56 1060.9 275.96Z" stroke="#170486" stroke-width="0.54" stroke-miterlimit="10"/>
    <path d="M1082.61 173.437L1067.31 184.832L1068.5 186.436L1083.81 175.042L1082.61 173.437Z" fill="#FF1700"/>
    <path d="M1082.61 173.437L1067.31 184.832L1068.5 186.436L1083.81 175.042L1082.61 173.437Z" stroke="#170486" stroke-width="0.54" stroke-miterlimit="10"/>
    <path d="M1040.18 155.5L1041.3 142.5C1041.3 142.5 1041.96 139.28 1045.2 141.02L1071.34 180.36C1071.34 180.36 1074.56 185.22 1069.96 189.32C1069.96 189.32 1066.06 192.38 1062.48 186.98L1040.18 155.54V155.5Z" fill="#FF1700"/>
    <path d="M1040.18 155.5L1041.3 142.5C1041.3 142.5 1041.96 139.28 1045.2 141.02L1071.34 180.36C1071.34 180.36 1074.56 185.22 1069.96 189.32C1069.96 189.32 1066.06 192.38 1062.48 186.98L1040.18 155.54V155.5Z" stroke="#170486" stroke-width="0.54" stroke-miterlimit="10"/>
    <path d="M1063.62 184.342C1064.54 185.882 1066.54 186.402 1068.1 185.482C1069.66 184.562 1070.16 182.562 1069.24 181.002C1068.32 179.462 1066.32 178.942 1064.76 179.862C1063.2 180.782 1062.7 182.782 1063.62 184.342Z" fill="#FF1700"/>
    <path d="M1063.62 184.342C1064.54 185.882 1066.54 186.402 1068.1 185.482C1069.66 184.562 1070.16 182.562 1069.24 181.002C1068.32 179.462 1066.32 178.942 1064.76 179.862C1063.2 180.782 1062.7 182.782 1063.62 184.342Z" stroke="#170486" stroke-width="0.54" stroke-miterlimit="10"/>
    <path d="M1080.96 183.08L1100.56 169.42C1102.5 168.06 1102.98 165.38 1101.64 163.42L1100.78 162.2C1099.42 160.24 1096.74 159.78 1094.78 161.12L1075.18 174.78C1073.22 176.14 1072.74 178.82 1074.1 180.78L1074.96 182.02C1076.32 183.96 1079 184.44 1080.96 183.08Z" fill="#FF1700"/>
    <path d="M1080.96 183.08L1100.56 169.42C1102.5 168.06 1102.98 165.38 1101.64 163.42L1100.78 162.2C1099.42 160.24 1096.74 159.78 1094.78 161.12L1075.18 174.78C1073.22 176.14 1072.74 178.82 1074.1 180.78L1074.96 182.02C1076.32 183.96 1079 184.44 1080.96 183.08Z" stroke="#170486" stroke-width="0.54" stroke-miterlimit="10"/>
    <path d="M1108.4 156.083C1111.52 159.243 1111.48 164.363 1108.32 167.483C1105.16 170.603 1100.04 170.563 1096.92 167.403C1093.8 164.243 1093.84 159.123 1097 156.003C1100.16 152.883 1105.28 152.923 1108.4 156.083Z" fill="#FF1700"/>
    <path d="M1108.4 156.083C1111.52 159.243 1111.48 164.363 1108.32 167.483C1105.16 170.603 1100.04 170.563 1096.92 167.403C1093.8 164.243 1093.84 159.123 1097 156.003C1100.16 152.883 1105.28 152.923 1108.4 156.083Z" stroke="#170486" stroke-width="0.54" stroke-miterlimit="10"/>
    <path d="M1106.22 158.24C1108.16 160.2 1108.14 163.36 1106.16 165.3C1104.2 167.24 1101.04 167.22 1099.1 165.26C1097.16 163.3 1097.18 160.14 1099.14 158.2C1101.1 156.26 1104.26 156.28 1106.2 158.24" fill="#FF1700"/>
    <path d="M1106.22 158.24C1108.16 160.2 1108.14 163.36 1106.16 165.3C1104.2 167.24 1101.04 167.22 1099.1 165.26C1097.16 163.3 1097.18 160.14 1099.14 158.2C1101.1 156.26 1104.26 156.28 1106.2 158.24H1106.22Z" stroke="#170486" stroke-width="0.54" stroke-miterlimit="10"/>
    <path d="M1076.66 180.241C1077.76 181.581 1079.76 181.781 1081.1 180.681C1082.44 179.581 1082.64 177.581 1081.54 176.241C1080.44 174.901 1078.44 174.701 1077.1 175.801C1075.74 176.901 1075.56 178.901 1076.66 180.241Z" fill="#FF1700"/>
    <path d="M1076.66 180.241C1077.76 181.581 1079.76 181.781 1081.1 180.681C1082.44 179.581 1082.64 177.581 1081.54 176.241C1080.44 174.901 1078.44 174.701 1077.1 175.801C1075.74 176.901 1075.56 178.901 1076.66 180.241Z" stroke="#170486" stroke-width="0.54" stroke-miterlimit="10"/>
    <path d="M1090.5 276.378C1078.54 280.698 1065.34 274.498 1061.04 262.538C1058.3 254.938 1059.8 246.858 1064.32 240.858C1066.92 237.418 1070.52 234.658 1074.88 233.078C1086.84 228.758 1100.02 234.958 1104.34 246.918C1105.3 249.618 1105.74 252.358 1105.7 255.058C1105.6 262.038 1102.3 268.658 1096.76 272.938C1094.92 274.358 1092.82 275.538 1090.5 276.378Z" fill="#FF1700"/>
    <path d="M1090.5 276.378C1078.54 280.698 1065.34 274.498 1061.04 262.538C1058.3 254.938 1059.8 246.858 1064.32 240.858C1066.92 237.418 1070.52 234.658 1074.88 233.078C1086.84 228.758 1100.02 234.958 1104.34 246.918C1105.3 249.618 1105.74 252.358 1105.7 255.058C1105.6 262.038 1102.3 268.658 1096.76 272.938C1094.92 274.358 1092.82 275.538 1090.5 276.378Z" stroke="#170486" stroke-width="0.54" stroke-miterlimit="10"/>
    <path d="M1070 235.899L1074.92 235.219L1075.6 240.119L1068.24 247.219L1063.66 245.979L1064.82 240.219L1068.14 236.879L1070 235.899Z" fill="#170486"/>
    <path d="M1069.76 256L1078.98 258.5L1080.72 267.92L1073.6 270.58L1066.48 263.66L1069.76 256Z" fill="#170486"/>
    <path d="M1084.08 242.503L1091.88 239.062L1098.72 246.283L1095.4 254.062L1086.3 251.963L1084.08 242.503Z" fill="#170486"/>
    <path d="M1090.1 269.958L1097.34 263.258L1101.74 264.158L1099.96 269.958L1097.12 272.618L1090.92 274.498L1090.1 269.958Z" fill="#170486"/>
    <path d="M1080.14 231.84L1084.2 232.48L1090.78 234.86L1094.1 235L1088.98 232.3L1083.26 231.98L1080.14 231.84Z" fill="#170486"/>
    <path d="M1103.64 245.18L1103.4 248.2C1103.4 248.2 1105.9 256.9 1105.46 258.06L1105.7 253.72L1105.06 249.32L1103.64 245.2V245.18Z" fill="#170486"/>
    <path d="M1071.88 275.038L1074.6 274.898C1074.6 274.898 1080.54 277.798 1081.4 277.698L1076.02 276.958L1071.88 275.038Z" fill="#170486"/>
    <path d="M1068.44 245.18C1068.44 245.18 1067.22 252.7 1070.42 257.58L1078.52 259.12L1088.08 250.16L1094.78 252.14L1097.68 264.1L1092.44 270.46L1091.5 270.22C1091.5 270.22 1086.74 270.56 1078.82 267.5C1070.9 264.44 1070.54 263.36 1070.54 263.36L1067.66 263.72L1060.96 260.9" stroke="#170486" stroke-width="0.54" stroke-miterlimit="10"/>
    <path d="M1084.28 231.961C1084.28 231.961 1078.44 231.861 1073.6 236.061C1068.76 240.261 1072.68 239.061 1072.68 239.061L1075.6 240.121C1075.6 240.121 1083.54 241.481 1086.44 243.401C1089.34 245.321 1091.78 240.221 1091.78 240.221C1091.78 240.221 1091.56 234.181 1090.08 233.441" stroke="#170486" stroke-width="0.54" stroke-miterlimit="10"/>
    <path d="M1064.3 245.18C1064.3 245.18 1061.12 249.1 1059.74 253.26" stroke="#170486" stroke-width="0.54" stroke-miterlimit="10"/>
    <path d="M1074.7 275.66C1074.7 275.66 1072.66 270.28 1073.6 267.18" stroke="#170486" stroke-width="0.54" stroke-miterlimit="10"/>
    <path d="M1091.78 273.32C1091.78 273.32 1089.3 276.98 1083.9 277.76" stroke="#170486" stroke-width="0.54" stroke-miterlimit="10"/>
    <path d="M1097.2 246.562C1097.2 246.562 1099.12 246.082 1104.34 248.222" stroke="#170486" stroke-width="0.54" stroke-miterlimit="10"/>
    <path d="M1105.76 254.883C1105.76 254.883 1105.76 260.863 1100.3 265.163" stroke="#170486" stroke-width="0.58" stroke-miterlimit="10"/>
    <path d="M1059.72 256.32L1062.18 261.6C1062.18 261.6 1063.14 267.56 1063.52 267.9C1063.88 268.24 1060.36 261.48 1060.36 261.48L1059.74 256.32H1059.72Z" fill="#170486"/>
    <path d="M1097.16 95.3203C1097.16 95.3203 1105.56 117.42 1067.12 127.96" stroke="#170486" stroke-width="0.63" stroke-miterlimit="10"/>
    <path d="M1071.38 102.221C1067.02 107.281 1061.6 109.721 1059.24 107.701C1056.88 105.661 1058.5 99.9206 1062.84 94.8806C1067.18 89.8206 1072.62 87.3806 1074.98 89.4006C1077.34 91.4206 1075.72 97.1806 1071.38 102.221Z" stroke="#170486" stroke-width="0.63" stroke-miterlimit="10"/>
    <path d="M1094.3 123.682C1089.58 128.382 1082.56 128.962 1078.62 125.002C1074.68 121.042 1075.3 114.022 1080.02 109.322C1084.74 104.622 1091.76 104.042 1095.7 108.002C1099.64 111.962 1099.02 118.982 1094.3 123.682Z" fill="#FF1700"/>
    <path d="M1094.3 123.682C1089.58 128.382 1082.56 128.962 1078.62 125.002C1074.68 121.042 1075.3 114.022 1080.02 109.322C1084.74 104.622 1091.76 104.042 1095.7 108.002C1099.64 111.962 1099.02 118.982 1094.3 123.682Z" stroke="#170486" stroke-width="0.54" stroke-miterlimit="10"/>
    <path d="M1090.22 122.299C1087.38 125.119 1083.26 125.559 1081.02 123.299C1078.78 121.039 1079.24 116.919 1082.08 114.099C1084.92 111.279 1089.04 110.839 1091.28 113.099C1093.52 115.359 1093.06 119.479 1090.24 122.299" fill="#FF1700"/>
    <path d="M1090.22 122.299C1087.38 125.119 1083.26 125.559 1081.02 123.299C1078.78 121.039 1079.24 116.919 1082.08 114.099C1084.92 111.279 1089.04 110.839 1091.28 113.099C1093.52 115.359 1093.06 119.479 1090.24 122.299H1090.22Z" stroke="#170486" stroke-width="0.54" stroke-miterlimit="10"/>
    <path d="M1088.4 123.617C1086.8 125.217 1084.2 125.217 1082.6 123.617C1081 122.017 1081.02 119.417 1082.6 117.817C1084.2 116.217 1086.8 116.217 1088.4 117.817C1090 119.417 1090 122.017 1088.4 123.617Z" fill="#170486"/>
    <defs>
        <linearGradient id="paint0_linear_0_1" x1="215.397" y1="-2.50944" x2="204.599" y2="39.6087" gradientUnits="userSpaceOnUse">
            <stop stop-color="#170486"/>
            <stop offset="0.01" stop-color="#170486"/>
            <stop offset="1" stop-color="#1598FF"/>
        </linearGradient>
        <linearGradient id="paint1_linear_0_1" x1="131.915" y1="155.121" x2="101.436" y2="25.0532" gradientUnits="userSpaceOnUse">
            <stop stop-color="#170486"/>
            <stop offset="0.04" stop-color="#170486"/>
            <stop offset="0.4" stop-color="#1568D7"/>
            <stop offset="0.58" stop-color="#1598FF"/>
            <stop offset="1" stop-color="#1598FF"/>
        </linearGradient>
        <linearGradient id="paint2_linear_0_1" x1="1032.29" y1="104.918" x2="1085.91" y2="112.683" gradientUnits="userSpaceOnUse">
            <stop stop-color="#170486"/>
            <stop offset="0.01" stop-color="#170486"/>
            <stop offset="1" stop-color="#1598FF"/>
        </linearGradient>
        <linearGradient id="paint3_linear_0_1" x1="1076.12" y1="124.627" x2="1099.79" y2="83.6292" gradientUnits="userSpaceOnUse">
            <stop stop-color="#1598FF"/>
            <stop offset="0.99" stop-color="#170486"/>
            <stop offset="1" stop-color="#170486"/>
        </linearGradient>
        <linearGradient id="paint4_linear_0_1" x1="999.461" y1="145.232" x2="1015.1" y2="191.437" gradientUnits="userSpaceOnUse">
            <stop stop-color="#1598FF"/>
            <stop offset="0.99" stop-color="#170486"/>
            <stop offset="1" stop-color="#170486"/>
        </linearGradient>
    </defs>
</svg>
