<svg width="558" height="236" viewBox="0 0 558 236" fill="none" xmlns="http://www.w3.org/2000/svg">
    <rect y="232" width="166" height="4" fill="#FF1700"/>
    <path d="M383.086 83.5211C383.086 83.5211 359.641 81.6311 343.148 105.324" stroke="#170486" stroke-width="0.54" stroke-miterlimit="10"/>
    <path d="M218.363 187.2L216.09 184.072C212.468 179.122 213.57 172.17 218.52 168.547L272.408 129.285C277.38 125.662 284.31 126.765 287.933 131.715L290.205 134.842C293.828 139.792 292.725 146.745 287.775 150.367L233.888 189.63C228.938 193.252 221.985 192.15 218.363 187.2Z" fill="#FF1700"/>
    <path d="M218.363 187.2L216.09 184.072C212.468 179.122 213.57 172.17 218.52 168.547L272.408 129.285C277.38 125.662 284.31 126.765 287.933 131.715L290.205 134.842C293.828 139.792 292.725 146.745 287.775 150.367L233.888 189.63C228.938 193.252 221.985 192.15 218.363 187.2Z" stroke="#170486" stroke-width="0.54" stroke-miterlimit="10"/>
    <path d="M161.684 226.081L160.244 223.966C157.949 220.636 158.782 216.069 162.134 213.774L220.387 173.701C223.717 171.406 228.284 172.239 230.579 175.591L232.019 177.706C234.314 181.036 233.482 185.604 230.129 187.899L171.877 227.971C168.547 230.266 163.979 229.434 161.684 226.081Z" fill="#FF1700"/>
    <path d="M161.684 226.081L160.244 223.966C157.949 220.636 158.782 216.069 162.134 213.774L220.387 173.701C223.717 171.406 228.284 172.239 230.579 175.591L232.019 177.706C234.314 181.036 233.482 185.604 230.129 187.899L171.877 227.971C168.547 230.266 163.979 229.434 161.684 226.081Z" stroke="#170486" stroke-width="0.54" stroke-miterlimit="10"/>
    <path d="M170.64 234.36C165.825 237.037 159.773 235.282 157.118 230.49C154.463 225.675 156.195 219.622 160.988 216.967C165.78 214.312 171.855 216.045 174.51 220.837C177.165 225.652 175.433 231.705 170.64 234.36Z" fill="#FF1700"/>
    <path d="M170.64 234.36C165.825 237.037 159.773 235.282 157.118 230.49C154.463 225.675 156.195 219.622 160.988 216.967C165.78 214.312 171.855 216.045 174.51 220.837C177.165 225.652 175.433 231.705 170.64 234.36Z" stroke="#170486" stroke-width="0.54" stroke-miterlimit="10"/>
    <path d="M168.795 231.052C165.825 232.694 162.067 231.637 160.425 228.644C158.782 225.674 159.84 221.917 162.832 220.274C165.802 218.632 169.56 219.689 171.202 222.682C172.845 225.652 171.787 229.409 168.795 231.052Z" fill="#FF1700"/>
    <path d="M168.795 231.052C165.825 232.694 162.067 231.637 160.425 228.644C158.782 225.674 159.84 221.917 162.832 220.274C165.802 218.632 169.56 219.689 171.202 222.682C172.845 225.652 171.787 229.409 168.795 231.052Z" stroke="#170486" stroke-width="0.54" stroke-miterlimit="10"/>
    <path d="M311.167 63.609L289.826 65.916L290.068 68.153L311.409 65.846L311.167 63.609Z" fill="#FF1700"/>
    <path d="M311.167 63.609L289.826 65.916L290.068 68.153L311.409 65.846L311.167 63.609Z" stroke="#170486" stroke-width="0.54" stroke-miterlimit="10"/>
    <path d="M328.996 98.9555L343.621 100.351C343.621 100.351 347.311 100.283 346.051 96.323L307.823 59.423C307.823 59.423 303.098 54.878 297.653 59.1305C297.653 59.1305 293.468 62.8205 298.733 67.883L329.018 98.9105L328.996 98.9555Z" fill="#FF1700"/>
    <path d="M328.996 98.9555L343.621 100.351C343.621 100.351 347.311 100.283 346.051 96.323L307.823 59.423C307.823 59.423 303.098 54.878 297.653 59.1305C297.653 59.1305 293.468 62.8205 298.733 67.883L329.018 98.9105L328.996 98.9555Z" stroke="#170486" stroke-width="0.54" stroke-miterlimit="10"/>
    <path d="M301.815 67.1837C300.285 65.8562 300.128 63.5387 301.478 62.0087C302.805 60.4787 305.123 60.3212 306.653 61.6712C308.183 62.9987 308.34 65.3162 306.99 66.8462C305.663 68.3762 303.345 68.5337 301.815 67.1837Z" fill="#FF1700"/>
    <path d="M301.815 67.1837C300.285 65.8562 300.128 63.5387 301.478 62.0087C302.805 60.4787 305.123 60.3212 306.653 61.6712C308.183 62.9987 308.34 65.3162 306.99 66.8462C305.663 68.3762 303.345 68.5337 301.815 67.1837Z" stroke="#170486" stroke-width="0.54" stroke-miterlimit="10"/>
    <path d="M287.371 62.5038L262.553 72.8313C260.078 73.8663 258.908 76.7013 259.943 79.1763L260.596 80.7288C261.631 83.2038 264.466 84.3738 266.918 83.3388L291.713 73.0113C294.188 71.9763 295.358 69.1413 294.323 66.6888L293.671 65.1363C292.636 62.6613 289.801 61.4913 287.348 62.5263" fill="#FF1700"/>
    <path d="M287.371 62.5038L262.553 72.8313C260.078 73.8663 258.908 76.7013 259.943 79.1763L260.596 80.7288C261.631 83.2038 264.466 84.3738 266.918 83.3388L291.713 73.0113C294.188 71.9763 295.358 69.1413 294.323 66.6888L293.671 65.1363C292.636 62.6613 289.801 61.4913 287.348 62.5263L287.371 62.5038Z" stroke="#170486" stroke-width="0.54" stroke-miterlimit="10"/>
    <path d="M250.762 85.6134C248.084 81.3834 249.344 75.7809 253.574 73.1034C257.804 70.4259 263.407 71.6859 266.084 75.9159C268.762 80.1459 267.502 85.7484 263.272 88.4259C259.042 91.1034 253.439 89.8434 250.762 85.6134Z" fill="#FF1700"/>
    <path d="M250.762 85.6134C248.084 81.3834 249.344 75.7809 253.574 73.1034C257.804 70.4259 263.407 71.6859 266.084 75.9159C268.762 80.1459 267.502 85.7484 263.272 88.4259C259.042 91.1034 253.439 89.8434 250.762 85.6134Z" stroke="#170486" stroke-width="0.49" stroke-miterlimit="10"/>
    <path d="M253.665 83.7675C252 81.1575 252.788 77.6925 255.398 76.0275C258.008 74.3625 261.473 75.15 263.138 77.76C264.803 80.37 264.015 83.835 261.405 85.5C258.795 87.165 255.33 86.3775 253.665 83.7675Z" fill="#FF1700"/>
    <path d="M253.665 83.7675C252 81.1575 252.788 77.6925 255.398 76.0275C258.008 74.3625 261.473 75.15 263.138 77.76C264.803 80.37 264.015 83.835 261.405 85.5C258.795 87.165 255.33 86.3775 253.665 83.7675Z" stroke="#170486" stroke-width="0.49" stroke-miterlimit="10"/>
    <path d="M291.42 66.6449C290.52 64.8899 288.382 64.2149 286.627 65.0924C284.872 65.9924 284.197 68.1299 285.097 69.8849C285.997 71.6399 288.135 72.3149 289.89 71.4374C291.645 70.5374 292.32 68.3999 291.442 66.6449" fill="#FF1700"/>
    <path d="M291.42 66.6449C290.52 64.8899 288.382 64.2149 286.627 65.0924C284.872 65.9924 284.197 68.1299 285.097 69.8849C285.997 71.6399 288.135 72.3149 289.89 71.4374C291.645 70.5374 292.32 68.3999 291.442 66.6449H291.42Z" stroke="#170486" stroke-width="0.52" stroke-miterlimit="10"/>
    <mask id="mask0_2231_9379" style="mask-type:luminance" maskUnits="userSpaceOnUse" x="241" y="77" width="137" height="113">
        <path d="M316.216 80.461C265.456 97.471 232.651 136.239 242.978 167.041C246.083 176.289 252.721 183.781 261.878 189.271C265.141 160.089 302.873 133.606 351.541 128.049C360.608 127.014 369.451 126.789 377.933 127.261C377.078 124.201 375.998 121.186 374.693 118.216C365.491 97.3585 347.131 83.1385 325.643 77.6035C322.516 78.436 319.366 79.381 316.216 80.4385" fill="white"/>
    </mask>
    <g mask="url(#mask0_2231_9379)">
        <path d="M376.709 64.3193L222.451 78.5479L233.888 202.537L388.145 188.308L376.709 64.3193Z" fill="url(#paint0_linear_2231_9379)"/>
    </g>
    <path d="M316.215 80.46C319.365 79.4025 322.515 78.4575 325.642 77.625C347.13 83.16 365.49 97.3575 374.692 118.215C375.997 121.185 377.077 124.223 377.932 127.26C369.45 126.788 360.607 127.012 351.54 128.047C302.872 133.582 265.14 160.065 261.877 189.248C252.72 183.758 246.082 176.287 242.977 167.017C232.65 136.215 265.432 97.4475 316.215 80.4375V80.46Z" stroke="#170486" stroke-width="0.54" stroke-miterlimit="10"/>
    <path d="M355.793 127.8C355.793 127.8 339.886 96.2999 318.331 98.0774C318.331 98.0774 232.853 131.647 252.518 182.34" stroke="#170486" stroke-width="0.54" stroke-miterlimit="10"/>
    <path d="M357.953 141.435C357.953 141.435 343.193 112.163 323.235 113.76C323.235 113.76 245.43 143.708 262.035 189.248" stroke="#170486" stroke-width="0.54" stroke-miterlimit="10"/>
    <path d="M329.851 191.317L327.466 194.377C323.708 199.237 316.733 200.114 311.873 196.357L259.156 155.519C254.296 151.762 253.418 144.787 257.176 139.927L259.538 136.867C263.296 132.007 270.271 131.129 275.131 134.887L327.848 175.724C332.708 179.482 333.586 186.457 329.828 191.317" fill="#FF1700"/>
    <path d="M329.851 191.317L327.466 194.377C323.708 199.237 316.733 200.114 311.873 196.357L259.156 155.519C254.296 151.762 253.418 144.787 257.176 139.927L259.538 136.867C263.296 132.007 270.271 131.129 275.131 134.887L327.848 175.724C332.708 179.482 333.586 186.457 329.828 191.317H329.851Z" stroke="#170486" stroke-width="0.54" stroke-miterlimit="10"/>
    <path d="M246.78 211.231L245.97 208.801C244.688 204.954 246.758 200.791 250.583 199.509L317.61 177.054C321.458 175.771 325.62 177.841 326.903 181.666L327.713 184.096C328.995 187.944 326.925 192.084 323.1 193.389L256.073 215.866C252.225 217.149 248.085 215.079 246.78 211.231Z" fill="#FF1700"/>
    <path d="M250.613 199.487L317.647 177.031C321.487 175.745 325.646 177.816 326.932 181.657L327.747 184.089C329.033 187.929 326.962 192.087 323.122 193.374L256.088 215.829C252.248 217.115 248.089 215.044 246.803 211.204L245.988 208.772C244.702 204.931 246.773 200.773 250.613 199.487Z" stroke="#170486" stroke-width="0.54" stroke-miterlimit="10"/>
    <path d="M261.224 220.95C256.409 223.628 250.357 221.873 247.702 217.08C245.047 212.265 246.779 206.213 251.572 203.558C256.364 200.903 262.439 202.635 265.094 207.428C267.749 212.243 266.017 218.295 261.224 220.95Z" fill="#FF1700"/>
    <path d="M261.224 220.95C256.409 223.628 250.357 221.873 247.702 217.08C245.047 212.265 246.779 206.213 251.572 203.558C256.364 200.903 262.439 202.635 265.094 207.428C267.749 212.243 266.017 218.295 261.224 220.95Z" stroke="#170486" stroke-width="0.54" stroke-miterlimit="10"/>
    <path d="M259.381 217.643C256.411 219.285 252.653 218.228 251.011 215.235C249.368 212.265 250.426 208.508 253.418 206.865C256.388 205.223 260.146 206.28 261.788 209.273C263.431 212.243 262.373 216 259.381 217.643Z" fill="#FF1700"/>
    <path d="M259.381 217.643C256.411 219.285 252.653 218.228 251.011 215.235C249.368 212.265 250.426 208.508 253.418 206.865C256.388 205.223 260.146 206.28 261.788 209.273C263.431 212.243 262.373 216 259.381 217.643Z" stroke="#170486" stroke-width="0.54" stroke-miterlimit="10"/>
    <path d="M385.791 138.001L368.447 150.648L369.773 152.466L387.116 139.819L385.791 138.001Z" fill="#FF1700"/>
    <path d="M385.791 138.001L368.447 150.648L369.773 152.466L387.116 139.819L385.791 138.001Z" stroke="#170486" stroke-width="0.54" stroke-miterlimit="10"/>
    <path d="M338.242 117.36L339.637 102.735C339.637 102.735 340.402 99.1127 344.047 101.115L373.005 145.665C373.005 145.665 376.582 151.155 371.362 155.723C371.362 155.723 366.952 159.12 362.97 153L338.242 117.36Z" fill="#FF1700"/>
    <path d="M338.242 117.36L339.637 102.735C339.637 102.735 340.402 99.1127 344.047 101.115L373.005 145.665C373.005 145.665 376.582 151.155 371.362 155.723C371.362 155.723 366.952 159.12 362.97 153L338.242 117.36Z" stroke="#170486" stroke-width="0.54" stroke-miterlimit="10"/>
    <path d="M364.275 150.076C365.288 151.831 367.538 152.416 369.293 151.403C371.048 150.391 371.633 148.141 370.62 146.386C369.608 144.631 367.358 144.046 365.603 145.058C363.848 146.071 363.263 148.321 364.275 150.076Z" fill="#FF1700"/>
    <path d="M364.275 150.076C365.288 151.831 367.538 152.416 369.293 151.403C371.048 150.391 371.633 148.141 370.62 146.386C369.608 144.631 367.358 144.046 365.603 145.058C363.848 146.071 363.263 148.321 364.275 150.076Z" stroke="#170486" stroke-width="0.54" stroke-miterlimit="10"/>
    <mask id="mask1_2231_9379" style="mask-type:luminance" maskUnits="userSpaceOnUse" x="333" y="62" width="80" height="62">
        <path d="M344.43 69.3443C340.492 70.8968 336.735 72.6743 333.225 74.6093C353.565 76.3418 371.677 88.3343 379.215 107.392C381.06 112.049 382.117 116.842 382.522 121.634C384.907 122.062 387.18 122.624 389.295 123.344C407.295 110.699 416.767 93.5993 411.435 80.0768C407.002 68.8943 393.502 62.8418 376.627 62.8418C366.682 62.8418 355.567 64.9343 344.452 69.3443" fill="white"/>
    </mask>
    <g mask="url(#mask1_2231_9379)">
        <path d="M339.691 40.4874L317.041 118.654L410.292 145.676L432.943 67.5088L339.691 40.4874Z" fill="url(#paint1_linear_2231_9379)"/>
    </g>
    <path d="M382.522 121.634C382.117 116.842 381.06 112.049 379.215 107.392C371.677 88.3343 353.565 76.3418 333.225 74.6093C336.735 72.6743 340.492 70.8968 344.43 69.3443C374.4 57.4868 404.392 62.3018 411.435 80.0768C416.767 93.5993 407.295 110.699 389.295 123.344C387.157 122.624 384.907 122.062 382.522 121.634Z" stroke="#170486" stroke-width="0.54" stroke-miterlimit="10"/>
    <path d="M380.79 112.567C390.375 104.804 392.625 91.6641 385.785 83.2491C378.967 74.8341 365.67 74.3166 356.062 82.0791" stroke="#170486" stroke-width="0.54" stroke-miterlimit="10"/>
    <path d="M400.748 100.17C400.658 103.838 397.598 106.74 393.908 106.65C390.24 106.56 387.338 103.5 387.428 99.8326C387.518 96.1651 390.578 93.2626 394.245 93.3526C397.913 93.4426 400.815 96.5026 400.725 100.17" fill="#FF1700"/>
    <path d="M400.748 100.17C400.658 103.838 397.598 106.74 393.908 106.65C390.24 106.56 387.338 103.5 387.428 99.8326C387.518 96.1651 390.578 93.2626 394.245 93.3526C397.913 93.4426 400.815 96.5026 400.725 100.17H400.748Z" stroke="#170486" stroke-width="0.54" stroke-miterlimit="10"/>
    <path d="M397.666 100.102C397.621 102.082 395.978 103.635 393.998 103.567C392.018 103.522 390.466 101.88 390.533 99.9222C390.578 97.9422 392.221 96.3897 394.201 96.4572C396.158 96.5022 397.733 98.1447 397.666 100.125" fill="#170486"/>
    <mask id="mask2_2231_9379" style="mask-type:luminance" maskUnits="userSpaceOnUse" x="394" y="83" width="13" height="14">
        <path d="M394.74 89.8657L401.265 96.0082L406.778 89.1682L398.79 83.4082L394.74 89.8657Z" fill="white"/>
    </mask>
    <g mask="url(#mask2_2231_9379)">
        <path d="M398.633 87.6836C398.633 87.6836 404.595 88.7186 405.428 95.0411" stroke="#170486" stroke-width="0.49" stroke-linecap="round" stroke-linejoin="round"/>
    </g>
    <path d="M383.805 148.837L406.013 133.694C408.218 132.187 408.803 129.172 407.295 126.967L406.35 125.572C404.843 123.367 401.828 122.782 399.623 124.289L377.415 139.432C375.21 140.939 374.648 143.954 376.133 146.159L377.078 147.554C378.585 149.759 381.6 150.344 383.805 148.837Z" fill="#FF1700"/>
    <path d="M377.401 139.447L399.597 124.311C401.809 122.803 404.81 123.37 406.319 125.583L407.27 126.977C408.778 129.189 408.21 132.19 405.998 133.699L383.802 148.834C381.59 150.343 378.589 149.775 377.08 147.563L376.13 146.169C374.621 143.956 375.189 140.955 377.401 139.447Z" stroke="#170486" stroke-width="0.54" stroke-miterlimit="10"/>
    <path d="M414.968 118.801C418.455 122.401 418.343 128.139 414.743 131.626C411.143 135.114 405.405 135.001 401.918 131.401C398.43 127.801 398.543 122.064 402.143 118.576C405.743 115.089 411.48 115.201 414.968 118.801Z" fill="#FF1700"/>
    <path d="M414.968 118.801C418.455 122.401 418.343 128.139 414.743 131.626C411.143 135.114 405.405 135.001 401.918 131.401C398.43 127.801 398.543 122.064 402.143 118.576C405.743 115.089 411.48 115.201 414.968 118.801Z" stroke="#170486" stroke-width="0.49" stroke-miterlimit="10"/>
    <path d="M412.492 121.185C414.652 123.413 414.585 126.968 412.357 129.128C410.13 131.288 406.575 131.22 404.415 128.993C402.255 126.765 402.322 123.21 404.55 121.05C406.777 118.89 410.332 118.958 412.492 121.185Z" fill="#FF1700"/>
    <path d="M412.492 121.185C414.652 123.413 414.585 126.968 412.357 129.128C410.13 131.288 406.575 131.22 404.415 128.993C402.255 126.765 402.322 123.21 404.55 121.05C406.777 118.89 410.332 118.958 412.492 121.185Z" stroke="#170486" stroke-width="0.49" stroke-miterlimit="10"/>
    <path d="M378.99 145.62C380.227 147.15 382.455 147.397 383.985 146.16C385.515 144.922 385.762 142.695 384.525 141.165C383.287 139.635 381.06 139.387 379.53 140.625C378 141.862 377.752 144.09 378.99 145.62Z" fill="#FF1700"/>
    <path d="M378.99 145.62C380.227 147.15 382.455 147.397 383.985 146.16C385.515 144.922 385.762 142.695 384.525 141.165C383.287 139.635 381.06 139.387 379.53 140.625C378 141.862 377.752 144.09 378.99 145.62Z" stroke="#170486" stroke-width="0.52" stroke-miterlimit="10"/>
    <mask id="mask3_2231_9379" style="mask-type:luminance" maskUnits="userSpaceOnUse" x="387" y="111" width="12" height="13">
        <path d="M387.338 114.727L391.86 123.502L398.408 119.564L395.37 111.127L387.338 114.727Z" fill="white"/>
    </mask>
    <g mask="url(#mask3_2231_9379)">
        <path d="M393.953 119.744C393.953 119.744 389.093 116.122 391.231 110.114" stroke="#170486" stroke-width="0.49" stroke-linecap="round" stroke-linejoin="round"/>
    </g>
    <defs>
        <linearGradient id="paint0_linear_2231_9379" x1="298.289" y1="104.25" x2="303.329" y2="158.896" gradientUnits="userSpaceOnUse">
            <stop stop-color="#1598FF"/>
            <stop offset="0.99" stop-color="#170486"/>
            <stop offset="1" stop-color="#170486"/>
        </linearGradient>
        <linearGradient id="paint1_linear_2231_9379" x1="385.051" y1="60.1202" x2="372.59" y2="103.126" gradientUnits="userSpaceOnUse">
            <stop stop-color="#170486"/>
            <stop offset="0.01" stop-color="#170486"/>
            <stop offset="1" stop-color="#1598FF"/>
        </linearGradient>
    </defs>
</svg>
