<svg width="300" height="198" viewBox="0 0 300 198" fill="none" xmlns="http://www.w3.org/2000/svg">
    <rect x="168" y="195" width="620" height="2" fill="#FF1700"/>
    <path d="M139.627 21.793C139.627 21.793 122.459 26.5478 116.845 47.7147" stroke="#170486" stroke-width="0.48" stroke-miterlimit="10"/>
    <mask id="mask0_0_1" style="mask-type:luminance" maskUnits="userSpaceOnUse" x="114" y="1" width="49" height="42">
        <path d="M114.738 16.9402C114.738 16.9402 130.68 17.5537 148.154 38.1453C148.537 38.6055 148.997 38.9889 149.4 39.4107C151.546 41.6923 154.688 42.6701 157.735 42.0182C157.754 42.0182 157.792 42.0182 157.811 42.0182C164.69 26.8142 164.268 11.9936 155.569 5.22555C152.293 2.67556 148.499 1.41016 144.303 1.41016C135.757 1.41016 125.564 6.66352 114.738 16.9402Z" fill="white"/>
    </mask>
    <g mask="url(#mask0_0_1)">
        <path d="M117.811 -10.6116L104.815 40.1484L161.613 54.709L174.609 3.94906L117.811 -10.6116Z" fill="url(#paint0_linear_0_1)"/>
    </g>
    <path d="M157.811 42.0213C157.811 42.0213 157.754 42.0213 157.735 42.0213C154.688 42.6732 151.546 41.6954 149.4 39.4138C148.997 38.992 148.537 38.6085 148.154 38.1484C130.699 17.5376 114.738 16.9432 114.738 16.9432C130.871 1.60494 145.625 -2.51723 155.589 5.2286C164.288 11.9966 164.709 26.8172 157.83 42.0213H157.811Z" stroke="#170486" stroke-width="0.48" stroke-miterlimit="10"/>
    <path d="M156.949 24.2058C157.236 26.219 156.278 28.2705 154.401 29.325C151.967 30.6863 148.901 29.8043 147.541 27.3694C146.87 26.1423 146.755 24.7619 147.1 23.5156" stroke="#170486" stroke-width="0.48" stroke-miterlimit="10"/>
    <mask id="mask1_0_1" style="mask-type:luminance" maskUnits="userSpaceOnUse" x="148" y="12" width="9" height="8">
        <path d="M148.479 18.0519L155.09 19.5474L156.048 12.9519L148.614 12.2617L148.479 18.0519Z" fill="white"/>
    </mask>
    <g mask="url(#mask1_0_1)">
        <path d="M150.166 15.1193C150.166 15.1193 154.458 13.4896 157.427 17.305" stroke="#170486" stroke-width="0.44" stroke-linecap="round" stroke-linejoin="round"/>
    </g>
    <mask id="mask2_0_1" style="mask-type:luminance" maskUnits="userSpaceOnUse" x="153" y="31" width="10" height="11">
        <path d="M153.231 37.1287L159.554 41.1166L162.294 36.0167L157.083 31.6836L153.231 37.1287Z" fill="white"/>
    </mask>
    <g mask="url(#mask2_0_1)">
        <path d="M159.478 37.8748C159.478 37.8748 154.917 37.3955 153.979 32.6406" stroke="#170486" stroke-width="0.44" stroke-linecap="round" stroke-linejoin="round"/>
    </g>
    <path d="M58.1391 26.1855L57.7061 27.8359L71.4944 31.4581L71.9274 29.8076L58.1391 26.1855Z" fill="#FF1700"/>
    <path d="M58.1391 26.1855L57.7061 27.8359L71.4944 31.4581L71.9274 29.8076L58.1391 26.1855Z" stroke="#170486" stroke-width="0.48" stroke-miterlimit="10"/>
    <path d="M102.513 38.9102L111.921 32.9474C111.921 32.9474 114.105 31.1835 111.499 29.4196L71.4726 25.0865C71.4726 25.0865 66.5291 24.5497 65.2453 29.6497C65.2453 29.6497 64.4597 33.791 69.9589 34.4046L102.513 38.9293V38.9102Z" fill="#FF1700"/>
    <path d="M102.513 38.9102L111.921 32.9474C111.921 32.9474 114.105 31.1835 111.499 29.4196L71.4726 25.0865C71.4726 25.0865 66.5291 24.5497 65.2453 29.6497C65.2453 29.6497 64.4597 33.791 69.9589 34.4046L102.513 38.9293V38.9102Z" stroke="#170486" stroke-width="0.48" stroke-miterlimit="10"/>
    <path d="M72.1047 27.3327C70.591 27.0643 69.1348 28.0613 68.8666 29.5759C68.5791 31.0906 69.5947 32.5477 71.1084 32.8161C72.6221 33.1037 74.0783 32.0876 74.3465 30.5729C74.6148 29.0583 73.6184 27.6011 72.1047 27.3327Z" fill="#FF1700"/>
    <path d="M72.1047 27.3327C70.591 27.0643 69.1348 28.0613 68.8666 29.5759C68.5791 31.0906 69.5947 32.5477 71.1084 32.8161C72.6221 33.1037 74.0783 32.0876 74.3465 30.5729C74.6148 29.0583 73.6184 27.6011 72.1047 27.3327Z" stroke="#170486" stroke-width="0.48" stroke-miterlimit="10"/>
    <path d="M58.252 31.532L39.5894 27.5632C37.2709 27.0647 35.7764 24.7831 36.2745 22.444C36.7727 20.1241 39.0529 18.6286 41.3905 19.1271L60.0531 23.0959C62.3715 23.5944 63.8661 25.876 63.3679 28.2151C62.8697 30.535 60.5896 32.0305 58.252 31.532Z" fill="#FF1700"/>
    <path d="M58.252 31.532L39.5894 27.5632C37.2709 27.0647 35.7764 24.7831 36.2745 22.444C36.7727 20.1241 39.0529 18.6286 41.3905 19.1271L60.0531 23.0959C62.3715 23.5944 63.8661 25.876 63.3679 28.2151C62.8697 30.535 60.5896 32.0305 58.252 31.532Z" stroke="#170486" stroke-width="0.48" stroke-miterlimit="10"/>
    <path d="M28.3801 19.55C26.9814 23.0778 28.6867 27.0849 32.2123 28.4845C35.7379 29.8841 39.7233 28.1778 41.1412 24.65C42.54 21.1222 40.8346 17.115 37.3091 15.7154C33.7835 14.3158 29.7789 16.0222 28.3801 19.55Z" fill="#FF1700"/>
    <path d="M28.3801 19.55C26.9814 23.0778 28.6867 27.0849 32.2123 28.4845C35.7379 29.8841 39.7233 28.1778 41.1412 24.65C42.54 21.1222 40.8346 17.115 37.3091 15.7154C33.7835 14.3158 29.7789 16.0222 28.3801 19.55Z" stroke="#170486" stroke-width="0.44" stroke-miterlimit="10"/>
    <path d="M30.7938 20.5064C29.9316 22.6921 30.9854 25.1654 33.1697 26.0282C35.3541 26.8909 37.8258 25.8364 38.688 23.6507C39.5503 21.465 38.4964 18.9917 36.3121 18.129C34.1278 17.2662 31.656 18.3207 30.7938 20.5064Z" fill="#FF1700"/>
    <path d="M30.7938 20.5064C29.9316 22.6921 30.9854 25.1654 33.1697 26.0282C35.3541 26.8909 37.8258 25.8364 38.688 23.6507C39.5503 21.465 38.4964 18.9917 36.3121 18.129C34.1278 17.2662 31.656 18.3207 30.7938 20.5064Z" stroke="#170486" stroke-width="0.44" stroke-miterlimit="10"/>
    <path d="M61.317 28.0243C60.8955 29.4431 59.4009 30.2675 57.9639 29.8457C56.546 29.4239 55.7221 27.9284 56.1436 26.4905C56.5651 25.0717 58.0597 24.2473 59.4967 24.6691C60.9146 25.0909 61.7385 26.5863 61.317 28.0243Z" fill="#FF1700"/>
    <path d="M61.317 28.0243C60.8955 29.4431 59.4009 30.2675 57.9639 29.8457C56.546 29.4239 55.7221 27.9284 56.1436 26.4905C56.5651 25.0717 58.0597 24.2473 59.4967 24.6691C60.9146 25.0909 61.7385 26.5863 61.317 28.0243Z" stroke="#170486" stroke-width="0.47" stroke-miterlimit="10"/>
    <path d="M3.04909 43.9968C-0.284886 48.3299 0.539028 54.5419 4.86936 57.8779L42.6353 86.8481C46.9656 90.1842 53.1737 89.3598 56.5077 85.0075C59.8225 80.6745 59.0177 74.4625 54.6682 71.1264L16.9023 42.1754C12.572 38.8393 6.3639 39.6637 3.02993 43.9968" fill="#FF1700"/>
    <path d="M3.04909 43.9968C-0.284886 48.3299 0.539028 54.5419 4.86936 57.8779L42.6353 86.8481C46.9656 90.1842 53.1737 89.3598 56.5077 85.0075C59.8225 80.6745 59.0177 74.4625 54.6682 71.1264L16.9023 42.1754C12.572 38.8393 6.3639 39.6637 3.02993 43.9968H3.04909Z" stroke="#170486" stroke-width="0.48" stroke-miterlimit="10"/>
    <mask id="mask3_0_1" style="mask-type:luminance" maskUnits="userSpaceOnUse" x="25" y="19" width="110" height="80">
        <path d="M111.94 20.7753C111.537 21.4272 111.116 22.0791 110.694 22.731C110.656 22.7885 110.618 22.846 110.579 22.9035C109.449 24.5907 104.965 31.2245 102.781 33.717C100.654 36.152 98.4504 38.4527 96.2086 40.6576C96.2086 40.6576 96.2086 40.6576 96.1895 40.6576C95.5188 41.3095 94.8482 41.9613 94.1776 42.594C94.0051 42.7474 93.8327 42.92 93.6602 43.0734C91.5717 44.9906 89.4257 46.8121 87.2797 48.5184C87.1647 48.6143 87.0498 48.7102 86.9156 48.806C79.7112 54.462 72.2193 58.891 64.8807 61.9394C64.7083 62.0161 64.5359 62.0737 64.3634 62.1503C62.8305 62.783 61.3168 63.3391 59.8031 63.8376C59.4774 63.9526 59.1517 64.0485 58.8259 64.1635H58.8068C58.0787 64.3936 57.3506 64.6045 56.6416 64.8154C54.3615 65.4481 52.1005 65.9466 49.897 66.2917C40.9681 67.7105 32.7098 66.7518 26.0035 63.1282C25.6778 68.0172 26.2143 72.6571 27.6705 76.8751C27.9962 77.7954 28.3603 78.7157 28.7627 79.5976C29.1267 80.3837 29.5291 81.1315 29.9506 81.8792C30.468 82.7803 31.0428 83.6623 31.6751 84.5059C32.8822 86.1164 34.2427 87.5735 35.7564 88.8965C37.1743 90.1427 38.7454 91.2739 40.4124 92.2709C58.6535 103.142 88.1419 99.5949 115.676 79.3867C119.776 76.3766 125.64 69.4552 129.606 64.4703L129.644 64.4319C132.193 61.23 133.955 58.8526 133.955 58.8526C135.143 49.3812 131.694 36.1903 121.558 26.1629C119.067 23.6896 116.174 21.408 112.84 19.4141C112.572 19.855 112.304 20.296 112.016 20.737" fill="white"/>
    </mask>
    <g mask="url(#mask3_0_1)">
        <path d="M129.376 -4.87612L7.0293 23.793L31.294 127.474L153.64 98.8049L129.376 -4.87612Z" fill="url(#paint1_linear_0_1)"/>
    </g>
    <path d="M133.879 58.8924C133.879 58.8924 132.116 61.2698 129.568 64.4717L129.529 64.51C125.563 69.495 119.7 76.4164 115.6 79.4265C88.0847 99.6347 58.5771 103.182 40.336 92.3107C38.669 91.3137 37.0978 90.2016 35.68 88.9362C34.1662 87.6133 32.8058 86.1562 31.5987 84.5457C30.9664 83.7021 30.3916 82.8201 29.8742 81.919C29.4335 81.1712 29.0503 80.4043 28.6863 79.6374C28.2647 78.7555 27.9007 77.8352 27.5941 76.9149C26.1379 72.6968 25.6205 68.057 25.9271 63.1679C32.6334 66.7916 40.8917 67.7502 49.8206 66.3315C52.0241 65.9863 54.2851 65.4878 56.5652 64.8551C57.2933 64.6634 58.0023 64.4333 58.7304 64.2033C58.7304 64.2033 58.7304 64.2033 58.7495 64.2033C59.0753 64.1074 59.401 63.9924 59.7459 63.8773C61.2596 63.3788 62.7733 62.8037 64.3061 62.1901C64.4786 62.1134 64.651 62.0559 64.8235 61.9792C72.1812 58.9116 79.6539 54.5018 86.8584 48.8458C86.9734 48.75 87.1075 48.6541 87.2225 48.5582C89.3685 46.8518 91.5145 45.0304 93.603 43.094C93.7754 42.9406 93.9479 42.768 94.1203 42.6146C94.791 41.9819 95.4807 41.3492 96.1322 40.6974C98.374 38.5117 100.578 36.1917 102.704 33.7568C104.889 31.2643 109.391 24.6305 110.503 22.9433C110.541 22.8858 110.579 22.8283 110.618 22.7707C111.039 22.1189 111.461 21.467 111.882 20.8151C112.17 20.3741 112.438 19.9332 112.706 19.4922C116.04 21.4862 118.953 23.7677 121.424 26.241C131.56 36.2876 135.009 49.4785 133.821 58.9307L133.879 58.8924Z" stroke="#170486" stroke-width="0.48" stroke-miterlimit="10"/>
    <path d="M110.56 23.0938C119.93 37.0708 121.75 47.6925 120.926 59.944C120.926 59.944 94.4458 100.015 29.5674 81.3409" stroke="#170486" stroke-width="0.48" stroke-miterlimit="10"/>
    <path d="M107.207 27.7734C111.557 37.7625 112.764 48.0583 110.695 57.9515C110.695 57.9515 82.1644 91.8299 26.9238 74.6894" stroke="#170486" stroke-width="0.48" stroke-miterlimit="10"/>
    <path d="M50.4916 6.37552C53.1357 8.81048 53.3082 12.9518 50.8748 15.5977L15.9064 53.6366C13.4729 56.3016 9.33421 56.4742 6.69002 54.0201C4.04584 51.5659 3.85423 47.4438 6.30681 44.7979L41.2561 6.75898C43.6895 4.11313 47.8282 3.94057 50.4724 6.37552" fill="#FF1700"/>
    <path d="M50.4916 6.37552C53.1358 8.81048 53.3082 12.9518 50.8748 15.5977L15.9064 53.6366C13.4729 56.3016 9.33421 56.4742 6.69002 54.02C4.04584 51.5659 3.85423 47.4438 6.30681 44.7979L41.2561 6.75898C43.6895 4.11313 47.8282 3.94057 50.4724 6.37552H50.4916Z" stroke="#170486" stroke-width="0.48" stroke-miterlimit="10"/>
    <path d="M36.6378 4.53703C38.8604 1.00923 43.4973 -0.0644537 47.0421 2.1596C50.5676 4.38365 51.6406 9.04265 49.418 12.5705C47.2145 16.0983 42.5584 17.1719 39.0328 14.9479C35.5073 12.7238 34.4343 8.06483 36.6569 4.53703" fill="#FF1700"/>
    <path d="M36.6378 4.53703C38.8604 1.00923 43.4973 -0.0644538 47.0421 2.1596C50.5676 4.38365 51.6406 9.04265 49.418 12.5705C47.2145 16.0983 42.5584 17.1719 39.0328 14.9479C35.5073 12.7238 34.4343 8.06483 36.6569 4.53703H36.6378Z" stroke="#170486" stroke-width="0.48" stroke-miterlimit="10"/>
    <path d="M39.072 6.06922C40.4324 3.88352 43.3257 3.23164 45.51 4.59291C47.6943 5.95419 48.3458 8.84929 46.9854 11.035C45.6058 13.2207 42.7317 13.8726 40.5473 12.5113C38.363 11.15 37.7115 8.25493 39.072 6.06922Z" fill="#FF1700"/>
    <path d="M39.072 6.06922C40.4324 3.88352 43.3257 3.23164 45.51 4.59291C47.6943 5.95419 48.3458 8.84929 46.9854 11.035C45.6058 13.2207 42.7317 13.8726 40.5473 12.5113C38.363 11.15 37.7115 8.25493 39.072 6.06922Z" stroke="#170486" stroke-width="0.48" stroke-miterlimit="10"/>
    <path d="M66.9119 143.078C72.2003 141.755 75.4385 136.368 74.0972 131.076L62.5433 84.8692C61.2212 79.5584 55.8561 76.3373 50.5486 77.6794C45.2411 79.0024 42.0221 84.3899 43.3633 89.6816L54.9173 135.888C56.2394 141.18 61.6235 144.401 66.9119 143.078Z" fill="#FF1700"/>
    <path d="M66.9119 143.078C72.2003 141.755 75.4385 136.368 74.0972 131.076L62.5433 84.8692C61.2212 79.5584 55.8561 76.3373 50.5486 77.6794C45.2411 79.0024 42.0221 84.3899 43.3633 89.6816L54.9173 135.888C56.2394 141.18 61.6235 144.401 66.9119 143.078Z" stroke="#170486" stroke-width="0.48" stroke-miterlimit="10"/>
    <path d="M61.6425 193.523C58.0403 193.293 55.3195 190.168 55.5686 186.563L58.9983 135.008C59.2283 131.403 62.3515 128.681 65.9537 128.93C69.5559 129.16 72.2768 132.285 72.0277 135.89L68.5979 187.445C68.368 191.05 65.2448 193.772 61.6425 193.523Z" fill="#FF1700"/>
    <path d="M61.6425 193.523C58.0403 193.293 55.3195 190.168 55.5686 186.563L58.9983 135.008C59.2283 131.403 62.3515 128.681 65.9537 128.93C69.5559 129.16 72.2768 132.285 72.0277 135.89L68.5979 187.445C68.368 191.05 65.2448 193.772 61.6425 193.523Z" stroke="#170486" stroke-width="0.48" stroke-miterlimit="10"/>
    <path d="M73.5801 186.255C74.0591 190.397 71.1084 194.136 66.9696 194.634C62.8309 195.113 59.0946 192.161 58.5964 188.019C58.1174 183.878 61.0681 180.139 65.2068 179.641C69.3456 179.162 73.0819 182.114 73.5801 186.255Z" fill="#FF1700"/>
    <path d="M73.5801 186.255C74.0591 190.397 71.1084 194.136 66.9696 194.634C62.8309 195.113 59.0946 192.161 58.5964 188.019C58.1174 183.878 61.0681 180.139 65.2068 179.641C69.3456 179.162 73.0819 182.114 73.5801 186.255Z" stroke="#170486" stroke-width="0.48" stroke-miterlimit="10"/>
    <path d="M70.7252 186.601C71.0317 189.17 69.1923 191.49 66.6248 191.778C64.0572 192.085 61.7388 190.244 61.4514 187.675C61.1448 185.106 62.9842 182.786 65.5518 182.498C68.1193 182.191 70.4378 184.032 70.7252 186.601Z" fill="#FF1700"/>
    <path d="M70.7252 186.601C71.0317 189.17 69.1923 191.49 66.6248 191.778C64.0572 192.085 61.7388 190.244 61.4514 187.675C61.1448 185.106 62.9842 182.786 65.5518 182.498C68.1193 182.191 70.4378 184.032 70.7252 186.601Z" stroke="#170486" stroke-width="0.48" stroke-miterlimit="10"/>
    <path d="M166.893 82.6094C135.144 82.6094 109.43 108.359 109.43 140.109C109.43 171.859 135.163 197.608 166.893 197.608C198.624 197.608 224.357 171.859 224.357 140.109C224.357 108.359 198.624 82.6094 166.893 82.6094ZM166.893 192.163C138.21 192.163 114.872 168.811 114.872 140.109C114.872 111.407 138.21 88.0545 166.893 88.0545C195.577 88.0545 218.915 111.407 218.915 140.109C218.915 168.811 195.577 192.163 166.893 192.163Z" fill="#FF1700"/>
    <path d="M166.893 82.6094C135.144 82.6094 109.43 108.359 109.43 140.109C109.43 171.859 135.163 197.608 166.893 197.608C198.624 197.608 224.357 171.859 224.357 140.109C224.357 108.359 198.624 82.6094 166.893 82.6094ZM166.893 192.163C138.21 192.163 114.872 168.811 114.872 140.109C114.872 111.407 138.21 88.0545 166.893 88.0545C195.577 88.0545 218.915 111.407 218.915 140.109C218.915 168.811 195.577 192.163 166.893 192.163Z" stroke="#170486" stroke-width="0.48" stroke-miterlimit="10"/>
    <path d="M166.893 82.6094C135.144 82.6094 109.43 108.359 109.43 140.109C109.43 171.859 135.163 197.608 166.893 197.608C198.624 197.608 224.357 171.859 224.357 140.109C224.357 108.359 198.624 82.6094 166.893 82.6094ZM166.893 192.163C138.21 192.163 114.872 168.811 114.872 140.109C114.872 111.407 138.21 88.0545 166.893 88.0545C195.577 88.0545 218.915 111.407 218.915 140.109C218.915 168.811 195.577 192.163 166.893 192.163Z" fill="#FF1700"/>
    <path d="M166.893 82.6094C135.144 82.6094 109.43 108.359 109.43 140.109C109.43 171.859 135.163 197.608 166.893 197.608C198.624 197.608 224.357 171.859 224.357 140.109C224.357 108.359 198.624 82.6094 166.893 82.6094ZM166.893 192.163C138.21 192.163 114.872 168.811 114.872 140.109C114.872 111.407 138.21 88.0545 166.893 88.0545C195.577 88.0545 218.915 111.407 218.915 140.109C218.915 168.811 195.577 192.163 166.893 192.163Z" stroke="#170486" stroke-width="0.48" stroke-miterlimit="10"/>
    <path d="M155.244 5.24219L145.012 13.3331C145.012 13.3331 132.615 17.0335 121.482 11.1091" stroke="#170486" stroke-width="0.48" stroke-miterlimit="10"/>
    <path d="M152.905 3.48047L143.287 9.63495C143.287 9.63495 134.818 10.7086 128.265 6.83572" stroke="#170486" stroke-width="0.48" stroke-miterlimit="10"/>
    <path d="M149.424 76.4732L148.824 78.0703L162.166 83.0939L162.767 81.4968L149.424 76.4732Z" fill="#FF1700"/>
    <path d="M149.424 76.4732L148.824 78.0703L162.166 83.0939L162.767 81.4968L149.424 76.4732Z" stroke="#170486" stroke-width="0.48" stroke-miterlimit="10"/>
    <path d="M162.027 86.2498L181.111 86.5374C183.487 86.5757 185.441 84.6776 185.479 82.3002C185.518 79.9228 183.621 77.9671 181.245 77.9288L162.161 77.6412C159.785 77.6029 157.83 79.501 157.792 81.8784C157.754 84.2558 159.651 86.2115 162.027 86.2498Z" fill="#FF1700"/>
    <path d="M162.027 86.2498L181.111 86.5374C183.487 86.5757 185.441 84.6776 185.479 82.3002C185.518 79.9228 183.621 77.9671 181.245 77.9288L162.161 77.6412C159.785 77.6029 157.83 79.501 157.792 81.8784C157.754 84.2558 159.651 86.2115 162.027 86.2498Z" stroke="#170486" stroke-width="0.48" stroke-miterlimit="10"/>
    <path d="M193.833 81.2277C194.408 84.9856 191.841 88.4942 188.104 89.0694C184.349 89.6446 180.842 87.0946 180.248 83.3367C179.674 79.5788 182.241 76.0702 185.977 75.495C189.733 74.9198 193.239 77.4698 193.814 81.2277" fill="#FF1700"/>
    <path d="M193.833 81.2277C194.408 84.9856 191.841 88.4942 188.104 89.0694C184.349 89.6446 180.842 87.0946 180.248 83.3367C179.674 79.5788 182.241 76.0702 185.977 75.495C189.733 74.9198 193.239 77.4698 193.814 81.2277H193.833Z" stroke="#170486" stroke-width="0.44" stroke-miterlimit="10"/>
    <path d="M191.246 81.6302C191.61 83.9501 190.02 86.1358 187.701 86.4809C185.383 86.8452 183.199 85.2538 182.835 82.9339C182.471 80.614 184.061 78.4283 186.379 78.0832C188.698 77.7189 190.882 79.3102 191.227 81.6302" fill="#FF1700"/>
    <path d="M191.246 81.6302C191.61 83.9501 190.02 86.1358 187.701 86.4809C185.383 86.8452 183.199 85.2538 182.835 82.9339C182.471 80.614 184.061 78.4283 186.379 78.0832C188.698 77.7189 190.882 79.3102 191.227 81.6302H191.246Z" stroke="#170486" stroke-width="0.44" stroke-miterlimit="10"/>
    <path d="M159.823 82.1476C159.918 83.6431 161.202 84.7551 162.678 84.6592C164.172 84.5634 165.283 83.2788 165.188 81.8025C165.092 80.3262 163.808 79.195 162.333 79.2908C160.857 79.3867 159.727 80.6713 159.823 82.1476Z" fill="#FF1700"/>
    <path d="M159.823 82.1476C159.918 83.6431 161.202 84.7551 162.678 84.6592C164.172 84.5634 165.283 83.2788 165.188 81.8025C165.092 80.3262 163.808 79.195 162.333 79.2908C160.857 79.3867 159.727 80.6713 159.823 82.1476Z" stroke="#170486" stroke-width="0.47" stroke-miterlimit="10"/>
    <path d="M124.528 57.9897L123.475 46.9078C123.475 46.9078 123.532 44.1085 126.521 45.0672L154.477 74.0373C154.477 74.0373 157.926 77.6227 154.707 81.764C154.707 81.764 151.909 84.9275 148.058 80.9396L124.528 57.9897Z" fill="#FF1700"/>
    <path d="M124.528 57.9897L123.475 46.9078C123.475 46.9078 123.532 44.1085 126.521 45.0672L154.477 74.0373C154.477 74.0373 157.926 77.6227 154.707 81.764C154.707 81.764 151.909 84.9275 148.058 80.9396L124.528 57.9897Z" stroke="#170486" stroke-width="0.48" stroke-miterlimit="10"/>
    <path d="M152.312 74.9165C153.461 75.9518 153.557 77.6966 152.523 78.8469C151.488 79.9973 149.744 80.0932 148.595 79.0578C147.445 78.0417 147.349 76.2778 148.384 75.1274C149.399 73.977 151.162 73.8812 152.312 74.8973" fill="#FF1700"/>
    <path d="M152.312 74.9165C153.461 75.9518 153.557 77.6966 152.523 78.8469C151.488 79.9973 149.744 80.0932 148.595 79.0578C147.445 78.0417 147.349 76.2778 148.384 75.1274C149.399 73.977 151.162 73.8812 152.312 74.8973V74.9165Z" stroke="#170486" stroke-width="0.48" stroke-miterlimit="10"/>
    <defs>
        <linearGradient id="paint0_linear_0_1" x1="145.829" y1="-1.36811" x2="138.536" y2="27.0835" gradientUnits="userSpaceOnUse">
            <stop stop-color="#170486"/>
            <stop offset="0.01" stop-color="#170486"/>
            <stop offset="1" stop-color="#1598FF"/>
        </linearGradient>
        <linearGradient id="paint1_linear_0_1" x1="89.4352" y1="105.114" x2="68.8464" y2="17.2505" gradientUnits="userSpaceOnUse">
            <stop stop-color="#170486"/>
            <stop offset="0.04" stop-color="#170486"/>
            <stop offset="0.4" stop-color="#1568D7"/>
            <stop offset="0.58" stop-color="#1598FF"/>
            <stop offset="1" stop-color="#1598FF"/>
        </linearGradient>
    </defs>
</svg>
