<svg width="520" height="330" viewBox="0 0 520 330" fill="none" xmlns="http://www.w3.org/2000/svg">
    <mask id="mask0_2423_10342" style="mask-type:luminance" maskUnits="userSpaceOnUse" x="113" y="51" width="41" height="72">
        <path d="M119.235 51.6602C116.319 51.6602 113.962 67.4565 113.962 86.9168C113.962 106.377 116.319 122.173 119.235 122.173H153.011V51.6602H119.235Z" fill="white"/>
    </mask>
    <g mask="url(#mask0_2423_10342)">
        <path d="M153.011 51.6602H113.962V122.198H153.011V51.6602Z" fill="url(#paint0_linear_2423_10342)"/>
    </g>
    <path d="M119.235 51.6602C116.319 51.6602 113.962 67.4565 113.962 86.9168C113.962 106.377 116.319 122.173 119.235 122.173H153.011V51.6602H119.235Z" stroke="#170486" stroke-width="0.54" stroke-miterlimit="10"/>
    <path d="M159.596 86.941C159.596 106.426 157.239 122.198 154.324 122.198C151.408 122.198 149.051 106.401 149.051 86.941C149.051 67.4807 151.432 51.6602 154.324 51.6602C157.215 51.6602 159.596 67.4565 159.596 86.9168" fill="#FF1700"/>
    <path d="M159.596 86.941C159.596 106.426 157.239 122.198 154.324 122.198C151.408 122.198 149.051 106.401 149.051 86.941C149.051 67.4807 151.432 51.6602 154.324 51.6602C157.215 51.6602 159.596 67.4565 159.596 86.9168V86.941Z" stroke="#170486" stroke-width="0.59" stroke-miterlimit="10"/>
    <path d="M106.406 78.8125C105.725 78.8125 105.191 82.4522 105.191 86.9412C105.191 91.4301 105.725 95.0699 106.406 95.0699H114.181V78.8125H106.406Z" fill="#FF1700"/>
    <path d="M106.406 78.8125C105.725 78.8125 105.191 82.4522 105.191 86.9412C105.191 91.4301 105.725 95.0699 106.406 95.0699H114.181V78.8125H106.406Z" stroke="#170486" stroke-width="0.59" stroke-miterlimit="10"/>
    <path d="M129.757 51.6602C126.841 51.6602 124.484 67.4565 124.484 86.9168C124.484 106.377 126.841 122.173 129.757 122.173" stroke="#170486" stroke-width="0.59" stroke-miterlimit="10"/>
    <path d="M142.223 51.6602C139.307 51.6602 136.95 67.4565 136.95 86.9168C136.95 106.377 139.307 122.173 142.223 122.173" stroke="#170486" stroke-width="0.59" stroke-miterlimit="10"/>
    <mask id="mask1_2423_10342" style="mask-type:luminance" maskUnits="userSpaceOnUse" x="364" y="51" width="40" height="72">
        <path d="M364.899 51.6602V122.198H398.675C401.591 122.198 403.948 106.401 403.948 86.941C403.948 67.4807 401.591 51.6844 398.675 51.6844H364.899V51.6602Z" fill="white"/>
    </mask>
    <g mask="url(#mask1_2423_10342)">
        <path d="M403.948 51.6602H364.899V122.198H403.948V51.6602Z" fill="url(#paint1_linear_2423_10342)"/>
    </g>
    <path d="M398.675 51.6602C401.591 51.6602 403.948 67.4565 403.948 86.9168C403.948 106.377 401.591 122.173 398.675 122.173H364.899V51.6602H398.675Z" stroke="#170486" stroke-width="0.54" stroke-miterlimit="10"/>
    <path d="M358.314 86.9402C358.314 106.425 360.671 122.197 363.587 122.197C366.503 122.197 368.86 106.401 368.86 86.9402C368.86 67.4799 366.503 51.6836 363.587 51.6836C360.671 51.6836 358.314 67.4799 358.314 86.9402Z" fill="#FF1700"/>
    <path d="M358.314 86.9402C358.314 106.425 360.671 122.197 363.587 122.197C366.503 122.197 368.86 106.401 368.86 86.9402C368.86 67.4799 366.503 51.6836 363.587 51.6836C360.671 51.6836 358.314 67.4799 358.314 86.9402Z" stroke="#170486" stroke-width="0.59" stroke-miterlimit="10"/>
    <path d="M411.504 78.8125C412.185 78.8125 412.719 82.4522 412.719 86.9412C412.719 91.4301 412.185 95.0699 411.504 95.0699H403.729V78.8125H411.504Z" fill="#FF1700"/>
    <path d="M411.504 78.8125C412.185 78.8125 412.719 82.4522 412.719 86.9412C412.719 91.4301 412.185 95.0699 411.504 95.0699H403.729V78.8125H411.504Z" stroke="#170486" stroke-width="0.59" stroke-miterlimit="10"/>
    <path d="M388.153 51.6602C391.069 51.6602 393.426 67.4565 393.426 86.9168C393.426 106.377 391.069 122.173 388.153 122.173" stroke="#170486" stroke-width="0.59" stroke-miterlimit="10"/>
    <path d="M375.712 51.6602C378.628 51.6602 380.985 67.4565 380.985 86.9168C380.985 106.377 378.628 122.173 375.712 122.173" stroke="#170486" stroke-width="0.59" stroke-miterlimit="10"/>
    <path d="M360.744 83.8594H157.191V89.9983H360.744V83.8594Z" fill="#FF1700"/>
    <path d="M360.744 83.8594H157.191V89.9983H360.744V83.8594Z" stroke="#170486" stroke-width="0.54" stroke-miterlimit="10"/>
    <path d="M196.604 121.978L179.983 92.8359L170.823 96.7426L192.06 133.989C193.518 130.131 195.122 125.933 196.604 121.978Z" fill="#FF1700"/>
    <path d="M196.604 121.978L179.983 92.8359L170.823 96.7426L192.06 133.989C193.518 130.131 195.122 125.933 196.604 121.978Z" stroke="#170486" stroke-width="0.54" stroke-miterlimit="10"/>
    <path d="M187.759 127.318L232.518 199.602L237.523 145.783L193.469 123.387L187.759 127.318Z" fill="#FF1700"/>
    <path d="M187.759 127.318L232.518 199.602L237.523 145.783L193.469 123.387L187.759 127.318Z" stroke="#170486" stroke-width="0.54" stroke-miterlimit="10"/>
    <path d="M196.288 134.209C192.497 135.592 188.318 133.651 186.933 129.866C185.548 126.081 187.492 121.907 191.283 120.524C195.073 119.141 199.253 121.082 200.638 124.867C202.023 128.653 200.079 132.826 196.288 134.209Z" fill="#FF1700"/>
    <path d="M196.288 134.209C192.497 135.592 188.318 133.651 186.933 129.866C185.548 126.081 187.492 121.907 191.283 120.524C195.073 119.141 199.253 121.082 200.638 124.867C202.023 128.653 200.079 132.826 196.288 134.209Z" stroke="#170486" stroke-width="0.54" stroke-miterlimit="10"/>
    <path d="M189.897 127.342C189.897 125.158 191.671 123.387 193.858 123.387C196.045 123.387 197.818 125.158 197.818 127.342C197.818 129.526 196.045 131.297 193.858 131.297C191.671 131.297 189.897 129.526 189.897 127.342Z" fill="#FF1700"/>
    <path d="M189.897 127.342C189.897 125.158 191.671 123.387 193.858 123.387C196.045 123.387 197.818 125.158 197.818 127.342C197.818 129.526 196.045 131.297 193.858 131.297C191.671 131.297 189.897 129.526 189.897 127.342Z" stroke="#170486" stroke-width="0.54" stroke-miterlimit="10"/>
    <path d="M171.527 77.5038C166.157 78.159 162.342 83.0604 163.022 88.3987C163.678 93.7612 168.587 97.5707 173.933 96.8913C179.303 96.2362 183.118 91.3347 182.437 85.9965C181.757 80.6582 176.873 76.8244 171.527 77.5038Z" fill="#FF1700"/>
    <path d="M171.527 77.5038C166.157 78.159 162.342 83.0604 163.022 88.3987C163.678 93.7612 168.587 97.5707 173.933 96.8913C179.303 96.2362 183.118 91.3347 182.437 85.9965C181.757 80.6582 176.873 76.8244 171.527 77.5038Z" stroke="#170486" stroke-width="0.54" stroke-miterlimit="10"/>
    <path d="M171.989 81.211C168.66 81.6235 166.303 84.6566 166.716 87.9566C167.129 91.2808 170.142 93.6345 173.471 93.222C176.8 92.8095 179.157 89.7764 178.744 86.4764C178.331 83.1521 175.318 80.7985 171.989 81.211Z" fill="#FF1700"/>
    <path d="M171.989 81.211C168.66 81.6235 166.303 84.6566 166.716 87.9566C167.129 91.2808 170.142 93.6345 173.471 93.222C176.8 92.8095 179.157 89.7764 178.744 86.4764C178.331 83.1521 175.318 80.7985 171.989 81.211Z" stroke="#170486" stroke-width="0.54" stroke-miterlimit="10"/>
    <path d="M321.306 121.978L337.927 92.8359L347.088 96.7426L325.85 133.989C324.392 130.131 322.789 125.933 321.306 121.978Z" fill="#FF1700"/>
    <path d="M321.306 121.978L337.927 92.8359L347.088 96.7426L325.85 133.989C324.392 130.131 322.789 125.933 321.306 121.978Z" stroke="#170486" stroke-width="0.54" stroke-miterlimit="10"/>
    <path d="M330.151 127.318L285.392 199.602L280.387 145.783L324.441 123.387L330.151 127.318Z" fill="#FF1700"/>
    <path d="M330.151 127.318L285.392 199.602L280.387 145.783L324.441 123.387L330.151 127.318Z" stroke="#170486" stroke-width="0.54" stroke-miterlimit="10"/>
    <path d="M321.623 134.209C325.413 135.592 329.593 133.651 330.978 129.866C332.363 126.081 330.419 121.907 326.628 120.524C322.837 119.141 318.658 121.082 317.273 124.867C315.888 128.653 317.832 132.826 321.623 134.209Z" fill="#FF1700"/>
    <path d="M321.623 134.209C325.413 135.592 329.593 133.651 330.978 129.866C332.363 126.081 330.419 121.907 326.628 120.524C322.837 119.141 318.658 121.082 317.273 124.867C315.888 128.653 317.832 132.826 321.623 134.209Z" stroke="#170486" stroke-width="0.54" stroke-miterlimit="10"/>
    <path d="M328.013 127.342C328.013 125.158 326.239 123.387 324.053 123.387C321.866 123.387 320.092 125.158 320.092 127.342C320.092 129.526 321.866 131.297 324.053 131.297C326.239 131.297 328.013 129.526 328.013 127.342Z" fill="#FF1700"/>
    <path d="M328.013 127.342C328.013 125.158 326.239 123.387 324.053 123.387C321.866 123.387 320.092 125.158 320.092 127.342C320.092 129.526 321.866 131.297 324.053 131.297C326.239 131.297 328.013 129.526 328.013 127.342Z" stroke="#170486" stroke-width="0.54" stroke-miterlimit="10"/>
    <path d="M346.383 77.5038C351.753 78.159 355.568 83.0604 354.888 88.3987C354.231 93.7612 349.323 97.5707 343.977 96.8913C338.607 96.2362 334.792 91.3347 335.473 85.9965C336.153 80.6582 341.037 76.8244 346.383 77.5038Z" fill="#FF1700"/>
    <path d="M346.383 77.5038C351.753 78.159 355.568 83.0604 354.888 88.3987C354.231 93.7612 349.323 97.5707 343.977 96.8913C338.607 96.2362 334.792 91.3347 335.473 85.9965C336.153 80.6582 341.037 76.8244 346.383 77.5038Z" stroke="#170486" stroke-width="0.54" stroke-miterlimit="10"/>
    <path d="M345.921 81.211C349.25 81.6235 351.607 84.6566 351.194 87.9566C350.781 91.2808 347.768 93.6345 344.439 93.222C341.11 92.8095 338.753 89.7764 339.166 86.4764C339.579 83.1521 342.592 80.7985 345.921 81.211Z" fill="#FF1700"/>
    <path d="M345.921 81.211C349.25 81.6235 351.607 84.6566 351.194 87.9566C350.781 91.2808 347.768 93.6345 344.439 93.222C341.11 92.8095 338.753 89.7764 339.166 86.4764C339.579 83.1521 342.592 80.7985 345.921 81.211Z" stroke="#170486" stroke-width="0.54" stroke-miterlimit="10"/>
    <path d="M323.979 208.313L322.181 204.188C319.338 197.661 311.733 194.676 305.196 197.515L252.832 220.275C246.295 223.114 243.306 230.709 246.149 237.236L247.948 241.361C250.791 247.889 258.396 250.873 264.933 248.034L317.297 225.274C323.834 222.435 326.822 214.84 323.979 208.313Z" fill="#FF1700"/>
    <path d="M323.979 208.313L322.181 204.188C319.338 197.661 311.733 194.676 305.196 197.515L252.832 220.275C246.295 223.114 243.306 230.709 246.149 237.236L247.948 241.361C250.791 247.889 258.396 250.873 264.933 248.034L317.297 225.274C323.834 222.435 326.822 214.84 323.979 208.313Z" stroke="#170486" stroke-width="0.54" stroke-miterlimit="10"/>
    <path d="M303.932 269.048L307.116 269.509C312.145 270.213 316.811 266.719 317.516 261.696L323.59 218.65C324.295 213.628 320.796 208.969 315.766 208.265L312.583 207.828C307.553 207.125 302.887 210.619 302.183 215.642L296.108 258.687C295.403 263.71 298.902 268.369 303.932 269.073" fill="#FF1700"/>
    <path d="M296.115 258.668L302.209 215.638C302.921 210.617 307.589 207.11 312.618 207.82L315.794 208.269C320.822 208.979 324.334 213.641 323.623 218.662L317.528 261.692C316.817 266.713 312.148 270.22 307.12 269.51L303.944 269.061C298.916 268.351 295.404 263.689 296.115 258.668Z" stroke="#170486" stroke-width="0.54" stroke-miterlimit="10"/>
    <path d="M317.783 268.027C312.802 271.254 306.144 269.847 302.912 264.872C299.68 259.898 301.089 253.25 306.071 250.022C311.052 246.795 317.71 248.203 320.942 253.177C324.174 258.151 322.764 264.8 317.783 268.027Z" fill="#FF1700"/>
    <path d="M317.783 268.027C312.802 271.254 306.144 269.847 302.912 264.872C299.68 259.898 301.089 253.25 306.071 250.022C311.052 246.795 317.71 248.203 320.942 253.177C324.174 258.151 322.764 264.8 317.783 268.027Z" stroke="#170486" stroke-width="0.54" stroke-miterlimit="10"/>
    <path d="M315.548 264.607C312.462 266.597 308.355 265.723 306.338 262.666C304.346 259.584 305.221 255.484 308.282 253.47C311.368 251.48 315.475 252.354 317.492 255.411C319.509 258.468 318.61 262.593 315.548 264.607Z" fill="#FF1700"/>
    <path d="M315.548 264.607C312.462 266.597 308.355 265.723 306.338 262.666C304.346 259.584 305.221 255.484 308.282 253.47C311.368 251.48 315.475 252.354 317.492 255.411C319.509 258.468 318.61 262.593 315.548 264.607Z" stroke="#170486" stroke-width="0.54" stroke-miterlimit="10"/>
    <path d="M193.955 208.313L195.753 204.188C198.596 197.661 206.202 194.676 212.738 197.515L265.103 220.275C271.639 223.114 274.628 230.709 271.785 237.236L269.987 241.361C267.144 247.889 259.538 250.873 253.002 248.034L200.637 225.274C194.101 222.435 191.112 214.84 193.955 208.313Z" fill="#FF1700"/>
    <path d="M193.955 208.313L195.753 204.188C198.596 197.661 206.202 194.676 212.738 197.515L265.103 220.275C271.639 223.114 274.628 230.709 271.785 237.236L269.987 241.361C267.144 247.889 259.538 250.873 253.002 248.034L200.637 225.274C194.101 222.435 191.112 214.84 193.955 208.313Z" stroke="#170486" stroke-width="0.54" stroke-miterlimit="10"/>
    <path d="M213.978 269.048L210.794 269.509C205.764 270.213 201.099 266.719 200.394 261.696L194.32 218.65C193.615 213.628 197.114 208.969 202.144 208.265L205.327 207.828C210.357 207.125 215.022 210.619 215.727 215.642L221.802 258.687C222.507 263.71 219.007 268.369 213.978 269.073" fill="#FF1700"/>
    <path d="M202.127 208.236L205.302 207.787C210.331 207.077 214.999 210.584 215.711 215.605L221.805 258.635C222.516 263.656 219.005 268.318 213.976 269.028L210.8 269.477C205.772 270.187 201.103 266.68 200.392 261.659L194.298 218.629C193.586 213.608 197.098 208.946 202.127 208.236Z" stroke="#170486" stroke-width="0.54" stroke-miterlimit="10"/>
    <path d="M200.127 268.027C205.109 271.254 211.767 269.847 214.998 264.872C218.23 259.898 216.821 253.25 211.839 250.022C206.858 246.795 200.2 248.203 196.968 253.177C193.737 258.151 195.146 264.8 200.127 268.027Z" fill="#FF1700"/>
    <path d="M200.127 268.027C205.109 271.254 211.767 269.847 214.998 264.872C218.23 259.898 216.821 253.25 211.839 250.022C206.858 246.795 200.2 248.203 196.968 253.177C193.737 258.151 195.146 264.8 200.127 268.027Z" stroke="#170486" stroke-width="0.54" stroke-miterlimit="10"/>
    <path d="M202.363 264.607C205.449 266.597 209.555 265.723 211.572 262.666C213.564 259.584 212.69 255.484 209.628 253.47C206.542 251.48 202.435 252.354 200.419 255.411C198.402 258.468 199.301 262.593 202.387 264.607" fill="#FF1700"/>
    <path d="M202.363 264.607C205.449 266.597 209.555 265.723 211.572 262.666C213.564 259.584 212.69 255.484 209.628 253.47C206.542 251.48 202.435 252.354 200.419 255.411C198.402 258.468 199.301 262.593 202.387 264.607H202.363Z" stroke="#170486" stroke-width="0.54" stroke-miterlimit="10"/>
    <path d="M300.555 172.908C300.555 195.863 281.918 214.45 258.955 214.45C235.992 214.45 217.355 195.839 217.355 172.908C217.355 149.978 235.992 131.367 258.955 131.367C281.918 131.367 300.555 149.978 300.555 172.908Z" fill="#FF1700"/>
    <path d="M300.555 172.908C300.555 195.863 281.918 214.45 258.955 214.45C235.992 214.45 217.355 195.839 217.355 172.908C217.355 149.978 235.992 131.367 258.955 131.367C281.918 131.367 300.555 149.978 300.555 172.908Z" stroke="#170486" stroke-width="0.56" stroke-miterlimit="10"/>
    <mask id="mask2_2423_10342" style="mask-type:luminance" maskUnits="userSpaceOnUse" x="228" y="202" width="62" height="48">
        <path d="M258.955 202.852H234.608L228.46 241.699L258.955 249.294L289.451 241.699L283.303 202.852H258.955Z" fill="white"/>
    </mask>
    <g mask="url(#mask2_2423_10342)">
        <path d="M289.451 202.852H228.46V249.294H289.451V202.852Z" fill="url(#paint2_linear_2423_10342)"/>
    </g>
    <path d="M258.955 249.294L289.451 241.699L283.327 202.852H258.955H234.608L228.46 241.699L258.955 249.294Z" stroke="#170486" stroke-width="0.54" stroke-miterlimit="10"/>
    <mask id="mask3_2423_10342" style="mask-type:luminance" maskUnits="userSpaceOnUse" x="234" y="140" width="1" height="2">
        <path d="M234.389 141.146L234.656 140.928C234.656 140.928 234.559 140.637 234.486 140.637C234.437 140.637 234.389 140.758 234.413 141.146" fill="white"/>
    </mask>
    <g mask="url(#mask3_2423_10342)">
        <path d="M234.656 140.637H234.389V141.146H234.656V140.637Z" fill="url(#paint3_linear_2423_10342)"/>
    </g>
    <path d="M234.389 141.147L234.656 140.953C234.656 140.953 234.389 140.152 234.389 141.147Z" stroke="#170486" stroke-width="0.56" stroke-miterlimit="10"/>
    <mask id="mask4_2423_10342" style="mask-type:luminance" maskUnits="userSpaceOnUse" x="283" y="140" width="1" height="2">
        <path d="M283.254 140.928L283.522 141.146C283.522 140.758 283.497 140.637 283.449 140.637C283.376 140.637 283.279 140.928 283.279 140.928" fill="white"/>
    </mask>
    <g mask="url(#mask4_2423_10342)">
        <path d="M283.522 140.637H283.254V141.146H283.522V140.637Z" fill="url(#paint4_linear_2423_10342)"/>
    </g>
    <path d="M283.254 140.929L283.522 141.147C283.522 140.153 283.254 140.929 283.254 140.929Z" stroke="#170486" stroke-width="0.56" stroke-miterlimit="10"/>
    <mask id="mask5_2423_10342" style="mask-type:luminance" maskUnits="userSpaceOnUse" x="230" y="141" width="58" height="66">
        <path d="M281.602 155.319C279.099 170.994 262.867 172.013 258.761 172.426C254.654 172.013 238.835 170.994 236.308 155.319C234.777 145.734 234.413 142.289 234.389 141.148L230.549 144.206L234.656 206.154H283.254L287.361 144.206L283.521 141.148C283.521 142.289 283.132 145.734 281.602 155.319Z" fill="white"/>
    </mask>
    <g mask="url(#mask5_2423_10342)">
        <path d="M287.336 141.148H230.549V206.129H287.336V141.148Z" fill="url(#paint5_linear_2423_10342)"/>
    </g>
    <path d="M283.521 141.148C283.521 142.289 283.132 145.734 281.602 155.319C279.099 170.97 262.867 172.013 258.761 172.401C254.654 171.989 238.835 170.97 236.308 155.319C234.777 145.734 234.413 142.289 234.389 141.148L230.549 144.206L234.656 206.154H283.254L287.361 144.206L283.521 141.148Z" stroke="#170486" stroke-width="0.56" stroke-miterlimit="10"/>
    <mask id="mask6_2423_10342" style="mask-type:luminance" maskUnits="userSpaceOnUse" x="222" y="126" width="8" height="17">
        <path d="M222.434 130.037V139.913L229.237 142.436L227.755 126.664L222.434 130.037Z" fill="white"/>
    </mask>
    <g mask="url(#mask6_2423_10342)">
        <path d="M229.237 126.664H222.434V142.412H229.237V126.664Z" fill="url(#paint6_linear_2423_10342)"/>
    </g>
    <path d="M227.755 126.664L222.434 130.037V139.913L229.237 142.436L227.755 126.664Z" stroke="#170486" stroke-width="0.54" stroke-miterlimit="10"/>
    <mask id="mask7_2423_10342" style="mask-type:luminance" maskUnits="userSpaceOnUse" x="288" y="126" width="8" height="17">
        <path d="M288.697 142.436L295.501 139.913V130.037L290.18 126.664L288.697 142.436Z" fill="white"/>
    </mask>
    <g mask="url(#mask7_2423_10342)">
        <path d="M295.501 126.664H288.697V142.412H295.501V126.664Z" fill="url(#paint7_linear_2423_10342)"/>
    </g>
    <path d="M290.18 126.664L295.501 130.037V139.913L288.697 142.436L290.18 126.664Z" stroke="#170486" stroke-width="0.54" stroke-miterlimit="10"/>
    <mask id="mask8_2423_10342" style="mask-type:luminance" maskUnits="userSpaceOnUse" x="226" y="100" width="66" height="65">
        <path d="M226.904 132.825C226.904 150.49 241.265 164.831 258.955 164.831C276.645 164.831 291.005 150.514 291.005 132.825C291.005 115.136 276.669 100.82 258.955 100.82C241.241 100.82 226.904 115.136 226.904 132.825Z" fill="white"/>
    </mask>
    <g mask="url(#mask8_2423_10342)">
        <path d="M291.005 100.82H226.904V164.831H291.005V100.82Z" fill="url(#paint8_linear_2423_10342)"/>
    </g>
    <path d="M288.563 145.075C295.337 128.745 287.571 110.023 271.217 103.258C254.864 96.4942 236.115 104.249 229.341 120.58C222.567 136.91 230.333 155.632 246.687 162.396C263.041 169.161 281.789 161.406 288.563 145.075Z" stroke="#170486" stroke-width="0.54" stroke-miterlimit="10"/>
    <path d="M285.417 132.826C285.417 147.409 273.583 159.25 258.955 159.25C244.327 159.25 232.493 147.433 232.493 132.826C232.493 118.218 244.327 106.426 258.955 106.426C273.583 106.426 285.417 118.243 285.417 132.826Z" fill="#FF1700"/>
    <path d="M285.417 132.826C285.417 147.409 273.583 159.25 258.955 159.25C244.327 159.25 232.493 147.433 232.493 132.826C232.493 118.218 244.327 106.426 258.955 106.426C273.583 106.426 285.417 118.243 285.417 132.826Z" stroke="#170486" stroke-width="0.54" stroke-miterlimit="10"/>
    <path d="M266.245 153.403H251.665C249.843 153.403 248.385 151.947 248.385 150.127V148.987C248.385 147.191 249.843 145.711 251.665 145.711H266.245C268.067 145.711 269.525 147.191 269.525 148.987V150.127C269.525 151.947 268.067 153.403 266.245 153.403Z" fill="#170486"/>
    <path d="M253.561 116.444C253.561 116.444 258.737 112.465 264.374 116.444H253.561Z" fill="#FF1700"/>
    <path d="M253.561 116.444C253.561 116.444 258.737 112.465 264.374 116.444" stroke="#170486" stroke-width="0.54" stroke-linecap="round" stroke-linejoin="round"/>
    <path d="M268.529 131.006C268.529 136.295 264.228 140.566 258.955 140.566C253.682 140.566 249.381 136.271 249.381 131.006C249.381 125.74 253.682 121.445 258.955 121.445C264.228 121.445 268.529 125.74 268.529 131.006Z" fill="#FF1700"/>
    <path d="M268.529 131.006C268.529 136.295 264.228 140.566 258.955 140.566C253.682 140.566 249.381 136.271 249.381 131.006C249.381 125.74 253.682 121.445 258.955 121.445C264.228 121.445 268.529 125.74 268.529 131.006Z" stroke="#170486" stroke-width="0.54" stroke-miterlimit="10"/>
    <path d="M264.082 131.007C264.082 133.846 261.774 136.126 258.955 136.126C256.136 136.126 253.828 133.821 253.828 131.007C253.828 128.192 256.136 125.887 258.955 125.887C261.774 125.887 264.082 128.192 264.082 131.007Z" fill="#170486"/>
    <defs>
        <linearGradient id="paint0_linear_2423_10342" x1="130.197" y1="127.969" x2="130.197" y2="57.4315" gradientUnits="userSpaceOnUse">
            <stop stop-color="#170486"/>
            <stop offset="0.01" stop-color="#170486"/>
            <stop offset="1" stop-color="#1598FF"/>
        </linearGradient>
        <linearGradient id="paint1_linear_2423_10342" x1="388.298" y1="-50133.5" x2="388.298" y2="-50204.1" gradientUnits="userSpaceOnUse">
            <stop stop-color="#170486"/>
            <stop offset="0.01" stop-color="#170486"/>
            <stop offset="1" stop-color="#1598FF"/>
        </linearGradient>
        <linearGradient id="paint2_linear_2423_10342" x1="262.259" y1="197.593" x2="262.259" y2="244.036" gradientUnits="userSpaceOnUse">
            <stop stop-color="#1598FF"/>
            <stop offset="0.99" stop-color="#170486"/>
            <stop offset="1" stop-color="#170486"/>
        </linearGradient>
        <linearGradient id="paint3_linear_2423_10342" x1="232.552" y1="144.417" x2="232.552" y2="143.908" gradientUnits="userSpaceOnUse">
            <stop stop-color="#1598FF"/>
            <stop offset="0.99" stop-color="#170486"/>
            <stop offset="1" stop-color="#170486"/>
        </linearGradient>
        <linearGradient id="paint4_linear_2423_10342" x1="281.422" y1="144.417" x2="281.422" y2="143.908" gradientUnits="userSpaceOnUse">
            <stop stop-color="#1598FF"/>
            <stop offset="0.99" stop-color="#170486"/>
            <stop offset="1" stop-color="#170486"/>
        </linearGradient>
        <linearGradient id="paint5_linear_2423_10342" x1="254.185" y1="214.172" x2="254.185" y2="149.167" gradientUnits="userSpaceOnUse">
            <stop stop-color="#1598FF"/>
            <stop offset="0.99" stop-color="#170486"/>
            <stop offset="1" stop-color="#170486"/>
        </linearGradient>
        <linearGradient id="paint6_linear_2423_10342" x1="229.886" y1="135.687" x2="229.886" y2="119.939" gradientUnits="userSpaceOnUse">
            <stop stop-color="#170486"/>
            <stop offset="0.01" stop-color="#170486"/>
            <stop offset="1" stop-color="#1598FF"/>
        </linearGradient>
        <linearGradient id="paint7_linear_2423_10342" x1="296.15" y1="135.687" x2="296.15" y2="119.939" gradientUnits="userSpaceOnUse">
            <stop stop-color="#170486"/>
            <stop offset="0.01" stop-color="#170486"/>
            <stop offset="1" stop-color="#1598FF"/>
        </linearGradient>
        <linearGradient id="paint8_linear_2423_10342" x1="255.125" y1="171.283" x2="255.125" y2="107.912" gradientUnits="userSpaceOnUse">
            <stop stop-color="#170486"/>
            <stop offset="0.01" stop-color="#170486"/>
            <stop offset="1" stop-color="#1598FF"/>
        </linearGradient>
    </defs>
</svg>
