
<svg width="298" height="156" viewBox="0 0 298 156" fill="none" xmlns="http://www.w3.org/2000/svg">
    <rect x="158" y="132" width="578" height="2" fill="#FF1700"/>
    <path d="M105.792 78.2868C104.09 75.0292 105.355 71.0145 108.62 69.3168L137.082 54.5312C140.347 52.8336 144.37 54.0954 146.071 57.353C147.773 60.6107 146.508 64.6254 143.243 66.323L114.781 81.1086C111.516 82.8062 107.493 81.5445 105.792 78.2754" fill="#FF1700"/>
    <path d="M105.792 78.2868C104.09 75.0292 105.355 71.0145 108.62 69.3168L137.082 54.5312C140.347 52.8336 144.37 54.0954 146.071 57.353C147.773 60.6107 146.508 64.6254 143.243 66.323L114.781 81.1086C111.516 82.8062 107.493 81.5445 105.792 78.2754V78.2868Z" stroke="#170486" stroke-width="0.54" stroke-miterlimit="10"/>
    <path d="M131.15 94.4714C129.575 96.3182 126.794 96.5361 124.943 94.9647L109.252 81.59C107.401 80.0185 107.183 77.2426 108.757 75.3958C110.332 73.5491 113.114 73.3311 114.965 74.9141L130.656 88.2888C132.507 89.8603 132.725 92.6361 131.15 94.4829" fill="#FF1700"/>
    <path d="M131.15 94.4714C129.575 96.3182 126.794 96.5361 124.943 94.9647L109.252 81.59C107.401 80.0185 107.183 77.2426 108.757 75.3958C110.332 73.5491 113.114 73.3311 114.965 74.9141L130.656 88.2888C132.507 89.8603 132.725 92.6361 131.15 94.4829V94.4714Z" stroke="#170486" stroke-width="0.54" stroke-miterlimit="10"/>
    <path d="M130.794 97.6604C128.334 99.0254 125.241 98.1307 123.885 95.6875C122.528 93.2328 123.414 90.1472 125.862 88.7936C128.311 87.4401 131.414 88.3233 132.771 90.7666C134.127 93.2213 133.242 96.3069 130.794 97.6604Z" fill="#FF1700"/>
    <path d="M130.794 97.6604C128.334 99.0254 125.241 98.1307 123.885 95.6875C122.528 93.2328 123.414 90.1472 125.862 88.7936C128.311 87.4401 131.414 88.3233 132.771 90.7666C134.127 93.2213 133.242 96.3069 130.794 97.6604Z" stroke="#170486" stroke-width="0.54" stroke-miterlimit="10"/>
    <path d="M129.862 95.9624C128.345 96.7998 126.425 96.2607 125.586 94.7351C124.747 93.2209 125.287 91.3054 126.816 90.468C128.333 89.6307 130.253 90.1698 131.092 91.6954C131.931 93.2095 131.391 95.1251 129.862 95.9624Z" fill="#FF1700"/>
    <path d="M129.862 95.9624C128.345 96.7998 126.425 96.2607 125.586 94.7351C124.747 93.2209 125.287 91.3054 126.816 90.468C128.333 89.6307 130.253 90.1698 131.092 91.6954C131.931 93.2095 131.391 95.1251 129.862 95.9624Z" stroke="#170486" stroke-width="0.54" stroke-miterlimit="10"/>
    <path d="M78.9609 38.6218C78.9609 38.6218 90.9276 37.6582 99.3651 49.7368" stroke="#170486" stroke-width="0.54" stroke-miterlimit="10"/>
    <path d="M127.53 115.165C127.53 119.306 124.173 122.655 120.023 122.655C115.873 122.655 112.517 119.306 112.517 115.165C112.517 111.024 115.873 107.675 120.023 107.675C124.173 107.675 127.53 111.024 127.53 115.165Z" fill="#FF1700"/>
    <path d="M122.899 122.083C126.729 120.5 128.548 116.119 126.961 112.297C125.375 108.475 120.984 106.66 117.154 108.243C113.324 109.826 111.505 114.208 113.091 118.03C114.678 121.851 119.069 123.666 122.899 122.083Z" stroke="#170486" stroke-width="0.54" stroke-miterlimit="10"/>
    <path d="M127.966 82.1875H92.7559V85.0666H127.966V82.1875Z" fill="#FF1700"/>
    <path d="M127.966 82.1875H92.7559V85.0666H127.966V82.1875Z" stroke="#170486" stroke-width="0.54" stroke-miterlimit="10"/>
    <path d="M90.6565 77.8265L88.4717 79.707L120.517 116.778L122.702 114.897L90.6565 77.8265Z" fill="#FF1700"/>
    <path d="M90.6565 77.8265L88.4717 79.707L120.517 116.778L122.702 114.897L90.6565 77.8265Z" stroke="#170486" stroke-width="0.54" stroke-miterlimit="10"/>
    <path d="M93.2143 75.9L89.8516 91.8506L92.1576 92.3347L95.5204 76.3841L93.2143 75.9Z" fill="#FF1700"/>
    <path d="M93.2143 75.9L89.8516 91.8506L92.1576 92.3347L95.5204 76.3841L93.2143 75.9Z" stroke="#170486" stroke-width="0.54" stroke-miterlimit="10"/>
    <mask id="mask0_3403_13431" style="mask-type:luminance" maskUnits="userSpaceOnUse" x="65" y="28" width="41" height="33">
        <path d="M66.3047 39.9868C64.4654 47.1674 70.374 55.2082 80.306 60.4503C81.3406 59.9571 82.4441 59.5212 83.6281 59.1541C83.5247 56.6994 83.7546 54.2218 84.3868 51.7441C86.9848 41.6156 95.3879 34.3891 105.584 32.1982C103.676 31.4412 101.664 30.7874 99.5607 30.2482C95.5028 29.2159 91.5254 28.7227 87.7894 28.7227C76.8344 28.7227 68.0979 32.9438 66.2932 39.9868" fill="white"/>
    </mask>
    <g mask="url(#mask0_3403_13431)">
        <path d="M99.1041 13.7543L52.8779 33.7246L70.9594 75.3986L117.186 55.4282L99.1041 13.7543Z" fill="url(#paint0_linear_3403_13431)"/>
    </g>
    <path d="M83.6396 59.1547C83.5362 56.7114 83.7661 54.2223 84.3983 51.7447C86.9848 41.6162 95.3994 34.3897 105.596 32.1988C103.687 31.4417 101.676 30.7879 99.5722 30.2488C83.6166 26.1882 68.7302 30.547 66.3047 39.9873C64.4654 47.1679 70.374 55.2088 80.306 60.4394C81.3406 59.9462 82.4441 59.5103 83.6281 59.1432L83.6396 59.1547Z" stroke="#170486" stroke-width="0.54" stroke-miterlimit="10"/>
    <path d="M81.801 88.1172C69.2366 88.1172 59.0518 98.2801 59.0518 110.817C59.0518 123.355 69.2366 133.518 81.801 133.518C94.3654 133.518 104.55 123.355 104.55 110.817C104.55 98.2801 94.3654 88.1172 81.801 88.1172ZM81.801 130.272C71.0299 130.272 62.3049 121.565 62.3049 110.817C62.3049 100.07 71.0299 91.3634 81.801 91.3634C92.5721 91.3634 101.297 100.081 101.297 110.817C101.297 121.554 92.5721 130.272 81.801 130.272Z" fill="#FF1700"/>
    <path d="M81.801 88.1172C69.2366 88.1172 59.0518 98.2801 59.0518 110.817C59.0518 123.355 69.2366 133.518 81.801 133.518C94.3654 133.518 104.55 123.355 104.55 110.817C104.55 98.2801 94.3654 88.1172 81.801 88.1172ZM81.801 130.272C71.0299 130.272 62.3049 121.565 62.3049 110.817C62.3049 100.07 71.0299 91.3634 81.801 91.3634C92.5721 91.3634 101.297 100.081 101.297 110.817C101.297 121.554 92.5721 130.272 81.801 130.272Z" stroke="#170486" stroke-width="0.54" stroke-miterlimit="10"/>
    <path d="M83.9273 54.451C78.5704 51.136 76.5818 44.6437 79.5016 39.9522C82.4214 35.2607 89.1232 34.1366 94.4915 37.4516" stroke="#170486" stroke-width="0.54" stroke-miterlimit="10"/>
    <path d="M99.2388 73.6737L88.8408 77.1514L89.2061 78.239L99.6042 74.7613L99.2388 73.6737Z" fill="#FF1700"/>
    <path d="M99.2388 73.6737L88.8408 77.1514L89.2061 78.239L99.6042 74.7613L99.2388 73.6737Z" stroke="#170486" stroke-width="0.54" stroke-miterlimit="10"/>
    <path d="M80.7437 49.3699C80.7437 51.2396 79.2263 52.7652 77.3411 52.7652C75.4559 52.7652 73.9385 51.2511 73.9385 49.3699C73.9385 47.4887 75.4559 45.9746 77.3411 45.9746C79.2263 45.9746 80.7437 47.4887 80.7437 49.3699Z" fill="#FF1700"/>
    <path d="M78.6414 52.5105C80.3776 51.7929 81.202 49.8068 80.4829 48.0743C79.7638 46.3419 77.7733 45.5192 76.0372 46.2368C74.301 46.9544 73.4765 48.9405 74.1957 50.673C74.9148 52.4054 76.9052 53.2281 78.6414 52.5105Z" stroke="#170486" stroke-width="0.54" stroke-miterlimit="10"/>
    <path d="M79.1684 49.369C79.1684 50.3784 78.3523 51.1928 77.3407 51.1928C76.3291 51.1928 75.5244 50.3784 75.5244 49.369C75.5244 48.3596 76.3406 47.5566 77.3407 47.5566C78.3408 47.5566 79.1684 48.3711 79.1684 49.369Z" fill="#170486"/>
    <path d="M150.543 88.1172C137.979 88.1172 127.794 98.2801 127.794 110.817C127.794 123.355 137.979 133.518 150.543 133.518C163.108 133.518 173.292 123.355 173.292 110.817C173.292 98.2801 163.108 88.1172 150.543 88.1172ZM150.543 130.272C139.772 130.272 131.047 121.565 131.047 110.817C131.047 100.07 139.772 91.3634 150.543 91.3634C161.314 91.3634 170.039 100.081 170.039 110.817C170.039 121.554 161.314 130.272 150.543 130.272Z" fill="#FF1700"/>
    <path d="M150.543 88.1172C137.979 88.1172 127.794 98.2801 127.794 110.817C127.794 123.355 137.979 133.518 150.543 133.518C163.108 133.518 173.292 123.355 173.292 110.817C173.292 98.2801 163.108 88.1172 150.543 88.1172ZM150.543 130.272C139.772 130.272 131.047 121.565 131.047 110.817C131.047 100.07 139.772 91.3634 150.543 91.3634C161.314 91.3634 170.039 100.081 170.039 110.817C170.039 121.554 161.314 130.272 150.543 130.272Z" stroke="#170486" stroke-width="0.54" stroke-miterlimit="10"/>
    <mask id="mask1_3403_13431" style="mask-type:luminance" maskUnits="userSpaceOnUse" x="84" y="36" width="73" height="47">
        <path d="M103.516 36.7744C93.7101 42.4638 86.652 51.9729 85.0197 63.4779C84.7898 65.1182 84.6748 66.7471 84.6748 68.3644C88.7786 66.965 93.1584 65.8524 97.768 65.1068C122.471 61.1035 144.692 68.8921 150.336 82.76C154.084 78.8027 156.314 74.2144 156.555 69.2477C157.371 52.7071 135.875 38.2082 108.551 36.8776C107.194 36.8088 105.838 36.7744 104.504 36.7744C104.171 36.7744 103.849 36.7744 103.527 36.7744" fill="white"/>
    </mask>
    <g mask="url(#mask1_3403_13431)">
        <path d="M154.954 23.8252L76.4346 38.29L87.0572 95.7051L165.577 81.2402L154.954 23.8252Z" fill="url(#paint1_linear_3403_13431)"/>
    </g>
    <path d="M108.539 36.8663C106.838 36.786 105.159 36.7516 103.504 36.7746C93.6984 42.464 86.6403 51.9616 85.0079 63.4781C84.778 65.1184 84.6631 66.7472 84.6631 68.3646C88.7669 66.9651 93.1466 65.8525 97.7563 65.1069C122.448 61.1037 144.68 68.8922 150.324 82.7601C154.072 78.8028 156.302 74.2146 156.543 69.2478C157.36 52.7072 135.863 38.2084 108.539 36.8778V36.8663Z" stroke="#170486" stroke-width="0.54" stroke-miterlimit="10"/>
    <path d="M95.6299 65.5656C95.6299 65.5656 99.09 47.9123 109.942 45.8018C109.942 45.8018 156.636 50.4703 153.969 78.057" stroke="#170486" stroke-width="0.54" stroke-miterlimit="10"/>
    <path d="M96.4453 72.5634C96.4453 72.5634 99.6525 56.149 109.676 54.1875C109.676 54.1875 152.094 58.1334 150.22 82.7722" stroke="#170486" stroke-width="0.54" stroke-miterlimit="10"/>
    <path d="M108.539 36.8663C106.838 36.786 105.159 36.7516 103.504 36.7746C93.6984 42.464 86.6403 51.9616 85.0079 63.4781C84.778 65.1184 84.6631 66.7472 84.6631 68.3646C88.7669 66.9651 93.1466 65.8525 97.7563 65.1069C122.448 61.1037 144.68 68.8922 150.324 82.7601C154.072 78.8028 156.302 74.2146 156.543 69.2478C157.36 52.7072 135.863 38.2084 108.539 36.8778V36.8663Z" stroke="#170486" stroke-width="0.54" stroke-miterlimit="10"/>
    <path d="M102.757 53.8889L98.3769 47.8095C98.3769 47.8095 97.1124 46.4101 96.0204 48.2224L94.6984 75.2816C94.6984 75.2816 94.5375 78.6195 98.0091 79.2848C98.0091 79.2848 100.837 79.6518 101.009 75.9239L102.757 53.8774V53.8889Z" fill="#FF1700"/>
    <path d="M102.757 53.8889L98.3769 47.8095C98.3769 47.8095 97.1124 46.4101 96.0204 48.2224L94.6984 75.2816C94.6984 75.2816 94.5375 78.6195 98.0091 79.2848C98.0091 79.2848 100.837 79.6518 101.009 75.9239L102.757 53.8774V53.8889Z" stroke="#170486" stroke-width="0.54" stroke-miterlimit="10"/>
    <path d="M99.6762 74.9722C99.6762 76.0046 98.837 76.842 97.8025 76.842C96.7679 76.842 95.9287 76.0046 95.9287 74.9722C95.9287 73.9399 96.7679 73.1025 97.8025 73.1025C98.837 73.1025 99.6762 73.9399 99.6762 74.9722Z" fill="#FF1700"/>
    <path d="M99.6762 74.9722C99.6762 76.0046 98.837 76.842 97.8025 76.842C96.7679 76.842 95.9287 76.0046 95.9287 74.9722C95.9287 73.9399 96.7679 73.1025 97.8025 73.1025C98.837 73.1025 99.6762 73.9399 99.6762 74.9722Z" stroke="#170486" stroke-width="0.54" stroke-miterlimit="10"/>
    <path d="M91.0777 79.6632L77.3867 80.7414C76.0303 80.8447 74.8348 79.8352 74.7198 78.4702L74.6508 77.61C74.5474 76.2564 75.559 75.0635 76.9269 74.9488L90.6178 73.8705C91.9743 73.7673 93.1698 74.7767 93.2848 76.1417L93.3537 77.002C93.4572 78.3555 92.4456 79.5485 91.0777 79.6517" fill="#FF1700"/>
    <path d="M91.0777 79.6632L77.3867 80.7414C76.0303 80.8447 74.8348 79.8352 74.7198 78.4702L74.6508 77.61C74.5474 76.2564 75.559 75.0635 76.9269 74.9488L90.6178 73.8705C91.9743 73.7673 93.1698 74.7767 93.2848 76.1417L93.3537 77.002C93.4572 78.3555 92.4456 79.5485 91.0777 79.6517V79.6632Z" stroke="#170486" stroke-width="0.54" stroke-miterlimit="10"/>
    <path d="M71.5581 77.3796C71.3282 79.9261 73.202 82.1743 75.7539 82.4038C78.3059 82.6332 80.559 80.7635 80.7889 78.217C81.0188 75.6705 79.1451 73.4223 76.5931 73.1929C74.0411 72.9635 71.7881 74.8332 71.5581 77.3796Z" fill="#FF1700"/>
    <path d="M71.5581 77.3796C71.3282 79.9261 73.202 82.1743 75.7539 82.4038C78.3059 82.6332 80.559 80.7635 80.7889 78.217C81.0188 75.6705 79.1451 73.4223 76.5931 73.1929C74.0411 72.9635 71.7881 74.8332 71.5581 77.3796Z" stroke="#170486" stroke-width="0.49" stroke-miterlimit="10"/>
    <path d="M73.3169 77.5418C73.1789 79.1133 74.3285 80.5127 75.9148 80.6503C77.4897 80.7994 78.8806 79.6409 79.0301 78.058C79.168 76.4865 78.007 75.0986 76.4321 74.9494C74.8573 74.8003 73.4663 75.9589 73.3169 77.5418Z" fill="#FF1700"/>
    <path d="M73.3169 77.5418C73.1789 79.1133 74.3285 80.5127 75.9148 80.6503C77.4897 80.7994 78.8806 79.6409 79.0301 78.058C79.168 76.4865 78.007 75.0986 76.4321 74.9494C74.8573 74.8003 73.4663 75.9589 73.3169 77.5418Z" stroke="#170486" stroke-width="0.49" stroke-miterlimit="10"/>
    <path d="M91.9509 76.8417C91.9509 77.8396 91.1347 78.654 90.1346 78.654C89.1345 78.654 88.3184 77.8396 88.3184 76.8417C88.3184 75.8437 89.1345 75.0293 90.1346 75.0293C91.1347 75.0293 91.9509 75.8437 91.9509 76.8417Z" fill="#FF1700"/>
    <path d="M91.9509 76.8417C91.9509 77.8396 91.1347 78.654 90.1346 78.654C89.1345 78.654 88.3184 77.8396 88.3184 76.8417C88.3184 75.8437 89.1345 75.0293 90.1346 75.0293C91.1347 75.0293 91.9509 75.8437 91.9509 76.8417Z" stroke="#170486" stroke-width="0.52" stroke-miterlimit="10"/>
    <mask id="mask2_3403_13431" style="mask-type:luminance" maskUnits="userSpaceOnUse" x="75" y="54" width="8" height="7">
        <path d="M75.7891 57.6745L79.594 60.0604L82.031 55.6671L78.502 54.0039L75.7891 57.6745Z" fill="white"/>
    </mask>
    <g mask="url(#mask2_3403_13431)">
        <path d="M79.8583 55.8389C79.8583 55.8389 79.6973 58.9245 76.5361 59.7274" stroke="#170486" stroke-width="0.49" stroke-linecap="round" stroke-linejoin="round"/>
    </g>
    <path d="M119.012 119.42L117.724 119.237C115.678 118.939 114.252 117.046 114.551 115.004L117.69 93.3363C117.988 91.2945 119.885 89.8721 121.931 90.1704L123.219 90.3539C125.265 90.6521 126.69 92.5448 126.392 94.5866L123.253 116.254C122.954 118.296 121.058 119.719 119.012 119.42Z" fill="#FF1700"/>
    <path d="M119.012 119.42L117.724 119.237C115.678 118.939 114.252 117.046 114.551 115.004L117.69 93.3363C117.988 91.2945 119.885 89.8721 121.931 90.1704L123.219 90.3539C125.265 90.6521 126.69 92.5448 126.392 94.5866L123.253 116.254C122.954 118.296 121.058 119.719 119.012 119.42Z" stroke="#170486" stroke-width="0.54" stroke-miterlimit="10"/>
    <path d="M118.253 96.88C115.218 94.8038 114.436 90.663 116.517 87.6347L134.634 61.2065C136.714 58.1783 140.864 57.3983 143.899 59.4744C146.934 61.5506 147.715 65.6915 145.635 68.7197L127.518 95.148C125.437 98.1762 121.288 98.9562 118.253 96.88Z" fill="#FF1700"/>
    <path d="M118.253 96.88C115.218 94.8038 114.436 90.663 116.517 87.6347L134.634 61.2065C136.714 58.1783 140.864 57.3983 143.899 59.4744C146.934 61.5506 147.715 65.6915 145.635 68.7197L127.518 95.148C125.437 98.1762 121.288 98.9562 118.253 96.88Z" stroke="#170486" stroke-width="0.54" stroke-miterlimit="10"/>
    <path d="M121.483 119.73C119.023 121.095 115.931 120.2 114.574 117.757C113.218 115.302 114.103 112.217 116.552 110.863C119 109.509 122.104 110.393 123.46 112.836C124.817 115.291 123.932 118.376 121.483 119.73Z" fill="#FF1700"/>
    <path d="M121.483 119.73C119.023 121.095 115.931 120.2 114.574 117.757C113.218 115.302 114.103 112.217 116.552 110.863C119 109.509 122.104 110.393 123.46 112.836C124.817 115.291 123.932 118.376 121.483 119.73Z" stroke="#170486" stroke-width="0.54" stroke-miterlimit="10"/>
    <path d="M120.54 118.043C119.023 118.881 117.103 118.342 116.264 116.816C115.425 115.302 115.965 113.386 117.494 112.549C119.011 111.712 120.931 112.251 121.77 113.776C122.609 115.291 122.069 117.206 120.54 118.043Z" fill="#FF1700"/>
    <path d="M120.54 118.043C119.023 118.881 117.103 118.342 116.264 116.816C115.425 115.302 115.965 113.386 117.494 112.549C119.011 111.712 120.931 112.251 121.77 113.776C122.609 115.291 122.069 117.206 120.54 118.043Z" stroke="#170486" stroke-width="0.54" stroke-miterlimit="10"/>
    <defs>
        <linearGradient id="paint0_linear_3403_13431" x1="77.7525" y1="28.6307" x2="86.8082" y2="49.5925" gradientUnits="userSpaceOnUse">
            <stop stop-color="#170486"/>
            <stop offset="0.01" stop-color="#170486"/>
            <stop offset="1" stop-color="#1598FF"/>
        </linearGradient>
        <linearGradient id="paint1_linear_3403_13431" x1="120.038" y1="45.8425" x2="125.107" y2="73.3583" gradientUnits="userSpaceOnUse">
            <stop stop-color="#1598FF"/>
            <stop offset="0.99" stop-color="#170486"/>
            <stop offset="1" stop-color="#170486"/>
        </linearGradient>
    </defs>
</svg>
