<svg width="412" height="260" viewBox="0 0 412 260" fill="none" xmlns="http://www.w3.org/2000/svg">
    <rect x="345" y="190" width="70" height="2" fill="#FF1700"/>
    <path d="M168.281 44.9072C168.281 44.9072 187.871 48.8263 195.822 72.0352" stroke="#170486" stroke-width="0.54" stroke-miterlimit="10"/>
    <path d="M172.334 121.24L157.617 132.007L158.745 133.55L173.462 122.783L172.334 121.24Z" fill="#FF1700"/>
    <path d="M172.334 121.24L157.617 132.007L158.745 133.55L173.462 122.783L172.334 121.24Z" stroke="#170486" stroke-width="0.54" stroke-miterlimit="10"/>
    <path d="M198.175 94.2122L196.99 81.7857C196.99 81.7857 196.34 78.7078 193.244 80.4093L168.647 118.262C168.647 118.262 165.608 122.927 170.042 126.808C170.042 126.808 173.788 129.695 177.171 124.495L198.175 94.2122Z" fill="#FF1700"/>
    <path d="M198.175 94.2122L196.99 81.7857C196.99 81.7857 196.34 78.7078 193.244 80.4093L168.647 118.262C168.647 118.262 165.608 122.927 170.042 126.808C170.042 126.808 173.788 129.695 177.171 124.495L198.175 94.2122Z" stroke="#170486" stroke-width="0.54" stroke-miterlimit="10"/>
    <path d="M176.063 122.008C175.203 123.499 173.291 123.996 171.801 123.136C170.31 122.275 169.813 120.364 170.673 118.872C171.533 117.381 173.444 116.884 174.935 117.745C176.426 118.605 176.923 120.517 176.063 122.008Z" fill="#FF1700"/>
    <path d="M176.063 122.008C175.203 123.499 173.291 123.996 171.801 123.136C170.31 122.275 169.813 120.364 170.673 118.872C171.533 117.381 173.444 116.884 174.935 117.745C176.426 118.605 176.923 120.517 176.063 122.008Z" stroke="#170486" stroke-width="0.54" stroke-miterlimit="10"/>
    <path d="M166.909 133.212L148.905 147.263C147.109 148.659 144.529 148.334 143.133 146.556L142.254 145.428C140.859 143.631 141.184 141.05 142.961 139.655L160.965 125.603C162.762 124.208 165.342 124.533 166.737 126.31L167.616 127.438C169.011 129.235 168.686 131.816 166.909 133.212Z" fill="#FF1700"/>
    <path d="M142.956 139.651L160.951 125.613C162.744 124.214 165.32 124.533 166.718 126.327L167.6 127.457C168.998 129.251 168.68 131.827 166.887 133.226L148.877 147.276C147.083 148.675 144.508 148.356 143.11 146.562L142.228 145.432C140.83 143.638 141.148 141.062 142.941 139.663L142.956 139.651Z" stroke="#170486" stroke-width="0.54" stroke-miterlimit="10"/>
    <path d="M134.512 150.667C136.518 154.414 141.182 155.829 144.947 153.822C148.693 151.814 150.107 147.15 148.081 143.384C146.075 139.637 141.411 138.222 137.665 140.229C133.919 142.237 132.505 146.901 134.531 150.667" fill="#FF1700"/>
    <path d="M134.512 150.667C136.518 154.414 141.182 155.829 144.947 153.822C148.693 151.814 150.107 147.15 148.081 143.384C146.075 139.637 141.411 138.222 137.665 140.229C133.919 142.237 132.505 146.901 134.531 150.667H134.512Z" stroke="#170486" stroke-width="0.49" stroke-miterlimit="10"/>
    <path d="M137.092 149.27C138.334 151.584 141.22 152.463 143.551 151.22C145.864 149.978 146.743 147.091 145.501 144.759C144.259 142.445 141.373 141.566 139.041 142.809C136.728 144.051 135.849 146.938 137.092 149.27Z" fill="#FF1700"/>
    <path d="M137.092 149.27C138.334 151.584 141.22 152.463 143.551 151.22C145.864 149.978 146.743 147.091 145.501 144.759C144.259 142.445 141.373 141.566 139.041 142.809C136.728 144.051 135.849 146.938 137.092 149.27Z" stroke="#170486" stroke-width="0.49" stroke-miterlimit="10"/>
    <path d="M165.529 128.489C166.446 129.885 166.064 131.759 164.669 132.676C163.274 133.594 161.401 133.211 160.483 131.816C159.566 130.42 159.948 128.547 161.343 127.629C162.739 126.711 164.612 127.094 165.529 128.489Z" fill="#FF1700"/>
    <path d="M165.529 128.489C166.446 129.885 166.064 131.759 164.669 132.676C163.274 133.594 161.401 133.211 160.483 131.816C159.566 130.42 159.948 128.547 161.343 127.629C162.739 126.711 164.612 127.094 165.529 128.489Z" stroke="#170486" stroke-width="0.52" stroke-miterlimit="10"/>
    <mask id="mask0_3763_29094" style="mask-type:luminance" maskUnits="userSpaceOnUse" x="40" y="143" width="109" height="68">
        <path d="M143.243 146.059L79.1982 201.041C79.1982 201.041 72.9868 204.845 64.3672 203.45C55.7476 202.073 41.662 195.898 41.662 195.898C41.662 195.898 38.4893 204.826 42.9807 205.859C47.4721 206.891 61.615 213.104 75.07 208.287L148.518 146.059L144.772 143.401L143.243 146.059Z" fill="white"/>
    </mask>
    <g mask="url(#mask0_3763_29094)">
        <path d="M148.536 143.42H38.5078V213.142H148.536V143.42Z" fill="url(#paint0_linear_3763_29094)"/>
    </g>
    <path d="M143.243 146.058L79.1982 201.041C79.1982 201.041 72.9868 204.845 64.3672 203.449C55.7476 202.073 41.662 195.898 41.662 195.898C41.662 195.898 38.4893 204.826 42.9807 205.858C47.4721 206.891 61.615 213.104 75.07 208.267L148.518 146.039L144.772 143.382L143.243 146.039V146.058Z" stroke="#170486" stroke-width="0.54" stroke-miterlimit="10"/>
    <path d="M287.275 168.446L290.123 166.802C294.633 164.202 296.181 158.428 293.582 153.897L265.258 104.822C262.658 100.31 256.887 98.7619 252.357 101.362L249.509 103.006C244.999 105.606 243.451 111.399 246.05 115.91L274.374 164.985C276.973 169.497 282.745 171.046 287.275 168.446Z" fill="#FF1700"/>
    <path d="M287.275 168.446L290.123 166.802C294.633 164.202 296.181 158.428 293.582 153.897L265.258 104.822C262.658 100.31 256.887 98.7619 252.357 101.362L249.509 103.006C244.999 105.606 243.451 111.399 246.05 115.91L274.374 164.985C276.973 169.497 282.745 171.046 287.275 168.446Z" stroke="#170486" stroke-width="0.54" stroke-miterlimit="10"/>
    <path d="M340.712 187.659L341.667 185.709C343.196 182.631 341.916 178.884 338.839 177.374L284.962 150.819C281.865 149.29 278.139 150.571 276.61 153.649L275.654 155.599C274.125 158.677 275.406 162.424 278.483 163.934L332.36 190.488C335.456 192.018 339.183 190.737 340.712 187.659Z" fill="#FF1700"/>
    <path d="M340.712 187.659L341.667 185.709C343.196 182.631 341.916 178.884 338.839 177.374L284.962 150.819C281.865 149.29 278.139 150.571 276.61 153.649L275.654 155.599C274.125 158.677 275.406 162.424 278.483 163.934L332.36 190.488C335.456 192.018 339.183 190.737 340.712 187.659Z" stroke="#170486" stroke-width="0.54" stroke-miterlimit="10"/>
    <path d="M334.195 195.707C338.553 197.351 343.446 195.153 345.089 190.794C346.733 186.416 344.535 181.541 340.177 179.897C335.82 178.234 330.927 180.451 329.283 184.81C327.64 189.169 329.838 194.063 334.195 195.707Z" fill="#FF1700"/>
    <path d="M334.195 195.707C338.553 197.351 343.446 195.153 345.089 190.794C346.733 186.416 344.535 181.541 340.177 179.897C335.82 178.234 330.927 180.451 329.283 184.81C327.64 189.169 329.838 194.063 334.195 195.707Z" stroke="#170486" stroke-width="0.54" stroke-miterlimit="10"/>
    <path d="M335.339 192.706C338.034 193.738 341.054 192.362 342.086 189.666C343.118 186.971 341.742 183.95 339.047 182.918C336.352 181.885 333.332 183.262 332.3 185.957C331.268 188.653 332.644 191.674 335.339 192.706Z" fill="#FF1700"/>
    <path d="M335.339 192.706C338.034 193.738 341.054 192.362 342.086 189.666C343.118 186.971 341.742 183.95 339.047 182.918C336.352 181.885 333.332 183.262 332.3 185.957C331.268 188.653 332.644 191.674 335.339 192.706Z" stroke="#170486" stroke-width="0.54" stroke-miterlimit="10"/>
    <mask id="mask1_3763_29094" style="mask-type:luminance" maskUnits="userSpaceOnUse" x="168" y="65" width="108" height="107">
        <path d="M173.595 87.1577C171.837 89.2798 170.251 91.5165 168.855 93.8106C175.889 95.3783 183.075 97.6151 190.261 100.54C228.753 116.312 253.484 146.671 249.432 171.294C258.186 168.924 265.334 164.336 270.016 157.492C285.573 134.684 267.704 95.4165 230.129 69.7798C227.797 68.193 225.447 66.6827 223.077 65.2871C222.542 65.2871 222.025 65.2871 221.49 65.2871C203.219 65.2871 185.598 72.6665 173.614 87.1768" fill="white"/>
    </mask>
    <g mask="url(#mask1_3763_29094)">
        <path d="M183.866 26.1855L133.332 157.662L270.497 210.412L321.031 78.9359L183.866 26.1855Z" fill="url(#paint1_linear_3763_29094)"/>
    </g>
    <path d="M230.11 69.7983C227.778 68.2115 225.427 66.7012 223.058 65.3057C204.213 64.866 185.923 72.2454 173.595 87.1762C171.837 89.2983 170.27 91.5351 168.855 93.8292C175.889 95.3968 183.075 97.6336 190.261 100.559C228.753 116.331 253.484 146.689 249.432 171.313C258.186 168.942 265.334 164.354 270.016 157.51C285.573 134.703 267.704 95.4351 230.129 69.7983H230.11Z" stroke="#170486" stroke-width="0.54" stroke-miterlimit="10"/>
    <path d="M186.822 99.3545C186.822 99.3545 207.1 77.2736 224.301 83.6971C224.301 83.6971 286.435 130.899 258.646 167.777" stroke="#170486" stroke-width="0.54" stroke-miterlimit="10"/>
    <path d="M181.891 110.023C181.891 110.023 200.716 89.4903 216.656 95.4168C216.656 95.4168 273.361 137.877 249.261 171.276" stroke="#170486" stroke-width="0.54" stroke-miterlimit="10"/>
    <path d="M183.345 154.929L184.224 158.103C185.619 163.131 190.817 166.075 195.844 164.679L250.409 149.519C255.436 148.123 258.379 142.923 256.984 137.895L256.105 134.722C254.709 129.694 249.511 126.75 244.484 128.145L189.919 143.306C184.893 144.701 181.949 149.901 183.345 154.929Z" fill="#FF1700"/>
    <path d="M189.911 143.296L244.491 128.124C249.518 126.727 254.719 129.666 256.116 134.695L256.996 137.863C258.393 142.892 255.454 148.093 250.427 149.491L195.847 164.662C190.82 166.06 185.619 163.12 184.222 158.092L183.342 154.924C181.945 149.895 184.884 144.693 189.911 143.296Z" stroke="#170486" stroke-width="0.54" stroke-miterlimit="10"/>
    <path d="M227.455 193.642L229.079 192.209C231.659 189.934 231.908 185.995 229.633 183.415L198.366 147.99C196.092 145.409 192.155 145.16 189.574 147.435L187.95 148.869C185.37 151.144 185.121 155.082 187.396 157.663L218.663 193.088C220.937 195.669 224.875 195.917 227.455 193.642Z" fill="#FF1700"/>
    <path d="M227.455 193.642L229.079 192.209C231.659 189.934 231.908 185.995 229.633 183.415L198.366 147.99C196.092 145.409 192.155 145.16 189.574 147.435L187.95 148.869C185.37 151.144 185.121 155.082 187.396 157.663L218.663 193.088C220.937 195.669 224.875 195.917 227.455 193.642Z" stroke="#170486" stroke-width="0.49" stroke-miterlimit="10"/>
    <path d="M212.699 194.656C215.107 198.671 220.287 199.971 224.3 197.562C228.314 195.153 229.594 189.972 227.205 185.958C224.797 181.943 219.618 180.643 215.604 183.052C211.591 185.46 210.31 190.641 212.699 194.656Z" fill="#FF1700"/>
    <path d="M212.699 194.656C215.107 198.671 220.287 199.971 224.3 197.562C228.314 195.153 229.594 189.972 227.205 185.958C224.797 181.943 219.618 180.643 215.604 183.052C211.591 185.46 210.31 190.641 212.699 194.656Z" stroke="#170486" stroke-width="0.54" stroke-miterlimit="10"/>
    <path d="M215.47 193.013C216.96 195.499 220.171 196.302 222.637 194.81C225.121 193.319 225.924 190.107 224.433 187.641C222.942 185.156 219.732 184.353 217.247 185.844C214.762 187.335 213.96 190.547 215.45 193.013" fill="#FF1700"/>
    <path d="M215.47 193.013C216.96 195.499 220.171 196.302 222.637 194.81C225.121 193.319 225.924 190.107 224.433 187.641C222.942 185.156 219.732 184.353 217.247 185.844C214.762 187.335 213.96 190.547 215.45 193.013H215.47Z" stroke="#170486" stroke-width="0.54" stroke-miterlimit="10"/>
    <path d="M173.834 122.376L159.117 133.143L160.245 134.686L174.962 123.919L173.834 122.376Z" fill="#FF1700"/>
    <path d="M173.834 122.376L159.117 133.143L160.245 134.686L174.962 123.919L173.834 122.376Z" stroke="#170486" stroke-width="0.54" stroke-miterlimit="10"/>
    <path d="M199.665 95.3411L198.48 82.9146C198.48 82.9146 197.83 79.8367 194.734 81.5382L170.137 119.391C170.137 119.391 167.098 124.056 171.532 127.937C171.532 127.937 175.278 130.823 178.661 125.623L199.665 95.3411Z" fill="#FF1700"/>
    <path d="M199.665 95.3411L198.48 82.9146C198.48 82.9146 197.83 79.8367 194.734 81.5382L170.137 119.391C170.137 119.391 167.098 124.056 171.532 127.937C171.532 127.937 175.278 130.823 178.661 125.623L199.665 95.3411Z" stroke="#170486" stroke-width="0.54" stroke-miterlimit="10"/>
    <path d="M177.553 123.138C176.693 124.629 174.782 125.126 173.291 124.266C171.8 123.405 171.303 121.494 172.163 120.002C173.023 118.511 174.935 118.014 176.425 118.874C177.916 119.735 178.413 121.646 177.553 123.138Z" fill="#FF1700"/>
    <path d="M177.553 123.138C176.693 124.629 174.782 125.126 173.291 124.266C171.8 123.405 171.303 121.494 172.163 120.002C173.023 118.511 174.935 118.014 176.425 118.874C177.916 119.735 178.413 121.646 177.553 123.138Z" stroke="#170486" stroke-width="0.54" stroke-miterlimit="10"/>
    <path d="M168.378 134.358L150.374 148.41C148.577 149.805 145.997 149.48 144.602 147.703L143.723 146.575C142.328 144.778 142.653 142.197 144.43 140.801L162.434 126.75C164.23 125.354 166.81 125.679 168.206 127.457L169.085 128.585C170.48 130.382 170.155 132.963 168.378 134.358Z" fill="#FF1700"/>
    <path d="M144.426 140.784L162.42 126.746C164.214 125.347 166.789 125.666 168.188 127.46L169.069 128.59C170.468 130.384 170.149 132.96 168.356 134.359L150.361 148.397C148.568 149.796 145.993 149.477 144.594 147.683L143.713 146.553C142.314 144.759 142.632 142.183 144.426 140.784Z" stroke="#170486" stroke-width="0.54" stroke-miterlimit="10"/>
    <path d="M135.984 151.794C137.991 155.541 142.654 156.956 146.42 154.949C150.166 152.941 151.58 148.277 149.554 144.511C147.547 140.763 142.884 139.349 139.138 141.356C135.392 143.363 133.978 148.028 136.003 151.794" fill="#FF1700"/>
    <path d="M135.984 151.794C137.991 155.541 142.654 156.956 146.42 154.949C150.166 152.941 151.58 148.277 149.554 144.511C147.547 140.763 142.884 139.349 139.138 141.356C135.392 143.363 133.978 148.028 136.003 151.794H135.984Z" stroke="#170486" stroke-width="0.49" stroke-miterlimit="10"/>
    <path d="M138.564 150.399C139.807 152.712 142.692 153.592 145.024 152.349C147.337 151.107 148.216 148.22 146.974 145.887C145.731 143.574 142.845 142.695 140.514 143.937C138.201 145.18 137.322 148.067 138.564 150.399Z" fill="#FF1700"/>
    <path d="M138.564 150.399C139.807 152.712 142.692 153.592 145.024 152.349C147.337 151.107 148.216 148.22 146.974 145.887C145.731 143.574 142.845 142.695 140.514 143.937C138.201 145.18 137.322 148.067 138.564 150.399Z" stroke="#170486" stroke-width="0.49" stroke-miterlimit="10"/>
    <path d="M167.002 129.636C167.919 131.031 167.537 132.905 166.142 133.823C164.746 134.74 162.873 134.358 161.956 132.962C161.039 131.567 161.421 129.693 162.816 128.776C164.211 127.858 166.084 128.24 167.002 129.636Z" fill="#FF1700"/>
    <path d="M167.002 129.636C167.919 131.031 167.537 132.905 166.142 133.823C164.746 134.74 162.873 134.358 161.956 132.962C161.039 131.567 161.421 129.693 162.816 128.776C164.211 127.858 166.084 128.24 167.002 129.636Z" stroke="#170486" stroke-width="0.52" stroke-miterlimit="10"/>
    <path d="M29.1816 212.092V214.845C29.1816 215.705 31.2649 216.393 33.845 216.393C36.4251 216.393 38.5084 215.705 38.5084 214.845V212.092H29.1816Z" fill="#FF1700"/>
    <path d="M29.1816 212.092V214.845C29.1816 215.705 31.2649 216.393 33.845 216.393C36.4251 216.393 38.5084 215.705 38.5084 214.845V212.092H29.1816Z" stroke="#170486" stroke-width="0.54" stroke-miterlimit="10"/>
    <path d="M38.5084 211.92C38.5084 212.78 36.4251 213.468 33.845 213.468C31.2649 213.468 29.1816 212.78 29.1816 211.92C29.1816 211.059 31.2649 210.371 33.845 210.371C36.4251 210.371 38.5084 211.059 38.5084 211.92Z" fill="#FF1700"/>
    <path d="M38.5084 211.92C38.5084 212.78 36.4251 213.468 33.845 213.468C31.2649 213.468 29.1816 212.78 29.1816 211.92C29.1816 211.059 31.2649 210.371 33.845 210.371C36.4251 210.371 38.5084 211.059 38.5084 211.92Z" stroke="#170486" stroke-width="0.54" stroke-miterlimit="10"/>
    <mask id="mask2_3763_29094" style="mask-type:luminance" maskUnits="userSpaceOnUse" x="141" y="15" width="65" height="59">
        <path d="M141.678 44.1612C141.678 60.2774 155.878 73.3348 173.385 73.3348C190.892 73.3348 205.092 60.2774 205.092 44.1612C205.092 28.0451 190.911 15.0068 173.385 15.0068C155.859 15.0068 141.678 28.0642 141.678 44.1612Z" fill="white"/>
    </mask>
    <g mask="url(#mask2_3763_29094)">
        <path d="M205.111 15.0068H141.678V73.3348H205.111V15.0068Z" fill="url(#paint2_linear_3763_29094)"/>
    </g>
    <path d="M205.113 44.1612C205.113 60.2774 190.913 73.3348 173.406 73.3348C155.9 73.3348 141.699 60.2774 141.699 44.1612C141.699 28.0451 155.88 15.0068 173.387 15.0068C190.894 15.0068 205.094 28.0642 205.094 44.1612H205.113Z" stroke="#170486" stroke-width="0.54" stroke-miterlimit="10"/>
    <mask id="mask3_3763_29094" style="mask-type:luminance" maskUnits="userSpaceOnUse" x="141" y="26" width="37" height="41">
        <path d="M141.699 46.8388C141.699 57.8124 149.707 66.7021 159.588 66.7021C169.469 66.7021 177.477 57.8124 177.477 46.8388C177.477 35.8653 169.469 26.9756 159.588 26.9756C149.707 26.9756 141.699 35.8653 141.699 46.8388Z" fill="white"/>
    </mask>
    <g mask="url(#mask3_3763_29094)">
        <path d="M168.552 11.4692L124.508 36.9053L150.653 82.2035L194.697 56.7675L168.552 11.4692Z" fill="url(#paint3_linear_3763_29094)"/>
    </g>
    <path d="M177.477 46.8388C177.477 57.8124 169.469 66.7021 159.588 66.7021C149.707 66.7021 141.699 57.8124 141.699 46.8388C141.699 35.8653 149.707 26.9756 159.588 26.9756C169.469 26.9756 177.477 35.8653 177.477 46.8388Z" stroke="#170486" stroke-width="0.54" stroke-miterlimit="10"/>
    <path d="M171.36 46.8C171.36 55.8044 165.206 63.0882 157.619 63.0882C150.031 63.0882 143.877 55.7852 143.877 46.8C143.877 37.8147 150.031 30.5117 157.619 30.5117C165.206 30.5117 171.36 37.8147 171.36 46.8Z" fill="#170486"/>
    <path d="M171.36 46.8C171.36 55.8044 165.206 63.0882 157.619 63.0882C150.031 63.0882 143.877 55.7852 143.877 46.8C143.877 37.8147 150.031 30.5117 157.619 30.5117C165.206 30.5117 171.36 37.8147 171.36 46.8Z" stroke="#170486" stroke-width="0.54" stroke-miterlimit="10"/>
    <mask id="mask4_3763_29094" style="mask-type:luminance" maskUnits="userSpaceOnUse" x="189" y="48" width="11" height="11">
        <path d="M189.246 53.3774C189.246 56.2068 191.54 58.501 194.368 58.501C197.197 58.501 199.49 56.2068 199.49 53.3774C199.49 50.548 197.197 48.2539 194.368 48.2539C191.54 48.2539 189.246 50.548 189.246 53.3774Z" fill="white"/>
    </mask>
    <g mask="url(#mask4_3763_29094)">
        <path d="M199.471 48.2539H189.246V58.4818H199.471V48.2539Z" fill="url(#paint4_linear_3763_29094)"/>
    </g>
    <path d="M199.473 53.3765C199.473 56.2059 197.179 58.5 194.351 58.5C191.522 58.5 189.229 56.2059 189.229 53.3765C189.229 50.547 191.522 48.2529 194.351 48.2529C197.179 48.2529 199.473 50.547 199.473 53.3765Z" stroke="#170486" stroke-width="0.54" stroke-miterlimit="10"/>
    <path d="M198.461 54.3893C198.461 55.5173 197.544 56.4349 196.416 56.4349C195.288 56.4349 194.371 55.5173 194.371 54.3893C194.371 53.2614 195.288 52.3438 196.416 52.3438C197.544 52.3438 198.461 53.2614 198.461 54.3893Z" fill="#170486"/>
    <path d="M174.417 46.8C174.417 55.8044 168.263 63.0882 160.675 63.0882C153.088 63.0882 146.934 55.7852 146.934 46.8C146.934 37.8147 153.088 30.5117 160.675 30.5117C168.263 30.5117 174.417 37.8147 174.417 46.8Z" fill="#FF1700"/>
    <path d="M174.417 46.8C174.417 55.8044 168.263 63.0882 160.675 63.0882C153.088 63.0882 146.934 55.7852 146.934 46.8C146.934 37.8147 153.088 30.5117 160.675 30.5117C168.263 30.5117 174.417 37.8147 174.417 46.8Z" stroke="#170486" stroke-width="0.54" stroke-miterlimit="10"/>
    <path d="M167.232 46.2645C167.232 49.916 164.289 52.8601 160.639 52.8601C156.988 52.8601 154.045 49.916 154.045 46.2645C154.045 42.6131 156.988 39.6689 160.639 39.6689C164.289 39.6689 167.232 42.6131 167.232 46.2645Z" fill="#FF1700"/>
    <path d="M167.232 46.2645C167.232 49.916 164.289 52.8601 160.639 52.8601C156.988 52.8601 154.045 49.916 154.045 46.2645C154.045 42.6131 156.988 39.6689 160.639 39.6689C164.289 39.6689 167.232 42.6131 167.232 46.2645Z" stroke="#170486" stroke-width="0.54" stroke-miterlimit="10"/>
    <path d="M159.052 45.1936C159.052 46.6083 157.905 47.7554 156.491 47.7554C155.076 47.7554 153.93 46.6083 153.93 45.1936C153.93 43.7789 155.076 42.6318 156.491 42.6318C157.905 42.6318 159.052 43.7789 159.052 45.1936Z" fill="#170486"/>
    <defs>
        <linearGradient id="paint0_linear_3763_29094" x1="40.5903" y1="179.216" x2="148.536" y2="179.216" gradientUnits="userSpaceOnUse">
            <stop stop-color="#1598FF"/>
            <stop offset="0.99" stop-color="#170486"/>
            <stop offset="1" stop-color="#170486"/>
        </linearGradient>
        <linearGradient id="paint1_linear_3763_29094" x1="239.036" y1="94.482" x2="222.299" y2="138.001" gradientUnits="userSpaceOnUse">
            <stop stop-color="#1598FF"/>
            <stop offset="0.99" stop-color="#170486"/>
            <stop offset="1" stop-color="#170486"/>
        </linearGradient>
        <linearGradient id="paint2_linear_3763_29094" x1="139.912" y1="42.1482" x2="203.346" y2="42.1482" gradientUnits="userSpaceOnUse">
            <stop stop-color="#1598FF"/>
            <stop offset="0.99" stop-color="#170486"/>
            <stop offset="1" stop-color="#170486"/>
        </linearGradient>
        <linearGradient id="paint3_linear_3763_29094" x1="148.773" y1="32.0856" x2="168.171" y2="65.6737" gradientUnits="userSpaceOnUse">
            <stop stop-color="#170486"/>
            <stop offset="0.01" stop-color="#170486"/>
            <stop offset="1" stop-color="#1598FF"/>
        </linearGradient>
        <linearGradient id="paint4_linear_3763_29094" x1="190.743" y1="55.7681" x2="200.968" y2="55.7681" gradientUnits="userSpaceOnUse">
            <stop stop-color="#170486"/>
            <stop offset="0.01" stop-color="#170486"/>
            <stop offset="1" stop-color="#1598FF"/>
        </linearGradient>
    </defs>
</svg>
