<svg xmlns="http://www.w3.org/2000/svg" width="24" height="24" viewBox="0 0 24 24" fill="none">
    <path d="M11.75 3.25C11.7571 3.25 11.7643 3.25006 11.7714 3.25018C11.7978 3.25064 11.8238 3.2519 11.8499 3.25397C11.8691 3.25546 11.8882 3.25741 11.9072 3.25979C11.9296 3.26268 11.9526 3.26622 11.9755 3.27039C11.994 3.27368 12.0117 3.27731 12.0293 3.28131C12.0532 3.28688 12.0779 3.29329 12.1024 3.30047C12.1172 3.30471 12.1312 3.3091 12.1451 3.31373C12.1705 3.32221 12.1962 3.33169 12.2216 3.34204C12.2361 3.34794 12.2502 3.354 12.2642 3.36031C12.2861 3.37016 12.3081 3.38088 12.3299 3.39228C12.3482 3.40199 12.3661 3.41191 12.3836 3.42224C12.4025 3.43328 12.4215 3.44513 12.4402 3.45754C12.4544 3.46712 12.4685 3.47689 12.4824 3.48694C12.5354 3.52525 12.5861 3.56835 12.6339 3.61612L12.5403 3.53151C12.5419 3.53282 12.5435 3.53413 12.5451 3.53544L12.6339 3.61612L19.5089 10.4911C19.997 10.9793 19.997 11.7707 19.5089 12.2589C19.0207 12.747 18.2293 12.747 17.7411 12.2589L13 7.517V20.125C13 20.7722 12.5081 21.3045 11.8778 21.3685L11.75 21.375C11.0596 21.375 10.5 20.8154 10.5 20.125V7.517L5.75888 12.2589C5.30327 12.7145 4.58345 12.7449 4.09261 12.35L3.99112 12.2589C3.50296 11.7707 3.50296 10.9793 3.99112 10.4911L10.8661 3.61612L10.9549 3.53544C10.9565 3.53413 10.9581 3.53282 10.9597 3.53151C10.9784 3.51612 10.9978 3.50115 11.0176 3.48683C11.0315 3.47689 11.0456 3.46712 11.0599 3.45763C11.0785 3.44513 11.0975 3.43328 11.1166 3.42198C11.1339 3.41191 11.1518 3.40199 11.1698 3.3925C11.1919 3.38088 11.2139 3.37016 11.2361 3.36013C11.2498 3.354 11.2639 3.34794 11.2781 3.34213C11.3038 3.33169 11.3295 3.32221 11.3555 3.3136C11.3688 3.3091 11.3828 3.30471 11.3969 3.30056C11.4221 3.29329 11.4468 3.28688 11.4716 3.28123C11.4883 3.27731 11.506 3.27368 11.5238 3.27042C11.5474 3.26622 11.5704 3.26268 11.5934 3.25979C11.6443 3.25333 11.6968 3.25 11.75 3.25L11.6491 3.25405C11.6758 3.2519 11.7026 3.25061 11.7293 3.25017L11.75 3.25Z"
          fill="#2787F5"/>
</svg>