<svg width="17" height="17" viewBox="0 0 17 17" fill="none" xmlns="http://www.w3.org/2000/svg">
    <path fill-rule="evenodd" clip-rule="evenodd"
          d="M7.89381 1.01191C6.52868 1.13015 5.24087 1.60484 4.13222 2.39844C3.79159 2.64228 3.52651 2.86897 3.1997 3.19589C2.62168 3.77412 2.20057 4.34814 1.83948 5.05004C1.35392 5.99389 1.09355 6.91391 1.01377 7.96768C0.98648 8.32789 1.00138 9.01683 1.04417 9.37422C1.21261 10.7813 1.76317 12.0883 2.66147 13.2137C2.92396 13.5426 3.4609 14.0797 3.78965 14.3423C4.92506 15.2492 6.16953 15.7734 7.6373 15.963C8.01763 16.0121 8.98895 16.0124 9.36636 15.9635C11.0824 15.741 12.5335 15.047 13.7435 13.87C14.9637 12.6831 15.7175 11.1693 15.9539 9.4309C16.0115 9.00719 16.016 8.04933 15.9624 7.63505C15.7721 6.16437 15.2493 4.92247 14.3422 3.78605C14.0797 3.45719 13.5428 2.92006 13.214 2.65747C12.0871 1.7573 10.8034 1.21599 9.37586 1.03888C9.0915 1.0036 8.181 0.987025 7.89381 1.01191ZM8.92935 1.94315C10.2698 2.03361 11.4756 2.49703 12.568 3.34147C12.832 3.54555 13.3979 4.10401 13.606 4.36578C14.4231 5.39379 14.8935 6.52464 15.0409 7.81562C15.077 8.13192 15.0718 8.93793 15.0316 9.25951C14.9387 10.0021 14.736 10.695 14.4226 11.3416C14.0856 12.0367 13.7274 12.5457 13.1872 13.0968C12.101 14.2049 10.7492 14.8605 9.17636 15.0418C8.9044 15.0732 8.09734 15.0727 7.8178 15.041C7.33655 14.9865 6.806 14.8674 6.36425 14.7147C4.70653 14.1419 3.33349 12.9142 2.57312 11.3248C1.80657 9.7225 1.72585 7.8742 2.34932 6.19999C2.85216 4.84978 3.81749 3.67788 5.06855 2.89896C5.31887 2.74308 5.81023 2.4979 6.10158 2.38346C7.00013 2.03051 7.97484 1.87874 8.92935 1.94315ZM8.36953 3.82737C8.24629 3.86275 8.15522 3.94199 8.07842 4.08067L8.03631 4.1567V6.37106C8.03631 8.19799 8.04087 8.59832 8.06236 8.65918C8.09552 8.75312 8.20168 8.87097 8.30103 8.92417L8.37832 8.96556H10.1454H11.9125L11.9898 8.92417C12.2698 8.77424 12.3393 8.41891 12.1334 8.19023C12.0955 8.14811 12.026 8.09577 11.979 8.07393C11.8949 8.03489 11.8687 8.03411 10.4356 8.02888L8.97772 8.02358L8.97253 6.09013L8.96735 4.1567L8.91204 4.05683C8.80132 3.85695 8.58511 3.76551 8.36953 3.82737Z"
          fill="#717184" stroke="#717184" stroke-width="0.2"/>
</svg>
