<svg width="32" height="32" viewBox="0 0 32 32" fill="none" xmlns="http://www.w3.org/2000/svg">
    <path fill-rule="evenodd" clip-rule="evenodd"
          d="M8.39052 8.39052C7.86983 8.91122 7.86983 9.75544 8.39052 10.2761L21.7239 23.6095C22.2446 24.1302 23.0888 24.1302 23.6095 23.6095C24.1302 23.0888 24.1302 22.2446 23.6095 21.7239L10.2761 8.39052C9.75544 7.86983 8.91122 7.86983 8.39052 8.39052Z"
          fill="white"/>
    <path fill-rule="evenodd" clip-rule="evenodd"
          d="M23.6095 8.39052C24.1302 8.91122 24.1302 9.75544 23.6095 10.2761L10.2761 23.6095C9.75544 24.1302 8.91122 24.1302 8.39052 23.6095C7.86983 23.0888 7.86983 22.2446 8.39052 21.7239L21.7239 8.39052C22.2446 7.86983 23.0888 7.86983 23.6095 8.39052Z"
          fill="white"/>
</svg>
