<svg width="74" height="74" viewBox="0 0 74 74" fill="none" xmlns="http://www.w3.org/2000/svg">
    <rect width="74" height="74" rx="37" fill="#00CE5C"/>
    <path d="M43.6667 49.0013C39.9853 49.0013 37 46.0173 37 42.336C37 38.7293 40.0667 35.6653 43.6733 35.668C47.352 35.6706 50.3333 38.6546 50.3333 42.3346C50.3333 46.016 47.3493 49.0013 43.6667 49.0013" stroke="white" stroke-width="2.5" stroke-linecap="round" stroke-linejoin="round"/>
    <path d="M23.666 30.1315H48.9993" stroke="white" stroke-width="2.5" stroke-linecap="round" stroke-linejoin="round"/>
    <path d="M48.9993 38.3333V27.6667C48.9993 26.1933 47.806 25 46.3327 25H26.3327C24.8593 25 23.666 26.1933 23.666 27.6667V39.6667C23.666 41.14 24.8593 42.3333 26.3327 42.3333H36.9993" stroke="white" stroke-width="2.5" stroke-linecap="round" stroke-linejoin="round"/>
    <path d="M46.6285 40.8516L42.9245 44.5556L40.7031 42.3329" stroke="white" stroke-width="2.5" stroke-linecap="round" stroke-linejoin="round"/>
</svg>
