<svg width="40" height="40" viewBox="0 0 40 40" fill="none" xmlns="http://www.w3.org/2000/svg">
    <path fill-rule="evenodd" clip-rule="evenodd" d="M23.3333 33.3337H31.6667C33.5083 33.3337 35 31.842 35 30.0003V10.0003C35 8.15866 33.5083 6.66699 31.6667 6.66699H8.33333C6.49167 6.66699 5 8.15866 5 10.0003V30.0003C5 31.842 6.49167 33.3337 8.33333 33.3337H16.6667L20 36.667L23.3333 33.3337Z" stroke="white" stroke-width="1.5" stroke-linecap="round" stroke-linejoin="round"/>
    <path fill-rule="evenodd" clip-rule="evenodd" d="M15.1383 26.653H12.835C12.32 26.653 11.9033 26.2363 11.9033 25.7213V18.418C11.9033 17.903 12.32 17.4863 12.835 17.4863H15.1383C15.6533 17.4863 16.07 17.903 16.07 18.488V25.7913C16.07 26.2363 15.6533 26.653 15.1383 26.653V26.653Z" stroke="white" stroke-width="1.5" stroke-linecap="round" stroke-linejoin="round"/>
    <path d="M16.0698 19.4613L19.1465 14.4263C20.3315 12.488 23.3165 13.3263 23.3165 15.5997V18.258H24.7998H25.8332C26.5882 18.258 27.2932 18.6363 27.7132 19.268C28.0848 19.8263 28.1932 20.5213 28.0082 21.1663L26.7882 25.4363C26.5815 26.1563 25.9232 26.653 25.1748 26.653H19.2032C18.7182 26.653 18.2465 26.483 17.8732 26.173L16.0698 24.678" stroke="white" stroke-width="1.5" stroke-linecap="round" stroke-linejoin="round"/>
</svg>
