<svg width="40" height="40" viewBox="0 0 40 40" fill="none" xmlns="http://www.w3.org/2000/svg">
    <path d="M21.5665 18.4336L9.7832 30.2169" stroke="white" stroke-width="1.5" stroke-linecap="round" stroke-linejoin="round"/>
    <path d="M11.0549 21.665L5.28325 20.3017C4.64825 20.1517 4.42492 19.3633 4.88492 18.9017L9.47492 14.3117C9.78325 14.0033 10.2016 13.8267 10.6399 13.8233L15.8149 13.7783" stroke="white" stroke-width="1.5" stroke-linecap="round" stroke-linejoin="round"/>
    <path fill-rule="evenodd" clip-rule="evenodd" d="M33.1316 14.9584L34.4783 8.47836C34.845 6.71503 33.285 5.15503 31.5216 5.5217L25.0416 6.86836C23.1333 7.26503 21.3833 8.21003 20.0066 9.58836L14.69 14.9034C12.6616 16.9317 11.3416 19.5617 10.925 22.4L10.9066 22.5217C10.6433 24.3334 11.25 26.1617 12.5433 27.4567V27.4567C13.8366 28.75 15.6666 29.3567 17.4783 29.0917L17.6 29.0734C20.4383 28.6584 23.0683 27.3367 25.0966 25.3084L30.4116 19.9934C31.79 18.6167 32.735 16.8667 33.1316 14.9584V14.9584Z" stroke="white" stroke-width="1.5" stroke-linecap="round" stroke-linejoin="round"/>
    <path d="M22.3335 7.85645C26.1852 10.4831 29.5168 13.8148 32.1435 17.6664" stroke="white" stroke-width="1.5" stroke-linecap="round" stroke-linejoin="round"/>
    <path d="M18.3335 28.9446L19.6968 34.7162C19.8468 35.3512 20.6352 35.5746 21.0968 35.1146L25.6868 30.5246C25.9952 30.2162 26.1718 29.7979 26.1752 29.3596L26.2202 24.1846" stroke="white" stroke-width="1.5" stroke-linecap="round" stroke-linejoin="round"/>
</svg>
