<svg width="40" height="40" viewBox="0 0 40 40" fill="none" xmlns="http://www.w3.org/2000/svg">
    <path d="M7.5 15.0003H5" stroke="white" stroke-width="1.5" stroke-linecap="round" stroke-linejoin="round"/>
    <path d="M7.5 25.0003H5" stroke="white" stroke-width="1.5" stroke-linecap="round" stroke-linejoin="round"/>
    <path d="M6.66683 20.0003H3.3335" stroke="white" stroke-width="1.5" stroke-linecap="round" stroke-linejoin="round"/>
    <path d="M8.84239 29.9997C12.9886 34.6352 19.5652 36.2314 25.3751 34.0122C31.1849 31.793 35.0227 26.2188 35.0227 19.9996C35.0226 13.7803 31.1848 8.20618 25.3749 5.98705C19.5651 3.76791 12.9884 5.36415 8.84229 9.99972" stroke="white" stroke-width="1.5" stroke-linecap="round" stroke-linejoin="round"/>
    <path fill-rule="evenodd" clip-rule="evenodd" d="M18.5052 13.4761C18.7859 12.9071 19.3654 12.5469 19.9998 12.5469C20.6343 12.5469 21.2137 12.9071 21.4945 13.4761L22.3424 15.1951C22.5851 15.6871 23.0544 16.0282 23.5974 16.1071L25.4942 16.3828C26.1219 16.4741 26.6433 16.9137 26.8394 17.5168C27.0354 18.12 26.8721 18.7822 26.4182 19.2251L25.045 20.5644C24.6525 20.9473 24.4734 21.4988 24.5661 22.0393L24.8901 23.9281C24.9973 24.5533 24.7403 25.1851 24.2271 25.558C23.714 25.9309 23.0336 25.9801 22.4721 25.6851L20.7751 24.7932C20.2897 24.5381 19.7098 24.5381 19.2244 24.7932L17.5274 25.6851C16.9659 25.9801 16.2856 25.9309 15.7724 25.558C15.2593 25.1851 15.0023 24.5533 15.1095 23.9281L15.4335 22.0393C15.5262 21.4988 15.3471 20.9473 14.9546 20.5644L13.5815 19.2251C13.1275 18.7822 12.9642 18.12 13.1603 17.5168C13.3564 16.9137 13.8778 16.474 14.5055 16.3828L16.4023 16.1071C16.9453 16.0282 17.4146 15.6871 17.6573 15.1951L18.5052 13.4761Z" stroke="white" stroke-width="1.5" stroke-linecap="round" stroke-linejoin="round"/>
</svg>
