<svg width="50" height="50" viewBox="0 0 50 50" fill="none" xmlns="http://www.w3.org/2000/svg">
    <path d="M45.6036 27.9514L45.6036 27.9515C45.2504 29.5546 44.3547 31.003 43.084 32.029L43.3981 32.418L43.084 32.029C41.8096 33.0582 40.2028 33.6255 38.5619 33.6255C37.7706 33.6255 37.129 32.9839 37.129 32.1926C37.129 31.401 37.7705 30.7597 38.5619 30.7597C40.6158 30.7597 42.361 29.3472 42.8053 27.3343L42.8053 27.3342L46.1505 12.1681C46.3209 11.3951 47.0854 10.9067 47.8586 11.0772C48.6314 11.2476 49.1196 12.0123 48.9491 12.7853L45.6036 27.9514ZM33.6381 42.1153L33.8638 41.4538H33.1649H24.8231H24.1242L24.3499 42.1153C24.5294 42.6415 24.6282 43.2044 24.6282 43.7901C24.6282 46.6581 22.2939 48.9921 19.4258 48.9921C16.558 48.9921 14.2237 46.6581 14.2237 43.7901C14.2237 43.2044 14.3225 42.6415 14.502 42.1153L14.7277 41.4538H14.0288H13.2404C10.3227 41.4538 7.94704 39.0818 7.94165 36.1651L7.94261 36.152C7.94316 36.1437 7.94383 36.132 7.94415 36.1184L7.94442 36.1068L7.94415 36.0952C7.94402 36.0894 7.94382 36.0839 7.94359 36.079C7.94329 36.0723 7.94294 36.0665 7.94263 36.0617L7.94165 36.0484C7.94565 33.9104 9.22406 32.0648 11.0588 31.2315L11.3883 31.0819L11.3491 30.7222L9.05148 9.61271L9.05164 9.61269L9.04997 9.60025C8.57297 6.04895 5.51834 3.37526 1.93291 3.37526C1.14159 3.37526 0.5 2.73367 0.5 1.94235C0.5 1.15072 1.14153 0.50944 1.93291 0.50944C6.95599 0.50944 11.2386 4.26575 11.8938 9.24498L11.8979 9.28065L11.8982 9.28368L14.1876 30.3138L14.2361 30.7597H14.6847H28.8974C29.6887 30.7597 30.3303 31.4013 30.3303 32.1926C30.3303 32.9839 29.6887 33.6255 28.8974 33.6255H13.2404C11.9012 33.6255 10.8115 34.7122 10.8075 36.051L10.8065 36.0661C10.8061 36.0734 10.8056 36.0835 10.8053 36.0952L10.8051 36.1068L10.8053 36.1184C10.8056 36.1301 10.8061 36.1402 10.8065 36.1474L10.8075 36.1626C10.8115 37.5013 11.9012 38.588 13.2404 38.588H38.5619C41.43 38.588 43.764 40.922 43.764 43.7901C43.764 46.6582 41.43 48.9921 38.5619 48.9921C35.6938 48.9921 33.3598 46.6582 33.3598 43.7901C33.3598 43.2044 33.4586 42.6415 33.6381 42.1153ZM10.8077 36.0474L10.8077 36.0479L10.8077 36.0474ZM25.7318 1.81275L25.7333 1.81137C27.6494 0.0628765 30.5316 0.0628767 32.4477 1.81137L32.4492 1.81275L41.4563 9.96465C42.043 10.4956 42.0881 11.4017 41.5571 11.9884L41.5569 11.9886C41.2744 12.301 40.8861 12.4598 40.494 12.4598C40.2212 12.4598 39.9472 12.3807 39.7072 12.2221L38.9315 11.7095V12.6392V18.1453C38.9315 20.8722 36.7138 23.091 33.99 23.091H24.0943C21.3705 23.091 19.1528 20.8722 19.1528 18.1453V12.7004V11.8337L18.4025 12.2676C17.8294 12.599 17.0848 12.4977 16.6239 11.9884C16.0929 11.4017 16.138 10.4956 16.7247 9.96465L25.7318 1.81275ZM22.1771 8.89507L21.9996 9.05567L22.0134 9.29461C22.0151 9.32338 22.0163 9.34015 22.0171 9.3517C22.0182 9.3662 22.0186 9.37249 22.0186 9.38399V18.145C22.0186 19.2913 22.948 20.2252 24.0943 20.2252H33.99C35.1363 20.2252 36.0657 19.2913 36.0657 18.145V9.38399C36.0657 9.33452 36.0684 9.28444 36.0736 9.2339L36.0995 8.98197L35.9118 8.81202L30.5281 3.93952L30.528 3.93935L30.5256 3.937L30.5173 3.92942C29.7052 3.18739 28.4758 3.18739 27.6637 3.92942L27.6554 3.937L27.6494 3.94295L22.1771 8.89507ZM30.5225 3.93427C30.5227 3.93447 30.5235 3.93524 30.5245 3.93612L30.5227 3.93452L30.5225 3.93427ZM19.4258 41.4538C18.1373 41.4538 17.0895 42.5012 17.0895 43.7901C17.0895 45.079 18.1373 46.1263 19.4258 46.1263C20.7146 46.1263 21.762 45.0789 21.762 43.7901C21.762 42.5012 20.7146 41.4538 19.4258 41.4538ZM40.8981 43.7901C40.8981 42.5012 39.8503 41.4538 38.5619 41.4538C37.273 41.4538 36.2257 42.5012 36.2257 43.7901C36.2257 45.0789 37.273 46.1263 38.5619 46.1263C39.8504 46.1263 40.8981 45.0786 40.8981 43.7901Z" fill="white" stroke="#070233"/>
    <mask id="mask0_2423_9609" style="mask-type:alpha" maskUnits="userSpaceOnUse" x="15" y="0" width="28" height="24">
        <path d="M16.2533 12.3239C15.537 11.5325 15.5978 10.3102 16.3892 9.59394L25.3963 1.44204C27.5033 -0.480679 30.6778 -0.480679 32.7847 1.44204L41.7919 9.59394C42.5833 10.3102 42.6441 11.5325 41.9278 12.3239C41.5465 12.7457 41.0212 12.9598 40.4941 12.9598C40.1244 12.9598 39.7544 12.8526 39.4315 12.6392V18.1453C39.4315 21.148 36.9904 23.591 33.99 23.591H24.0944C21.094 23.591 18.6529 21.148 18.6529 18.1453V12.7004C17.8803 13.1471 16.8759 13.0119 16.2533 12.3239ZM22.5126 9.26581C22.5149 9.30508 22.5187 9.34435 22.5187 9.38399V18.145C22.5187 19.0164 23.2256 19.7252 24.0944 19.7252H33.99C34.8589 19.7252 35.5657 19.0164 35.5657 18.145V9.38399C35.5657 9.31603 35.5695 9.24881 35.5763 9.18274L30.1873 4.30534C30.185 4.30307 30.1824 4.30081 30.1801 4.29854C29.559 3.73102 28.6221 3.73102 28.001 4.29854C27.9987 4.30081 27.9965 4.30307 27.9942 4.30534L22.5126 9.26581Z" fill="#3B3C45"/>
    </mask>
    <g mask="url(#mask0_2423_9609)">
        <rect x="15.6912" y="-8.44922" width="26.5568" height="35.0066" fill="#FF1700"/>
    </g>
</svg>
