<svg width="50" height="50" viewBox="0 0 50 50" fill="none" xmlns="http://www.w3.org/2000/svg">
    <path fill-rule="evenodd" clip-rule="evenodd" d="M11.4361 45.1417L1.38423 32.0439C0.569435 30.9822 0.576436 29.5036 1.40125 28.4497V28.4497C2.40678 27.1648 4.26741 26.9472 5.54228 27.9654L7.48594 29.5176C9.86514 31.4176 13.3442 30.9745 15.1711 28.5386L35.157 1.89066C35.9255 0.866004 37.3991 0.701969 38.3741 1.53253V1.53253C39.1988 2.23504 39.3963 3.43003 38.8416 4.36056L14.6838 44.8833C14.3053 45.5181 13.7296 45.9114 13.1062 45.961C12.4828 46.0106 11.8734 45.7116 11.4361 45.1417Z" stroke="white"/>
    <path fill-rule="evenodd" clip-rule="evenodd" d="M48.4082 12.3702H43.0295C42.4354 12.3702 41.9537 11.7548 41.9537 10.9956C41.9537 10.2365 42.4354 9.62109 43.0295 9.62109H48.4082C49.0023 9.62109 49.4839 10.2365 49.4839 10.9956C49.4839 11.7548 49.0023 12.3702 48.4082 12.3702Z" fill="#FF1700"/>
    <path fill-rule="evenodd" clip-rule="evenodd" d="M48.4081 24.7413H35.4992C34.9051 24.7413 34.4235 24.1259 34.4235 23.3667C34.4235 22.6076 34.9051 21.9922 35.4992 21.9922H48.4081C49.0022 21.9922 49.4838 22.6076 49.4838 23.3667C49.4838 24.1259 49.0022 24.7413 48.4081 24.7413Z" fill="#FF1700"/>
    <path fill-rule="evenodd" clip-rule="evenodd" d="M48.4099 37.1124H27.9709C27.3768 37.1124 26.8951 36.497 26.8951 35.7378C26.8951 34.9787 27.3768 34.3633 27.9709 34.3633H48.4099C49.004 34.3633 49.4856 34.9787 49.4856 35.7378C49.4856 36.497 49.004 37.1124 48.4099 37.1124Z" fill="#FF1700"/>
    <path fill-rule="evenodd" clip-rule="evenodd" d="M48.4071 49.4835H20.4379C19.8438 49.4835 19.3622 48.8681 19.3622 48.1089C19.3622 47.3498 19.8438 46.7344 20.4379 46.7344H48.4071C49.0012 46.7344 49.4828 47.3498 49.4828 48.1089C49.4828 48.8681 49.0012 49.4835 48.4071 49.4835Z" fill="#FF1700"/>
</svg>
