<svg width="52" height="52" viewBox="0 0 52 52" fill="none" xmlns="http://www.w3.org/2000/svg">
    <path d="M14.2605 47.5385L13.9509 47.5381L13.7312 47.7563L11.1315 50.3373L1.07349 40.6069L8.50657 33.2807L8.50853 33.2787C10.0245 31.7735 11.9381 30.7229 14.0296 30.2484C16.1211 29.7738 18.3051 29.8948 20.3303 30.5973L22.0837 31.2056L22.2031 31.247H22.3295H33.0875H33.0879C33.4432 31.2468 33.7947 31.3176 34.1216 31.4548C34.4485 31.5921 34.7439 31.793 34.9904 32.0454C35.2369 32.2978 35.4296 32.5965 35.5572 32.9236C35.6836 33.2476 35.7436 33.5931 35.7341 33.9401C35.6914 34.6341 35.3815 35.2866 34.8667 35.7618C34.3492 36.2395 33.6649 36.5011 32.9563 36.4903V36.4903H32.945H26.4912C25.9438 36.4903 25.4178 36.7061 25.0291 37.092C24.6403 37.4781 24.4208 38.0028 24.4208 38.5512C24.4208 39.0995 24.6403 39.6243 25.0291 40.0103C25.4178 40.3962 25.9438 40.612 26.4912 40.612H32.9642C34.7339 40.6202 36.4399 39.9527 37.7292 38.746C38.9758 37.5792 39.7405 35.9944 39.8769 34.3008L45.688 27.8037L45.6881 27.8037L45.6954 27.7953C46.1772 27.2402 46.857 26.8896 47.5941 26.8182C48.3279 26.7471 49.0604 26.9584 49.6406 27.4069C49.9228 27.6406 50.1551 27.9273 50.3244 28.2502C50.4952 28.5761 50.5984 28.9324 50.6281 29.298C50.6579 29.6637 50.6135 30.0317 50.4976 30.3802C50.3818 30.7288 50.1966 31.0512 49.9529 31.3282L49.9521 31.3291L37.9956 44.9619C37.2773 45.7793 36.3903 46.4344 35.3944 46.8827C34.3984 47.3309 33.3169 47.5618 32.223 47.5595H32.2223L14.2605 47.5385Z" stroke="white" stroke-width="1.5"/>
    <path d="M41.9418 18.6462C41.9418 17.9856 41.6775 17.3521 41.207 16.885C40.7366 16.4179 40.0985 16.1555 39.4332 16.1555H35.7362V12.485C35.7066 11.8448 35.4297 11.2407 34.963 10.7981C34.4962 10.3555 33.8757 10.1085 33.2302 10.1085C32.5848 10.1085 31.9643 10.3555 31.4975 10.7981C31.0308 11.2407 30.7539 11.8448 30.7243 12.485V16.1555H27.0273C26.6886 16.14 26.3501 16.1929 26.0326 16.311C25.715 16.4291 25.4248 16.6099 25.1795 16.8424C24.9343 17.075 24.7391 17.3545 24.6057 17.6641C24.4724 17.9736 24.4036 18.3069 24.4036 18.6436C24.4036 18.9803 24.4724 19.3135 24.6057 19.623C24.7391 19.9326 24.9343 20.2121 25.1795 20.4447C25.4248 20.6772 25.715 20.858 26.0326 20.9761C26.3501 21.0942 26.6886 21.1471 27.0273 21.1316H30.7243V24.8021C30.7539 25.4423 31.0308 26.0464 31.4975 26.489C31.9643 26.9316 32.5848 27.1786 33.2302 27.1786C33.8757 27.1786 34.4962 26.9316 34.963 26.489C35.4297 26.0464 35.7066 25.4423 35.7362 24.8021V21.1316H39.4332C40.0976 21.1316 40.7349 20.8699 41.2052 20.404C41.6755 19.938 41.9404 19.3058 41.9418 18.6462ZM17.8906 4.84507V7.55076H15.1707C14.6805 7.55076 14.2103 7.74411 13.8637 8.08829C13.517 8.43247 13.3223 8.89927 13.3223 9.38601C13.3223 9.87275 13.517 10.3396 13.8637 10.6837C14.2103 11.0279 14.6805 11.2213 15.1707 11.2213H17.8959V13.927C17.8959 14.4137 18.0906 14.8805 18.4373 15.2247C18.784 15.5689 19.2541 15.7622 19.7444 15.7622C20.2346 15.7622 20.7048 15.5689 21.0514 15.2247C21.3981 14.8805 21.5928 14.4137 21.5928 13.927V11.2108H24.3022C24.7924 11.2108 25.2626 11.0174 25.6092 10.6732C25.9559 10.3291 26.1506 9.86226 26.1506 9.37552C26.1506 8.88878 25.9559 8.42198 25.6092 8.0778C25.2626 7.73363 24.7924 7.54027 24.3022 7.54027H21.577V4.84507C21.577 4.35833 21.3822 3.89153 21.0356 3.54735C20.6889 3.20317 20.2188 3.00982 19.7285 3.00982C19.2383 3.00982 18.7681 3.20317 18.4215 3.54735C18.0748 3.89153 17.8801 4.35833 17.8801 4.84507H17.8906ZM41.2077 0C40.7875 0 40.3845 0.165734 40.0874 0.460743C39.7902 0.755752 39.6233 1.15587 39.6233 1.57307V3.90122H37.2784C36.8582 3.90122 36.4552 4.06696 36.1581 4.36197C35.8609 4.65698 35.694 5.05709 35.694 5.4743C35.694 5.8915 35.8609 6.29162 36.1581 6.58663C36.4552 6.88164 36.8582 7.04737 37.2784 7.04737H39.6233V9.37552C39.6233 9.79273 39.7902 10.1928 40.0874 10.4879C40.3845 10.7829 40.7875 10.9486 41.2077 10.9486C41.6279 10.9486 42.0309 10.7829 42.328 10.4879C42.6252 10.1928 42.7921 9.79273 42.7921 9.37552V7.04737H45.137C45.3451 7.04737 45.5511 7.00668 45.7433 6.92763C45.9356 6.84858 46.1102 6.7327 46.2574 6.58663C46.4045 6.44056 46.5212 6.26714 46.6008 6.07629C46.6804 5.88543 46.7214 5.68088 46.7214 5.4743C46.7214 5.26772 46.6804 5.06316 46.6008 4.87231C46.5212 4.68146 46.4045 4.50804 46.2574 4.36197C46.1102 4.21589 45.9356 4.10002 45.7433 4.02097C45.5511 3.94191 45.3451 3.90122 45.137 3.90122H42.7921V1.57307C42.7921 1.15587 42.6252 0.755752 42.328 0.460743C42.0309 0.165734 41.6279 0 41.2077 0Z" fill="#FF1700"/>
</svg>
