<svg width="59" height="59" viewBox="0 0 59 59" fill="none" xmlns="http://www.w3.org/2000/svg">
    <path d="M56.6502 19.962L56.6502 19.962C56.4478 17.5717 55.3661 15.3564 53.6034 13.7229C53.0716 13.2303 52.4924 12.8043 51.8769 12.449L51.3182 12.1265L51.7698 11.6659C52.9328 10.4797 53.6502 8.85517 53.6502 7.06525C53.6502 3.44435 50.7121 0.5 47.1047 0.5C43.4971 0.5 40.559 3.44435 40.559 7.06537C40.559 8.85528 41.2765 10.4798 42.4396 11.666L42.8912 12.1266L42.3325 12.4491C41.717 12.8044 41.1377 13.2304 40.6062 13.723L40.6062 13.723C38.8433 15.3564 37.7616 17.5718 37.5593 19.962L37.5593 19.9621C37.5148 20.4877 37.6944 21.0133 38.0515 21.402L56.6502 19.962ZM56.6502 19.962C56.6948 20.4877 56.5152 21.0131 56.158 21.4019M56.6502 19.962L56.158 21.4019M56.158 21.4019C55.8011 21.7903 55.2932 22.0133 54.7666 22.0133M56.158 21.4019L54.7666 22.0133M54.7666 22.0133H39.4428M54.7666 22.0133H39.4428M39.4428 22.0133C38.9162 22.0133 38.4084 21.7903 38.0515 21.402L39.4428 22.0133ZM42.2761 15.5252L42.2761 15.5252C41.2762 16.4518 40.5698 17.6308 40.2239 18.9274L40.0561 19.5563H40.707H53.5024H54.1533L53.9855 18.9274C53.6395 17.6308 52.9332 16.4517 51.9331 15.5252C50.6151 14.3039 48.8997 13.6307 47.1047 13.6307C45.3097 13.6307 43.5942 14.3039 42.2761 15.5252ZM37.0611 19.9199H37.0611H37.0611ZM47.1047 2.95703C44.8472 2.95703 43.0161 4.80217 43.0161 7.06537C43.0161 9.32856 44.8472 11.1737 47.1047 11.1737C49.3621 11.1737 51.1932 9.32867 51.1932 7.06537C51.1932 4.80218 49.3621 2.95703 47.1047 2.95703Z" fill="white" stroke="#070233"/>
    <path d="M28.1151 19.962L28.1152 19.962C28.1598 20.4877 27.9802 21.0131 27.6229 21.402C27.266 21.7903 26.7582 22.0133 26.2316 22.0133H10.9078C10.3813 22.0133 9.87353 21.7904 9.51664 21.4021C9.15943 21.0133 8.97985 20.4877 9.02438 19.9621L9.02439 19.962C9.2267 17.5718 10.3084 15.3565 12.0712 13.723L11.7314 13.3562L12.0713 13.723C12.6028 13.2304 13.1821 12.8044 13.7976 12.4491L14.3562 12.1266L13.9046 11.666C12.7415 10.4798 12.0241 8.85528 12.0241 7.06537C12.0241 3.44434 14.9622 0.5 18.5698 0.5C22.1773 0.5 25.1154 3.44435 25.1154 7.06525C25.1154 8.85515 24.398 10.4795 23.2349 11.6659L22.7833 12.1265L23.3419 12.449C23.9574 12.8043 24.5367 13.2303 25.0683 13.7229C26.8311 15.3564 27.9127 17.5717 28.1151 19.962ZM24.9675 19.5563H25.6184L25.4506 18.9274C25.1046 17.6308 24.3983 16.4517 23.3982 15.5252C22.0801 14.3039 20.3648 13.6307 18.5698 13.6307C16.7747 13.6307 15.0594 14.3039 13.7413 15.5252C12.7412 16.4518 12.0348 17.6308 11.6889 18.9274L11.5211 19.5563H12.172H24.9675ZM18.5698 2.95703C16.3122 2.95703 14.4811 4.80217 14.4811 7.06537C14.4811 9.32856 16.3122 11.1737 18.5698 11.1737C20.8273 11.1737 22.6584 9.32868 22.6584 7.06537C22.6584 4.80217 20.8273 2.95703 18.5698 2.95703Z" fill="white" stroke="#070233"/>
    <path d="M51.7699 40.4354L51.3183 40.8961L51.877 41.2185C52.4925 41.5738 53.0717 41.9998 53.6034 42.4924C55.3663 44.1259 56.448 46.3411 56.6503 48.7315L56.6503 48.7316C56.6949 49.2574 56.5153 49.7829 56.1581 50.1716C55.8011 50.56 55.2933 50.783 54.7667 50.783H39.4429C38.9162 50.783 38.4085 50.56 38.0516 50.1716L38.0516 50.1716C37.6945 49.7829 37.5149 49.2573 37.5594 48.7315L37.5594 48.7315C37.7617 46.3412 38.8434 44.1258 40.6063 42.4924L40.6063 42.4924C41.1378 41.9999 41.7172 41.5738 42.3326 41.2185L42.8913 40.896L42.4397 40.4354C41.2766 39.2492 40.5591 37.6247 40.5591 35.8349C40.5591 32.2139 43.4972 29.2695 47.1048 29.2695C50.7122 29.2695 53.6503 32.2138 53.6503 35.8349C53.6503 37.6247 52.9329 39.2492 51.7699 40.4354ZM47.1049 39.9432H47.1049C49.3623 39.9432 51.1934 38.0981 51.1934 35.8349C51.1934 33.5717 49.3623 31.7266 47.1049 31.7266C44.8474 31.7266 43.0163 33.5716 43.0163 35.8349C43.0163 38.098 44.8474 39.9431 47.1049 39.9432ZM40.2241 47.6969L40.0563 48.3258H40.7072H53.5026H54.1535L53.9857 47.6969C53.6398 46.4003 52.9334 45.2211 51.9333 44.2946C50.6153 43.0733 48.8999 42.4001 47.1049 42.4001C45.3099 42.4001 43.5944 43.0733 42.2764 44.2946C41.2764 45.2212 40.5701 46.4003 40.2241 47.6969Z" fill="white" stroke="#070233"/>
    <path d="M7.43288 51.4629L7.66545 51.2303L7.44773 50.9837C5.13621 48.3661 3.73253 44.9304 3.73253 41.1727C3.73253 32.9911 10.3886 26.3344 18.5694 26.3344C26.7501 26.3344 33.4062 32.9909 33.4062 41.1725C33.4062 49.3541 26.7501 56.0109 18.5694 56.0109C15.3613 56.0109 12.3885 54.9875 9.95871 53.2498L9.71739 53.0772L9.50761 53.287L4.54746 58.2477L4.54743 58.2478C4.27832 58.517 3.92603 58.6516 3.57267 58.6516C3.21934 58.6516 2.86725 58.5171 2.598 58.2481C2.0597 57.7097 2.05964 56.8368 2.59788 56.2985L7.43288 51.4629ZM6.48956 41.1726C6.48956 47.8346 11.9082 53.2539 18.5694 53.2539C25.2306 53.2539 30.6492 47.8346 30.6492 41.1726C30.6492 34.5107 25.2306 29.0913 18.5694 29.0913C11.9082 29.0913 6.48956 34.5107 6.48956 41.1726Z" fill="#FF1700" stroke="#FF1700" stroke-width="0.7"/>
    <path d="M23.6381 36.7421L23.6381 36.7421L16.7552 43.6258L16.5077 43.8733L16.2602 43.6258L13.4998 40.865C12.9614 40.3268 12.0886 40.3268 11.55 40.865C11.0119 41.4032 11.0118 42.276 11.55 42.8145L11.5501 42.8145M23.6381 36.7421L11.5501 42.8145M23.6381 36.7421C24.1763 36.2038 25.0491 36.2036 25.5876 36.7419C26.1259 37.2803 26.1259 38.1532 25.5877 38.6915L17.4824 46.7977L17.4823 46.7978C17.4821 46.798 17.4819 46.7983 17.4816 46.7985C17.2126 47.0672 16.8606 47.2015 16.5077 47.2015C16.1545 47.2015 15.8023 47.067 15.5329 46.7977C15.5329 46.7977 15.5328 46.7976 15.5328 46.7976M23.6381 36.7421L15.5328 46.7976M11.5501 42.8145L15.5328 46.7976M11.5501 42.8145L15.5328 46.7976" fill="#FF1700" stroke="#FF1700" stroke-width="0.7"/>
</svg>
