<svg width="28" height="28" viewBox="0 0 28 28" fill="none" xmlns="http://www.w3.org/2000/svg">
    <path d="M6.96373 7.729L6.18556 4.229H3.93506" stroke="white" stroke-width="1.5" stroke-linecap="round" stroke-linejoin="round"/>
    <path fill-rule="evenodd" clip-rule="evenodd" d="M9.01953 17.3073L6.96387 7.729H21.7315C22.4747 7.729 23.0277 8.41384 22.8725 9.14067L21.1202 17.3073C21.0047 17.8452 20.5299 18.229 19.9792 18.229H10.1594C9.60987 18.229 9.13503 17.8452 9.01953 17.3073Z" stroke="white" stroke-width="1.5" stroke-linecap="round" stroke-linejoin="round"/>
    <path d="M20.3759 22.4583C20.1344 22.4583 19.9384 22.6543 19.9408 22.8958C19.9408 23.1373 20.1368 23.3333 20.3783 23.3333C20.6198 23.3333 20.8158 23.1373 20.8158 22.8958C20.8146 22.6543 20.6186 22.4583 20.3759 22.4583" stroke="white" stroke-width="1.5" stroke-linecap="round" stroke-linejoin="round"/>
    <path d="M10.3321 22.4583C10.0906 22.4583 9.89458 22.6543 9.89692 22.8958C9.89575 23.1373 10.0917 23.3333 10.3332 23.3333C10.5747 23.3333 10.7707 23.1373 10.7707 22.8958C10.7707 22.6543 10.5747 22.4583 10.3321 22.4583" stroke="white" stroke-width="1.5" stroke-linecap="round" stroke-linejoin="round"/>
</svg>

