<svg width="18" height="18" viewBox="0 0 18 18" fill="none" xmlns="http://www.w3.org/2000/svg">
    <path opacity="0.7" d="M14.7275 16.427C15.2738 16.9663 16.1595 16.9663 16.7058 16.427C17.2521 15.8877 17.2521 15.0133 16.7058 14.474L11.7242 9.55633C11.5277 9.36233 11.5277 9.0478 11.7242 8.8538L16.7841 3.85884C17.3737 3.27685 17.3737 2.33326 16.7841 1.75127L16.6275 1.59668C16.038 1.01469 15.0821 1.01469 14.4926 1.59668L9.43263 6.59164C9.23611 6.78564 8.91749 6.78564 8.72097 6.59164L3.73934 1.67397C3.19303 1.13467 2.30728 1.13467 1.76096 1.67398C1.21465 2.21327 1.21465 3.08765 1.76096 3.62695L6.74259 8.54462C6.93911 8.73862 6.93911 9.05315 6.74259 9.24715L1.68266 14.2421C1.09311 14.8241 1.09311 15.7677 1.68266 16.3497L1.83927 16.5043C2.42883 17.0863 3.38469 17.0863 3.97425 16.5043L9.03417 11.5093C9.23069 11.3153 9.54931 11.3153 9.74583 11.5093L14.7275 16.427Z" fill="#070233" stroke="#070233"/>
</svg>