<svg width="24" height="24" viewBox="0 0 24 24" fill="none" xmlns="http://www.w3.org/2000/svg">
    <path d="M18.3638 7.04965L13.4141 11.9994L18.3638 16.9491C18.7528 17.338 18.7528 17.9744 18.3638 18.3634C17.9749 18.7523 17.3385 18.7523 16.9496 18.3634L11.9999 13.4136L7.05013 18.3634C6.66122 18.7523 6.02483 18.7523 5.63592 18.3634C5.24701 17.9744 5.24701 17.338 5.63592 16.9491L10.5857 11.9994L5.63592 7.04965C5.24701 6.66074 5.24701 6.02434 5.63592 5.63543C6.02483 5.24652 6.66122 5.24652 7.05013 5.63543L11.9999 10.5852L16.9496 5.63543C17.3385 5.24652 17.9749 5.24652 18.3638 5.63543C18.7528 6.02434 18.7528 6.66074 18.3638 7.04965Z" fill="#25282B"/>
</svg>
