<svg width="32" height="32" viewBox="0 0 32 32" fill="none" xmlns="http://www.w3.org/2000/svg">
    <path d="M23.3316 22.1192L16.7698 15.5563L23.3316 8.99351C23.6672 8.6579 23.6672 8.11379 23.3316 7.77817C22.9961 7.44256 22.452 7.44256 22.1165 7.77817L15.5547 14.341L8.9929 7.77817C8.65734 7.44256 8.11331 7.44256 7.77775 7.77817C7.44219 8.11379 7.44219 8.6579 7.77775 8.99351L14.3395 15.5563L7.77775 22.1192C7.44219 22.4548 7.44219 22.9989 7.77775 23.3345C8.11331 23.6701 8.65734 23.6701 8.9929 23.3345L15.5547 16.7717L22.1165 23.3345C22.452 23.6701 22.9961 23.6701 23.3316 23.3345C23.6672 22.9989 23.6672 22.4548 23.3316 22.1192Z"
          fill="#1D1D1D" stroke="#1D1D1D"/>
</svg>
