<svg width="38" height="38" viewBox="0 0 38 38" fill="none" xmlns="http://www.w3.org/2000/svg">
    <path fill-rule="evenodd" clip-rule="evenodd" d="M0.666584 14.4167C0.666584 22.0107 6.82267 28.1667 14.4166 28.1667C17.5913 28.1667 20.5146 27.0909 22.842 25.2838C22.9297 25.4693 23.0502 25.6431 23.2036 25.7964L34.2036 36.7964C34.9195 37.5124 36.0803 37.5124 36.7963 36.7964C37.5122 36.0805 37.5122 34.9197 36.7963 34.2037L25.7963 23.2037C25.6429 23.0503 25.4691 22.9298 25.2836 22.8422C27.0907 20.5148 28.1666 17.5914 28.1666 14.4167C28.1666 6.82283 22.0105 0.666748 14.4166 0.666748C6.82267 0.666748 0.666584 6.82283 0.666584 14.4167ZM4.33325 14.4167C4.33325 8.84788 8.84771 4.33341 14.4166 4.33341C19.9855 4.33341 24.4999 8.84788 24.4999 14.4167C24.4999 19.9856 19.9855 24.5001 14.4166 24.5001C8.84771 24.5001 4.33325 19.9856 4.33325 14.4167Z" fill="white"/>
</svg>
