<svg width="150" height="13" viewBox="0 0 150 13" fill="none" xmlns="http://www.w3.org/2000/svg">
    <path fill-rule="evenodd" clip-rule="evenodd" d="M21.9903 0.335036C19.8983 0.93775 18.613 2.14612 18.1576 3.93864C17.8389 5.19314 18.0005 7.98706 18.4467 8.93386C18.822 9.73032 19.6879 10.6655 20.4542 11.1023C22.062 12.0184 25.9027 12.3877 28.4055 11.8666C31.9196 11.135 33.3331 9.44136 33.3331 5.96312C33.3331 2.77953 32.1166 1.15667 29.0757 0.283937C27.6775 -0.117321 23.4554 -0.086992 21.9903 0.335036ZM0.0477861 0.417016C0.00341597 0.54458 -0.0130977 3.17068 0.0112558 6.25299L0.0554591 11.8574L1.18139 11.9118L2.30733 11.966V7.822C2.30733 5.54275 2.36371 3.67836 2.43243 3.67891C2.50115 3.67946 3.34018 5.04426 4.29681 6.71178L6.03592 9.74355L8.21673 9.73969L10.3974 9.73583L12.1488 6.68862L13.9003 3.64142L13.9837 7.74939L14.0671 11.8574L15.193 11.9118L16.3189 11.966V6.0758V0.185415H14.775H13.2312L11.2387 3.63186C10.143 5.52749 9.00972 7.47257 8.72065 7.95452L8.19471 8.83093L5.70982 4.50974L3.22475 0.18854L1.67664 0.187069C0.584064 0.185967 0.104667 0.253609 0.0477861 0.417016ZM34.3339 6.06734V11.9493H35.5015H36.6692V7.72164C36.6692 5.39644 36.7134 3.494 36.7672 3.494C36.8213 3.494 38.8788 5.39644 41.3397 7.72164L45.8141 11.9493H46.9964H48.1787V6.06734V0.185415H47.0111H45.8434V4.41305C45.8434 6.73825 45.7872 8.63719 45.7183 8.63297C45.6494 8.62874 43.6041 6.72869 41.1729 4.41048L36.7526 0.195708L35.5432 0.190562L34.3339 0.185415V6.06734ZM49.5131 6.06734V11.9539L55.4764 11.9057L61.4397 11.8574V10.7545V9.65164L56.6441 9.60293L51.8484 9.55404V8.36222V7.17021H55.3513H58.8542V5.97544V4.78067H55.3513H51.8484V3.67781V2.57495H56.6938H61.539L61.4894 1.42613L61.4397 0.27732L55.4764 0.228978L49.5131 0.18082V6.06734ZM62.5239 1.38018V2.57495H65.3568H68.1896L68.2342 7.21616L68.2787 11.8574L69.4018 11.9116L70.5247 11.966L70.5694 7.31633L70.614 2.66685L73.4914 2.61649L76.3688 2.56631V1.37577V0.185415H69.4464H62.5239V1.38018ZM77.5364 1.37448V2.56355L79.5798 2.6152L81.6231 2.66685V6.06734V9.46783L79.5798 9.51948L77.5364 9.57113V10.7602V11.9493H82.7907H88.0451V10.7545V9.55974H86.0434H84.0418V6.06734V2.57495H86.0434H88.0451V1.38018V0.185415H82.7907H77.5364V1.37448ZM91.1618 0.363343C90.4161 0.522339 89.7137 1.05171 89.4237 1.67354C89.1465 2.26799 89.1587 3.58168 89.4471 4.19248C90.1377 5.65487 91.2373 6.12451 95.7637 6.88989C99.4557 7.5143 100.222 7.77935 100.222 8.43261C100.222 9.39008 98.7271 9.81579 95.7266 9.71285C93.786 9.64631 93.5347 9.59595 92.6297 9.09451C91.9353 8.70962 91.5692 8.37398 91.388 7.95563C91.1362 7.37442 91.108 7.36229 90.0051 7.35824C88.7275 7.35346 88.6463 7.48691 89.1382 8.78443C89.9777 10.999 92.1692 12.016 96.1351 12.0318C99.3533 12.0447 100.985 11.5559 101.952 10.2889C102.33 9.79483 102.39 9.54522 102.39 8.48868C102.388 6.03628 101.738 5.58429 97.0437 4.77534C93.3505 4.13899 92.2257 3.83074 91.8276 3.34585C91.2226 2.60932 91.379 2.57495 95.338 2.57495H99.128L98.0534 1.38018L96.9788 0.185415L94.3885 0.206553C92.9638 0.218133 91.5118 0.288716 91.1618 0.363343ZM103.764 6.02139L103.808 11.8574L109.771 11.9057L115.735 11.9539V10.7569V9.55974H110.981H106.227V8.36497V7.17021H109.73H113.233V5.97544V4.78067H109.73H106.227V3.67781V2.57495H110.981H115.735V1.38018V0.185415H109.727H103.72L103.764 6.02139ZM117.263 4.01308L117.319 7.84093L117.821 8.9221C118.752 10.9253 120.542 11.893 123.665 12.0811C127.367 12.304 129.981 11.1162 130.931 8.77983C131.295 7.88523 131.328 7.53047 131.384 3.99948L131.444 0.185415H130.261H129.079V3.49988C129.079 7.10753 128.967 7.71465 128.116 8.69344C127.861 8.98699 127.283 9.32979 126.763 9.49651C125.671 9.84612 123.278 9.87828 122.073 9.55956C120.997 9.2752 120.019 8.30487 119.757 7.26211C119.656 6.85736 119.573 5.10124 119.572 3.35614L119.571 0.185415H118.389H117.207L117.263 4.01308ZM133.249 6.06734V11.9493H134.417H135.585V9.94703C135.585 6.99595 135.673 6.9943 141.28 9.8406L145.455 11.9594L147.727 11.9085L150 11.8574L145.638 9.65606C143.239 8.44548 141.315 7.41155 141.363 7.35843C141.411 7.30549 142.306 7.16782 143.353 7.05275C146.297 6.72869 147.39 5.95559 147.554 4.08054C147.66 2.85783 147.372 1.99356 146.604 1.22835C145.646 0.274931 144.971 0.185415 138.746 0.185415H133.249V6.06734ZM28.1851 2.45694C29.387 2.76868 30.1484 3.26221 30.622 4.03661C31.1197 4.8507 31.1554 6.94173 30.688 7.90839C29.9986 9.33384 27.3623 10.0718 24.2145 9.72021C21.1261 9.37519 19.9708 8.09569 20.2626 5.34368C20.4884 3.21295 22.1144 2.24299 25.4932 2.22332C26.4565 2.21762 27.6679 2.32276 28.1851 2.45694ZM144.888 2.86114C145.39 3.24843 145.388 4.1287 144.884 4.48952C144.632 4.6702 143.251 4.88195 140.672 5.13561C138.562 5.34313 136.554 5.5558 136.21 5.60837L135.585 5.70413V4.13954V2.57495H140.051C143.824 2.57495 144.575 2.61943 144.888 2.86114Z" fill="#FF1700"/>
</svg>
