<svg width="124" height="10" viewBox="0 0 124 10" fill="none" xmlns="http://www.w3.org/2000/svg">
    <path fill-rule="evenodd" clip-rule="evenodd" d="M18.1624 0.276715C16.4345 0.774512 15.373 1.77254 14.9969 3.25302C14.7336 4.28915 14.8671 6.59672 15.2356 7.37871C15.5456 8.03652 16.2608 8.80895 16.8937 9.16966C18.2216 9.9263 21.3937 10.2313 23.4608 9.8009C26.3632 9.19668 27.5306 7.79787 27.5306 4.9251C27.5306 2.29569 26.5259 0.955322 24.0144 0.234511C22.8596 -0.0968982 19.3724 -0.071849 18.1624 0.276715ZM0.0394678 0.344424C0.00282134 0.449783 -0.0108177 2.61874 0.00929647 5.16451L0.0458051 9.79331L0.975743 9.83824L1.90568 9.88303V6.46039C1.90568 4.5779 1.95225 3.03805 2.00901 3.03851C2.06577 3.03897 2.75874 4.16618 3.54885 5.54344L4.98522 8.04745L6.78641 8.04426L8.58746 8.04107L10.034 5.52431L11.4806 3.00754L11.5495 6.40042L11.6184 9.79331L12.5483 9.83824L13.4782 9.88303V5.01816V0.153139H12.2031H10.928L9.28236 2.99965C8.37736 4.5653 7.44136 6.17179 7.20261 6.56985L6.76822 7.2937L4.71588 3.72471L2.66341 0.15572L1.38478 0.154505C0.482394 0.153595 0.0864469 0.209462 0.0394678 0.344424ZM28.3572 5.01118V9.86921H29.3216H30.286V6.3775C30.286 4.45706 30.3225 2.88578 30.367 2.88578C30.4117 2.88578 32.111 4.45706 34.1435 6.3775L37.839 9.86921H38.8155H39.792V5.01118V0.153139H38.8277H37.8633V3.64485C37.8633 5.5653 37.8169 7.13368 37.76 7.13019C37.7031 7.1267 36.0137 5.5574 34.0058 3.64273L30.3549 0.161641L29.3561 0.15739L28.3572 0.153139V5.01118ZM40.8942 5.01118V9.87301L45.8194 9.83323L50.7446 9.79331V8.88242V7.97154L46.7838 7.93131L42.823 7.89093V6.90657V5.92206H45.7161H48.6092V4.93527V3.94848H45.7161H42.823V3.0376V2.12672H46.8249H50.8266L50.7857 1.17788L50.7446 0.229046L45.8194 0.189119L40.8942 0.149344V5.01118ZM51.6401 1.13993V2.12672H53.9799H56.3196L56.3564 5.96001L56.3932 9.79331L57.3208 9.83809L58.2482 9.88303L58.2851 6.04275L58.3219 2.20262L60.6984 2.16103L63.0749 2.11958V1.13628V0.153139H57.3575H51.6401V1.13993ZM64.0393 1.13522V2.1173L65.727 2.15996L67.4146 2.20262V5.01118V7.81973L65.727 7.86239L64.0393 7.90505V8.88713V9.86921H68.379H72.7187V8.88242V7.89564H71.0655H69.4123V5.01118V2.12672H71.0655H72.7187V1.13993V0.153139H68.379H64.0393V1.13522ZM75.2929 0.300095C74.677 0.431414 74.0968 0.868637 73.8574 1.38222C73.6284 1.87319 73.6385 2.9582 73.8767 3.46268C74.447 4.67051 75.3552 5.05839 79.0937 5.69054C82.1431 6.20625 82.7758 6.42517 82.7758 6.96471C82.7758 7.75551 81.5413 8.10711 79.0631 8.0221C77.4603 7.96714 77.2527 7.92554 76.5053 7.5114C75.9318 7.1935 75.6294 6.91629 75.4797 6.57076C75.2717 6.09072 75.2484 6.0807 74.3375 6.07736C73.2823 6.07342 73.2152 6.18363 73.6215 7.25529C74.3149 9.08434 76.1249 9.92432 79.4005 9.93738C82.0585 9.948 83.4061 9.54433 84.2051 8.49788C84.5167 8.08981 84.5667 7.88364 84.5663 7.01102C84.5653 4.98552 84.0277 4.61221 80.1509 3.94408C77.1006 3.4185 76.1716 3.16391 75.8428 2.76342C75.3431 2.15511 75.4723 2.12672 78.7421 2.12672H81.8724L80.9848 1.13993L80.0973 0.153139L77.9579 0.170598C76.7812 0.180162 75.582 0.238458 75.2929 0.300095ZM85.7015 4.97322L85.7379 9.79331L90.6631 9.83323L95.5883 9.87301V8.8844V7.89564H91.6619H87.7355V6.90885V5.92206H90.6286H93.5218V4.93527V3.94848H90.6286H87.7355V3.0376V2.12672H91.6619H95.5883V1.13993V0.153139H90.6267H85.6651L85.7015 4.97322ZM96.8507 3.31451L96.8971 6.47603L97.3118 7.36899C98.0801 9.02346 99.5587 9.82276 102.138 9.97806C105.196 10.1622 107.355 9.1812 108.139 7.25149C108.44 6.51261 108.467 6.21961 108.513 3.30327L108.563 0.153139H107.586H106.61V2.89064C106.61 5.87029 106.517 6.37173 105.814 7.18014C105.603 7.42258 105.126 7.70572 104.696 7.84341C103.795 8.13216 101.819 8.15873 100.823 7.89548C99.9342 7.66063 99.1266 6.8592 98.9108 5.99797C98.827 5.66367 98.7582 4.21324 98.7578 2.77192L98.757 0.153139H97.7806H96.8041L96.8507 3.31451ZM110.054 5.01118V9.86921H111.018H111.983V8.21551C111.983 5.77814 112.056 5.77677 116.687 8.12761L120.135 9.87756L122.012 9.83551L123.889 9.79331L120.286 7.97519C118.304 6.97534 116.716 6.12139 116.755 6.07752C116.795 6.03379 117.534 5.92009 118.399 5.82505C120.831 5.5574 121.733 4.91887 121.869 3.37022C121.957 2.36036 121.719 1.64653 121.084 1.01453C120.293 0.227072 119.736 0.153139 114.594 0.153139H110.054V5.01118ZM23.2788 2.02925C24.2714 2.28673 24.9004 2.69435 25.2915 3.33394C25.7026 4.00632 25.7321 5.73335 25.346 6.53174C24.7766 7.70906 22.5992 8.31859 19.9994 8.02817C17.4486 7.74322 16.4944 6.68644 16.7354 4.41349C16.9219 2.65366 18.2649 1.85254 21.0555 1.8363C21.8511 1.83159 22.8516 1.91843 23.2788 2.02925ZM119.667 2.36309C120.082 2.68296 120.08 3.41 119.663 3.70801C119.455 3.85724 118.315 4.03213 116.185 4.24163C114.442 4.41303 112.784 4.58868 112.499 4.6321L111.983 4.71119V3.41895V2.12672H115.672C118.788 2.12672 119.409 2.16346 119.667 2.36309Z" fill="white"/>
</svg>
