<svg width="23" height="23" viewBox="0 0 23 23" fill="none" xmlns="http://www.w3.org/2000/svg">
<path d="M20.3242 12.4398C21.0918 12.4398 21.7222 11.8175 21.7321 11.0499C21.742 10.2823 21.1278 9.66009 20.3601 9.66009L13.3601 9.66009C13.084 9.66009 12.863 9.43625 12.8666 9.16013L12.9584 2.0507C12.9691 1.22234 12.3062 0.550823 11.4778 0.550823H11.2578C10.4293 0.550823 9.74909 1.22234 9.73838 2.0507L9.64651 9.16013C9.64294 9.43625 9.4162 9.66009 9.14005 9.66009H2.14005C1.37239 9.66009 0.742037 10.2823 0.732118 11.0499C0.722199 11.8175 1.33647 12.4398 2.10413 12.4398H9.10413C9.38027 12.4398 9.60124 12.6636 9.59767 12.9398L9.5058 20.0492C9.4951 20.8776 10.158 21.5491 10.9864 21.5491H11.2065C12.0349 21.5491 12.7151 20.8776 12.7259 20.0492L12.8177 12.9398C12.8213 12.6636 13.048 12.4398 13.3242 12.4398L20.3242 12.4398Z" fill="#6A6785" stroke="#6A6785"/>
</svg>
