<svg width="20" height="20" viewBox="0 0 20 20" fill="none" xmlns="http://www.w3.org/2000/svg">
    <path fill-rule="evenodd" clip-rule="evenodd" d="M0.90918 10.4553C0.90918 12.2001 2.34615 13.6371 4.091 13.6371C5.83585 13.6371 7.27282 12.2001 7.27282 10.4553C7.27282 8.7104 5.83585 7.27344 4.091 7.27344C2.34615 7.27344 0.90918 8.7104 0.90918 10.4553ZM2.72736 10.4553C2.72736 9.68821 3.32395 9.09162 4.091 9.09162C4.81543 9.09162 5.45463 9.73086 5.45463 10.4553C5.45463 11.2223 4.85805 11.8189 4.091 11.8189C3.32395 11.8189 2.72736 11.2223 2.72736 10.4553Z" fill="#1598FF"/>
    <path fill-rule="evenodd" clip-rule="evenodd" d="M12.7273 3.18182C12.7273 4.92667 14.1643 6.36364 15.9091 6.36364C17.654 6.36364 19.0909 4.92667 19.0909 3.18182C19.0909 1.43697 17.654 0 15.9091 0C14.1643 0 12.7273 1.43697 12.7273 3.18182ZM14.5455 3.18182C14.5455 2.41477 15.1421 1.81818 15.9091 1.81818C16.6335 1.81818 17.2727 2.41477 17.2727 3.18182C17.2727 3.94887 16.6762 4.54545 15.9091 4.54545C15.1421 4.54545 14.5455 3.94887 14.5455 3.18182Z" fill="#1598FF"/>
    <path d="M6.16787 9.09126C5.92683 9.09126 5.68583 8.95466 5.5412 8.72698C5.34837 8.40823 5.493 7.99845 5.83046 7.81631L13.4952 3.7183C13.8327 3.53616 14.2665 3.67276 14.4594 3.99152C14.6522 4.31027 14.5076 4.72004 14.1701 4.90219L6.50528 9.00024C6.40887 9.09126 6.3125 9.09126 6.16787 9.09126Z" fill="#1598FF"/>
    <path fill-rule="evenodd" clip-rule="evenodd" d="M12.7273 16.8185C12.7273 18.5634 14.1643 20.0004 15.9091 20.0004C17.654 20.0004 19.0909 18.5634 19.0909 16.8185C19.0909 15.0737 17.654 13.6367 15.9091 13.6367C14.1643 13.6367 12.7273 15.0737 12.7273 16.8185ZM14.5455 16.8185C14.5455 16.0515 15.1421 15.4549 15.9091 15.4549C16.6335 15.4549 17.2728 16.0515 17.2727 16.8185C17.2727 17.5856 16.6762 18.1822 15.9091 18.1822C15.1421 18.1822 14.5455 17.5856 14.5455 16.8185Z" fill="#1598FF"/>
    <path d="M13.8327 16.3627C13.7363 16.3627 13.5917 16.3172 13.4953 16.2717L5.83044 12.1737C5.49298 11.9915 5.3484 11.5817 5.54118 11.263C5.73402 10.9442 6.16785 10.8077 6.50531 10.9898L14.1701 15.0878C14.5076 15.2699 14.6522 15.6797 14.4594 15.9985C14.363 16.2261 14.1219 16.3627 13.8327 16.3627Z" fill="#1598FF"/>
</svg>
