<svg width="24" height="24" viewBox="0 0 24 24" fill="none" xmlns="http://www.w3.org/2000/svg">
    <circle cx="12" cy="14.5" r="6.5" stroke="#141223" stroke-width="1.5" stroke-linecap="round" stroke-linejoin="round"/>
    <path d="M21 10.5L22 9.5" stroke="#141223" stroke-width="1.5" stroke-linecap="round" stroke-linejoin="round"/>
    <path d="M21 18.5L22 19.5" stroke="#141223" stroke-width="1.5" stroke-linecap="round" stroke-linejoin="round"/>
    <path d="M22 14.5H23" stroke="#141223" stroke-width="1.5" stroke-linecap="round" stroke-linejoin="round"/>
    <path d="M3 18.5L2 19.5" stroke="#141223" stroke-width="1.5" stroke-linecap="round" stroke-linejoin="round"/>
    <path d="M3 10.5L2 9.5" stroke="#141223" stroke-width="1.5" stroke-linecap="round" stroke-linejoin="round"/>
    <path d="M2 14.5H1" stroke="#141223" stroke-width="1.5" stroke-linecap="round" stroke-linejoin="round"/>
    <path d="M10.8428 8.10876L14.1204 3.42651C14.3075 3.1592 14.6133 3 14.9396 3H18.4982C18.8711 2.99998 19.2131 3.20743 19.3853 3.53818C19.5575 3.86892 19.5314 4.26801 19.3175 4.57349L15.9674 9.35938" stroke="#141223" stroke-width="1.5" stroke-linecap="round" stroke-linejoin="round"/>
    <path d="M12 6.45557L9.87964 3.42651C9.69251 3.1592 9.38672 3 9.06042 3H5.50177C5.12888 2.99998 4.78695 3.20743 4.61474 3.53818C4.44253 3.86892 4.46865 4.26801 4.6825 4.57349L8.03259 9.35938" stroke="#141223" stroke-width="1.5" stroke-linecap="round" stroke-linejoin="round"/>
</svg>
