<svg width="66" height="76" viewBox="0 0 66 76" fill="none" xmlns="http://www.w3.org/2000/svg">
<path fill-rule="evenodd" clip-rule="evenodd" d="M5.36209 75.6V58.2255L31.2909 34.2439C32.8336 32.7644 33.8719 31.5579 34.483 30.6135L34.5049 30.5796L34.5282 30.5466C35.2562 29.5152 35.6614 28.716 35.8449 28.1299C36.0668 27.3474 36.1621 26.6745 36.1621 26.1C36.1621 24.8444 35.7775 24.1271 35.1907 23.6439L35.1644 23.6222L35.1388 23.5997C34.5159 23.0501 33.3778 22.6 31.3621 22.6C29.6825 22.6 28.0723 23.055 26.5 24.0096L26.4774 24.0233L26.4544 24.0365C24.9675 24.8861 23.7611 26.1741 22.8509 27.9944L21.9565 29.7833L0.539062 19.0746L1.49332 17.2665C4.21364 12.1122 8.28657 7.95068 13.6431 4.77905C19.0932 1.55202 25.7687 0 33.5621 0C39.3114 0 44.4838 0.935325 49.0395 2.85727C53.5904 4.77716 57.2312 7.51893 59.8739 11.1158C62.5518 14.7609 63.8621 19.053 63.8621 23.9C63.8621 26.3365 63.5405 28.7662 62.9025 31.1854C62.2953 33.7465 61.0369 36.3632 59.2127 39.0294L59.2057 39.0397L59.1985 39.0499C57.3476 41.6838 54.6638 44.562 51.2055 47.6817C51.2042 47.6828 51.2029 47.684 51.2016 47.6851L45.0351 53.3H65.4621V75.6H5.36209ZM39.8679 55.3L49.8621 46.2C53.2621 43.1333 55.8288 40.3667 57.5621 37.9C59.2954 35.3667 60.4288 32.9667 60.9621 30.7C61.5621 28.4333 61.8621 26.1667 61.8621 23.9C61.8621 19.4333 60.6621 15.5667 58.2621 12.3C55.8621 9.03333 52.5288 6.5 48.2621 4.7C43.9954 2.9 39.0954 2 33.5621 2C26.0288 2 19.7288 3.5 14.6621 6.5C10.2213 9.1294 6.75359 12.4502 4.25892 16.4623C3.90731 17.0278 3.57504 17.607 3.26209 18.2L21.0621 27.1C21.0628 27.0985 21.0636 27.0971 21.0643 27.0956C22.1308 24.9645 23.5967 23.3659 25.4621 22.3C27.3288 21.1667 29.2954 20.6 31.3621 20.6C33.6288 20.6 35.3288 21.1 36.4621 22.1C37.5954 23.0333 38.1621 24.3667 38.1621 26.1C38.1621 26.9 38.0288 27.7667 37.7621 28.7C37.4954 29.5667 36.9621 30.5667 36.1621 31.7C35.4288 32.8333 34.2621 34.1667 32.6621 35.7L7.36209 59.1V73.6H63.4621V55.3H39.8679Z" fill="#FF1700"/>
</svg>
