<svg width="65" height="76" viewBox="0 0 65 76" fill="none" xmlns="http://www.w3.org/2000/svg">
<path fill-rule="evenodd" clip-rule="evenodd" d="M0.404297 68.1509L10.0966 47.0701L11.9973 48.1683C14.8412 49.8114 17.8033 51.0406 20.8868 51.8608C24.0833 52.6263 27.051 53 29.7968 53C32.2602 53 34.0744 52.5978 35.3611 51.9323C35.9831 51.5952 36.3454 51.2388 36.5578 50.9039C36.7656 50.5761 36.8968 50.1647 36.8968 49.6C36.8968 48.7333 36.5989 48.2142 35.9288 47.791L35.8977 47.7714L35.8674 47.7506C35.1256 47.2431 33.5161 46.8 30.5968 46.8H19.2968V29.4812L22.0783 26.6535L21.8072 26.5H22.2293L26.8527 21.8H4.59677V0H60.7968V17.3188L49.6364 28.6641C52.4382 29.6883 54.8989 31.0863 56.9965 32.8799C62.0532 37.2038 64.5968 42.8317 64.5968 49.6C64.5968 53.9962 63.3466 58.1864 60.905 62.1402C58.4663 66.1991 54.6764 69.4304 49.6868 71.8911C44.6497 74.4085 38.2469 75.6 30.5968 75.6C25.6476 75.6 20.6392 75.05 15.5741 73.9548C10.4836 72.8542 5.96035 71.2266 2.02813 69.0498L0.404297 68.1509ZM48.7968 70.1C53.5301 67.7667 56.9968 64.7667 59.1968 61.1C61.4634 57.4333 62.5968 53.6 62.5968 49.6C62.5968 43.4 60.2968 38.3333 55.6968 34.4C53.5967 32.6043 51.059 31.2185 48.0837 30.2426C47.3781 30.0112 46.6479 29.8028 45.8931 29.6175L58.7968 16.5V2H6.59677V19.8H31.6256L21.2968 30.3V44.8H30.5968C33.5968 44.8 35.7301 45.2333 36.9968 46.1C38.2634 46.9 38.8968 48.0667 38.8968 49.6C38.8968 51.4 38.0301 52.7667 36.2968 53.7C34.6301 54.5667 32.4634 55 29.7968 55C26.8634 55 23.7301 54.6 20.3968 53.8C17.7635 53.1014 15.2169 52.1212 12.7569 50.8594C12.1652 50.5559 11.5785 50.2361 10.9968 49.9L2.99677 67.3C6.7301 69.3667 11.0634 70.9333 15.9968 72C20.9301 73.0667 25.7968 73.6 30.5968 73.6C38.0634 73.6 44.1301 72.4333 48.7968 70.1Z" fill="#FF1700"/>
</svg>
